<svg width="700" height="700" viewBox="0 0 700 700" fill="none" xmlns="http://www.w3.org/2000/svg">
<path d="M350 598.584C499.915 598.584 621.446 591.489 621.446 582.736C621.446 573.984 499.915 566.888 350 566.888C200.084 566.888 78.5537 573.984 78.5537 582.736C78.5537 591.489 200.084 598.584 350 598.584Z" fill="#F5F5F5"/>
<path d="M193.731 315.784L203.335 310.296C203.335 310.296 207.031 304.598 208.137 304.332C209.243 304.066 221.423 304.332 221.423 304.332C221.423 304.332 219.589 312.228 219.393 313.782C219.197 315.336 207.577 313.782 207.577 313.782L198.169 319.382L193.731 315.784Z" fill="#EBB376"/>
<path d="M104.286 571.2L94.234 569.198C94.0545 569.197 93.8802 569.257 93.74 569.37C93.5999 569.482 93.5025 569.638 93.464 569.814L90.762 579.866C90.7051 580.209 90.7782 580.562 90.9672 580.854C91.1562 581.147 91.4474 581.358 91.784 581.448H92.078C95.634 581.448 98.224 581.168 102.676 581.168C105.476 581.168 113.708 581.462 117.502 581.462C121.296 581.462 121.8 577.71 120.302 577.374C113.302 575.848 108.094 573.748 105.868 571.774C105.437 571.381 104.868 571.175 104.286 571.2Z" fill="#263238"/>
<path d="M227.303 570.864H216.327C216.147 570.86 215.971 570.92 215.831 571.033C215.69 571.145 215.593 571.303 215.557 571.48L213.765 579.6C213.713 579.943 213.79 580.294 213.981 580.584C214.172 580.873 214.465 581.082 214.801 581.168H215.095C218.651 581.098 221.227 580.888 225.693 580.888C228.493 580.888 236.725 581.168 240.519 581.168C244.313 581.168 244.803 577.43 243.249 577.08C236.249 575.568 231.041 573.454 228.815 571.48C228.617 571.281 228.382 571.124 228.122 571.018C227.862 570.912 227.584 570.86 227.303 570.864Z" fill="#263238"/>
<path d="M123.661 385.938L170.141 374.15C180.683 397.166 219.365 491.666 228.745 570.29L213.009 574.28C213.009 574.28 185.149 458.332 161.783 424.48C161.783 424.48 160.537 475.944 158.003 483.434C155.917 489.594 108.079 572.012 108.079 572.012L92.5391 570.262C92.5391 570.262 131.599 486.15 133.895 475.664C135.519 468.524 128.407 416.08 128.407 416.08C127.161 411.404 125.285 392.042 125.285 392.042C125.285 392.042 123.885 386.904 123.661 385.938Z" fill="#407BFF"/>
<path opacity="0.2" d="M161.798 424.508C165.742 430.475 169.184 436.759 172.088 443.296C168.868 425.18 158.886 407.638 158.886 407.638L161.798 424.508Z" fill="black"/>
<path opacity="0.3" d="M123.661 385.938L170.141 374.15C180.683 397.166 219.365 491.666 228.745 570.29L213.009 574.28C213.009 574.28 185.149 458.332 161.783 424.48C161.783 424.48 160.537 475.944 158.003 483.434C155.917 489.594 108.079 572.012 108.079 572.012L92.5391 570.262C92.5391 570.262 131.599 486.15 133.895 475.664C135.519 468.524 128.407 416.08 128.407 416.08C127.161 411.404 125.285 392.042 125.285 392.042C125.285 392.042 123.885 386.904 123.661 385.938Z" fill="black"/>
<path d="M204.469 316.582C204.469 316.582 183.273 330.89 177.687 331.646C175.461 331.954 170.869 331.198 166.123 330.246C158.927 328.706 151.423 326.55 151.423 326.55L150.485 319.452L149.491 311.864C151.171 311.304 173.095 320.264 176.371 321.664C179.647 323.064 200.829 310.464 200.829 310.464L204.469 316.582Z" fill="#263238"/>
<path d="M138.922 382.662L140.294 388.038L125.286 392.042L123.886 386.47L138.922 382.662Z" fill="black"/>
<path d="M162.596 376.656L163.898 381.752L141.96 387.604L140.588 382.242L162.596 376.656Z" fill="black"/>
<path d="M172.536 379.456L165.55 381.318L164.262 376.236L170.674 374.612L172.536 379.456Z" fill="black"/>
<path d="M150.66 385.286L159.318 383.09L157.735 376.848L149.077 379.044L150.66 385.286Z" fill="white"/>
<path d="M170.66 374.598L123.872 386.47C121.59 380.296 119.266 374.08 116.998 368.018C115.332 363.58 113.694 359.226 112.098 355.012C111.697 353.929 111.291 352.865 110.88 351.82L109.48 348.096C108.444 345.371 107.445 342.743 106.484 340.214L103.908 333.48L102.69 330.288L100.38 324.268L149.506 311.808C165.704 340.074 170.66 374.598 170.66 374.598Z" fill="#263238"/>
<path d="M118.215 323.064C123.269 325.486 132.593 321.216 132.593 321.216C132.593 321.216 135.687 317.8 133.839 316.288C130.087 316.778 130.325 315.546 128.967 313.628C128.191 312.418 127.658 311.067 127.399 309.652C127.231 308.871 127.105 308.081 127.021 307.286L112.279 301.994C115.625 307.398 120.819 317.632 118.215 323.064Z" fill="#EBB376"/>
<path opacity="0.2" d="M116.76 306.824C119.42 313.894 125.944 314.104 128.968 313.628C128.191 312.417 127.659 311.066 127.4 309.652L116.76 306.824Z" fill="black"/>
<path d="M135.968 280C135.968 280 139.818 291.62 134.26 297.29C128.702 302.96 124.936 280.742 124.936 280.742L135.968 280Z" fill="#263238"/>
<path d="M117.488 309.946C119.151 311.681 121.337 312.824 123.712 313.198C126.086 313.572 128.518 313.158 130.634 312.018C133.409 310.584 135.532 308.146 136.57 305.2C136.71 304.808 136.836 304.388 136.948 303.968C138.824 296.142 137.648 283.22 129.122 279.748C127.243 278.973 125.197 278.692 123.178 278.932C121.16 279.171 119.236 279.923 117.59 281.115C115.944 282.308 114.631 283.902 113.775 285.745C112.919 287.589 112.549 289.621 112.7 291.648C113.204 300.37 113.092 305.494 117.488 309.946Z" fill="#EBB376"/>
<path d="M125.901 294.126C125.901 294.826 126.265 295.4 126.741 295.4C127.217 295.4 127.567 294.826 127.581 294.126C127.595 293.426 127.203 292.838 126.741 292.838C126.279 292.838 125.901 293.412 125.901 294.126Z" fill="#263238"/>
<path d="M133.909 294.126C133.909 294.84 134.287 295.414 134.749 295.414C135.211 295.414 135.575 294.826 135.589 294.126C135.603 293.426 135.197 292.852 134.749 292.852C134.301 292.852 133.909 293.454 133.909 294.126Z" fill="#263238"/>
<path d="M131.362 294.476C132.199 296.644 133.335 298.684 134.736 300.538C134.25 300.886 133.693 301.123 133.105 301.232C132.517 301.341 131.913 301.319 131.334 301.168L131.362 294.476Z" fill="#D58745"/>
<path d="M136.836 290.85C136.769 290.884 136.694 290.902 136.619 290.902C136.543 290.902 136.469 290.884 136.402 290.85C135.988 290.532 135.505 290.315 134.992 290.218C134.478 290.121 133.95 290.145 133.448 290.29C133.346 290.329 133.232 290.326 133.132 290.281C133.033 290.236 132.955 290.154 132.916 290.052C132.877 289.95 132.88 289.836 132.925 289.737C132.969 289.637 133.052 289.559 133.154 289.52C133.782 289.322 134.448 289.278 135.096 289.392C135.745 289.507 136.356 289.776 136.878 290.178C136.924 290.208 136.963 290.246 136.994 290.291C137.024 290.337 137.045 290.388 137.056 290.441C137.066 290.495 137.066 290.55 137.054 290.603C137.043 290.657 137.021 290.707 136.99 290.752C136.943 290.791 136.891 290.824 136.836 290.85Z" fill="#263238"/>
<path d="M124.32 290.948C124.24 290.937 124.163 290.909 124.096 290.864C124.019 290.785 123.976 290.68 123.976 290.57C123.976 290.46 124.019 290.354 124.096 290.276C124.585 289.828 125.175 289.505 125.816 289.334C126.458 289.164 127.13 289.15 127.778 289.296C127.88 289.328 127.966 289.399 128.018 289.492C128.07 289.586 128.084 289.696 128.058 289.8C128.025 289.906 127.953 289.995 127.857 290.05C127.761 290.105 127.647 290.12 127.54 290.094C127.029 289.991 126.501 290.011 126 290.153C125.498 290.294 125.038 290.552 124.656 290.906C124.606 290.936 124.55 290.955 124.492 290.962C124.434 290.97 124.376 290.965 124.32 290.948Z" fill="#263238"/>
<path d="M119.083 280.84L119.923 282.45C117.123 283.528 117.823 286.832 118.523 288.302C119.923 291.466 118.313 296.548 115.947 298.662C115.947 298.662 115.793 297.262 114.631 297.654C113.469 298.046 114.141 305.298 116.605 308.658C116.605 308.658 112.979 305.676 110.655 298.144C108.513 291.144 108.009 285.306 109.339 282.506L119.083 280.84Z" fill="#263238"/>
<path d="M108.892 298.816C109.368 299.794 110.032 300.668 110.847 301.388C111.661 302.109 112.61 302.662 113.638 303.016C116.438 303.94 117.838 301.518 117.278 298.816C116.69 296.45 114.576 293.02 111.678 293.286C111.067 293.354 110.482 293.574 109.978 293.925C109.473 294.276 109.063 294.747 108.787 295.296C108.51 295.845 108.375 296.455 108.393 297.07C108.412 297.684 108.583 298.284 108.892 298.816Z" fill="#EBB376"/>
<path d="M119 313.446C123.116 316.33 131.138 317.268 135.072 312.046C139.006 306.824 137.746 298.438 137.746 298.438C137.294 300.311 136.433 302.061 135.226 303.562C133 300.874 129.22 302.4 129.22 302.4C128.423 301.363 127.28 300.648 126 300.384C124.166 300.202 119 300.51 119 300.51C117.348 299.46 117.278 294.784 117.278 294.784L116.27 295.624C116.27 295.624 114.87 310.548 119 313.446Z" fill="#263238"/>
<path d="M130.004 283.808C130.004 283.808 139.804 279.048 138.642 274.288C137.48 269.528 134.624 274.96 134.624 274.96C134.624 274.96 135.94 271.348 133.364 270.76C130.788 270.172 131.6 272.482 130.2 273.868C128.8 275.254 115.22 273.238 110.838 275.954C106.456 278.67 109.802 288.064 109.802 288.064C112.39 285.466 115.68 283.679 119.268 282.923C122.857 282.167 126.588 282.475 130.004 283.808Z" fill="#263238"/>
<path opacity="0.2" d="M119 313.446C123.116 316.33 131.138 317.268 135.072 312.046C139.006 306.824 137.746 298.438 137.746 298.438C137.294 300.311 136.433 302.061 135.226 303.562C133 300.874 129.22 302.4 129.22 302.4C128.423 301.363 127.28 300.648 126 300.384C124.166 300.202 119 300.51 119 300.51C117.348 299.46 117.278 294.784 117.278 294.784L116.27 295.624C116.27 295.624 114.87 310.548 119 313.446Z" fill="white"/>
<path d="M129.639 305.06C128.886 306.068 128.207 307.13 127.609 308.238L126.979 308C124.179 306.978 123.171 305.578 122.947 304.318C122.857 303.707 122.91 303.084 123.101 302.498C123.203 302.158 123.349 301.833 123.535 301.532C125.008 302.938 126.765 304.012 128.687 304.682C129.261 304.934 129.639 305.06 129.639 305.06Z" fill="#263238"/>
<path d="M128.688 304.696L128.058 305.62C125.398 304.654 123.648 303.618 123.102 302.512C123.204 302.172 123.349 301.848 123.536 301.546C125.008 302.952 126.765 304.026 128.688 304.696Z" fill="white"/>
<path d="M126.979 308C124.179 306.978 123.171 305.578 122.947 304.318C124.016 304.734 125.006 305.331 125.873 306.082C126.434 306.589 126.821 307.26 126.979 308Z" fill="#DE5753"/>
<path d="M134.442 321.23L133.616 328.482L148.736 360.696L147.238 364.966L142.296 362.684L131.516 329.826L123.592 324.464L129.36 321.3L134.442 321.23Z" fill="#407BFF"/>
<path d="M118.552 316.274L128.562 320.404L128.968 313.628L136.346 315.448L136.976 325.766L129.878 322.868L126.91 329.476L114.296 321.048L118.552 316.274Z" fill="#263238"/>
<path opacity="0.2" d="M118.552 316.274L128.562 320.404L128.968 313.628L136.346 315.448L136.976 325.766L129.878 322.868L126.91 329.476L114.296 321.048L118.552 316.274Z" fill="white"/>
<path opacity="0.2" d="M109.466 348.096C108.43 345.371 107.431 342.743 106.47 340.214L103.894 333.48L102.676 330.288C104.076 329.602 107.646 330.008 108.64 331.688C112.28 338.044 109.466 348.096 109.466 348.096Z" fill="black"/>
<path opacity="0.2" d="M127.007 355.208C126.41 357.958 125.199 360.538 123.466 362.756C121.733 364.974 119.522 366.772 116.997 368.018C115.331 363.58 113.693 359.226 112.097 355.012C111.696 353.929 111.29 352.865 110.879 351.82L109.479 348.096L125.691 350.154L127.007 355.208Z" fill="black"/>
<path opacity="0.2" d="M166.123 330.19C158.927 328.65 151.423 326.494 151.423 326.494L150.485 319.396C150.485 319.396 163.715 320.81 166.123 330.19Z" fill="black"/>
<path d="M100.365 495.6C99.9264 495.615 99.494 495.491 99.1288 495.247C98.7637 495.003 98.4842 494.651 98.3296 494.24C98.1751 493.829 98.1533 493.38 98.2673 492.956C98.3814 492.532 98.6255 492.154 98.9653 491.876C122.331 472.696 121.883 442.638 121.449 413.56C121.113 391.636 120.805 370.916 131.123 356.832C145.599 337.036 203.825 305.634 213.471 304.738C220.373 304.052 430.891 245.546 541.253 214.704C541.79 214.554 542.364 214.622 542.85 214.896C543.336 215.169 543.693 215.623 543.843 216.16C543.994 216.696 543.925 217.271 543.652 217.756C543.379 218.242 542.924 218.6 542.387 218.75C529.325 222.404 222.515 308.126 213.863 308.924C205.561 309.694 147.923 340.97 134.511 359.324C125.033 372.274 125.327 392.308 125.649 413.504C126.069 442.176 126.559 474.684 101.625 495.138C101.268 495.427 100.825 495.59 100.365 495.6Z" fill="#263238"/>
<path opacity="0.4" d="M542.458 218.736L513.674 226.8C434.504 248.892 221.074 308.28 213.934 308.938C205.632 309.708 147.994 340.984 134.582 359.338C125.104 372.288 125.398 392.322 125.72 413.518C126.14 442.19 126.63 474.698 101.696 495.152C101.304 495.477 100.805 495.647 100.296 495.628C99.8571 495.642 99.4247 495.519 99.0595 495.275C98.6943 495.031 98.4148 494.679 98.2603 494.268C98.1058 493.857 98.084 493.408 98.198 492.984C98.312 492.56 98.5562 492.182 98.896 491.904C122.262 472.724 121.814 442.666 121.38 413.588C121.044 391.664 120.736 370.944 131.054 356.86C145.53 337.064 203.756 305.662 213.402 304.766C219.898 304.122 406.406 252.35 520.394 220.542L541.184 214.732C541.721 214.581 542.295 214.65 542.781 214.923C543.266 215.196 543.624 215.651 543.774 216.188C543.924 216.724 543.855 217.299 543.582 217.784C543.309 218.27 542.855 218.627 542.318 218.778L542.458 218.736Z" fill="white"/>
<path opacity="0.2" d="M542.458 218.736L513.674 226.8C515.692 224.433 517.996 222.326 520.534 220.528L541.324 214.718C541.86 214.568 542.435 214.637 542.92 214.91C543.406 215.183 543.763 215.638 543.914 216.174C544.064 216.711 543.995 217.285 543.722 217.771C543.449 218.256 542.994 218.614 542.458 218.764V218.736Z" fill="black"/>
<path d="M114.674 351.12L125.678 350.154C125.678 350.154 131.432 346.514 132.538 346.752C133.644 346.99 144.606 352.352 144.606 352.352C144.606 352.352 139.636 358.75 138.81 360.08C137.984 361.41 128.086 355.138 128.086 355.138L117.18 356.3L114.674 351.12Z" fill="#EBB376"/>
<path d="M100.366 324.268C95.3675 327.838 82.3475 356.944 83.7335 361.438C85.1195 365.932 125.636 357.07 125.636 357.07L123.844 349.496H102.046L107.226 341.32C107.226 341.32 110.418 338.212 108.458 330.988C107.044 325.78 100.366 324.268 100.366 324.268Z" fill="#263238"/>
<path d="M522.494 327.194L514.192 323.26C514.192 323.26 509.992 315.224 508.76 313.936C507.528 312.648 501.578 317.646 501.578 318.514C501.578 319.382 505.89 327.502 507.01 327.992C508.677 328.237 510.37 328.237 512.036 327.992L519.932 331.814L522.494 327.194Z" fill="#9F5B53"/>
<path d="M541.87 277.396L543.536 271.446C543.536 271.446 546.168 263.69 545.888 261.898C545.373 259.777 544.709 257.695 543.9 255.668C543.9 255.668 536.62 264.53 536.62 265.636C536.62 266.742 539.504 270.76 539.504 270.76L538.104 277.396H541.87Z" fill="#9F5B53"/>
<path d="M548.268 321.72C548.268 321.72 541.996 313.922 540.148 306.67C538.3 299.418 543.886 275.87 543.886 275.87L537.992 274.302C537.992 274.302 530.992 298.396 530.754 307.188C530.516 315.98 543.592 341.782 543.592 341.782L548.268 321.72Z" fill="#407BFF"/>
<path opacity="0.2" d="M544.475 337.904L543.579 341.726C543.579 341.726 539.071 332.836 535.389 323.708C539.22 326.46 542.109 330.327 543.663 334.782C544.018 335.799 544.29 336.843 544.475 337.904Z" fill="black"/>
<path d="M581.477 338.8C581.398 340.427 581.201 342.046 580.889 343.644C580.245 347.144 579.153 351.274 577.907 355.824C577.235 358.218 576.507 360.78 575.863 363.482C572.741 375.62 571.047 380.45 568.737 395.948L524.427 385.434C526.821 372.167 530.473 359.159 535.333 346.584C536.621 343.238 538.133 339.892 539.659 336.588C542.105 331.408 544.986 326.443 548.269 321.748C548.269 321.748 555.437 328.3 577.949 332.234C580.679 332.654 581.617 335.034 581.477 338.8Z" fill="#407BFF"/>
<path opacity="0.2" d="M575.904 333.746C575.904 335.146 581.21 341.81 580.888 343.546C580.286 343.952 579.572 344.4 578.76 344.946C563.766 353.668 544.096 349.244 535.36 346.542C536.648 343.196 539.56 337.05 541.072 333.746L551.586 336.084C551.586 336.084 568.778 332.164 575.904 333.746Z" fill="black"/>
<path d="M557.886 324.394C559.496 323.778 572.712 327.068 571.732 327.348C570.752 327.628 565.824 342.748 558.922 341.614C552.02 340.48 552.146 326.578 557.886 324.394Z" fill="#407BFF"/>
<path d="M498.05 572.124L489.734 573.93L484.876 554.806L493.206 553L498.05 572.124Z" fill="#9F5B53"/>
<path d="M487.662 570.458H498.008C498.177 570.458 498.34 570.517 498.47 570.624C498.601 570.731 498.69 570.881 498.722 571.046L500.402 578.62C500.439 578.782 500.443 578.95 500.414 579.113C500.386 579.277 500.324 579.433 500.234 579.572C500.144 579.712 500.028 579.832 499.89 579.926C499.753 580.02 499.599 580.085 499.436 580.118H499.156C495.81 580.118 493.374 579.852 489.174 579.852C486.584 579.852 478.772 580.118 475.174 580.118C471.576 580.118 471.142 576.59 472.598 576.268C479.164 574.868 484.106 572.852 486.206 570.976C486.402 570.798 486.632 570.66 486.882 570.571C487.132 570.482 487.397 570.444 487.662 570.458Z" fill="#263238"/>
<path d="M484.848 571.956C484.269 571.999 483.692 571.846 483.21 571.522C483.053 571.394 482.932 571.227 482.859 571.038C482.785 570.849 482.761 570.644 482.79 570.444C482.784 570.326 482.812 570.208 482.872 570.106C482.932 570.004 483.02 569.922 483.126 569.87C484.078 569.38 486.822 571.074 487.13 571.27C487.166 571.287 487.194 571.316 487.212 571.351C487.23 571.387 487.235 571.427 487.228 571.466C487.223 571.506 487.206 571.544 487.178 571.575C487.151 571.605 487.114 571.625 487.074 571.634C486.347 571.824 485.6 571.932 484.848 571.956ZM483.574 570.192C483.493 570.164 483.404 570.164 483.322 570.192C483.322 570.192 483.196 570.262 483.182 570.43C483.168 570.563 483.186 570.697 483.234 570.821C483.283 570.946 483.361 571.056 483.462 571.144C484.414 571.579 485.496 571.634 486.486 571.298C485.596 570.744 484.607 570.369 483.574 570.192Z" fill="#407BFF"/>
<path d="M487.019 571.648H486.921C486.053 571.172 484.345 569.296 484.513 568.4C484.545 568.249 484.628 568.114 484.747 568.018C484.867 567.921 485.016 567.868 485.171 567.868C485.324 567.848 485.479 567.861 485.627 567.907C485.774 567.953 485.91 568.03 486.025 568.134C487.005 568.932 487.215 571.382 487.229 571.494C487.231 571.531 487.223 571.567 487.205 571.599C487.188 571.631 487.162 571.658 487.131 571.676C487.111 571.682 487.09 571.683 487.071 571.678C487.051 571.673 487.033 571.663 487.019 571.648ZM485.311 568.19H485.213C484.947 568.19 484.933 568.344 484.919 568.4C484.807 568.96 485.899 570.374 486.767 571.032C486.719 570.077 486.382 569.159 485.801 568.4C485.738 568.334 485.662 568.281 485.577 568.244C485.493 568.208 485.402 568.19 485.311 568.19Z" fill="#407BFF"/>
<path d="M569.1 397.11C569.1 397.11 561.918 431.354 545.118 440.51C543.19 441.594 541.078 442.311 538.888 442.624C538.888 442.624 521.85 449.624 507.122 456.246C498.162 460.292 490.056 464.24 487.158 466.452C479.486 472.29 498.274 563.43 498.274 563.43L485.506 563.57C485.506 563.57 458.64 482.874 463.106 461.692C467.572 440.51 515.788 408.086 515.788 408.086L523.208 387.674L569.1 397.11Z" fill="#263238"/>
<path opacity="0.2" d="M545.118 440.552C543.19 441.636 541.078 442.353 538.888 442.666C538.888 442.666 521.85 449.666 507.122 456.288C516.6 438.858 533.498 427.532 533.498 427.532L545.118 440.552Z" fill="black"/>
<path d="M605.094 572.124L596.778 573.93L591.92 554.806L600.25 553L605.094 572.124Z" fill="#9F5B53"/>
<path d="M594.706 570.458H605.052C605.221 570.458 605.384 570.517 605.514 570.624C605.645 570.731 605.734 570.881 605.766 571.046L607.446 578.62C607.483 578.782 607.487 578.95 607.458 579.113C607.43 579.277 607.368 579.433 607.278 579.572C607.188 579.712 607.071 579.832 606.934 579.926C606.797 580.02 606.643 580.085 606.48 580.118H606.2C602.854 580.118 600.418 579.852 596.218 579.852C593.628 579.852 585.816 580.118 582.218 580.118C578.62 580.118 578.186 576.59 579.642 576.268C586.208 574.868 591.15 572.852 593.25 570.976C593.446 570.798 593.676 570.66 593.926 570.571C594.176 570.482 594.441 570.444 594.706 570.458Z" fill="#263238"/>
<path d="M591.892 571.956C591.313 571.999 590.736 571.846 590.254 571.522C590.097 571.394 589.976 571.227 589.902 571.038C589.829 570.849 589.805 570.644 589.834 570.444C589.828 570.326 589.856 570.208 589.916 570.106C589.976 570.004 590.064 569.922 590.17 569.87C591.122 569.38 593.866 571.074 594.174 571.27C594.21 571.287 594.238 571.316 594.256 571.351C594.274 571.387 594.279 571.427 594.272 571.466C594.267 571.506 594.25 571.544 594.222 571.575C594.195 571.605 594.158 571.625 594.118 571.634C593.391 571.824 592.644 571.932 591.892 571.956ZM590.618 570.192C590.537 570.164 590.448 570.164 590.366 570.192C590.366 570.192 590.24 570.262 590.226 570.43C590.212 570.563 590.23 570.697 590.278 570.821C590.327 570.946 590.405 571.056 590.506 571.144C591.458 571.579 592.539 571.634 593.53 571.298C592.64 570.744 591.651 570.369 590.618 570.192Z" fill="#407BFF"/>
<path d="M594.062 571.648H593.964C593.096 571.172 591.388 569.296 591.556 568.4C591.589 568.249 591.671 568.114 591.791 568.018C591.911 567.921 592.06 567.868 592.214 567.868C592.368 567.848 592.523 567.861 592.671 567.907C592.818 567.953 592.954 568.03 593.068 568.134C594.048 568.932 594.258 571.382 594.272 571.494C594.275 571.531 594.267 571.567 594.249 571.599C594.232 571.631 594.206 571.658 594.174 571.676C594.155 571.682 594.134 571.683 594.115 571.678C594.095 571.673 594.077 571.663 594.062 571.648ZM592.354 568.19H592.2C591.934 568.19 591.92 568.344 591.906 568.4C591.794 568.96 592.886 570.374 593.754 571.032C593.7 570.063 593.348 569.134 592.746 568.372C592.639 568.27 592.502 568.206 592.354 568.19Z" fill="#407BFF"/>
<path d="M571.971 331.646C569.885 333.046 560.267 332.514 560.267 332.514L555.801 337.4L555.367 329.322C555.367 329.322 552.357 328.076 553.183 327.208C554.23 327.286 555.282 327.154 556.277 326.82C557.272 326.486 558.191 325.956 558.979 325.262C560.925 323.358 561.303 320.292 561.275 317.254C561.275 317.254 561.275 317.17 561.275 317.142L569.493 312.942L575.177 310.016C572.503 315.784 568.681 326.606 571.971 331.646Z" fill="#9F5B53"/>
<path opacity="0.2" d="M572.209 314.86C569.493 321.734 562.409 324.8 558.923 325.248C560.869 323.344 561.247 320.278 561.219 317.24C561.226 317.198 561.226 317.156 561.219 317.114L569.437 312.914C569.451 314.034 572.601 313.81 572.209 314.86Z" fill="black"/>
<path d="M577.43 314.58C577.43 314.58 582.764 317.38 584.542 314.034C586.32 310.688 583.786 310.492 586.404 309.288C589.022 308.084 592.746 307.244 591.892 304.71C591.038 302.176 588.392 301.91 591.332 299.11C594.272 296.31 594.916 292.362 590.52 291.592C586.124 290.822 587.804 287.392 587.58 285.992C587.356 284.592 584.892 283.612 582.218 284.172C579.544 284.732 578.424 280.77 576.772 279.538C575.12 278.306 572.838 279.818 572.236 281.484C571.634 283.15 570.052 280.938 567.7 280.658C565.348 280.378 565.894 282.856 565.166 285.166C564.438 287.476 562.996 285.978 561.316 287.882C559.636 289.786 559.482 302.778 577.43 314.58Z" fill="#263238"/>
<path d="M579.754 306.6C575.736 312.9 573.454 317.058 568.946 319.102C568.339 319.382 567.712 319.616 567.07 319.802C558.306 322.378 551.082 313.936 553.392 305.578C553.832 304.069 554.394 302.599 555.072 301.182C558.208 294.616 564.242 287.896 571.452 288.778C572.958 288.95 574.414 289.417 575.739 290.153C577.064 290.889 578.23 291.879 579.172 293.066C580.113 294.254 580.811 295.615 581.226 297.073C581.641 298.53 581.764 300.055 581.588 301.56C581.376 303.36 580.748 305.085 579.754 306.6Z" fill="#9F5B53"/>
<path d="M567.42 302.4C567.126 303.03 566.496 303.31 566.104 303.1C565.712 302.89 565.67 302.204 565.992 301.616C566.314 301.028 566.93 300.706 567.308 300.916C567.686 301.126 567.756 301.826 567.42 302.4Z" fill="#263238"/>
<path d="M560.63 298.662C560.543 298.925 560.357 299.144 560.111 299.272C559.866 299.401 559.579 299.428 559.314 299.348C558.936 299.124 558.88 298.466 559.216 297.864C559.552 297.262 560.14 296.954 560.532 297.178C560.924 297.402 560.952 298.088 560.63 298.662Z" fill="#263238"/>
<path d="M562.632 300.16C560.892 301.59 558.966 302.777 556.906 303.688C557.152 304.212 557.511 304.676 557.956 305.046C558.401 305.416 558.922 305.684 559.482 305.83L562.632 300.16Z" fill="#892B29"/>
<path d="M571.481 300.832C571.408 300.843 571.333 300.835 571.264 300.808C571.195 300.781 571.135 300.736 571.089 300.678C570.805 300.26 570.426 299.915 569.983 299.671C569.54 299.428 569.046 299.293 568.541 299.278C568.482 299.289 568.422 299.287 568.364 299.272C568.306 299.257 568.252 299.23 568.206 299.192C568.16 299.154 568.123 299.106 568.098 299.052C568.073 298.998 568.06 298.939 568.06 298.879C568.06 298.819 568.073 298.761 568.098 298.707C568.123 298.653 568.16 298.605 568.206 298.567C568.252 298.529 568.306 298.501 568.364 298.486C568.422 298.471 568.482 298.469 568.541 298.48C569.179 298.484 569.806 298.643 570.369 298.943C570.933 299.243 571.415 299.675 571.775 300.202C571.808 300.243 571.832 300.29 571.847 300.341C571.861 300.392 571.865 300.445 571.859 300.497C571.852 300.549 571.835 300.6 571.809 300.645C571.782 300.691 571.747 300.731 571.705 300.762C571.637 300.803 571.56 300.827 571.481 300.832Z" fill="#263238"/>
<path d="M561.121 309.582C562.061 309.888 563.061 309.962 564.036 309.799C565.01 309.635 565.932 309.239 566.721 308.644C566.756 308.603 566.776 308.551 566.776 308.497C566.776 308.443 566.756 308.391 566.721 308.35C566.681 308.312 566.629 308.29 566.574 308.29C566.519 308.29 566.466 308.312 566.427 308.35C565.679 308.887 564.817 309.243 563.908 309.389C562.999 309.535 562.069 309.467 561.191 309.19C561.166 309.179 561.139 309.174 561.112 309.174C561.086 309.175 561.059 309.181 561.035 309.193C561.011 309.205 560.99 309.223 560.973 309.244C560.956 309.265 560.945 309.29 560.939 309.316C560.928 309.341 560.922 309.367 560.923 309.394C560.923 309.421 560.93 309.448 560.942 309.472C560.954 309.496 560.971 309.517 560.993 309.534C561.014 309.55 561.038 309.562 561.065 309.568L561.121 309.582Z" fill="#263238"/>
<path d="M560 292.852C559.979 292.774 559.979 292.692 560 292.614C560.046 292.518 560.127 292.444 560.227 292.408C560.326 292.371 560.436 292.375 560.532 292.418C561.12 292.681 561.635 293.082 562.035 293.586C562.435 294.091 562.707 294.684 562.828 295.316C562.84 295.422 562.81 295.528 562.745 295.612C562.68 295.695 562.584 295.75 562.478 295.764C562.373 295.776 562.267 295.746 562.183 295.681C562.099 295.615 562.044 295.519 562.03 295.414C561.92 294.92 561.696 294.459 561.375 294.067C561.054 293.676 560.645 293.365 560.182 293.16C560.133 293.124 560.091 293.078 560.059 293.025C560.028 292.972 560.008 292.913 560 292.852Z" fill="#263238"/>
<path d="M565.769 289.366C567.813 289.618 568.821 292.166 568.821 292.166C571.292 293.069 573.681 294.184 575.961 295.498C576.656 296.065 577.179 296.815 577.471 297.664C577.763 298.512 577.812 299.425 577.613 300.3C577.543 300.972 575.891 301.588 575.891 301.588C575.891 301.588 572.867 308.728 572.041 310.702L572.461 317.296C578.018 313.782 582.468 308.769 585.299 302.834C590.073 292.894 570.151 284.144 570.151 284.144L565.769 289.366Z" fill="#263238"/>
<path d="M578.55 316.568C576.688 317.587 574.499 317.829 572.46 317.24C569.758 316.428 569.912 313.656 571.914 311.878C573.706 310.338 577.304 308.812 579.39 310.604C579.847 310.994 580.197 311.493 580.41 312.054C580.623 312.616 580.69 313.222 580.606 313.816C580.523 314.411 580.29 314.975 579.931 315.456C579.571 315.937 579.097 316.319 578.55 316.568Z" fill="#9F5B53"/>
<path d="M571.732 327.348L560.602 330.554L555.8 337.064L557.102 329.098C557.102 329.098 555.912 327.264 557.886 324.394L551.11 325.794L547.022 332.626L554.974 330.764L555.52 338.702L560.154 333.242L563.948 339.234L575.232 332.08L571.732 327.348Z" fill="#407BFF"/>
<path opacity="0.2" d="M571.732 327.348L560.602 330.554L555.8 337.064L557.102 329.098C557.102 329.098 555.912 327.264 557.886 324.394L551.11 325.794L547.022 332.626L554.974 330.764L555.52 338.702L560.154 333.242L563.948 339.234L575.232 332.08L571.732 327.348Z" fill="black"/>
<path d="M525.014 380.8L523.278 387.716L569.086 397.11L569.772 389.424L525.014 380.8Z" fill="black"/>
<path d="M545.468 384.426C545.104 383.908 534.912 381.71 533.946 382.438C533.946 382.438 531.972 389.256 532.308 389.97C532.644 390.684 542.556 392.07 543.508 392.266C544.46 392.462 545.832 385 545.468 384.426ZM542.668 391.426C541.912 391.272 533.764 390.138 533.484 389.55C533.204 388.962 534.884 383.362 534.884 383.362C535.682 382.76 544.054 384.566 544.348 384.986C544.642 385.406 543.424 391.51 542.668 391.356V391.426Z" fill="white"/>
<path d="M543.06 386.75L541.03 386.33C540.845 386.295 540.654 386.329 540.493 386.428C540.333 386.526 540.215 386.681 540.162 386.862C540.133 386.963 540.126 387.069 540.14 387.174C540.154 387.278 540.19 387.378 540.246 387.468C540.301 387.558 540.374 387.635 540.461 387.694C540.548 387.754 540.647 387.795 540.75 387.814L542.78 388.206C542.977 388.245 543.181 388.204 543.348 388.092C543.515 387.981 543.63 387.808 543.669 387.611C543.708 387.414 543.667 387.21 543.556 387.043C543.444 386.876 543.271 386.761 543.074 386.722L543.06 386.75Z" fill="white"/>
<path d="M569.087 397.11C569.087 397.11 569.969 448.91 568.513 464.03C567.057 479.15 604.801 561.904 604.801 561.904H592.579C592.579 561.904 555.549 501.312 547.065 482.664C538.581 464.016 532.309 419.524 532.309 419.524L569.087 397.11Z" fill="#263238"/>
<path d="M581.63 335.16C579.74 330.876 550.718 337.218 548.1 336.476C545.482 335.734 518.238 324.324 518.238 324.324L515.872 330.4C515.872 330.4 540.302 344.4 545.65 346.612C550.998 348.824 572.376 347.76 577.85 345.394C578.787 344.99 579.632 344.4 580.334 343.66C581.036 342.92 581.58 342.044 581.933 341.087C582.287 340.13 582.442 339.112 582.39 338.093C582.338 337.074 582.079 336.076 581.63 335.16Z" fill="#407BFF"/>
<path d="M576.492 223.902L567.7 167.902L521.388 200.648L536.788 207.172C521.92 241.248 473.69 341.082 390.698 414.694C284.732 508.704 136.416 554.96 134.932 555.408L143.136 582.19C149.436 580.258 298.648 533.778 409.332 435.596C497.532 357.364 547.12 254.184 562.688 218.064L576.492 223.902Z" fill="#407BFF"/>
<path opacity="0.4" d="M568.092 214.102L567.7 167.902L521.388 200.648L536.788 207.172C521.92 241.248 473.69 341.082 390.698 414.694C284.732 508.704 136.416 554.96 134.932 555.408L137.536 572.39C143.836 570.458 293.048 528.178 403.732 429.996C491.932 351.764 538.72 247.184 554.288 211.064L568.092 214.102Z" fill="white"/>
<path d="M559.999 226.268C559.781 226.269 559.563 226.236 559.355 226.17L532.461 217.476C532.184 217.404 531.925 217.276 531.699 217.101C531.473 216.925 531.285 216.705 531.147 216.454C531.01 216.203 530.924 215.927 530.897 215.642C530.87 215.357 530.901 215.07 530.989 214.798C531.077 214.525 531.22 214.274 531.408 214.059C531.597 213.843 531.828 213.669 532.086 213.546C532.345 213.423 532.625 213.355 532.911 213.344C533.197 213.334 533.482 213.382 533.749 213.486L560.643 222.166C561.122 222.317 561.531 222.636 561.795 223.063C562.059 223.49 562.162 223.997 562.084 224.493C562.006 224.99 561.753 225.441 561.37 225.767C560.988 226.092 560.501 226.27 559.999 226.268Z" fill="#263238"/>
<path opacity="0.4" d="M559.999 226.268C559.781 226.269 559.563 226.236 559.355 226.17L532.461 217.476C532.184 217.404 531.925 217.276 531.699 217.101C531.473 216.925 531.285 216.705 531.147 216.454C531.01 216.203 530.924 215.927 530.897 215.642C530.87 215.357 530.901 215.07 530.989 214.798C531.077 214.525 531.22 214.274 531.408 214.059C531.597 213.843 531.828 213.669 532.086 213.546C532.345 213.423 532.625 213.355 532.911 213.344C533.197 213.334 533.482 213.382 533.749 213.486L560.643 222.166C561.122 222.317 561.531 222.636 561.795 223.063C562.059 223.49 562.162 223.997 562.084 224.493C562.006 224.99 561.753 225.441 561.37 225.767C560.988 226.092 560.501 226.27 559.999 226.268Z" fill="white"/>
<path d="M237.902 488.348C237.345 488.348 236.811 488.127 236.417 487.733C236.023 487.339 235.802 486.805 235.802 486.248C235.802 419.412 255.22 410.648 258.86 409.57L320.6 366.38L320.74 366.296L557.928 225.652C558.406 225.379 558.973 225.305 559.505 225.446C560.037 225.587 560.493 225.932 560.774 226.405C561.055 226.879 561.138 227.444 561.007 227.979C560.875 228.513 560.538 228.975 560.07 229.264L322.994 369.866L260.96 413.266C260.696 413.45 260.395 413.574 260.078 413.63C259.924 413.63 240.002 418.53 240.002 486.29C239.991 486.84 239.765 487.363 239.372 487.748C238.979 488.133 238.452 488.348 237.902 488.348Z" fill="#263238"/>
<path opacity="0.4" d="M237.902 488.348C237.345 488.348 236.811 488.127 236.417 487.733C236.023 487.339 235.802 486.805 235.802 486.248C235.802 419.412 255.22 410.648 258.86 409.57L320.6 366.38L320.74 366.296L557.928 225.652C558.406 225.379 558.973 225.305 559.505 225.446C560.037 225.587 560.493 225.932 560.774 226.405C561.055 226.879 561.138 227.444 561.007 227.979C560.875 228.513 560.538 228.975 560.07 229.264L322.994 369.866L260.96 413.266C260.696 413.45 260.395 413.574 260.078 413.63C259.924 413.63 240.002 418.53 240.002 486.29C239.991 486.84 239.765 487.363 239.372 487.748C238.979 488.133 238.452 488.348 237.902 488.348Z" fill="white"/>
<path d="M254.03 418.992C254.03 418.992 243.236 425.992 235.032 428.106C233.007 428.79 230.834 428.911 228.746 428.456C222.642 426.524 226.268 414.708 229.908 407.246C230.496 406.028 231.084 404.936 231.63 404.012L242.298 410.606C242.298 410.606 235.83 419.832 236.572 420.406C237.314 420.98 247.282 415.422 247.772 415.24C248.262 415.058 254.03 418.992 254.03 418.992Z" fill="#407BFF"/>
<path opacity="0.2" d="M254.03 418.992C254.03 418.992 243.236 425.992 235.032 428.106C232.755 421.305 231.041 414.328 229.908 407.246C230.496 406.028 231.084 404.936 231.63 404.012L242.298 410.606C242.298 410.606 235.83 419.832 236.572 420.406C237.314 420.98 247.282 415.422 247.772 415.24C248.262 415.058 254.03 418.992 254.03 418.992Z" fill="black"/>
<path d="M306.6 378.364L312.928 372.764C313.434 371.165 314.129 369.633 315 368.2C315.686 367.626 327.208 366.73 327.208 366.73C327.208 366.73 327.432 372.82 326.522 374.402C325.612 375.984 316.204 376.67 316.204 376.67L311.164 381.528L306.6 378.364Z" fill="#EEC1BB"/>
<path d="M340.312 511.07C338.506 537.054 333.676 573.93 333.676 573.93L327.46 575.33C327.46 575.33 321.72 544.46 322.63 515.816C322.793 509.571 323.382 503.346 324.394 497.182C324.394 497.182 302.862 488.908 287.91 481.502C280.77 477.974 275.128 474.628 274.05 472.472C270.718 465.822 285.866 450.198 285.866 450.198C286.342 450.576 295.484 456.4 306.124 463.302C320.25 472.458 337.008 483.518 339.724 486.276C341.348 487.858 341.208 498.106 340.312 511.07Z" fill="#EEC1BB"/>
<path opacity="0.2" d="M340.312 511.07C334.566 513.153 328.65 514.732 322.63 515.788C322.793 509.544 323.382 503.318 324.394 497.154C324.394 497.154 302.862 488.88 287.91 481.474L306.11 463.274C320.236 472.43 336.994 483.49 339.71 486.248C341.348 487.858 341.208 498.106 340.312 511.07Z" fill="black"/>
<path d="M291.844 445.858C291.844 445.858 351.582 480.2 359.702 487.956C367.822 495.712 414.694 568.19 414.694 568.19L410.746 571.956C410.746 571.956 371.826 538.552 356.3 506.8L291.9 475.678L291.844 445.858Z" fill="#EEC1BB"/>
<path d="M246.4 382.452C246.496 382.518 246.599 382.575 246.708 382.62C248.174 383.451 249.793 383.979 251.468 384.174C256.34 384.608 259.476 383.516 261.268 381.08C263.76 377.468 263.704 371.7 262.332 364.91C261.877 362.193 260.994 359.565 259.714 357.126C259.714 357.126 259.714 357.028 259.714 357.014L259.546 356.734C258.766 355.368 257.657 354.219 256.319 353.392C254.981 352.566 253.458 352.088 251.888 352.002C250.52 351.889 249.145 351.926 247.786 352.114C234.486 353.836 235.2 376.264 246.4 382.452Z" fill="#EEC1BB"/>
<path opacity="0.2" d="M246.764 382.62C248.234 383.405 249.849 383.882 251.51 384.02C256.368 384.454 259.49 383.194 261.31 380.744C258.587 381.829 255.585 382.001 252.756 381.234C251.717 380.994 250.638 380.994 249.599 381.234C248.561 381.474 247.591 381.948 246.764 382.62Z" fill="black"/>
<path d="M245.868 393.568C244.706 397.32 249.508 399.308 249.508 399.308C257.908 396.508 259.798 392.406 259.798 392.406C253.358 388.206 256.186 378.49 256.186 378.49L254.786 379.05L244.986 380.086C244.986 380.086 247.212 385.448 247.464 386.652C248.696 392.966 245.868 393.568 245.868 393.568Z" fill="#EBB376"/>
<path d="M259.798 357C259.798 357 261.842 366.254 253.54 371.504C253.54 371.504 251.09 381.766 245.504 382.704C237.888 383.964 229.642 374.038 230.734 362.586C232.162 347.774 253.75 343.56 259.798 357Z" fill="#263238"/>
<path d="M257.6 368.2C257.39 366.8 255.878 364.448 253.652 365.106C251.426 365.764 250.852 371.742 256.816 372.232C257.726 372.4 258.09 371.28 257.6 368.2Z" fill="#EBB376"/>
<path d="M412.09 563.738L405.65 568.694C405.518 568.8 405.426 568.948 405.388 569.113C405.349 569.278 405.368 569.451 405.44 569.604L408.716 576.604C408.786 576.752 408.885 576.885 409.007 576.995C409.129 577.105 409.272 577.19 409.427 577.244C409.581 577.299 409.746 577.322 409.909 577.313C410.073 577.304 410.234 577.263 410.382 577.192C410.466 577.153 410.545 577.106 410.62 577.052C413.224 574.966 413.308 574.644 416.626 572.096C418.656 570.528 425.026 565.992 427.826 563.822C430.626 561.652 428.862 558.586 427.518 559.216C421.47 562.016 416.318 563.514 413.518 563.304C413.004 563.265 412.495 563.42 412.09 563.738Z" fill="#263238"/>
<path d="M413.49 563.612C413.454 563.629 413.414 563.635 413.375 563.629C413.336 563.623 413.299 563.605 413.27 563.578C413.241 563.55 413.221 563.515 413.213 563.476C413.205 563.437 413.209 563.396 413.224 563.36C413.35 563.024 414.498 560.014 415.534 559.832C415.649 559.807 415.768 559.817 415.878 559.859C415.987 559.901 416.082 559.974 416.15 560.07C416.293 560.212 416.397 560.388 416.454 560.581C416.51 560.775 416.516 560.979 416.472 561.176C416.306 561.748 415.944 562.243 415.45 562.576C414.839 562.995 414.181 563.343 413.49 563.612ZM413.784 563.038C414.772 562.703 415.594 562.001 416.08 561.078C416.108 560.945 416.101 560.808 416.062 560.678C416.023 560.549 415.952 560.431 415.856 560.336C415.744 560.224 415.646 560.196 415.604 560.238C415.517 560.255 415.435 560.293 415.366 560.35C414.673 561.137 414.136 562.049 413.784 563.038Z" fill="#407BFF"/>
<path d="M413.476 563.682C413.441 563.683 413.407 563.676 413.375 563.661C413.344 563.647 413.316 563.625 413.294 563.598C413.294 563.5 411.894 561.442 412.188 560.21C412.221 560.06 412.284 559.919 412.373 559.793C412.462 559.668 412.575 559.562 412.706 559.482C412.825 559.386 412.973 559.334 413.126 559.334C413.279 559.334 413.427 559.386 413.546 559.482C414.232 560.084 414.022 562.59 413.616 563.5L413.546 563.57L413.476 563.682ZM412.538 560.238C412.534 561.206 412.822 562.152 413.364 562.954C413.698 561.907 413.649 560.775 413.224 559.762C413.224 559.762 413.07 559.608 412.874 559.762H412.79C412.651 559.885 412.562 560.054 412.538 560.238Z" fill="#407BFF"/>
<path d="M334.768 569.8L326.634 569.954C326.467 569.963 326.308 570.027 326.182 570.136C326.055 570.244 325.968 570.392 325.934 570.556L324.408 578.13C324.363 578.446 324.441 578.768 324.626 579.028C324.811 579.289 325.089 579.468 325.402 579.53C325.495 579.544 325.589 579.544 325.682 579.53C329 579.404 329.266 579.194 333.452 579.11C336.028 579.11 343.798 579.18 347.354 579.11C350.91 579.04 351.302 575.512 349.846 575.218C343.28 573.93 338.338 572.054 336.21 570.22C335.801 569.901 335.285 569.75 334.768 569.8Z" fill="#263238"/>
<path d="M335.496 570.696C335.455 570.69 335.417 570.67 335.389 570.639C335.361 570.609 335.344 570.569 335.342 570.528C335.331 570.491 335.333 570.451 335.349 570.415C335.364 570.379 335.391 570.35 335.426 570.332C335.72 570.136 338.422 568.4 339.374 568.862C339.482 568.911 339.574 568.989 339.638 569.088C339.703 569.188 339.737 569.304 339.738 569.422C339.765 569.621 339.743 569.824 339.672 570.013C339.601 570.201 339.484 570.369 339.332 570.5C338.861 570.839 338.286 571.003 337.708 570.962C336.963 570.958 336.22 570.869 335.496 570.696ZM336.07 570.402C337.063 570.72 338.14 570.645 339.08 570.192C339.179 570.101 339.253 569.987 339.297 569.86C339.341 569.733 339.353 569.597 339.332 569.464C339.332 569.31 339.248 569.24 339.206 569.24C339.118 569.22 339.027 569.22 338.94 569.24C337.918 569.443 336.945 569.838 336.07 570.402Z" fill="#407BFF"/>
<path d="M335.44 570.738C335.407 570.721 335.38 570.695 335.363 570.662C335.345 570.63 335.338 570.593 335.342 570.556C335.342 570.444 335.496 568.008 336.462 567.182C336.576 567.078 336.712 567.001 336.86 566.955C337.007 566.909 337.163 566.896 337.316 566.916C337.469 566.912 337.618 566.962 337.738 567.057C337.858 567.151 337.941 567.285 337.974 567.434C338.156 568.316 336.574 570.234 335.636 570.71H335.538C335.51 570.731 335.475 570.741 335.44 570.738ZM336.728 567.42C336.151 568.196 335.819 569.128 335.776 570.094C336.644 569.422 337.694 567.98 337.568 567.434C337.568 567.434 337.568 567.238 337.274 567.238H337.176C337.009 567.241 336.85 567.306 336.728 567.42Z" fill="#407BFF"/>
<path d="M290.178 436.66L260.54 449.106C248.29 418.656 231.63 404.012 231.63 404.012C243.502 389.774 265.426 383.222 265.426 383.222C268.664 385.858 271.458 388.996 273.7 392.518C276.172 396.344 278.326 400.366 280.14 404.544C284.543 414.89 287.906 425.648 290.178 436.66Z" fill="#407BFF"/>
<path d="M259.518 363.188C259.518 363.188 268.828 353.696 259.91 347.438C250.992 341.18 242.144 349.538 242.144 349.538C242.144 349.538 220.962 354.872 225.61 368.942C230.258 383.012 233.226 384.174 226.576 391.482C219.926 398.79 213.15 409.57 220.094 416.36C227.038 423.15 250.978 415.87 258.16 405.454C265.342 395.038 252.266 372.96 259.518 363.188Z" fill="#263238"/>
<path d="M288.022 427.532L255.822 438.578C255.822 438.578 262.948 473.648 268.114 479.514C273.28 485.38 307.818 512.54 312.704 510.398C317.59 508.256 350 479.514 350 479.514L295.162 441.91L288.022 427.532Z" fill="#263238"/>
<path d="M283.332 434.126L290.178 431.858L288.484 428.47L282.002 430.752L283.332 434.126Z" fill="black"/>
<path d="M262.864 437.486L255.85 439.95L256.788 442.946L263.648 440.664L262.864 437.486Z" fill="black"/>
<path d="M265.118 440.174L281.96 434.588L280.7 431.2L264.194 437.01L265.118 440.174Z" fill="black"/>
<path opacity="0.2" d="M280.14 404.6C273.056 403.774 269.066 393.12 269.066 393.12C270.599 392.845 272.146 392.662 273.7 392.574C276.172 396.4 278.326 400.422 280.14 404.6Z" fill="black"/>
<path d="M265.426 383.222C273.126 382.074 290.346 388.318 291.844 388.248C293.342 388.178 310.044 375.046 310.044 375.046L314.384 378.868C314.384 378.868 296.884 396.914 293.286 397.068C289.688 397.222 270.886 395.864 270.886 395.864C270.886 395.864 266.28 394.226 265.398 390.068C264.861 387.816 264.87 385.469 265.426 383.222Z" fill="#407BFF"/>
</svg>
