<svg width="700" height="700" viewBox="0 0 700 700" fill="none" xmlns="http://www.w3.org/2000/svg">
<path d="M350 597.814C499.915 597.814 621.446 590.719 621.446 581.966C621.446 573.214 499.915 566.118 350 566.118C200.084 566.118 78.554 573.214 78.554 581.966C78.554 590.719 200.084 597.814 350 597.814Z" fill="#F5F5F5"/>
<path d="M271.754 187.054L256.942 356.314L135.03 345.646L144.956 357.476L266.868 368.144L281.68 198.884L271.754 187.054Z" fill="#263238"/>
<path opacity="0.5" d="M271.754 187.054L256.942 356.314L135.03 345.646L144.956 357.476L266.868 368.144L281.68 198.884L271.754 187.054Z" fill="white"/>
<path d="M271.737 187.051L149.829 176.385L135.02 345.657L256.928 356.322L271.737 187.051Z" fill="#407BFF"/>
<path opacity="0.6" d="M271.737 187.051L149.829 176.385L135.02 345.657L256.928 356.322L271.737 187.051Z" fill="white"/>
<path d="M275.086 211.638C274.95 211.626 274.817 211.587 274.696 211.523C274.575 211.459 274.468 211.372 274.381 211.267C274.294 211.161 274.228 211.04 274.188 210.909C274.148 210.778 274.135 210.64 274.148 210.504L274.54 206.038C274.551 205.902 274.588 205.769 274.65 205.648C274.712 205.526 274.798 205.418 274.902 205.329C275.006 205.241 275.127 205.174 275.257 205.132C275.387 205.09 275.524 205.075 275.66 205.086C275.933 205.111 276.184 205.243 276.36 205.453C276.536 205.663 276.621 205.933 276.598 206.206L276.206 210.686C276.196 210.822 276.158 210.955 276.096 211.077C276.034 211.199 275.948 211.307 275.844 211.395C275.74 211.484 275.62 211.551 275.489 211.592C275.359 211.634 275.222 211.65 275.086 211.638Z" fill="#263238"/>
<path d="M267.708 295.918C267.572 295.908 267.44 295.87 267.319 295.808C267.198 295.746 267.091 295.66 267.004 295.556C266.916 295.451 266.851 295.331 266.81 295.201C266.77 295.071 266.757 294.934 266.77 294.798L273.532 217.49C273.543 217.355 273.58 217.223 273.642 217.102C273.705 216.981 273.791 216.873 273.895 216.786C273.999 216.698 274.12 216.633 274.25 216.593C274.38 216.553 274.517 216.539 274.652 216.552C274.788 216.563 274.921 216.6 275.043 216.663C275.164 216.725 275.273 216.81 275.361 216.914C275.45 217.018 275.517 217.139 275.558 217.269C275.6 217.399 275.616 217.536 275.604 217.672L268.8 294.98C268.779 295.249 268.652 295.499 268.447 295.674C268.243 295.85 267.977 295.938 267.708 295.918Z" fill="#263238"/>
<path d="M264.124 336.994C263.849 336.966 263.596 336.832 263.419 336.62C263.241 336.408 263.152 336.136 263.172 335.86L266 303.142C266.011 303.007 266.048 302.874 266.11 302.753C266.173 302.632 266.259 302.525 266.363 302.438C266.467 302.35 266.588 302.285 266.718 302.245C266.848 302.204 266.985 302.191 267.12 302.204C267.393 302.229 267.644 302.361 267.82 302.571C267.996 302.781 268.081 303.051 268.058 303.324L265.258 336.042C265.233 336.319 265.1 336.574 264.887 336.752C264.675 336.931 264.401 337.018 264.124 336.994Z" fill="#263238"/>
<path d="M262.934 350.588C262.798 350.578 262.665 350.54 262.543 350.478C262.422 350.416 262.313 350.331 262.225 350.226C262.136 350.122 262.069 350.002 262.028 349.872C261.986 349.742 261.97 349.604 261.982 349.468L262.514 343.448C262.525 343.312 262.562 343.179 262.624 343.058C262.686 342.936 262.772 342.828 262.876 342.739C262.98 342.651 263.101 342.584 263.231 342.542C263.361 342.5 263.498 342.485 263.634 342.496C263.907 342.521 264.158 342.653 264.334 342.863C264.51 343.073 264.595 343.344 264.572 343.616L264.054 349.65C264.029 349.923 263.897 350.175 263.687 350.35C263.478 350.526 263.207 350.612 262.934 350.588Z" fill="#263238"/>
<path d="M178.542 355.978L157.192 354.116C156.918 354.088 156.667 353.953 156.491 353.741C156.316 353.529 156.231 353.257 156.254 352.982C156.279 352.71 156.411 352.458 156.621 352.282C156.83 352.107 157.101 352.021 157.374 352.044L178.724 353.906C178.999 353.935 179.252 354.069 179.43 354.281C179.607 354.492 179.696 354.765 179.676 355.04C179.648 355.314 179.513 355.566 179.301 355.741C179.089 355.917 178.816 356.002 178.542 355.978Z" fill="#263238"/>
<path d="M230.888 360.556L187.852 356.79C187.716 356.78 187.583 356.742 187.461 356.68C187.34 356.618 187.232 356.532 187.143 356.428C187.055 356.324 186.988 356.204 186.946 356.073C186.904 355.943 186.889 355.806 186.9 355.67C186.912 355.534 186.952 355.401 187.015 355.28C187.079 355.159 187.166 355.052 187.272 354.965C187.377 354.878 187.499 354.812 187.63 354.772C187.761 354.732 187.898 354.719 188.034 354.732L231.07 358.498C231.206 358.509 231.339 358.546 231.461 358.608C231.583 358.67 231.691 358.756 231.779 358.86C231.868 358.964 231.935 359.085 231.976 359.215C232.018 359.345 232.034 359.482 232.022 359.618C232.01 359.754 231.971 359.887 231.907 360.008C231.843 360.129 231.756 360.236 231.651 360.323C231.545 360.411 231.424 360.476 231.293 360.516C231.162 360.556 231.024 360.57 230.888 360.556Z" fill="#263238"/>
<path d="M242.942 361.606L237.09 361.102C236.817 361.077 236.566 360.945 236.39 360.735C236.214 360.526 236.129 360.255 236.152 359.982C236.163 359.846 236.2 359.713 236.262 359.591C236.324 359.47 236.41 359.361 236.514 359.273C236.618 359.184 236.739 359.117 236.869 359.076C236.999 359.034 237.136 359.019 237.272 359.03L243.124 359.548C243.26 359.559 243.393 359.596 243.515 359.658C243.636 359.72 243.745 359.806 243.833 359.91C243.922 360.014 243.989 360.135 244.03 360.265C244.072 360.395 244.087 360.532 244.076 360.668C244.064 360.804 244.025 360.937 243.961 361.058C243.897 361.179 243.81 361.286 243.704 361.373C243.599 361.461 243.477 361.526 243.346 361.566C243.216 361.606 243.078 361.62 242.942 361.606Z" fill="#263238"/>
<g opacity="0.4">
<path d="M275.086 211.638C274.95 211.626 274.817 211.587 274.696 211.523C274.575 211.459 274.468 211.372 274.381 211.267C274.294 211.161 274.228 211.04 274.188 210.909C274.148 210.778 274.135 210.64 274.148 210.504L274.54 206.038C274.551 205.902 274.588 205.769 274.65 205.648C274.712 205.526 274.798 205.418 274.902 205.329C275.006 205.241 275.127 205.174 275.257 205.132C275.387 205.09 275.524 205.075 275.66 205.086C275.933 205.111 276.184 205.243 276.36 205.453C276.536 205.663 276.621 205.933 276.598 206.206L276.206 210.686C276.196 210.822 276.158 210.955 276.096 211.077C276.034 211.199 275.948 211.307 275.844 211.395C275.74 211.484 275.62 211.551 275.489 211.592C275.359 211.634 275.222 211.65 275.086 211.638Z" fill="white"/>
<path d="M267.708 295.918C267.572 295.908 267.44 295.87 267.319 295.808C267.198 295.746 267.091 295.66 267.004 295.556C266.916 295.451 266.851 295.331 266.81 295.201C266.77 295.071 266.757 294.934 266.77 294.798L273.532 217.49C273.543 217.355 273.58 217.223 273.642 217.102C273.705 216.981 273.791 216.873 273.895 216.786C273.999 216.698 274.12 216.633 274.25 216.593C274.38 216.553 274.517 216.539 274.652 216.552C274.788 216.563 274.921 216.6 275.043 216.663C275.164 216.725 275.273 216.81 275.361 216.914C275.45 217.018 275.517 217.139 275.558 217.269C275.6 217.399 275.616 217.536 275.604 217.672L268.8 294.98C268.779 295.249 268.652 295.499 268.447 295.674C268.243 295.85 267.977 295.938 267.708 295.918Z" fill="white"/>
<path d="M264.124 336.994C263.849 336.966 263.596 336.832 263.419 336.62C263.241 336.408 263.152 336.136 263.172 335.86L266 303.142C266.011 303.007 266.048 302.874 266.11 302.753C266.173 302.632 266.259 302.525 266.363 302.438C266.467 302.35 266.588 302.285 266.718 302.245C266.848 302.204 266.985 302.191 267.12 302.204C267.393 302.229 267.644 302.361 267.82 302.571C267.996 302.781 268.081 303.051 268.058 303.324L265.258 336.042C265.233 336.319 265.1 336.574 264.887 336.752C264.675 336.931 264.401 337.018 264.124 336.994Z" fill="white"/>
<path d="M262.934 350.588C262.798 350.578 262.665 350.54 262.544 350.478C262.422 350.416 262.314 350.331 262.225 350.226C262.137 350.122 262.07 350.002 262.028 349.872C261.986 349.742 261.971 349.604 261.982 349.468L262.514 343.448C262.525 343.312 262.562 343.179 262.624 343.058C262.686 342.936 262.772 342.828 262.876 342.739C262.98 342.651 263.101 342.584 263.231 342.542C263.361 342.5 263.498 342.485 263.634 342.496C263.907 342.521 264.158 342.653 264.334 342.863C264.51 343.073 264.596 343.344 264.572 343.616L264.054 349.65C264.029 349.923 263.898 350.175 263.688 350.35C263.478 350.526 263.207 350.612 262.934 350.588Z" fill="white"/>
<path d="M178.542 355.978L157.192 354.116C156.918 354.088 156.667 353.953 156.491 353.741C156.316 353.529 156.231 353.257 156.254 352.982C156.279 352.71 156.411 352.458 156.621 352.282C156.83 352.107 157.101 352.021 157.374 352.044L178.724 353.906C178.999 353.935 179.252 354.069 179.43 354.281C179.607 354.492 179.696 354.765 179.676 355.04C179.648 355.314 179.513 355.566 179.301 355.741C179.089 355.917 178.816 356.002 178.542 355.978Z" fill="white"/>
<path d="M230.888 360.556L187.852 356.79C187.716 356.78 187.583 356.742 187.461 356.68C187.34 356.618 187.232 356.532 187.143 356.428C187.055 356.324 186.988 356.204 186.946 356.073C186.904 355.943 186.889 355.806 186.9 355.67C186.912 355.534 186.952 355.401 187.015 355.28C187.079 355.159 187.166 355.052 187.272 354.965C187.377 354.878 187.499 354.812 187.63 354.772C187.761 354.732 187.898 354.719 188.034 354.732L231.07 358.498C231.206 358.509 231.339 358.546 231.461 358.608C231.583 358.67 231.691 358.756 231.779 358.86C231.868 358.964 231.935 359.085 231.976 359.215C232.018 359.345 232.034 359.482 232.022 359.618C232.01 359.754 231.971 359.887 231.907 360.008C231.843 360.129 231.756 360.236 231.651 360.323C231.545 360.411 231.424 360.476 231.293 360.516C231.162 360.556 231.024 360.57 230.888 360.556Z" fill="white"/>
<path d="M242.942 361.606L237.09 361.102C236.817 361.077 236.566 360.945 236.39 360.735C236.214 360.526 236.129 360.255 236.152 359.982C236.163 359.846 236.2 359.713 236.262 359.591C236.324 359.47 236.41 359.361 236.514 359.273C236.618 359.184 236.739 359.117 236.869 359.076C236.999 359.034 237.136 359.019 237.272 359.03L243.124 359.548C243.26 359.559 243.393 359.596 243.515 359.658C243.636 359.72 243.745 359.806 243.833 359.91C243.922 360.014 243.989 360.135 244.03 360.265C244.072 360.395 244.087 360.532 244.076 360.668C244.064 360.804 244.025 360.937 243.961 361.058C243.897 361.179 243.81 361.286 243.704 361.373C243.599 361.461 243.477 361.526 243.346 361.566C243.216 361.606 243.078 361.62 242.942 361.606Z" fill="white"/>
</g>
<path d="M155.974 246.848C151.648 247.478 138.6 245.322 138.6 245.322L135.674 278.922C135.674 278.922 148.89 279.062 153.034 280.434C154.313 281.067 155.535 281.807 156.688 282.646L159.95 245.322C158.671 245.945 157.341 246.455 155.974 246.848Z" fill="#263238"/>
<path d="M154.224 281.008C155.358 281.68 156.688 282.618 156.688 282.618L159.95 245.294C159.95 245.294 158.55 245.994 157.248 246.456L154.224 281.008Z" fill="black"/>
<path d="M157.038 284.536C156.56 284.493 156.118 284.263 155.809 283.896C155.499 283.529 155.347 283.055 155.386 282.576L158.662 245.126C158.681 244.887 158.748 244.655 158.858 244.442C158.968 244.229 159.119 244.041 159.303 243.887C159.487 243.733 159.699 243.617 159.928 243.547C160.157 243.476 160.398 243.451 160.636 243.474C160.873 243.494 161.104 243.56 161.315 243.669C161.526 243.778 161.713 243.929 161.866 244.111C162.018 244.294 162.133 244.504 162.203 244.732C162.273 244.959 162.297 245.198 162.274 245.434L158.998 282.884C158.979 283.122 158.913 283.353 158.803 283.565C158.694 283.777 158.544 283.965 158.362 284.118C158.18 284.272 157.969 284.388 157.742 284.46C157.515 284.531 157.275 284.557 157.038 284.536Z" fill="#263238"/>
<path d="M155.078 254.926L153.552 272.286L141.666 267.246C141.455 267.165 141.225 267.144 141.002 267.186C140.78 267.228 140.573 267.331 140.406 267.484C139.663 268.145 138.793 268.647 137.85 268.96C136.906 269.273 135.908 269.39 134.918 269.304C134.245 269.279 133.585 269.111 132.982 268.812C132.378 268.512 131.845 268.088 131.418 267.568C129.836 265.552 130.102 262.262 130.564 259.308C130.766 257.917 131.498 256.658 132.607 255.794C133.716 254.931 135.116 254.529 136.514 254.674C138.394 254.917 140.105 255.881 141.288 257.362C141.423 257.548 141.607 257.691 141.821 257.776C142.034 257.86 142.267 257.882 142.492 257.838L155.078 254.926ZM152.194 270.018L153.342 256.928L142.842 259.35C142.328 259.462 141.792 259.427 141.297 259.249C140.802 259.07 140.367 258.756 140.042 258.342C139.119 257.172 137.78 256.404 136.304 256.2C135.308 256.112 134.317 256.41 133.535 257.033C132.753 257.656 132.24 258.556 132.104 259.546C131.712 262.01 131.418 265.034 132.636 266.546C132.936 266.892 133.306 267.172 133.72 267.367C134.135 267.563 134.586 267.669 135.044 267.68C135.825 267.756 136.613 267.671 137.359 267.431C138.106 267.19 138.795 266.798 139.384 266.28C139.765 265.927 140.239 265.69 140.75 265.599C141.261 265.507 141.788 265.564 142.268 265.762L152.194 270.018Z" fill="#263238"/>
<g opacity="0.5">
<path d="M155.078 254.926L153.552 272.286L141.666 267.246C141.455 267.165 141.225 267.144 141.002 267.186C140.78 267.228 140.573 267.331 140.406 267.484C139.663 268.145 138.793 268.647 137.85 268.96C136.906 269.273 135.908 269.39 134.918 269.304C134.245 269.279 133.585 269.111 132.982 268.812C132.378 268.512 131.845 268.088 131.418 267.568C129.836 265.552 130.102 262.262 130.564 259.308C130.766 257.917 131.498 256.658 132.607 255.794C133.716 254.931 135.116 254.529 136.514 254.674C138.394 254.917 140.105 255.881 141.288 257.362C141.423 257.548 141.607 257.691 141.821 257.776C142.034 257.86 142.267 257.882 142.492 257.838L155.078 254.926ZM152.194 270.018L153.342 256.928L142.842 259.35C142.328 259.462 141.792 259.427 141.297 259.249C140.802 259.07 140.367 258.756 140.042 258.342C139.119 257.172 137.78 256.404 136.304 256.2C135.308 256.112 134.317 256.41 133.535 257.033C132.753 257.656 132.24 258.556 132.104 259.546C131.712 262.01 131.418 265.034 132.636 266.546C132.936 266.892 133.306 267.172 133.72 267.367C134.135 267.563 134.586 267.669 135.044 267.68C135.825 267.756 136.613 267.671 137.359 267.431C138.106 267.19 138.795 266.798 139.384 266.28C139.765 265.927 140.239 265.69 140.75 265.599C141.261 265.507 141.788 265.564 142.268 265.762L152.194 270.018Z" fill="white"/>
</g>
<path d="M189.112 199.598L186.312 199.36L186.452 197.722L194.012 198.38L193.872 200.018L191.072 199.766L190.456 206.766L188.44 206.598L189.112 199.598Z" fill="#263238"/>
<path d="M203.084 199.164L202.328 207.844L200.312 207.676L200.62 204.12L196.686 203.77L196.378 207.326L194.362 207.158L195.118 198.478L197.134 198.646L196.826 202.076L200.774 202.412L201.068 198.996L203.084 199.164Z" fill="#263238"/>
<path d="M211.246 207.004L211.106 208.614L204.386 208.026L205.142 199.346L211.694 199.92L211.554 201.53L206.99 201.138L206.836 203.014L210.854 203.378L210.728 204.932L206.696 204.582L206.514 206.584L211.246 207.004Z" fill="#263238"/>
<path d="M213.57 208.698C213.029 208.502 212.527 208.213 212.086 207.844L212.912 206.444C213.286 206.769 213.712 207.029 214.172 207.214C214.655 207.416 215.164 207.548 215.684 207.606C216.119 207.672 216.564 207.619 216.972 207.452C217.102 207.401 217.215 207.315 217.299 207.204C217.383 207.093 217.434 206.961 217.448 206.822C217.455 206.723 217.442 206.622 217.408 206.528C217.374 206.434 217.321 206.348 217.252 206.276C217.079 206.117 216.88 205.989 216.664 205.898C216.412 205.786 216.076 205.674 215.656 205.534C215.116 205.364 214.587 205.158 214.074 204.918C213.671 204.724 213.321 204.436 213.052 204.078C212.782 203.664 212.668 203.168 212.73 202.678C212.764 202.193 212.945 201.729 213.248 201.348C213.622 200.931 214.108 200.63 214.648 200.48C215.31 200.284 216.005 200.222 216.692 200.298C217.241 200.351 217.781 200.469 218.302 200.648C218.804 200.795 219.278 201.027 219.702 201.334L218.946 202.734C218.257 202.238 217.452 201.929 216.608 201.838C216.176 201.777 215.735 201.835 215.334 202.006C215.205 202.072 215.095 202.17 215.014 202.29C214.934 202.41 214.885 202.548 214.872 202.692C214.859 202.837 214.891 202.981 214.964 203.107C215.036 203.232 215.146 203.332 215.278 203.392C215.724 203.627 216.193 203.815 216.678 203.952C217.215 204.125 217.743 204.326 218.26 204.554C218.663 204.749 219.013 205.037 219.282 205.394C219.559 205.805 219.673 206.304 219.604 206.794C219.586 207.307 219.399 207.799 219.072 208.194C218.7 208.614 218.213 208.916 217.672 209.062C217.005 209.258 216.305 209.32 215.614 209.244C214.909 209.165 214.22 208.981 213.57 208.698Z" fill="#263238"/>
<path d="M221.368 200.774L223.37 200.942L222.614 209.622L220.612 209.454L221.368 200.774Z" fill="#263238"/>
<path d="M225.554 209.748C225.012 209.555 224.509 209.266 224.07 208.894L224.882 207.494C225.261 207.819 225.692 208.079 226.156 208.264C226.636 208.471 227.147 208.599 227.668 208.642C228.102 208.718 228.548 208.669 228.956 208.502C229.085 208.448 229.197 208.359 229.278 208.245C229.36 208.132 229.408 207.998 229.418 207.858C229.43 207.76 229.419 207.661 229.385 207.568C229.351 207.476 229.295 207.392 229.222 207.326C229.056 207.159 228.855 207.03 228.634 206.948C228.309 206.809 227.978 206.688 227.64 206.584C227.099 206.416 226.57 206.21 226.058 205.968C225.647 205.78 225.294 205.485 225.036 205.114C224.757 204.704 224.637 204.206 224.7 203.714C224.739 203.227 224.925 202.764 225.232 202.384C225.579 201.975 226.035 201.673 226.548 201.516C227.211 201.321 227.905 201.259 228.592 201.334C229.139 201.388 229.679 201.5 230.202 201.67C230.702 201.829 231.174 202.066 231.602 202.37L230.846 203.77C230.156 203.268 229.344 202.958 228.494 202.874C228.067 202.812 227.63 202.87 227.234 203.042C227.1 203.102 226.985 203.198 226.901 203.319C226.817 203.44 226.768 203.581 226.758 203.728C226.745 203.872 226.777 204.017 226.85 204.143C226.922 204.268 227.032 204.368 227.164 204.428C227.613 204.651 228.082 204.834 228.564 204.974C229.102 205.151 229.63 205.356 230.146 205.59C230.551 205.781 230.902 206.07 231.168 206.43C231.444 206.841 231.563 207.338 231.504 207.83C231.479 208.341 231.293 208.831 230.972 209.23C230.601 209.648 230.113 209.945 229.572 210.084C228.906 210.286 228.205 210.348 227.514 210.266C226.839 210.189 226.179 210.015 225.554 209.748Z" fill="#263238"/>
<path d="M240.38 223.37L174.426 217.602C174.018 217.563 173.643 217.365 173.38 217.05C173.118 216.736 172.991 216.33 173.026 215.922C173.069 215.514 173.27 215.138 173.587 214.876C173.904 214.614 174.31 214.487 174.72 214.522L240.66 220.29C240.863 220.308 241.06 220.365 241.24 220.46C241.42 220.554 241.58 220.683 241.71 220.839C241.84 220.995 241.938 221.175 241.998 221.37C242.058 221.564 242.079 221.768 242.06 221.97C242.042 222.173 241.985 222.37 241.891 222.55C241.797 222.73 241.668 222.89 241.512 223.02C241.355 223.151 241.175 223.248 240.981 223.309C240.787 223.369 240.582 223.39 240.38 223.37Z" fill="#263238"/>
<path d="M230.86 232.218L182.266 228.018C181.858 227.979 181.483 227.78 181.221 227.466C180.958 227.151 180.831 226.746 180.866 226.338C180.909 225.929 181.11 225.553 181.427 225.291C181.744 225.03 182.151 224.903 182.56 224.938L231.14 229.138C231.343 229.155 231.54 229.213 231.72 229.307C231.9 229.401 232.06 229.53 232.19 229.686C232.32 229.842 232.418 230.023 232.478 230.217C232.538 230.411 232.559 230.616 232.54 230.818C232.501 231.226 232.303 231.601 231.988 231.863C231.673 232.126 231.268 232.253 230.86 232.218Z" fill="#263238"/>
<path d="M241.64 323.652C241.629 323.788 241.592 323.92 241.53 324.041C241.467 324.162 241.382 324.269 241.277 324.356C241.173 324.444 241.052 324.509 240.922 324.55C240.792 324.59 240.655 324.603 240.52 324.59L156.716 317.268C156.58 317.256 156.447 317.216 156.326 317.153C156.205 317.089 156.098 317.002 156.011 316.896C155.923 316.791 155.858 316.669 155.818 316.538C155.778 316.408 155.765 316.27 155.778 316.134C155.789 315.998 155.826 315.866 155.888 315.745C155.951 315.624 156.036 315.517 156.141 315.429C156.245 315.342 156.366 315.276 156.496 315.236C156.626 315.196 156.763 315.182 156.898 315.196L240.702 322.532C240.838 322.542 240.97 322.58 241.091 322.642C241.212 322.705 241.319 322.79 241.407 322.895C241.494 322.999 241.56 323.12 241.6 323.25C241.64 323.38 241.653 323.517 241.64 323.652Z" fill="#263238"/>
<path d="M232.12 332.5C232.11 332.636 232.072 332.768 232.01 332.889C231.947 333.01 231.862 333.117 231.757 333.205C231.653 333.292 231.532 333.358 231.402 333.398C231.272 333.438 231.135 333.452 231 333.438L164.556 327.6C164.283 327.575 164.032 327.443 163.856 327.234C163.68 327.024 163.595 326.753 163.618 326.48C163.629 326.344 163.666 326.211 163.728 326.089C163.79 325.968 163.876 325.86 163.98 325.771C164.084 325.683 164.205 325.616 164.335 325.574C164.465 325.532 164.602 325.517 164.738 325.528L231.182 331.338C231.318 331.35 231.451 331.389 231.572 331.453C231.693 331.517 231.8 331.604 231.887 331.71C231.975 331.815 232.04 331.937 232.08 332.068C232.12 332.198 232.134 332.336 232.12 332.472V332.5Z" fill="#263238"/>
<path d="M214.735 288.851C222.666 282.196 223.7 270.372 217.046 262.441C210.391 254.51 198.567 253.475 190.636 260.13C182.705 266.785 181.67 278.609 188.325 286.54C194.98 294.471 206.804 295.505 214.735 288.851Z" fill="#407BFF"/>
<path d="M210.812 280.658C210.7 281.988 206.752 282.73 201.992 282.31C197.232 281.89 193.48 280.476 193.592 279.146L194.11 273.336L211.33 274.834L210.812 280.658Z" fill="#263238"/>
<path opacity="0.6" d="M193.97 274.96C194.628 276.164 198.17 277.34 202.37 277.76C206.57 278.18 210.294 277.578 211.162 276.5L211.302 274.876L194.082 273.378L193.97 274.96Z" fill="black"/>
<path d="M202.356 277.2L188.496 271.6C188.43 271.58 188.372 271.539 188.331 271.484C188.29 271.428 188.268 271.361 188.268 271.292C188.268 271.223 188.29 271.156 188.331 271.1C188.372 271.045 188.43 271.004 188.496 270.984L203.21 266.784C203.245 266.767 203.283 266.758 203.322 266.758C203.361 266.758 203.399 266.767 203.434 266.784L217.196 273.49C217.256 273.516 217.307 273.559 217.343 273.614C217.379 273.669 217.398 273.733 217.398 273.798C217.398 273.863 217.379 273.927 217.343 273.982C217.307 274.037 217.256 274.08 217.196 274.106L202.552 277.2C202.488 277.215 202.421 277.215 202.356 277.2Z" fill="#263238"/>
<path d="M443.464 406.714L423.864 363.188H377.916L384.916 403.914C385.066 404.867 384.837 405.841 384.277 406.626C383.716 407.412 382.87 407.946 381.92 408.114H381.332H361.2C360.684 408.114 360.189 408.319 359.824 408.684C359.459 409.049 359.254 409.544 359.254 410.06V412.216C359.254 412.732 359.459 413.227 359.824 413.592C360.189 413.957 360.684 414.162 361.2 414.162H442.022C442.583 414.162 443.12 413.939 443.517 413.543C443.913 413.146 444.136 412.609 444.136 412.048V409.808C444.129 408.741 443.9 407.688 443.464 406.714ZM422.212 401.338H400.162C399.467 401.338 398.795 401.092 398.265 400.643C397.734 400.195 397.38 399.573 397.264 398.888L393.932 379.666C393.866 379.284 393.875 378.893 393.961 378.516C394.046 378.138 394.205 377.781 394.429 377.465C394.653 377.148 394.937 376.88 395.265 376.674C395.593 376.468 395.958 376.328 396.34 376.264H396.844H413.518C414.084 376.262 414.639 376.423 415.116 376.728C415.593 377.034 415.971 377.471 416.206 377.986L424.9 397.208C425.102 397.659 425.189 398.154 425.152 398.647C425.115 399.141 424.956 399.617 424.69 400.034C424.423 400.45 424.057 400.794 423.625 401.034C423.192 401.274 422.707 401.402 422.212 401.408V401.338Z" fill="#263238"/>
<path opacity="0.5" d="M443.464 406.714L423.864 363.188H377.916L384.916 403.914C385.066 404.867 384.837 405.841 384.277 406.626C383.716 407.412 382.87 407.946 381.92 408.114H381.332H361.2C360.684 408.114 360.189 408.319 359.824 408.684C359.459 409.049 359.254 409.544 359.254 410.06V412.216C359.254 412.732 359.459 413.227 359.824 413.592C360.189 413.957 360.684 414.162 361.2 414.162H442.022C442.583 414.162 443.12 413.939 443.517 413.543C443.913 413.146 444.136 412.609 444.136 412.048V409.808C444.129 408.741 443.9 407.688 443.464 406.714ZM422.212 401.338H400.162C399.467 401.338 398.795 401.092 398.265 400.643C397.734 400.195 397.38 399.573 397.264 398.888L393.932 379.666C393.866 379.284 393.875 378.893 393.961 378.516C394.046 378.138 394.205 377.781 394.429 377.465C394.653 377.148 394.937 376.88 395.265 376.674C395.593 376.468 395.958 376.328 396.34 376.264H396.844H413.518C414.084 376.262 414.639 376.423 415.116 376.728C415.593 377.034 415.971 377.471 416.206 377.986L424.9 397.208C425.102 397.659 425.189 398.154 425.152 398.647C425.115 399.141 424.956 399.617 424.69 400.034C424.423 400.45 424.057 400.794 423.625 401.034C423.192 401.274 422.707 401.402 422.212 401.408V401.338Z" fill="white"/>
<path opacity="0.2" d="M422.212 401.338H400.162C399.467 401.338 398.795 401.092 398.265 400.643C397.734 400.195 397.38 399.573 397.264 398.888L393.932 379.666C393.866 379.285 393.876 378.894 393.961 378.516C394.046 378.138 394.205 377.781 394.429 377.465C394.653 377.149 394.937 376.88 395.265 376.674C395.593 376.468 395.958 376.329 396.34 376.264H396.844H413.518C414.084 376.262 414.639 376.423 415.116 376.729C415.593 377.034 415.971 377.471 416.206 377.986L424.9 397.208C425.102 397.66 425.189 398.154 425.152 398.648C425.115 399.141 424.956 399.617 424.69 400.034C424.423 400.45 424.057 400.794 423.625 401.034C423.192 401.274 422.707 401.403 422.212 401.408V401.338Z" fill="white"/>
<path d="M399.434 376.18H396.844C396.457 376.178 396.073 376.253 395.715 376.4C395.356 376.547 395.031 376.763 394.756 377.036C394.482 377.309 394.264 377.634 394.115 377.992C393.967 378.349 393.89 378.733 393.89 379.12C393.876 379.288 393.876 379.456 393.89 379.624L397.222 398.846C397.335 399.531 397.69 400.153 398.221 400.599C398.752 401.046 399.426 401.288 400.12 401.282H402.724C402.03 401.288 401.356 401.046 400.825 400.599C400.294 400.153 399.939 399.531 399.826 398.846L396.494 379.624C396.426 379.242 396.434 378.851 396.519 378.472C396.603 378.094 396.762 377.736 396.986 377.419C397.21 377.103 397.495 376.834 397.824 376.628C398.153 376.423 398.519 376.285 398.902 376.222C399.078 376.192 399.256 376.178 399.434 376.18Z" fill="#263238"/>
<path d="M446.068 406.714L426.468 363.216H423.878L443.478 406.714C443.94 407.729 444.178 408.832 444.178 409.948V412.202C444.174 412.761 443.95 413.297 443.555 413.693C443.159 414.088 442.623 414.312 442.064 414.316H444.668C445.227 414.312 445.763 414.088 446.159 413.693C446.554 413.297 446.778 412.761 446.782 412.202V409.948C446.778 408.831 446.534 407.728 446.068 406.714Z" fill="#263238"/>
<path opacity="0.2" d="M423.808 363.188H377.902L379.708 373.576H428.512L423.808 363.188Z" fill="black"/>
<path d="M489.664 367.752H293.818C292.11 367.778 290.46 367.128 289.23 365.942C288 364.756 287.289 363.132 287.252 361.424C287.231 361.14 287.231 360.854 287.252 360.57L299.628 219.044C299.82 217.102 300.719 215.299 302.155 213.977C303.59 212.656 305.461 211.908 307.412 211.876H503.3C504.147 211.857 504.99 212.007 505.78 212.315C506.569 212.624 507.29 213.085 507.9 213.674C508.51 214.262 508.998 214.965 509.336 215.742C509.673 216.52 509.853 217.357 509.866 218.204C509.887 218.484 509.887 218.764 509.866 219.044L497.476 360.584C497.28 362.529 496.376 364.335 494.936 365.656C493.495 366.978 491.619 367.724 489.664 367.752Z" fill="#263238"/>
<path d="M288.624 345.282L287.224 360.584C287.127 361.426 287.197 362.278 287.43 363.093C287.663 363.907 288.055 364.667 288.584 365.329C289.112 365.992 289.766 366.543 290.508 366.952C291.25 367.36 292.066 367.618 292.908 367.71C293.187 367.738 293.469 367.738 293.748 367.71H489.608C491.559 367.678 493.43 366.931 494.865 365.609C496.301 364.287 497.2 362.484 497.392 360.542L498.792 345.24L288.624 345.282Z" fill="#407BFF"/>
<path opacity="0.7" d="M288.624 345.282L287.224 360.584C287.127 361.426 287.197 362.278 287.43 363.093C287.663 363.907 288.055 364.667 288.584 365.329C289.112 365.992 289.766 366.543 290.508 366.952C291.25 367.36 292.066 367.618 292.908 367.71C293.187 367.738 293.469 367.738 293.748 367.71H489.608C491.559 367.678 493.43 366.931 494.865 365.609C496.301 364.287 497.2 362.484 497.392 360.542L498.792 345.24L288.624 345.282Z" fill="white"/>
<path d="M491.876 340.956H296.282C295.823 340.965 295.367 340.884 294.939 340.716C294.512 340.549 294.122 340.299 293.791 339.98C293.461 339.661 293.197 339.28 293.014 338.859C292.831 338.438 292.733 337.985 292.726 337.526C292.712 337.377 292.712 337.227 292.726 337.078L302.96 220.108C303.066 219.06 303.551 218.088 304.325 217.373C305.099 216.659 306.107 216.252 307.16 216.23H502.796C503.255 216.221 503.711 216.302 504.139 216.47C504.566 216.637 504.956 216.888 505.287 217.206C505.617 217.525 505.881 217.906 506.064 218.327C506.247 218.748 506.345 219.201 506.352 219.66C506.352 219.8 506.352 219.954 506.352 220.108L496.118 337.078C496.008 338.132 495.516 339.109 494.734 339.824C493.952 340.538 492.935 340.941 491.876 340.956Z" fill="#407BFF"/>
<path opacity="0.8" d="M491.876 340.956H296.282C295.823 340.965 295.367 340.884 294.939 340.716C294.512 340.549 294.122 340.299 293.791 339.98C293.461 339.661 293.197 339.28 293.014 338.859C292.831 338.438 292.733 337.985 292.726 337.526C292.712 337.377 292.712 337.227 292.726 337.078L302.96 220.108C303.066 219.06 303.551 218.088 304.325 217.373C305.099 216.659 306.107 216.252 307.16 216.23H502.796C503.255 216.221 503.711 216.302 504.139 216.47C504.566 216.637 504.956 216.888 505.287 217.206C505.617 217.525 505.881 217.906 506.064 218.327C506.247 218.748 506.345 219.201 506.352 219.66C506.352 219.8 506.352 219.954 506.352 220.108L496.118 337.078C496.008 338.132 495.516 339.109 494.734 339.824C493.952 340.538 492.935 340.941 491.876 340.956Z" fill="#407BFF"/>
<path d="M507.64 211.904H503.3C504.147 211.885 504.99 212.035 505.779 212.343C506.569 212.652 507.29 213.113 507.9 213.701C508.51 214.29 508.998 214.993 509.335 215.77C509.673 216.548 509.853 217.384 509.866 218.232C509.887 218.511 509.887 218.792 509.866 219.072L497.476 360.584C497.284 362.526 496.385 364.329 494.949 365.651C493.514 366.972 491.643 367.72 489.692 367.752H494.032C495.981 367.72 497.851 366.971 499.284 365.649C500.717 364.327 501.613 362.524 501.802 360.584L514.192 219.058C514.285 218.217 514.212 217.365 513.976 216.552C513.74 215.74 513.346 214.981 512.817 214.321C512.288 213.66 511.634 213.111 510.892 212.703C510.15 212.296 509.335 212.038 508.494 211.946L507.64 211.904Z" fill="#407BFF"/>
<path opacity="0.2" d="M507.64 211.904H503.3C504.147 211.885 504.99 212.035 505.779 212.343C506.569 212.652 507.29 213.113 507.9 213.701C508.51 214.29 508.998 214.993 509.335 215.77C509.673 216.548 509.853 217.384 509.866 218.232C509.887 218.511 509.887 218.792 509.866 219.072L497.476 360.584C497.284 362.526 496.385 364.329 494.949 365.651C493.514 366.972 491.643 367.72 489.692 367.752H494.032C495.981 367.72 497.851 366.971 499.284 365.649C500.717 364.327 501.613 362.524 501.802 360.584L514.192 219.058C514.285 218.217 514.212 217.365 513.976 216.552C513.74 215.74 513.346 214.981 512.817 214.321C512.288 213.66 511.634 213.111 510.892 212.703C510.15 212.296 509.335 212.038 508.494 211.946L507.64 211.904Z" fill="white"/>
<path d="M344.708 340.088H434.448L444.752 222.278H355.026L344.708 340.088Z" fill="#407BFF"/>
<path opacity="0.7" d="M344.708 340.088H434.448L444.752 222.278H355.026L344.708 340.088Z" fill="white"/>
<path d="M377.104 237.468H422.31C422.6 237.463 422.878 237.352 423.092 237.156C423.306 236.96 423.441 236.693 423.472 236.404C423.484 236.27 423.467 236.136 423.424 236.008C423.381 235.881 423.311 235.765 423.22 235.666C423.13 235.567 423.019 235.488 422.896 235.435C422.773 235.381 422.64 235.354 422.506 235.354H377.286C376.998 235.359 376.722 235.468 376.508 235.661C376.294 235.854 376.158 236.118 376.124 236.404C376.11 236.54 376.125 236.677 376.168 236.807C376.211 236.937 376.282 237.056 376.374 237.157C376.467 237.257 376.58 237.337 376.706 237.391C376.831 237.444 376.967 237.471 377.104 237.468Z" fill="#263238"/>
<path d="M361.9 295.106H417.27C417.56 295.101 417.838 294.99 418.052 294.794C418.266 294.598 418.401 294.33 418.432 294.042C418.444 293.907 418.427 293.771 418.383 293.643C418.339 293.515 418.268 293.398 418.176 293.299C418.083 293.2 417.971 293.121 417.846 293.068C417.722 293.015 417.587 292.989 417.452 292.992H362.082C361.795 292.994 361.518 293.102 361.306 293.296C361.094 293.49 360.962 293.756 360.934 294.042C360.918 294.177 360.931 294.314 360.972 294.444C361.014 294.574 361.083 294.693 361.174 294.794C361.266 294.895 361.378 294.975 361.503 295.029C361.628 295.083 361.764 295.109 361.9 295.106Z" fill="#263238"/>
<path d="M361.354 301.266H424.592C424.882 301.264 425.16 301.153 425.372 300.956C425.584 300.76 425.716 300.491 425.74 300.202C425.754 300.068 425.739 299.932 425.697 299.804C425.654 299.676 425.585 299.559 425.494 299.459C425.402 299.36 425.291 299.281 425.167 299.228C425.043 299.175 424.909 299.149 424.774 299.152H361.55C361.262 299.157 360.986 299.266 360.772 299.459C360.558 299.652 360.422 299.916 360.388 300.202C360.374 300.337 360.389 300.473 360.431 300.602C360.474 300.731 360.543 300.849 360.634 300.949C360.725 301.05 360.836 301.13 360.96 301.184C361.084 301.239 361.218 301.267 361.354 301.266Z" fill="#263238"/>
<path d="M360.822 307.426H424.06C424.348 307.418 424.622 307.305 424.834 307.109C425.045 306.914 425.178 306.648 425.208 306.362C425.224 306.227 425.211 306.09 425.169 305.96C425.128 305.83 425.059 305.711 424.967 305.61C424.876 305.509 424.764 305.429 424.639 305.375C424.513 305.321 424.378 305.295 424.242 305.298H361.004C360.715 305.304 360.439 305.415 360.227 305.611C360.016 305.808 359.883 306.075 359.856 306.362C359.84 306.497 359.853 306.634 359.895 306.764C359.936 306.894 360.005 307.013 360.097 307.114C360.188 307.215 360.3 307.295 360.425 307.349C360.551 307.403 360.686 307.429 360.822 307.426Z" fill="#263238"/>
<path d="M360.276 313.6H423.514C423.803 313.597 424.082 313.487 424.294 313.29C424.506 313.093 424.638 312.824 424.662 312.536C424.678 312.401 424.665 312.263 424.623 312.134C424.582 312.004 424.513 311.885 424.421 311.784C424.33 311.683 424.218 311.603 424.093 311.549C423.967 311.495 423.832 311.469 423.696 311.472H360.472C360.182 311.477 359.904 311.588 359.69 311.784C359.476 311.98 359.341 312.247 359.31 312.536C359.296 312.671 359.311 312.807 359.353 312.936C359.396 313.064 359.465 313.183 359.556 313.283C359.647 313.384 359.758 313.464 359.882 313.518C360.006 313.573 360.14 313.601 360.276 313.6Z" fill="#263238"/>
<path d="M359.8 319.746H415.17C415.46 319.741 415.738 319.63 415.952 319.434C416.166 319.238 416.301 318.971 416.332 318.682C416.346 318.547 416.331 318.411 416.289 318.282C416.246 318.154 416.177 318.035 416.086 317.935C415.995 317.834 415.884 317.754 415.76 317.7C415.636 317.645 415.502 317.617 415.366 317.618H359.926C359.637 317.624 359.361 317.735 359.149 317.931C358.938 318.128 358.805 318.395 358.778 318.682C358.761 318.822 358.775 318.965 358.82 319.099C358.865 319.233 358.939 319.355 359.036 319.457C359.134 319.559 359.254 319.637 359.386 319.688C359.518 319.738 359.659 319.758 359.8 319.746Z" fill="#263238"/>
<path d="M359.198 325.892H422.436C422.725 325.89 423.003 325.782 423.217 325.589C423.431 325.395 423.567 325.129 423.598 324.842C423.612 324.706 423.597 324.569 423.553 324.439C423.51 324.309 423.44 324.19 423.347 324.089C423.255 323.989 423.142 323.909 423.016 323.855C422.89 323.802 422.755 323.775 422.618 323.778H359.394C359.104 323.783 358.826 323.894 358.612 324.09C358.398 324.286 358.263 324.553 358.232 324.842C358.218 324.976 358.233 325.112 358.275 325.24C358.318 325.368 358.387 325.485 358.478 325.585C358.57 325.684 358.681 325.763 358.805 325.816C358.929 325.869 359.063 325.895 359.198 325.892Z" fill="#263238"/>
<path d="M358.666 332.052H421.904C422.19 332.047 422.465 331.938 422.676 331.744C422.888 331.551 423.021 331.287 423.052 331.002C423.068 330.867 423.055 330.73 423.013 330.6C422.972 330.47 422.903 330.351 422.811 330.25C422.72 330.149 422.608 330.069 422.482 330.015C422.357 329.962 422.222 329.935 422.086 329.938H358.848C358.559 329.944 358.283 330.055 358.071 330.251C357.859 330.448 357.727 330.715 357.7 331.002C357.686 331.136 357.701 331.272 357.743 331.4C357.786 331.528 357.855 331.646 357.946 331.745C358.038 331.844 358.149 331.923 358.273 331.976C358.397 332.029 358.531 332.055 358.666 332.052Z" fill="#263238"/>
<path d="M381.78 244.51H416.402C416.692 244.508 416.97 244.397 417.182 244.2C417.394 244.004 417.526 243.735 417.55 243.446C417.566 243.311 417.553 243.174 417.511 243.044C417.47 242.914 417.401 242.795 417.309 242.694C417.218 242.593 417.106 242.513 416.981 242.459C416.855 242.405 416.72 242.379 416.584 242.382H381.962C381.674 242.391 381.4 242.503 381.188 242.699C380.977 242.894 380.844 243.16 380.814 243.446C380.798 243.581 380.811 243.718 380.853 243.848C380.894 243.978 380.963 244.097 381.055 244.198C381.146 244.299 381.258 244.379 381.383 244.433C381.509 244.487 381.644 244.513 381.78 244.51Z" fill="#263238"/>
<path d="M386.82 251.538H410.2C410.488 251.533 410.764 251.424 410.978 251.231C411.192 251.038 411.328 250.774 411.362 250.488C411.376 250.352 411.361 250.215 411.318 250.085C411.274 249.955 411.204 249.836 411.112 249.735C411.019 249.635 410.906 249.555 410.78 249.501C410.654 249.448 410.519 249.421 410.382 249.424H387.002C386.712 249.426 386.434 249.537 386.222 249.734C386.01 249.931 385.878 250.2 385.854 250.488C385.84 250.622 385.855 250.758 385.897 250.886C385.94 251.014 386.009 251.131 386.1 251.231C386.192 251.33 386.303 251.409 386.427 251.462C386.551 251.515 386.685 251.541 386.82 251.538Z" fill="#263238"/>
<g opacity="0.4">
<path d="M377.104 237.468H422.31C422.6 237.463 422.878 237.352 423.092 237.156C423.306 236.96 423.441 236.693 423.472 236.404C423.484 236.27 423.467 236.136 423.424 236.008C423.381 235.881 423.311 235.765 423.22 235.666C423.13 235.567 423.019 235.488 422.896 235.435C422.773 235.381 422.64 235.354 422.506 235.354H377.286C376.998 235.359 376.722 235.468 376.508 235.661C376.294 235.854 376.158 236.118 376.124 236.404C376.11 236.54 376.125 236.677 376.168 236.807C376.211 236.937 376.282 237.056 376.374 237.157C376.467 237.257 376.58 237.337 376.706 237.391C376.831 237.444 376.967 237.471 377.104 237.468Z" fill="white"/>
<path d="M361.9 295.106H417.27C417.56 295.101 417.838 294.99 418.052 294.794C418.266 294.598 418.401 294.33 418.432 294.042C418.444 293.907 418.427 293.771 418.383 293.643C418.339 293.515 418.268 293.398 418.176 293.299C418.083 293.2 417.971 293.121 417.846 293.068C417.722 293.015 417.587 292.989 417.452 292.992H362.082C361.795 292.994 361.518 293.102 361.306 293.296C361.094 293.49 360.962 293.756 360.934 294.042C360.918 294.177 360.931 294.314 360.972 294.444C361.014 294.574 361.083 294.693 361.174 294.794C361.266 294.895 361.378 294.975 361.503 295.029C361.628 295.083 361.764 295.109 361.9 295.106Z" fill="white"/>
<path d="M361.354 301.266H424.592C424.881 301.264 425.159 301.153 425.372 300.956C425.584 300.76 425.715 300.491 425.74 300.202C425.754 300.068 425.739 299.932 425.696 299.804C425.654 299.676 425.585 299.559 425.493 299.459C425.402 299.36 425.291 299.281 425.167 299.228C425.043 299.175 424.909 299.149 424.774 299.152H361.55C361.262 299.157 360.985 299.266 360.772 299.459C360.558 299.652 360.422 299.916 360.388 300.202C360.374 300.337 360.389 300.473 360.431 300.602C360.474 300.731 360.542 300.849 360.634 300.949C360.725 301.05 360.836 301.13 360.96 301.184C361.084 301.239 361.218 301.267 361.354 301.266Z" fill="white"/>
<path d="M360.822 307.426H424.06C424.348 307.418 424.622 307.305 424.834 307.109C425.045 306.914 425.178 306.648 425.208 306.362C425.224 306.227 425.211 306.09 425.169 305.96C425.128 305.83 425.059 305.711 424.967 305.61C424.876 305.509 424.764 305.429 424.639 305.375C424.513 305.321 424.378 305.295 424.242 305.298H361.004C360.715 305.304 360.439 305.415 360.227 305.611C360.016 305.808 359.883 306.075 359.856 306.362C359.84 306.497 359.853 306.634 359.895 306.764C359.936 306.894 360.005 307.013 360.097 307.114C360.188 307.215 360.3 307.295 360.425 307.349C360.551 307.403 360.686 307.429 360.822 307.426Z" fill="white"/>
<path d="M360.276 313.6H423.514C423.803 313.597 424.082 313.487 424.294 313.29C424.506 313.093 424.638 312.824 424.662 312.536C424.678 312.401 424.665 312.263 424.623 312.134C424.582 312.004 424.513 311.885 424.421 311.784C424.33 311.683 424.218 311.603 424.093 311.549C423.967 311.495 423.832 311.469 423.696 311.472H360.472C360.182 311.477 359.904 311.588 359.69 311.784C359.476 311.98 359.341 312.247 359.31 312.536C359.296 312.671 359.311 312.807 359.353 312.936C359.396 313.064 359.465 313.183 359.556 313.283C359.647 313.384 359.758 313.464 359.882 313.518C360.006 313.573 360.14 313.601 360.276 313.6Z" fill="white"/>
<path d="M359.8 319.746H415.17C415.46 319.741 415.738 319.63 415.952 319.434C416.166 319.238 416.301 318.971 416.332 318.682C416.346 318.547 416.331 318.411 416.289 318.282C416.246 318.154 416.177 318.035 416.086 317.935C415.995 317.834 415.884 317.754 415.76 317.7C415.636 317.645 415.502 317.617 415.366 317.618H359.926C359.637 317.624 359.361 317.735 359.149 317.931C358.938 318.128 358.805 318.395 358.778 318.682C358.761 318.822 358.775 318.965 358.82 319.099C358.865 319.233 358.939 319.355 359.036 319.457C359.134 319.559 359.254 319.637 359.386 319.688C359.518 319.738 359.659 319.758 359.8 319.746Z" fill="white"/>
<path d="M359.198 325.892H422.436C422.725 325.89 423.003 325.782 423.217 325.589C423.431 325.395 423.567 325.129 423.598 324.842C423.612 324.706 423.597 324.569 423.553 324.439C423.51 324.309 423.44 324.19 423.347 324.089C423.255 323.989 423.142 323.909 423.016 323.855C422.89 323.802 422.755 323.775 422.618 323.778H359.394C359.104 323.783 358.826 323.894 358.612 324.09C358.398 324.286 358.263 324.553 358.232 324.842C358.218 324.976 358.233 325.112 358.275 325.24C358.318 325.368 358.387 325.485 358.478 325.585C358.57 325.684 358.681 325.763 358.805 325.816C358.929 325.869 359.063 325.895 359.198 325.892Z" fill="white"/>
<path d="M358.666 332.052H421.904C422.19 332.047 422.465 331.938 422.676 331.744C422.888 331.551 423.021 331.287 423.052 331.002C423.068 330.867 423.055 330.73 423.013 330.6C422.972 330.47 422.903 330.351 422.811 330.25C422.72 330.149 422.608 330.069 422.482 330.015C422.357 329.962 422.222 329.935 422.086 329.938H358.848C358.559 329.944 358.283 330.055 358.071 330.251C357.859 330.448 357.727 330.715 357.7 331.002C357.686 331.136 357.701 331.272 357.743 331.4C357.786 331.528 357.855 331.646 357.946 331.745C358.038 331.844 358.149 331.923 358.273 331.976C358.397 332.029 358.531 332.055 358.666 332.052Z" fill="white"/>
<path d="M381.78 244.51H416.402C416.692 244.508 416.97 244.397 417.182 244.2C417.394 244.004 417.526 243.735 417.55 243.446C417.566 243.311 417.553 243.174 417.511 243.044C417.47 242.914 417.401 242.795 417.309 242.694C417.218 242.593 417.106 242.513 416.981 242.459C416.855 242.405 416.72 242.379 416.584 242.382H381.962C381.674 242.391 381.4 242.503 381.188 242.699C380.977 242.894 380.844 243.16 380.814 243.446C380.798 243.581 380.811 243.718 380.853 243.848C380.894 243.978 380.963 244.097 381.055 244.198C381.146 244.299 381.258 244.379 381.383 244.433C381.509 244.487 381.644 244.513 381.78 244.51Z" fill="white"/>
<path d="M386.82 251.538H410.2C410.488 251.533 410.764 251.424 410.978 251.231C411.192 251.038 411.328 250.774 411.362 250.488C411.376 250.352 411.361 250.215 411.318 250.085C411.274 249.955 411.204 249.836 411.112 249.735C411.019 249.635 410.906 249.555 410.78 249.501C410.654 249.448 410.519 249.421 410.382 249.424H387.002C386.712 249.426 386.434 249.537 386.222 249.734C386.01 249.931 385.878 250.2 385.854 250.488C385.84 250.622 385.855 250.758 385.897 250.886C385.94 251.014 386.009 251.131 386.1 251.231C386.192 251.33 386.303 251.409 386.427 251.462C386.551 251.515 386.685 251.541 386.82 251.538Z" fill="white"/>
</g>
<path opacity="0.5" d="M361.746 284.802H427.098L429.282 259.728H363.93L361.746 284.802Z" fill="white"/>
<path d="M290.052 414.078H347.368V360.024H290.052V414.078Z" fill="#263238"/>
<path d="M234.136 414.078H291.452V360.024H234.136V414.078Z" fill="#263238"/>
<path d="M289.478 365.54H347.354V358.036H289.478V365.54Z" fill="#263238"/>
<path d="M289.492 361.256H392.994V352.534H289.492V361.256Z" fill="#263238"/>
<path opacity="0.2" d="M234.136 414.078H291.452V360.024H234.136V414.078Z" fill="black"/>
<path opacity="0.2" d="M289.478 365.54H347.354V358.036H289.478V365.54Z" fill="black"/>
<path opacity="0.2" d="M289.492 361.256H392.994V352.534H289.492V361.256Z" fill="black"/>
<path d="M188.51 361.256H292.012V352.534H188.51V361.256Z" fill="#263238"/>
<path d="M188.524 444.64C188.895 444.64 189.251 444.492 189.514 444.23C189.777 443.967 189.924 443.611 189.924 443.24V358.4C189.922 357.805 190.038 357.215 190.264 356.665C190.491 356.115 190.823 355.615 191.244 355.193C191.664 354.772 192.163 354.438 192.712 354.21C193.262 353.981 193.851 353.864 194.446 353.864H290.626C290.997 353.864 291.353 353.716 291.616 353.454C291.879 353.191 292.026 352.835 292.026 352.464C292.026 352.093 291.879 351.737 291.616 351.474C291.353 351.211 290.997 351.064 290.626 351.064H194.446C192.503 351.068 190.64 351.842 189.268 353.218C187.895 354.593 187.124 356.457 187.124 358.4V443.24C187.124 443.611 187.272 443.967 187.534 444.23C187.797 444.492 188.153 444.64 188.524 444.64Z" fill="#407BFF"/>
<path d="M188.216 448.28C193.368 448.28 197.54 455 197.54 463.288V473.956H192.92C192.416 473.956 189.588 473.396 189.588 463.19C189.588 463.19 188.02 473.928 190.624 473.956H186.69C186.69 473.956 184.338 473.508 184.338 467.824V459.2C184.338 459.2 180.572 473.9 184.338 473.9H178.878V463.232C178.878 455 183.064 448.28 188.216 448.28Z" fill="#407BFF"/>
<path d="M185.08 446.04H191.352C191.723 446.04 192.079 445.892 192.342 445.63C192.604 445.367 192.752 445.011 192.752 444.64C192.752 444.268 192.604 443.912 192.342 443.65C192.079 443.387 191.723 443.24 191.352 443.24H185.08C184.709 443.24 184.353 443.387 184.09 443.65C183.827 443.912 183.68 444.268 183.68 444.64C183.68 445.011 183.827 445.367 184.09 445.63C184.353 445.892 184.709 446.04 185.08 446.04Z" fill="#407BFF"/>
<path d="M185.08 448.84H191.352C191.723 448.84 192.079 448.693 192.342 448.43C192.604 448.167 192.752 447.811 192.752 447.44C192.752 447.069 192.604 446.713 192.342 446.45C192.079 446.188 191.723 446.04 191.352 446.04H185.08C184.709 446.04 184.353 446.188 184.09 446.45C183.827 446.713 183.68 447.069 183.68 447.44C183.68 447.811 183.827 448.167 184.09 448.43C184.353 448.693 184.709 448.84 185.08 448.84Z" fill="#407BFF"/>
<path d="M482.3 524.832H227.192V578.032H482.384C480.088 560.375 480.06 542.496 482.3 524.832Z" fill="#407BFF"/>
<path opacity="0.7" d="M482.3 524.832H227.192V578.032H482.384C480.088 560.375 480.06 542.496 482.3 524.832Z" fill="white"/>
<path d="M273.672 580.832H193.494L192.682 580.006C188.883 576.209 185.869 571.702 183.813 566.74C181.756 561.778 180.698 556.46 180.698 551.089C180.698 545.718 181.756 540.4 183.813 535.438C185.869 530.476 188.883 525.968 192.682 522.172L193.494 521.36H273.672L268.898 526.134C262.283 532.754 258.568 541.73 258.568 551.089C258.568 560.448 262.283 569.423 268.898 576.044L273.672 580.832Z" fill="#407BFF"/>
<g opacity="0.3">
<path d="M273.672 580.832H193.494L192.682 580.006C188.883 576.209 185.869 571.702 183.813 566.74C181.756 561.778 180.698 556.46 180.698 551.089C180.698 545.718 181.756 540.4 183.813 535.438C185.869 530.476 188.883 525.968 192.682 522.172L193.494 521.36H273.672L268.898 526.134C262.283 532.754 258.568 541.73 258.568 551.089C258.568 560.448 262.283 569.423 268.898 576.044L273.672 580.832Z" fill="black"/>
</g>
<path d="M484.918 580.832H268.366L268.128 580.594C260.551 573.18 256.052 563.181 255.528 552.594C255.322 546.973 256.283 541.37 258.35 536.138C260.418 530.907 263.547 526.161 267.54 522.2L268.366 521.388H484.918C485.66 521.388 486.373 521.683 486.898 522.208C487.423 522.733 487.718 523.445 487.718 524.188C487.718 524.93 487.423 525.642 486.898 526.168C486.373 526.693 485.66 526.988 484.918 526.988H270.718C264.593 533.532 261.185 542.16 261.185 551.124C261.185 560.087 264.593 568.715 270.718 575.26H484.918C485.66 575.26 486.373 575.555 486.898 576.08C487.423 576.605 487.718 577.317 487.718 578.06C487.71 578.797 487.412 579.502 486.888 580.021C486.364 580.541 485.656 580.832 484.918 580.832Z" fill="#407BFF"/>
<path d="M462.28 544.6H450.03C449.473 544.6 448.939 544.379 448.545 543.985C448.151 543.591 447.93 543.057 447.93 542.5C447.93 541.943 448.151 541.409 448.545 541.015C448.939 540.621 449.473 540.4 450.03 540.4H462.28C462.837 540.4 463.371 540.621 463.765 541.015C464.159 541.409 464.38 541.943 464.38 542.5C464.38 543.057 464.159 543.591 463.765 543.985C463.371 544.379 462.837 544.6 462.28 544.6Z" fill="white"/>
<path d="M434 544.6H320.18C319.623 544.6 319.089 544.379 318.695 543.985C318.301 543.591 318.08 543.057 318.08 542.5C318.08 541.943 318.301 541.409 318.695 541.015C319.089 540.621 319.623 540.4 320.18 540.4H434C434.557 540.4 435.091 540.621 435.485 541.015C435.879 541.409 436.1 541.943 436.1 542.5C436.1 543.057 435.879 543.591 435.485 543.985C435.091 544.379 434.557 544.6 434 544.6Z" fill="white"/>
<path d="M304.78 544.6H279.58C279.023 544.6 278.489 544.379 278.095 543.985C277.701 543.591 277.48 543.057 277.48 542.5C277.48 541.943 277.701 541.409 278.095 541.015C278.489 540.621 279.023 540.4 279.58 540.4H304.78C305.337 540.4 305.871 540.621 306.265 541.015C306.659 541.409 306.88 541.943 306.88 542.5C306.88 543.057 306.659 543.591 306.265 543.985C305.871 544.379 305.337 544.6 304.78 544.6Z" fill="white"/>
<path d="M462.28 562.394H354.48C353.923 562.394 353.389 562.173 352.995 561.779C352.601 561.385 352.38 560.851 352.38 560.294C352.38 559.737 352.601 559.203 352.995 558.809C353.389 558.415 353.923 558.194 354.48 558.194H462.28C462.837 558.194 463.371 558.415 463.765 558.809C464.159 559.203 464.38 559.737 464.38 560.294C464.38 560.851 464.159 561.385 463.765 561.779C463.371 562.173 462.837 562.394 462.28 562.394Z" fill="white"/>
<path d="M338.8 562.394H279.58C279.023 562.394 278.489 562.173 278.095 561.779C277.701 561.385 277.48 560.851 277.48 560.294C277.48 559.737 277.701 559.203 278.095 558.809C278.489 558.415 279.023 558.194 279.58 558.194H338.8C339.357 558.194 339.891 558.415 340.285 558.809C340.679 559.203 340.9 559.737 340.9 560.294C340.9 560.851 340.679 561.385 340.285 561.779C339.891 562.173 339.357 562.394 338.8 562.394Z" fill="white"/>
<path d="M475.538 417.438H245.938V465.318H475.622C473.55 449.427 473.522 433.336 475.538 417.438Z" fill="#407BFF"/>
<path opacity="0.8" d="M475.538 417.438H245.938V465.318H475.622C473.55 449.427 473.522 433.336 475.538 417.438Z" fill="white"/>
<path d="M287.77 467.838H215.6L214.858 467.096C211.44 463.679 208.73 459.623 206.88 455.159C205.031 450.694 204.079 445.909 204.079 441.077C204.079 436.245 205.031 431.46 206.88 426.995C208.73 422.531 211.44 418.474 214.858 415.058L215.6 414.316H287.756L283.472 418.6C277.521 424.561 274.178 432.64 274.178 441.063C274.178 449.486 277.521 457.565 283.472 463.526L287.77 467.838Z" fill="#407BFF"/>
<g opacity="0.2">
<path d="M287.77 467.838H215.6L214.858 467.096C211.44 463.679 208.73 459.623 206.88 455.159C205.031 450.694 204.079 445.909 204.079 441.077C204.079 436.245 205.031 431.46 206.88 426.995C208.73 422.531 211.44 418.474 214.858 415.058L215.6 414.316H287.756L283.472 418.6C277.521 424.561 274.178 432.64 274.178 441.063C274.178 449.486 277.521 457.565 283.472 463.526L287.77 467.838Z" fill="white"/>
</g>
<path d="M477.89 467.838H282.996L282.8 467.6C275.995 460.923 271.965 451.922 271.516 442.4C271.318 437.347 272.172 432.307 274.023 427.601C275.874 422.894 278.681 418.623 282.268 415.058L283.01 414.316H477.89C478.558 414.316 479.199 414.581 479.672 415.054C480.144 415.527 480.41 416.168 480.41 416.836C480.41 417.504 480.144 418.145 479.672 418.618C479.199 419.09 478.558 419.356 477.89 419.356H285.096C279.594 425.242 276.534 432.999 276.534 441.056C276.534 449.113 279.594 456.869 285.096 462.756H477.89C478.558 462.756 479.199 463.021 479.672 463.494C480.144 463.967 480.41 464.608 480.41 465.276C480.415 465.61 480.354 465.943 480.23 466.253C480.106 466.564 479.921 466.847 479.687 467.085C479.452 467.324 479.173 467.513 478.864 467.642C478.556 467.771 478.224 467.838 477.89 467.838Z" fill="#407BFF"/>
<g opacity="0.4">
<path d="M477.89 467.838H282.996L282.8 467.6C275.995 460.923 271.965 451.922 271.516 442.4C271.318 437.347 272.172 432.307 274.023 427.601C275.874 422.894 278.681 418.623 282.268 415.058L283.01 414.316H477.89C478.558 414.316 479.199 414.581 479.672 415.054C480.144 415.527 480.41 416.168 480.41 416.836C480.41 417.504 480.144 418.145 479.672 418.618C479.199 419.09 478.558 419.356 477.89 419.356H285.096C279.594 425.242 276.534 432.999 276.534 441.056C276.534 449.113 279.594 456.869 285.096 462.756H477.89C478.558 462.756 479.199 463.021 479.672 463.494C480.144 463.967 480.41 464.608 480.41 465.276C480.415 465.61 480.354 465.943 480.23 466.253C480.106 466.564 479.921 466.847 479.687 467.085C479.452 467.324 479.173 467.513 478.864 467.642C478.556 467.771 478.224 467.838 477.89 467.838Z" fill="white"/>
</g>
<path d="M457.52 435.288H446.488C445.987 435.288 445.506 435.089 445.151 434.734C444.797 434.38 444.598 433.899 444.598 433.398C444.598 433.15 444.647 432.904 444.742 432.675C444.837 432.445 444.976 432.237 445.151 432.061C445.327 431.886 445.535 431.747 445.765 431.652C445.994 431.557 446.24 431.508 446.488 431.508H457.52C457.768 431.508 458.014 431.557 458.243 431.652C458.472 431.747 458.681 431.886 458.856 432.061C459.032 432.237 459.171 432.445 459.266 432.675C459.361 432.904 459.41 433.15 459.41 433.398C459.41 433.899 459.211 434.38 458.856 434.734C458.502 435.089 458.021 435.288 457.52 435.288Z" fill="white"/>
<path d="M431.998 435.288H329.63C329.381 435.29 329.135 435.242 328.905 435.148C328.674 435.053 328.465 434.914 328.289 434.738C328.114 434.563 327.974 434.353 327.88 434.123C327.786 433.893 327.738 433.647 327.74 433.398C327.738 433.149 327.786 432.903 327.88 432.672C327.974 432.442 328.114 432.233 328.289 432.057C328.465 431.881 328.674 431.742 328.905 431.648C329.135 431.554 329.381 431.506 329.63 431.508H431.998C432.247 431.506 432.493 431.554 432.724 431.648C432.954 431.742 433.163 431.881 433.339 432.057C433.514 432.233 433.654 432.442 433.748 432.672C433.842 432.903 433.89 433.149 433.888 433.398C433.89 433.647 433.842 433.893 433.748 434.123C433.654 434.353 433.514 434.563 433.339 434.738C433.163 434.914 432.954 435.053 432.724 435.148C432.493 435.242 432.247 435.29 431.998 435.288Z" fill="white"/>
<path d="M315.77 435.288H293.09C292.841 435.29 292.595 435.242 292.365 435.148C292.134 435.053 291.925 434.914 291.749 434.738C291.574 434.563 291.434 434.353 291.34 434.123C291.246 433.893 291.198 433.647 291.2 433.398C291.198 433.149 291.246 432.903 291.34 432.672C291.434 432.442 291.574 432.233 291.749 432.057C291.925 431.881 292.134 431.742 292.365 431.648C292.595 431.554 292.841 431.506 293.09 431.508H315.77C316.019 431.506 316.265 431.554 316.495 431.648C316.726 431.742 316.935 431.881 317.111 432.057C317.286 432.233 317.426 432.442 317.52 432.672C317.614 432.903 317.662 433.149 317.66 433.398C317.662 433.647 317.614 433.893 317.52 434.123C317.426 434.353 317.286 434.563 317.111 434.738C316.935 434.914 316.726 435.053 316.495 435.148C316.265 435.242 316.019 435.29 315.77 435.288Z" fill="white"/>
<path d="M457.52 451.248H360.5C360.251 451.25 360.005 451.202 359.774 451.108C359.544 451.013 359.335 450.874 359.159 450.698C358.983 450.523 358.844 450.313 358.75 450.083C358.656 449.853 358.608 449.607 358.61 449.358C358.608 449.109 358.656 448.863 358.75 448.632C358.844 448.402 358.983 448.193 359.159 448.017C359.335 447.841 359.544 447.702 359.774 447.608C360.005 447.514 360.251 447.466 360.5 447.468H457.52C458.021 447.468 458.502 447.667 458.856 448.021C459.211 448.376 459.41 448.857 459.41 449.358C459.41 449.859 459.211 450.34 458.856 450.694C458.502 451.049 458.021 451.248 457.52 451.248Z" fill="white"/>
<path d="M346.318 451.248H293.118C292.87 451.253 292.624 451.21 292.394 451.12C292.163 451.03 291.952 450.895 291.774 450.723C291.596 450.551 291.453 450.346 291.355 450.119C291.256 449.892 291.204 449.647 291.2 449.4C291.198 449.151 291.246 448.905 291.34 448.674C291.434 448.444 291.574 448.235 291.749 448.059C291.925 447.883 292.134 447.744 292.365 447.65C292.595 447.556 292.841 447.508 293.09 447.51H346.29C346.539 447.508 346.785 447.556 347.015 447.65C347.246 447.744 347.455 447.883 347.631 448.059C347.806 448.235 347.946 448.444 348.04 448.674C348.134 448.905 348.182 449.151 348.18 449.4C348.173 449.89 347.974 450.358 347.626 450.703C347.278 451.049 346.808 451.244 346.318 451.248Z" fill="white"/>
<path d="M483.616 470.96H254.016V518.84H483.7C481.628 502.949 481.6 486.858 483.616 470.96Z" fill="#407BFF"/>
<path opacity="0.7" d="M483.616 470.96H254.016V518.84H483.7C481.628 502.949 481.6 486.858 483.616 470.96Z" fill="white"/>
<path d="M295.862 521.36H223.692L222.964 520.618C219.546 517.201 216.836 513.145 214.986 508.681C213.137 504.216 212.185 499.431 212.185 494.599C212.185 489.767 213.137 484.982 214.986 480.517C216.836 476.053 219.546 471.996 222.964 468.58L223.692 467.838H295.862L291.564 472.136C288.612 475.085 286.271 478.586 284.673 482.441C283.075 486.295 282.253 490.427 282.253 494.599C282.253 498.771 283.075 502.903 284.673 506.757C286.271 510.611 288.612 514.113 291.564 517.062L295.862 521.36Z" fill="#407BFF"/>
<path d="M485.982 521.36H291.074L290.864 521.15C284.06 514.473 280.029 505.472 279.58 495.95C279.388 490.897 280.244 485.859 282.094 481.153C283.945 476.448 286.749 472.176 290.332 468.608L291.074 467.866H485.982C486.649 467.869 487.288 468.136 487.76 468.608C488.232 469.08 488.498 469.718 488.502 470.386C488.498 471.053 488.232 471.692 487.76 472.164C487.288 472.635 486.649 472.902 485.982 472.906H293.188C287.677 478.788 284.611 486.546 284.611 494.606C284.611 502.666 287.677 510.424 293.188 516.306H485.982C486.313 516.306 486.641 516.371 486.946 516.498C487.252 516.624 487.53 516.81 487.764 517.044C487.998 517.278 488.183 517.556 488.31 517.861C488.437 518.167 488.502 518.495 488.502 518.826C488.502 519.495 488.237 520.138 487.765 520.613C487.293 521.087 486.652 521.356 485.982 521.36Z" fill="#407BFF"/>
<g opacity="0.3">
<path d="M485.982 521.36H291.074L290.864 521.15C284.06 514.473 280.029 505.472 279.58 495.95C279.388 490.897 280.244 485.859 282.094 481.153C283.945 476.448 286.749 472.176 290.332 468.608L291.074 467.866H485.982C486.649 467.869 487.288 468.136 487.76 468.608C488.232 469.08 488.498 469.718 488.502 470.386C488.498 471.053 488.232 471.692 487.76 472.164C487.288 472.635 486.649 472.902 485.982 472.906H293.188C287.677 478.788 284.611 486.546 284.611 494.606C284.611 502.666 287.677 510.424 293.188 516.306H485.982C486.313 516.306 486.641 516.371 486.946 516.498C487.252 516.624 487.53 516.81 487.764 517.044C487.998 517.278 488.183 517.556 488.31 517.861C488.437 518.167 488.502 518.495 488.502 518.826C488.502 519.495 488.237 520.138 487.765 520.613C487.293 521.087 486.652 521.356 485.982 521.36Z" fill="white"/>
</g>
<path d="M301.168 500.99H312.2C312.701 500.99 313.182 501.189 313.536 501.543C313.891 501.898 314.09 502.378 314.09 502.88C314.086 503.38 313.886 503.858 313.532 504.212C313.179 504.566 312.7 504.766 312.2 504.77H301.168C300.668 504.766 300.189 504.566 299.835 504.212C299.482 503.858 299.281 503.38 299.278 502.88C299.278 502.378 299.477 501.898 299.831 501.543C300.186 501.189 300.667 500.99 301.168 500.99Z" fill="white"/>
<path d="M326.69 500.99H429.058C429.307 500.988 429.553 501.036 429.783 501.13C430.013 501.224 430.223 501.363 430.398 501.539C430.574 501.715 430.713 501.924 430.808 502.154C430.902 502.384 430.95 502.631 430.948 502.88C430.948 503.128 430.899 503.374 430.804 503.603C430.709 503.832 430.57 504.041 430.394 504.216C430.219 504.392 430.01 504.531 429.781 504.626C429.552 504.721 429.306 504.77 429.058 504.77H326.69C326.442 504.77 326.196 504.721 325.967 504.626C325.737 504.531 325.529 504.392 325.353 504.216C325.178 504.041 325.039 503.832 324.944 503.603C324.849 503.374 324.8 503.128 324.8 502.88C324.798 502.631 324.846 502.384 324.94 502.154C325.034 501.924 325.173 501.715 325.349 501.539C325.525 501.363 325.734 501.224 325.964 501.13C326.195 501.036 326.441 500.988 326.69 500.99Z" fill="white"/>
<path d="M442.918 500.99H465.598C465.847 500.988 466.093 501.036 466.323 501.13C466.554 501.224 466.763 501.363 466.939 501.539C467.114 501.715 467.254 501.924 467.348 502.154C467.442 502.385 467.49 502.631 467.488 502.88C467.488 503.128 467.439 503.374 467.344 503.603C467.249 503.833 467.11 504.041 466.934 504.216C466.759 504.392 466.551 504.531 466.321 504.626C466.092 504.721 465.846 504.77 465.598 504.77H442.918C442.668 504.772 442.42 504.724 442.188 504.63C441.957 504.536 441.746 504.398 441.568 504.222C441.389 504.047 441.248 503.838 441.15 503.608C441.053 503.377 441.002 503.13 441 502.88C441 502.629 441.05 502.381 441.147 502.15C441.243 501.919 441.385 501.709 441.563 501.533C441.742 501.358 441.954 501.219 442.186 501.126C442.419 501.032 442.667 500.986 442.918 500.99Z" fill="white"/>
<path d="M301.168 485.03H398.188C398.437 485.028 398.683 485.076 398.913 485.17C399.143 485.264 399.353 485.403 399.528 485.579C399.704 485.755 399.843 485.964 399.938 486.194C400.032 486.424 400.08 486.671 400.078 486.92C400.078 487.168 400.029 487.414 399.934 487.643C399.839 487.872 399.7 488.081 399.524 488.256C399.349 488.432 399.14 488.571 398.911 488.666C398.682 488.761 398.436 488.81 398.188 488.81H301.168C300.668 488.806 300.189 488.606 299.835 488.252C299.482 487.899 299.281 487.42 299.278 486.92C299.278 486.419 299.477 485.938 299.831 485.583C300.186 485.229 300.667 485.03 301.168 485.03Z" fill="white"/>
<path d="M412.37 485.03H465.57C465.819 485.028 466.065 485.076 466.296 485.17C466.526 485.264 466.735 485.403 466.911 485.579C467.086 485.755 467.226 485.964 467.32 486.194C467.414 486.424 467.462 486.671 467.46 486.92C467.46 487.421 467.261 487.902 466.906 488.256C466.552 488.611 466.071 488.81 465.57 488.81H412.37C412.122 488.81 411.876 488.761 411.647 488.666C411.417 488.571 411.209 488.432 411.034 488.256C410.858 488.081 410.719 487.872 410.624 487.643C410.529 487.414 410.48 487.168 410.48 486.92C410.478 486.671 410.526 486.424 410.62 486.194C410.714 485.964 410.854 485.755 411.029 485.579C411.205 485.403 411.414 485.264 411.645 485.17C411.875 485.076 412.121 485.028 412.37 485.03Z" fill="white"/>
<path d="M444.374 399C444.542 393.064 451.934 390.95 451.934 390.95C451.934 390.95 451.724 390.376 451.486 389.55C451.486 389.55 452.158 390.39 455.924 388.64C459.69 386.89 460.992 386.232 460.992 386.232C458.587 386.707 456.24 387.439 453.992 388.416C453.728 388.571 453.435 388.669 453.131 388.703C452.826 388.737 452.519 388.707 452.227 388.615C451.935 388.522 451.666 388.37 451.437 388.167C451.208 387.963 451.025 387.715 450.898 387.436C450.604 386.778 450.156 383.124 451.934 384.79C455.112 387.758 473.55 376.558 479.78 383.74C486.01 390.922 474.824 392.784 474.824 392.784C463.792 395.892 457.142 404.558 454.216 409.29C453.012 411.222 451.752 409.766 451.514 409.136C450.758 407.12 451.22 406.14 455.322 401.408C455.322 401.408 452.928 402.556 450.604 407.148C449.974 405.748 449.316 404.712 448.392 406.14C447.468 407.568 446.208 407.694 445.592 406.406C445.48 406.14 445.074 403.928 448.686 399.574C447.715 399.914 446.843 400.49 446.149 401.25C445.455 402.01 444.961 402.93 444.71 403.928C444.408 402.304 444.295 400.65 444.374 399Z" fill="#263238"/>
<path d="M477.778 392C477.778 392 479.374 385.448 469.574 388.71C459.774 391.972 465.682 395.85 465.682 395.85L477.778 392Z" fill="#407BFF"/>
<path opacity="0.2" d="M477.778 392C477.778 392 479.374 385.448 469.574 388.71C459.774 391.972 465.682 395.85 465.682 395.85L477.778 392Z" fill="black"/>
<path d="M480.55 394.716C480.55 394.716 482.482 386.806 470.638 390.74C458.794 394.674 465.934 399.378 465.934 399.378L480.55 394.716Z" fill="#407BFF"/>
<path d="M476.252 444.738C476.252 444.738 479.668 436.506 462.98 433.356C446.292 430.206 443.114 433.972 448 440.076L454.748 444.738L468.44 449.26L474.306 446.726L476.252 444.738Z" fill="#263238"/>
<path opacity="0.2" d="M476.252 444.738C476.252 444.738 479.668 436.506 462.98 433.356C446.292 430.206 443.114 433.972 448 440.076L454.748 444.738L468.44 449.26L474.306 446.726L476.252 444.738Z" fill="black"/>
<path d="M417.102 500.556C391.426 559.776 424.018 582.89 464.632 581.504C505.246 580.118 578.648 557.508 568.484 529.13C560.322 506.31 493.78 516.46 473.018 521.29L462.56 504.728L417.102 500.556Z" fill="#407BFF"/>
<path opacity="0.2" d="M417.102 500.556C391.426 559.776 424.018 582.89 464.632 581.504C505.246 580.118 578.648 557.508 568.484 529.13C560.322 506.31 493.78 516.46 473.018 521.29L462.56 504.728L417.102 500.556Z" fill="black"/>
<path d="M515.998 567.238L497.014 571.284L489.244 572.936L487.186 564.158L495.208 561.302L511.924 555.352L515.998 567.238Z" fill="#EEC1BB"/>
<path opacity="0.2" d="M515.998 567.238L497.014 571.284L495.208 561.302L511.924 555.352L515.998 567.238Z" fill="black"/>
<path d="M496.118 559.608L501.564 556.598L504.784 573.132L499.982 572.782L496.118 559.608Z" fill="#407BFF"/>
<path opacity="0.3" d="M496.118 559.608L501.564 556.598L504.784 573.132L499.982 572.782L496.118 559.608Z" fill="white"/>
<path opacity="0.1" d="M473.032 521.29C473.032 521.29 560.28 508.62 555.94 524.832C552.622 537.208 516.572 552.09 516.572 552.09C482.972 535.668 455.294 536.284 455.294 536.284L473.032 521.29Z" fill="black"/>
<path d="M419.426 484.666C421.722 470.596 425.6 450.996 430.472 442.596C431.216 441.111 432.329 439.843 433.706 438.914C433.706 438.914 435.666 438.746 439.054 438.746H439.306C451.133 438.857 462.869 440.832 474.082 444.598C477.976 445.901 481.783 447.454 485.478 449.246C485.478 449.246 480.648 478.492 475.174 484.246C469.7 490 462.574 504.756 462.574 504.756L417.116 500.556C417.116 500.556 417.928 493.766 419.426 484.666Z" fill="#263238"/>
<path d="M470.4 435.82C471.174 433.99 472.077 432.217 473.102 430.514L460.978 422.87C461.048 423.984 461.048 425.102 460.978 426.216C460.712 430.416 459.242 437.64 452.76 440.216C452.76 440.216 455.56 450.954 464.492 451.864C464.957 451.917 465.427 451.917 465.892 451.864C466.638 451.747 467.354 451.483 467.999 451.089C468.644 450.694 469.204 450.177 469.649 449.566C470.093 448.955 470.413 448.262 470.59 447.528C470.767 446.793 470.798 446.031 470.68 445.284C470.68 445.284 469.07 444.57 468.986 441.77C469.048 439.711 469.529 437.687 470.4 435.82Z" fill="#EEC1BB"/>
<path opacity="0.2" d="M459.522 423.262C459.718 424.358 459.83 425.467 459.858 426.58V426.664C459.858 426.664 462.56 441.728 469.378 441.196C469.222 439.159 469.479 437.111 470.134 435.176C470.726 433.263 471.446 431.392 472.29 429.576L459.522 423.262Z" fill="black"/>
<path d="M469.266 440.076C482.874 445.578 489.538 438.032 493.066 422.632C495.866 410.284 494.032 402.85 482.3 399.28C462.826 393.4 450.66 429.618 469.266 440.076Z" fill="#EEC1BB"/>
<path d="M483.728 429.576C484.286 429.845 484.909 429.952 485.525 429.885C486.141 429.818 486.726 429.58 487.214 429.198C486.343 427.312 485.699 425.328 485.296 423.29L483.728 429.576Z" fill="#D58745"/>
<path d="M478.562 418.978C478.8 418.124 479.388 417.578 479.962 417.578L482.3 417.34C481.88 417.745 481.339 418.001 480.76 418.068C480.896 418.313 480.982 418.583 481.011 418.863C481.039 419.142 481.011 419.424 480.928 419.692C480.648 420.658 479.906 421.302 479.262 421.092C478.618 420.882 478.282 420 478.562 418.978Z" fill="#263238"/>
<path d="M489.272 422.156C489.51 421.302 490.126 420.756 490.672 420.756L492.94 420.518C492.518 420.917 491.977 421.168 491.4 421.232C491.537 421.48 491.621 421.753 491.648 422.035C491.674 422.317 491.642 422.601 491.554 422.87C491.288 423.836 490.546 424.48 489.902 424.27C489.258 424.06 489.006 423.122 489.272 422.156Z" fill="#263238"/>
<path d="M478.002 412.776C477.998 412.71 478.007 412.644 478.029 412.581C478.051 412.518 478.085 412.461 478.129 412.411C478.174 412.362 478.227 412.322 478.287 412.293C478.347 412.264 478.412 412.248 478.478 412.244C479.539 412.256 480.582 412.515 481.525 413.001C482.468 413.488 483.285 414.187 483.91 415.044C483.988 415.154 484.019 415.29 483.997 415.422C483.974 415.555 483.9 415.673 483.791 415.751C483.681 415.829 483.545 415.86 483.413 415.838C483.28 415.816 483.162 415.742 483.084 415.632C482.555 414.915 481.871 414.326 481.083 413.909C480.296 413.492 479.424 413.258 478.534 413.224C478.436 413.229 478.338 413.205 478.254 413.154C478.183 413.118 478.122 413.064 478.078 412.998C478.034 412.932 478.008 412.856 478.002 412.776Z" fill="#263238"/>
<path d="M494.2 418.166C493.561 417.709 492.825 417.409 492.05 417.287C491.274 417.165 490.481 417.227 489.734 417.466C489.607 417.51 489.468 417.506 489.344 417.454C489.22 417.402 489.12 417.307 489.062 417.186C489.01 417.061 489.009 416.921 489.058 416.796C489.108 416.67 489.205 416.569 489.328 416.514C490.226 416.223 491.178 416.141 492.112 416.274C493.046 416.408 493.938 416.753 494.718 417.284C494.773 417.317 494.822 417.361 494.86 417.413C494.898 417.465 494.925 417.524 494.939 417.587C494.953 417.65 494.955 417.715 494.943 417.778C494.932 417.842 494.907 417.902 494.872 417.956C494.814 418.058 494.719 418.133 494.606 418.166C494.542 418.193 494.473 418.207 494.403 418.207C494.333 418.207 494.264 418.193 494.2 418.166Z" fill="#263238"/>
<path d="M460.796 429.016C453.068 417.046 461.972 387.52 481.992 394.142C502.012 400.764 493.346 421.008 493.346 421.008C496.832 407.176 491.064 405.104 484.33 403.312C482.087 402.706 479.705 402.867 477.564 403.77C475.423 404.673 473.645 406.266 472.514 408.296C470.488 411.656 467.243 414.103 463.456 415.128C458.234 420.126 460.852 429.016 460.796 429.016Z" fill="#263238"/>
<path d="M480.522 432.6C479.583 432.607 478.672 432.276 477.957 431.666C477.242 431.057 476.771 430.21 476.63 429.282C476.624 429.242 476.626 429.202 476.637 429.163C476.647 429.124 476.665 429.088 476.69 429.056C476.715 429.025 476.746 428.999 476.782 428.98C476.817 428.961 476.856 428.949 476.896 428.946C476.975 428.938 477.055 428.961 477.118 429.011C477.18 429.06 477.221 429.133 477.232 429.212C477.339 430.005 477.736 430.729 478.346 431.247C478.956 431.764 479.736 432.036 480.536 432.012C480.6 432.024 480.659 432.054 480.706 432.098C480.753 432.143 480.787 432.201 480.802 432.264C480.814 432.347 480.793 432.432 480.743 432.5C480.693 432.568 480.619 432.614 480.536 432.628L480.522 432.6Z" fill="#2E353A"/>
<path d="M479.472 469.252C479.472 469.252 483.462 495.978 486.136 501.116C488.81 506.254 505.61 523.516 505.61 523.516L510.09 521.192C510.09 521.192 494.298 501.452 493.178 497.756C492.058 494.06 488.6 463.05 488.6 463.05L479.472 469.252Z" fill="#EEC1BB"/>
<path d="M476.756 467.04L478.814 455.406L485.45 449.26C490.406 451.892 491.316 467.236 491.526 473.48C491.708 478.898 491.834 491.33 493.962 496.79C496.37 502.95 509.362 518.322 509.362 518.322L503.244 522.69C503.244 522.69 487.844 509.74 483.49 499.772C479.136 489.804 476.756 467.04 476.756 467.04Z" fill="#263238"/>
<path d="M488.264 574.924C488.296 574.882 488.339 574.849 488.389 574.829C488.438 574.809 488.492 574.803 488.544 574.812C488.597 574.816 488.647 574.836 488.689 574.868C488.732 574.901 488.764 574.944 488.782 574.994C488.782 575.12 490.252 579.404 489.384 581.126C489.209 581.434 488.924 581.664 488.586 581.77C488.397 581.851 488.189 581.875 487.987 581.837C487.785 581.8 487.599 581.703 487.452 581.56C486.987 580.499 486.922 579.305 487.27 578.2C487.503 577.08 487.836 575.984 488.264 574.924ZM489.062 580.328C489.133 578.804 488.92 577.28 488.432 575.834C487.774 577.808 487.242 580.538 487.844 581.196C487.914 581.294 488.068 581.406 488.404 581.266C488.51 581.232 488.607 581.176 488.69 581.101C488.772 581.026 488.837 580.934 488.88 580.832C488.951 580.674 489.007 580.51 489.048 580.342L489.062 580.328Z" fill="#407BFF"/>
<path d="M488.306 574.868C488.337 574.828 488.378 574.797 488.424 574.777C488.471 574.757 488.522 574.75 488.572 574.756C488.698 574.756 491.568 575.68 492.422 577.29C492.663 577.752 492.713 578.289 492.562 578.788C492.352 579.474 491.946 579.642 491.638 579.6C490.42 579.6 488.6 576.506 488.292 575.078V574.98C488.289 574.942 488.294 574.904 488.306 574.868ZM492.1 578.494C492.167 578.17 492.118 577.833 491.96 577.542C491.182 576.543 490.117 575.805 488.908 575.428C489.426 576.828 490.938 579.012 491.708 579.096C491.792 579.096 491.974 579.096 492.114 578.634V578.494H492.1Z" fill="#407BFF"/>
<path d="M488.6 576.478C484.792 579.278 482.048 579.558 479.178 588C478.548 589.806 473.676 588 474.628 583.59C476.224 576.24 476.644 577.99 477.918 571.704C479.052 566.412 479.584 562.576 480.368 558.292L480.522 557.942C480.604 557.745 480.725 557.567 480.877 557.418C481.03 557.268 481.21 557.151 481.409 557.073C481.607 556.995 481.819 556.957 482.032 556.962C482.246 556.967 482.456 557.015 482.65 557.102L491.876 561.218C492.076 561.309 492.239 561.465 492.338 561.661C492.438 561.857 492.467 562.081 492.422 562.296L490.042 574.126C489.866 575.06 489.353 575.897 488.6 576.478Z" fill="#263238"/>
<path d="M525.714 561.974L544.278 567.63L551.894 569.94L549.43 578.62L541.03 577.234L523.53 574.364L525.714 561.974Z" fill="#EEC1BB"/>
<path opacity="0.2" d="M525.714 561.974L544.278 567.63L541.03 577.234L523.53 574.364L525.714 561.974Z" fill="black"/>
<path d="M538.496 576.884C499.226 573.496 454.328 559.006 454.328 559.006C454.328 559.006 447.104 551.922 445.256 557.004C443.408 562.086 456.19 580.132 456.19 580.132C456.19 580.132 437.43 576.772 427.266 563.234C417.102 549.696 420.7 527.968 445.284 526.834C469.868 525.7 541.268 565.81 541.268 565.81L538.496 576.884Z" fill="#407BFF"/>
<path d="M539.42 577.934H533.19L538.384 562.002L542.416 564.718L539.42 577.934Z" fill="#407BFF"/>
<path opacity="0.3" d="M539.42 577.934H533.19L538.384 562.002L542.416 564.718L539.42 577.934Z" fill="white"/>
<path d="M553.658 567.532C553.619 567.567 553.572 567.592 553.521 567.605C553.471 567.617 553.417 567.616 553.367 567.602C553.316 567.588 553.27 567.561 553.233 567.525C553.196 567.488 553.169 567.442 553.154 567.392C553.154 567.252 552.398 562.8 553.532 561.246C553.756 560.97 554.076 560.79 554.428 560.742C554.625 560.686 554.834 560.693 555.027 560.761C555.219 560.828 555.387 560.954 555.506 561.12C555.799 562.241 555.675 563.43 555.156 564.466C554.75 565.531 554.249 566.557 553.658 567.532ZM553.658 562.072C553.339 563.564 553.305 565.103 553.56 566.608C554.526 564.774 555.492 562.156 554.96 561.428C554.96 561.316 554.778 561.176 554.4 561.26C554.293 561.28 554.191 561.323 554.102 561.386C554.012 561.449 553.937 561.53 553.882 561.624C553.784 561.762 553.704 561.913 553.644 562.072H553.658Z" fill="#407BFF"/>
<path d="M553.602 567.602C553.56 567.622 553.515 567.632 553.469 567.632C553.423 567.632 553.377 567.622 553.336 567.602C553.21 567.532 550.536 566.202 549.934 564.494C549.849 564.251 549.813 563.993 549.83 563.735C549.847 563.478 549.916 563.226 550.032 562.996C550.34 562.338 550.76 562.254 551.068 562.324C552.258 562.562 553.574 565.88 553.658 567.336V567.434L553.602 567.602ZM550.438 563.402C550.323 563.714 550.323 564.056 550.438 564.368C551.048 565.474 551.981 566.368 553.112 566.93C552.832 565.418 551.712 563.066 550.956 562.87C550.872 562.87 550.69 562.87 550.494 563.262V563.402H550.438Z" fill="#407BFF"/>
<path d="M553.616 565.964C557.816 563.864 560.616 563.962 564.746 556.094C565.67 554.4 570.192 556.934 568.54 561.162C565.74 568.162 565.67 566.384 563.416 572.362C561.456 577.402 560.322 581.098 558.866 585.214L558.656 585.522C558.543 585.702 558.396 585.858 558.223 585.98C558.049 586.102 557.853 586.189 557.646 586.235C557.439 586.28 557.224 586.284 557.016 586.246C556.807 586.208 556.608 586.128 556.43 586.012L548.03 580.412C547.848 580.29 547.711 580.111 547.643 579.903C547.574 579.695 547.578 579.47 547.652 579.264L551.852 567.952C552.186 567.102 552.811 566.397 553.616 565.964Z" fill="#263238"/>
<path opacity="0.2" d="M431.2 501.858C430.015 499.971 428.958 498.006 428.036 495.978C424.984 489.44 424.018 473.578 423.724 462.574C424.752 458.037 426.028 453.56 427.546 449.162L435.498 445.578L439.236 451.892L441.546 456.806C441.546 456.806 443.968 486.388 449.946 493.29C453.852 497.742 457.758 502.04 460.04 504.49L431.2 501.858Z" fill="black"/>
<path d="M472.01 522.354C472.01 522.354 445.564 497.574 443.044 490.868C440.524 484.162 439.04 454.244 439.04 454.244L427 460.026C427 460.026 434.154 496.426 436.38 499.94C439.39 504.784 466.746 525.042 466.746 525.042L472.01 522.354Z" fill="#EEC1BB"/>
<path d="M433.692 438.928C443.044 436.632 441.35 459.186 441.644 466.438C441.882 472.122 443.044 484.96 445.662 490.616C449.512 498.848 468.86 518.406 468.86 518.406L463.946 523.894C463.946 523.894 438.396 505.96 434.238 499.59C430.92 494.522 415.282 443.45 433.692 438.928Z" fill="#263238"/>
<path opacity="0.2" d="M482.692 463.246C482.692 469.084 482.692 483.28 480.746 491.316C479.724 487.116 478.898 482.608 478.268 478.576C480.098 473.575 481.576 468.453 482.692 463.246Z" fill="black"/>
<path d="M464.618 413.42C464.618 413.42 469.644 415.478 465.822 421.106C466.177 419.813 466.254 418.459 466.046 417.134C465.839 415.808 465.352 414.543 464.618 413.42Z" fill="#263238"/>
<path d="M464.324 458.64C464.324 458.64 480.802 444.808 475.034 442.442C469.266 440.076 461.51 452.69 464.324 458.64Z" fill="#263238"/>
<path opacity="0.2" d="M448.238 444.416L444.038 438.9C446.698 439.04 449.353 439.273 452.004 439.6L456.988 445.578L460.95 451.892L462.98 454.244V457.352C462.98 457.352 453.012 450.716 448.238 444.416Z" fill="black"/>
<path d="M464.338 459.494C464.338 459.494 464.408 437.192 449.876 434.21C435.344 431.228 464.87 457.492 464.338 459.494Z" fill="#263238"/>
<path d="M494.2 410.69V410.452C496.3 410.326 500.836 410.578 500.388 415.044C499.8 420.826 495.25 428.288 498.176 431.55C498.176 431.55 493.668 429.772 496.776 417.088C497.966 412.342 495.67 411.04 494.2 410.69Z" fill="#263238"/>
<path d="M461.244 422.576C452.746 418.026 456.764 411.096 460.516 411.81C461.205 411.959 461.857 412.243 462.436 412.645C463.015 413.047 463.509 413.559 463.89 414.151C464.271 414.744 464.532 415.407 464.657 416.1C464.781 416.794 464.768 417.505 464.618 418.194C463.582 422.184 462.462 423.234 461.244 422.576Z" fill="#EEC1BB"/>
<path d="M474.852 419.748L462.602 412.748L462.994 411.572L475.342 418.572L483.21 421.442L487.326 422.842L494.088 425.04L493.668 427.07C493.374 428.554 492.198 429.436 491.064 429.044L488.446 428.134C487.84 427.828 487.358 427.323 487.083 426.703C486.807 426.083 486.755 425.386 486.934 424.732L487.06 424.088L483 422.8L482.874 423.458C482.566 424.928 481.404 425.81 480.256 425.418L476.238 424.018C475.634 423.71 475.154 423.204 474.878 422.585C474.603 421.966 474.549 421.27 474.726 420.616L474.852 419.748Z" fill="#263238"/>
<g opacity="0.4">
<path d="M482.3 424.578C482.086 424.919 481.766 425.179 481.388 425.319C481.011 425.458 480.598 425.468 480.214 425.348L476.196 423.948C475.85 423.8 475.544 423.574 475.301 423.287C475.058 423.001 474.885 422.661 474.796 422.296C477.481 422.208 480.119 423.01 482.3 424.578Z" fill="black"/>
<path d="M493.164 428.302C492.952 428.65 492.632 428.918 492.252 429.065C491.872 429.212 491.455 429.229 491.064 429.114L488.446 428.204C488.052 428.033 487.708 427.765 487.445 427.425C487.183 427.084 487.012 426.683 486.948 426.258C489.169 426.35 491.322 427.058 493.164 428.302Z" fill="black"/>
</g>
<path d="M510.482 519.932L520.282 518.784C520.528 518.752 520.778 518.782 521.01 518.87C521.242 518.957 521.449 519.101 521.612 519.288L526.68 525C526.831 525.169 526.942 525.37 527.006 525.588C527.069 525.806 527.083 526.035 527.047 526.259C527.011 526.483 526.925 526.696 526.796 526.882C526.667 527.069 526.499 527.225 526.302 527.338L524.832 528.192C524.652 528.297 524.452 528.364 524.245 528.388C524.037 528.412 523.827 528.393 523.628 528.332L514.934 525.742H514.752L506.198 524.342C505.977 524.304 505.767 524.218 505.584 524.091C505.4 523.963 505.246 523.796 505.134 523.602C505.022 523.409 504.954 523.193 504.934 522.97C504.915 522.747 504.945 522.522 505.022 522.312C505.104 522.089 505.237 521.889 505.409 521.726C505.582 521.564 505.789 521.443 506.016 521.374L510.216 520.086L510.482 519.932Z" fill="#EEC1BB"/>
<path d="M471.24 521.388L481.04 520.24C481.286 520.211 481.535 520.242 481.767 520.329C481.998 520.417 482.205 520.559 482.37 520.744L487.424 526.456C487.575 526.625 487.688 526.825 487.752 527.042C487.817 527.259 487.832 527.488 487.797 527.712C487.763 527.935 487.678 528.149 487.551 528.336C487.423 528.523 487.256 528.68 487.06 528.794L485.59 529.648C485.22 529.858 484.782 529.914 484.372 529.802L475.678 527.198H475.496L466.956 525.798C466.734 525.762 466.523 525.678 466.337 525.551C466.152 525.424 465.997 525.257 465.883 525.063C465.769 524.869 465.7 524.653 465.68 524.429C465.659 524.205 465.689 523.979 465.766 523.768C465.848 523.546 465.981 523.346 466.153 523.183C466.326 523.02 466.533 522.899 466.76 522.83L470.96 521.542L471.24 521.388Z" fill="#EEC1BB"/>
<path d="M497.154 531.678H521.304V527.8H497.154V531.678Z" fill="#263238"/>
<path d="M499.142 531.664H468.51C468.005 531.664 467.521 531.463 467.164 531.106C466.806 530.749 466.606 530.265 466.606 529.76V527.786H499.142V531.664Z" fill="#263238"/>
<path opacity="0.3" d="M499.142 531.664H468.51C468.005 531.664 467.521 531.463 467.164 531.106C466.806 530.749 466.606 530.265 466.606 529.76V527.786H499.142V531.664Z" fill="white"/>
<path d="M490.392 530.418H494.27V529.046H490.392V530.418Z" fill="#263238"/>
<path d="M484.344 530.418H488.222V529.046H484.344V530.418Z" fill="#263238"/>
<path d="M503.762 527.8H501.186L511.266 492.744H513.842L503.762 527.8Z" fill="#263238"/>
<path opacity="0.3" d="M503.762 527.8H501.186L511.266 492.744H513.842L503.762 527.8Z" fill="white"/>
<path d="M502.81 527.8H548.128L558.208 492.744H512.89L502.81 527.8Z" fill="#263238"/>
<path opacity="0.6" d="M502.81 527.8H548.128L558.208 492.744H512.89L502.81 527.8Z" fill="white"/>
<path d="M500.584 527.8H547.764C548.562 527.8 549.164 528.668 549.164 529.746C549.164 530.824 548.52 531.678 547.764 531.678H500.584C499.786 531.678 499.184 530.81 499.184 529.746C499.184 528.682 499.8 527.8 500.584 527.8Z" fill="#263238"/>
<path opacity="0.5" d="M500.584 527.8H547.764C548.562 527.8 549.164 528.668 549.164 529.746C549.164 530.824 548.52 531.678 547.764 531.678H500.584C499.786 531.678 499.184 530.81 499.184 529.746C499.184 528.682 499.8 527.8 500.584 527.8Z" fill="white"/>
<path d="M500.584 531.664C501.38 531.664 502.026 530.799 502.026 529.732C502.026 528.665 501.38 527.8 500.584 527.8C499.787 527.8 499.142 528.665 499.142 529.732C499.142 530.799 499.787 531.664 500.584 531.664Z" fill="#263238"/>
<path opacity="0.3" d="M500.584 531.664C501.38 531.664 502.026 530.799 502.026 529.732C502.026 528.665 501.38 527.8 500.584 527.8C499.787 527.8 499.142 528.665 499.142 529.732C499.142 530.799 499.787 531.664 500.584 531.664Z" fill="white"/>
<path opacity="0.6" d="M529.186 512.666H535.36L536.732 507.878H530.558L529.186 512.666Z" fill="white"/>
</svg>
