<svg width="60" height="60" viewBox="0 0 60 60" fill="none" xmlns="http://www.w3.org/2000/svg">
<path d="M5 28.75C5 14.9425 16.1925 3.75 30 3.75C43.8075 3.75 55 14.9425 55 28.75L30 31.25L5 28.75Z" fill="#00C853"/>
<path d="M55 28.75C55 42.5575 43.8075 53.75 30 53.75C16.1925 53.75 5 42.5575 5 28.75H55Z" fill="#00E676"/>
<path d="M49.1123 52.9249V56.8749C49.1123 57.1124 48.9873 57.3124 48.7998 57.4124C48.6248 57.5249 48.3873 57.5374 48.1748 57.4124L44.7748 55.4249L38.9248 45.2374L36.4248 40.8999L31.7373 32.7499L35.3998 29.0874L40.3873 37.7624L42.9748 42.2624L49.1123 52.9249Z" fill="#C2EAFD"/>
<path d="M39.0388 35.4187C38.0213 36.795 36.7026 37.9325 35.1738 38.7287L40.1626 47.405C41.6438 46.595 43.0026 45.5975 44.2438 44.4725L39.0388 35.4187Z" fill="#9ADDFB"/>
<path d="M48.7502 28.75C48.7502 34.05 46.5377 38.85 42.9752 42.2625C41.7752 43.425 40.4127 44.425 38.9252 45.2375C36.2752 46.675 33.2377 47.5 30.0002 47.5C26.8377 47.5 23.8002 46.725 21.0752 45.2375L15.2252 55.425L11.8252 57.4125C11.6127 57.5375 11.3752 57.525 11.2002 57.4125C11.0127 57.3125 10.8877 57.1125 10.8877 56.875V52.925L24.6002 29.0875L28.2627 32.75L23.5752 40.9125C25.5377 41.95 27.7252 42.5 30.0002 42.5C32.3252 42.5 34.5127 41.925 36.4252 40.9C37.9377 40.1125 39.2752 39.0375 40.3877 37.7625C42.4877 35.3375 43.7502 32.2 43.7502 28.75H48.7502Z" fill="#C2EAFD"/>
<path d="M35.625 16.25H32.5V12.5H27.5V16.25H24.375C23.34 16.25 22.5 17.09 22.5 18.125V28.75L28.665 34.915C29.4025 35.6525 30.5975 35.6525 31.3337 34.915L37.5 28.75V18.125C37.5 17.09 36.66 16.25 35.625 16.25ZM30 27.5C28.2737 27.5 26.875 26.1012 26.875 24.375C26.875 22.6488 28.2737 21.25 30 21.25C31.7262 21.25 33.125 22.6488 33.125 24.375C33.125 26.1012 31.7262 27.5 30 27.5Z" fill="#37474F"/>
</svg>
