<svg width="100" height="100" viewBox="0 0 100 100" fill="none" xmlns="http://www.w3.org/2000/svg">
<circle cx="50" cy="50" r="50" fill="white"/>
<path fill-rule="evenodd" clip-rule="evenodd" d="M18.0003 66.8861C20.9639 67.1215 24.6414 66.9198 27.6839 66.9085C30.4506 66.8981 34.6636 67.2478 36.9459 66.1979C38.9522 65.275 40.9307 62.968 41.6684 60.5973C42.4372 58.1268 42.4437 53.5486 40.7514 52.0518C40.2202 52.3451 39.4109 53.243 38.6597 53.735C37.7905 54.3041 36.9229 54.4462 36.0982 54.9479C36.495 56.3202 37.2536 57.2704 36.304 59.0391C35.7288 60.1105 34.7231 60.91 33.2437 61.0131C31.2908 61.1492 25.2729 61.2465 23.5078 60.9624L23.4792 53.4738C26.8817 53.2054 32.8553 53.9806 35.7416 53.1968C37.4358 52.7366 38.6675 51.7077 39.6255 50.6629C42.4181 47.6174 42.2347 41.8085 48.8025 40.292C53.98 39.0965 55.9845 42.1186 57.9022 43.6415C58.3469 43.3548 61.4145 39.7345 61.6623 39.1256C59.1794 37.2318 57.2691 34.6794 52.5075 34.1456C46.6683 33.491 41.3127 36.2905 38.3445 41.192C37.5071 42.575 36.7898 44.9489 35.9724 46.116C34.7911 47.8025 32.8575 47.5351 30.4605 47.5327C28.3833 47.5306 25.522 47.6964 23.5387 47.4778L23.4707 40.1358C25.209 39.8395 28.5624 40.0845 30.4605 40.0714C33.827 40.0482 34.1893 39.7927 36.1775 41.6368C36.8844 40.7393 37.289 39.6284 38.5721 38.0287C38.7584 37.7963 38.87 37.6888 39.049 37.4785L39.4885 36.8353C37.5406 33.8922 32.6589 34.059 29.9704 34.0586C26.0734 34.058 21.8668 33.9005 18.0055 34.1044L18 66.8863L18.0003 66.8861Z" fill="#003290"/>
<path fill-rule="evenodd" clip-rule="evenodd" d="M56.2891 59.0594C58.2997 58.7437 60.3718 57.886 62.0143 57.1416C63.8522 56.3084 63.6102 55.8652 65.0154 52.3482C65.7547 50.4979 66.5134 48.703 67.2832 46.7691C67.7172 45.6786 69.1407 41.852 69.6367 41.2026C70.1409 42.3629 72.3344 48.2862 72.7668 48.7769C73.384 48.359 75.9735 44.7909 76.2627 44.0523C76.5846 43.2309 76.1138 42.697 75.8076 41.9302C75.4094 40.9331 73.0118 34.2906 72.4401 34.1401L66.5049 34.1435L56.2891 59.0594Z" fill="#118CFD"/>
<path fill-rule="evenodd" clip-rule="evenodd" d="M43.7526 57.8067C43.7087 58.9552 43.5128 60.0517 43.2068 61.0495C42.8835 62.1047 42.3499 62.8845 42.0777 63.7351C44.1844 65.8638 49.6723 67.0019 53.2552 66.6972C60.607 66.0721 67.4371 61.6031 71.5854 55.802C72.8834 53.9867 76.378 48.9508 77.0404 46.1006C76.5929 46.4743 75.0893 48.8806 73.3972 50.6173C70.1133 53.9882 68.4663 55.8724 63.2341 58.4654C49.6754 65.1851 44.7261 58.2004 43.7526 57.8067Z" fill="#003290"/>
<path fill-rule="evenodd" clip-rule="evenodd" d="M79.8241 66.8736L86 66.8639L82.1149 57.2431C81.4742 55.7406 78.6993 48.4995 78.1719 47.811C77.4277 49.3559 76.7377 50.7825 75.9009 52.2954C74.7733 54.3342 74.4119 53.5328 75.9391 57.0174L79.8243 66.8733L79.8241 66.8736Z" fill="#118CFD"/>
</svg>
