<svg width="700" height="700" viewBox="0 0 700 700" fill="none" xmlns="http://www.w3.org/2000/svg">
<path d="M350 598.584C499.916 598.584 621.446 591.489 621.446 582.736C621.446 573.984 499.916 566.888 350 566.888C200.085 566.888 78.5542 573.984 78.5542 582.736C78.5542 591.489 200.085 598.584 350 598.584Z" fill="#F5F5F5"/>
<path d="M343.658 329.154L346.01 332.066L122.388 510.188L131.922 521.99L133.224 523.6L356.846 345.478L359.198 348.39L363.384 329.112L343.658 329.154Z" fill="#407BFF"/>
<path opacity="0.7" d="M343.658 329.154L346.01 332.066L122.388 510.188L131.922 521.99L133.224 523.6L356.846 345.478L359.198 348.39L363.384 329.112L343.658 329.154Z" fill="white"/>
<path d="M89.4742 522.648C89.4779 520.696 90.2549 518.825 91.6351 517.445C93.0154 516.064 94.8863 515.287 96.8382 515.284C97.5552 515.282 98.2682 515.391 98.9522 515.606C98.8395 514.855 98.7834 514.097 98.7842 513.338C98.7842 511.29 99.1877 509.263 99.9716 507.371C100.756 505.48 101.905 503.762 103.353 502.314C104.801 500.867 106.521 499.72 108.413 498.938C110.305 498.155 112.333 497.754 114.38 497.756C115.32 497.756 116.257 497.845 117.18 498.022C118.727 495.524 121.041 493.593 123.775 492.517C126.509 491.442 129.518 491.279 132.353 492.054C135.187 492.829 137.695 494.499 139.502 496.816C141.309 499.133 142.319 501.972 142.38 504.91H142.8C144.536 504.768 146.282 504.987 147.928 505.553C149.575 506.12 151.086 507.022 152.367 508.202C153.647 509.382 154.669 510.814 155.368 512.409C156.067 514.004 156.428 515.726 156.428 517.468C156.428 519.209 156.067 520.931 155.368 522.526C154.669 524.121 153.647 525.553 152.367 526.733C151.086 527.913 149.575 528.815 147.928 529.382C146.282 529.948 144.536 530.168 142.8 530.026H96.6002C94.6851 529.967 92.8685 529.163 91.5374 527.785C90.2063 526.407 89.466 524.564 89.4742 522.648Z" fill="#407BFF"/>
<path opacity="0.8" d="M89.4742 522.648C89.4779 520.696 90.2549 518.825 91.6351 517.445C93.0154 516.064 94.8863 515.287 96.8382 515.284C97.5552 515.282 98.2682 515.391 98.9522 515.606C98.8395 514.855 98.7834 514.097 98.7842 513.338C98.7842 511.29 99.1877 509.263 99.9716 507.371C100.756 505.48 101.905 503.762 103.353 502.314C104.801 500.867 106.521 499.72 108.413 498.938C110.305 498.155 112.333 497.754 114.38 497.756C115.32 497.756 116.257 497.845 117.18 498.022C118.727 495.524 121.041 493.593 123.775 492.517C126.509 491.442 129.518 491.279 132.353 492.054C135.187 492.829 137.695 494.499 139.502 496.816C141.309 499.133 142.319 501.972 142.38 504.91H142.8C144.536 504.768 146.282 504.987 147.928 505.553C149.575 506.12 151.086 507.022 152.367 508.202C153.647 509.382 154.669 510.814 155.368 512.409C156.067 514.004 156.428 515.726 156.428 517.468C156.428 519.209 156.067 520.931 155.368 522.526C154.669 524.121 153.647 525.553 152.367 526.733C151.086 527.913 149.575 528.815 147.928 529.382C146.282 529.948 144.536 530.168 142.8 530.026H96.6002C94.6851 529.967 92.8685 529.163 91.5374 527.785C90.2063 526.407 89.466 524.564 89.4742 522.648Z" fill="white"/>
<path d="M558.25 441.994L563.836 448.91L459.886 532.868L482.482 560.84L485.576 564.676L589.512 480.704L595.098 487.62L605.038 441.896L558.25 441.994Z" fill="#407BFF"/>
<path opacity="0.5" d="M558.25 441.994L563.836 448.91L459.886 532.868L482.482 560.84L485.576 564.676L589.512 480.704L595.098 487.62L605.038 441.896L558.25 441.994Z" fill="white"/>
<path d="M502.054 529.858C499.91 526.418 496.918 523.585 493.366 521.632C489.813 519.68 485.819 518.672 481.765 518.705C477.711 518.739 473.734 519.813 470.214 521.825C466.695 523.837 463.75 526.718 461.664 530.194C459.775 529.641 457.783 529.538 455.847 529.893C453.911 530.248 452.085 531.052 450.515 532.241C448.946 533.429 447.677 534.968 446.81 536.735C445.943 538.502 445.502 540.448 445.522 542.416H438.83C437.971 542.376 437.113 542.51 436.308 542.811C435.502 543.112 434.766 543.573 434.144 544.167C433.522 544.76 433.027 545.474 432.689 546.264C432.35 547.055 432.176 547.905 432.176 548.765C432.176 549.625 432.35 550.476 432.689 551.266C433.027 552.057 433.522 552.77 434.144 553.364C434.766 553.957 435.502 554.418 436.308 554.719C437.113 555.02 437.971 555.155 438.83 555.114H462C463.913 558.135 466.484 560.683 469.522 562.569C472.56 564.454 475.985 565.627 479.541 566C483.097 566.373 486.691 565.937 490.054 564.723C493.417 563.509 496.462 561.55 498.96 558.992C499.361 559.013 499.763 559.013 500.164 558.992C503.891 558.999 507.481 557.587 510.205 555.043C512.93 552.5 514.583 549.014 514.831 545.295C515.079 541.576 513.902 537.902 511.539 535.02C509.176 532.137 505.805 530.262 502.11 529.774L502.054 529.858Z" fill="#407BFF"/>
<path opacity="0.8" d="M502.054 529.858C499.91 526.418 496.918 523.585 493.366 521.632C489.813 519.68 485.819 518.672 481.765 518.705C477.711 518.739 473.734 519.813 470.214 521.825C466.695 523.837 463.75 526.718 461.664 530.194C459.775 529.641 457.783 529.538 455.847 529.893C453.911 530.248 452.085 531.052 450.515 532.241C448.946 533.429 447.677 534.968 446.81 536.735C445.943 538.502 445.502 540.448 445.522 542.416H438.83C437.971 542.376 437.113 542.51 436.308 542.811C435.502 543.112 434.766 543.573 434.144 544.167C433.522 544.76 433.027 545.474 432.689 546.264C432.35 547.055 432.176 547.905 432.176 548.765C432.176 549.625 432.35 550.476 432.689 551.266C433.027 552.057 433.522 552.77 434.144 553.364C434.766 553.957 435.502 554.418 436.308 554.719C437.113 555.02 437.971 555.155 438.83 555.114H462C463.913 558.135 466.484 560.683 469.522 562.569C472.56 564.454 475.985 565.627 479.541 566C483.097 566.373 486.691 565.937 490.054 564.723C493.417 563.509 496.462 561.55 498.96 558.992C499.361 559.013 499.763 559.013 500.164 558.992C503.891 558.999 507.481 557.587 510.205 555.043C512.93 552.5 514.583 549.014 514.831 545.295C515.079 541.576 513.902 537.902 511.539 535.02C509.176 532.137 505.805 530.262 502.11 529.774L502.054 529.858Z" fill="white"/>
<path d="M345.996 245.77L343.98 243.6C343.713 243.319 343.379 243.11 343.009 242.992C342.64 242.875 342.246 242.853 341.866 242.928L338.8 243.6C338.321 243.696 337.884 243.939 337.55 244.295C337.216 244.652 337.002 245.104 336.938 245.588L335.398 258.188L340.074 259.994C345.786 257.502 345.492 249.97 345.492 249.97L346.304 248.472C346.545 248.047 346.645 247.557 346.59 247.071C346.534 246.586 346.326 246.13 345.996 245.77Z" fill="#FFB573"/>
<path d="M289.478 283.696C289.478 283.696 293.972 283.962 296.604 283.906C299.236 283.85 301.896 283.822 304.486 283.668C307.076 283.514 309.638 283.318 311.99 282.996C313.065 282.852 314.13 282.647 315.182 282.38L316.19 282.058C316.498 281.918 316.19 282.156 316.33 282.058C317.058 281.33 317.736 280.554 318.36 279.734C319.13 278.754 319.9 277.704 320.67 276.64C322.21 274.498 323.722 272.272 325.248 270.032L334.39 256.466L341.544 260.26C340.494 262.878 339.346 265.398 338.212 267.946C337.078 270.494 335.818 272.986 334.586 275.492C333.354 277.998 332.01 280.49 330.582 282.982C329.868 284.228 329.182 285.474 328.314 286.748C327.403 288.215 326.363 289.597 325.206 290.878C324.272 291.851 323.19 292.668 322 293.3C321.098 293.783 320.162 294.2 319.2 294.546C317.629 295.125 316.02 295.593 314.384 295.946C311.464 296.606 308.503 297.074 305.522 297.346C299.815 297.927 294.078 298.152 288.344 298.018L289.478 283.696Z" fill="#407BFF"/>
<path opacity="0.7" d="M341.6 260.288C340.55 262.892 339.416 265.412 338.282 267.96C337.148 270.508 335.888 273 334.642 275.52C333.396 278.04 332.08 280.504 330.652 282.996C329.938 284.242 329.252 285.488 328.37 286.762C327.47 288.233 326.434 289.615 325.276 290.892C324.32 291.865 323.214 292.678 322 293.3C321.1 293.79 320.164 294.211 319.2 294.56C317.632 295.131 316.027 295.599 314.398 295.96C311.476 296.613 308.516 297.081 305.536 297.36C304.29 297.486 303.058 297.584 301.84 297.682C297.346 298.004 292.922 298.116 288.358 298.018L288.582 295.078L289.464 283.78C289.464 283.78 293.944 284.06 296.576 283.99C299.208 283.92 301.868 283.906 304.472 283.752C307.076 283.598 309.624 283.416 311.976 283.08C313.053 282.947 314.119 282.742 315.168 282.464C315.511 282.379 315.847 282.272 316.176 282.142C316.484 282.002 316.176 282.254 316.316 282.142C317.044 281.414 317.723 280.638 318.346 279.818C319.116 278.838 319.886 277.788 320.642 276.724C322.182 274.582 323.708 272.356 325.234 270.116L334.376 256.55L341.6 260.288Z" fill="white"/>
<path opacity="0.1" d="M301.854 297.598C297.36 297.92 292.936 298.032 288.372 297.934L288.596 294.994L289.688 292.418C294.26 292.51 298.62 294.366 301.854 297.598Z" fill="black"/>
<path d="M214.606 534.8C214.606 534.8 202.006 526.078 202.706 520.226C202.732 520.091 202.73 519.952 202.699 519.819C202.669 519.685 202.611 519.558 202.53 519.448C202.448 519.337 202.344 519.245 202.225 519.177C202.106 519.108 201.974 519.065 201.838 519.05L191.1 517.426C190.837 517.376 190.566 517.402 190.318 517.501C190.07 517.601 189.855 517.769 189.7 517.986L183.4 526.932L186.2 527.954L187.726 526.89L188.454 528.78C203.924 534.38 210.672 536.634 214.088 536.774C215.096 535.57 214.606 534.8 214.606 534.8Z" fill="black"/>
<path d="M285.978 370.16C285.978 370.16 285.334 371.84 284.2 374.752C282.982 377.902 281.19 382.494 279.034 387.954C277.634 391.594 275.996 395.626 274.274 399.868C266.364 419.468 256.144 443.842 249.382 456.12C236.432 479.612 202.692 524.23 202.692 524.23L189.21 519.302C189.21 519.302 213.486 473.354 225.736 450.072C230.38 440.671 234.475 431.009 238 421.134C240.03 415.716 242.046 410.074 243.992 404.488C244.874 401.968 245.742 399.448 246.582 396.97C248.808 390.418 250.894 384.104 252.728 378.476C252.952 377.776 253.176 377.076 253.4 376.404C254.142 374.094 254.8 371.91 255.472 369.894C258.104 361.606 259.742 356.146 259.798 355.894L271.824 362.446L285.978 370.16Z" fill="#263238"/>
<path opacity="0.3" d="M284.2 374.752C282.982 377.902 281.19 382.494 279.034 387.954C277.634 391.594 275.996 395.626 274.274 399.868C263.27 402.08 252.07 403.578 244.02 404.488C244.902 401.968 245.77 399.448 246.61 396.97C248.836 390.418 250.922 384.104 252.756 378.476C252.98 377.776 253.204 377.076 253.428 376.404C254.17 374.094 254.828 371.91 255.5 369.894C263.592 371 274.4 372.652 284.2 374.752Z" fill="black"/>
<path d="M242.9 291.2C244.838 298.239 246.081 305.451 246.61 312.732C247.1 318.542 247.282 324.254 247.31 329.392C247.338 334.53 247.17 339.122 247.002 342.622C246.778 347.13 246.512 349.888 246.512 349.888L289.044 352.086C301.812 305.886 289.464 283.71 289.464 283.71C285.675 283.378 281.868 283.29 278.068 283.444C277.284 283.444 276.472 283.528 275.66 283.598C269.258 284.335 262.905 285.447 256.634 286.93C255.5 287.182 254.352 287.476 253.232 287.77C247.688 289.282 242.9 291.2 242.9 291.2Z" fill="#407BFF"/>
<path opacity="0.7" d="M289.058 352.072L246.526 349.888C246.526 349.888 246.792 347.088 247.016 342.608C247.016 341.292 247.128 339.808 247.184 338.17C247.268 335.552 247.324 332.57 247.324 329.378C247.324 327.824 247.324 326.214 247.24 324.562C247.24 324.296 247.24 324.03 247.24 323.764C247.17 321.146 247.044 318.43 246.862 315.672C246.778 314.692 246.708 313.712 246.624 312.732C246.624 311.962 246.498 311.178 246.428 310.408C246.218 308.448 245.994 306.488 245.714 304.556C245.644 304.024 245.56 303.492 245.476 302.974C245.35 302.092 245.21 301.238 245.056 300.37C244.512 297.268 243.802 294.198 242.928 291.172C242.928 291.172 247.73 289.296 253.288 287.77C254.394 287.476 255.542 287.182 256.676 286.93C262.949 285.456 269.301 284.344 275.702 283.598C276.528 283.598 277.326 283.472 278.124 283.458C281.924 283.296 285.731 283.38 289.52 283.71C289.52 283.71 301.826 305.802 289.058 352.072Z" fill="white"/>
<path d="M315.364 462.756C315.364 462.756 303.212 453.32 304.332 447.524C304.365 447.391 304.37 447.252 304.347 447.116C304.324 446.981 304.274 446.851 304.199 446.736C304.124 446.621 304.027 446.522 303.912 446.445C303.798 446.369 303.669 446.317 303.534 446.292L292.894 444.052C292.638 443.995 292.371 444.01 292.124 444.097C291.876 444.183 291.658 444.338 291.494 444.542L284.648 453.068L287.448 454.258L289.03 453.278L289.646 455.196C304.78 461.678 311.388 464.324 314.846 464.66C315.812 463.512 315.364 462.756 315.364 462.756Z" fill="black"/>
<path d="M266.868 388.206H267.862L318.864 395.626L289.8 443.8L304.332 449.4C304.332 449.4 356.902 392.728 345.156 379.806C335.496 369.18 288.176 362.712 288.176 362.712L289.73 351.624L245.994 343C227.276 383.908 260.61 387.8 266.868 388.206Z" fill="#263238"/>
<path d="M245.476 347.298L244.552 347.116L245.392 344.176L246.218 344.33L245.476 347.298Z" fill="#263238"/>
<path d="M279.902 353.962L261.212 350.35L261.94 347.382L280.56 350.994L279.902 353.962Z" fill="#263238"/>
<path d="M282.002 351.274L289.898 352.8L289.366 355.796L281.372 354.242L282.002 351.274Z" fill="#263238"/>
<path d="M247.66 344.61L260.512 347.102L259.756 350.056L246.946 347.578L247.66 344.61Z" fill="#263238"/>
<g opacity="0.2">
<path d="M245.476 347.298L244.552 347.116L245.392 344.176L246.218 344.33L245.476 347.298Z" fill="white"/>
<path d="M279.902 353.962L261.212 350.35L261.94 347.382L280.56 350.994L279.902 353.962Z" fill="white"/>
<path d="M282.002 351.274L289.898 352.8L289.366 355.796L281.372 354.242L282.002 351.274Z" fill="white"/>
<path d="M247.66 344.61L260.512 347.102L259.756 350.056L246.946 347.578L247.66 344.61Z" fill="white"/>
</g>
<path d="M273.756 353.094H273.588L268.912 352.254C268.781 352.234 268.656 352.186 268.545 352.113C268.434 352.041 268.339 351.946 268.268 351.834C268.193 351.725 268.143 351.601 268.121 351.47C268.1 351.339 268.106 351.206 268.142 351.078L268.604 349.202C268.661 348.961 268.809 348.751 269.019 348.618C269.228 348.484 269.481 348.438 269.724 348.488L274.358 349.384C274.487 349.405 274.61 349.453 274.718 349.525C274.827 349.598 274.919 349.693 274.988 349.804C275.059 349.912 275.107 350.034 275.128 350.162C275.15 350.29 275.145 350.42 275.114 350.546L274.694 352.352C274.643 352.563 274.524 352.751 274.353 352.886C274.183 353.02 273.973 353.094 273.756 353.094ZM269.556 349.272C269.524 349.274 269.493 349.286 269.468 349.306C269.443 349.326 269.424 349.353 269.416 349.384L268.954 351.26C268.946 351.278 268.942 351.297 268.942 351.316C268.942 351.335 268.946 351.354 268.954 351.372C268.969 351.379 268.986 351.382 269.003 351.382C269.02 351.382 269.036 351.379 269.052 351.372L273.728 352.212C273.764 352.214 273.8 352.204 273.83 352.184C273.861 352.164 273.884 352.134 273.896 352.1L274.316 350.294C274.324 350.277 274.329 350.258 274.329 350.238C274.329 350.219 274.324 350.2 274.316 350.182C274.303 350.175 274.288 350.171 274.274 350.171C274.259 350.171 274.245 350.175 274.232 350.182L269.598 349.272H269.556Z" fill="white"/>
<path d="M270.844 351.008H270.774L269.374 350.756C269.32 350.748 269.269 350.729 269.222 350.7C269.176 350.671 269.136 350.634 269.105 350.589C269.074 350.545 269.052 350.495 269.04 350.442C269.028 350.389 269.028 350.334 269.038 350.28C269.044 350.226 269.062 350.173 269.09 350.126C269.118 350.079 269.156 350.038 269.201 350.006C269.246 349.975 269.297 349.953 269.351 349.942C269.405 349.931 269.46 349.932 269.514 349.944L270.914 350.196C270.967 350.205 271.019 350.224 271.065 350.253C271.111 350.281 271.151 350.319 271.182 350.363C271.214 350.408 271.236 350.458 271.247 350.511C271.259 350.564 271.26 350.619 271.25 350.672C271.231 350.766 271.18 350.851 271.106 350.912C271.032 350.973 270.94 351.007 270.844 351.008Z" fill="white"/>
<path d="M261.058 267.61L272.16 276.822C271.082 281.33 272.972 285.488 275.156 286.258C275.156 286.258 276.78 290.122 273.658 290.766C267.316 292.082 260.092 285.95 260.092 285.95C263.452 282.352 262.234 273.364 261.058 267.61Z" fill="#EBB376"/>
<path opacity="0.2" d="M265.58 271.362L272.16 276.808C271.881 277.854 271.694 278.922 271.6 280C269.136 279.678 265.734 277.046 265.454 274.47C265.314 273.435 265.357 272.383 265.58 271.362Z" fill="black"/>
<path d="M270.872 249.41C273.56 251.09 277.2 256.144 272.678 257.362C268.156 258.58 266.238 246.526 270.872 249.41Z" fill="#263238"/>
<path d="M256.984 266.686C261.688 272.874 264.124 276.752 269.584 277.886C277.802 279.566 283.766 271.194 281.008 263.69C278.516 256.942 271.208 247.94 263.242 249.69C261.478 250.075 259.839 250.898 258.478 252.083C257.116 253.268 256.075 254.778 255.451 256.472C254.828 258.166 254.641 259.99 254.909 261.776C255.177 263.561 255.89 265.25 256.984 266.686Z" fill="#FFB573"/>
<path d="M258.37 259.924L252.77 253.344C252.77 253.344 245.308 258.832 248.696 262.15C246.47 267.4 255.332 274.75 263.088 273.238C263.998 268.492 257.082 260.4 257.082 260.4C257.519 260.263 257.949 260.104 258.37 259.924Z" fill="#263238"/>
<path d="M258.076 273.728C258.832 274.331 259.7 274.778 260.63 275.042C261.56 275.307 262.534 275.384 263.494 275.268C266.056 274.946 266.294 272.384 264.824 270.466C263.354 268.548 260.428 266.84 258.244 268.128C257.775 268.423 257.386 268.828 257.111 269.309C256.836 269.789 256.684 270.33 256.667 270.884C256.65 271.437 256.77 271.986 257.016 272.482C257.262 272.978 257.626 273.406 258.076 273.728Z" fill="#FFB573"/>
<path d="M267.946 261.8C268.296 262.318 268.87 262.556 269.206 262.332C269.542 262.108 269.542 261.478 269.206 260.932C268.87 260.386 268.296 260.176 267.946 260.4C267.596 260.624 267.596 261.324 267.946 261.8Z" fill="#263238"/>
<path d="M273.868 257.824C274.232 258.356 274.792 258.594 275.128 258.356C275.464 258.118 275.464 257.502 275.128 256.956C274.792 256.41 274.218 256.186 273.868 256.424C273.518 256.662 273.518 257.292 273.868 257.824Z" fill="#263238"/>
<path d="M272.16 259.364C273.845 260.485 275.678 261.366 277.606 261.982C277.242 263.382 275.394 264.096 275.394 264.096L272.16 259.364Z" fill="#ED893E"/>
<path d="M270.522 267.666C270.276 267.795 270.042 267.945 269.822 268.114C269.789 268.148 269.771 268.193 269.771 268.24C269.771 268.287 269.789 268.332 269.822 268.366C269.837 268.384 269.857 268.398 269.879 268.408C269.9 268.418 269.924 268.423 269.948 268.423C269.972 268.423 269.995 268.418 270.017 268.408C270.039 268.398 270.058 268.384 270.074 268.366C270.697 267.886 271.427 267.562 272.201 267.421C272.976 267.279 273.773 267.325 274.526 267.554C274.549 267.563 274.573 267.567 274.598 267.566C274.622 267.565 274.646 267.56 274.669 267.549C274.691 267.539 274.711 267.524 274.727 267.505C274.743 267.487 274.756 267.465 274.764 267.442C274.782 267.398 274.782 267.348 274.764 267.303C274.746 267.258 274.71 267.223 274.666 267.204C273.98 266.993 273.259 266.925 272.546 267.005C271.833 267.084 271.144 267.309 270.522 267.666Z" fill="#263238"/>
<path d="M263.9 260.12C263.966 260.124 264.031 260.11 264.09 260.081C264.149 260.051 264.199 260.007 264.236 259.952C264.482 259.558 264.817 259.227 265.213 258.984C265.609 258.742 266.055 258.594 266.518 258.552C266.567 258.554 266.617 258.546 266.663 258.527C266.709 258.509 266.751 258.481 266.785 258.445C266.82 258.409 266.846 258.367 266.863 258.32C266.879 258.273 266.886 258.224 266.882 258.174C266.882 258.078 266.844 257.985 266.775 257.917C266.707 257.848 266.614 257.81 266.518 257.81C265.926 257.854 265.354 258.038 264.847 258.347C264.341 258.657 263.915 259.082 263.606 259.588C263.553 259.672 263.535 259.773 263.556 259.87C263.577 259.967 263.635 260.052 263.718 260.106C263.776 260.129 263.839 260.134 263.9 260.12Z" fill="#263238"/>
<path d="M273.938 253.05C273.959 252.977 273.959 252.899 273.938 252.826C273.909 252.732 273.844 252.654 273.758 252.607C273.672 252.56 273.571 252.548 273.476 252.574C272.907 252.718 272.381 252.996 271.942 253.386C271.504 253.776 271.165 254.266 270.956 254.814C270.928 254.909 270.938 255.011 270.982 255.099C271.026 255.187 271.102 255.255 271.194 255.29C271.24 255.306 271.288 255.311 271.337 255.308C271.385 255.304 271.432 255.29 271.475 255.268C271.518 255.246 271.556 255.216 271.587 255.179C271.618 255.141 271.642 255.099 271.656 255.052C271.824 254.617 272.096 254.229 272.447 253.922C272.798 253.615 273.218 253.397 273.672 253.288C273.733 253.275 273.79 253.246 273.836 253.204C273.883 253.162 273.918 253.109 273.938 253.05Z" fill="#263238"/>
<path d="M257.04 260.4C257.04 260.4 271.824 254.184 272.734 247.1C273.644 240.016 267.386 242.9 267.386 242.9C267.386 242.9 270.284 242.704 270.004 244.804C270.004 244.804 265.006 241.402 260.204 244.328C260.855 244.329 261.497 244.474 262.085 244.752C262.673 245.03 263.193 245.436 263.606 245.938C260.128 246.816 256.865 248.393 254.016 250.572C248.99 254.352 239.876 267.806 257.04 260.4Z" fill="#263238"/>
<path opacity="0.3" d="M288.204 362.6L264.11 359.8C272.271 358.722 280.514 358.385 288.736 358.792L288.204 362.6Z" fill="black"/>
<path opacity="0.1" d="M246.848 315.672C246.764 314.692 246.694 313.712 246.61 312.732C246.61 311.962 246.484 311.178 246.414 310.408C246.204 308.448 245.98 306.488 245.7 304.556C245.63 304.024 245.546 303.492 245.462 302.974C246.126 302.449 246.833 301.98 247.576 301.574C248.344 306.272 248.096 311.079 246.848 315.672Z" fill="black"/>
<path d="M206.71 350L202.51 359.8L211.568 362.04C211.568 362.04 215.46 355.586 211.666 350.658L206.71 350Z" fill="#EBB376"/>
<path d="M203.168 367.458L210.322 367.514L211.582 362.124L202.524 359.884L203.168 367.458Z" fill="#EBB376"/>
<path d="M247.464 297.948C248.094 304.108 245.98 306.614 245.98 306.614C245.98 306.614 240.016 310.366 237.426 312.284C235.228 313.95 233.072 315.63 231.028 317.31C230.02 318.164 229.04 319.018 228.144 319.872C227.346 320.621 226.598 321.42 225.904 322.266C225.647 322.622 225.409 322.991 225.19 323.372C224.938 323.778 224.672 324.394 224.392 324.898C223.846 326.018 223.3 327.222 222.782 328.468C221.746 330.974 220.766 333.578 219.842 336.224C217.896 341.488 216.09 346.92 214.242 352.254L205.968 350.28C206.808 344.484 207.942 338.814 209.258 333.088C209.944 330.288 210.658 327.376 211.596 324.464C212.03 323.064 212.52 321.538 213.08 320.026C213.416 319.228 213.696 318.514 214.116 317.66C214.524 316.762 214.992 315.892 215.516 315.056C216.514 313.571 217.628 312.166 218.848 310.856C219.954 309.652 221.06 308.546 222.18 307.468C224.406 305.34 226.688 303.394 229.012 301.518C233.646 297.752 238.294 294.308 243.278 290.976C243.32 291.018 246.904 292.376 247.464 297.948Z" fill="#407BFF"/>
<path opacity="0.7" d="M247.464 297.948C248.094 304.108 245.98 306.614 245.98 306.614C245.98 306.614 240.016 310.366 237.426 312.284C235.228 313.95 233.072 315.63 231.028 317.31C230.02 318.164 229.04 319.018 228.144 319.872C227.346 320.621 226.598 321.42 225.904 322.266C225.647 322.622 225.409 322.991 225.19 323.372C224.938 323.778 224.672 324.394 224.392 324.898C223.846 326.018 223.3 327.222 222.782 328.468C221.746 330.974 220.766 333.578 219.842 336.224C217.896 341.488 216.09 346.92 214.242 352.254L205.968 350.28C206.808 344.484 207.942 338.814 209.258 333.088C209.944 330.288 210.658 327.376 211.596 324.464C212.03 323.064 212.52 321.538 213.08 320.026C213.416 319.228 213.696 318.514 214.116 317.66C214.524 316.762 214.992 315.892 215.516 315.056C216.514 313.571 217.628 312.166 218.848 310.856C219.954 309.652 221.06 308.546 222.18 307.468C224.406 305.34 226.688 303.394 229.012 301.518C233.646 297.752 238.294 294.308 243.278 290.976C243.32 291.018 246.904 292.376 247.464 297.948Z" fill="white"/>
<path d="M266.266 289.688L269.374 294.574C269.374 294.574 258.524 307.734 237.748 312.074L236.348 316.274L240.772 317.436C240.772 317.436 263.172 311.626 272.16 294.798L276.78 289.646L271.334 287.812L266.266 289.688Z" fill="#407BFF"/>
<path d="M256.2 286.748L261.268 282.324L271.334 287.84L272.51 281.806L277.83 284.858L279.356 292.684L271.922 289.464L265.286 295.4L256.2 286.748Z" fill="#407BFF"/>
<path opacity="0.6" d="M256.2 286.748L261.268 282.324L271.334 287.84L272.51 281.806L277.83 284.858L279.356 292.684L271.922 289.464L265.286 295.4L256.2 286.748Z" fill="white"/>
<path d="M395.066 199.178C395.066 199.178 385.644 210.854 376.096 209.888C366.548 208.922 361.662 212.8 361.662 212.8L360.724 217.462L365.848 216.762C365.848 216.762 365.848 213.066 375.816 213.486C385.784 213.906 393.26 205.338 396.172 201.446L395.066 199.178Z" fill="#407BFF"/>
<path d="M462.686 179.774L462.49 178.85C462.406 178.399 462.274 177.958 462.098 177.534C461.599 176.269 460.819 175.135 459.816 174.216C458.573 173.095 457.116 172.238 455.532 171.696C453.532 170.987 451.455 170.518 449.344 170.296C447.482 170.086 445.704 169.988 443.954 169.946C440.468 169.848 437.108 169.946 433.79 170.226C427.182 170.665 420.602 171.455 414.078 172.592L416.486 186.382C422.52 185.43 428.82 184.548 434.91 183.918C437.962 183.596 441 183.414 443.926 183.316C445.326 183.316 446.824 183.316 448.126 183.316C448.975 183.362 449.821 183.455 450.66 183.596C450.689 184.109 450.689 184.623 450.66 185.136C450.479 187.832 449.976 190.497 449.162 193.074C447.389 198.896 445.127 204.559 442.4 210L449.05 214.424C453.301 209.102 456.871 203.271 459.676 197.064C461.211 193.673 462.276 190.089 462.84 186.41C463.141 184.204 463.089 181.964 462.686 179.774Z" fill="#407BFF"/>
<path opacity="0.7" d="M462.756 186.396C462.309 189.467 461.486 192.472 460.306 195.342C460.082 195.916 459.844 196.49 459.606 197.05C456.796 203.252 453.221 209.08 448.966 214.396L442.4 210C445.154 204.599 447.458 198.98 449.288 193.2C449.843 191.365 450.269 189.494 450.562 187.6C450.682 186.84 450.757 186.073 450.786 185.304C450.815 184.791 450.815 184.277 450.786 183.764C449.947 183.623 449.101 183.529 448.252 183.484C446.852 183.4 445.452 183.4 444.052 183.484H443.73C440.93 183.582 437.976 183.778 435.022 184.072C429.114 184.688 423.038 185.472 417.172 186.466L416.612 186.55L414.204 172.746C420.725 171.616 427.299 170.826 433.902 170.38C437.234 170.17 440.594 170.002 444.08 170.1C445.83 170.1 447.594 170.24 449.47 170.45C451.58 170.678 453.656 171.148 455.658 171.85C457.239 172.397 458.696 173.254 459.942 174.37C460.945 175.288 461.725 176.423 462.224 177.688C462.393 178.114 462.524 178.555 462.616 179.004L462.812 179.928C463.126 182.074 463.107 184.256 462.756 186.396Z" fill="white"/>
<path opacity="0.1" d="M443.604 183.4C440.804 183.498 437.85 183.694 434.896 183.988C428.988 184.604 422.912 185.388 417.046 186.382C419.188 181.118 421.386 175.798 421.386 175.798C429.191 176.967 436.719 179.542 443.604 183.4Z" fill="black"/>
<path opacity="0.1" d="M460.306 195.342C460.082 195.916 459.844 196.49 459.606 197.05C456.796 203.253 453.222 209.08 448.966 214.396L442.4 210C445.154 204.599 447.458 198.98 449.288 193.2C449.844 191.366 450.269 189.494 450.562 187.6C454.009 189.92 457.267 192.509 460.306 195.342Z" fill="black"/>
<path d="M370.832 182.546C371.224 183.022 371.266 183.624 370.958 183.946C370.65 184.268 370.076 183.946 369.684 183.526C369.292 183.106 369.25 182.434 369.572 182.196C369.894 181.958 370.454 182 370.832 182.546Z" fill="#263238"/>
<path d="M371.322 183.582C371.914 185.521 372.234 187.533 372.274 189.56C372.792 189.531 373.298 189.391 373.757 189.15C374.216 188.908 374.617 188.571 374.934 188.16L371.322 183.582Z" fill="#DE5753"/>
<path d="M370.482 178.458C370.513 178.424 370.537 178.384 370.551 178.341C370.566 178.297 370.571 178.251 370.566 178.206C370.564 178.158 370.553 178.111 370.533 178.067C370.513 178.024 370.485 177.985 370.45 177.952C370.415 177.92 370.374 177.895 370.329 177.878C370.284 177.861 370.236 177.854 370.188 177.856C369.614 177.869 369.051 178.019 368.547 178.295C368.043 178.57 367.612 178.962 367.29 179.438C367.243 179.522 367.23 179.621 367.253 179.715C367.276 179.809 367.335 179.89 367.416 179.942C367.498 179.988 367.595 180.001 367.687 179.978C367.778 179.954 367.857 179.896 367.906 179.816C368.167 179.44 368.515 179.132 368.919 178.918C369.323 178.704 369.773 178.589 370.23 178.584C370.279 178.582 370.327 178.57 370.37 178.548C370.414 178.527 370.452 178.496 370.482 178.458Z" fill="#263238"/>
<path d="M384.776 175C389.41 178.332 398.258 183.61 403.284 181.608C403.284 181.608 407.806 185.374 403.466 194.81C398.692 205.198 396.032 197.414 396.032 197.414C397.278 191.114 393.008 189.336 388.598 188.51L384.776 175Z" fill="#E4897B"/>
<path d="M386.176 168.77C390.502 175 393.358 178.43 392.756 183.848C391.874 192.01 382.382 195.048 376.278 190.274C370.776 185.934 364.616 176.47 368.564 169.512C369.428 167.971 370.672 166.677 372.177 165.753C373.682 164.829 375.399 164.304 377.163 164.23C378.928 164.156 380.682 164.534 382.26 165.328C383.837 166.123 385.185 167.307 386.176 168.77Z" fill="#E4897B"/>
<path d="M393.134 179.046C392.476 182.588 380.534 187.446 375.2 179.802C375.2 179.802 368.424 179.802 364.35 175.602C360.276 171.402 361.158 167.104 364.798 164.696C368.018 162.568 376.334 146.93 386.022 158.088C396.536 157.724 393.932 174.65 393.134 179.046Z" fill="#263238"/>
<path d="M373.044 163.072C373.044 163.072 366.8 162.764 363.244 165.62C359.688 168.476 360.654 177.268 362.04 178.92C362.367 179.375 362.784 179.758 363.266 180.045C363.748 180.331 364.284 180.516 364.84 180.586C364.84 180.586 362.726 179.48 362.726 177.786C362.726 177.786 363.65 179.956 367.892 180.586C367.56 180.326 367.295 179.991 367.118 179.609C366.94 179.227 366.855 178.809 366.87 178.388C366.87 178.388 369.166 181.37 374.486 178.388C379.806 175.406 373.044 163.072 373.044 163.072Z" fill="#263238"/>
<path d="M378.35 178.486C379.418 180.043 379.944 181.907 379.848 183.792C379.694 186.27 377.622 186.466 375.984 184.898C374.346 183.33 372.834 180.516 373.8 178.444C374.766 176.372 377.034 176.638 378.35 178.486Z" fill="#E4897B"/>
<path d="M390.782 199.178C390.782 199.178 389.62 185.08 398.818 177.17L409.78 178.178C409.78 178.178 403.466 193.592 390.782 199.178Z" fill="#407BFF"/>
<path opacity="0.6" d="M390.782 199.178C390.782 199.178 389.62 185.08 398.818 177.17L409.78 178.178C409.78 178.178 403.466 193.592 390.782 199.178Z" fill="white"/>
<path d="M422.38 230.888C422.38 230.888 405.804 214.606 387.492 203.224C387.492 203.224 399.686 174.566 415.142 172.004C415.142 172.004 455.084 184.072 466.676 216.804L422.38 230.888Z" fill="#407BFF"/>
<path d="M424.48 330.148L417.34 333.186L409.598 316.932L416.752 313.894L424.48 330.148Z" fill="#E4897B"/>
<path d="M466.676 216.762L462.476 261.562C459.276 263.575 455.722 264.963 452.004 265.65C443.268 267.68 431.62 268.604 421.554 269.15C410.256 269.766 400.974 269.878 400.134 270.55C398.174 272.09 423.052 323.47 423.052 323.47L411.18 324.954C411.18 324.954 379.974 282.142 375.928 267.274C374.444 261.786 372.946 254.912 383.026 248.486C391.902 242.886 424.942 238.588 424.942 238.588L422.394 230.958L466.676 216.762Z" fill="#263238"/>
<path opacity="0.2" d="M451.99 265.608C443.254 267.638 431.606 268.562 421.54 269.108C420.14 252.588 428.54 236.74 428.54 236.74L440.356 233.716L451.99 265.608Z" fill="black"/>
<path d="M528.626 323.568L529.9 331.226L512.274 334.922L511 327.25L528.626 323.568Z" fill="#E4897B"/>
<path d="M530.264 331.506C530.235 331.486 530.201 331.475 530.166 331.475C530.131 331.475 530.097 331.486 530.068 331.506C530.035 331.52 530.007 331.543 529.987 331.573C529.967 331.603 529.956 331.638 529.956 331.674C529.956 331.814 530.068 334.936 531.034 335.874C531.212 336.053 531.454 336.154 531.706 336.154C531.85 336.167 531.995 336.135 532.121 336.063C532.246 335.99 532.346 335.88 532.406 335.748C532.616 335.23 532.224 334.348 531.706 333.494C531.287 332.789 530.804 332.123 530.264 331.506ZM530.348 332.164C531.286 333.284 532.308 334.964 532.07 335.524C532.07 335.608 531.958 335.706 531.706 335.72C531.548 335.717 531.397 335.652 531.286 335.538C531.202 335.456 531.131 335.362 531.076 335.258C530.639 334.283 530.392 333.232 530.348 332.164Z" fill="#407BFF"/>
<path d="M530.208 331.464C530.18 331.448 530.149 331.439 530.117 331.439C530.085 331.439 530.054 331.448 530.026 331.464C530.026 331.464 528.276 332.794 528.108 334.054C528.056 334.421 528.152 334.793 528.374 335.09C528.682 335.496 528.976 335.482 529.172 335.398C529.998 335.062 530.446 332.598 530.32 331.576C530.32 331.576 530.32 331.576 530.32 331.506C530.306 331.491 530.288 331.48 530.269 331.472C530.249 331.465 530.229 331.462 530.208 331.464ZM528.472 334.138C528.734 333.288 529.258 332.543 529.97 332.01C529.97 333.116 529.522 334.81 529.032 335.09C529.032 335.09 528.864 335.16 528.668 334.894C528.661 334.862 528.661 334.828 528.668 334.796C528.526 334.607 528.456 334.374 528.472 334.138Z" fill="#407BFF"/>
<path d="M528.934 331.408L524.482 324.184C524.405 324.049 524.375 323.892 524.395 323.738C524.415 323.584 524.485 323.441 524.594 323.33L529.662 318.402C529.785 318.283 529.934 318.193 530.096 318.14C530.259 318.087 530.432 318.071 530.602 318.094C530.771 318.117 530.934 318.178 531.077 318.272C531.219 318.367 531.339 318.493 531.426 318.64C532.994 321.272 535.164 325.122 537.18 328.44C539.532 332.276 541.786 335.44 544.544 339.948C546.224 342.664 543.942 345.1 542.99 344.148C538.664 339.668 535.99 335.524 530.39 332.752C529.791 332.445 529.288 331.98 528.934 331.408Z" fill="#263238"/>
<path d="M466.676 216.762C466.676 216.762 480.914 253.344 456.876 267.54C456.876 267.54 456.568 309.82 462.644 314.776C470.022 320.796 524.104 323.862 524.104 323.862L523.642 337.302C523.642 337.302 465.738 342.034 448.21 335.748C427.672 328.384 423.108 231.518 423.108 231.518L466.676 216.762Z" fill="#263238"/>
<path opacity="0.2" d="M450.226 239.218L458.864 236.614C459.48 240.391 459.873 244.201 460.04 248.024L456.036 251.468L452.242 250.264C451.781 246.546 451.108 242.858 450.226 239.218Z" fill="black"/>
<path d="M425.236 230.916L426.356 234.472L423.15 235.466L422.03 231.938L425.236 230.916Z" fill="#263238"/>
<path d="M439.978 226.184L441.182 229.866L427.952 233.968L426.776 230.412L439.978 226.184Z" fill="#263238"/>
<path d="M456.456 220.906L457.66 224.756L442.862 229.348L441.686 225.638L456.456 220.906Z" fill="#263238"/>
<path d="M468.496 221.396L459.382 224.224H459.368L458.15 220.36L467.194 217.462L468.496 221.396Z" fill="#263238"/>
<g opacity="0.2">
<path d="M425.236 230.916L426.356 234.472L423.15 235.466L422.03 231.938L425.236 230.916Z" fill="white"/>
<path d="M439.978 226.184L441.182 229.866L427.952 233.968L426.776 230.412L439.978 226.184Z" fill="white"/>
<path d="M456.456 220.906L457.66 224.756L442.862 229.348L441.686 225.638L456.456 220.906Z" fill="white"/>
<path d="M468.496 221.396L459.382 224.224H459.368L458.15 220.36L467.194 217.462L468.496 221.396Z" fill="white"/>
</g>
<path d="M415.142 330.918C415.178 330.908 415.21 330.888 415.234 330.861C415.259 330.834 415.276 330.8 415.282 330.764C415.29 330.725 415.284 330.685 415.266 330.65C415.249 330.614 415.22 330.586 415.184 330.568C415.072 330.568 412.314 329.028 410.984 329.406C410.741 329.473 410.535 329.634 410.41 329.854C410.328 329.973 410.284 330.115 410.284 330.26C410.284 330.405 410.328 330.547 410.41 330.666C410.746 331.1 411.712 331.212 412.706 331.184C413.525 331.173 414.341 331.083 415.142 330.918ZM414.54 330.652C413.14 330.89 411.138 330.932 410.76 330.442C410.76 330.372 410.662 330.26 410.76 330.036C410.794 329.967 410.843 329.908 410.904 329.861C410.965 329.815 411.035 329.784 411.11 329.77C411.226 329.749 411.345 329.749 411.46 329.77C412.535 329.86 413.581 330.16 414.54 330.652Z" fill="#407BFF"/>
<path d="M415.212 330.89C415.24 330.869 415.261 330.841 415.274 330.809C415.286 330.777 415.289 330.742 415.282 330.708C415.177 329.614 414.731 328.581 414.008 327.754C413.863 327.639 413.697 327.554 413.52 327.503C413.342 327.453 413.156 327.438 412.972 327.46C412.468 327.46 412.328 327.782 412.3 327.992C412.188 328.874 414.078 330.512 415.03 330.904H415.1L415.212 330.89ZM413.812 328.09C414.408 328.753 414.785 329.585 414.89 330.47C413.924 329.91 412.622 328.622 412.692 328.09C412.692 328.09 412.692 327.922 413.056 327.88H413.168C413.384 327.867 413.599 327.921 413.784 328.034L413.812 328.09Z" fill="#407BFF"/>
<path d="M415.898 329.812L424.382 329.616C424.537 329.609 424.69 329.657 424.813 329.752C424.936 329.847 425.021 329.982 425.054 330.134L426.762 336.994C426.799 337.16 426.799 337.331 426.762 337.497C426.725 337.663 426.652 337.818 426.547 337.952C426.443 338.086 426.31 338.195 426.158 338.272C426.006 338.348 425.84 338.39 425.67 338.394C422.604 338.394 418.18 338.394 414.344 338.394C409.836 338.492 405.944 338.828 400.694 338.954C397.502 339.038 396.494 335.832 397.894 335.51C403.942 334.026 408.898 333.774 414.078 330.414C414.621 330.056 415.249 329.848 415.898 329.812Z" fill="#263238"/>
<path opacity="0.7" d="M466.676 216.776L422.38 230.888C422.38 230.888 414.568 223.23 403.746 214.732C401.688 213.122 399.546 211.484 397.292 209.86C394.142 207.564 390.838 205.31 387.492 203.224C387.492 203.224 399.7 174.566 415.156 172.018C415.142 172.018 455.084 184.072 466.676 216.776Z" fill="white"/>
<path opacity="0.1" d="M403.746 214.732C401.688 213.122 399.546 211.484 397.292 209.86L398.16 207.242C400.517 209.328 402.418 211.878 403.746 214.732Z" fill="black"/>
<path d="M339.752 243.964L336.7 244.692C336.327 244.778 335.989 244.973 335.727 245.252C335.465 245.532 335.292 245.882 335.23 246.26L334.544 250.46C334.471 250.895 334.549 251.342 334.766 251.727C334.982 252.111 335.324 252.41 335.734 252.574L337.974 253.456C337.974 253.456 344.414 258.104 349.86 255.108L347.508 248.878L342.902 244.678C342.474 244.313 341.963 244.058 341.415 243.934C340.866 243.81 340.296 243.82 339.752 243.964Z" fill="#E4897B"/>
<path d="M395.346 204.4C396.528 205.221 397.516 206.291 398.241 207.534C398.967 208.777 399.412 210.163 399.546 211.596C399.546 211.596 396.466 219.996 394.688 224.098C393.47 226.898 392.21 229.698 390.74 232.498C389.223 235.57 387.404 238.482 385.308 241.192L384.818 241.766L384.258 242.382C383.815 242.836 383.347 243.266 382.858 243.67C382.559 243.921 382.246 244.155 381.92 244.37C381.612 244.58 381.164 244.874 381.038 244.93L379.848 245.546C378.308 246.316 376.866 246.946 375.424 247.52C372.54 248.696 369.698 249.732 366.842 250.712C361.102 252.63 355.404 254.38 349.552 255.85L346.752 248.36C352.002 245.672 357.35 243.124 362.572 240.506C365.19 239.204 367.794 237.902 370.286 236.586C371.518 235.928 372.75 235.186 373.814 234.598L374.57 234.122C374.668 234.038 374.668 234.024 374.794 233.842L374.962 233.632L375.158 233.338C376.512 231.225 377.692 229.006 378.686 226.702C379.792 224.182 380.912 221.564 381.934 218.89C383.964 213.57 385.91 208.026 387.73 202.65C390.397 202.286 393.105 202.908 395.346 204.4Z" fill="#407BFF"/>
<path opacity="0.7" d="M395.346 204.4C396.528 205.221 397.516 206.291 398.241 207.534C398.967 208.777 399.412 210.163 399.546 211.596C399.546 211.596 396.466 219.996 394.688 224.098C393.47 226.898 392.21 229.698 390.74 232.498C389.223 235.57 387.404 238.482 385.308 241.192L384.818 241.766L384.258 242.382C383.815 242.836 383.347 243.266 382.858 243.67C382.559 243.921 382.246 244.155 381.92 244.37C381.612 244.58 381.164 244.874 381.038 244.93L379.848 245.546C378.308 246.316 376.866 246.946 375.424 247.52C372.54 248.696 369.698 249.732 366.842 250.712C361.102 252.63 355.404 254.38 349.552 255.85L346.752 248.36C352.002 245.672 357.35 243.124 362.572 240.506C365.19 239.204 367.794 237.902 370.286 236.586C371.518 235.928 372.75 235.186 373.814 234.598L374.57 234.122C374.668 234.038 374.668 234.024 374.794 233.842L374.962 233.632L375.158 233.338C376.512 231.225 377.692 229.006 378.686 226.702C379.792 224.182 380.912 221.564 381.934 218.89C383.964 213.57 385.91 208.026 387.73 202.65C390.397 202.286 393.105 202.908 395.346 204.4Z" fill="white"/>
<path d="M139.314 575.848H375.746L500.878 474.768L506.366 481.558H537.18L568.582 337.036L537.74 337.092L537.754 337.036L389.858 337.33L407.512 359.184L139.314 575.848Z" fill="#407BFF"/>
<path opacity="0.2" d="M139.314 575.848H344.932L488.698 459.704L506.366 481.558L537.754 337.036L389.858 337.33L407.512 359.184L139.314 575.848Z" fill="white"/>
<path d="M134.498 567.504H304.262C304.178 566.779 304.136 566.05 304.136 565.32C304.134 562.729 304.643 560.162 305.634 557.767C306.624 555.372 308.077 553.196 309.909 551.363C311.741 549.53 313.916 548.075 316.31 547.083C318.704 546.091 321.27 545.58 323.862 545.58H324.59C326.023 541.748 328.757 538.541 332.314 536.519C335.871 534.496 340.025 533.788 344.051 534.516C348.077 535.245 351.719 537.364 354.342 540.505C356.964 543.645 358.401 547.607 358.4 551.698C362.526 551.894 366.432 553.615 369.36 556.528C372.289 559.441 374.031 563.338 374.248 567.462H375.046C376.227 567.415 377.406 567.607 378.511 568.026C379.617 568.446 380.626 569.084 381.478 569.904C382.331 570.723 383.009 571.706 383.472 572.793C383.936 573.881 384.175 575.051 384.175 576.233C384.175 577.416 383.936 578.586 383.472 579.673C383.009 580.761 382.331 581.744 381.478 582.563C380.626 583.382 379.617 584.021 378.511 584.44C377.406 584.86 376.227 585.051 375.046 585.004H134.498C133.317 585.051 132.138 584.86 131.033 584.44C129.928 584.021 128.918 583.382 128.066 582.563C127.213 581.744 126.535 580.761 126.072 579.673C125.608 578.586 125.37 577.416 125.37 576.233C125.37 575.051 125.608 573.881 126.072 572.793C126.535 571.706 127.213 570.723 128.066 569.904C128.918 569.084 129.928 568.446 131.033 568.026C132.138 567.607 133.317 567.415 134.498 567.462V567.504Z" fill="#407BFF"/>
<path opacity="0.7" d="M134.498 567.504H304.262C304.178 566.779 304.136 566.05 304.136 565.32C304.134 562.729 304.643 560.162 305.634 557.767C306.624 555.372 308.077 553.196 309.909 551.363C311.741 549.53 313.916 548.075 316.31 547.083C318.704 546.091 321.27 545.58 323.862 545.58H324.59C326.023 541.748 328.757 538.541 332.314 536.519C335.871 534.496 340.025 533.788 344.051 534.516C348.077 535.245 351.719 537.364 354.342 540.505C356.964 543.645 358.401 547.607 358.4 551.698C362.526 551.894 366.432 553.615 369.36 556.528C372.289 559.441 374.031 563.338 374.248 567.462H375.046C376.227 567.415 377.406 567.607 378.511 568.026C379.617 568.446 380.626 569.084 381.478 569.904C382.331 570.723 383.009 571.706 383.472 572.793C383.936 573.881 384.175 575.051 384.175 576.233C384.175 577.416 383.936 578.586 383.472 579.673C383.009 580.761 382.331 581.744 381.478 582.563C380.626 583.382 379.617 584.021 378.511 584.44C377.406 584.86 376.227 585.051 375.046 585.004H134.498C133.317 585.051 132.138 584.86 131.033 584.44C129.928 584.021 128.918 583.382 128.066 582.563C127.213 581.744 126.535 580.761 126.072 579.673C125.608 578.586 125.37 577.416 125.37 576.233C125.37 575.051 125.608 573.881 126.072 572.793C126.535 571.706 127.213 570.723 128.066 569.904C128.918 569.084 129.928 568.446 131.033 568.026C132.138 567.607 133.317 567.415 134.498 567.462V567.504Z" fill="white"/>
</svg>
