<svg width="60" height="60" viewBox="0 0 60 60" fill="none" xmlns="http://www.w3.org/2000/svg">
<path d="M55 30C55 43.805 43.805 55 30 55C16.195 55 5 43.805 5 30C5 16.195 16.195 5 30 5C43.805 5 55 16.195 55 30Z" fill="#4CAF50"/>
<path d="M30 5V30L40 35L28.9463 55C29.3425 55 29.6038 55 30 55C43.8163 55 55 43.8162 55 30C55 16.1837 43.8163 5 30 5Z" fill="#FFC107"/>
<path d="M55 30C55 43.805 43.805 55 30 55C16.195 55 5 43.805 5 30C5 16.195 16.195 5 30 5C43.805 5 55 16.195 55 30Z" fill="#4CAF50"/>
<path d="M30 5V30L40 35L28.9463 55C29.3425 55 29.6038 55 30 55C43.8163 55 55 43.8162 55 30C55 16.1837 43.8163 5 30 5Z" fill="#FFC107"/>
<path d="M52.2998 18.75H29.9998V35L26.2498 33.75L8.9498 16.575H8.9248C13.3498 9.6125 21.1373 5 29.9998 5C39.7498 5 48.1873 10.6 52.2998 18.75Z" fill="#F44336"/>
<path d="M8.94727 16.5801L20.001 35.1576L26.2498 33.7501L8.94727 16.5801Z" fill="#DD2C00"/>
<path d="M28.9463 55L40.1138 34.9262L35 31.25L28.9463 55Z" fill="#558B2F"/>
<path d="M52.3314 18.75H30.0001L28.0264 24.475L52.3314 18.75Z" fill="#F9A825"/>
<path d="M41.25 30C41.25 36.2113 36.2113 41.25 30 41.25C23.7888 41.25 18.75 36.2113 18.75 30C18.75 23.7888 23.7888 18.75 30 18.75C36.2113 18.75 41.25 23.7888 41.25 30Z" fill="white"/>
<path d="M38.75 30C38.75 34.8337 34.8337 38.75 30 38.75C25.1662 38.75 21.25 34.8337 21.25 30C21.25 25.1662 25.1662 21.25 30 21.25C34.8337 21.25 38.75 25.1662 38.75 30Z" fill="#2196F3"/>
</svg>
