<svg width="383" height="78" viewBox="0 0 383 78" fill="none" xmlns="http://www.w3.org/2000/svg">
<g clip-path="url(#clip0_130_102)">
<path d="M15.785 53.5722C15.0958 51.5529 14.7534 49.0035 14.7534 45.5758C14.7534 42.1467 15.0958 39.5915 15.785 37.5772C17.71 31.7972 22.8114 28.639 29.4901 28.639C34.4501 28.639 38.3778 30.589 40.998 33.6801C41.1998 33.9473 41.2686 34.3503 40.9285 34.619L36.5904 38.316C36.2443 38.5868 35.9011 38.519 35.6238 38.1838C33.9687 36.3696 32.2471 35.36 29.4915 35.36C26.5312 35.36 24.2594 36.7719 23.2928 39.5943C22.7456 41.2114 22.605 43.0906 22.605 45.5765C22.605 48.0631 22.7441 50.011 23.2928 51.6251C24.2579 54.3782 26.5312 55.7902 29.4915 55.7902C32.2471 55.7902 33.9694 54.7812 35.6238 52.9713C35.9011 52.6305 36.2443 52.6305 36.5904 52.8998L40.9285 56.5976C41.2686 56.8648 41.2006 57.2021 40.998 57.5394C38.3793 60.5655 34.4516 62.5126 29.4901 62.5126C22.8114 62.5097 17.71 59.3493 15.785 53.5722ZM166.288 53.5722C165.599 51.5529 165.257 49.0035 165.257 45.5758C165.257 42.1467 165.599 39.5915 166.288 37.5772C168.218 31.7972 173.313 28.639 179.992 28.639C184.954 28.639 188.882 30.589 191.499 33.6801C191.704 33.9473 191.775 34.3503 191.428 34.619L187.088 38.316C186.744 38.5868 186.402 38.519 186.125 38.1838C184.473 36.3696 182.75 35.36 179.992 35.36C177.033 35.36 174.759 36.7719 173.796 39.5943C173.243 41.2114 173.11 43.0906 173.11 45.5765C173.11 48.0631 173.244 50.011 173.796 51.6251C174.759 54.3782 177.033 55.7902 179.992 55.7902C182.751 55.7902 184.473 54.7812 186.125 52.9713C186.402 52.6305 186.745 52.6305 187.088 52.8998L191.428 56.5976C191.775 56.8648 191.704 57.2021 191.499 57.5394C188.882 60.5655 184.954 62.5126 179.992 62.5126C173.313 62.5097 168.218 59.3493 166.288 53.5722ZM340.238 61.7723C339.824 61.7723 339.55 61.5051 339.55 61.0992V42.4175C339.55 38.2503 337.412 35.3585 333.278 35.3585C329.284 35.3585 326.942 38.2481 326.942 42.4175V61.0992C326.942 61.5044 326.665 61.7723 326.255 61.7723H319.915C319.502 61.7723 319.224 61.5051 319.224 61.0992V42.4175C319.224 38.2503 317.09 35.3585 312.962 35.3585C308.965 35.3585 306.621 38.2481 306.621 42.4175V61.0992C306.621 61.5044 306.346 61.7723 305.932 61.7723H299.594C299.179 61.7723 298.907 61.5051 298.907 61.0992V30.0495C298.907 29.645 299.179 29.3756 299.594 29.3756H305.932C306.346 29.3756 306.621 29.645 306.621 30.0495V32.4017H306.69C308.139 30.3853 311.03 28.639 315.437 28.639C319.365 28.639 322.533 30.1816 324.527 32.9383H324.598C327.146 30.2531 330.454 28.639 335.207 28.639C342.919 28.639 347.263 33.7451 347.263 40.6683V61.0978C347.263 61.5044 346.984 61.7723 346.57 61.7723H340.238ZM356.833 73.8688C356.421 73.8688 356.146 73.5987 356.146 73.1936V67.8188C356.146 67.4172 356.421 67.1435 356.833 67.1435H358.074C360.69 67.1435 362.003 66.006 363.034 63.3157L364 60.5604L351.875 30.048C351.736 29.6436 352.013 29.3742 352.428 29.3742H359.246C359.659 29.3742 359.935 29.6443 360.07 30.048L367.581 51.2185H367.717L374.883 30.048C375.02 29.6436 375.297 29.3742 375.706 29.3742H382.248C382.665 29.3742 382.941 29.6443 382.801 30.048L370.129 63.7866C367.238 71.4494 364.478 73.8667 358.97 73.8667L356.832 73.8688H356.833ZM47.335 53.5744C46.5778 51.2857 46.2331 49.1371 46.2331 45.5758C46.2331 42.0196 46.577 39.8681 47.335 37.588C49.195 31.9424 54.2873 28.6476 61.0363 28.6476C67.7143 28.6476 72.8096 31.941 74.6696 37.588C75.4231 39.8681 75.77 42.0196 75.77 45.5758C75.77 49.1363 75.4231 51.2857 74.6696 53.5751C72.8081 59.2164 67.7143 62.509 61.0363 62.509C54.2873 62.5097 49.195 59.2171 47.335 53.5744ZM67.2328 51.5594C67.7853 49.8817 67.9221 48.3332 67.9221 45.5765C67.9221 42.8277 67.7853 41.3472 67.2328 39.6023C66.27 36.9163 64.1342 35.3672 61.0363 35.3672C57.9399 35.3672 55.7331 36.9163 54.7718 39.6023C54.2231 41.3486 54.084 42.8277 54.084 45.5765C54.084 48.3332 54.2231 49.881 54.7718 51.5594C55.7331 54.2497 57.9414 55.7902 61.0363 55.7902C64.1342 55.7887 66.27 54.249 67.2328 51.5594ZM209.956 28.639C204.514 28.639 200.865 29.9144 198.176 31.7972C197.904 32.0016 197.833 32.3331 198.042 32.669L200.584 37.107C200.798 37.4436 201.205 37.5115 201.553 37.2421C203.138 36.0345 205.408 35.0227 209.13 35.0227C214.557 35.0227 216.399 36.6137 216.494 40.11L216.494 40.1533C216.497 40.2342 216.497 40.3173 216.497 40.404V50.8892C216.497 54.5855 213.881 56.3968 209.13 56.3968C205.407 56.3968 203.413 55.0557 203.413 52.369C203.413 49.3429 205.618 47.9952 210.576 47.9952L212.083 47.9981C212.496 47.9981 212.774 47.7287 212.774 47.3286V43.0198C212.774 42.6183 212.496 42.3496 212.083 42.3496H211.752L209.337 42.3482C201.141 42.3482 196.039 45.5794 196.039 52.6319C196.039 59.4208 201.141 62.5112 207.2 62.5112C211.88 62.5112 214.98 60.9671 216.565 58.7484H216.633V61.1014C216.633 61.5058 216.911 61.7752 217.323 61.7752H223.108C223.522 61.7752 223.799 61.5073 223.799 61.1014V39.9316C223.799 32.0023 220.081 28.639 209.956 28.639ZM127.663 42.346C127.484 42.346 127.366 42.4616 127.366 42.6349V47.7027C127.366 47.8761 127.484 47.9931 127.663 47.9931H144.72C145.203 47.9931 145.478 47.7258 145.478 47.3257C145.478 42.0788 145.131 39.8601 144.376 37.5772C142.514 32.0666 137.556 28.6397 130.736 28.6397C124.125 28.6397 119.03 31.9316 117.167 37.5772C116.481 39.6608 116.065 42.2153 116.065 45.5758C116.065 48.9363 116.547 51.4207 117.241 53.5058C119.099 59.1492 124.056 62.5097 131.081 62.5097C137.21 62.5097 141.897 60.2246 144.718 56.9992C144.992 56.6648 144.992 56.3289 144.649 56.0574L140.589 52.5633C140.241 52.2953 139.898 52.3647 139.552 52.6976C137.901 54.4468 135.49 55.7902 131.77 55.7902C128.055 55.7902 125.435 54.0438 124.332 50.8863C124.157 50.4295 124.026 49.958 123.941 49.478H123.94C123.689 48.1093 123.541 46.7776 123.541 44.8218C123.595 42.978 123.706 41.8007 123.976 40.3043C123.979 40.2833 123.983 40.2653 123.987 40.2465L123.994 40.2032V40.2046C124.06 39.8522 124.151 39.5207 124.262 39.1899C125.157 36.5697 127.636 35.0241 130.808 35.0241C133.908 35.0241 136.384 36.5697 137.279 39.1899C137.556 40.001 137.692 40.8033 137.692 41.9488C137.692 42.216 137.555 42.3482 137.279 42.3482H128.229L128.231 42.3475L127.663 42.346ZM109.665 16.0737H103.339C102.922 16.0737 102.648 16.3424 102.648 16.7411V47.3604H102.613C102.539 49.2129 102.331 50.4306 101.962 51.5724C101.068 54.254 98.9316 55.7295 95.7709 55.7295C92.676 55.7295 90.5455 54.254 89.6476 51.5724C89.167 50.094 88.9636 48.4849 88.9636 45.5325C88.9636 42.5815 89.167 40.9687 89.6476 39.4961C90.5283 36.8651 92.5908 35.3795 95.5833 35.321H98.2842C98.4158 35.2899 98.501 35.1895 98.501 35.0451L98.5361 28.9098C98.5401 28.8406 98.516 28.7727 98.469 28.7203C98.4219 28.668 98.3557 28.6355 98.2842 28.6296L96.1282 28.6223H93.594C88.0486 28.6794 83.9901 31.2917 82.2902 36.4021C81.4641 38.888 81.1202 41.1738 81.1202 45.5325C81.1202 49.8932 81.4641 52.1762 82.2902 54.657C84.0088 59.8252 88.1361 62.4426 93.7749 62.4426C98.2476 62.4426 100.999 60.8349 102.577 58.617H102.645V61.0328C102.645 61.4372 102.921 61.7052 103.337 61.7052H109.663C110.076 61.7052 110.352 61.438 110.352 61.0335V16.7411C110.355 16.341 110.078 16.0737 109.666 16.0737M275.516 42.346C275.339 42.346 275.218 42.4616 275.218 42.6349V47.7027C275.218 47.8761 275.339 47.9931 275.516 47.9931H292.576C293.058 47.9931 293.334 47.7258 293.334 47.3257C293.334 42.0788 292.988 39.8601 292.233 37.5772C290.37 32.0666 285.412 28.6397 278.595 28.6397C271.981 28.6397 266.886 31.9316 265.024 37.5772C264.337 39.6608 263.921 42.2153 263.921 45.5758C263.921 48.9363 264.404 51.4207 265.097 53.5058C266.954 59.1492 271.913 62.5097 278.938 62.5097C285.066 62.5097 289.754 60.2246 292.576 56.9992C292.85 56.6648 292.85 56.3289 292.505 56.0574L288.445 52.5633C288.099 52.2953 287.755 52.3647 287.41 52.6976C285.759 54.4468 283.349 55.7902 279.627 55.7902C275.912 55.7902 273.292 54.0438 272.189 50.8863C272.014 50.4296 271.884 49.9581 271.8 49.478H271.799C271.547 48.1093 271.4 46.7776 271.4 44.8218C271.45 42.978 271.56 41.8007 271.832 40.3043C271.837 40.2852 271.84 40.2659 271.843 40.2465C271.846 40.2306 271.849 40.2191 271.851 40.2032V40.2046C271.918 39.8611 272.007 39.5221 272.119 39.1899C273.013 36.5697 275.495 35.0241 278.666 35.0241C281.766 35.0241 284.241 36.5697 285.137 39.1899C285.413 40.001 285.552 40.8033 285.552 41.9488C285.552 42.216 285.413 42.3482 285.137 42.3482H276.087V42.3475L275.516 42.346ZM251.508 16.0737C251.094 16.0737 250.818 16.3431 250.818 16.7425V47.4066C250.709 49.2627 250.5 50.4811 250.131 51.6244C249.235 54.3111 247.096 55.7902 243.932 55.7902C240.835 55.7902 238.7 54.3111 237.8 51.6237C237.322 50.1431 237.113 48.5326 237.113 45.5758C237.113 42.6205 237.319 41.0041 237.8 39.5293C238.681 36.8947 240.747 35.4199 243.746 35.3621L246.45 35.3636C246.865 35.3636 247.141 35.0949 247.141 34.6948V29.3099C247.141 28.9083 246.865 28.6397 246.45 28.6397H246.119L242.03 28.639H241.753C236.201 28.696 232.136 31.3126 230.435 36.431C229.607 38.9205 229.264 41.2071 229.264 45.5729C229.264 49.9402 229.607 52.2274 230.435 54.7126C232.155 59.8866 236.29 62.5083 241.937 62.5083C246.415 62.5083 249.171 60.8992 250.753 58.6776L250.821 61.0971C250.821 61.503 251.097 61.7702 251.512 61.7702H257.849C258.263 61.7702 258.54 61.5044 258.54 61.0963V16.7425C258.535 16.3424 258.258 16.0737 257.847 16.0737H251.508H251.508ZM165.771 70.9352V77.0596C165.771 77.4619 166.047 77.7291 166.461 77.7291H189.949C190.368 77.7291 190.646 77.4604 190.646 77.0589V70.9352C190.646 70.538 190.369 70.2693 189.948 70.2693H166.461C166.047 70.2693 165.771 70.538 165.771 70.9352Z" fill="#204156"/>
<path d="M159.807 0.216614C159.797 0.20578 159.79 0.19278 159.781 0.184114L159.778 0.182669C159.712 0.122072 159.634 0.074728 159.549 0.0433672C159.464 0.0120064 159.373 -0.00275065 159.282 -5.31561e-05H0.95933C0.907001 -5.31561e-05 0.857662 0.0050024 0.809818 0.0129468L0.76945 0.023058C0.738052 0.0310024 0.70516 0.0375024 0.676752 0.049058C0.671843 0.0506411 0.667281 0.0530899 0.663296 0.0562802C0.418097 0.152336 0.26709 0.373336 0.26709 0.666558V77.0546C0.26709 77.2878 0.361282 77.4706 0.519765 77.5868C0.531726 77.5984 0.542192 77.6085 0.558638 77.6164V77.6179C0.679106 77.689 0.818204 77.7251 0.95933 77.7219H159.28C159.514 77.7219 159.703 77.6352 159.822 77.4857C159.923 77.3627 159.975 77.2097 159.971 77.0531V0.66728C159.976 0.502753 159.917 0.342384 159.807 0.216614ZM8.66966 70.2671C8.62032 70.2671 8.57247 70.2628 8.52912 70.2563C8.51566 70.2541 8.50071 70.2476 8.48725 70.244C8.45511 70.2368 8.42296 70.231 8.39381 70.2187C8.38857 70.218 8.38558 70.2137 8.38035 70.2122C8.1359 70.1169 7.98714 69.8966 7.98564 69.6063V8.12278C7.98564 7.82811 8.1359 7.61 8.38035 7.51106C8.38708 7.50961 8.39082 7.506 8.3953 7.50456C8.42296 7.49445 8.51491 7.47206 8.52912 7.46845C8.57397 7.46122 8.62256 7.45761 8.67265 7.45761H151.565C151.616 7.45761 151.663 7.46195 151.708 7.46845C151.723 7.47206 151.737 7.47711 151.749 7.48145C151.781 7.4869 151.812 7.49512 151.842 7.506C151.85 7.50745 151.852 7.51106 151.857 7.5125C152.102 7.60928 152.251 7.83028 152.251 8.1235V69.6077C152.25 69.8988 152.1 70.1191 151.859 70.2151C151.853 70.2166 151.851 70.2202 151.844 70.2216C151.813 70.2319 151.782 70.2401 151.751 70.2462C151.736 70.2498 151.725 70.2563 151.71 70.2592C151.664 70.2664 151.62 70.2693 151.57 70.2693H8.66966V70.2671Z" fill="#204156"/>
</g>
<defs>
<clipPath id="clip0_130_102">
<rect width="383" height="78" fill="white"/>
</clipPath>
</defs>
</svg>
