<svg width="700" height="700" viewBox="0 0 700 700" fill="none" xmlns="http://www.w3.org/2000/svg">
<path d="M350 598.584C499.915 598.584 621.446 591.489 621.446 582.736C621.446 573.984 499.915 566.888 350 566.888C200.084 566.888 78.5537 573.984 78.5537 582.736C78.5537 591.489 200.084 598.584 350 598.584Z" fill="#F5F5F5"/>
<path d="M574.63 538.608C574.84 537.208 579.74 503.37 569.926 491.694C568.949 490.464 567.712 489.465 566.303 488.77C564.894 488.075 563.348 487.702 561.778 487.676C541.954 487.214 539.252 503.076 539.224 503.286L541.562 503.65C541.646 503.076 543.998 489.65 561.722 490.042C562.956 490.059 564.172 490.352 565.279 490.9C566.386 491.447 567.356 492.235 568.12 493.206C577.248 504.084 572.32 537.908 572.32 538.258L574.63 538.608Z" fill="#407BFF"/>
<path d="M575.819 537.068L578.185 536.984C578.185 536.676 577.401 505.834 592.591 499.464C607.487 493.234 614.193 506.058 614.459 506.604L616.573 505.54C616.503 505.386 608.635 490.14 591.681 497.294C574.993 504.28 575.777 535.724 575.819 537.068Z" fill="#407BFF"/>
<path d="M575.749 539.49C575.749 539 575.903 490.224 585.409 475.958C594.537 462.252 609.209 468.706 609.895 468.958L610.861 466.802C610.693 466.732 593.697 459.228 583.435 474.614C573.537 489.468 573.397 537.418 573.397 539.462L575.749 539.49Z" fill="#407BFF"/>
<path d="M558.936 488.852C558.936 488.852 567.588 492.044 565.012 499.562C562.436 507.08 535.094 519.484 535.094 519.484C535.094 519.484 523.628 508.984 534.156 491.904C544.684 474.824 558.698 483.462 558.936 488.852Z" fill="#407BFF"/>
<path d="M585.83 473.382C585.83 473.382 579.698 472.724 580.23 468.986C580.762 465.248 604.114 455.616 617.904 471.184C617.904 471.184 609.07 486.36 596.302 486.584C583.534 486.808 585.83 473.382 585.83 473.382Z" fill="#407BFF"/>
<path d="M592.2 498.4C592.2 498.4 588 494.984 592.536 493.318C597.072 491.652 619.556 492.114 619.78 514.318C619.78 514.318 593.642 518.672 590.38 510.202C587.118 501.732 592.2 498.4 592.2 498.4Z" fill="#407BFF"/>
<path opacity="0.2" d="M558.936 488.852C558.936 488.852 567.588 492.044 565.012 499.562C562.436 507.08 535.094 519.484 535.094 519.484C535.094 519.484 523.628 508.984 534.156 491.904C544.684 474.824 558.698 483.462 558.936 488.852Z" fill="black"/>
<path opacity="0.2" d="M585.83 473.382C585.83 473.382 579.698 472.724 580.23 468.986C580.762 465.248 604.114 455.616 617.904 471.184C617.904 471.184 609.07 486.36 596.302 486.584C583.534 486.808 585.83 473.382 585.83 473.382Z" fill="black"/>
<path opacity="0.2" d="M592.2 498.4C592.2 498.4 588 494.984 592.536 493.318C597.072 491.652 619.556 492.114 619.78 514.318C619.78 514.318 593.642 518.672 590.38 510.202C587.118 501.732 592.2 498.4 592.2 498.4Z" fill="black"/>
<path d="M554.288 583.898H594.86L599.228 539.49H549.92L554.288 583.898Z" fill="#407BFF"/>
<path opacity="0.5" d="M554.288 583.898H594.86L599.228 539.49H549.92L554.288 583.898Z" fill="white"/>
<path d="M547.749 544.376H601.397V534.576H547.749V544.376Z" fill="#407BFF"/>
<path opacity="0.2" d="M547.749 544.376H601.397V534.576H547.749V544.376Z" fill="white"/>
<path d="M508.369 552.062L468.035 548.1V491.4H452.047V548.072L411.601 552.062C409.661 552.253 407.862 553.158 406.553 554.602C405.243 556.046 404.518 557.925 404.517 559.874V565.936H515.509V559.874C515.509 557.915 514.777 556.027 513.456 554.581C512.134 553.136 510.319 552.237 508.369 552.062Z" fill="#263238"/>
<path opacity="0.2" d="M508.369 552.062L468.035 548.1V491.4H452.047V548.072L411.601 552.062C409.661 552.253 407.862 553.158 406.553 554.602C405.243 556.046 404.518 557.925 404.517 559.874V565.936H515.509V559.874C515.509 557.915 514.777 556.027 513.456 554.581C512.134 553.136 510.319 552.237 508.369 552.062Z" fill="white"/>
<path d="M408.73 583.912C414.506 583.912 419.188 579.23 419.188 573.454C419.188 567.678 414.506 562.996 408.73 562.996C402.955 562.996 398.272 567.678 398.272 573.454C398.272 579.23 402.955 583.912 408.73 583.912Z" fill="#263238"/>
<path d="M511.196 583.912C516.972 583.912 521.654 579.23 521.654 573.454C521.654 567.678 516.972 562.996 511.196 562.996C505.42 562.996 500.738 567.678 500.738 573.454C500.738 579.23 505.42 583.912 511.196 583.912Z" fill="#263238"/>
<path d="M449.303 453.096H470.793V497.798C470.793 499.332 470.184 500.802 469.099 501.887C468.015 502.971 466.544 503.58 465.011 503.58H455.085C453.551 503.58 452.081 502.971 450.996 501.887C449.912 500.802 449.303 499.332 449.303 497.798V453.096Z" fill="#263238"/>
<path opacity="0.3" d="M449.303 453.096H470.793V497.798C470.793 499.332 470.184 500.802 469.099 501.887C468.015 502.971 466.544 503.58 465.011 503.58H455.085C453.551 503.58 452.081 502.971 450.996 501.887C449.912 500.802 449.303 499.332 449.303 497.798V453.096Z" fill="white"/>
<path d="M498.261 364.49C498.261 364.49 501.313 440.09 480.257 453.096H504.295C504.295 453.096 522.915 427.35 517.651 364.49H498.261Z" fill="#263238"/>
<path opacity="0.3" d="M498.261 364.49C498.261 364.49 501.313 440.09 480.257 453.096H504.295C504.295 453.096 522.915 427.35 517.651 364.49H498.261Z" fill="white"/>
<path d="M512.471 458.892H404.783V449.526C404.783 447.67 405.52 445.889 406.833 444.576C408.146 443.264 409.926 442.526 411.783 442.526H505.471C507.327 442.526 509.108 443.264 510.42 444.576C511.733 445.889 512.471 447.67 512.471 449.526V458.892Z" fill="#263238"/>
<path d="M403.102 458.892H514.136C515.69 458.892 516.95 457.632 516.95 456.078V453.53C516.95 451.976 515.69 450.716 514.136 450.716H403.102C401.548 450.716 400.288 451.976 400.288 453.53V456.078C400.288 457.632 401.548 458.892 403.102 458.892Z" fill="#263238"/>
<path opacity="0.6" d="M403.102 458.892H514.136C515.69 458.892 516.95 457.632 516.95 456.078V453.53C516.95 451.976 515.69 450.716 514.136 450.716H403.102C401.548 450.716 400.288 451.976 400.288 453.53V456.078C400.288 457.632 401.548 458.892 403.102 458.892Z" fill="white"/>
<path d="M523.545 323.96H485.045C473.772 323.96 464.633 333.099 464.633 344.372V359.436C464.633 370.709 473.772 379.848 485.045 379.848H523.545C534.818 379.848 543.957 370.709 543.957 359.436V344.372C543.957 333.099 534.818 323.96 523.545 323.96Z" fill="#263238"/>
<path d="M368.27 262.192L360.584 241.934C360.584 241.934 363.888 238.882 361.62 235.788C359.352 232.694 345.184 224 342.608 225.526C340.032 227.052 334.278 232.82 337.386 236.026C340.494 239.232 354.186 244.566 354.186 244.566L360.99 271.166L368.27 262.192Z" fill="#E4897B"/>
<path d="M421.932 300.706C421.932 300.706 386.932 293.524 383.194 291.802C379.456 290.08 365.4 248.878 365.4 248.878L354.606 253.918C354.606 253.918 363.286 295.274 372.162 305.102C381.038 314.93 418.922 323.302 418.922 323.302L421.932 300.706Z" fill="#407BFF"/>
<path opacity="0.2" d="M418.838 323.26L418.194 323.106C416.29 322.672 410.312 321.272 403.214 319.186C391.692 315.84 377.16 310.786 372.092 305.116C363.23 295.316 354.536 253.918 354.536 253.918L365.316 248.878C365.316 248.878 379.386 290.094 383.194 291.802C387.002 293.51 421.932 300.706 421.932 300.706L418.838 323.26Z" fill="black"/>
<path d="M365.498 248.066L367.724 252.364L353.864 257.138L354.396 251.888L365.498 248.066Z" fill="#407BFF"/>
<path opacity="0.2" d="M419.104 322.686C417.172 322.406 411.11 321.468 403.858 319.886C407.988 312.746 420.084 309.078 420.084 309.078L419.104 322.686Z" fill="black"/>
<path d="M471.212 272.174C471.212 272.174 473.27 291.536 466.102 296.296C458.934 301.056 423.64 295.484 419.636 287.686C415.632 279.888 430.696 258.748 430.696 258.748L471.212 272.174Z" fill="#263238"/>
<path d="M328.427 526.946L337.639 529.172L342.301 516.46L346.529 504.896L336.043 500.43L332.011 514.458L328.427 526.946Z" fill="#E4897B"/>
<path opacity="0.2" d="M332.011 514.458L342.301 516.46L346.529 504.896L336.043 500.43L332.011 514.458Z" fill="black"/>
<path d="M332.935 507.752L345.703 512.498C345.703 512.498 379.765 427.336 386.765 427.098C393.765 426.86 465.039 459.564 482.903 441.392C500.767 423.22 474.937 379.4 474.937 379.4C474.937 379.4 431.971 373.268 428.737 382.97C427.941 385.83 427.333 388.738 426.917 391.678C426.427 394.646 426.091 397.138 426.091 397.138C424.761 396.802 381.627 385.672 364.631 397.138C347.341 408.8 332.935 507.752 332.935 507.752Z" fill="#407BFF"/>
<path opacity="0.6" d="M332.935 507.752L345.703 512.498C345.703 512.498 379.765 427.336 386.765 427.098C393.765 426.86 465.039 459.564 482.903 441.392C500.767 423.22 474.937 379.4 474.937 379.4C474.937 379.4 431.971 373.268 428.737 382.97C427.941 385.83 427.333 388.738 426.917 391.678C426.427 394.646 426.091 397.138 426.091 397.138C424.761 396.802 381.627 385.672 364.631 397.138C347.341 408.8 332.935 507.752 332.935 507.752Z" fill="white"/>
<path d="M406.379 563.276L415.549 560.938L413.785 547.764L412.147 535.696L400.807 536.718L403.747 550.788L406.379 563.276Z" fill="#E4897B"/>
<path opacity="0.2" d="M403.816 551.068L413.84 548.016L412.174 535.822L400.82 536.788L403.816 551.068Z" fill="black"/>
<path d="M350.98 507.766L332.374 501.452L331.576 509.068L345.688 514.052L350.98 507.766Z" fill="#407BFF"/>
<path d="M452.046 445.704C452.046 445.704 449.134 445.774 404.068 443.674C404.068 443.674 410.802 500.01 414.484 542.192L401.002 544.488C401.002 544.488 368.802 454.174 369.152 439.824C369.502 425.474 385.952 421.274 385.952 421.274C385.952 421.274 418.054 439.824 452.046 445.704Z" fill="#407BFF"/>
<path opacity="0.6" d="M452.046 445.704C452.046 445.704 449.134 445.774 404.068 443.674C404.068 443.674 410.802 500.01 414.484 542.192L401.002 544.488C401.002 544.488 368.802 454.174 369.152 439.824C369.502 425.474 385.952 421.274 385.952 421.274C385.952 421.274 418.054 439.824 452.046 445.704Z" fill="white"/>
<path opacity="0.1" d="M452.046 445.704C452.046 445.704 449.134 445.774 404.068 443.674C404.068 443.674 410.802 500.01 414.484 542.192L401.002 544.488C401.002 544.488 368.802 454.174 369.152 439.824C369.502 425.474 385.952 421.274 385.952 421.274C385.952 421.274 418.054 439.824 452.046 445.704Z" fill="black"/>
<path d="M416.445 538.104L397.923 540.218L401.507 547.47L416.501 545.552L416.445 538.104Z" fill="#407BFF"/>
<path opacity="0.1" d="M426.091 397.138L451.221 402.374C451.221 402.374 437.333 394.702 426.917 391.678C426.427 394.646 426.091 397.138 426.091 397.138Z" fill="black"/>
<path d="M473.901 372.722L474.937 379.4L428.737 382.97L427.519 375.06L473.901 372.722Z" fill="#263238"/>
<path opacity="0.2" d="M473.901 372.722L474.937 379.4L428.737 382.97L427.519 375.06L473.901 372.722Z" fill="black"/>
<path d="M459.329 383.911L461.613 383.676L460.418 372.047L458.134 372.282L459.329 383.911Z" fill="#407BFF"/>
<path d="M438.804 382.749L448.919 382.098L448.426 374.428L438.311 375.079L438.804 382.749Z" fill="white"/>
<path d="M430.983 385.132L433.267 384.897L432.071 373.269L429.787 373.504L430.983 385.132Z" fill="#407BFF"/>
<path opacity="0.6" d="M459.329 383.911L461.613 383.676L460.418 372.047L458.134 372.282L459.329 383.911Z" fill="white"/>
<path opacity="0.6" d="M430.983 385.132L433.267 384.897L432.071 373.269L429.787 373.504L430.983 385.132Z" fill="white"/>
<path d="M421.092 300.076C429.745 302.466 438.726 303.454 447.692 303.002C462.532 302.246 480.2 309.4 480.2 309.4L473.844 372.68L427.448 375.018C427.448 375.018 411.922 322.224 421.092 300.076Z" fill="#407BFF"/>
<path d="M428.555 264.334C428.555 264.334 431.159 233.618 456.835 244.734C489.035 258.734 463.443 296.17 447.693 288.498C431.943 280.826 428.555 264.334 428.555 264.334Z" fill="#263238"/>
<path opacity="0.2" d="M435.75 304.724L436.492 322.084L442.246 313.922C442.246 313.922 440.188 333.116 441.392 343.574C441.392 343.574 442.498 324.828 445.102 313.922L451.22 322.084L459.998 304.836C459.998 304.836 445.788 299.726 435.75 304.724Z" fill="black"/>
<path d="M443.703 308L456.989 304.248C448.799 298.648 452.929 286.048 452.929 286.048L439.769 290.668C440.374 292.497 440.842 294.369 441.169 296.268C442.569 304.472 438.845 305.13 438.845 305.13L443.703 308Z" fill="#E4897B"/>
<path opacity="0.2" d="M439.769 290.598C440.374 292.427 440.842 294.299 441.169 296.198C447.469 293.664 452.915 285.95 452.915 285.95L439.769 290.598Z" fill="black"/>
<path d="M448.364 251.23C436.702 248.654 431.564 254.03 428.064 265.874C423.682 280.644 424.648 292.04 439.922 292.068C460.67 292.096 467.712 255.514 448.364 251.23Z" fill="#E4897B"/>
<path d="M435.736 266.896C434.423 268.43 432.928 269.798 431.284 270.97C431.519 271.531 431.906 272.015 432.4 272.368C432.895 272.722 433.478 272.931 434.084 272.972L435.736 266.896Z" fill="#DE5753"/>
<path d="M443.086 267.512C442.848 268.464 443.17 269.374 443.814 269.528C444.458 269.682 445.144 269.038 445.382 268.128C445.62 267.218 445.298 266.28 444.654 266.112C444.01 265.944 443.324 266.56 443.086 267.512Z" fill="#263238"/>
<path d="M444.906 266.182L443.044 264.866C443.044 264.866 443.646 266.868 444.906 266.182Z" fill="#263238"/>
<path d="M431.298 264.404C431.06 265.356 431.382 266.266 432.026 266.42C432.67 266.574 433.426 265.93 433.594 265.02C433.762 264.11 433.51 263.172 432.866 263.004C432.222 262.836 431.536 263.452 431.298 264.404Z" fill="#263238"/>
<path d="M433.118 263.074L431.2 261.8C431.2 261.8 431.858 263.746 433.118 263.074Z" fill="#263238"/>
<path d="M449.652 262.878C449.558 262.88 449.466 262.856 449.385 262.809C449.303 262.762 449.236 262.694 449.19 262.612C448.729 261.892 448.113 261.284 447.386 260.833C446.659 260.383 445.84 260.101 444.99 260.008C444.857 259.99 444.735 259.923 444.649 259.819C444.563 259.715 444.52 259.582 444.528 259.448C444.543 259.313 444.609 259.189 444.714 259.102C444.819 259.016 444.953 258.974 445.088 258.986C446.12 259.086 447.115 259.423 447.994 259.972C448.874 260.521 449.614 261.267 450.156 262.15C450.188 262.209 450.207 262.275 450.212 262.342C450.218 262.409 450.21 262.476 450.189 262.54C450.168 262.604 450.135 262.663 450.091 262.714C450.046 262.765 449.993 262.806 449.932 262.836C449.843 262.871 449.748 262.885 449.652 262.878Z" fill="#263238"/>
<path d="M436.619 257.6C436.524 257.598 436.431 257.569 436.353 257.516C435.665 257.185 434.911 257.014 434.148 257.014C433.385 257.014 432.631 257.185 431.943 257.516C431.882 257.54 431.817 257.553 431.752 257.552C431.686 257.551 431.622 257.538 431.562 257.512C431.502 257.485 431.448 257.448 431.402 257.4C431.357 257.353 431.322 257.297 431.299 257.236C431.274 257.174 431.261 257.108 431.262 257.042C431.262 256.975 431.276 256.909 431.302 256.848C431.328 256.787 431.366 256.732 431.413 256.685C431.461 256.639 431.517 256.602 431.579 256.578C432.415 256.188 433.33 255.996 434.252 256.015C435.174 256.035 436.08 256.266 436.899 256.69C436.955 256.725 437.004 256.772 437.042 256.826C437.081 256.881 437.108 256.942 437.122 257.007C437.136 257.073 437.138 257.14 437.126 257.205C437.114 257.271 437.089 257.334 437.053 257.39C437.003 257.457 436.937 257.512 436.862 257.548C436.786 257.585 436.703 257.602 436.619 257.6Z" fill="#263238"/>
<path d="M456.751 273.686C456.751 273.686 453.419 262.906 455.883 255.696C455.883 255.696 434.883 241.15 428.555 264.334C428.555 264.334 430.893 243.026 451.039 247.002C471.185 250.978 464.591 280.252 452.313 286.692C452.313 286.692 458.795 280.42 456.751 273.686Z" fill="#263238"/>
<path d="M454.3 275.8C454.71 274.475 455.629 273.367 456.854 272.719C458.08 272.071 459.513 271.935 460.838 272.342C464.366 273.532 464.436 281.33 455.07 281.12C453.712 281.022 453.264 279.608 454.3 275.8Z" fill="#E4897B"/>
<path d="M431.971 277.396C432.282 278.826 432.488 280.276 432.587 281.736H433.343C436.829 282.03 438.537 281.008 439.377 279.804C439.778 279.206 440.028 278.519 440.105 277.802C440.164 277.398 440.164 276.988 440.105 276.584C437.858 277.358 435.47 277.64 433.105 277.41C432.433 277.452 431.971 277.396 431.971 277.396Z" fill="#263238"/>
<path d="M433.16 277.48L433.37 278.754C436.646 279.02 438.97 278.754 440.104 277.872C440.163 277.468 440.163 277.058 440.104 276.654C437.875 277.42 435.507 277.701 433.16 277.48Z" fill="white"/>
<path d="M433.343 281.806C436.829 282.1 438.537 281.078 439.377 279.874C438.055 279.787 436.728 279.934 435.457 280.308C434.612 280.572 433.872 281.096 433.343 281.806Z" fill="#DE5753"/>
<path d="M448.407 252.168C448.407 252.168 448.855 272.37 461.007 274.806C473.159 277.242 459.887 248.822 459.887 248.822C459.887 248.822 441.827 237.034 429.787 245.35C417.747 253.666 428.583 264.334 428.583 264.334C428.583 264.334 431.089 249.326 448.407 252.168Z" fill="#263238"/>
<path d="M453.04 270.662C452.958 270.661 452.879 270.631 452.816 270.578C444.192 263.802 448.448 250.838 448.49 250.712C448.522 250.624 448.586 250.552 448.669 250.511C448.753 250.469 448.849 250.461 448.938 250.488C449.025 250.519 449.096 250.584 449.136 250.668C449.175 250.752 449.18 250.849 449.148 250.936C449.148 251.062 445.018 263.536 453.25 270.032C453.284 270.063 453.31 270.101 453.329 270.143C453.347 270.186 453.356 270.231 453.356 270.277C453.356 270.323 453.347 270.368 453.329 270.41C453.31 270.453 453.284 270.49 453.25 270.522C453.227 270.559 453.196 270.59 453.16 270.614C453.124 270.639 453.083 270.655 453.04 270.662Z" fill="#263238"/>
<path d="M464.521 278.95C462.981 283.066 459.019 285.376 455.673 284.13C452.327 282.884 450.871 278.53 452.411 274.414C453.951 270.298 457.913 267.988 461.259 269.248C464.605 270.508 466.061 274.848 464.521 278.95Z" fill="#407BFF"/>
<path opacity="0.4" d="M464.521 278.95C462.981 283.066 459.019 285.376 455.673 284.13C452.327 282.884 450.871 278.53 452.411 274.414C453.951 270.298 457.913 267.988 461.259 269.248C464.605 270.508 466.061 274.848 464.521 278.95Z" fill="black"/>
<path d="M460.6 272.216C460.6 272.216 465.626 249.718 454.356 243.824C455.64 243.992 456.912 244.239 458.164 244.566C459.564 244.986 468.622 254.114 464.072 274.33L460.6 272.216Z" fill="#407BFF"/>
<path opacity="0.2" d="M460.6 272.216C460.6 272.216 465.626 249.718 454.356 243.824C455.64 243.992 456.912 244.239 458.164 244.566C459.564 244.986 468.622 254.114 464.072 274.33L460.6 272.216Z" fill="black"/>
<path d="M439.601 285.096L438.761 284.97L438.985 283.57C445.168 284.521 451.485 283.181 456.751 279.804L457.577 280.924C452.282 284.432 445.9 285.914 439.601 285.096Z" fill="#407BFF"/>
<g opacity="0.2">
<path d="M439.601 285.096L438.761 284.97L438.985 283.57C445.168 284.521 451.485 283.181 456.751 279.804L457.577 280.924C452.282 284.432 445.9 285.914 439.601 285.096Z" fill="black"/>
</g>
<path d="M464.044 278.39C463.036 281.106 460.404 282.59 458.206 281.806C456.008 281.022 455.028 278.11 456.05 275.394C457.072 272.678 459.69 271.194 461.888 271.978C464.086 272.762 465.066 275.674 464.044 278.39Z" fill="#407BFF"/>
<path d="M438.284 285.6L437.15 285.446C436.952 285.42 436.762 285.355 436.589 285.255C436.416 285.155 436.265 285.022 436.144 284.863C436.022 284.704 435.934 284.523 435.883 284.33C435.833 284.137 435.821 283.936 435.848 283.738C435.873 283.539 435.936 283.346 436.035 283.172C436.135 282.997 436.268 282.844 436.427 282.722C436.586 282.6 436.767 282.51 436.961 282.458C437.155 282.407 437.358 282.394 437.556 282.422L438.676 282.576C439.076 282.632 439.437 282.842 439.683 283.161C439.929 283.481 440.04 283.884 439.992 284.284C439.937 284.683 439.727 285.045 439.407 285.291C439.088 285.537 438.685 285.648 438.284 285.6Z" fill="#407BFF"/>
<path opacity="0.4" d="M438.284 285.6L437.15 285.446C436.952 285.42 436.762 285.355 436.589 285.255C436.416 285.155 436.265 285.022 436.144 284.863C436.022 284.704 435.934 284.523 435.883 284.33C435.833 284.137 435.821 283.936 435.848 283.738C435.873 283.539 435.936 283.346 436.035 283.172C436.135 282.997 436.268 282.844 436.427 282.722C436.586 282.6 436.767 282.51 436.961 282.458C437.155 282.407 437.358 282.394 437.556 282.422L438.676 282.576C439.076 282.632 439.437 282.842 439.683 283.161C439.929 283.481 440.04 283.884 439.992 284.284C439.937 284.683 439.727 285.045 439.407 285.291C439.088 285.537 438.685 285.648 438.284 285.6Z" fill="black"/>
<path d="M453.419 299.39L445.103 307.552L448.435 317.576L459.999 304.836L453.419 299.39Z" fill="#407BFF"/>
<path d="M441.392 301.098L442.736 307.384L438.438 316.274L435.75 304.724L441.392 301.098Z" fill="#407BFF"/>
<path d="M451.641 306.474L456.471 288.792C456.471 288.792 454.133 284.396 454.637 283.472C455.141 282.548 457.661 270.676 459.453 269.388C461.245 268.1 468.623 270.298 469.365 271.502C470.107 272.706 462.295 288.792 462.295 288.792L459.495 307.958L451.641 306.474Z" fill="#E4897B"/>
<path d="M480.201 309.4C493.501 323.008 466.859 353.836 451.585 352.52C436.311 351.204 451.977 295.316 451.977 295.316L461.777 296.926C461.777 296.926 458.347 321.118 459.425 323.008C460.503 324.898 475.791 304.878 480.201 309.4Z" fill="#407BFF"/>
<path opacity="0.2" d="M480.201 309.4C493.501 323.008 466.859 353.836 451.585 352.52C436.311 351.204 451.977 295.316 451.977 295.316L461.777 296.926C461.777 296.926 458.347 321.118 459.425 323.008C460.503 324.898 475.791 304.878 480.201 309.4Z" fill="black"/>
<path d="M451.22 293.566L449.778 298.186L463.4 299.39V295.358L451.22 293.566Z" fill="#407BFF"/>
<path opacity="0.6" d="M430.57 330.12H425.054C424.443 330.12 423.948 330.615 423.948 331.226V341.642C423.948 342.252 424.443 342.748 425.054 342.748H430.57C431.181 342.748 431.676 342.252 431.676 341.642V331.226C431.676 330.615 431.181 330.12 430.57 330.12Z" fill="white"/>
<path opacity="0.2" d="M430.682 330.96H424.41V339.542H430.682V330.96Z" fill="black"/>
<path d="M428.386 327.082H427V332.136H428.386V327.082Z" fill="#263238"/>
<path d="M313.194 544.838C314.591 544.188 316.096 543.804 317.632 543.704C317.632 543.704 322.952 540.582 328.216 528.416H334.138C335.143 528.423 336.12 528.74 336.937 529.324C337.754 529.908 338.371 530.73 338.702 531.678C338.801 531.938 338.858 532.212 338.87 532.49C338.8 533.921 338.646 535.347 338.408 536.76C337.542 541.493 336.387 546.168 334.95 550.76L333.942 550.508L335.762 541.66C336.378 538.664 333.214 541.562 331.758 544.586C330.302 547.61 328.048 550.676 321.496 549.178C313.866 547.302 310.8 546.21 313.194 544.838Z" fill="#407BFF"/>
<path d="M329.295 525.238C329.295 525.238 321.889 540.722 317.633 543.704C317.633 543.704 323.345 547.106 329.295 539.504C336.981 529.704 338.871 532.434 338.871 532.434C338.71 530.743 338.396 529.07 337.933 527.436C336.785 524.3 329.295 525.238 329.295 525.238Z" fill="#E4897B"/>
<path d="M394.702 581.728C395.912 580.774 397.282 580.044 398.748 579.572C398.748 579.572 403.172 575.274 405.398 562.212L411.152 560.812C412.129 560.587 413.151 560.668 414.08 561.043C415.009 561.419 415.8 562.071 416.346 562.912C416.504 563.145 416.626 563.399 416.71 563.668C416.99 565.054 417.182 566.457 417.284 567.868C417.553 572.653 417.53 577.45 417.214 582.232H416.178L415.856 573.216C415.73 570.15 413.364 573.72 412.65 577.01C411.936 580.3 410.494 583.786 403.774 583.884C395.948 583.968 392.7 583.632 394.702 581.728Z" fill="#407BFF"/>
<path d="M405.692 558.866C405.692 558.866 402.178 575.666 398.692 579.572C398.692 579.572 405.048 581.532 409.024 572.754C414.176 561.414 416.654 563.626 416.654 563.626C416.101 562.021 415.403 560.47 414.568 558.992C412.748 556.192 405.692 558.866 405.692 558.866Z" fill="#E4897B"/>
<path d="M535.864 220.01H486.99C483.069 220.01 479.892 223.188 479.892 227.108V248.01C479.892 251.93 483.069 255.108 486.99 255.108H535.864C539.784 255.108 542.962 251.93 542.962 248.01V227.108C542.962 223.188 539.784 220.01 535.864 220.01Z" fill="#407BFF"/>
<path d="M496.79 251.104L482.062 271.124L505.82 252.448L496.79 251.104Z" fill="#407BFF"/>
<path d="M497.335 237.552C497.338 237.963 497.219 238.365 496.992 238.708C496.765 239.051 496.442 239.319 496.063 239.477C495.684 239.636 495.266 239.678 494.863 239.599C494.459 239.519 494.089 239.321 493.798 239.031C493.508 238.74 493.31 238.37 493.231 237.966C493.151 237.563 493.193 237.145 493.352 236.766C493.51 236.387 493.778 236.064 494.121 235.837C494.464 235.61 494.866 235.491 495.277 235.494C495.823 235.494 496.347 235.711 496.733 236.096C497.119 236.482 497.335 237.006 497.335 237.552Z" fill="white"/>
<path d="M508.102 237.552C508.105 237.963 507.985 238.365 507.759 238.708C507.532 239.051 507.209 239.319 506.829 239.477C506.45 239.636 506.032 239.678 505.629 239.599C505.226 239.519 504.855 239.321 504.565 239.031C504.274 238.74 504.077 238.37 503.997 237.966C503.918 237.563 503.96 237.145 504.118 236.766C504.277 236.387 504.545 236.064 504.888 235.837C505.23 235.61 505.633 235.491 506.044 235.494C506.59 235.494 507.113 235.711 507.499 236.096C507.885 236.482 508.102 237.006 508.102 237.552Z" fill="white"/>
<path d="M518.868 237.552C518.87 237.963 518.751 238.365 518.524 238.708C518.298 239.051 517.974 239.319 517.595 239.477C517.216 239.636 516.798 239.678 516.395 239.599C515.992 239.519 515.621 239.321 515.33 239.031C515.04 238.74 514.842 238.37 514.763 237.966C514.683 237.563 514.725 237.145 514.884 236.766C515.043 236.387 515.31 236.064 515.653 235.837C515.996 235.61 516.399 235.491 516.81 235.494C517.355 235.494 517.879 235.711 518.265 236.096C518.651 236.482 518.868 237.006 518.868 237.552Z" fill="white"/>
<path d="M529.633 237.552C529.636 237.963 529.516 238.365 529.29 238.708C529.063 239.051 528.74 239.319 528.361 239.477C527.981 239.636 527.564 239.678 527.16 239.599C526.757 239.519 526.387 239.321 526.096 239.031C525.806 238.74 525.608 238.37 525.528 237.966C525.449 237.563 525.491 237.145 525.65 236.766C525.808 236.387 526.076 236.064 526.419 235.837C526.762 235.61 527.164 235.491 527.575 235.494C528.121 235.494 528.644 235.711 529.03 236.096C529.416 236.482 529.633 237.006 529.633 237.552Z" fill="white"/>
<path d="M352.343 203.459L317.474 184.676C316.535 184.17 315.363 184.521 314.857 185.461L303.73 206.118C303.224 207.058 303.575 208.229 304.514 208.735L339.383 227.518C340.323 228.024 341.494 227.673 342 226.734L353.128 206.076C353.634 205.137 353.283 203.965 352.343 203.459Z" fill="#407BFF"/>
<path opacity="0.7" d="M352.343 203.459L317.474 184.676C316.535 184.17 315.363 184.521 314.857 185.461L303.73 206.118C303.224 207.058 303.575 208.229 304.514 208.735L339.383 227.518C340.323 228.024 341.494 227.673 342 226.734L353.128 206.076C353.634 205.137 353.283 203.965 352.343 203.459Z" fill="white"/>
<path opacity="0.2" d="M313.95 187.166L324.8 207.536C325.217 208.312 325.854 208.947 326.632 209.36C327.409 209.774 328.292 209.948 329.168 209.86L351.862 207.62L328.762 211.022C327.753 211.171 326.722 210.99 325.824 210.505C324.926 210.021 324.208 209.259 323.778 208.334L313.95 187.166Z" fill="black"/>
<path d="M287.477 183.4C287.855 175.616 293.623 159.922 300.637 155.12C307.651 150.318 303.031 156.968 303.031 156.968C303.031 156.968 309.681 150.5 313.181 150.696C316.681 150.892 313.181 154.896 313.181 154.896C313.181 154.896 320.391 150.458 323.709 150.696C327.027 150.934 323.709 154.77 323.709 154.77C323.709 154.77 329.617 150.57 332.011 152.544C334.405 154.518 301.365 176.344 297.683 185.22C294.001 194.096 287.099 191.254 287.477 183.4Z" fill="#407BFF"/>
<path opacity="0.4" d="M287.477 183.4C287.855 175.616 293.623 159.922 300.637 155.12C307.651 150.318 303.031 156.968 303.031 156.968C303.031 156.968 309.681 150.5 313.181 150.696C316.681 150.892 313.181 154.896 313.181 154.896C313.181 154.896 320.391 150.458 323.709 150.696C327.027 150.934 323.709 154.77 323.709 154.77C323.709 154.77 329.617 150.57 332.011 152.544C334.405 154.518 301.365 176.344 297.683 185.22C294.001 194.096 287.099 191.254 287.477 183.4Z" fill="white"/>
<path d="M315.868 182.224L320.278 185.024C320.348 185.067 320.401 185.132 320.429 185.209C320.457 185.286 320.458 185.37 320.432 185.448C320.406 185.526 320.355 185.593 320.286 185.638C320.217 185.682 320.136 185.703 320.054 185.696L315.42 185.332L315.812 188.888C315.824 188.971 315.808 189.057 315.766 189.131C315.725 189.205 315.661 189.263 315.584 189.298C315.507 189.333 315.421 189.341 315.338 189.323C315.256 189.305 315.181 189.26 315.126 189.196L312.452 186.2L315.868 182.224Z" fill="#407BFF"/>
<path opacity="0.3" d="M315.868 182.224L320.278 185.024C320.348 185.067 320.401 185.132 320.429 185.209C320.457 185.286 320.458 185.37 320.432 185.448C320.406 185.526 320.355 185.593 320.286 185.638C320.217 185.682 320.136 185.703 320.054 185.696L315.42 185.332L315.812 188.888C315.824 188.971 315.808 189.057 315.766 189.131C315.725 189.205 315.661 189.263 315.584 189.298C315.507 189.333 315.421 189.341 315.338 189.323C315.256 189.305 315.181 189.26 315.126 189.196L312.452 186.2L315.868 182.224Z" fill="white"/>
<path d="M253.918 164.696C253.918 164.696 260.022 160.496 269.248 163.212C269.248 163.212 271.894 175.406 279.16 179.466C283.15 181.692 292.908 181.496 300.636 179.004C309.806 176.036 314.286 176.036 315.952 179.466C317.618 182.896 315.77 186.466 308.756 188.132C301.742 189.798 296.156 201.978 283.458 202.132C270.76 202.286 264.012 189.532 267.218 178.332C264.182 172.606 259.566 167.873 253.918 164.696Z" fill="#407BFF"/>
<path opacity="0.5" d="M253.918 164.696C253.918 164.696 260.022 160.496 269.248 163.212C269.248 163.212 271.894 175.406 279.16 179.466C283.15 181.692 292.908 181.496 300.636 179.004C309.806 176.036 314.286 176.036 315.952 179.466C317.618 182.896 315.77 186.466 308.756 188.132C301.742 189.798 296.156 201.978 283.458 202.132C270.76 202.286 264.012 189.532 267.218 178.332C264.182 172.606 259.566 167.873 253.918 164.696Z" fill="white"/>
<path d="M312.452 181.776C312.452 181.901 312.415 182.022 312.346 182.126C312.277 182.23 312.179 182.31 312.063 182.358C311.948 182.406 311.822 182.418 311.699 182.394C311.577 182.37 311.465 182.31 311.377 182.221C311.289 182.133 311.229 182.021 311.204 181.899C311.18 181.777 311.193 181.65 311.24 181.535C311.288 181.42 311.369 181.321 311.472 181.252C311.576 181.183 311.698 181.146 311.822 181.146C311.989 181.146 312.15 181.212 312.268 181.331C312.386 181.449 312.452 181.609 312.452 181.776Z" fill="#263238"/>
<path d="M280.505 192.024C272.987 194.068 256.271 193.424 249.551 188.244C242.831 183.064 250.559 185.444 250.559 185.444C250.559 185.444 242.369 181.118 241.459 177.73C240.549 174.342 245.491 176.414 245.491 176.414C245.491 176.414 239.051 170.94 238.211 167.72C237.371 164.5 242.075 166.46 242.075 166.46C242.075 166.46 236.209 162.148 237.399 159.25C238.589 156.352 269.515 181.048 279.077 181.818C288.639 182.588 288.121 189.952 280.505 192.024Z" fill="#407BFF"/>
<path opacity="0.4" d="M280.505 192.024C272.987 194.068 256.271 193.424 249.551 188.244C242.831 183.064 250.559 185.444 250.559 185.444C250.559 185.444 242.369 181.118 241.459 177.73C240.549 174.342 245.491 176.414 245.491 176.414C245.491 176.414 239.051 170.94 238.211 167.72C237.371 164.5 242.075 166.46 242.075 166.46C242.075 166.46 236.209 162.148 237.399 159.25C238.589 156.352 269.515 181.048 279.077 181.818C288.639 182.588 288.121 189.952 280.505 192.024Z" fill="white"/>
<path d="M231.225 157.962C231.17 157.975 231.112 157.975 231.057 157.962C229.755 157.5 228.425 157.066 227.081 156.66C226.948 156.618 226.837 156.525 226.771 156.402C226.706 156.279 226.691 156.135 226.731 156.002C226.773 155.869 226.865 155.758 226.988 155.692C227.111 155.627 227.255 155.612 227.389 155.652C228.789 156.058 230.091 156.506 231.407 157.052C231.524 157.092 231.623 157.172 231.686 157.279C231.749 157.386 231.771 157.512 231.749 157.634C231.727 157.756 231.662 157.866 231.566 157.944C231.47 158.022 231.349 158.063 231.225 158.06V157.962Z" fill="#407BFF"/>
<path d="M146.609 271.6C146.47 271.6 146.337 271.546 146.237 271.449C146.138 271.352 146.08 271.22 146.077 271.082C146.076 270.943 146.131 270.81 146.227 270.71C146.324 270.611 146.456 270.553 146.595 270.55C149.38 270.51 152.157 270.239 154.897 269.738C155.034 269.713 155.175 269.743 155.29 269.822C155.406 269.9 155.485 270.021 155.513 270.158C155.527 270.226 155.527 270.296 155.513 270.364C155.5 270.433 155.473 270.497 155.433 270.555C155.394 270.612 155.344 270.661 155.285 270.699C155.227 270.737 155.161 270.762 155.093 270.774C152.293 271.286 149.455 271.562 146.609 271.6ZM138.209 271.152C135.383 270.85 132.579 270.383 129.809 269.752C129.671 269.721 129.552 269.638 129.476 269.52C129.4 269.402 129.373 269.259 129.403 269.122C129.436 268.987 129.52 268.871 129.638 268.798C129.756 268.724 129.897 268.7 130.033 268.73C132.759 269.344 135.516 269.811 138.293 270.13C138.417 270.15 138.53 270.214 138.612 270.31C138.694 270.406 138.739 270.528 138.739 270.655C138.739 270.781 138.694 270.903 138.612 270.999C138.53 271.095 138.417 271.159 138.293 271.18L138.209 271.152ZM163.087 268.352C162.986 268.352 162.887 268.323 162.803 268.269C162.718 268.214 162.651 268.136 162.611 268.044C162.58 267.98 162.563 267.912 162.561 267.842C162.558 267.772 162.569 267.702 162.594 267.637C162.619 267.571 162.657 267.512 162.705 267.461C162.754 267.411 162.812 267.371 162.877 267.344C165.419 266.248 167.78 264.77 169.877 262.962C169.984 262.88 170.118 262.842 170.252 262.855C170.386 262.869 170.51 262.932 170.599 263.034C170.688 263.135 170.735 263.266 170.731 263.401C170.727 263.536 170.672 263.664 170.577 263.76C168.396 265.631 165.946 267.165 163.311 268.31C163.233 268.353 163.147 268.377 163.059 268.38L163.087 268.352ZM121.801 267.4C121.745 267.413 121.688 267.413 121.633 267.4C118.973 266.518 116.299 265.482 113.709 264.348C113.594 264.282 113.508 264.176 113.467 264.05C113.426 263.925 113.433 263.788 113.487 263.668C113.541 263.547 113.638 263.451 113.76 263.398C113.881 263.345 114.017 263.339 114.143 263.382C116.691 264.502 119.323 265.524 121.969 266.406C122.1 266.453 122.207 266.55 122.267 266.676C122.327 266.801 122.336 266.946 122.291 267.078C122.251 267.175 122.183 267.257 122.095 267.315C122.008 267.372 121.905 267.402 121.801 267.4ZM106.401 260.596C106.318 260.621 106.231 260.621 106.149 260.596C103.643 259.196 101.207 257.684 98.9385 256.102C98.8825 256.062 98.8347 256.012 98.7981 255.954C98.7614 255.896 98.7365 255.831 98.7248 255.764C98.7131 255.696 98.7148 255.627 98.7299 255.56C98.7449 255.493 98.773 255.43 98.8125 255.374C98.8521 255.318 98.9023 255.27 98.9602 255.233C99.0182 255.196 99.0828 255.172 99.1504 255.16C99.218 255.148 99.2873 255.15 99.3542 255.165C99.4212 255.18 99.4845 255.208 99.5405 255.248C101.781 256.802 104.175 258.3 106.667 259.686C106.727 259.719 106.78 259.764 106.822 259.818C106.865 259.873 106.896 259.935 106.915 260.001C106.933 260.068 106.938 260.137 106.929 260.206C106.92 260.274 106.897 260.34 106.863 260.4C106.803 260.49 106.718 260.562 106.619 260.604C106.519 260.646 106.409 260.658 106.303 260.638L106.401 260.596ZM175.617 257.39C175.534 257.415 175.447 257.415 175.365 257.39C175.304 257.356 175.251 257.311 175.209 257.257C175.166 257.203 175.135 257.14 175.116 257.074C175.098 257.007 175.093 256.938 175.102 256.869C175.111 256.801 175.134 256.735 175.169 256.676C175.603 255.92 176.009 255.136 176.373 254.324C177.152 252.609 177.761 250.823 178.193 248.99C178.229 248.854 178.316 248.738 178.436 248.665C178.556 248.592 178.699 248.568 178.837 248.598C178.971 248.634 179.087 248.722 179.158 248.842C179.228 248.963 179.249 249.106 179.215 249.242C178.758 251.135 178.125 252.982 177.325 254.758C176.947 255.598 176.527 256.424 176.079 257.208C176.019 257.297 175.933 257.367 175.833 257.407C175.733 257.447 175.624 257.455 175.519 257.432L175.617 257.39ZM92.5965 250.922C92.4733 250.92 92.3546 250.875 92.2605 250.796C90.1284 248.912 88.1309 246.882 86.2825 244.72C86.1859 244.62 86.1318 244.487 86.1318 244.349C86.1318 244.21 86.1859 244.077 86.2825 243.978C86.3795 243.882 86.5103 243.828 86.6465 243.828C86.7828 243.828 86.9136 243.882 87.0105 243.978C88.8255 246.095 90.7855 248.083 92.8765 249.928C92.9732 250.027 93.0273 250.16 93.0273 250.299C93.0273 250.437 92.9732 250.57 92.8765 250.67C92.8418 250.745 92.7894 250.812 92.7236 250.863C92.6577 250.914 92.5806 250.949 92.4985 250.964L92.5965 250.922ZM179.649 241.206C179.579 241.206 179.511 241.192 179.447 241.165C179.383 241.138 179.325 241.099 179.277 241.049C179.229 240.999 179.191 240.941 179.166 240.876C179.141 240.812 179.129 240.743 179.131 240.674C179.11 237.889 178.853 235.112 178.361 232.372C178.336 232.234 178.366 232.093 178.445 231.978C178.523 231.863 178.644 231.783 178.781 231.756C178.919 231.735 179.061 231.769 179.175 231.849C179.29 231.93 179.369 232.052 179.397 232.19C179.9 234.99 180.163 237.828 180.181 240.674C180.181 240.815 180.124 240.95 180.025 241.05C179.925 241.15 179.79 241.206 179.649 241.206ZM176.849 224.602C176.735 224.601 176.625 224.563 176.535 224.495C176.444 224.427 176.377 224.332 176.345 224.224C175.631 221.774 174.749 219.17 173.671 216.258C173.644 216.193 173.631 216.123 173.632 216.052C173.633 215.982 173.648 215.913 173.677 215.848C173.706 215.784 173.747 215.727 173.799 215.679C173.851 215.631 173.912 215.595 173.979 215.572C174.109 215.526 174.251 215.532 174.377 215.59C174.502 215.647 174.6 215.751 174.651 215.88C175.743 218.82 176.625 221.48 177.353 223.916C177.392 224.049 177.377 224.193 177.312 224.316C177.247 224.439 177.135 224.532 177.003 224.574L176.849 224.602ZM171.053 208.712C170.955 208.712 170.86 208.685 170.778 208.633C170.696 208.581 170.631 208.506 170.591 208.418C169.695 206.178 168.477 203.602 167.203 200.872V200.732C167.166 200.61 167.175 200.479 167.227 200.362C167.279 200.246 167.37 200.152 167.486 200.098C167.601 200.044 167.732 200.033 167.855 200.067C167.977 200.101 168.084 200.178 168.155 200.284V200.424C169.443 203.224 170.647 205.758 171.543 207.956C171.599 208.088 171.601 208.236 171.549 208.37C171.497 208.504 171.394 208.611 171.263 208.67L171.053 208.712ZM164.053 193.312C163.949 193.315 163.848 193.287 163.761 193.232C163.673 193.178 163.604 193.098 163.563 193.004C162.303 190.078 161.295 187.488 160.497 185.094C160.452 184.962 160.46 184.818 160.52 184.692C160.58 184.566 160.688 184.469 160.819 184.422C160.952 184.377 161.098 184.388 161.224 184.451C161.35 184.514 161.446 184.624 161.491 184.758C162.275 187.124 163.269 189.686 164.529 192.584C164.556 192.647 164.571 192.715 164.571 192.784C164.572 192.853 164.559 192.922 164.533 192.986C164.507 193.049 164.468 193.108 164.419 193.156C164.371 193.205 164.312 193.244 164.249 193.27C164.202 193.319 164.144 193.358 164.081 193.382L164.053 193.312ZM158.929 177.268C158.803 177.266 158.683 177.22 158.588 177.138C158.493 177.056 158.43 176.943 158.411 176.82C158.17 175.32 158.049 173.803 158.047 172.284C158.035 170.926 158.157 169.571 158.411 168.238C158.451 168.113 158.536 168.008 158.648 167.943C158.761 167.877 158.894 167.855 159.022 167.881C159.15 167.907 159.264 167.979 159.342 168.083C159.421 168.188 159.458 168.318 159.447 168.448C159.204 169.712 159.087 170.997 159.097 172.284C159.101 173.751 159.218 175.216 159.447 176.666C159.463 176.802 159.428 176.94 159.348 177.052C159.267 177.163 159.147 177.24 159.013 177.268H158.929ZM162.583 161.364C162.461 161.367 162.342 161.327 162.247 161.252C162.15 161.152 162.096 161.019 162.096 160.881C162.096 160.742 162.15 160.609 162.247 160.51C164.126 158.314 166.413 156.503 168.981 155.176C169.103 155.11 169.247 155.096 169.38 155.135C169.514 155.174 169.627 155.264 169.695 155.386C169.755 155.511 169.766 155.654 169.724 155.787C169.682 155.92 169.592 156.032 169.471 156.1C167.025 157.364 164.848 159.09 163.059 161.182C163.012 161.259 162.947 161.323 162.868 161.367C162.789 161.411 162.701 161.434 162.611 161.434L162.583 161.364ZM219.031 154.504H218.919C216.231 153.944 213.445 153.468 210.631 153.104C210.562 153.095 210.496 153.073 210.437 153.039C210.377 153.004 210.325 152.958 210.283 152.904C210.241 152.849 210.211 152.786 210.194 152.72C210.177 152.653 210.173 152.584 210.183 152.516C210.191 152.447 210.213 152.381 210.248 152.322C210.282 152.262 210.328 152.21 210.383 152.168C210.437 152.127 210.5 152.096 210.566 152.079C210.633 152.062 210.702 152.058 210.771 152.068C213.571 152.432 216.371 152.908 219.171 153.468C219.296 153.497 219.407 153.57 219.482 153.674C219.558 153.779 219.593 153.907 219.581 154.036C219.569 154.164 219.511 154.283 219.417 154.372C219.324 154.461 219.201 154.512 219.073 154.518L219.031 154.504ZM177.031 153.314C176.963 153.321 176.894 153.315 176.828 153.296C176.762 153.276 176.701 153.244 176.648 153.202C176.595 153.159 176.55 153.106 176.517 153.046C176.485 152.986 176.464 152.92 176.457 152.852C176.449 152.784 176.455 152.715 176.475 152.649C176.494 152.583 176.526 152.522 176.569 152.469C176.612 152.416 176.665 152.371 176.725 152.338C176.785 152.306 176.851 152.285 176.919 152.278C179.683 151.657 182.492 151.25 185.319 151.06C185.457 151.052 185.594 151.099 185.698 151.19C185.803 151.282 185.868 151.411 185.879 151.55C185.884 151.619 185.876 151.688 185.854 151.754C185.833 151.82 185.798 151.881 185.752 151.933C185.706 151.986 185.651 152.028 185.588 152.058C185.526 152.089 185.458 152.106 185.389 152.11C182.608 152.289 179.846 152.687 177.129 153.3L177.031 153.314ZM202.231 152.334C199.795 152.166 196.897 151.984 193.831 151.928C193.692 151.924 193.56 151.866 193.463 151.767C193.367 151.668 193.312 151.534 193.313 151.396C193.313 151.326 193.326 151.258 193.353 151.194C193.38 151.13 193.42 151.073 193.469 151.024C193.519 150.976 193.578 150.938 193.642 150.913C193.706 150.888 193.775 150.876 193.845 150.878C196.939 150.948 199.865 151.116 202.245 151.284C202.314 151.287 202.382 151.305 202.444 151.335C202.507 151.365 202.562 151.408 202.608 151.46C202.654 151.512 202.689 151.573 202.71 151.639C202.732 151.705 202.74 151.774 202.735 151.844C202.745 151.97 202.709 152.096 202.635 152.199C202.561 152.301 202.452 152.374 202.329 152.404L202.231 152.334Z" fill="#407BFF"/>
<path d="M81.7044 238C81.6105 238.001 81.5179 237.978 81.4365 237.931C81.3552 237.884 81.288 237.816 81.2424 237.734C80.5344 236.505 79.9032 235.233 79.3524 233.926C79.3249 233.862 79.3104 233.794 79.3096 233.725C79.3088 233.656 79.3219 233.588 79.348 233.524C79.3741 233.46 79.4127 233.402 79.4615 233.353C79.5103 233.304 79.5684 233.266 79.6324 233.24C79.7607 233.188 79.9041 233.188 80.0321 233.241C80.1602 233.293 80.2629 233.393 80.3184 233.52C80.859 234.786 81.4713 236.02 82.1524 237.216C82.2047 237.294 82.2342 237.385 82.2376 237.478C82.2409 237.572 82.2181 237.665 82.1715 237.747C82.1249 237.828 82.0565 237.895 81.974 237.94C81.8915 237.984 81.7981 238.005 81.7044 238Z" fill="#407BFF"/>
<path d="M251.734 348.656H198.59V359.548H251.734V348.656Z" fill="white"/>
<path opacity="0.1" d="M251.734 348.656H198.59V359.548H251.734V348.656Z" fill="black"/>
<path opacity="0.1" d="M220.976 348.656H198.59V359.548H220.976V348.656Z" fill="black"/>
<path opacity="0.1" d="M198.59 350.224H245.896L198.59 351.568V350.224Z" fill="black"/>
<path opacity="0.1" d="M251.735 352.114L210.729 353.136H251.735V352.114Z" fill="black"/>
<path opacity="0.1" d="M200.76 355.166L220.976 354.34L250.698 355.166L220.976 355.628L200.76 355.166Z" fill="black"/>
<path opacity="0.1" d="M198.59 357.476H233.618L198.59 358.302V357.476Z" fill="black"/>
<path opacity="0.1" d="M251.65 358.302L228.256 358.736H251.734L251.65 358.302Z" fill="black"/>
<path d="M244.342 337.764H191.198V348.656H244.342V337.764Z" fill="white"/>
<path opacity="0.1" d="M244.342 337.764H191.198V348.656H244.342V337.764Z" fill="black"/>
<path opacity="0.1" d="M213.584 337.764H191.198V348.656H213.584V337.764Z" fill="black"/>
<path opacity="0.1" d="M191.198 339.332H238.504L191.198 340.662V339.332Z" fill="black"/>
<path opacity="0.1" d="M244.342 341.222L203.336 342.244H244.342V341.222Z" fill="black"/>
<path opacity="0.1" d="M193.354 344.274L213.57 343.434L243.292 344.274L213.57 344.736L193.354 344.274Z" fill="black"/>
<path opacity="0.1" d="M191.198 346.57H226.226L191.198 347.41V346.57Z" fill="black"/>
<path opacity="0.1" d="M244.258 347.41L220.864 347.844H244.342L244.258 347.41Z" fill="black"/>
<path d="M250.404 326.858H197.26V337.75H250.404V326.858Z" fill="white"/>
<path opacity="0.1" d="M250.404 326.858H197.26V337.75H250.404V326.858Z" fill="black"/>
<path opacity="0.1" d="M219.646 326.858H197.26V337.75H219.646V326.858Z" fill="black"/>
<path opacity="0.1" d="M197.26 328.426H244.566L197.26 329.77V328.426Z" fill="black"/>
<path opacity="0.1" d="M250.404 330.316L209.398 331.338H250.404V330.316Z" fill="black"/>
<path opacity="0.1" d="M199.43 333.368L219.646 332.542L249.368 333.368L219.646 333.83L199.43 333.368Z" fill="black"/>
<path opacity="0.1" d="M197.26 335.678H232.288L197.26 336.504V335.678Z" fill="black"/>
<path opacity="0.1" d="M250.334 336.504L226.94 336.938H250.404L250.334 336.504Z" fill="black"/>
<path d="M285.811 359.324L287.183 354.102H343.967L370.105 356.72L371.099 359.324H285.811Z" fill="#263238"/>
<path opacity="0.4" d="M343.967 354.102V359.324H285.811L287.183 354.102H343.967Z" fill="black"/>
<path d="M332.556 329.112C332.632 329.745 332.572 330.387 332.379 330.995C332.186 331.603 331.866 332.162 331.439 332.636C331.012 333.109 330.488 333.486 329.903 333.74C329.318 333.994 328.686 334.12 328.048 334.11H241.08C239.72 334.08 238.418 333.557 237.416 332.637C236.413 331.717 235.78 330.464 235.634 329.112L230.468 273.434C230.412 272.89 230.45 272.341 230.58 271.81C230.822 270.832 231.388 269.966 232.187 269.352C232.986 268.739 233.97 268.416 234.976 268.436H322C323.36 268.465 324.663 268.989 325.665 269.909C326.667 270.828 327.301 272.082 327.446 273.434L332.556 329.112Z" fill="#263238"/>
<path opacity="0.4" d="M327.74 334.11H241.08C239.72 334.08 238.418 333.557 237.416 332.637C236.413 331.718 235.78 330.464 235.634 329.112L230.468 273.434C230.412 272.89 230.45 272.341 230.58 271.81H317.24C318.6 271.84 319.903 272.363 320.905 273.283C321.907 274.203 322.541 275.456 322.686 276.808L327.852 332.486C327.908 333.03 327.87 333.579 327.74 334.11Z" fill="black"/>
<path d="M267.988 299.964H285.978L281.19 351.47L309.638 355.74V359.324H249.718V355.74L261.996 351.47L267.988 299.964Z" fill="#263238"/>
<path opacity="0.1" d="M285.978 299.964L272.65 358.512L261.996 358.19L267.988 299.964H285.978Z" fill="white"/>
<path d="M285.894 583.898H277.326L261.912 369.348H273.294L285.894 583.898Z" fill="#263238"/>
<path opacity="0.4" d="M285.908 583.898H277.326L262.668 380.016L261.912 369.698H273.294L273.91 380.016L285.908 583.898Z" fill="white"/>
<path opacity="0.2" d="M273.91 379.498H262.668L261.912 369.698H273.294L273.91 379.498Z" fill="black"/>
<path d="M348.838 583.898H340.27L338.87 369.348H350.238L348.838 583.898Z" fill="#263238"/>
<path opacity="0.5" d="M350.252 369.698L350.028 404.32L348.852 583.898H340.27L339.094 404.32L338.87 369.698H350.252Z" fill="white"/>
<path opacity="0.2" d="M350.252 369.698L350.028 404.698H339.094L338.87 369.698H350.252Z" fill="black"/>
<path d="M439.894 583.898H431.326L415.912 369.348H427.294L439.894 583.898Z" fill="#263238"/>
<path opacity="0.5" d="M439.908 583.898H431.326L416.668 380.016L415.912 369.698H427.294L427.91 380.016L439.908 583.898Z" fill="white"/>
<path opacity="0.2" d="M427.91 379.498H416.668L415.912 369.698H427.294L427.91 379.498Z" fill="black"/>
<path d="M187.782 583.898H179.214L191.814 369.348H203.196L187.782 583.898Z" fill="#263238"/>
<path opacity="0.5" d="M203.196 369.698L202.44 380.016L187.782 583.898H179.214L191.198 380.016L191.814 369.698H203.196Z" fill="white"/>
<path opacity="0.2" d="M191.814 369.698H203.196L202.44 379.498H191.198L191.814 369.698Z" fill="black"/>
<path d="M182.798 364H436.31V371.714C436.31 372.111 436.232 372.504 436.08 372.871C435.928 373.238 435.705 373.571 435.424 373.852C435.143 374.133 434.81 374.356 434.443 374.508C434.076 374.66 433.683 374.738 433.286 374.738H185.822C185.02 374.738 184.251 374.419 183.684 373.852C183.116 373.285 182.798 372.516 182.798 371.714V364Z" fill="#407BFF"/>
<path opacity="0.6" d="M182.798 364H436.31V371.714C436.31 372.111 436.232 372.504 436.08 372.871C435.928 373.238 435.705 373.571 435.424 373.852C435.143 374.133 434.81 374.356 434.443 374.508C434.076 374.66 433.683 374.738 433.286 374.738H185.822C185.02 374.738 184.251 374.419 183.684 373.852C183.116 373.285 182.798 372.516 182.798 371.714V364Z" fill="white"/>
<path opacity="0.2" d="M436.31 363.986H182.798V369.362H436.31V363.986Z" fill="black"/>
<path d="M441.63 365.4H177.478C176.676 365.4 175.907 365.081 175.34 364.514C174.773 363.947 174.454 363.178 174.454 362.376C174.454 361.573 174.772 360.802 175.339 360.233C175.906 359.663 176.675 359.342 177.478 359.338H441.63C442.433 359.342 443.203 359.663 443.769 360.233C444.336 360.802 444.654 361.573 444.654 362.376C444.654 363.178 444.336 363.947 443.768 364.514C443.201 365.081 442.432 365.4 441.63 365.4Z" fill="#407BFF"/>
<path opacity="0.6" d="M441.63 365.4H177.478C176.676 365.4 175.907 365.081 175.34 364.514C174.773 363.947 174.454 363.178 174.454 362.376C174.454 361.573 174.772 360.802 175.339 360.233C175.906 359.663 176.675 359.342 177.478 359.338H441.63C442.433 359.342 443.203 359.663 443.769 360.233C444.336 360.802 444.654 361.573 444.654 362.376C444.654 363.178 444.336 363.947 443.768 364.514C443.201 365.081 442.432 365.4 441.63 365.4Z" fill="white"/>
<path d="M379.134 350L382.382 345.128C382.702 344.649 383.135 344.257 383.643 343.986C384.151 343.715 384.718 343.573 385.294 343.574H389.41C389.752 343.575 390.091 343.627 390.418 343.728L405.104 348.18C405.939 348.429 406.649 348.984 407.092 349.734L409.206 353.276L379.134 350Z" fill="#407BFF"/>
<path opacity="0.2" d="M409.206 353.276L387.8 350.952L379.106 350L382.354 345.128C382.675 344.649 383.108 344.257 383.616 343.986C384.124 343.715 384.691 343.573 385.266 343.574H389.382C389.729 343.576 390.073 343.628 390.404 343.728L390.726 343.826L405.076 348.18C405.916 348.427 406.631 348.982 407.078 349.734L409.206 353.276Z" fill="black"/>
<path opacity="0.2" d="M409.206 353.276L387.8 350.952L390.726 343.826L405.076 348.18C405.915 348.427 406.63 348.982 407.078 349.734L409.206 353.276Z" fill="black"/>
<path d="M419.37 358.862V359.324H373.982L375.662 352.758C375.974 351.552 376.678 350.484 377.665 349.723C378.651 348.962 379.863 348.552 381.108 348.558H401.24C401.91 348.554 402.574 348.673 403.2 348.908L405.72 349.846L415.716 353.57C416.795 353.97 417.725 354.692 418.379 355.639C419.033 356.586 419.379 357.711 419.37 358.862Z" fill="#407BFF"/>
<path opacity="0.2" d="M419.37 358.862V359.324H400.736L401.73 352.226C401.794 351.786 401.956 351.365 402.203 350.996C402.451 350.626 402.778 350.317 403.16 350.09C403.543 349.863 403.971 349.725 404.414 349.685C404.857 349.645 405.303 349.705 405.72 349.86L415.716 353.584C416.793 353.983 417.721 354.703 418.375 355.647C419.028 356.591 419.376 357.713 419.37 358.862Z" fill="black"/>
<path d="M403.634 354.508L409.57 336.714C409.628 336.533 409.725 336.366 409.854 336.226C409.983 336.086 410.141 335.977 410.317 335.905C410.493 335.832 410.683 335.8 410.873 335.809C411.064 335.818 411.249 335.869 411.418 335.958C411.676 336.106 411.88 336.332 412.001 336.604C412.122 336.876 412.153 337.179 412.09 337.47L407.092 356.454C407.092 356.454 403.774 357.798 403.634 354.508Z" fill="#263238"/>
<path opacity="0.2" d="M379.134 357.854H376.502L377.006 355.264H379.638L379.134 357.854Z" fill="black"/>
<path opacity="0.2" d="M383.054 357.756H380.422L380.926 355.166H383.558L383.054 357.756Z" fill="black"/>
</svg>
