<svg width="203" height="43" viewBox="0 0 203 43" fill="none" xmlns="http://www.w3.org/2000/svg">
<path d="M102.028 13.497C102.152 9.94673 103.007 7.04496 104.344 4.78106V1.76568H102.568C98.9772 1.76568 95.9382 3.8142 94.1712 8.44141H94.0678V2.27455H84.8594V39.881H94.0698V24.6994C94.0698 18.2556 95.3363 13.3432 100.447 13.3432C101.004 13.3491 101.524 13.3964 102.028 13.497ZM171.76 13.3597C172.525 10.0361 173.766 7.07573 175.379 4.70059V1.76272H173.606C170.014 1.76272 166.978 3.81005 165.202 8.43549H165.103V2.27455H155.888V39.881H165.103V24.6994C165.103 18.2556 166.373 13.3432 171.484 13.3432L171.76 13.3597ZM120.732 11.9497C119.311 10.8503 117.334 10.1171 115.761 10.1171C114.704 10.1171 112.879 10.7716 112.879 12.6828C112.879 15.2509 115.761 15.6148 117.035 15.9899C121.328 17.2325 124.576 20.1674 124.576 27.1225C124.576 37.0159 118.349 41.1343 112.321 41.1343C108.624 41.1343 104.987 39.5928 101.844 36.8059L105.184 27.4893C107.054 29.4029 110.193 31.3023 112.471 31.3023C113.636 31.3023 115.356 30.4994 115.356 28.4461C115.356 25.5136 112.471 25.3597 109.582 24.2627C106.701 23.1633 103.819 21.1154 103.819 14.3698C103.819 5.13135 109.582 1.03254 115.263 1.03254C118.198 1.03254 121.136 1.68935 123.813 3.4497L120.732 11.9497ZM203 39.881H193.789V35.6976H193.688C192.068 39.436 188.872 41.1201 185.841 41.1201C178.142 41.1201 172.73 31.8088 172.73 21.0313C172.73 10.2651 178.046 1.02367 185.737 1.02367C188.722 1.02367 191.865 2.6355 193.788 5.93135V2.27455H202.996L203 39.881H203ZM182.247 21.1124C182.247 25.8745 184.427 29.5402 188.168 29.5402C191.912 29.5402 194.083 25.8804 194.083 21.1124C194.083 16.4935 191.912 12.6095 188.168 12.6095C184.427 12.613 182.247 16.4935 182.247 21.1124ZM154.436 23.3171H135.044C135.044 28.7372 137.023 31.6662 140.818 31.6662C142.791 31.6662 144.207 30.7177 145.222 28.2224H154.082C152.614 37.094 146.791 41.126 140.871 41.126C132.271 41.126 125.843 34.0834 125.843 21.1154C125.843 8.58105 131.758 1.03254 140.211 1.03254C149.22 1.03254 154.439 9.09881 154.439 21.9213L154.435 23.3177L154.436 23.3171ZM145.88 15.6148C145.423 12.0225 143.145 9.6775 140.667 9.6775C137.981 9.6775 135.763 11.7231 135.198 15.6148H145.88ZM55.5636 20.458C55.5537 20.1367 55.5399 19.8158 55.5223 19.4952V19.484C55.3156 15.9952 54.5412 12.7302 53.2274 9.78105C52.6487 8.48117 51.9755 7.28023 51.22 6.19999C50.124 4.63017 48.8551 3.33195 47.4249 2.30532C45.2727 0.775147 42.8948 0.00295857 40.3574 0.00295857C40.1094 0.00295857 39.8498 0.00828402 39.5886 0.0224852C37.807 0.142603 36.0833 0.646153 34.4631 1.53313C32.8293 2.41183 31.4066 3.57278 30.243 4.96627C30.0065 5.24615 29.7489 5.58993 29.4726 5.96804L29.2731 6.25857L29.0008 6.68934H29.0044L28.8768 6.87691L28.8148 6.97751L28.4896 7.48697C28.2553 7.87921 28.0272 8.27951 27.8055 8.68756L27.8035 8.68165L27.7955 8.6704C27.3503 9.47632 26.9389 10.31 26.636 11.0597C26.4299 11.544 26.2307 12.0347 26.0385 12.5313L23.3827 20.5254L23.3863 20.5307L23.2471 20.9367L22.9538 21.8207C22.3714 23.5751 21.7473 25.3236 21.0497 26.7674C19.4954 29.3047 17.7384 30.5473 15.4789 30.5473C15.3207 30.5473 15.1593 30.5355 14.9939 30.5219C13.6328 30.4408 12.4657 29.9627 11.4302 29.0503C11.321 28.9542 11.2136 28.8536 11.1082 28.7485C10.2627 27.9118 9.61433 26.8372 9.12936 25.497C8.58238 23.9775 8.33989 22.4248 8.37408 20.7799C8.37567 20.7349 8.37766 20.6958 8.37766 20.6591C8.4508 18.0408 9.12181 16.0035 10.4734 14.2438C10.7951 13.8332 11.1404 13.4653 11.5053 13.1444C11.5558 13.0994 11.6067 13.0574 11.6576 13.0183C12.6613 12.2041 13.8042 11.7988 15.114 11.7988L15.5218 11.8154C17.6028 11.9331 19.208 12.9012 20.488 14.7893L24.5029 4.05976C23.5421 3.10295 22.4577 2.27988 21.2624 1.61124C21.217 1.58639 21.1701 1.55799 21.1232 1.53609C20.9801 1.46035 20.8394 1.38225 20.6927 1.31183C19.4222 0.679881 18.0894 0.291124 16.7175 0.114793C16.6834 0.105917 16.646 0.100592 16.6122 0.0952661C16.4015 0.0751478 16.1873 0.0360946 15.977 0.0224852C15.7482 0.00945154 15.5194 0.00195548 15.2905 0H15.1605C12.6362 0.0136095 10.2909 0.783431 8.1459 2.30769C5.74371 4.03136 3.79628 6.54141 2.3529 9.77514C0.913495 13.0106 0.127605 16.6006 0.0151079 20.4532C0.00544054 20.7795 0.000404213 21.106 2.24164e-06 21.4325C-0.00198534 26.8201 1.31777 31.5597 3.94138 35.5384C6.68026 39.713 10.242 41.9627 14.5181 42.2283C14.7924 42.2449 15.0635 42.2562 15.3338 42.2562C17.7531 42.2562 19.9915 41.6153 21.9989 40.3343C22.501 40.0147 22.988 39.6402 23.4857 39.2236C23.7568 38.9911 24.0124 38.7449 24.266 38.4822L24.454 38.2946L24.7696 37.9727C25.1465 37.5664 25.5074 37.1282 25.8505 36.6603L25.9709 36.4899C26.1747 36.2041 26.3739 35.9111 26.5684 35.6112L27.2883 34.4L27.5626 33.8875L27.6906 33.6082L27.8186 33.3337C28.8879 30.6591 32.369 20.9254 32.369 20.9254V20.9059L32.5757 20.3124L32.7486 19.8479C33.2618 18.4574 33.6323 17.4698 34.1228 16.4319L34.1359 16.4012C35.2808 13.9308 37.2485 12.1704 39.568 11.8745C43.4589 11.3763 46.8684 15.181 47.1824 20.3739C47.4944 25.5668 44.5922 30.1804 40.7013 30.6816C39.8912 30.7852 39.1037 30.7041 38.3611 30.4603L38.3424 30.4722C35.4875 29.5875 33.6696 26.4875 32.7732 25.1023L29.0286 35.3508C29.0286 35.3508 30.1926 37.097 30.9896 37.9698C31.7886 38.8396 32.8201 39.6964 33.6434 40.2278C35.6413 41.4982 37.8141 42.2591 40.2143 42.2591C40.4926 42.2591 40.4365 42.2591 40.7259 42.2425C44.998 41.9763 48.8063 39.5396 51.5527 35.365C54.154 31.4006 55.5656 26.8739 55.5787 21.5154V21.3556C55.5765 21.0563 55.5714 20.7571 55.5636 20.458ZM69.8865 41.1514C67.9447 41.1514 66.1837 40.8153 64.6027 40.1437C63.0218 39.4721 61.6723 38.4118 60.554 36.9573C59.4319 35.5017 58.5673 33.6497 57.9583 31.4035C57.3493 29.1568 57.0448 26.4485 57.0448 23.2923V2.26627H65.9297V23.1242C65.9297 25.4887 66.3093 27.2011 67.0666 28.2698C67.8262 29.3408 68.7906 29.8757 69.9597 29.8757C71.155 29.8757 72.1249 29.3775 72.8735 28.3787C73.6176 27.3798 73.9933 25.7236 73.9933 23.3958V2.26568H82.8782V23.0154C82.8782 26.2834 82.5665 29.0615 81.944 31.3473C81.3219 33.6361 80.4442 35.5053 79.3144 36.9597C78.1791 38.4153 76.8129 39.4721 75.2057 40.1467C73.5985 40.8153 71.826 41.1514 69.8865 41.1514Z" fill="#717172"/>
</svg>
