<svg width="700" height="700" viewBox="0 0 700 700" fill="none" xmlns="http://www.w3.org/2000/svg">
<g clip-path="url(#clip0_432_303)">
<path d="M138.979 180.689L190.485 137.432H230.175L282.549 178.628V458.924H138.979V180.689Z" fill="#E0E0E0"/>
<path d="M284.019 458.863H138.979V180.689L140.463 178.668C159.537 152.147 185.012 137.373 211.499 137.472C237.989 137.376 263.467 152.149 282.549 178.668L284.019 180.689V458.863ZM148.611 444.962H274.401V186.649C257.241 163.921 234.797 151.31 211.506 151.31C188.214 151.31 165.77 163.921 148.611 186.649V444.962Z" fill="#FAFAFA"/>
<path d="M207.899 446.7H215.109V353.679H276.219V343.274H215.109V248.131H276.219V237.726H215.109V149.514H207.899V237.726H146.775V248.131H207.899V343.274H146.775V353.679H207.899V446.7Z" fill="#F0F0F0"/>
<path d="M288.834 465.854H134.176V177.84L135.576 175.82C155.727 146.803 183.031 130.508 211.498 130.508C239.964 130.508 267.268 146.803 287.42 175.82L288.82 177.84L288.834 465.854ZM143.794 451.973H279.202V183.639C260.986 158.443 236.729 144.376 211.498 144.376C186.266 144.376 162.01 158.443 143.794 183.639V451.973Z" fill="#F0F0F0"/>
<path d="M536.914 228.371C536.914 228.371 538.314 215.036 531.58 206.49C524.846 197.943 525.434 192.852 527.38 192.205C529.326 191.559 531.076 200.085 534.044 202.429C534.044 202.429 534.128 190.306 531.132 185.76C528.136 181.214 526.54 169.718 529.396 169.597C532.252 169.475 532.56 176.466 533.148 181.477C533.736 186.488 536.928 193.599 536.928 193.599C536.928 193.599 537.558 182.709 539.504 178.204C541.45 173.698 536.256 163.475 538.258 158.969C540.26 154.464 543.858 163.01 543.522 172.648C543.186 182.285 538.776 192.529 539.812 202.57C539.812 202.57 541.772 195.519 543.536 194.872C545.3 194.226 547.078 189.579 548.254 187.841C549.43 186.104 550.928 192.104 548.254 197.661C545.58 203.217 538.776 218.087 539.854 229.988L536.914 228.371Z" fill="#E6E6E6"/>
<path d="M532.897 222.31L530.685 242.292C530.517 243.75 530.572 245.244 530.848 246.668C531.124 248.092 531.613 249.411 532.28 250.532C532.948 251.654 533.778 252.55 534.712 253.158C535.645 253.766 536.66 254.071 537.685 254.051H540.037C541.061 254.071 542.076 253.766 543.01 253.158C543.944 252.55 544.774 251.654 545.441 250.532C546.109 249.411 546.598 248.092 546.873 246.668C547.149 245.244 547.205 243.75 547.037 242.292L544.839 222.31H532.897Z" fill="#E6E6E6"/>
<path d="M566.259 246.676H410.299V258.233H566.259V246.676Z" fill="#E0E0E0"/>
<path d="M424.354 204.045H417.48V246.677H424.354V204.045Z" fill="#EBEBEB"/>
<path d="M457.575 204.045H450.701V246.677H457.575V204.045Z" fill="#EBEBEB"/>
<path d="M495.294 202.963L488.52 204.648L493.537 246.66L500.311 244.975L495.294 202.963Z" fill="#EBEBEB"/>
<path d="M432.866 209.662H425.992V246.677H432.866V209.662Z" fill="#EBEBEB"/>
<path d="M448.657 209.662H441.783V246.677H448.657V209.662Z" fill="#EBEBEB"/>
<path d="M488.53 209.662H481.656V246.677H488.53V209.662Z" fill="#EBEBEB"/>
<path d="M466.597 208.356L459.887 210.508L465.451 246.641L472.161 244.489L466.597 208.356Z" fill="#EBEBEB"/>
<path d="M438.801 201.924H435.371V246.677H438.801V201.924Z" fill="#EBEBEB"/>
<path d="M479.668 201.924H476.238V246.677H479.668V201.924Z" fill="#EBEBEB"/>
<path d="M410.311 344.587H566.271V333.031H410.311V344.587Z" fill="#E0E0E0"/>
<path d="M552.216 333.01H559.09V290.379H552.216V333.01Z" fill="#EBEBEB"/>
<path d="M518.98 333.01H525.854V290.379H518.98V333.01Z" fill="#EBEBEB"/>
<path d="M476.249 331.317L483.023 333.002L488.041 290.991L481.267 289.306L476.249 331.317Z" fill="#EBEBEB"/>
<path d="M543.69 333.01H550.564V295.996H543.69V333.01Z" fill="#EBEBEB"/>
<path d="M527.897 333.01H534.771V295.996H527.897V333.01Z" fill="#EBEBEB"/>
<path d="M488.04 333.01H494.914V295.996H488.04V333.01Z" fill="#EBEBEB"/>
<path d="M504.413 330.817L511.123 332.969L516.687 296.836L509.977 294.684L504.413 330.817Z" fill="#EBEBEB"/>
<path d="M537.767 333.03H541.197V288.277H537.767V333.03Z" fill="#EBEBEB"/>
<path d="M496.902 333.03H500.332V288.277H496.902V333.03Z" fill="#EBEBEB"/>
<path d="M425.278 332.626H458.752V299.269H425.278V332.626Z" fill="#EBEBEB"/>
<path d="M350.001 598.584C499.916 598.584 621.447 591.489 621.447 582.736C621.447 573.984 499.916 566.888 350.001 566.888C200.085 566.888 78.5547 573.984 78.5547 582.736C78.5547 591.489 200.085 598.584 350.001 598.584Z" fill="#F5F5F5"/>
<path d="M368.313 155.148V542.206C368.313 543.011 368.153 543.808 367.842 544.551C367.532 545.294 367.077 545.967 366.504 546.533C365.93 547.098 365.251 547.544 364.504 547.844C363.757 548.144 362.958 548.293 362.153 548.282H168.953C168.237 548.291 167.526 548.156 166.863 547.887C166.2 547.618 165.596 547.219 165.089 546.714C164.83 546.465 164.6 546.188 164.403 545.888C163.772 544.949 163.44 543.841 163.451 542.71V154.644C163.402 153.347 163.869 152.083 164.751 151.13C165.633 150.177 166.857 149.613 168.155 149.562H223.021C223.59 149.564 224.151 149.698 224.659 149.954C224.836 150.028 225.001 150.127 225.149 150.248C225.457 150.467 225.735 150.726 225.975 151.018C226.214 151.324 226.408 151.664 226.549 152.026L228.831 157.626V157.752C228.97 158.06 229.144 158.351 229.349 158.62C229.708 159.057 230.159 159.409 230.669 159.651C231.18 159.893 231.738 160.019 232.303 160.02H299.601C300.362 160.016 301.104 159.784 301.733 159.355C302.361 158.926 302.847 158.319 303.129 157.612L305.411 152.012C305.686 151.295 306.169 150.677 306.797 150.235C307.425 149.794 308.171 149.55 308.939 149.534H363.007C364.443 149.61 365.795 150.235 366.783 151.28C367.771 152.325 368.318 153.71 368.313 155.148Z" fill="#407BFF"/>
<path d="M368.314 155.148V176.61H163.494V154.644C163.445 153.347 163.912 152.083 164.794 151.13C165.676 150.177 166.9 149.613 168.198 149.562H223.064C223.633 149.564 224.194 149.698 224.702 149.954C224.878 150.028 225.044 150.127 225.192 150.248C225.5 150.467 225.778 150.726 226.018 151.018C226.257 151.324 226.451 151.664 226.592 152.026L228.874 157.626V157.752C229.013 158.06 229.187 158.351 229.392 158.62C229.751 159.057 230.202 159.409 230.712 159.651C231.223 159.893 231.781 160.019 232.346 160.02H299.602C300.363 160.016 301.105 159.784 301.734 159.355C302.362 158.926 302.848 158.319 303.13 157.612L305.412 152.012C305.687 151.295 306.17 150.677 306.798 150.235C307.426 149.794 308.172 149.55 308.94 149.534H363.008C364.444 149.61 365.796 150.235 366.784 151.28C367.771 152.325 368.319 153.71 368.314 155.148Z" fill="#263238"/>
<path d="M163.493 529.9H368.313V542.206C368.314 543.011 368.154 543.808 367.843 544.551C367.532 545.294 367.077 545.967 366.504 546.533C365.931 547.098 365.251 547.544 364.504 547.844C363.758 548.145 362.958 548.294 362.153 548.282H168.953C168.238 548.291 167.527 548.156 166.864 547.887C166.2 547.618 165.597 547.219 165.089 546.714C164.831 546.465 164.601 546.188 164.403 545.888C163.772 544.95 163.44 543.842 163.451 542.71L163.493 529.9Z" fill="#263238"/>
<path opacity="0.3" d="M368.312 176.61H163.492V529.9H368.312V176.61Z" fill="white"/>
<path d="M176.051 337.4H177.451V345.226H176.051V337.4Z" fill="white"/>
<path d="M185.376 341.768V345.184H183.976V341.95C183.976 340.886 183.444 340.368 182.576 340.368C182.341 340.353 182.105 340.391 181.887 340.478C181.668 340.566 181.472 340.701 181.313 340.874C181.153 341.047 181.034 341.254 180.964 341.479C180.895 341.703 180.876 341.941 180.91 342.174V345.184H179.51V339.206H180.84V339.99C181.1 339.708 181.42 339.486 181.775 339.341C182.131 339.196 182.514 339.13 182.898 339.15C183.242 339.124 183.588 339.176 183.91 339.3C184.232 339.425 184.522 339.619 184.759 339.87C184.996 340.121 185.175 340.421 185.282 340.749C185.388 341.078 185.42 341.426 185.376 341.768Z" fill="white"/>
<path d="M190.764 344.862C190.357 345.151 189.863 345.294 189.364 345.268C189.089 345.304 188.81 345.276 188.547 345.188C188.284 345.1 188.045 344.954 187.846 344.76C187.648 344.565 187.497 344.329 187.403 344.068C187.31 343.807 187.277 343.528 187.306 343.252V340.382H186.312V339.262H187.306V337.862H188.706V339.262H190.4V340.382H188.791V343.182C188.773 343.299 188.783 343.418 188.818 343.531C188.853 343.644 188.913 343.747 188.994 343.833C189.075 343.919 189.174 343.986 189.284 344.029C189.394 344.071 189.513 344.088 189.63 344.078C189.912 344.08 190.187 343.992 190.414 343.826L190.764 344.862Z" fill="white"/>
<path d="M195.37 339.15V340.48H195.048C194.806 340.463 194.563 340.501 194.337 340.59C194.112 340.678 193.908 340.816 193.742 340.993C193.576 341.17 193.451 341.381 193.377 341.612C193.303 341.843 193.28 342.088 193.312 342.328V345.226H191.912V339.248H193.2V340.13C193.442 339.788 193.77 339.517 194.152 339.345C194.533 339.173 194.954 339.106 195.37 339.15Z" fill="white"/>
<path d="M196.001 342.202C195.975 341.566 196.141 340.936 196.477 340.394C196.813 339.853 197.303 339.424 197.884 339.164C198.466 338.903 199.112 338.822 199.74 338.932C200.367 339.042 200.948 339.337 201.406 339.779C201.865 340.221 202.181 340.791 202.313 341.414C202.445 342.038 202.387 342.686 202.148 343.277C201.908 343.867 201.497 344.372 200.968 344.727C200.439 345.082 199.816 345.271 199.179 345.268C198.765 345.291 198.35 345.229 197.962 345.085C197.573 344.94 197.218 344.717 196.92 344.429C196.622 344.141 196.386 343.795 196.228 343.412C196.07 343.029 195.992 342.617 196.001 342.202ZM200.957 342.202C200.937 341.855 200.817 341.522 200.61 341.243C200.404 340.963 200.12 340.751 199.794 340.631C199.468 340.511 199.114 340.49 198.775 340.569C198.437 340.648 198.13 340.825 197.891 341.077C197.652 341.329 197.492 341.646 197.431 341.988C197.37 342.33 197.41 342.682 197.547 343.001C197.684 343.321 197.912 343.593 198.202 343.784C198.492 343.975 198.831 344.078 199.179 344.078C199.423 344.087 199.667 344.044 199.894 343.951C200.121 343.859 200.326 343.72 200.496 343.542C200.665 343.365 200.795 343.154 200.877 342.923C200.958 342.692 200.99 342.447 200.971 342.202H200.957Z" fill="white"/>
<path d="M209.581 336.882V345.184H208.181V344.4C207.939 344.684 207.635 344.909 207.293 345.057C206.951 345.205 206.579 345.272 206.207 345.254C205.431 345.202 204.704 344.857 204.174 344.289C203.643 343.721 203.348 342.972 203.348 342.195C203.348 341.418 203.643 340.67 204.174 340.102C204.704 339.534 205.431 339.189 206.207 339.136C206.565 339.119 206.924 339.181 207.255 339.319C207.587 339.457 207.884 339.667 208.125 339.934V336.868L209.581 336.882ZM208.181 342.202C208.161 341.855 208.041 341.522 207.834 341.242C207.628 340.963 207.344 340.751 207.018 340.631C206.692 340.511 206.338 340.49 206 340.569C205.661 340.648 205.354 340.825 205.115 341.077C204.876 341.329 204.716 341.646 204.655 341.988C204.594 342.33 204.634 342.682 204.771 343.001C204.908 343.321 205.136 343.593 205.426 343.784C205.716 343.975 206.055 344.078 206.403 344.078C206.648 344.087 206.893 344.043 207.12 343.951C207.348 343.859 207.554 343.72 207.724 343.543C207.894 343.366 208.025 343.155 208.109 342.924C208.192 342.693 208.226 342.447 208.209 342.202H208.181Z" fill="white"/>
<path d="M217.211 339.206V345.184H215.811V344.4C215.571 344.675 215.274 344.893 214.94 345.038C214.605 345.184 214.243 345.253 213.879 345.24C213.527 345.272 213.172 345.225 212.841 345.102C212.51 344.979 212.211 344.783 211.965 344.53C211.719 344.276 211.534 343.97 211.421 343.635C211.309 343.301 211.273 342.945 211.317 342.594V339.178H212.717V342.412C212.717 343.49 213.235 344.008 214.117 344.008C214.999 344.008 215.755 343.406 215.755 342.202V339.178L217.211 339.206Z" fill="white"/>
<path d="M218.555 342.202C218.55 341.785 218.632 341.37 218.795 340.986C218.958 340.601 219.199 340.255 219.503 339.968C219.807 339.681 220.167 339.46 220.561 339.32C220.954 339.179 221.372 339.121 221.789 339.15C222.306 339.112 222.822 339.224 223.277 339.472C223.731 339.721 224.104 340.095 224.351 340.55L223.273 341.18C223.121 340.923 222.904 340.709 222.643 340.562C222.383 340.415 222.088 340.338 221.789 340.34C221.292 340.34 220.814 340.538 220.463 340.89C220.111 341.242 219.913 341.719 219.913 342.216C219.913 342.714 220.111 343.191 220.463 343.543C220.814 343.895 221.292 344.092 221.789 344.092C222.088 344.095 222.383 344.018 222.643 343.871C222.904 343.723 223.121 343.51 223.273 343.252L224.351 343.882C224.094 344.329 223.719 344.696 223.267 344.943C222.815 345.19 222.304 345.307 221.789 345.282C221.37 345.31 220.951 345.25 220.556 345.107C220.162 344.963 219.801 344.74 219.498 344.451C219.194 344.161 218.953 343.812 218.791 343.425C218.629 343.038 218.548 342.622 218.555 342.202Z" fill="white"/>
<path d="M229.237 344.862C228.829 345.151 228.336 345.294 227.837 345.268C227.562 345.304 227.283 345.276 227.02 345.188C226.757 345.1 226.517 344.954 226.319 344.76C226.121 344.565 225.97 344.329 225.876 344.068C225.782 343.807 225.749 343.528 225.779 343.252V340.382H224.785V339.262H225.779V337.862H227.179V339.262H228.789V340.382H227.221V343.182C227.204 343.299 227.213 343.418 227.248 343.531C227.284 343.644 227.344 343.747 227.425 343.833C227.506 343.919 227.605 343.986 227.715 344.029C227.825 344.071 227.943 344.088 228.061 344.078C228.343 344.08 228.618 343.992 228.845 343.826L229.237 344.862Z" fill="white"/>
<path d="M230.203 337.4C230.205 337.287 230.229 337.175 230.275 337.071C230.32 336.967 230.386 336.873 230.468 336.795C230.55 336.717 230.647 336.656 230.753 336.616C230.859 336.575 230.972 336.556 231.085 336.56C231.198 336.552 231.311 336.568 231.417 336.605C231.524 336.642 231.622 336.7 231.706 336.776C231.789 336.851 231.857 336.943 231.904 337.046C231.951 337.148 231.978 337.259 231.981 337.372C231.983 337.489 231.961 337.605 231.917 337.713C231.872 337.821 231.805 337.919 231.721 338C231.637 338.082 231.538 338.145 231.428 338.186C231.319 338.227 231.202 338.246 231.085 338.24C230.971 338.246 230.858 338.228 230.751 338.189C230.644 338.149 230.546 338.088 230.464 338.009C230.381 337.931 230.316 337.836 230.271 337.731C230.226 337.627 230.203 337.514 230.203 337.4ZM230.385 339.22H231.785V345.198H230.385V339.22Z" fill="white"/>
<path d="M233.129 342.202C233.104 341.566 233.27 340.936 233.606 340.394C233.942 339.853 234.432 339.424 235.013 339.164C235.595 338.903 236.241 338.822 236.869 338.932C237.496 339.042 238.077 339.337 238.535 339.779C238.994 340.221 239.309 340.791 239.442 341.414C239.574 342.038 239.516 342.686 239.277 343.277C239.037 343.867 238.626 344.372 238.097 344.727C237.568 345.082 236.945 345.271 236.307 345.268C235.893 345.291 235.479 345.229 235.091 345.085C234.702 344.94 234.347 344.717 234.049 344.429C233.751 344.141 233.515 343.795 233.357 343.412C233.198 343.029 233.121 342.617 233.129 342.202ZM238.085 342.202C238.066 341.855 237.946 341.522 237.739 341.243C237.533 340.963 237.249 340.751 236.923 340.631C236.597 340.511 236.243 340.49 235.904 340.569C235.566 340.648 235.259 340.825 235.02 341.077C234.781 341.329 234.621 341.646 234.56 341.988C234.499 342.33 234.539 342.682 234.676 343.001C234.813 343.321 235.041 343.593 235.331 343.784C235.62 343.975 235.96 344.078 236.307 344.078C236.551 344.085 236.794 344.04 237.019 343.947C237.244 343.854 237.447 343.714 237.615 343.537C237.783 343.36 237.911 343.15 237.992 342.92C238.074 342.69 238.105 342.445 238.085 342.202Z" fill="white"/>
<path d="M246.737 341.768V345.184H245.337V341.95C245.337 340.886 244.805 340.368 243.937 340.368C243.702 340.353 243.467 340.391 243.248 340.479C243.03 340.566 242.834 340.702 242.674 340.875C242.514 341.048 242.395 341.254 242.326 341.479C242.256 341.704 242.237 341.941 242.271 342.174V345.184H240.871V339.206H242.201V339.99C242.464 339.707 242.785 339.485 243.143 339.339C243.502 339.194 243.887 339.13 244.273 339.15C244.616 339.129 244.959 339.184 245.278 339.31C245.597 339.437 245.884 339.632 246.119 339.882C246.354 340.131 246.531 340.43 246.638 340.756C246.745 341.082 246.779 341.428 246.737 341.768Z" fill="white"/>
<path opacity="0.7" d="M357.042 213.388H175V328.72H357.042V213.388Z" fill="white"/>
<path opacity="0.5" d="M357.042 324.996H175V328.72H357.042V324.996Z" fill="black"/>
<path opacity="0.6" d="M238.07 324.996H175V328.72H238.07V324.996Z" fill="white"/>
<path d="M242.914 326.984C242.914 327.86 242.655 328.716 242.168 329.443C241.681 330.171 240.989 330.738 240.18 331.073C239.371 331.407 238.481 331.494 237.622 331.322C236.764 331.15 235.975 330.727 235.357 330.107C234.739 329.487 234.319 328.698 234.15 327.839C233.981 326.979 234.07 326.09 234.407 325.281C234.744 324.473 235.313 323.783 236.043 323.299C236.772 322.814 237.629 322.557 238.504 322.56C239.085 322.56 239.659 322.675 240.195 322.897C240.731 323.12 241.218 323.446 241.628 323.857C242.037 324.268 242.362 324.755 242.583 325.292C242.804 325.829 242.916 326.404 242.914 326.984Z" fill="white"/>
<path opacity="0.4" d="M339.123 338.31L346.389 345.576L353.641 338.31H339.123Z" fill="white"/>
<path opacity="0.4" d="M357.042 361.312H175V426.426H357.042V361.312Z" fill="white"/>
<path opacity="0.3" d="M247.564 368.774H183.598V418.978H247.564V368.774Z" fill="black"/>
<path d="M255.977 375.354C256.006 374.733 256.217 374.133 256.584 373.631C256.95 373.128 257.456 372.744 258.039 372.526C258.622 372.309 259.256 372.267 259.863 372.406C260.469 372.546 261.021 372.86 261.451 373.31L260.751 373.968C260.554 373.748 260.312 373.573 260.041 373.454C259.771 373.336 259.478 373.277 259.183 373.282C258.836 373.283 258.495 373.37 258.19 373.537C257.886 373.703 257.629 373.944 257.442 374.235C257.254 374.527 257.143 374.862 257.119 375.208C257.094 375.554 257.157 375.9 257.301 376.216C257.445 376.531 257.666 376.805 257.944 377.013C258.222 377.221 258.547 377.356 258.89 377.405C259.234 377.454 259.584 377.417 259.909 377.296C260.234 377.175 260.523 376.974 260.751 376.712L261.451 377.398C261.021 377.848 260.469 378.163 259.863 378.302C259.256 378.441 258.622 378.399 258.039 378.182C257.456 377.964 256.95 377.58 256.584 377.077C256.217 376.575 256.006 375.976 255.977 375.354Z" fill="white"/>
<path d="M266.826 375.718V378.294H265.776V375.858C265.776 375.06 265.384 374.668 264.712 374.668C264.532 374.658 264.351 374.688 264.183 374.756C264.016 374.825 263.866 374.93 263.745 375.065C263.624 375.199 263.535 375.359 263.484 375.533C263.433 375.707 263.423 375.89 263.452 376.068V378.336H262.402V372.106H263.452V374.374C263.648 374.18 263.883 374.028 264.141 373.93C264.399 373.831 264.674 373.787 264.95 373.8C265.205 373.781 265.462 373.817 265.701 373.907C265.94 373.997 266.157 374.139 266.336 374.322C266.515 374.504 266.651 374.724 266.736 374.966C266.821 375.207 266.852 375.464 266.826 375.718Z" fill="white"/>
<path d="M271.909 375.662V378.294H270.929V377.748C270.764 377.956 270.549 378.12 270.305 378.225C270.061 378.33 269.794 378.373 269.529 378.35C268.507 378.35 267.863 377.79 267.863 376.95C267.863 376.11 268.367 375.55 269.725 375.55H270.873C270.873 374.934 270.509 374.57 269.767 374.57C269.263 374.555 268.769 374.713 268.367 375.018L267.947 374.248C268.508 373.869 269.175 373.678 269.851 373.702C271.167 373.8 271.909 374.374 271.909 375.662ZM270.859 376.894V376.362H269.781C269.067 376.362 268.871 376.642 268.871 376.964C268.871 377.286 269.193 377.58 269.725 377.58C269.963 377.602 270.201 377.546 270.405 377.423C270.609 377.3 270.768 377.114 270.859 376.894Z" fill="white"/>
<path d="M278.027 376.054C278.043 376.359 277.995 376.663 277.886 376.948C277.777 377.233 277.61 377.492 277.395 377.708C277.18 377.925 276.922 378.093 276.638 378.204C276.353 378.315 276.049 378.364 275.745 378.35C275.482 378.354 275.222 378.302 274.981 378.198C274.74 378.094 274.523 377.941 274.345 377.748V379.918H273.309V373.8H274.303V374.388C274.492 374.185 274.726 374.026 274.985 373.924C275.244 373.822 275.523 373.78 275.801 373.8C276.097 373.794 276.391 373.849 276.666 373.961C276.94 374.072 277.189 374.238 277.398 374.449C277.606 374.66 277.769 374.911 277.877 375.187C277.985 375.463 278.036 375.758 278.027 376.054ZM276.949 376.054C276.962 375.874 276.938 375.693 276.878 375.523C276.818 375.352 276.723 375.196 276.599 375.064C276.475 374.933 276.325 374.828 276.159 374.758C275.993 374.687 275.813 374.652 275.633 374.654C275.261 374.654 274.905 374.802 274.643 375.064C274.38 375.327 274.233 375.683 274.233 376.054C274.233 376.426 274.38 376.782 274.643 377.044C274.905 377.307 275.261 377.454 275.633 377.454C275.813 377.457 275.993 377.422 276.159 377.351C276.325 377.28 276.475 377.176 276.599 377.044C276.723 376.913 276.818 376.756 276.878 376.586C276.938 376.416 276.962 376.235 276.949 376.054Z" fill="white"/>
<path d="M281.724 378C281.432 378.214 281.077 378.323 280.716 378.308C280.509 378.332 280.301 378.309 280.104 378.242C279.908 378.175 279.729 378.066 279.58 377.921C279.431 377.776 279.317 377.6 279.244 377.406C279.172 377.211 279.144 377.003 279.162 376.796V374.64H278.434V373.8H279.162V372.778H280.212V373.8H281.402V374.64H280.198V376.768C280.185 376.856 280.192 376.945 280.218 377.03C280.245 377.114 280.29 377.192 280.35 377.257C280.411 377.321 280.485 377.371 280.568 377.403C280.651 377.435 280.739 377.448 280.828 377.44C281.038 377.444 281.244 377.381 281.416 377.258L281.724 378Z" fill="white"/>
<path d="M286.637 376.39H283.109C283.185 376.701 283.366 376.976 283.621 377.169C283.876 377.363 284.189 377.463 284.509 377.454C284.734 377.464 284.958 377.426 285.168 377.344C285.377 377.262 285.568 377.138 285.727 376.978L286.287 377.622C285.947 377.959 285.518 378.192 285.051 378.294C284.583 378.396 284.096 378.363 283.647 378.199C283.197 378.034 282.804 377.745 282.513 377.365C282.222 376.986 282.045 376.531 282.003 376.054C281.995 375.748 282.05 375.444 282.164 375.16C282.279 374.876 282.45 374.618 282.668 374.403C282.885 374.188 283.145 374.02 283.43 373.909C283.716 373.798 284.021 373.747 284.327 373.758C284.631 373.746 284.935 373.798 285.219 373.91C285.502 374.022 285.759 374.193 285.973 374.41C286.187 374.628 286.352 374.888 286.459 375.173C286.566 375.459 286.613 375.764 286.595 376.068C286.651 376.152 286.637 376.278 286.637 376.39ZM283.109 375.69H285.601C285.546 375.394 285.39 375.126 285.159 374.932C284.927 374.739 284.635 374.634 284.334 374.634C284.032 374.634 283.74 374.739 283.509 374.932C283.277 375.126 283.121 375.394 283.067 375.69H283.109Z" fill="white"/>
<path d="M290.248 373.8V374.794H290.01C289.827 374.782 289.644 374.811 289.474 374.878C289.304 374.946 289.151 375.05 289.026 375.184C288.901 375.319 288.808 375.479 288.753 375.653C288.698 375.828 288.683 376.013 288.708 376.194V378.378H287.658V373.8H288.652V374.458C288.841 374.223 289.087 374.039 289.366 373.924C289.645 373.809 289.948 373.767 290.248 373.8Z" fill="white"/>
<path d="M293.189 375.354C293.189 373.422 294.239 372.33 295.639 372.33C297.039 372.33 298.103 373.422 298.103 375.354C298.103 377.286 297.039 378.378 295.639 378.378C294.239 378.378 293.189 377.286 293.189 375.354ZM296.997 375.354C296.997 373.954 296.437 373.282 295.597 373.282C294.757 373.282 294.197 373.926 294.197 375.354C294.197 376.782 294.757 377.426 295.597 377.426C296.437 377.426 296.997 376.768 296.997 375.354Z" fill="white"/>
<path d="M300.832 372.4V378.28H299.74V373.31H298.494V372.4H300.832Z" fill="white"/>
<path opacity="0.5" d="M340.677 384.174H257.153C256.303 384.174 255.613 384.864 255.613 385.714V385.798C255.613 386.649 256.303 387.338 257.153 387.338H340.677C341.528 387.338 342.217 386.649 342.217 385.798V385.714C342.217 384.864 341.528 384.174 340.677 384.174Z" fill="white"/>
<path opacity="0.5" d="M325.277 391.174H257.153C256.303 391.174 255.613 391.864 255.613 392.714V392.798C255.613 393.649 256.303 394.338 257.153 394.338H325.277C326.128 394.338 326.817 393.649 326.817 392.798V392.714C326.817 391.864 326.128 391.174 325.277 391.174Z" fill="white"/>
<path opacity="0.6" d="M204.988 384.706V403.032L223.314 393.876L204.988 384.706Z" fill="white"/>
<path d="M355.419 205.268L348.937 199.682L342.469 205.268V189.91H355.419V205.268Z" fill="#407BFF"/>
<path d="M332.052 189.91H322.252C321.61 189.91 320.994 190.165 320.539 190.62C320.085 191.074 319.83 191.69 319.83 192.332V198.996C319.834 199.637 320.09 200.251 320.544 200.705C320.997 201.158 321.611 201.414 322.252 201.418H325.556V205.268L328.076 201.418H331.996C332.638 201.418 333.254 201.163 333.709 200.709C334.163 200.255 334.418 199.639 334.418 198.996V192.332C334.422 191.698 334.176 191.089 333.733 190.635C333.29 190.182 332.686 189.921 332.052 189.91Z" fill="#407BFF"/>
<path d="M312.509 191.8C310.717 188.846 307.245 189.952 305.439 192.234C303.661 189.938 300.189 188.79 298.355 191.716C295.275 196.672 301.547 201.32 304.529 203.14L305.369 203.658L306.223 203.154C309.205 201.306 315.547 196.742 312.509 191.8Z" fill="#407BFF"/>
<path d="M240.226 200.732H178.388C176.517 200.732 175 202.249 175 204.12V204.33C175 206.202 176.517 207.718 178.388 207.718H240.226C242.097 207.718 243.614 206.202 243.614 204.33V204.12C243.614 202.249 242.097 200.732 240.226 200.732Z" fill="#407BFF"/>
<path d="M260.414 189.91H178.388C176.517 189.91 175 191.427 175 193.298V193.508C175 195.379 176.517 196.896 178.388 196.896H260.414C262.285 196.896 263.802 195.379 263.802 193.508V193.298C263.802 191.427 262.285 189.91 260.414 189.91Z" fill="#407BFF"/>
<path opacity="0.4" d="M357.042 434.126H175V499.24H357.042V434.126Z" fill="white"/>
<path opacity="0.3" d="M247.564 441.574H183.598V491.778H247.564V441.574Z" fill="black"/>
<path d="M255.977 448.154C256.006 447.533 256.217 446.934 256.584 446.431C256.95 445.928 257.456 445.544 258.039 445.327C258.622 445.109 259.256 445.067 259.863 445.207C260.469 445.346 261.021 445.66 261.451 446.11L260.751 446.782C260.554 446.562 260.312 446.387 260.041 446.269C259.771 446.15 259.478 446.092 259.183 446.096C258.897 446.073 258.61 446.109 258.339 446.202C258.068 446.295 257.819 446.443 257.609 446.637C257.398 446.831 257.23 447.067 257.115 447.329C257 447.592 256.94 447.875 256.94 448.161C256.94 448.448 257 448.731 257.115 448.993C257.23 449.256 257.398 449.491 257.609 449.685C257.819 449.88 258.068 450.028 258.339 450.121C258.61 450.214 258.897 450.25 259.183 450.226C259.479 450.229 259.772 450.167 260.042 450.046C260.313 449.926 260.554 449.748 260.751 449.526L261.451 450.198C261.021 450.649 260.469 450.963 259.863 451.102C259.256 451.241 258.622 451.2 258.039 450.982C257.456 450.764 256.95 450.38 256.584 449.878C256.217 449.375 256.006 448.776 255.977 448.154Z" fill="white"/>
<path d="M266.826 448.532V451.094H265.776V448.658C265.776 447.86 265.384 447.482 264.712 447.482C264.531 447.468 264.349 447.496 264.18 447.564C264.011 447.632 263.86 447.737 263.739 447.873C263.617 448.008 263.528 448.169 263.478 448.344C263.429 448.519 263.42 448.703 263.452 448.882V451.15H262.402V444.92H263.452V447.188C263.65 446.996 263.885 446.846 264.143 446.748C264.4 446.649 264.675 446.604 264.95 446.614C265.205 446.597 265.46 446.635 265.698 446.726C265.936 446.817 266.152 446.958 266.331 447.14C266.509 447.323 266.645 447.542 266.731 447.782C266.817 448.022 266.849 448.278 266.826 448.532Z" fill="white"/>
<path d="M271.909 448.462V451.094H270.929V450.548C270.765 450.758 270.551 450.924 270.307 451.029C270.062 451.134 269.794 451.176 269.529 451.15C268.507 451.15 267.863 450.59 267.863 449.75C267.863 448.91 268.367 448.35 269.725 448.35H270.873C270.873 447.734 270.509 447.384 269.767 447.384C269.266 447.371 268.774 447.523 268.367 447.818L267.947 447.062C268.503 446.671 269.172 446.475 269.851 446.502C271.167 446.6 271.909 447.174 271.909 448.462ZM270.859 449.694V449.176H269.781C269.067 449.176 268.871 449.442 268.871 449.764C268.871 450.086 269.193 450.394 269.725 450.394C269.964 450.412 270.202 450.354 270.406 450.228C270.61 450.102 270.768 449.915 270.859 449.694Z" fill="white"/>
<path d="M278.027 448.854C278.043 449.159 277.995 449.463 277.886 449.748C277.777 450.033 277.61 450.292 277.395 450.508C277.18 450.724 276.922 450.893 276.638 451.004C276.353 451.114 276.049 451.164 275.745 451.15C275.482 451.153 275.222 451.101 274.981 450.998C274.74 450.894 274.523 450.741 274.345 450.548V452.718H273.309V446.6H274.303V447.188C274.49 446.982 274.723 446.822 274.983 446.72C275.243 446.618 275.523 446.577 275.801 446.6C276.097 446.594 276.391 446.649 276.666 446.76C276.94 446.872 277.189 447.038 277.398 447.249C277.606 447.46 277.769 447.711 277.877 447.987C277.985 448.263 278.036 448.558 278.027 448.854ZM276.949 448.854C276.962 448.674 276.938 448.493 276.878 448.322C276.818 448.152 276.723 447.996 276.599 447.864C276.475 447.733 276.325 447.628 276.159 447.557C275.993 447.487 275.813 447.452 275.633 447.454C275.261 447.454 274.905 447.602 274.643 447.864C274.38 448.127 274.233 448.483 274.233 448.854C274.233 449.225 274.38 449.582 274.643 449.844C274.905 450.107 275.261 450.254 275.633 450.254C275.813 450.257 275.993 450.221 276.159 450.151C276.325 450.08 276.475 449.976 276.599 449.844C276.723 449.712 276.818 449.556 276.878 449.386C276.938 449.215 276.962 449.034 276.949 448.854Z" fill="white"/>
<path d="M281.724 450.8C281.428 451.003 281.074 451.106 280.716 451.094C280.509 451.118 280.301 451.095 280.104 451.028C279.908 450.961 279.729 450.851 279.58 450.707C279.431 450.562 279.317 450.386 279.244 450.191C279.172 449.997 279.144 449.789 279.162 449.582V447.426H278.434V446.6H279.162V445.578H280.212V446.6H281.402V447.44H280.198V449.582C280.184 449.669 280.191 449.758 280.217 449.842C280.244 449.926 280.289 450.003 280.35 450.067C280.411 450.13 280.486 450.179 280.569 450.209C280.651 450.239 280.74 450.25 280.828 450.24C281.038 450.244 281.244 450.18 281.416 450.058L281.724 450.8Z" fill="white"/>
<path d="M286.637 449.19H283.109C283.183 449.503 283.362 449.782 283.617 449.978C283.872 450.174 284.187 450.277 284.509 450.268C284.735 450.275 284.959 450.235 285.169 450.151C285.379 450.066 285.568 449.939 285.727 449.778L286.287 450.422C285.947 450.759 285.518 450.992 285.051 451.094C284.583 451.196 284.096 451.163 283.647 450.999C283.197 450.834 282.804 450.545 282.513 450.165C282.222 449.786 282.045 449.331 282.003 448.854C281.995 448.548 282.05 448.244 282.164 447.96C282.279 447.676 282.45 447.418 282.668 447.203C282.885 446.988 283.145 446.82 283.43 446.709C283.716 446.598 284.021 446.547 284.327 446.558C284.632 446.548 284.936 446.602 285.22 446.715C285.503 446.829 285.76 447.001 285.973 447.22C286.187 447.439 286.352 447.699 286.459 447.986C286.566 448.272 286.612 448.577 286.595 448.882C286.651 448.966 286.637 449.092 286.637 449.19ZM283.109 448.49H285.601C285.546 448.194 285.39 447.926 285.159 447.733C284.927 447.54 284.635 447.434 284.334 447.434C284.032 447.434 283.74 447.54 283.509 447.733C283.277 447.926 283.121 448.194 283.067 448.49H283.109Z" fill="white"/>
<path d="M290.248 446.6V447.608C290.169 447.595 290.089 447.595 290.01 447.608C289.827 447.593 289.642 447.62 289.471 447.687C289.299 447.753 289.145 447.858 289.02 447.993C288.895 448.127 288.802 448.289 288.748 448.465C288.694 448.641 288.68 448.826 288.708 449.008V451.178H287.658V446.6H288.652V447.258C288.84 447.021 289.085 446.836 289.364 446.721C289.644 446.605 289.948 446.564 290.248 446.6Z" fill="white"/>
<path d="M293.189 448.154C293.189 446.222 294.239 445.13 295.639 445.13C297.039 445.13 298.103 446.222 298.103 448.154C298.103 450.086 297.039 451.178 295.639 451.178C294.239 451.178 293.189 450.086 293.189 448.154ZM296.997 448.154C296.997 446.754 296.437 446.082 295.597 446.082C294.757 446.082 294.197 446.74 294.197 448.154C294.197 449.568 294.757 450.226 295.597 450.226C296.437 450.226 296.997 449.568 296.997 448.154Z" fill="white"/>
<path d="M303.058 450.17V451.094H298.718V450.366L301.056 448.154C301.63 447.608 301.728 447.258 301.728 446.936C301.728 446.39 301.35 446.082 300.636 446.082C300.371 446.067 300.106 446.114 299.862 446.221C299.619 446.328 299.404 446.492 299.236 446.698L298.48 446.11C298.748 445.783 299.09 445.524 299.476 445.354C299.863 445.184 300.285 445.107 300.706 445.13C301.994 445.13 302.806 445.774 302.806 446.824C302.801 447.186 302.71 447.542 302.542 447.862C302.375 448.183 302.134 448.461 301.84 448.672L300.272 450.17H303.058Z" fill="white"/>
<path opacity="0.5" d="M340.677 456.974H257.153C256.303 456.974 255.613 457.664 255.613 458.514V458.598C255.613 459.449 256.303 460.138 257.153 460.138H340.677C341.528 460.138 342.217 459.449 342.217 458.598V458.514C342.217 457.664 341.528 456.974 340.677 456.974Z" fill="white"/>
<path opacity="0.5" d="M325.277 463.974H257.153C256.303 463.974 255.613 464.664 255.613 465.514V465.598C255.613 466.449 256.303 467.138 257.153 467.138H325.277C326.128 467.138 326.817 466.449 326.817 465.598V465.514C326.817 464.664 326.128 463.974 325.277 463.974Z" fill="white"/>
<path opacity="0.6" d="M204.988 457.52V475.846L223.314 466.676L204.988 457.52Z" fill="white"/>
<path d="M194.812 225.302V235.578H192.908V231.168H187.602V235.578H185.684V225.302H187.602V229.502H192.908V225.302H194.812Z" fill="#407BFF"/>
<path d="M196.756 231.658C196.72 230.821 196.935 229.992 197.374 229.278C197.812 228.563 198.455 227.997 199.219 227.651C199.982 227.305 200.832 227.195 201.658 227.336C202.484 227.477 203.25 227.862 203.855 228.441C204.461 229.021 204.88 229.768 205.057 230.588C205.234 231.407 205.162 232.261 204.851 233.039C204.539 233.817 204.001 234.484 203.307 234.954C202.613 235.424 201.794 235.676 200.956 235.676C200.411 235.711 199.864 235.633 199.351 235.446C198.838 235.259 198.369 234.967 197.974 234.589C197.579 234.212 197.267 233.756 197.057 233.252C196.848 232.747 196.745 232.205 196.756 231.658ZM203.252 231.658C203.227 231.205 203.07 230.769 202.8 230.403C202.531 230.038 202.16 229.76 201.733 229.603C201.307 229.446 200.844 229.418 200.402 229.521C199.96 229.625 199.558 229.856 199.245 230.185C198.933 230.514 198.724 230.928 198.644 231.375C198.564 231.822 198.616 232.283 198.795 232.7C198.974 233.118 199.272 233.474 199.651 233.724C200.03 233.974 200.474 234.108 200.928 234.108C201.246 234.115 201.562 234.055 201.855 233.933C202.148 233.81 202.413 233.628 202.632 233.397C202.851 233.167 203.019 232.893 203.126 232.593C203.232 232.294 203.275 231.975 203.252 231.658Z" fill="#407BFF"/>
<path d="M218.877 227.738L215.979 235.578H214.201L212.171 230.174L210.113 235.578H208.349L205.479 227.738H207.201L209.259 233.52L211.429 227.738H212.969L215.083 233.548L217.211 227.738H218.877Z" fill="#407BFF"/>
<path d="M228.9 235.2C228.393 235.569 227.777 235.756 227.15 235.732C226.791 235.779 226.425 235.743 226.081 235.628C225.737 235.513 225.424 235.322 225.164 235.069C224.904 234.816 224.705 234.507 224.581 234.166C224.457 233.826 224.412 233.461 224.448 233.1V229.32H223.146V227.92H224.448V226.128H226.282V227.92H228.382V229.32H226.282V233.044C226.282 233.814 226.66 234.22 227.36 234.22C227.732 234.234 228.098 234.12 228.396 233.898L228.9 235.2Z" fill="#407BFF"/>
<path d="M229.518 231.658C229.481 230.821 229.696 229.992 230.135 229.278C230.574 228.563 231.217 227.997 231.98 227.651C232.744 227.305 233.593 227.195 234.42 227.336C235.246 227.477 236.011 227.862 236.617 228.441C237.223 229.021 237.641 229.768 237.819 230.588C237.996 231.407 237.924 232.261 237.612 233.039C237.3 233.817 236.763 234.484 236.069 234.954C235.375 235.424 234.556 235.676 233.718 235.676C233.172 235.714 232.624 235.636 232.11 235.45C231.596 235.264 231.126 234.972 230.731 234.594C230.336 234.216 230.024 233.76 229.815 233.254C229.606 232.749 229.505 232.205 229.518 231.658ZM236.014 231.658C235.989 231.206 235.832 230.77 235.563 230.405C235.294 230.04 234.924 229.762 234.498 229.604C234.073 229.447 233.611 229.418 233.169 229.52C232.727 229.623 232.325 229.852 232.012 230.18C231.699 230.508 231.488 230.921 231.407 231.367C231.325 231.813 231.376 232.273 231.553 232.691C231.73 233.108 232.025 233.465 232.402 233.717C232.779 233.969 233.222 234.105 233.676 234.108C233.995 234.117 234.312 234.059 234.607 233.937C234.902 233.816 235.168 233.634 235.389 233.403C235.609 233.172 235.779 232.897 235.886 232.597C235.994 232.296 236.037 231.977 236.014 231.658Z" fill="#407BFF"/>
<path d="M185.684 237.902H187.602V248.178H185.684V237.902Z" fill="#407BFF"/>
<path d="M197.919 243.684V248.178H196.085V243.978C196.085 242.578 195.385 241.906 194.209 241.906C193.902 241.889 193.595 241.94 193.31 242.055C193.024 242.171 192.768 242.348 192.559 242.574C192.351 242.8 192.194 243.07 192.102 243.363C192.01 243.657 191.984 243.967 192.025 244.272V248.234H190.191V240.394H191.941V241.402C192.283 241.032 192.703 240.742 193.17 240.554C193.637 240.365 194.14 240.282 194.643 240.31C195.091 240.277 195.54 240.342 195.959 240.502C196.378 240.661 196.757 240.91 197.069 241.232C197.382 241.554 197.62 241.94 197.767 242.364C197.914 242.787 197.966 243.238 197.919 243.684Z" fill="#407BFF"/>
<path d="M199.682 244.258C199.675 243.714 199.781 243.174 199.992 242.672C200.203 242.17 200.516 241.717 200.91 241.341C201.304 240.966 201.771 240.675 202.283 240.488C202.794 240.301 203.339 240.222 203.882 240.254C204.556 240.206 205.229 240.351 205.822 240.674C206.415 240.997 206.903 241.483 207.228 242.074L205.828 242.9C205.63 242.562 205.345 242.283 205.003 242.091C204.661 241.899 204.274 241.801 203.882 241.808C203.232 241.808 202.609 242.066 202.15 242.526C201.69 242.985 201.432 243.608 201.432 244.258C201.432 244.908 201.69 245.531 202.15 245.991C202.609 246.45 203.232 246.708 203.882 246.708C204.274 246.715 204.661 246.618 205.003 246.426C205.345 246.234 205.63 245.954 205.828 245.616L207.228 246.442C206.902 247.034 206.415 247.521 205.822 247.846C205.229 248.171 204.556 248.32 203.882 248.276C203.337 248.309 202.792 248.229 202.279 248.041C201.767 247.853 201.299 247.562 200.905 247.184C200.51 246.807 200.198 246.352 199.988 245.849C199.778 245.345 199.673 244.804 199.682 244.258Z" fill="#407BFF"/>
<path d="M213.39 240.254V242.004C213.25 241.993 213.109 241.993 212.97 242.004C212.652 241.981 212.332 242.028 212.035 242.144C211.738 242.259 211.47 242.439 211.251 242.671C211.033 242.904 210.869 243.182 210.771 243.485C210.673 243.789 210.645 244.11 210.688 244.426V248.234H208.854V240.394H210.604V241.542C210.915 241.103 211.336 240.752 211.825 240.526C212.313 240.3 212.853 240.207 213.39 240.254Z" fill="#407BFF"/>
<path d="M222.208 244.846H216.062C216.18 245.416 216.504 245.922 216.971 246.268C217.438 246.614 218.017 246.776 218.596 246.722C218.991 246.738 219.385 246.67 219.751 246.523C220.118 246.376 220.45 246.153 220.724 245.868L221.704 247.002C221.273 247.567 220.705 248.013 220.055 248.299C219.404 248.585 218.692 248.701 217.985 248.636C217.277 248.572 216.597 248.329 216.009 247.93C215.421 247.531 214.944 246.99 214.622 246.357C214.3 245.723 214.144 245.018 214.169 244.308C214.193 243.598 214.397 242.906 214.762 242.296C215.127 241.687 215.641 241.18 216.255 240.823C216.869 240.465 217.564 240.27 218.274 240.254C218.808 240.232 219.34 240.322 219.837 240.518C220.333 240.714 220.783 241.013 221.156 241.395C221.53 241.776 221.819 242.232 222.005 242.733C222.191 243.233 222.27 243.767 222.236 244.3C222.236 244.454 222.222 244.664 222.208 244.846ZM216.048 243.628H220.486C220.433 243.088 220.173 242.588 219.761 242.233C219.349 241.879 218.817 241.697 218.274 241.724C217.736 241.702 217.209 241.883 216.797 242.23C216.385 242.577 216.118 243.066 216.048 243.6V243.628Z" fill="#407BFF"/>
<path d="M230.342 243.6V248.192H228.606V247.24C228.316 247.607 227.939 247.896 227.508 248.079C227.078 248.262 226.608 248.335 226.142 248.29C224.35 248.29 223.23 247.31 223.23 245.938C223.23 244.566 224.112 243.614 226.478 243.614H228.508V243.488C228.508 242.424 227.864 241.794 226.562 241.794C225.706 241.785 224.871 242.055 224.182 242.564L223.454 241.234C224.431 240.57 225.592 240.232 226.772 240.268C229.04 240.254 230.342 241.318 230.342 243.6ZM228.508 245.742V244.832H226.618C225.372 244.832 225.036 245.294 225.036 245.868C225.036 246.442 225.582 246.96 226.534 246.96C226.951 246.986 227.365 246.881 227.719 246.66C228.073 246.44 228.349 246.114 228.508 245.728V245.742Z" fill="#407BFF"/>
<path d="M231.799 247.394L232.499 245.994C233.344 246.503 234.313 246.769 235.299 246.764C236.461 246.764 236.951 246.442 236.951 245.896C236.951 244.412 232.107 245.812 232.107 242.69C232.107 241.206 233.437 240.24 235.551 240.24C236.571 240.222 237.58 240.453 238.491 240.912L237.791 242.312C237.11 241.908 236.329 241.704 235.537 241.724C234.431 241.724 233.899 242.088 233.899 242.606C233.899 244.188 238.743 242.774 238.743 245.84C238.743 247.24 237.343 248.262 235.187 248.262C233.998 248.305 232.821 248.003 231.799 247.394Z" fill="#407BFF"/>
<path d="M247.591 244.846H241.445C241.563 245.416 241.887 245.922 242.354 246.268C242.821 246.614 243.4 246.776 243.979 246.722C244.374 246.738 244.768 246.67 245.135 246.523C245.501 246.376 245.833 246.153 246.107 245.868L247.101 247.002C246.502 247.591 245.748 247.997 244.926 248.172C244.105 248.347 243.25 248.284 242.464 247.99C241.677 247.696 240.99 247.183 240.485 246.512C239.98 245.841 239.676 245.04 239.611 244.202C239.595 243.669 239.689 243.137 239.888 242.642C240.086 242.146 240.384 241.696 240.764 241.321C241.143 240.945 241.596 240.652 242.094 240.459C242.591 240.266 243.124 240.177 243.657 240.198C244.191 240.176 244.723 240.265 245.22 240.462C245.716 240.658 246.166 240.957 246.54 241.339C246.913 241.72 247.202 242.176 247.388 242.677C247.574 243.177 247.653 243.711 247.619 244.244C247.619 244.454 247.605 244.664 247.591 244.846ZM241.431 243.628H245.883C245.799 243.099 245.528 242.616 245.12 242.268C244.712 241.92 244.193 241.728 243.657 241.728C243.121 241.728 242.602 241.92 242.194 242.268C241.786 242.616 241.515 243.099 241.431 243.628Z" fill="#407BFF"/>
<path d="M192.851 252.938L189.183 261.408C189.017 262.082 188.628 262.678 188.078 263.101C187.529 263.523 186.852 263.746 186.159 263.732C185.394 263.748 184.649 263.49 184.059 263.004L184.787 261.604C185.165 261.961 185.667 262.157 186.187 262.15C186.831 262.15 187.209 261.842 187.587 261.058L187.727 260.75L184.297 252.882H186.201L188.665 258.678L191.143 252.882L192.851 252.938Z" fill="#407BFF"/>
<path d="M193.201 256.858C193.165 256.021 193.38 255.191 193.819 254.477C194.258 253.763 194.9 253.196 195.664 252.85C196.427 252.505 197.277 252.395 198.103 252.536C198.93 252.677 199.695 253.062 200.301 253.641C200.906 254.221 201.325 254.968 201.502 255.787C201.68 256.607 201.608 257.46 201.296 258.238C200.984 259.017 200.446 259.684 199.752 260.154C199.058 260.624 198.239 260.875 197.401 260.876C196.856 260.911 196.309 260.833 195.796 260.645C195.283 260.458 194.814 260.167 194.419 259.789C194.024 259.411 193.712 258.956 193.503 258.451C193.293 257.947 193.19 257.404 193.201 256.858ZM199.697 256.858C199.673 256.405 199.516 255.968 199.246 255.603C198.976 255.238 198.605 254.96 198.179 254.803C197.753 254.646 197.29 254.618 196.847 254.721C196.405 254.825 196.003 255.055 195.691 255.385C195.378 255.714 195.169 256.128 195.089 256.575C195.009 257.022 195.062 257.483 195.241 257.9C195.42 258.317 195.717 258.673 196.096 258.923C196.475 259.174 196.919 259.307 197.373 259.308C197.685 259.305 197.993 259.238 198.278 259.111C198.563 258.985 198.82 258.801 199.031 258.571C199.242 258.342 199.404 258.071 199.507 257.776C199.609 257.482 199.65 257.169 199.627 256.858H199.697Z" fill="#407BFF"/>
<path d="M210.827 252.938V260.778H209.091V259.784C208.776 260.143 208.386 260.426 207.947 260.615C207.509 260.804 207.034 260.893 206.557 260.876C206.096 260.922 205.63 260.863 205.194 260.704C204.758 260.545 204.364 260.29 204.04 259.958C203.716 259.626 203.47 259.225 203.322 258.785C203.174 258.346 203.127 257.879 203.183 257.418V252.938H205.017V257.138C205.017 258.538 205.703 259.238 206.851 259.238C207.999 259.238 208.993 258.44 208.993 256.872V252.91L210.827 252.938Z" fill="#407BFF"/>
<path d="M217.784 252.854V254.604C217.64 254.592 217.494 254.592 217.35 254.604C217.033 254.583 216.715 254.632 216.42 254.748C216.124 254.865 215.859 255.046 215.641 255.277C215.424 255.509 215.262 255.786 215.165 256.089C215.068 256.391 215.04 256.712 215.082 257.026V260.834H213.248V252.994H214.984V254.142C215.297 253.702 215.721 253.351 216.212 253.125C216.704 252.899 217.245 252.806 217.784 252.854Z" fill="#407BFF"/>
<path d="M184.199 278.068L184.969 276.346C186.114 277.199 187.504 277.66 188.931 277.662C190.793 277.662 191.577 276.99 191.577 276.108C191.577 273.518 184.451 275.212 184.451 270.76C184.451 268.828 185.991 267.176 189.281 267.176C190.688 267.155 192.074 267.523 193.285 268.24L192.571 269.976C191.574 269.37 190.434 269.042 189.267 269.024C187.419 269.024 186.663 269.752 186.663 270.662C186.663 273.21 193.775 271.544 193.775 275.954C193.775 277.872 192.221 279.51 188.931 279.51C187.238 279.567 185.573 279.06 184.199 278.068Z" fill="#263238"/>
<path d="M200.102 274.316L198.212 276.276V279.342H196V267.4H198.24V273.56L204.162 267.4H206.668L201.628 272.762L206.976 279.398H204.4L200.102 274.316Z" fill="#263238"/>
<path d="M208.461 267.4H210.687V279.398H208.461V267.4Z" fill="#263238"/>
<path d="M213.92 267.4H216.146V277.508H222.418V279.398H213.92V267.4Z" fill="#263238"/>
<path d="M224.184 267.4H226.41V277.508H232.682V279.398H224.184V267.4Z" fill="#263238"/>
<path d="M233.338 278.068L234.108 276.346C235.254 277.196 236.643 277.657 238.07 277.662C239.932 277.662 240.73 276.99 240.73 276.108C240.73 273.518 233.59 275.212 233.59 270.76C233.59 268.828 235.144 267.176 238.434 267.176C239.836 267.156 241.217 267.525 242.424 268.24L241.724 269.976C240.721 269.372 239.576 269.043 238.406 269.024C236.558 269.024 235.802 269.752 235.802 270.662C235.802 273.21 242.914 271.544 242.914 275.954C242.914 277.872 241.36 279.51 238.07 279.51C236.376 279.567 234.712 279.06 233.338 278.068Z" fill="#263238"/>
<path d="M253.583 283.934L247.073 280.742C247.073 280.742 245.141 276.458 245.001 276.542C244.861 276.626 232.541 274.008 232.541 274.008C232.541 274.008 232.401 281.274 233.787 282.828C235.173 284.382 243.587 285.082 244.021 285.348C244.455 285.614 245.421 284.746 245.421 284.746L252.421 289.296L253.583 283.934Z" fill="#EBB376"/>
<path d="M324.703 229.166C324.703 229.166 322.001 222.936 313.279 222.936C304.557 222.936 297.291 228.13 297.711 234.78C298.131 241.43 293.133 240.8 292.307 247.24C291.481 253.68 294.589 255.332 294.799 258.034C295.009 260.736 291.481 259.91 289.199 264.474C286.917 269.038 284.005 275.478 293.777 284.074C303.549 292.67 331.157 291.074 337.177 285.936C343.197 280.798 343.001 270.774 337.177 268.072C331.353 265.37 336.771 265.79 337.387 259.77C338.003 253.75 332.613 251.468 333.019 246.68C333.425 241.892 334.881 229.6 324.703 229.166Z" fill="#263238"/>
<path d="M290.808 269.584V286.706C290.808 286.706 289.338 288.54 287.14 290.906C284.824 293.435 282.285 295.75 279.552 297.822C276.92 299.726 274.274 301.028 272.132 300.762C265.356 299.88 247.072 289.38 247.072 289.38L250.124 281.302C250.124 281.302 270.886 291.984 272.132 290.878C273.378 289.772 287 270.55 290.808 269.584Z" fill="#407BFF"/>
<path opacity="0.2" d="M287.141 290.892C284.825 293.421 282.286 295.736 279.553 297.808C278.559 290.164 287.323 280.742 287.323 280.742C287.323 280.742 287.449 285.6 287.141 290.892Z" fill="black"/>
<path d="M324.801 324.996H304.235H303.633H288.947C289.017 324.352 289.073 323.778 289.129 323.316C289.185 322.854 289.227 322.308 289.255 322C289.283 321.692 289.255 321.734 289.255 321.608C289.248 321.567 289.248 321.524 289.255 321.482H290.655H292.377L296.801 321.65L304.403 321.93L311.893 322.21L313.615 322.28L320.139 322.518L323.723 322.658C324.157 323.498 324.479 324.24 324.801 324.996Z" fill="#407BFF"/>
<path opacity="0.4" d="M324.801 324.996H304.235H303.633H288.947C289.017 324.352 289.073 323.778 289.129 323.316C289.185 322.854 289.227 322.308 289.255 322C289.283 321.692 289.255 321.734 289.255 321.608C289.248 321.567 289.248 321.524 289.255 321.482H290.655H292.377L296.801 321.65L304.403 321.944L311.893 322.224H313.615L320.139 322.462L323.723 322.602C324.157 323.498 324.479 324.24 324.801 324.996Z" fill="white"/>
<path d="M323.808 324.996H312.174L311.852 324.982L304.278 324.534L296.676 324.1L292.336 323.848L290.628 323.75L289.144 323.666H289.13V323.316L289.018 317.674H289.046L289.634 317.73L290.824 317.828L292.532 317.968L312.034 319.62L313.742 319.76L319.972 320.278L323.724 320.6L323.766 322.77V322.784L323.808 324.996Z" fill="#263238"/>
<path d="M304.64 319.284V319.34L304.444 322.042V322.056L304.276 324.534L304.234 324.996V325.038L303.632 324.996L296.646 324.506L296.674 324.1L296.842 321.762L297.052 318.836V318.752L304.64 319.284Z" fill="white"/>
<path d="M313.77 318.738L313.742 319.76L313.728 319.942L313.658 322.392V322.406L313.574 324.996H311.852V324.982L311.936 322.336V322.322L312.02 319.83L312.034 319.62L312.062 318.682L313.742 318.738H313.77Z" fill="#407BFF"/>
<path opacity="0.4" d="M313.77 318.738L313.742 319.76L313.728 319.942L313.658 322.392V322.406L313.574 324.996H311.852V324.982L311.936 322.336V322.322L312.02 319.83L312.034 319.62L312.062 318.682L313.742 318.738H313.77Z" fill="white"/>
<path d="M292.572 316.82L292.53 317.968L292.516 318.528L292.418 321.594L292.334 323.848L292.292 324.996H290.584L290.626 323.75L290.696 321.538L290.794 318.416L290.822 317.828L290.85 316.764L292.572 316.82Z" fill="#407BFF"/>
<path opacity="0.4" d="M292.572 316.82L292.53 317.968L292.516 318.528L292.418 321.594L292.334 323.848L292.292 324.996H290.584L290.626 323.75L290.696 321.538L290.794 318.416L290.822 317.828L290.85 316.764L292.572 316.82Z" fill="white"/>
<path d="M289.088 318.318L323.724 320.6C324.27 311.99 324.9 309.4 327.49 299.068C328.316 295.75 329.352 292.068 330.696 287.77C331.41 285.474 332.194 283.024 333.076 280.378C333.734 278.376 334.476 276.178 335.232 273.994C330.53 272.489 325.724 271.328 320.854 270.522C315.716 269.6 310.517 269.052 305.3 268.884C298.552 268.884 290.81 269.584 290.81 269.584C290.81 269.584 289.704 269.85 289.004 276.99C288.402 283.71 287.702 293.902 289.088 318.318Z" fill="#263238"/>
<path opacity="0.4" d="M289.088 318.318L323.724 320.6C324.27 311.99 324.9 309.4 327.49 299.068C328.316 295.75 329.352 292.068 330.696 287.77C331.41 285.474 332.194 283.024 333.076 280.378C333.734 278.376 334.476 276.178 335.232 273.994C330.53 272.489 325.724 271.328 320.854 270.522C315.716 269.6 310.517 269.052 305.3 268.884C298.552 268.884 290.81 269.584 290.81 269.584C290.81 269.584 289.704 269.85 289.004 276.99C288.402 283.71 287.702 293.902 289.088 318.318Z" fill="white"/>
<path d="M308.154 276.528C316.694 275.436 319.256 271.782 319.256 271.782C313.838 266.672 318.346 257.782 318.346 257.782L308 259.742C308.246 261.172 308.381 262.618 308.406 264.068C308.49 270.298 305.606 270.368 305.606 270.368C303.912 273.742 308.154 276.528 308.154 276.528Z" fill="#EBB376"/>
<path opacity="0.2" d="M308 259.742C308.245 261.172 308.381 262.618 308.406 264.068C310.464 264.01 312.468 263.398 314.207 262.296C315.947 261.195 317.357 259.645 318.29 257.81L308 259.742Z" fill="black"/>
<path d="M313.741 231C304.809 230.51 301.673 235.2 300.511 244.314C299.111 255.78 301.169 264.096 312.481 262.248C327.839 259.728 328.581 231.798 313.741 231Z" fill="#EBB376"/>
<path d="M306.321 244.118C305.536 245.412 304.595 246.607 303.521 247.674C303.764 248.059 304.108 248.37 304.515 248.572C304.923 248.775 305.378 248.861 305.831 248.822L306.321 244.118Z" fill="#D58745"/>
<path d="M311.822 243.684C311.822 244.412 312.116 245.084 312.606 245.084C313.096 245.084 313.544 244.552 313.6 243.824C313.656 243.096 313.306 242.424 312.816 242.424C312.326 242.424 311.878 242.956 311.822 243.684Z" fill="#263238"/>
<path d="M313.013 242.48L311.473 241.724C311.473 241.724 312.201 243.138 313.013 242.48Z" fill="#263238"/>
<path d="M302.723 242.816C302.723 243.558 303.017 244.216 303.507 244.216C303.997 244.216 304.431 243.698 304.487 242.956C304.543 242.214 304.207 241.556 303.717 241.556C303.227 241.556 302.779 242.088 302.723 242.816Z" fill="#263238"/>
<path d="M303.912 241.612L302.4 240.8C302.4 240.8 303.058 242.27 303.912 241.612Z" fill="#263238"/>
<path d="M316.05 239.596C315.971 239.594 315.894 239.574 315.824 239.537C315.753 239.501 315.692 239.449 315.644 239.386C315.225 238.916 314.706 238.546 314.124 238.303C313.542 238.061 312.914 237.953 312.284 237.986C312.151 237.996 312.019 237.951 311.918 237.863C311.817 237.776 311.755 237.651 311.745 237.517C311.736 237.384 311.78 237.252 311.868 237.151C311.956 237.05 312.081 236.988 312.214 236.978C313.003 236.928 313.793 237.06 314.522 237.366C315.251 237.673 315.898 238.144 316.414 238.742C316.489 238.854 316.519 238.989 316.498 239.121C316.477 239.254 316.407 239.373 316.302 239.456C316.231 239.522 316.144 239.57 316.05 239.596Z" fill="#2E353A"/>
<path d="M302.176 237.832C302.088 237.832 302.002 237.808 301.926 237.764C301.85 237.72 301.786 237.656 301.742 237.58C301.708 237.524 301.685 237.46 301.675 237.395C301.665 237.329 301.669 237.262 301.686 237.198C301.703 237.134 301.733 237.074 301.774 237.022C301.815 236.969 301.866 236.926 301.924 236.894C302.513 236.496 303.185 236.238 303.888 236.138C304.592 236.039 305.308 236.101 305.984 236.32C306.105 236.378 306.2 236.479 306.249 236.604C306.298 236.729 306.299 236.867 306.25 236.992C306.192 237.113 306.091 237.207 305.966 237.257C305.842 237.306 305.703 237.307 305.578 237.258C305.049 237.099 304.491 237.062 303.946 237.15C303.4 237.237 302.882 237.446 302.428 237.762C302.352 237.807 302.265 237.831 302.176 237.832Z" fill="#2E353A"/>
<path d="M306.922 252.406C307.29 253.437 307.581 254.495 307.79 255.57H308.378C310.996 255.458 312.158 254.534 312.676 253.554C312.905 253.064 313.02 252.528 313.012 251.986C313.014 251.679 312.977 251.373 312.9 251.076C311.32 251.873 309.586 252.318 307.818 252.378C307.272 252.406 306.922 252.406 306.922 252.406Z" fill="#263238"/>
<path d="M307.818 252.35L308.098 253.274C310.562 253.162 312.298 252.742 313.012 251.958C313.015 251.651 312.977 251.346 312.9 251.048C311.321 251.845 309.587 252.29 307.818 252.35Z" fill="white"/>
<path d="M308.379 255.542C310.997 255.43 312.159 254.506 312.677 253.526C311.682 253.589 310.706 253.826 309.793 254.226C309.196 254.508 308.702 254.968 308.379 255.542Z" fill="#DE5753"/>
<path d="M322.688 246.582C322.688 246.582 318.908 239.008 319.888 233.38C319.888 233.38 302.57 225.176 300.708 243.18C300.708 243.18 299.854 227.122 315.24 227.598C330.626 228.074 329.324 250.558 321.022 256.816C320.994 256.746 325.026 251.314 322.688 246.582Z" fill="#263238"/>
<path d="M323.597 230.132C323.597 230.132 316.597 223.902 310.241 225.078C303.885 226.254 304.977 234.64 313.349 237.818C321.721 240.996 323.457 245.098 323.457 245.098L330.723 238.588L323.597 230.132Z" fill="#263238"/>
<path d="M325.123 245.574L324.437 245.42C324.437 245.42 324.703 243.334 319.187 241.402C313.363 239.372 306.755 237.062 305.873 232.4C305.684 231.737 305.637 231.041 305.736 230.358C305.835 229.675 306.077 229.021 306.447 228.438C306.675 228.142 306.959 227.893 307.283 227.708C307.608 227.523 307.966 227.405 308.337 227.36V228.06C308.062 228.095 307.795 228.185 307.555 228.324C307.314 228.464 307.104 228.65 306.937 228.872C306.63 229.377 306.432 229.941 306.357 230.527C306.283 231.113 306.332 231.709 306.503 232.274C307.301 236.544 313.713 238.77 319.369 240.744C325.585 242.9 325.137 245.462 325.123 245.574Z" fill="#263238"/>
<path d="M321.12 248.388C321.269 247.361 321.817 246.434 322.645 245.807C323.473 245.181 324.515 244.906 325.544 245.042C328.344 245.49 329.31 251.258 322.338 252.238C321.344 252.378 320.84 251.384 321.12 248.388Z" fill="#EBB376"/>
<path d="M327.181 272.734C327.181 272.734 317.157 280.868 307.819 280.742C298.481 280.616 295.219 270.116 295.219 270.116C305.888 267.68 317.05 268.595 327.181 272.734Z" fill="#EBB376"/>
<path d="M335.231 273.994L334.349 284.55L334.097 287.574L333.607 293.51L331.311 321.076L330.975 324.996H320.433C320.34 324.24 320.256 323.456 320.181 322.644C320.097 321.902 320.041 321.146 319.985 320.362V319.648C319.537 313.362 319.481 306.068 319.607 299.04C319.607 295.988 319.747 292.978 319.845 290.136C319.845 288.876 319.943 287.644 319.999 286.454C320.055 285.264 320.083 284.452 320.125 283.514C320.125 283.444 320.125 283.374 320.125 283.304C320.125 283.122 320.125 282.954 320.125 282.772C320.125 281.54 320.251 280.364 320.307 279.272C320.307 278.614 320.391 277.984 320.419 277.396C320.412 277.336 320.412 277.275 320.419 277.214C320.419 276.78 320.419 276.36 320.419 275.968C320.587 273.168 320.727 271.306 320.769 270.774C320.773 270.723 320.773 270.671 320.769 270.62C324.413 271.148 328.012 271.948 331.535 273.014L333.621 273.63L334.559 273.924L334.881 274.022H335.077L335.231 273.994Z" fill="#407BFF"/>
<path opacity="0.4" d="M322.393 284.074L325.011 288.092L319.551 298.942C319.803 284.102 320.853 270.508 320.853 270.508L329.183 278.264L322.393 284.074Z" fill="white"/>
<path d="M302.177 268.8V268.898V268.982C302.079 269.164 301.911 269.472 301.701 269.906L301.533 270.256C301.463 270.382 301.407 270.522 301.337 270.662L301.127 271.11C300.539 272.37 299.727 274.106 298.915 276.36C298.103 278.614 296.913 281.82 295.835 285.432C295.387 286.93 294.939 288.526 294.505 290.234C294.379 290.668 294.267 291.116 294.155 291.564C293.903 292.586 293.651 293.65 293.399 294.742C291.661 302.342 290.403 310.043 289.633 317.8C289.633 317.996 289.633 318.206 289.633 318.402C289.535 319.438 289.451 320.488 289.367 321.552C289.36 321.594 289.36 321.637 289.367 321.678C289.367 321.804 289.367 321.93 289.367 322.07C289.367 322.616 289.297 323.176 289.255 323.736L289.171 325.066H287.561L285.321 324.03C284.947 313.434 285.143 302.825 285.909 292.25C286.231 288.26 286.693 284.368 287.309 280.826C287.547 279.538 287.799 278.278 288.093 277.102C288.529 275.153 289.139 273.246 289.913 271.404C290.162 270.825 290.442 270.259 290.753 269.71H291.257L298.537 269.206L302.177 268.8Z" fill="#407BFF"/>
<path opacity="0.4" d="M302.162 268.8C301.938 269.206 297.122 277.956 293.286 294.742L291.564 283.934L295.19 280.742L291.564 273.826L302.162 268.8Z" fill="white"/>
<path d="M349.258 306.6C349.095 307.067 348.827 307.49 348.474 307.836C348.121 308.183 347.693 308.443 347.223 308.598C346.753 308.752 346.254 308.796 345.765 308.726C345.275 308.657 344.808 308.475 344.4 308.196C342.672 307.23 341.202 305.861 340.116 304.206C339.248 302.96 338.086 301.084 336.882 299.096C334.32 294.798 331.66 290.038 331.66 290.038L335.244 273.952C340.396 276.458 351.19 302.484 349.258 306.6Z" fill="#407BFF"/>
<path opacity="0.2" d="M344.401 308.238C342.673 307.272 341.203 305.903 340.117 304.248C339.249 303.002 338.087 301.126 336.883 299.138C337.796 297.468 338.811 295.855 339.921 294.308L342.525 301.63C342.525 301.63 347.089 302.666 347.817 305.046C348.097 305.956 346.543 307.23 344.401 308.238Z" fill="black"/>
<path d="M344.247 287.322L335.623 320.194C335.513 320.577 335.272 320.909 334.941 321.132C334.611 321.355 334.213 321.454 333.817 321.412L310.927 318.36C310.745 318.341 310.569 318.282 310.412 318.187C310.255 318.092 310.121 317.964 310.02 317.812C309.918 317.66 309.851 317.487 309.824 317.305C309.797 317.124 309.81 316.939 309.863 316.764L318.487 283.892C318.599 283.512 318.842 283.183 319.172 282.963C319.502 282.743 319.898 282.645 320.293 282.688L343.183 285.726C343.365 285.745 343.541 285.804 343.697 285.899C343.854 285.994 343.988 286.122 344.09 286.274C344.191 286.426 344.258 286.599 344.285 286.78C344.312 286.962 344.299 287.146 344.247 287.322Z" fill="#263238"/>
<path opacity="0.1" d="M344.247 287.322L335.623 320.194C335.513 320.577 335.272 320.909 334.942 321.132C334.612 321.355 334.213 321.454 333.817 321.412L311.977 318.5C311.795 318.48 311.619 318.421 311.462 318.327C311.305 318.232 311.17 318.104 311.067 317.952C310.965 317.801 310.897 317.628 310.867 317.447C310.838 317.266 310.849 317.081 310.899 316.904L319.537 284.032C319.644 283.651 319.883 283.321 320.212 283.101C320.54 282.88 320.936 282.783 321.329 282.828L343.183 285.726C343.365 285.745 343.541 285.804 343.698 285.899C343.855 285.994 343.989 286.122 344.09 286.274C344.192 286.427 344.258 286.599 344.286 286.781C344.313 286.962 344.3 287.147 344.247 287.322Z" fill="white"/>
<path opacity="0.3" d="M328.356 299.866C327.793 299.801 327.224 299.939 326.752 300.254C326.28 300.57 325.936 301.042 325.78 301.588C325.707 301.84 325.69 302.104 325.73 302.362C325.77 302.621 325.866 302.868 326.011 303.085C326.157 303.303 326.348 303.486 326.572 303.621C326.796 303.757 327.046 303.842 327.306 303.87C327.874 303.935 328.446 303.796 328.92 303.478C329.395 303.16 329.741 302.684 329.896 302.134C329.636 302.11 329.383 302.028 329.158 301.894C328.933 301.761 328.739 301.58 328.592 301.363C328.445 301.146 328.348 300.9 328.307 300.641C328.266 300.382 328.283 300.118 328.356 299.866Z" fill="white"/>
<path d="M346.109 314.398C344.569 315.21 341.083 313.978 340.033 313.558L339.697 313.432C339.697 313.432 337.807 307.23 342.749 303.884L342.861 303.814C344.443 302.974 349.315 304.066 349.469 305.704C350.001 312.326 347.943 313.432 346.109 314.398Z" fill="#407BFF"/>
<path opacity="0.2" d="M343.099 309.106C342.624 310.9 341.54 312.474 340.033 313.558L339.697 313.432C339.697 313.432 337.807 307.23 342.749 303.884L342.861 303.814C343.295 304.374 343.967 305.844 343.099 309.106Z" fill="black"/>
<path d="M336 301.252C336 301.252 339.178 301.112 340.634 301.252C342.09 301.392 341.642 306.082 341.642 306.082L342.902 306.754C342.902 306.754 343.91 309.554 341.74 310.954L340.606 310.576C340.401 311.25 339.977 311.836 339.402 312.242C338.492 312.788 334.068 311.542 334.068 311.542L336 301.252Z" fill="#EBB376"/>
<path opacity="0.6" d="M188.958 166.278H191.814V162.47H188.958V166.278Z" fill="white"/>
<path opacity="0.6" d="M184.296 166.278H187.152V161.21H184.296V166.278Z" fill="white"/>
<path opacity="0.6" d="M179.664 166.278H182.52V159.936H179.664V166.278Z" fill="white"/>
<path opacity="0.6" d="M175.001 166.278H177.857V158.662H175.001V166.278Z" fill="white"/>
<path opacity="0.6" d="M342.174 161.084H340.48V164.892H342.174V161.084Z" fill="white"/>
<path opacity="0.6" d="M343.336 166.278H356.818V159.698H343.336V166.278Z" fill="white"/>
<g opacity="0.1">
<path d="M255.641 160.062L196.673 380.926L196.015 383.418L194.951 387.394L194.279 389.872L163.479 505.204V365.624L221.201 149.562H223.077C223.843 149.575 224.588 149.816 225.217 150.255C225.845 150.694 226.329 151.311 226.605 152.026L228.887 157.626C229.165 158.337 229.65 158.949 230.278 159.383C230.907 159.817 231.651 160.053 232.415 160.062H255.641Z" fill="white"/>
<path d="M368.313 272.86V412.44L332.053 548.282H294.785L299.223 531.664L300.203 528.01L302.149 520.716L303.129 517.062L305.075 509.754L306.041 506.114L336.701 391.286V391.272L338.115 385.966V385.952L368.313 272.86Z" fill="white"/>
<path d="M275.801 160.062L217.225 379.554L216.875 380.87L213.669 392.896L213.319 394.198L172.201 548.282H169.009C168.293 548.29 167.583 548.156 166.919 547.887C166.256 547.618 165.653 547.219 165.145 546.714C164.887 546.465 164.657 546.188 164.459 545.888L204.961 394.198L205.311 392.896L208.517 380.87L208.867 379.554L267.401 160.062H275.801Z" fill="white"/>
</g>
<path d="M593.935 388.136H440.145C437.056 388.2 434.091 389.363 431.782 391.415C429.473 393.468 427.971 396.276 427.545 399.336L409.695 545.146H585.829L603.735 399.308C603.955 397.908 603.865 396.476 603.47 395.114C603.075 393.752 602.386 392.494 601.451 391.428C600.516 390.362 599.358 389.515 598.059 388.946C596.761 388.377 595.353 388.101 593.935 388.136Z" fill="#263238"/>
<path opacity="0.6" d="M593.935 388.136H440.145C437.056 388.2 434.091 389.363 431.782 391.415C429.473 393.468 427.971 396.276 427.545 399.336L409.695 545.146H585.829L603.735 399.308C603.955 397.908 603.865 396.476 603.47 395.114C603.075 393.752 602.386 392.494 601.451 391.428C600.516 390.362 599.358 389.515 598.059 388.946C596.761 388.377 595.353 388.101 593.935 388.136Z" fill="white"/>
<path opacity="0.2" d="M551.768 545.146H585.83L603.736 399.308C603.96 397.905 603.873 396.47 603.48 395.105C603.088 393.74 602.399 392.478 601.464 391.409C600.528 390.339 599.369 389.489 598.068 388.919C596.767 388.349 595.356 388.072 593.936 388.108H582.232C579.143 388.175 576.18 389.338 573.871 391.39C571.563 393.442 570.06 396.249 569.632 399.308L551.768 545.146Z" fill="black"/>
<path d="M575.96 583.954H564.018L559.146 546.7H579.614L575.96 583.954Z" fill="#263238"/>
<path d="M523.558 583.954H511.63L506.758 546.7H527.212L523.558 583.954Z" fill="#263238"/>
<path d="M434.616 583.954H422.688L417.816 546.7H438.27L434.616 583.954Z" fill="#263238"/>
<path d="M382.228 583.954H370.286L365.414 546.7H385.882L382.228 583.954Z" fill="#263238"/>
<path opacity="0.2" d="M523.558 583.954H511.63L506.758 546.7H527.212L523.558 583.954Z" fill="white"/>
<path opacity="0.2" d="M382.228 583.954H370.286L365.414 546.7H385.882L382.228 583.954Z" fill="white"/>
<path d="M584.725 544.334L583.647 558.054C583.608 558.536 583.389 558.985 583.033 559.312C582.678 559.639 582.212 559.82 581.729 559.818H364.225C363.741 559.82 363.276 559.639 362.92 559.312C362.564 558.985 362.345 558.536 362.307 558.054L361.229 544.334H584.725Z" fill="#263238"/>
<path opacity="0.2" d="M532.925 544.334L531.847 558.054C531.808 558.536 531.589 558.985 531.233 559.312C530.878 559.639 530.412 559.82 529.929 559.818H364.225C363.741 559.82 363.276 559.639 362.92 559.312C362.564 558.985 362.345 558.536 362.307 558.054L361.229 544.334H532.925Z" fill="white"/>
<path d="M504.223 512.694H437.023L432.137 456.778C431.675 451.43 429.224 446.451 425.269 442.822C421.313 439.193 416.141 437.179 410.773 437.178H339.205C337.956 437.179 336.72 437.44 335.577 437.944C334.434 438.448 333.408 439.184 332.564 440.105C331.72 441.027 331.077 442.114 330.676 443.297C330.274 444.48 330.123 445.734 330.231 446.978L331.351 459.844C331.532 461.895 332.408 463.821 333.834 465.306C335.26 466.79 337.15 467.743 339.191 468.006L341.725 468.328C343.248 468.521 344.659 469.228 345.724 470.334C346.788 471.439 347.442 472.875 347.577 474.404L353.751 544.936C353.968 547.416 355.107 549.724 356.941 551.406C358.776 553.088 361.174 554.021 363.663 554.022H504.223V512.694Z" fill="#263238"/>
<path opacity="0.6" d="M504.223 512.694H437.023L432.137 456.778C431.675 451.43 429.224 446.451 425.269 442.822C421.313 439.193 416.141 437.179 410.773 437.178H339.205C337.956 437.179 336.72 437.44 335.577 437.944C334.434 438.448 333.408 439.184 332.564 440.105C331.72 441.027 331.077 442.114 330.676 443.297C330.274 444.48 330.123 445.734 330.231 446.978L331.351 459.844C331.532 461.895 332.408 463.821 333.834 465.306C335.26 466.79 337.15 467.743 339.191 468.006L341.725 468.328C343.248 468.521 344.659 469.228 345.724 470.334C346.788 471.439 347.442 472.875 347.577 474.404L353.751 544.936C353.968 547.416 355.107 549.724 356.941 551.406C358.776 553.088 361.174 554.021 363.663 554.022H504.223V512.694Z" fill="white"/>
<path opacity="0.2" d="M382.579 456.778C382.119 451.432 379.671 446.452 375.718 442.823C371.765 439.194 366.595 437.18 361.229 437.178H410.775C416.142 437.179 421.314 439.193 425.27 442.822C429.225 446.451 431.676 451.43 432.139 456.778L437.025 512.694H387.479L382.579 456.778Z" fill="black"/>
<path opacity="0.1" d="M504.223 512.694H387.477L382.577 456.778C382.118 451.432 379.67 446.452 375.717 442.823C371.764 439.194 366.594 437.18 361.227 437.178H339.205C337.956 437.179 336.72 437.44 335.577 437.944C334.434 438.448 333.408 439.184 332.564 440.105C331.72 441.027 331.077 442.114 330.676 443.297C330.274 444.48 330.123 445.734 330.231 446.978L331.351 459.844C331.532 461.895 332.408 463.821 333.834 465.306C335.26 466.79 337.15 467.743 339.191 468.006L341.725 468.328C343.248 468.521 344.659 469.228 345.724 470.334C346.788 471.439 347.442 472.875 347.577 474.404L353.751 544.936C353.968 547.416 355.107 549.724 356.941 551.406C358.776 553.088 361.174 554.021 363.663 554.022H504.223V512.694Z" fill="white"/>
<path d="M492.631 401.1C487.525 399.573 482.625 397.424 478.043 394.702C476.722 393.882 475.525 392.878 474.487 391.72C474.228 391.427 473.994 391.113 473.787 390.782C478.785 373.338 483.839 365.694 494.423 364.896C502.501 375.284 492.631 401.1 492.631 401.1Z" fill="#263238"/>
<path opacity="0.2" d="M478.044 394.702C476.723 393.882 475.526 392.878 474.488 391.72C475.365 389.889 476.451 388.165 477.722 386.582C478.885 389.143 479 392.057 478.044 394.702Z" fill="black"/>
<path d="M297.668 577.234L290.066 567.462L313.166 550.032L320.768 559.79L297.668 577.234Z" fill="#FFC3BD"/>
<path opacity="0.2" d="M320.768 559.79L313.152 550.032L301.252 559.02L308.868 568.792L320.768 559.79Z" fill="black"/>
<path d="M294.49 563.696L306.04 571.564C306.241 571.697 306.386 571.898 306.448 572.13C306.51 572.363 306.484 572.61 306.376 572.824L301.462 582.848C301.33 583.097 301.147 583.315 300.924 583.488C300.702 583.662 300.446 583.786 300.172 583.853C299.899 583.921 299.614 583.93 299.337 583.879C299.06 583.829 298.796 583.721 298.564 583.562C294.588 580.762 292.81 579.18 287.742 575.722C284.62 573.594 277.396 569.338 273.084 566.398C268.772 563.458 271.446 559.034 273.504 559.874C282.73 563.64 288.078 563.584 292.334 563.15C293.094 563.079 293.855 563.272 294.49 563.696Z" fill="#263238"/>
<path d="M288.162 560.714C288.133 560.876 288.133 561.042 288.162 561.204C288.526 562.716 291.158 563.934 292.684 564.522C292.724 564.549 292.77 564.563 292.817 564.563C292.865 564.563 292.911 564.549 292.95 564.522C292.974 564.482 292.986 564.436 292.986 564.389C292.986 564.342 292.974 564.297 292.95 564.256C292.754 563.794 291.018 559.664 289.478 559.398C289.31 559.369 289.138 559.385 288.978 559.444C288.818 559.503 288.677 559.603 288.568 559.734C288.344 560.016 288.203 560.356 288.162 560.714ZM292.362 563.85C290.248 562.968 288.89 561.946 288.68 561.05C288.64 560.855 288.652 560.654 288.713 560.465C288.774 560.276 288.884 560.106 289.03 559.972C289.081 559.9 289.151 559.844 289.234 559.811C289.316 559.779 289.406 559.771 289.492 559.79C290.43 560 291.718 562.422 292.362 563.85Z" fill="#407BFF"/>
<path d="M292.054 560.462C291.928 561.798 292.114 563.145 292.6 564.396C292.616 564.436 292.643 564.47 292.678 564.495C292.712 564.52 292.753 564.534 292.796 564.536C292.839 564.542 292.882 564.535 292.922 564.518C292.961 564.501 292.995 564.473 293.02 564.438C293.104 564.312 295.106 561.358 294.658 559.622C294.609 559.409 294.513 559.209 294.377 559.037C294.242 558.866 294.07 558.726 293.874 558.628C293.688 558.506 293.467 558.451 293.245 558.471C293.024 558.491 292.816 558.586 292.656 558.74C292.269 559.231 292.057 559.837 292.054 560.462ZM292.866 563.752C292.418 562.352 292.306 559.762 292.992 559.09C293.104 558.978 293.286 558.88 293.65 559.09C293.784 559.158 293.902 559.254 293.994 559.373C294.086 559.492 294.15 559.629 294.182 559.776C294.49 560.924 293.384 562.912 292.866 563.752Z" fill="#407BFF"/>
<path d="M497.769 375.83L497.951 376.586L498.077 377.174L498.287 378.28C498.413 379.008 498.511 379.68 498.595 380.422C498.749 381.822 498.833 383.222 498.861 384.622C498.905 387.435 498.694 390.247 498.231 393.022C497.306 398.62 495.31 403.987 492.351 408.828C490.87 411.222 489.174 413.476 487.283 415.562C486.345 416.598 485.337 417.55 484.343 418.488L482.789 419.888C482.229 420.336 481.627 420.756 481.011 421.176C478.277 423.025 475.154 424.218 471.883 424.662C469.957 424.897 468.002 424.706 466.157 424.102C465.208 423.755 464.309 423.285 463.483 422.702C463.069 422.413 462.676 422.095 462.307 421.75L461.761 421.19L461.089 420.392C460.421 419.643 460.071 418.663 460.113 417.661C460.154 416.658 460.584 415.71 461.312 415.019C462.04 414.328 463.008 413.947 464.011 413.957C465.015 413.967 465.975 414.367 466.689 415.072C466.563 414.904 466.689 414.946 466.689 414.904H466.857L467.235 414.806C467.474 414.734 467.704 414.635 467.921 414.512C468.373 414.262 468.803 413.977 469.209 413.658C470.387 412.721 471.475 411.676 472.457 410.536L473.353 409.514L474.375 408.45C475.033 407.708 475.677 406.98 476.251 406.21C477.426 404.708 478.466 403.106 479.359 401.422C481.108 398.069 482.272 394.442 482.803 390.698C483.068 388.806 483.185 386.896 483.153 384.986C483.153 384.034 483.153 383.082 482.999 382.186L482.859 380.786L482.705 379.764L482.565 378.854C482.265 376.874 482.742 374.854 483.897 373.218C485.053 371.582 486.796 370.456 488.762 370.076C490.729 369.696 492.766 370.092 494.448 371.18C496.129 372.268 497.324 373.965 497.783 375.914L497.769 375.83Z" fill="#CE7A63"/>
<path d="M478.393 382.466C476.801 389.293 475.674 396.22 475.019 403.2C473.815 413.336 472.947 423.374 471.785 440.132L522.535 448.168C523.781 433.706 528.023 417.676 542.233 386.946C543.036 385.35 543.472 383.594 543.509 381.807C543.545 380.02 543.182 378.248 542.445 376.62C541.708 374.992 540.616 373.549 539.25 372.398C537.883 371.246 536.277 370.415 534.547 369.964C532.559 369.446 530.459 368.928 528.289 368.48C520.705 366.714 513.004 365.497 505.245 364.84C502.697 364.658 500.051 364.574 497.517 364.518C488.361 364.308 480.073 373.576 478.393 382.466Z" fill="#263238"/>
<path d="M524.999 342.286C522.969 349.79 520.463 363.552 525.335 368.564C525.335 368.564 518.223 367.486 503.117 376.81C498.749 370.538 501.997 368.536 501.997 368.536C510.523 366.548 510.775 360.332 509.753 354.536L524.999 342.286Z" fill="#CE7A63"/>
<path opacity="0.2" d="M518.797 347.27L509.781 354.494C510.036 355.88 510.172 357.285 510.187 358.694C513.421 358.232 518.083 354.732 518.671 351.386C518.972 350.034 519.015 348.638 518.797 347.27Z" fill="black"/>
<path d="M500.108 334.936C500.262 338.786 497.938 341.936 494.942 342.118C491.946 342.3 489.342 339.206 489.216 335.356C489.09 331.506 491.386 328.356 494.396 328.174C497.406 327.992 499.968 331.086 500.108 334.936Z" fill="#407BFF"/>
<path d="M504 335.006C504.182 339.934 501.2 344.036 497.392 344.19C493.584 344.344 490.28 340.466 490.098 335.552C489.916 330.638 492.898 326.522 496.706 326.368C500.514 326.214 503.734 330.092 504 335.006Z" fill="#263238"/>
<path opacity="0.2" d="M504 335.006C504.182 339.934 501.2 344.036 497.392 344.19C493.584 344.344 490.28 340.466 490.098 335.552C489.916 330.638 492.898 326.522 496.706 326.368C500.514 326.214 503.734 330.092 504 335.006Z" fill="black"/>
<path d="M525.168 312.046C525.168 312.046 528.906 301.756 537.292 303.786C545.678 305.816 547.694 313.586 544.894 322.868C542.094 332.15 545.86 334.068 545.86 334.068C545.86 334.068 536.06 335.678 535.206 324.45C534.352 313.222 528.57 316.722 528.57 316.722L525.168 312.046Z" fill="#263238"/>
<path d="M524.664 323.89C525.84 336.182 526.582 341.334 521.556 348.838C513.982 360.136 498.96 359.646 494.228 348.152C490.028 337.806 488.754 319.466 499.646 312.158C501.931 310.504 504.616 309.492 507.424 309.227C510.232 308.962 513.059 309.454 515.613 310.651C518.166 311.849 520.352 313.708 521.944 316.036C523.536 318.364 524.475 321.076 524.664 323.89Z" fill="#CE7A63"/>
<path d="M510.342 330.134C510.482 331.156 510.076 332.094 509.432 332.234C508.788 332.374 508.158 331.646 508.032 330.624C507.906 329.602 508.284 328.65 508.928 328.524C509.572 328.398 510.202 329.098 510.342 330.134Z" fill="#263238"/>
<path d="M497.714 332.388C497.854 333.41 497.448 334.348 496.804 334.488C496.16 334.628 495.53 333.9 495.404 332.878C495.278 331.856 495.67 330.904 496.314 330.778C496.958 330.652 497.574 331.352 497.714 332.388Z" fill="#263238"/>
<path d="M496.579 330.764L494.115 330.554C494.115 330.554 495.599 332.234 496.579 330.764Z" fill="#263238"/>
<path d="M501.858 333.83C501.308 336.364 500.433 338.815 499.254 341.124C499.816 341.4 500.434 341.543 501.06 341.543C501.686 341.543 502.304 341.4 502.866 341.124L501.858 333.83Z" fill="#BA4D3C"/>
<path d="M509.068 343.672C508.539 343.887 507.99 344.051 507.43 344.162C507.393 344.17 507.354 344.17 507.317 344.162C507.28 344.154 507.245 344.139 507.215 344.116C507.184 344.094 507.159 344.065 507.14 344.032C507.122 343.998 507.111 343.962 507.108 343.924C507.095 343.845 507.112 343.763 507.156 343.696C507.2 343.628 507.268 343.58 507.346 343.56C508.608 343.302 509.796 342.763 510.822 341.983C511.847 341.202 512.683 340.2 513.268 339.052C513.296 338.976 513.353 338.915 513.426 338.881C513.5 338.847 513.584 338.843 513.66 338.87C513.731 338.906 513.786 338.969 513.812 339.045C513.838 339.12 513.834 339.203 513.8 339.276C512.818 341.275 511.133 342.84 509.068 343.672Z" fill="#263238"/>
<path d="M511.307 323.302C511.236 323.34 511.156 323.36 511.076 323.36C510.995 323.36 510.916 323.34 510.845 323.302C510.23 322.898 509.523 322.654 508.789 322.593C508.056 322.532 507.319 322.655 506.645 322.952C506.576 322.987 506.501 323.007 506.425 323.012C506.348 323.017 506.271 323.006 506.199 322.98C506.127 322.953 506.061 322.912 506.005 322.859C505.949 322.807 505.905 322.743 505.875 322.672C505.814 322.522 505.81 322.355 505.864 322.203C505.919 322.051 506.027 321.924 506.169 321.846C507.016 321.466 507.945 321.303 508.871 321.372C509.798 321.44 510.692 321.738 511.475 322.238C511.606 322.329 511.697 322.467 511.729 322.624C511.76 322.781 511.729 322.944 511.643 323.078C511.559 323.188 511.441 323.267 511.307 323.302Z" fill="#263238"/>
<path d="M491.624 326.718C491.485 326.775 491.329 326.775 491.19 326.718C491.046 326.651 490.933 326.53 490.875 326.381C490.818 326.233 490.82 326.067 490.882 325.92C491.211 325.005 491.746 324.176 492.445 323.499C493.144 322.822 493.989 322.314 494.914 322.014C494.99 321.998 495.068 321.997 495.144 322.012C495.22 322.026 495.292 322.056 495.356 322.099C495.42 322.143 495.474 322.198 495.516 322.263C495.558 322.328 495.587 322.4 495.6 322.476C495.627 322.637 495.593 322.802 495.505 322.939C495.417 323.076 495.281 323.175 495.124 323.218C494.395 323.466 493.732 323.875 493.184 324.416C492.636 324.957 492.218 325.615 491.96 326.34C491.932 326.422 491.888 326.498 491.83 326.563C491.772 326.628 491.703 326.681 491.624 326.718Z" fill="#263238"/>
<path d="M509.207 328.51L506.799 328.3C506.799 328.3 508.199 329.966 509.207 328.51Z" fill="#263238"/>
<path d="M511.91 314.468C512.471 317.095 513.615 319.563 515.258 321.688C516.901 323.813 519.001 325.542 521.402 326.746L522.956 336.014L524.86 341.684C524.86 341.684 534.478 339.64 532.826 323.484C531.706 312.62 526.596 309.484 523.026 308.546C521.047 308.078 519.193 307.185 517.594 305.928C515.27 304.038 510.594 302.19 501.97 305.438C489.244 310.24 492.912 320.936 492.912 320.936C494.417 318.501 496.505 316.48 498.988 315.056C502.488 313.264 508.62 312.326 511.91 314.468Z" fill="#263238"/>
<path d="M530.165 333.046C529.315 335.523 527.518 337.562 525.167 338.716C522.115 340.116 520.169 337.218 520.659 333.816C521.093 330.75 523.207 326.326 526.427 326.368C529.647 326.41 531.271 329.91 530.165 333.046Z" fill="#CE7A63"/>
<path d="M530.865 333.606C531.047 338.52 528.065 342.636 524.257 342.776C520.449 342.916 517.145 339.066 516.963 334.138C516.781 329.21 519.763 325.122 523.571 324.968C527.379 324.814 530.669 328.692 530.865 333.606Z" fill="#263238"/>
<path opacity="0.2" d="M530.865 333.606C531.047 338.52 528.065 342.636 524.257 342.776C520.449 342.916 517.145 339.066 516.963 334.138C516.781 329.21 519.763 325.122 523.571 324.968C527.379 324.814 530.669 328.692 530.865 333.606Z" fill="black"/>
<path d="M524.846 327.922C524.846 327.922 524.944 311.318 519.246 307.02L523.628 308.854C526.978 314.809 528.393 321.659 527.674 328.454L524.846 327.922Z" fill="#407BFF"/>
<path opacity="0.2" d="M524.846 327.922C524.846 327.922 524.944 311.318 519.246 307.02L523.628 308.854C526.978 314.809 528.393 321.659 527.674 328.454L524.846 327.922Z" fill="black"/>
<path d="M531.342 333.97C531.496 337.82 529.186 340.97 526.176 341.152C523.166 341.334 520.576 338.24 520.45 334.39C520.324 330.54 522.62 327.39 525.63 327.208C528.64 327.026 531.202 330.12 531.342 333.97Z" fill="#407BFF"/>
<path d="M454.721 411.922L455.253 415.226C455.348 415.839 455.589 416.421 455.954 416.922C456.319 417.424 456.799 417.831 457.353 418.11L462.631 420.728C463.669 421.245 464.815 421.506 465.974 421.488C467.134 421.471 468.272 421.177 469.295 420.63L470.583 419.944C470.093 414.344 465.459 408.744 465.459 408.744L464.325 406.994C464.102 406.626 463.809 406.306 463.461 406.053C463.114 405.799 462.719 405.618 462.301 405.519C461.883 405.42 461.449 405.405 461.024 405.476C460.6 405.546 460.194 405.701 459.831 405.93L456.331 408.142C455.724 408.548 455.248 409.121 454.962 409.792C454.676 410.464 454.592 411.204 454.721 411.922Z" fill="#CE7A63"/>
<path d="M516.389 506.8C496.789 519.946 452.577 511.784 412.481 503.244C407.286 510.265 401.201 516.58 394.379 522.032C375.199 537.81 349.999 550.452 333.493 557.816C323.189 562.436 316.245 564.984 316.245 564.984L305.549 551.726C305.549 551.726 328.649 533.75 354.185 514.15C371.545 500.808 390.025 486.696 403.101 476.98C403.821 476.462 404.627 476.074 405.481 475.832H405.551C406.819 475.505 408.12 475.322 409.429 475.286L412.229 475.104L414.455 474.964C428.287 474.04 458.527 472.43 458.527 472.43L472.639 439.74L523.907 442.974C523.907 442.974 533.399 495.404 516.389 506.8Z" fill="#407BFF"/>
<path d="M300.734 552.706L314.272 569.408L321.664 564.97L306.922 547.218L300.734 552.706Z" fill="#263238"/>
<path opacity="0.2" d="M419.482 475.174C411.934 491.196 403.555 506.813 394.38 521.962C375.2 537.81 350 550.452 333.494 557.816C338.235 542.331 345.211 527.621 354.2 514.15C356.72 510.384 359.492 506.576 362.6 502.796C377.566 484.204 394.156 477.862 405.552 475.832H405.622C407.022 475.58 408.282 475.412 409.5 475.286C411.39 475.076 413.07 474.992 414.484 474.964C416.153 474.911 417.824 474.981 419.482 475.174Z" fill="black"/>
<path d="M345.772 570.304L334.404 565.404L346.276 539.014L357.644 543.9L345.772 570.304Z" fill="#FFC3BD"/>
<path opacity="0.2" d="M357.644 543.914L346.262 539.014L340.158 552.622L351.526 557.522L357.644 543.914Z" fill="black"/>
<path d="M336.476 560L350.378 561.4C350.618 561.42 350.842 561.526 351.009 561.699C351.176 561.871 351.276 562.098 351.288 562.338L351.806 573.538C351.807 573.819 351.75 574.097 351.637 574.354C351.525 574.611 351.36 574.842 351.153 575.032C350.946 575.222 350.702 575.366 350.436 575.456C350.17 575.546 349.888 575.579 349.608 575.554C344.764 574.994 342.454 574.49 336.336 573.888C332.57 573.524 324.198 573.272 319.004 572.768C313.81 572.264 314.034 567.168 316.204 566.846C326.116 565.698 330.764 563.08 334.306 560.658C334.928 560.186 335.698 559.953 336.476 560Z" fill="#263238"/>
<path d="M329.505 560.406C329.569 560.556 329.659 560.694 329.771 560.812C330.807 561.974 333.705 561.764 335.371 561.54C335.417 561.534 335.462 561.514 335.499 561.485C335.535 561.455 335.564 561.417 335.581 561.372C335.589 561.325 335.585 561.276 335.571 561.229C335.556 561.183 335.531 561.141 335.497 561.106C335.091 560.798 331.591 558.012 330.121 558.516C329.959 558.572 329.815 558.67 329.704 558.801C329.593 558.931 329.519 559.089 329.491 559.258C329.36 559.631 329.365 560.037 329.505 560.406ZM334.671 561.134C332.403 561.372 330.723 561.134 330.135 560.49C330.003 560.34 329.914 560.156 329.877 559.959C329.84 559.762 329.856 559.559 329.925 559.37C329.931 559.282 329.964 559.197 330.019 559.128C330.074 559.058 330.148 559.006 330.233 558.978C331.143 558.67 333.439 560.196 334.671 561.134Z" fill="#407BFF"/>
<path d="M332.78 558.32C333.323 559.546 334.136 560.633 335.16 561.498C335.196 561.519 335.237 561.53 335.279 561.53C335.321 561.53 335.362 561.519 335.398 561.498C335.436 561.48 335.469 561.452 335.493 561.418C335.518 561.384 335.533 561.344 335.538 561.302C335.538 561.148 335.888 557.606 334.67 556.304C334.525 556.137 334.344 556.005 334.14 555.918C333.936 555.83 333.716 555.79 333.494 555.8C333.273 555.781 333.052 555.839 332.868 555.964C332.685 556.089 332.55 556.274 332.486 556.486C332.373 557.113 332.476 557.76 332.78 558.32ZM335.076 560.812C334.026 559.804 332.668 557.578 332.948 556.612C332.948 556.458 333.102 556.29 333.508 556.276C333.658 556.268 333.808 556.293 333.946 556.352C334.085 556.41 334.208 556.499 334.306 556.612C335.132 557.55 335.132 559.818 335.076 560.812Z" fill="#407BFF"/>
<path opacity="0.3" d="M516.389 506.8C496.789 519.946 452.577 511.784 412.481 503.244C407.286 510.265 401.201 516.58 394.379 522.032C375.199 537.81 349.999 550.452 333.493 557.816C323.189 562.436 316.245 564.984 316.245 564.984L305.549 551.726C305.549 551.726 328.649 533.75 354.185 514.15C371.545 500.808 390.025 486.696 403.101 476.98C403.821 476.462 404.627 476.074 405.481 475.832H405.551C406.819 475.505 408.12 475.322 409.429 475.286L412.229 475.104L414.455 474.964C428.287 474.04 458.527 472.43 458.527 472.43L472.639 439.74L523.907 442.974C523.907 442.974 533.399 495.404 516.389 506.8Z" fill="black"/>
<path d="M519.023 458.948C519.023 458.948 442.359 445.648 413.533 446.866C385.351 448.056 340.312 544.936 340.312 544.936L356.552 551.936C390.796 518.448 410.621 493.864 419.483 475.216C485.479 505.372 510.315 505.12 510.315 505.12L519.023 458.948Z" fill="#407BFF"/>
<path opacity="0.3" d="M519.023 458.948C519.023 458.948 442.359 445.648 413.533 446.866C385.351 448.056 340.312 544.936 340.312 544.936L356.552 551.936C390.796 518.448 410.621 493.864 419.483 475.216C485.479 505.372 510.315 505.12 510.315 505.12L519.023 458.948Z" fill="black"/>
<path d="M336.658 547.33L356.566 555.478L360.906 548.016L339.444 539.546L336.658 547.33Z" fill="#263238"/>
<path opacity="0.2" d="M419.482 475.174C419.482 475.174 422.072 469.014 426.482 468.3C430.892 467.586 467.6 470.652 467.6 470.652L419.482 475.174Z" fill="black"/>
<path d="M477.26 418.6L471.66 392.392C471.521 391.824 471.201 391.317 470.75 390.946C470.298 390.575 469.738 390.36 469.153 390.334H455.798C455.541 390.322 455.286 390.371 455.052 390.477C454.819 390.583 454.614 390.744 454.456 390.945C454.297 391.146 454.188 391.383 454.139 391.635C454.09 391.886 454.102 392.146 454.174 392.392L459.774 418.6C459.912 419.172 460.233 419.683 460.688 420.057C461.142 420.431 461.706 420.647 462.294 420.672H475.65C475.905 420.68 476.159 420.627 476.39 420.518C476.622 420.41 476.824 420.248 476.981 420.046C477.138 419.844 477.245 419.607 477.293 419.356C477.342 419.105 477.33 418.846 477.26 418.6Z" fill="#407BFF"/>
<path opacity="0.2" d="M474.39 420.63H462.28C461.692 420.605 461.129 420.389 460.674 420.015C460.22 419.641 459.899 419.13 459.76 418.558L454.16 392.35C454.088 392.104 454.076 391.844 454.125 391.593C454.174 391.341 454.283 391.105 454.442 390.903C454.601 390.702 454.805 390.541 455.039 390.435C455.272 390.329 455.528 390.28 455.784 390.292H467.894C468.478 390.318 469.038 390.533 469.49 390.904C469.942 391.275 470.261 391.782 470.4 392.35L476 418.6C476.063 418.844 476.068 419.098 476.016 419.343C475.964 419.589 475.856 419.819 475.7 420.016C475.544 420.213 475.344 420.371 475.117 420.477C474.89 420.584 474.641 420.636 474.39 420.63Z" fill="black"/>
<path d="M471.617 405.188L475.355 404.362C476.048 404.204 476.769 404.216 477.456 404.396C478.144 404.576 478.777 404.92 479.303 405.398L484.315 409.906C485.304 410.793 486.065 411.905 486.536 413.147C487.006 414.39 487.171 415.727 487.017 417.046L486.821 418.698C480.717 420.504 472.821 417.942 472.821 417.942L470.483 417.466C469.999 417.383 469.537 417.205 469.122 416.943C468.707 416.68 468.349 416.337 468.068 415.935C467.786 415.532 467.588 415.078 467.483 414.598C467.379 414.119 467.371 413.623 467.459 413.14L468.341 408.478C468.513 407.673 468.914 406.934 469.495 406.351C470.076 405.767 470.813 405.364 471.617 405.188Z" fill="#CE7A63"/>
<path opacity="0.6" d="M508.619 396.2L511.699 393.4C511.787 393.32 511.894 393.262 512.011 393.234C512.127 393.205 512.248 393.206 512.364 393.237C512.48 393.267 512.586 393.327 512.673 393.409C512.76 393.491 512.824 393.594 512.861 393.708L514.009 397.446C514.047 397.564 514.053 397.69 514.026 397.811C514 397.932 513.941 398.044 513.857 398.135C513.773 398.226 513.667 398.294 513.548 398.33C513.43 398.366 513.304 398.371 513.183 398.342L508.983 397.474C508.837 397.467 508.697 397.414 508.583 397.323C508.468 397.232 508.385 397.108 508.345 396.968C508.305 396.827 508.31 396.678 508.359 396.54C508.408 396.402 508.499 396.284 508.619 396.2Z" fill="white"/>
<path opacity="0.2" d="M522.997 396.83C522.997 396.83 517.467 408.94 522.997 413.098C528.527 417.256 533.035 398.09 522.997 396.83Z" fill="black"/>
<path d="M543.004 396.074C542.542 398.062 542.108 399.728 541.604 401.506C541.1 403.284 540.526 404.978 539.952 406.7C538.767 410.125 537.423 413.509 535.92 416.85C534.401 420.205 532.705 423.476 530.838 426.65C528.913 429.925 526.751 433.056 524.37 436.016L524.188 436.24C523.942 436.551 523.665 436.838 523.362 437.094C521.638 438.513 519.545 439.412 517.328 439.684C515.752 439.881 514.156 439.829 512.596 439.53C510.282 439.069 508.034 438.321 505.904 437.304C502.29 435.59 498.84 433.546 495.6 431.2C492.492 428.96 489.552 426.594 486.724 424.116C483.896 421.638 481.208 419.118 478.59 416.332C478.238 415.963 477.962 415.527 477.779 415.051C477.596 414.574 477.509 414.066 477.523 413.556C477.537 413.046 477.653 412.543 477.862 412.078C478.072 411.612 478.372 411.193 478.744 410.844C479.372 410.257 480.176 409.894 481.032 409.81C481.887 409.727 482.746 409.928 483.476 410.382H483.56C486.528 412.258 489.58 414.218 492.632 415.982C495.684 417.746 498.722 419.58 501.788 421.162C504.68 422.738 507.689 424.086 510.79 425.194C511.994 425.641 513.25 425.928 514.528 426.048C514.99 426.048 515.298 426.048 515.242 425.964C514.838 425.996 514.455 426.158 514.15 426.426L513.128 427.518C514.828 424.922 516.384 422.234 517.79 419.468C519.19 416.668 520.506 413.714 521.71 410.718C522.914 407.722 524.034 404.67 525.056 401.576C525.588 400.036 526.092 398.482 526.554 396.928C527.016 395.374 527.506 393.75 527.884 392.406V392.168C528.441 390.22 529.735 388.565 531.493 387.556C533.25 386.547 535.331 386.263 537.294 386.764C539.258 387.266 540.948 388.513 542.007 390.241C543.065 391.969 543.408 394.041 542.962 396.018L543.004 396.074Z" fill="#CE7A63"/>
<path d="M538.468 371.728C547.134 377.86 547.54 387.016 542.864 404.544C536.606 407.68 521.402 403.718 521.402 403.718C521.402 403.718 526.19 376.502 538.468 371.728Z" fill="#263238"/>
<path d="M610.68 437.206H531.748C526.381 437.207 521.209 439.221 517.253 442.85C513.298 446.478 510.847 451.458 510.384 456.806L505.498 512.722H499.898V554.078H586.236C588.727 554.077 591.127 553.144 592.964 551.463C594.801 549.781 595.942 547.473 596.162 544.992L602.322 474.46C602.457 472.931 603.112 471.495 604.176 470.389C605.241 469.284 606.652 468.576 608.174 468.384L610.708 468.062C612.751 467.799 614.643 466.847 616.071 465.363C617.5 463.879 618.378 461.952 618.562 459.9L619.682 447.034C619.795 445.785 619.646 444.526 619.245 443.337C618.844 442.149 618.199 441.057 617.352 440.132C616.504 439.207 615.473 438.469 614.325 437.965C613.176 437.462 611.935 437.203 610.68 437.206Z" fill="#263238"/>
<path opacity="0.6" d="M610.68 437.206H531.748C526.381 437.207 521.209 439.221 517.253 442.85C513.298 446.478 510.847 451.458 510.384 456.806L505.498 512.722H499.898V554.078H586.236C588.727 554.077 591.127 553.144 592.964 551.463C594.801 549.781 595.942 547.473 596.162 544.992L602.322 474.46C602.457 472.931 603.112 471.495 604.176 470.389C605.241 469.284 606.652 468.576 608.174 468.384L610.708 468.062C612.751 467.799 614.643 466.847 616.071 465.363C617.5 463.879 618.378 461.952 618.562 459.9L619.682 447.034C619.795 445.785 619.646 444.526 619.245 443.337C618.844 442.149 618.199 441.057 617.352 440.132C616.504 439.207 615.473 438.469 614.325 437.965C613.176 437.462 611.935 437.203 610.68 437.206Z" fill="white"/>
<g opacity="0.2">
<path d="M539.225 544.964L545.399 474.432C545.528 472.904 546.178 471.466 547.241 470.36C548.304 469.254 549.714 468.546 551.237 468.356L553.785 468.034C555.825 467.768 557.714 466.815 559.139 465.331C560.564 463.847 561.441 461.921 561.625 459.872L562.745 447.006C562.853 445.76 562.702 444.505 562.299 443.321C561.897 442.137 561.253 441.05 560.407 440.128C559.562 439.206 558.534 438.471 557.389 437.968C556.244 437.465 555.007 437.205 553.757 437.206H610.681C611.931 437.205 613.168 437.465 614.313 437.968C615.458 438.471 616.486 439.206 617.331 440.128C618.177 441.05 618.821 442.137 619.223 443.321C619.626 444.505 619.777 445.76 619.669 447.006L618.549 459.872C618.364 461.924 617.486 463.851 616.058 465.335C614.629 466.819 612.737 467.771 610.695 468.034L608.161 468.356C606.638 468.548 605.227 469.256 604.162 470.361C603.098 471.467 602.444 472.903 602.309 474.432L596.149 544.964C595.928 547.445 594.787 549.753 592.95 551.435C591.113 553.116 588.713 554.049 586.223 554.05H529.312C531.801 554.049 534.2 553.116 536.035 551.434C537.869 549.752 539.007 547.444 539.225 544.964Z" fill="black"/>
</g>
<path opacity="0.1" d="M553.756 437.206H531.748C526.381 437.207 521.209 439.221 517.253 442.85C513.298 446.478 510.847 451.458 510.384 456.806L505.498 512.722H499.898V554.078H529.298C531.787 554.077 534.186 553.144 536.021 551.462C537.855 549.78 538.993 547.472 539.21 544.992L545.384 474.46C545.514 472.932 546.164 471.494 547.227 470.388C548.29 469.282 549.7 468.574 551.222 468.384L553.77 468.062C555.811 467.796 557.7 466.843 559.125 465.359C560.55 463.875 561.427 461.949 561.61 459.9L562.73 447.034C562.843 445.787 562.695 444.53 562.295 443.344C561.896 442.157 561.253 441.067 560.409 440.143C559.565 439.218 558.537 438.479 557.392 437.974C556.247 437.468 555.008 437.207 553.756 437.206Z" fill="white"/>
</g>
<defs>
<clipPath id="clip0_432_303">
<rect width="700" height="700" fill="white"/>
</clipPath>
</defs>
</svg>
