<svg width="60" height="60" viewBox="0 0 60 60" fill="none" xmlns="http://www.w3.org/2000/svg">
<path d="M33.75 26.25H26.25C25.7527 26.25 25.2758 26.0525 24.9242 25.7008C24.5725 25.3492 24.375 24.8723 24.375 24.375V20.625C24.375 19.1332 24.9676 17.7024 26.0225 16.6475C27.0774 15.5926 28.5082 15 30 15C31.4918 15 32.9226 15.5926 33.9775 16.6475C35.0324 17.7024 35.625 19.1332 35.625 20.625V24.375C35.625 24.8723 35.4275 25.3492 35.0758 25.7008C34.7242 26.0525 34.2473 26.25 33.75 26.25ZM28.125 22.5H31.875V20.625C31.875 20.1277 31.6775 19.6508 31.3258 19.2992C30.9742 18.9475 30.4973 18.75 30 18.75C29.5027 18.75 29.0258 18.9475 28.6742 19.2992C28.3225 19.6508 28.125 20.1277 28.125 20.625V22.5Z" fill="#0E6AE0"/>
<path d="M35.625 22.5H24.375C21.2684 22.5 18.75 25.0184 18.75 28.125V39.375C18.75 42.4816 21.2684 45 24.375 45H35.625C38.7316 45 41.25 42.4816 41.25 39.375V28.125C41.25 25.0184 38.7316 22.5 35.625 22.5Z" fill="#0593FF"/>
<path d="M33.7499 31.8751C33.7539 31.2159 33.584 30.5673 33.2574 29.9947C32.9308 29.422 32.4591 28.9456 31.8896 28.6134C31.3202 28.2813 30.6733 28.105 30.0141 28.1026C29.3549 28.1001 28.7067 28.2714 28.1348 28.5993C27.5629 28.9272 27.0876 29.4 26.7567 29.9702C26.4258 30.5403 26.251 31.1876 26.25 31.8468C26.249 32.5061 26.4218 33.1539 26.751 33.725C27.0801 34.2962 27.554 34.7705 28.1249 35.1001V37.5001C28.1249 37.9974 28.3225 38.4743 28.6741 38.8259C29.0257 39.1776 29.5027 39.3751 29.9999 39.3751C30.4972 39.3751 30.9741 39.1776 31.3258 38.8259C31.6774 38.4743 31.8749 37.9974 31.8749 37.5001V35.1001C32.4417 34.7729 32.913 34.3031 33.2419 33.7373C33.5708 33.1715 33.746 32.5295 33.7499 31.8751Z" fill="#0E6AE0"/>
<path d="M30 13.125C29.5027 13.125 29.0258 12.9275 28.6742 12.5758C28.3225 12.2242 28.125 11.7473 28.125 11.25V7.5C28.125 7.00272 28.3225 6.52581 28.6742 6.17417C29.0258 5.82254 29.5027 5.625 30 5.625C30.4973 5.625 30.9742 5.82254 31.3258 6.17417C31.6775 6.52581 31.875 7.00272 31.875 7.5V11.25C31.875 11.7473 31.6775 12.2242 31.3258 12.5758C30.9742 12.9275 30.4973 13.125 30 13.125Z" fill="#D8E1EF"/>
<path d="M39.3751 22.5C39.1284 22.5014 38.8837 22.4541 38.6553 22.3608C38.4269 22.2675 38.2191 22.13 38.0439 21.9563C37.8681 21.7819 37.7286 21.5746 37.6335 21.3461C37.5383 21.1176 37.4893 20.8725 37.4893 20.625C37.4893 20.3775 37.5383 20.1324 37.6335 19.9039C37.7286 19.6754 37.8681 19.4681 38.0439 19.2937L45.0001 12.3563V9.375C45.0001 8.87772 45.1977 8.40081 45.5493 8.04918C45.9009 7.69754 46.3778 7.5 46.8751 7.5C47.3724 7.5 47.8493 7.69754 48.201 8.04918C48.5526 8.40081 48.7501 8.87772 48.7501 9.375V13.125C48.7516 13.3718 48.7043 13.6164 48.611 13.8448C48.5176 14.0733 48.3802 14.281 48.2064 14.4563L40.7064 21.9563C40.5312 22.13 40.3234 22.2675 40.095 22.3608C39.8665 22.4541 39.6219 22.5014 39.3751 22.5Z" fill="#D8E1EF"/>
<path d="M20.625 22.5C20.3783 22.5014 20.1337 22.4541 19.9052 22.3608C19.6768 22.2675 19.469 22.13 19.2938 21.9563L11.7938 14.4563C11.62 14.281 11.4825 14.0733 11.3892 13.8448C11.2959 13.6164 11.2486 13.3718 11.25 13.125V9.375C11.25 8.87772 11.4476 8.40081 11.7992 8.04918C12.1508 7.69754 12.6278 7.5 13.125 7.5C13.6223 7.5 14.0992 7.69754 14.4509 8.04918C14.8025 8.40081 15 8.87772 15 9.375V12.3563L21.9563 19.2937C22.132 19.4681 22.2715 19.6754 22.3667 19.9039C22.4619 20.1324 22.5109 20.3775 22.5109 20.625C22.5109 20.8725 22.4619 21.1176 22.3667 21.3461C22.2715 21.5746 22.132 21.7819 21.9563 21.9563C21.7811 22.13 21.5733 22.2675 21.3449 22.3608C21.1164 22.4541 20.8718 22.5014 20.625 22.5Z" fill="#D8E1EF"/>
<path d="M46.8749 52.5001C46.3776 52.5001 45.9007 52.3026 45.549 51.9509C45.1974 51.5993 44.9999 51.1224 44.9999 50.6251V47.6439L41.7936 44.4564C41.4405 44.1033 41.2422 43.6244 41.2422 43.1251C41.2422 42.6258 41.4405 42.1469 41.7936 41.7939C42.1467 41.4408 42.6255 41.2424 43.1249 41.2424C43.6242 41.2424 44.103 41.4408 44.4561 41.7939L48.2061 45.5439C48.3799 45.7191 48.5174 45.9268 48.6107 46.1553C48.704 46.3837 48.7513 46.6283 48.7499 46.8751V50.6251C48.7499 51.1224 48.5523 51.5993 48.2007 51.9509C47.8491 52.3026 47.3721 52.5001 46.8749 52.5001Z" fill="#D8E1EF"/>
<path d="M13.125 52.5001C12.6278 52.5001 12.1508 52.3026 11.7992 51.9509C11.4476 51.5993 11.25 51.1224 11.25 50.6251V46.8751C11.2486 46.6283 11.2959 46.3837 11.3892 46.1553C11.4825 45.9268 11.62 45.7191 11.7938 45.5439L15.5438 41.7939C15.7186 41.619 15.9261 41.4804 16.1546 41.3857C16.383 41.2911 16.6278 41.2424 16.875 41.2424C17.1223 41.2424 17.3671 41.2911 17.5955 41.3857C17.8239 41.4804 18.0315 41.619 18.2063 41.7939C18.3811 41.9687 18.5198 42.1762 18.6144 42.4046C18.709 42.6331 18.7577 42.8779 18.7577 43.1251C18.7577 43.3723 18.709 43.6172 18.6144 43.8456C18.5198 44.074 18.3811 44.2815 18.2063 44.4564L15 47.6439V50.6251C15 51.1224 14.8025 51.5993 14.4509 51.9509C14.0992 52.3026 13.6223 52.5001 13.125 52.5001Z" fill="#D8E1EF"/>
<path d="M30 54.375C29.5027 54.375 29.0258 54.1775 28.6742 53.8258C28.3225 53.4742 28.125 52.9973 28.125 52.5V48.75C28.125 48.2527 28.3225 47.7758 28.6742 47.4242C29.0258 47.0725 29.5027 46.875 30 46.875C30.4973 46.875 30.9742 47.0725 31.3258 47.4242C31.6775 47.7758 31.875 48.2527 31.875 48.75V52.5C31.875 52.9973 31.6775 53.4742 31.3258 53.8258C30.9742 54.1775 30.4973 54.375 30 54.375Z" fill="#D8E1EF"/>
<path d="M52.5 31.875H45C44.5027 31.875 44.0258 31.6775 43.6742 31.3258C43.3225 30.9742 43.125 30.4973 43.125 30C43.125 29.5027 43.3225 29.0258 43.6742 28.6742C44.0258 28.3225 44.5027 28.125 45 28.125H52.5C52.9973 28.125 53.4742 28.3225 53.8258 28.6742C54.1775 29.0258 54.375 29.5027 54.375 30C54.375 30.4973 54.1775 30.9742 53.8258 31.3258C53.4742 31.6775 52.9973 31.875 52.5 31.875Z" fill="#D8E1EF"/>
<path d="M15 31.875H7.5C7.00272 31.875 6.52581 31.6775 6.17417 31.3258C5.82254 30.9742 5.625 30.4973 5.625 30C5.625 29.5027 5.82254 29.0258 6.17417 28.6742C6.52581 28.3225 7.00272 28.125 7.5 28.125H15C15.4973 28.125 15.9742 28.3225 16.3258 28.6742C16.6775 29.0258 16.875 29.5027 16.875 30C16.875 30.4973 16.6775 30.9742 16.3258 31.3258C15.9742 31.6775 15.4973 31.875 15 31.875Z" fill="#D8E1EF"/>
<path d="M46.8752 11.25C46.0074 11.2536 45.1652 10.9562 44.4922 10.4084C43.8192 9.86065 43.3569 9.0964 43.1843 8.24596C43.0117 7.39552 43.1394 6.51154 43.5456 5.7447C43.9518 4.97785 44.6113 4.37561 45.4118 4.04064C46.2124 3.70567 47.1043 3.6587 47.9356 3.90774C48.7668 4.15678 49.486 4.68641 49.9705 5.40635C50.455 6.12629 50.6748 6.99198 50.5925 7.85584C50.5101 8.71971 50.1307 9.52827 49.5189 10.1437C48.8189 10.8479 47.8681 11.2458 46.8752 11.25Z" fill="#D8E1EF"/>
<path d="M13.1252 11.25C12.2574 11.2536 11.4152 10.9562 10.7422 10.4084C10.0692 9.86065 9.60695 9.0964 9.43432 8.24596C9.2617 7.39552 9.38937 6.51154 9.79556 5.7447C10.2018 4.97785 10.8613 4.37561 11.6618 4.04064C12.4624 3.70567 13.3543 3.6587 14.1856 3.90774C15.0168 4.15678 15.736 4.68641 16.2205 5.40635C16.705 6.12629 16.9248 6.99198 16.8425 7.85584C16.7601 8.71971 16.3807 9.52827 15.7689 10.1437C15.0689 10.8479 14.1181 11.2458 13.1252 11.25Z" fill="#D8E1EF"/>
<path d="M46.8752 56.25C46.0074 56.2536 45.1652 55.9562 44.4922 55.4084C43.8192 54.8606 43.3569 54.0964 43.1843 53.246C43.0117 52.3955 43.1394 51.5115 43.5456 50.7447C43.9518 49.9778 44.6113 49.3756 45.4118 49.0406C46.2124 48.7057 47.1043 48.6587 47.9356 48.9077C48.7668 49.1568 49.486 49.6864 49.9705 50.4063C50.455 51.1263 50.6748 51.992 50.5925 52.8558C50.5101 53.7197 50.1307 54.5283 49.5189 55.1437C48.8189 55.8479 47.8681 56.2458 46.8752 56.25Z" fill="#D8E1EF"/>
<path d="M13.1252 56.25C12.2574 56.2536 11.4152 55.9562 10.7422 55.4084C10.0692 54.8606 9.60695 54.0964 9.43432 53.246C9.2617 52.3955 9.38937 51.5115 9.79556 50.7447C10.2018 49.9778 10.8613 49.3756 11.6618 49.0406C12.4624 48.7057 13.3543 48.6587 14.1856 48.9077C15.0168 49.1568 15.736 49.6864 16.2205 50.4063C16.705 51.1263 16.9248 51.992 16.8425 52.8558C16.7601 53.7197 16.3807 54.5283 15.7689 55.1437C15.0689 55.8479 14.1181 56.2458 13.1252 56.25Z" fill="#D8E1EF"/>
<path d="M54.375 33.75C56.4461 33.75 58.125 32.0711 58.125 30C58.125 27.9289 56.4461 26.25 54.375 26.25C52.3039 26.25 50.625 27.9289 50.625 30C50.625 32.0711 52.3039 33.75 54.375 33.75Z" fill="#D8E1EF"/>
<path d="M5.625 33.75C7.69607 33.75 9.375 32.0711 9.375 30C9.375 27.9289 7.69607 26.25 5.625 26.25C3.55393 26.25 1.875 27.9289 1.875 30C1.875 32.0711 3.55393 33.75 5.625 33.75Z" fill="#D8E1EF"/>
<path d="M30 58.125C29.2583 58.125 28.5333 57.9051 27.9166 57.493C27.2999 57.081 26.8193 56.4953 26.5355 55.8101C26.2516 55.1248 26.1774 54.3708 26.3221 53.6434C26.4668 52.916 26.8239 52.2478 27.3484 51.7234C27.8728 51.1989 28.541 50.8418 29.2684 50.6971C29.9958 50.5524 30.7498 50.6266 31.4351 50.9105C32.1203 51.1943 32.706 51.6749 33.118 52.2916C33.5301 52.9083 33.75 53.6333 33.75 54.375C33.75 55.3696 33.3549 56.3234 32.6517 57.0267C31.9484 57.7299 30.9946 58.125 30 58.125Z" fill="#D8E1EF"/>
<path d="M30 9.375C29.2583 9.375 28.5333 9.15507 27.9166 8.74301C27.2999 8.33096 26.8193 7.74529 26.5355 7.06006C26.2516 6.37484 26.1774 5.62084 26.3221 4.89341C26.4668 4.16598 26.8239 3.4978 27.3484 2.97335C27.8728 2.4489 28.541 2.09175 29.2684 1.94706C29.9958 1.80236 30.7498 1.87662 31.4351 2.16045C32.1203 2.44428 32.706 2.92493 33.118 3.54161C33.5301 4.1583 33.75 4.88332 33.75 5.625C33.75 6.61956 33.3549 7.57339 32.6517 8.27665C31.9484 8.97991 30.9946 9.375 30 9.375Z" fill="#D8E1EF"/>
</svg>
