<svg width="500" height="500" viewBox="0 0 500 500" fill="none" xmlns="http://www.w3.org/2000/svg">
<path d="M449.9 398.49H416.78V398.74H449.9V398.49Z" fill="#EBEBEB"/>
<path d="M331.22 401.21H322.53V401.46H331.22V401.21Z" fill="#EBEBEB"/>
<path d="M415.78 389.21H396.59V389.46H415.78V389.21Z" fill="#EBEBEB"/>
<path d="M95.65 390.89H52.46V391.14H95.65V390.89Z" fill="#EBEBEB"/>
<path d="M110.89 390.89H104.56V391.14H110.89V390.89Z" fill="#EBEBEB"/>
<path d="M225.15 395.11H131.47V395.36H225.15V395.11Z" fill="#EBEBEB"/>
<path d="M500 382.4H0V382.65H500V382.4Z" fill="#EBEBEB"/>
<path d="M125.19 371.94L133.82 349.47H132.49L123.26 371.94H125.19Z" fill="#E0E0E0"/>
<path d="M128.47 372.06L139.27 355.89L138.22 355.65L126.95 371.71L128.47 372.06Z" fill="#E0E0E0"/>
<path d="M87.5299 371.88L78.8999 349.41H80.2299L89.4699 371.88H87.5299Z" fill="#E0E0E0"/>
<path d="M84.25 372L73.45 355.83L74.5 355.59L85.77 371.65L84.25 372Z" fill="#E0E0E0"/>
<path d="M108.03 369.42H106.14L106.65 343.89H107.52L108.03 369.42Z" fill="#E0E0E0"/>
<path d="M87.8799 371.88L88.3299 372.88H89.6099L89.1999 371.88H87.8799Z" fill="#E0E0E0"/>
<path d="M124.86 371.88L124.42 372.88H123.13L123.54 371.88H124.86Z" fill="#E0E0E0"/>
<path d="M84.6001 371.94L85.2101 373.08H86.4701L85.3801 371.74L84.6001 371.94Z" fill="#E0E0E0"/>
<path d="M128.16 371.94L127.55 373.08H126.29L127.38 371.74L128.16 371.94Z" fill="#E0E0E0"/>
<path d="M106.41 369.42V371.47H107.76V369.42H106.41Z" fill="#E0E0E0"/>
<path d="M90.9999 378.76H85.6599V382.09H90.9999V378.76Z" fill="#E0E0E0"/>
<path d="M127.22 378.76H121.88V382.09H127.22V378.76Z" fill="#E0E0E0"/>
<path d="M129.09 380.23L117.49 381.49C110.128 382.29 102.702 382.29 95.34 381.49L83.73 380.23V373L93.16 371.78C101.959 370.63 110.871 370.63 119.67 371.78L129.09 373V380.23Z" fill="#EBEBEB"/>
<path d="M88.3199 374.68C87.8955 374.682 87.4812 374.81 87.1292 375.047C86.7772 375.284 86.5032 375.62 86.3417 376.012C86.1802 376.404 86.1385 376.836 86.2217 377.252C86.305 377.668 86.5096 378.05 86.8097 378.35C87.1097 378.651 87.4919 378.855 87.908 378.938C88.3242 379.022 88.7556 378.98 89.1481 378.818C89.5405 378.657 89.8764 378.383 90.1134 378.031C90.3504 377.679 90.4779 377.265 90.4799 376.84C90.4812 376.556 90.4263 376.275 90.3182 376.012C90.2101 375.749 90.0511 375.511 89.8502 375.31C89.6494 375.109 89.4107 374.95 89.1481 374.842C88.8854 374.734 88.6039 374.679 88.3199 374.68ZM88.3199 378.13C87.9804 378.13 87.6549 377.995 87.4148 377.755C87.1748 377.515 87.0399 377.19 87.0399 376.85C87.0399 376.511 87.1748 376.185 87.4148 375.945C87.6549 375.705 87.9804 375.57 88.3199 375.57C88.6594 375.57 88.985 375.705 89.225 375.945C89.4651 376.185 89.5999 376.511 89.5999 376.85C89.5999 377.19 89.4651 377.515 89.225 377.755C88.985 377.995 88.6594 378.13 88.3199 378.13Z" fill="white"/>
<path d="M100.5 376.85C100.5 376.984 100.46 377.116 100.385 377.228C100.311 377.34 100.204 377.427 100.08 377.478C99.9559 377.53 99.8191 377.543 99.6872 377.517C99.5553 377.491 99.4342 377.426 99.3391 377.331C99.244 377.236 99.1792 377.114 99.153 376.983C99.1267 376.851 99.1402 376.714 99.1917 376.59C99.2431 376.465 99.3303 376.359 99.4421 376.285C99.5539 376.21 99.6854 376.17 99.8199 376.17C100 376.17 100.173 376.242 100.301 376.369C100.428 376.497 100.5 376.67 100.5 376.85Z" fill="white"/>
<path d="M102.92 376.85C102.92 376.984 102.88 377.116 102.805 377.228C102.731 377.34 102.625 377.427 102.5 377.478C102.376 377.53 102.239 377.543 102.107 377.517C101.975 377.491 101.854 377.426 101.759 377.331C101.664 377.236 101.599 377.114 101.573 376.983C101.547 376.851 101.56 376.714 101.612 376.59C101.663 376.465 101.75 376.359 101.862 376.285C101.974 376.21 102.106 376.17 102.24 376.17C102.42 376.17 102.593 376.242 102.721 376.369C102.848 376.497 102.92 376.67 102.92 376.85Z" fill="white"/>
<path d="M105.34 376.85C105.34 377.03 105.268 377.203 105.141 377.331C105.013 377.458 104.84 377.53 104.66 377.53C104.48 377.53 104.307 377.458 104.179 377.331C104.052 377.203 103.98 377.03 103.98 376.85C103.98 376.67 104.052 376.497 104.179 376.369C104.307 376.242 104.48 376.17 104.66 376.17C104.84 376.17 105.013 376.242 105.141 376.369C105.268 376.497 105.34 376.67 105.34 376.85Z" fill="white"/>
<path d="M107.76 376.85C107.76 377.03 107.688 377.203 107.561 377.331C107.433 377.458 107.26 377.53 107.08 377.53C106.9 377.53 106.727 377.458 106.599 377.331C106.472 377.203 106.4 377.03 106.4 376.85C106.4 376.67 106.472 376.497 106.599 376.369C106.727 376.242 106.9 376.17 107.08 376.17C107.26 376.17 107.433 376.242 107.561 376.369C107.688 376.497 107.76 376.67 107.76 376.85Z" fill="white"/>
<path d="M110.19 376.85C110.19 376.984 110.15 377.116 110.075 377.228C110.001 377.34 109.895 377.427 109.77 377.478C109.646 377.53 109.509 377.543 109.377 377.517C109.246 377.491 109.124 377.426 109.029 377.331C108.934 377.236 108.869 377.114 108.843 376.983C108.817 376.851 108.83 376.714 108.882 376.59C108.933 376.465 109.02 376.359 109.132 376.285C109.244 376.21 109.376 376.17 109.51 376.17C109.69 376.17 109.863 376.242 109.991 376.369C110.118 376.497 110.19 376.67 110.19 376.85Z" fill="white"/>
<path d="M112.61 376.85C112.61 376.984 112.57 377.116 112.495 377.228C112.421 377.34 112.314 377.427 112.19 377.478C112.066 377.53 111.929 377.543 111.797 377.517C111.665 377.491 111.544 377.426 111.449 377.331C111.354 377.236 111.289 377.115 111.263 376.983C111.237 376.851 111.25 376.714 111.302 376.59C111.353 376.466 111.44 376.359 111.552 376.285C111.664 376.21 111.796 376.17 111.93 376.17C112.02 376.169 112.109 376.185 112.192 376.219C112.275 376.253 112.35 376.303 112.414 376.366C112.477 376.43 112.527 376.505 112.561 376.588C112.595 376.671 112.611 376.76 112.61 376.85Z" fill="white"/>
<path d="M115 376.85C115 377.03 114.928 377.203 114.801 377.331C114.673 377.458 114.5 377.53 114.32 377.53C114.14 377.53 113.967 377.458 113.839 377.331C113.712 377.203 113.64 377.03 113.64 376.85C113.64 376.67 113.712 376.497 113.839 376.369C113.967 376.242 114.14 376.17 114.32 376.17C114.5 376.17 114.673 376.242 114.801 376.369C114.928 376.497 115 376.67 115 376.85Z" fill="white"/>
<path d="M400.33 379.89L393.48 364.72H377.48L379.94 378.93C379.972 379.114 379.964 379.303 379.915 379.483C379.867 379.663 379.779 379.831 379.659 379.974C379.539 380.116 379.389 380.231 379.22 380.31C379.051 380.389 378.867 380.43 378.68 380.43H371.68C371.59 380.429 371.501 380.446 371.418 380.479C371.335 380.513 371.26 380.563 371.196 380.626C371.133 380.69 371.083 380.765 371.049 380.848C371.015 380.931 370.999 381.021 371 381.11V381.86C370.999 381.95 371.015 382.039 371.049 382.122C371.083 382.205 371.133 382.281 371.196 382.344C371.26 382.407 371.335 382.458 371.418 382.491C371.501 382.525 371.59 382.542 371.68 382.54H399.86C400.055 382.538 400.24 382.458 400.377 382.32C400.513 382.181 400.59 381.995 400.59 381.8V381C400.582 380.616 400.494 380.238 400.33 379.89Z" fill="#F5F5F5"/>
<path d="M401.23 379.89L394.38 364.72H393.48L400.33 379.89C400.49 380.245 400.571 380.631 400.57 381.02V381.8C400.57 381.995 400.493 382.181 400.357 382.32C400.22 382.458 400.034 382.538 399.84 382.54H400.74C400.936 382.54 401.124 382.462 401.263 382.323C401.402 382.185 401.48 381.996 401.48 381.8V381C401.48 380.616 401.395 380.237 401.23 379.89Z" fill="#E0E0E0"/>
<path d="M393.48 364.73H377.47L378.1 368.35H395.11L393.48 364.73Z" fill="#E0E0E0"/>
<path d="M418 366.32H349.71C349.39 366.326 349.072 366.264 348.778 366.138C348.483 366.011 348.219 365.823 348.004 365.586C347.788 365.35 347.625 365.07 347.526 364.765C347.427 364.46 347.394 364.138 347.43 363.82L351.75 314.48C351.818 313.804 352.132 313.177 352.631 312.716C353.13 312.255 353.781 311.994 354.46 311.98H422.75C423.07 311.974 423.388 312.036 423.682 312.162C423.977 312.289 424.241 312.477 424.456 312.713C424.672 312.95 424.835 313.23 424.934 313.535C425.033 313.839 425.066 314.162 425.03 314.48L420.71 363.82C420.642 364.496 420.328 365.123 419.829 365.584C419.33 366.044 418.679 366.306 418 366.32Z" fill="#E6E6E6"/>
<path d="M347.9 358.48L347.43 363.82C347.394 364.138 347.427 364.461 347.526 364.765C347.625 365.07 347.788 365.35 348.004 365.587C348.219 365.823 348.483 366.011 348.778 366.138C349.072 366.264 349.39 366.326 349.71 366.32H418C418.681 366.309 419.334 366.048 419.835 365.587C420.337 365.126 420.652 364.498 420.72 363.82L421.19 358.48H347.9Z" fill="#F5F5F5"/>
<path d="M418.77 357H350.57C350.397 357.003 350.224 356.968 350.065 356.899C349.906 356.83 349.764 356.727 349.647 356.599C349.531 356.47 349.443 356.318 349.39 356.152C349.337 355.987 349.32 355.812 349.34 355.64L352.91 314.86C352.945 314.493 353.114 314.152 353.386 313.903C353.657 313.653 354.011 313.513 354.38 313.51H422.57C422.744 313.506 422.916 313.539 423.075 313.607C423.235 313.675 423.378 313.777 423.496 313.904C423.613 314.032 423.702 314.184 423.756 314.348C423.81 314.513 423.829 314.688 423.81 314.86L420.24 355.64C420.201 356.006 420.031 356.346 419.761 356.596C419.49 356.847 419.138 356.99 418.77 357Z" fill="#E0E0E0"/>
<path d="M424.26 312H422.75C423.07 311.994 423.388 312.056 423.682 312.182C423.977 312.309 424.241 312.497 424.456 312.733C424.672 312.97 424.835 313.25 424.934 313.555C425.033 313.859 425.066 314.182 425.03 314.5L420.71 363.84C420.641 364.517 420.327 365.146 419.825 365.607C419.324 366.068 418.671 366.329 417.99 366.34H419.5C420.181 366.329 420.834 366.068 421.335 365.607C421.837 365.146 422.152 364.517 422.22 363.84L426.54 314.5C426.576 314.182 426.543 313.859 426.444 313.555C426.345 313.25 426.182 312.97 425.966 312.733C425.751 312.497 425.487 312.309 425.192 312.182C424.898 312.056 424.58 311.994 424.26 312Z" fill="#E0E0E0"/>
<path d="M395.7 381.11V381.83C395.7 382.019 395.625 382.199 395.492 382.332C395.359 382.465 395.178 382.54 394.99 382.54H371.66C371.57 382.542 371.481 382.525 371.398 382.491C371.315 382.458 371.24 382.408 371.176 382.344C371.113 382.281 371.063 382.205 371.029 382.122C370.995 382.039 370.979 381.95 370.98 381.86V381.11C370.979 381.021 370.995 380.932 371.029 380.848C371.063 380.765 371.113 380.69 371.176 380.626C371.24 380.563 371.315 380.513 371.398 380.479C371.481 380.446 371.57 380.429 371.66 380.43H378.66C378.746 380.44 378.834 380.44 378.92 380.43H395C395.182 380.433 395.355 380.504 395.485 380.631C395.616 380.757 395.692 380.929 395.7 381.11Z" fill="#FAFAFA"/>
<path d="M400.5 380.4H378.93C379.211 380.337 379.462 380.181 379.643 379.958C379.825 379.735 379.926 379.457 379.93 379.17H399.93L400.5 380.4Z" fill="#E0E0E0"/>
<g opacity="0.3">
<path d="M397.21 356.45H399.84L408.95 313.58L408.97 313.49H406.35L406.32 313.58L397.21 356.45Z" fill="white"/>
<path d="M384.71 356.45H394.56L403.67 313.58L403.69 313.49H393.84L393.82 313.58L384.71 356.45Z" fill="white"/>
</g>
<path d="M353.76 378.12H381.57V382.64H325.95V380.79L353.76 378.12Z" fill="#F0F0F0"/>
<path d="M353.76 382.64H381.57V378.12L353.76 380.79V382.64Z" fill="#E0E0E0"/>
<path d="M422.09 199.82H402.74C396.659 199.82 391.73 204.75 391.73 210.83V230.18C391.73 236.261 396.659 241.19 402.74 241.19H422.09C428.171 241.19 433.1 236.261 433.1 230.18V210.83C433.1 204.75 428.171 199.82 422.09 199.82Z" fill="#E0E0E0"/>
<path fill-rule="evenodd" clip-rule="evenodd" d="M405.07 227.21C404.707 227.102 404.374 226.909 404.101 226.646C403.828 226.383 403.622 226.059 403.5 225.7C402.79 223.84 402.5 216.09 403.78 214.53C404.194 214.029 404.785 213.707 405.43 213.63C408.94 213.25 419.78 213.3 421.03 213.76C421.38 213.873 421.699 214.065 421.964 214.319C422.229 214.574 422.433 214.885 422.56 215.23C423.32 217.15 423.43 224.15 422.56 225.99C422.334 226.476 421.95 226.871 421.47 227.11C420.27 227.79 406.8 227.78 405.07 227.21ZM408.82 225.45L418.17 220.58L408.7 215.67C408.7 218.93 408.77 222.18 408.82 225.45Z" fill="white"/>
<path d="M108.5 198.99H89.1301C83.0384 198.99 78.1001 203.929 78.1001 210.02V229.39C78.1001 235.482 83.0384 240.42 89.1301 240.42H108.5C114.592 240.42 119.53 235.482 119.53 229.39V210.02C119.53 203.929 114.592 198.99 108.5 198.99Z" fill="#E0E0E0"/>
<path d="M87.6601 207.42H86.6201V208.46H87.6601V207.42Z" fill="white"/>
<path d="M88.6999 207.42H87.6599V208.46H88.6999V207.42Z" fill="white"/>
<path d="M89.74 207.42H88.7V208.46H89.74V207.42Z" fill="white"/>
<path d="M87.6601 208.46H86.6201V209.5H87.6601V208.46Z" fill="white"/>
<path d="M87.6601 209.5H86.6201V210.54H87.6601V209.5Z" fill="white"/>
<path d="M87.6601 231.11H86.6201V232.15H87.6601V231.11Z" fill="white"/>
<path d="M87.6601 230.07H86.6201V231.11H87.6601V230.07Z" fill="white"/>
<path d="M87.6601 229.03H86.6201V230.07H87.6601V229.03Z" fill="white"/>
<path d="M88.6999 231.11H87.6599V232.15H88.6999V231.11Z" fill="white"/>
<path d="M89.74 231.11H88.7V232.15H89.74V231.11Z" fill="white"/>
<path d="M111.1 207.42H110.06V208.46H111.1V207.42Z" fill="white"/>
<path d="M111.1 208.46H110.06V209.5H111.1V208.46Z" fill="white"/>
<path d="M111.1 209.5H110.06V210.54H111.1V209.5Z" fill="white"/>
<path d="M110.06 207.42H109.02V208.46H110.06V207.42Z" fill="white"/>
<path d="M109.02 207.42H107.98V208.46H109.02V207.42Z" fill="white"/>
<path d="M111.05 231.11H110.01V232.15H111.05V231.11Z" fill="white"/>
<path d="M111.05 230.07H110.01V231.11H111.05V230.07Z" fill="white"/>
<path d="M111.05 229.03H110.01V230.07H111.05V229.03Z" fill="white"/>
<path d="M110.01 231.11H108.97V232.15H110.01V231.11Z" fill="white"/>
<path d="M108.97 231.11H107.93V232.15H108.97V231.11Z" fill="white"/>
<path d="M89.74 209.81H88.7V210.85H89.74V209.81Z" fill="white"/>
<path d="M90.78 209.81H89.74V210.85H90.78V209.81Z" fill="white"/>
<path d="M91.82 209.81H90.78V210.85H91.82V209.81Z" fill="white"/>
<path d="M92.8601 209.81H91.8201V210.85H92.8601V209.81Z" fill="white"/>
<path d="M93.8901 209.81H92.8501V210.85H93.8901V209.81Z" fill="white"/>
<path d="M94.9299 209.81H93.8899V210.85H94.9299V209.81Z" fill="white"/>
<path d="M95.9699 209.81H94.9299V210.85H95.9699V209.81Z" fill="white"/>
<path d="M89.74 210.85H88.7V211.89H89.74V210.85Z" fill="white"/>
<path d="M95.9699 210.85H94.9299V211.89H95.9699V210.85Z" fill="white"/>
<path d="M89.74 211.89H88.7V212.93H89.74V211.89Z" fill="white"/>
<path d="M91.82 211.89H90.78V212.93H91.82V211.89Z" fill="white"/>
<path d="M92.8601 211.89H91.8201V212.93H92.8601V211.89Z" fill="white"/>
<path d="M93.8901 211.89H92.8501V212.93H93.8901V211.89Z" fill="white"/>
<path d="M95.9699 211.89H94.9299V212.93H95.9699V211.89Z" fill="white"/>
<path d="M89.74 212.93H88.7V213.97H89.74V212.93Z" fill="white"/>
<path d="M91.82 212.93H90.78V213.97H91.82V212.93Z" fill="white"/>
<path d="M92.8601 212.93H91.8201V213.97H92.8601V212.93Z" fill="white"/>
<path d="M93.8901 212.93H92.8501V213.97H93.8901V212.93Z" fill="white"/>
<path d="M95.9699 212.93H94.9299V213.97H95.9699V212.93Z" fill="white"/>
<path d="M89.74 213.97H88.7V215.01H89.74V213.97Z" fill="white"/>
<path d="M91.82 213.97H90.78V215.01H91.82V213.97Z" fill="white"/>
<path d="M92.8601 213.97H91.8201V215.01H92.8601V213.97Z" fill="white"/>
<path d="M93.8901 213.97H92.8501V215.01H93.8901V213.97Z" fill="white"/>
<path d="M95.9699 213.97H94.9299V215.01H95.9699V213.97Z" fill="white"/>
<path d="M89.74 215.01H88.7V216.05H89.74V215.01Z" fill="white"/>
<path d="M95.9699 215.01H94.9299V216.05H95.9699V215.01Z" fill="white"/>
<path d="M89.74 216.05H88.7V217.09H89.74V216.05Z" fill="white"/>
<path d="M90.78 216.05H89.74V217.09H90.78V216.05Z" fill="white"/>
<path d="M91.82 216.05H90.78V217.09H91.82V216.05Z" fill="white"/>
<path d="M92.8601 216.05H91.8201V217.09H92.8601V216.05Z" fill="white"/>
<path d="M93.8901 216.05H92.8501V217.09H93.8901V216.05Z" fill="white"/>
<path d="M94.9299 216.05H93.8899V217.09H94.9299V216.05Z" fill="white"/>
<path d="M95.9699 216.05H94.9299V217.09H95.9699V216.05Z" fill="white"/>
<path d="M102.73 209.81H101.69V210.85H102.73V209.81Z" fill="white"/>
<path d="M103.77 209.81H102.73V210.85H103.77V209.81Z" fill="white"/>
<path d="M104.81 209.81H103.77V210.85H104.81V209.81Z" fill="white"/>
<path d="M105.85 209.81H104.81V210.85H105.85V209.81Z" fill="white"/>
<path d="M106.89 209.81H105.85V210.85H106.89V209.81Z" fill="white"/>
<path d="M107.93 209.81H106.89V210.85H107.93V209.81Z" fill="white"/>
<path d="M108.97 209.81H107.93V210.85H108.97V209.81Z" fill="white"/>
<path d="M102.73 210.85H101.69V211.89H102.73V210.85Z" fill="white"/>
<path d="M108.97 210.85H107.93V211.89H108.97V210.85Z" fill="white"/>
<path d="M102.73 211.89H101.69V212.93H102.73V211.89Z" fill="white"/>
<path d="M104.81 211.89H103.77V212.93H104.81V211.89Z" fill="white"/>
<path d="M105.85 211.89H104.81V212.93H105.85V211.89Z" fill="white"/>
<path d="M106.89 211.89H105.85V212.93H106.89V211.89Z" fill="white"/>
<path d="M108.97 211.89H107.93V212.93H108.97V211.89Z" fill="white"/>
<path d="M102.73 212.93H101.69V213.97H102.73V212.93Z" fill="white"/>
<path d="M104.81 212.93H103.77V213.97H104.81V212.93Z" fill="white"/>
<path d="M105.85 212.93H104.81V213.97H105.85V212.93Z" fill="white"/>
<path d="M106.89 212.93H105.85V213.97H106.89V212.93Z" fill="white"/>
<path d="M108.97 212.93H107.93V213.97H108.97V212.93Z" fill="white"/>
<path d="M102.73 213.97H101.69V215.01H102.73V213.97Z" fill="white"/>
<path d="M104.81 213.97H103.77V215.01H104.81V213.97Z" fill="white"/>
<path d="M105.85 213.97H104.81V215.01H105.85V213.97Z" fill="white"/>
<path d="M106.89 213.97H105.85V215.01H106.89V213.97Z" fill="white"/>
<path d="M108.97 213.97H107.93V215.01H108.97V213.97Z" fill="white"/>
<path d="M102.73 215.01H101.69V216.05H102.73V215.01Z" fill="white"/>
<path d="M108.97 215.01H107.93V216.05H108.97V215.01Z" fill="white"/>
<path d="M102.73 216.05H101.69V217.09H102.73V216.05Z" fill="white"/>
<path d="M103.77 216.05H102.73V217.09H103.77V216.05Z" fill="white"/>
<path d="M104.81 216.05H103.77V217.09H104.81V216.05Z" fill="white"/>
<path d="M105.85 216.05H104.81V217.09H105.85V216.05Z" fill="white"/>
<path d="M106.89 216.05H105.85V217.09H106.89V216.05Z" fill="white"/>
<path d="M107.93 216.05H106.89V217.09H107.93V216.05Z" fill="white"/>
<path d="M108.97 216.05H107.93V217.09H108.97V216.05Z" fill="white"/>
<path d="M107.93 225.93H106.89V226.97H107.93V225.93Z" fill="white"/>
<path d="M107.93 226.96H106.89V228H107.93V226.96Z" fill="white"/>
<path d="M107.93 228H106.89V229.04H107.93V228Z" fill="white"/>
<path d="M106.89 225.93H105.85V226.97H106.89V225.93Z" fill="white"/>
<path d="M106.89 226.96H105.85V228H106.89V226.96Z" fill="white"/>
<path d="M106.89 228H105.85V229.04H106.89V228Z" fill="white"/>
<path d="M105.85 225.93H104.81V226.97H105.85V225.93Z" fill="white"/>
<path d="M104.81 225.93H103.77V226.97H104.81V225.93Z" fill="white"/>
<path d="M103.77 224.89H102.73V225.93H103.77V224.89Z" fill="white"/>
<path d="M103.77 223.85H102.73V224.89H103.77V223.85Z" fill="white"/>
<path d="M103.77 226.96H102.73V228H103.77V226.96Z" fill="white"/>
<path d="M103.77 228H102.73V229.04H103.77V228Z" fill="white"/>
<path d="M89.74 222.81H88.7V223.85H89.74V222.81Z" fill="white"/>
<path d="M90.78 222.81H89.74V223.85H90.78V222.81Z" fill="white"/>
<path d="M91.82 222.81H90.78V223.85H91.82V222.81Z" fill="white"/>
<path d="M92.8601 222.81H91.8201V223.85H92.8601V222.81Z" fill="white"/>
<path d="M93.8901 222.81H92.8501V223.85H93.8901V222.81Z" fill="white"/>
<path d="M94.9299 222.81H93.8899V223.85H94.9299V222.81Z" fill="white"/>
<path d="M95.9699 222.81H94.9299V223.85H95.9699V222.81Z" fill="white"/>
<path d="M89.74 223.85H88.7V224.89H89.74V223.85Z" fill="white"/>
<path d="M95.9699 223.85H94.9299V224.89H95.9699V223.85Z" fill="white"/>
<path d="M89.74 224.89H88.7V225.93H89.74V224.89Z" fill="white"/>
<path d="M91.82 224.89H90.78V225.93H91.82V224.89Z" fill="white"/>
<path d="M92.8601 224.89H91.8201V225.93H92.8601V224.89Z" fill="white"/>
<path d="M93.8901 224.89H92.8501V225.93H93.8901V224.89Z" fill="white"/>
<path d="M95.9699 224.89H94.9299V225.93H95.9699V224.89Z" fill="white"/>
<path d="M89.74 225.93H88.7V226.97H89.74V225.93Z" fill="white"/>
<path d="M91.82 225.93H90.78V226.97H91.82V225.93Z" fill="white"/>
<path d="M92.8601 225.93H91.8201V226.97H92.8601V225.93Z" fill="white"/>
<path d="M93.8901 225.93H92.8501V226.97H93.8901V225.93Z" fill="white"/>
<path d="M95.9699 225.93H94.9299V226.97H95.9699V225.93Z" fill="white"/>
<path d="M89.74 226.96H88.7V228H89.74V226.96Z" fill="white"/>
<path d="M91.82 226.96H90.78V228H91.82V226.96Z" fill="white"/>
<path d="M92.8601 226.96H91.8201V228H92.8601V226.96Z" fill="white"/>
<path d="M93.8901 226.96H92.8501V228H93.8901V226.96Z" fill="white"/>
<path d="M95.9699 226.96H94.9299V228H95.9699V226.96Z" fill="white"/>
<path d="M89.74 228H88.7V229.04H89.74V228Z" fill="white"/>
<path d="M95.9699 228H94.9299V229.04H95.9699V228Z" fill="white"/>
<path d="M89.74 229.04H88.7V230.08H89.74V229.04Z" fill="white"/>
<path d="M90.78 229.04H89.74V230.08H90.78V229.04Z" fill="white"/>
<path d="M91.82 229.04H90.78V230.08H91.82V229.04Z" fill="white"/>
<path d="M92.8601 229.04H91.8201V230.08H92.8601V229.04Z" fill="white"/>
<path d="M93.8901 229.04H92.8501V230.08H93.8901V229.04Z" fill="white"/>
<path d="M94.9299 229.04H93.8899V230.08H94.9299V229.04Z" fill="white"/>
<path d="M95.9699 229.04H94.9299V230.08H95.9699V229.04Z" fill="white"/>
<path d="M256.5 63.5801H237.13C231.038 63.5801 226.1 68.5184 226.1 74.6101V93.9801C226.1 100.072 231.038 105.01 237.13 105.01H256.5C262.592 105.01 267.53 100.072 267.53 93.9801V74.6101C267.53 68.5184 262.592 63.5801 256.5 63.5801Z" fill="#E0E0E0"/>
<path fill-rule="evenodd" clip-rule="evenodd" d="M252.48 84.2703C252.482 85.3546 252.162 86.415 251.561 87.3175C250.96 88.22 250.105 88.924 249.104 89.3403C248.103 89.7566 247.001 89.8665 245.937 89.6562C244.873 89.4459 243.896 88.9248 243.129 88.1588C242.361 87.3928 241.838 86.4164 241.626 85.3531C241.414 84.2898 241.522 83.1874 241.936 82.1855C242.351 81.1836 243.053 80.3271 243.954 79.7245C244.856 79.1219 245.916 78.8003 247 78.8003C248.451 78.8029 249.842 79.3798 250.869 80.4047C251.895 81.4297 252.475 82.8194 252.48 84.2703Z" fill="white"/>
<path fill-rule="evenodd" clip-rule="evenodd" d="M258.13 76.15H236C235.02 76.15 234.081 76.5385 233.387 77.2302C232.694 77.9219 232.303 78.8605 232.3 79.84V88.71C232.303 89.6896 232.694 90.6281 233.387 91.3199C234.081 92.0116 235.02 92.4 236 92.4H258.16C259.139 92.4 260.077 92.0113 260.769 91.3192C261.461 90.6272 261.85 89.6887 261.85 88.71V79.84C261.85 79.3529 261.754 78.8706 261.566 78.421C261.379 77.9713 261.105 77.5632 260.759 77.2201C260.413 76.8771 260.003 76.6059 259.551 76.4222C259.1 76.2386 258.617 76.1461 258.13 76.15ZM247 91.25C245.616 91.25 244.262 90.8395 243.111 90.0703C241.96 89.3011 241.063 88.2079 240.533 86.9288C240.003 85.6497 239.864 84.2423 240.135 82.8844C240.405 81.5265 241.071 80.2792 242.05 79.3003C243.029 78.3213 244.277 77.6546 245.634 77.3845C246.992 77.1144 248.4 77.2531 249.679 77.7829C250.958 78.3127 252.051 79.2099 252.82 80.361C253.589 81.5122 254 82.8656 254 84.25C254 86.1065 253.263 87.887 251.95 89.1998C250.637 90.5125 248.857 91.25 247 91.25ZM258.05 79.84H254.42V77.9H258.05V79.84Z" fill="white"/>
<path d="M237.69 74.6299H238.21C238.475 74.6299 238.73 74.7353 238.917 74.9228C239.105 75.1104 239.21 75.3647 239.21 75.6299V76.4699H236.68V75.6299C236.68 75.4978 236.706 75.3669 236.757 75.2449C236.808 75.1229 236.882 75.0123 236.976 74.9193C237.07 74.8263 237.182 74.7528 237.304 74.7032C237.427 74.6535 237.558 74.6286 237.69 74.6299Z" fill="white"/>
<path d="M250 423.71C357.083 423.71 443.89 418.642 443.89 412.39C443.89 406.138 357.083 401.07 250 401.07C142.918 401.07 56.1101 406.138 56.1101 412.39C56.1101 418.642 142.918 423.71 250 423.71Z" fill="#F5F5F5"/>
<path d="M297.1 342.08H214.8C212.643 342.112 210.503 341.691 208.519 340.844C206.535 339.997 204.75 338.744 203.281 337.164C201.812 335.585 200.69 333.714 199.989 331.674C199.288 329.634 199.022 327.469 199.21 325.32L212.94 128.62C213.312 124.096 215.356 119.874 218.673 116.775C221.99 113.677 226.342 111.924 230.88 111.86H313.17C315.328 111.828 317.468 112.249 319.452 113.096C321.437 113.943 323.222 115.196 324.692 116.776C326.162 118.355 327.285 120.225 327.987 122.265C328.69 124.306 328.956 126.47 328.77 128.62L315 325.32C314.633 329.839 312.596 334.058 309.287 337.157C305.977 340.255 301.633 342.01 297.1 342.08Z" fill="#407BFF"/>
<path opacity="0.6" d="M297.1 342.08H214.8C212.643 342.112 210.503 341.691 208.519 340.844C206.535 339.997 204.75 338.744 203.281 337.164C201.812 335.585 200.69 333.714 199.989 331.674C199.288 329.634 199.022 327.469 199.21 325.32L212.94 128.62C213.312 124.096 215.356 119.874 218.673 116.775C221.99 113.677 226.342 111.924 230.88 111.86H313.17C315.328 111.828 317.468 112.249 319.452 113.096C321.437 113.943 323.222 115.196 324.692 116.776C326.162 118.355 327.285 120.225 327.987 122.265C328.69 124.306 328.956 126.47 328.77 128.62L315 325.32C314.633 329.839 312.596 334.058 309.287 337.157C305.977 340.255 301.633 342.01 297.1 342.08Z" fill="white"/>
<path d="M292.83 342.08H210.53C208.373 342.112 206.233 341.691 204.249 340.844C202.265 339.997 200.48 338.744 199.011 337.164C197.542 335.585 196.42 333.714 195.719 331.674C195.018 329.634 194.752 327.469 194.94 325.32L208.67 128.62C209.042 124.098 211.085 119.877 214.399 116.778C217.714 113.68 222.063 111.927 226.6 111.86H308.9C311.057 111.828 313.197 112.249 315.181 113.096C317.165 113.943 318.95 115.196 320.419 116.776C321.888 118.356 323.01 120.226 323.711 122.266C324.412 124.306 324.678 126.471 324.49 128.62L310.76 325.32C310.388 329.842 308.345 334.063 305.031 337.162C301.716 340.26 297.367 342.013 292.83 342.08Z" fill="#407BFF"/>
<path d="M308.63 115.7H287.24C286.546 115.704 285.874 115.948 285.34 116.391C284.806 116.834 284.442 117.449 284.31 118.13L284.18 118.8C283.843 120.458 282.949 121.951 281.646 123.032C280.344 124.112 278.712 124.715 277.02 124.74H256.68C255.061 124.765 253.496 124.159 252.317 123.051C251.137 121.942 250.435 120.418 250.36 118.8V118.13C250.329 117.468 250.041 116.844 249.557 116.39C249.074 115.937 248.433 115.689 247.77 115.7H226.37C222.873 115.749 219.52 117.1 216.966 119.489C214.412 121.878 212.841 125.134 212.56 128.62L198.82 325.32C198.676 326.975 198.88 328.642 199.42 330.214C199.96 331.785 200.823 333.226 201.953 334.443C203.084 335.66 204.457 336.627 205.984 337.281C207.511 337.935 209.159 338.262 210.82 338.24H293.11C296.608 338.192 299.962 336.842 302.518 334.452C305.074 332.063 306.647 328.807 306.93 325.32L320.67 128.62C320.814 126.962 320.609 125.291 320.067 123.717C319.525 122.143 318.658 120.701 317.523 119.483C316.388 118.265 315.01 117.299 313.478 116.647C311.946 115.996 310.294 115.673 308.63 115.7Z" fill="#407BFF"/>
<path opacity="0.6" d="M320.65 128.62L320.36 132.62L306.92 325.32C306.632 328.807 305.056 332.062 302.5 334.45C299.943 336.839 296.589 338.19 293.09 338.24H210.79C209.128 338.263 207.48 337.937 205.952 337.284C204.425 336.63 203.051 335.664 201.92 334.446C200.789 333.228 199.926 331.787 199.387 330.215C198.848 328.643 198.644 326.975 198.79 325.32L212.23 132.61L212.52 128.61C212.805 125.126 214.378 121.872 216.931 119.484C219.484 117.095 222.834 115.743 226.33 115.69H247.73C248.395 115.679 249.037 115.928 249.521 116.384C250.005 116.839 250.292 117.466 250.32 118.13V118.79C250.398 120.406 251.1 121.929 252.279 123.037C253.459 124.146 255.022 124.753 256.64 124.73H277C278.692 124.706 280.326 124.104 281.628 123.024C282.931 121.943 283.825 120.449 284.16 118.79L284.29 118.13C284.429 117.449 284.796 116.836 285.331 116.393C285.865 115.949 286.535 115.701 287.23 115.69H308.62C310.285 115.664 311.936 115.988 313.468 116.641C314.999 117.293 316.377 118.261 317.511 119.479C318.645 120.698 319.51 122.142 320.051 123.716C320.592 125.291 320.796 126.961 320.65 128.62Z" fill="black"/>
<g opacity="0.7">
<path d="M262.35 117.88C262.315 118.321 262.116 118.733 261.792 119.035C261.468 119.337 261.043 119.506 260.6 119.51C260.39 119.512 260.183 119.47 259.99 119.388C259.797 119.305 259.624 119.183 259.481 119.03C259.338 118.877 259.228 118.695 259.159 118.497C259.09 118.299 259.063 118.089 259.08 117.88C259.119 117.44 259.32 117.031 259.643 116.73C259.966 116.429 260.389 116.258 260.83 116.25C261.041 116.245 261.25 116.284 261.444 116.366C261.638 116.447 261.813 116.569 261.956 116.723C262.1 116.877 262.209 117.06 262.277 117.259C262.345 117.459 262.37 117.67 262.35 117.88Z" fill="black"/>
<path d="M274.06 116.25H268.45C268.009 116.258 267.586 116.429 267.263 116.73C266.94 117.031 266.739 117.44 266.7 117.88C266.683 118.089 266.71 118.299 266.779 118.497C266.848 118.695 266.958 118.877 267.101 119.03C267.244 119.183 267.417 119.305 267.61 119.388C267.803 119.47 268.01 119.512 268.22 119.51H273.83C274.271 119.502 274.694 119.331 275.017 119.03C275.34 118.729 275.541 118.32 275.58 117.88C275.597 117.671 275.57 117.461 275.501 117.263C275.432 117.065 275.322 116.884 275.179 116.73C275.036 116.577 274.863 116.455 274.67 116.372C274.478 116.29 274.27 116.248 274.06 116.25Z" fill="black"/>
</g>
<path d="M221.75 124.71H223.48L223.6 122.98H221.87L221.75 124.71Z" fill="#407BFF"/>
<path d="M225.33 122.98L225.21 124.71H226.94L227.06 122.98L227.18 121.25H225.45L225.33 122.98Z" fill="#407BFF"/>
<path d="M229.03 119.52L228.91 121.25L228.79 122.98L228.67 124.71H230.4L230.52 122.98L230.64 121.25L230.76 119.52H229.03Z" fill="#407BFF"/>
<path d="M303.45 119.63L303.36 120.9H302.51L302.34 123.44H303.18L303.09 124.71H310.71L311.06 119.63H303.45ZM306.57 123.44H304L304.18 120.9H306.71L306.57 123.44Z" fill="#407BFF"/>
<path d="M169.2 397.35L166.83 412.86H174.33L179.26 397.35H169.2Z" fill="#FFC3BD"/>
<path d="M165.88 409.4L175.88 409.17C175.958 409.16 176.038 409.167 176.114 409.19C176.189 409.213 176.259 409.252 176.318 409.304C176.378 409.356 176.426 409.42 176.459 409.491C176.492 409.563 176.509 409.641 176.51 409.72V417.07C176.468 417.48 176.277 417.861 175.973 418.139C175.669 418.418 175.273 418.575 174.86 418.58C171.38 418.58 169.72 418.45 165.31 418.58C160.629 418.564 155.953 418.257 151.31 417.66C147.74 417.05 148.71 413.66 150.31 413.66C157.6 413.4 161.67 411.88 164.31 410C164.759 409.643 165.308 409.434 165.88 409.4Z" fill="#263238"/>
<path opacity="0.2" d="M168.25 403.57L169.2 397.35H179.26L176.84 405.1L168.25 403.57Z" fill="black"/>
<path d="M235.21 310.38C235.21 310.38 174.21 310.99 173.28 330.3C171.93 358.07 167.28 400.41 167.28 400.41L178.78 403.57C178.78 403.57 195.18 361.57 195.78 339.9C212.94 336.49 257.04 339.9 262.22 328.64C264.746 322.902 265.428 316.522 264.17 310.38H235.21Z" fill="#407BFF"/>
<path opacity="0.3" d="M235.21 310.38C235.21 310.38 174.21 310.99 173.28 330.3C171.93 358.07 167.28 400.41 167.28 400.41L178.78 403.57C178.78 403.57 195.18 361.57 195.78 339.9C212.94 336.49 257.04 339.9 262.22 328.64C264.746 322.902 265.428 316.522 264.17 310.38H235.21Z" fill="white"/>
<path d="M158.63 395.93L150.42 408.21L155.12 414.96L166.31 402.71L158.63 395.93Z" fill="#FFC3BD"/>
<path opacity="0.2" d="M162.1 407.32L166.31 402.71L159.32 394.92L154.81 401.63L162.1 407.32Z" fill="black"/>
<path d="M150.82 407.61L157.37 412.47C157.444 412.509 157.51 412.564 157.564 412.629C157.617 412.694 157.657 412.77 157.681 412.851C157.705 412.931 157.713 413.016 157.704 413.1C157.696 413.184 157.67 413.265 157.63 413.34L153.82 420.24C153.58 420.591 153.213 420.834 152.796 420.918C152.38 421.002 151.947 420.92 151.59 420.69C148.59 418.69 147.19 417.54 143.3 415.05C140.92 413.52 137.82 411.72 134.52 409.6C131.22 407.48 133.3 404.46 134.86 405.09C141.94 407.87 144.27 407.17 147.55 406.93C148.669 406.982 149.773 407.211 150.82 407.61Z" fill="#263238"/>
<path d="M155.85 398.79L164.85 406.08C164.85 406.08 184.65 384.88 204.41 348.27L204.16 347.82C221.94 346.43 270.8 341.58 276.64 334.43C282.8 326.87 282.37 318.23 280.05 310.38H251.05C251.05 310.38 204.77 317.22 189.66 331.74C178.29 341.84 155.85 398.79 155.85 398.79Z" fill="#407BFF"/>
<g opacity="0.4">
<path d="M155.85 398.79L164.85 406.08C164.85 406.08 184.65 384.88 204.41 348.27L204.16 347.82C221.94 346.43 270.8 341.58 276.64 334.43C282.8 326.87 282.37 318.23 280.05 310.38H251.05C251.05 310.38 204.77 317.22 189.66 331.74C178.29 341.84 155.85 398.79 155.85 398.79Z" fill="white"/>
</g>
<path d="M248 244.79L227.9 247.79C216.65 249.47 204.99 243.7 195.32 237.71L190.65 242.59C190.65 242.59 211.14 257.73 221.34 257.77C227.12 257.77 236.16 256.25 242.91 254.92C243.982 254.706 244.991 254.251 245.86 253.588C246.729 252.926 247.436 252.074 247.927 251.097C248.418 250.121 248.679 249.045 248.692 247.952C248.705 246.859 248.468 245.778 248 244.79Z" fill="#FF8B7B"/>
<path d="M183.38 228.81C183.93 232.09 184.49 235.38 185.05 238.66C186.92 239.85 188.53 241.46 190.41 242.66C192.397 241.5 194.105 239.916 195.41 238.02C195.07 236.49 194.41 235.02 194.1 233.49C193.52 230.95 190.42 229.29 188.71 227.33C187.18 227.68 184.91 228.45 183.38 228.81Z" fill="#FF8B7B"/>
<path d="M243.76 260.31L228.76 259.91L226.69 245.91C226.69 245.91 235.06 244.26 242.9 242.66C243.18 247.23 243.43 255.76 243.76 260.31Z" fill="#407BFF"/>
<path opacity="0.1" d="M243.76 260.31L228.76 259.91L226.69 245.91C226.69 245.91 235.06 244.26 242.9 242.66C243.18 247.23 243.43 255.76 243.76 260.31Z" fill="black"/>
<path opacity="0.2" d="M228.71 259.91L242.74 257.32L242.81 260.33L228.71 259.91Z" fill="black"/>
<path d="M281.21 311.93C275.85 313.19 265.53 312.18 255.81 311.82C249.05 311.56 239.86 310.38 239.86 310.38C240.59 299.04 240.28 287.67 237.21 267.12C235.75 257.32 242.94 242.58 242.97 242.58C244.09 242.4 245.3 242.24 246.55 242.09C247.25 242.01 247.95 241.95 248.67 241.9C254.497 241.657 260.334 241.754 266.15 242.19C267.24 242.26 268.36 242.36 269.45 242.48C270.54 242.6 271.45 242.71 272.37 242.85L273.66 243.03C274.454 243.154 275.215 243.434 275.9 243.854C276.585 244.273 277.181 244.824 277.652 245.475C278.123 246.125 278.461 246.863 278.646 247.645C278.831 248.426 278.86 249.237 278.73 250.03C278.734 250.053 278.734 250.077 278.73 250.1C278.2 254.77 277.73 258.88 277.48 262.63C277.48 262.75 277.48 262.88 277.48 263C277.13 267.17 276.94 270.91 276.91 274.49C276.76 285.68 278.12 295.36 281.21 311.93Z" fill="#407BFF"/>
<path d="M277.53 261.3C277.53 261.73 277.53 262.17 277.47 262.6C277.47 262.72 277.47 262.85 277.47 262.97C277.12 267.14 276.93 270.88 276.9 274.46C274.42 269.74 271.98 263.04 272.14 259.7L277.53 261.3Z" fill="#407BFF"/>
<path opacity="0.2" d="M277.53 261.3C277.53 261.73 277.53 262.17 277.47 262.6C277.465 262.667 277.465 262.734 277.47 262.8C277.12 267.03 276.92 270.8 276.89 274.46C274.41 269.74 271.97 263.04 272.13 259.7L277.53 261.3Z" fill="black"/>
<path d="M264.71 222.51C263.51 228.11 262.25 238.39 266.11 242.21C263.01 245.21 258.96 248.63 252.28 248.76C245.6 248.89 246.85 244.28 248.64 241.92C254.94 240.52 254.86 235.92 253.83 231.49L264.71 222.51Z" fill="#FF8B7B"/>
<path opacity="0.2" d="M260.29 226.14L253.86 231.45C254.109 232.468 254.27 233.505 254.34 234.55C255.729 234.328 257.042 233.767 258.162 232.916C259.282 232.064 260.175 230.949 260.76 229.67C261.36 228.08 260.89 226.37 260.29 226.14Z" fill="black"/>
<path d="M250.49 206.45C245.919 214.85 243.099 224.089 242.2 233.61C242.002 234.843 242.046 236.103 242.33 237.32C242.485 237.927 242.796 238.483 243.233 238.933C243.67 239.382 244.217 239.708 244.82 239.88C244.59 239.666 244.41 239.404 244.295 239.112C244.179 238.82 244.13 238.506 244.151 238.192C244.172 237.879 244.263 237.574 244.417 237.301C244.57 237.027 244.783 236.791 245.04 236.61C244.841 238.118 245.216 239.645 246.09 240.89C246.508 241.385 247.028 241.783 247.615 242.055C248.203 242.328 248.842 242.47 249.49 242.47C249.261 241.898 249.209 241.271 249.34 240.67C250.26 241.94 252.11 242.67 253.41 241.76C255.59 240.29 255.63 237.04 256.09 234.45L260.85 207.45C260.314 206.808 259.644 206.29 258.888 205.933C258.131 205.576 257.306 205.387 256.47 205.38C254.775 205.402 253.091 205.665 251.47 206.16H251.84" fill="#263238"/>
<path d="M269.69 216.3C267.34 223.56 266.32 227.92 261.63 230.74C254.56 234.98 246.33 229.25 246.49 221.41C246.62 214.41 250.49 203.7 258.42 202.63C260.18 202.386 261.973 202.596 263.628 203.241C265.283 203.886 266.745 204.945 267.875 206.316C269.005 207.686 269.766 209.324 270.083 211.071C270.401 212.819 270.266 214.619 269.69 216.3Z" fill="#FF8B7B"/>
<path d="M264.8 218.2C264.27 219.646 263.632 221.05 262.89 222.4C264.42 221.928 266.021 221.729 267.62 221.81C268.175 221.87 268.732 221.9 269.29 221.9C269.857 221.893 270.403 221.684 270.83 221.31C271.075 221.046 271.245 220.721 271.32 220.369C271.396 220.017 271.375 219.651 271.26 219.31C271.026 218.651 270.584 218.086 270 217.7C269.36 217.249 268.593 217.015 267.81 217.03C267 217.06 265.07 217.47 264.8 218.2Z" fill="#263238"/>
<path d="M270.28 224C269.653 224.59 268.917 225.051 268.112 225.357C267.307 225.662 266.45 225.806 265.59 225.78C263.28 225.7 262.83 223.48 264.06 221.67C265.16 220.04 267.69 218.13 269.71 219.09C270.14 219.318 270.508 219.647 270.782 220.048C271.057 220.45 271.23 220.912 271.286 221.395C271.342 221.878 271.28 222.368 271.104 222.822C270.929 223.276 270.646 223.68 270.28 224Z" fill="#FF8B7B"/>
<path d="M253.27 214.6C252.091 216.253 250.691 217.736 249.11 219.01C249.443 219.408 249.859 219.727 250.329 219.947C250.799 220.166 251.311 220.28 251.83 220.28L253.27 214.6Z" fill="#FF5652"/>
<path d="M252.35 223.24C253.038 223.329 253.738 223.279 254.406 223.091C255.074 222.904 255.698 222.584 256.24 222.15C256.273 222.115 256.291 222.068 256.291 222.02C256.291 221.972 256.273 221.925 256.24 221.89C256.223 221.872 256.203 221.858 256.181 221.849C256.158 221.839 256.134 221.834 256.11 221.834C256.086 221.834 256.062 221.839 256.039 221.849C256.017 221.858 255.997 221.872 255.98 221.89C255.373 222.364 254.663 222.688 253.907 222.836C253.151 222.984 252.371 222.951 251.63 222.74C251.584 222.73 251.535 222.738 251.495 222.762C251.454 222.787 251.424 222.825 251.41 222.87C251.398 222.918 251.404 222.968 251.428 223.011C251.453 223.054 251.493 223.086 251.54 223.1C251.81 223.15 252.08 223.2 252.35 223.24Z" fill="#263238"/>
<path d="M260.64 213.82C260.699 213.835 260.761 213.835 260.82 213.82C260.864 213.804 260.904 213.779 260.937 213.746C260.971 213.714 260.998 213.675 261.017 213.632C261.036 213.59 261.045 213.543 261.046 213.497C261.046 213.45 261.038 213.404 261.02 213.36C260.814 212.82 260.479 212.337 260.046 211.954C259.612 211.571 259.092 211.298 258.53 211.16C258.484 211.152 258.437 211.152 258.391 211.162C258.345 211.172 258.302 211.192 258.264 211.219C258.225 211.246 258.193 211.28 258.168 211.32C258.144 211.36 258.127 211.404 258.12 211.45C258.102 211.544 258.121 211.641 258.173 211.722C258.225 211.802 258.307 211.859 258.4 211.88C258.85 211.988 259.268 212.203 259.616 212.508C259.965 212.813 260.234 213.198 260.4 213.63C260.421 213.679 260.454 213.723 260.496 213.756C260.538 213.789 260.587 213.811 260.64 213.82Z" fill="#263238"/>
<path d="M248.88 210.64C248.94 210.645 249 210.635 249.055 210.613C249.111 210.59 249.16 210.555 249.2 210.51C249.488 210.155 249.855 209.872 250.272 209.684C250.688 209.497 251.143 209.41 251.6 209.43C251.647 209.437 251.695 209.435 251.74 209.423C251.786 209.411 251.829 209.39 251.866 209.361C251.904 209.332 251.935 209.296 251.958 209.254C251.981 209.213 251.995 209.167 252 209.12C252.014 209.026 251.991 208.93 251.935 208.853C251.879 208.776 251.794 208.725 251.7 208.71C251.13 208.678 250.561 208.782 250.04 209.014C249.518 209.245 249.059 209.597 248.7 210.04C248.667 210.074 248.64 210.113 248.622 210.157C248.604 210.201 248.594 210.248 248.594 210.295C248.594 210.343 248.604 210.39 248.622 210.433C248.64 210.477 248.667 210.517 248.7 210.55C248.75 210.598 248.812 210.629 248.88 210.64Z" fill="#263238"/>
<path d="M272.2 246.37C272.15 246.37 272.07 246.37 272.06 246.37C270.01 254.92 270.41 263.85 268.47 272.69C267.12 278.86 254.85 278.76 243.08 283.59L244.43 291.01C244.43 291.01 268.88 289.72 275.61 280.52C279.42 275.3 280.27 272.73 281.21 265.1C282.21 257.27 282.67 247.27 277.53 246.31L272.2 246.37Z" fill="#FF8B7B"/>
<path d="M233.07 293.67H239.51C239.807 293.683 240.103 293.625 240.374 293.501C240.644 293.378 240.881 293.191 241.066 292.958C241.25 292.725 241.377 292.451 241.435 292.159C241.493 291.868 241.481 291.566 241.4 291.28L237.82 274.45C237.662 273.788 237.292 273.196 236.767 272.763C236.242 272.329 235.59 272.079 234.91 272.05H228.47C228.172 272.039 227.876 272.098 227.606 272.223C227.336 272.348 227.099 272.536 226.915 272.77C226.73 273.003 226.604 273.278 226.546 273.57C226.488 273.862 226.499 274.163 226.58 274.45L230.16 291.28C230.319 291.941 230.689 292.532 231.214 292.964C231.739 293.395 232.391 293.643 233.07 293.67Z" fill="#407BFF"/>
<path opacity="0.3" d="M233.07 293.67H239.51C239.807 293.683 240.103 293.625 240.374 293.501C240.644 293.378 240.881 293.191 241.066 292.958C241.25 292.725 241.377 292.451 241.435 292.159C241.493 291.868 241.481 291.566 241.4 291.28L237.82 274.45C237.662 273.788 237.292 273.196 236.767 272.763C236.242 272.329 235.59 272.079 234.91 272.05H228.47C228.172 272.039 227.876 272.098 227.606 272.223C227.336 272.348 227.099 272.536 226.915 272.77C226.73 273.003 226.604 273.278 226.546 273.57C226.488 273.862 226.499 274.163 226.58 274.45L230.16 291.28C230.319 291.941 230.689 292.532 231.214 292.964C231.739 293.395 232.391 293.643 233.07 293.67Z" fill="white"/>
<path d="M232.12 293.67H238.56C238.857 293.683 239.153 293.625 239.424 293.501C239.694 293.378 239.931 293.191 240.116 292.958C240.3 292.725 240.427 292.451 240.485 292.159C240.543 291.868 240.531 291.566 240.45 291.28L236.87 274.45C236.713 273.787 236.344 273.194 235.819 272.761C235.293 272.327 234.641 272.078 233.96 272.05H227.53C227.232 272.037 226.935 272.095 226.663 272.219C226.392 272.343 226.154 272.531 225.969 272.765C225.784 273 225.658 273.275 225.601 273.568C225.544 273.861 225.557 274.163 225.64 274.45L229.21 291.28C229.37 291.94 229.74 292.531 230.265 292.962C230.79 293.393 231.441 293.642 232.12 293.67Z" fill="#407BFF"/>
<path opacity="0.6" d="M232.12 293.67H238.56C238.857 293.683 239.153 293.625 239.424 293.501C239.694 293.378 239.931 293.191 240.116 292.958C240.3 292.725 240.427 292.451 240.485 292.159C240.543 291.868 240.531 291.566 240.45 291.28L236.87 274.45C236.713 273.787 236.344 273.194 235.819 272.761C235.293 272.327 234.641 272.078 233.96 272.05H227.53C227.232 272.037 226.935 272.095 226.663 272.219C226.392 272.343 226.154 272.531 225.969 272.765C225.784 273 225.658 273.275 225.601 273.568C225.544 273.861 225.557 274.163 225.64 274.45L229.21 291.28C229.37 291.94 229.74 292.531 230.265 292.962C230.79 293.393 231.441 293.642 232.12 293.67Z" fill="white"/>
<path d="M234.68 277H234.05C233.586 276.991 233.137 276.827 232.775 276.536C232.414 276.245 232.158 275.842 232.05 275.39L231.92 274.76C231.864 274.567 231.855 274.364 231.893 274.167C231.932 273.97 232.017 273.786 232.141 273.628C232.265 273.471 232.425 273.345 232.608 273.262C232.79 273.179 232.99 273.14 233.19 273.15H233.81C234.266 273.17 234.703 273.338 235.055 273.628C235.406 273.919 235.654 274.316 235.76 274.76L235.9 275.39C235.955 275.578 235.964 275.777 235.929 275.97C235.893 276.163 235.812 276.345 235.694 276.501C235.575 276.657 235.422 276.784 235.246 276.87C235.07 276.957 234.876 277.001 234.68 277Z" fill="#407BFF"/>
<path d="M233.13 274.14C233.173 274.325 233.276 274.491 233.422 274.611C233.569 274.732 233.75 274.802 233.94 274.81C234.023 274.814 234.106 274.798 234.181 274.763C234.256 274.728 234.322 274.675 234.373 274.61C234.424 274.544 234.458 274.467 234.474 274.386C234.489 274.304 234.484 274.22 234.46 274.14C234.417 273.958 234.315 273.795 234.171 273.676C234.026 273.557 233.847 273.488 233.66 273.48C233.577 273.476 233.495 273.491 233.419 273.524C233.344 273.558 233.277 273.609 233.225 273.674C233.173 273.738 233.138 273.814 233.121 273.896C233.105 273.977 233.108 274.061 233.13 274.14Z" fill="#263238"/>
<path d="M233.54 276.07C233.584 276.254 233.687 276.418 233.833 276.537C233.98 276.656 234.161 276.724 234.35 276.73C234.433 276.735 234.515 276.72 234.591 276.687C234.666 276.653 234.732 276.602 234.784 276.537C234.835 276.472 234.869 276.395 234.884 276.314C234.899 276.233 234.895 276.149 234.87 276.07C234.827 275.885 234.724 275.72 234.578 275.599C234.431 275.478 234.25 275.408 234.06 275.4C233.977 275.396 233.895 275.413 233.819 275.448C233.744 275.483 233.678 275.535 233.627 275.601C233.576 275.666 233.542 275.743 233.527 275.825C233.511 275.906 233.516 275.99 233.54 276.07Z" fill="#263238"/>
<path d="M233.11 290.06C233.76 290.62 241.97 291.39 244.43 291.06C245.18 288.84 244.52 286.59 244.15 284.28C242.75 283.22 241.15 282.41 239.76 281.36C237.44 279.61 234.09 280.43 231.21 279.99C230.57 280.85 230.38 282.94 230.46 284.76C230.516 285.778 230.781 286.773 231.236 287.685C231.692 288.596 232.33 289.405 233.11 290.06Z" fill="#FF8B7B"/>
<path d="M268.14 246.66C267.98 256.42 268.51 256.6 266.99 266.24L283.49 264.98C283.49 264.98 285.24 257.98 283.36 251.98C281.97 247.55 279.49 243.59 274.16 242.51C271.68 242 268.19 243.65 268.14 246.66Z" fill="#407BFF"/>
<path opacity="0.1" d="M268.14 246.66C267.98 256.42 268.51 256.6 266.99 266.24L283.49 264.98C283.49 264.98 285.24 257.98 283.36 251.98C281.97 247.55 279.49 243.59 274.16 242.51C271.68 242 268.19 243.65 268.14 246.66Z" fill="white"/>
<path d="M276.19 224.2C276.117 224.382 275.995 224.539 275.838 224.656C275.681 224.772 275.495 224.843 275.3 224.86C275.022 224.86 274.745 224.84 274.47 224.8C273.38 224.68 271.61 224.4 271.33 224.32C269.89 221.32 270.64 218.81 268.47 216.32C269.17 216.65 269.86 216.92 270.54 217.19C271.22 217.46 271.88 217.71 272.54 218.04C273.6 219.6 274.94 221.44 275.87 223.04C276.001 223.201 276.097 223.387 276.152 223.587C276.207 223.786 276.22 223.995 276.19 224.2Z" fill="#263238"/>
<path d="M264.31 208C264.619 209.976 264.541 211.994 264.08 213.94C263.011 213.493 262.057 212.811 261.287 211.946C260.516 211.081 259.95 210.054 259.63 208.94C259.474 209.909 259.625 210.901 260.06 211.78C259.234 211.487 258.496 210.988 257.917 210.33C257.338 209.672 256.936 208.877 256.75 208.02C256.476 208.841 256.476 209.729 256.75 210.55C255.973 210.425 255.251 210.074 254.673 209.54C254.095 209.007 253.687 208.314 253.5 207.55C253.312 207.821 253.186 208.129 253.129 208.454C253.072 208.779 253.086 209.112 253.17 209.43C252.602 209.114 252.145 208.629 251.864 208.043C251.583 207.456 251.491 206.797 251.601 206.156C251.711 205.515 252.017 204.924 252.477 204.464C252.937 204.004 253.529 203.699 254.17 203.59C256.078 203.226 258.053 203.5 259.79 204.37C261.459 205.363 262.98 206.585 264.31 208Z" fill="#263238"/>
<path opacity="0.2" d="M276.76 224.52C276.688 224.707 276.564 224.869 276.403 224.988C276.242 225.107 276.05 225.177 275.85 225.19C275.569 225.19 275.288 225.17 275.01 225.13C273.89 225 272.08 224.72 271.8 224.64C270.32 221.64 271.09 219 268.87 216.44C269.59 216.78 270.29 217.05 270.99 217.33C271.69 217.61 272.36 217.86 273.07 218.2C274.14 219.8 275.52 221.68 276.47 223.34C276.598 223.506 276.69 223.696 276.74 223.899C276.79 224.102 276.797 224.314 276.76 224.52Z" fill="black"/>
<path d="M276.76 224.52C276.688 224.707 276.564 224.869 276.403 224.988C276.242 225.107 276.05 225.177 275.85 225.19C275.569 225.19 275.288 225.17 275.01 225.13C273.57 222.79 272.05 220.51 270.45 218.29C270.62 217.94 270.81 217.63 270.99 217.29C271.67 217.56 272.36 217.82 273.07 218.16C274.14 219.76 275.52 221.64 276.47 223.3C276.603 223.47 276.698 223.668 276.749 223.878C276.799 224.089 276.802 224.308 276.76 224.52Z" fill="#407BFF"/>
<path d="M273 217.9C273 217.9 271.87 220.44 271.87 220.51C271.75 220.32 271.61 220.12 271.47 219.92C268.93 216.403 266.179 213.043 263.23 209.86C259.74 207.04 255.52 204.5 250.16 207.14C250.83 205.26 256.61 191.36 269.32 201.75C271.606 203.584 273.389 205.968 274.5 208.68C275.036 210.221 275.18 211.87 274.918 213.48C274.656 215.09 273.997 216.609 273 217.9Z" fill="#407BFF"/>
<path d="M260.73 206C260.91 205.675 260.989 205.303 260.957 204.933C260.925 204.562 260.783 204.21 260.55 203.92C260.066 203.349 259.404 202.958 258.67 202.81C257.956 202.603 257.194 202.635 256.5 202.9C256.154 203.036 255.852 203.263 255.625 203.557C255.398 203.851 255.254 204.201 255.21 204.57C257.139 204.487 259.039 205.069 260.59 206.22L260.73 206Z" fill="#263238"/>
<path d="M258 215.48C257.82 216.07 257.4 216.48 257 216.38C256.6 216.28 256.42 215.71 256.57 215.11C256.72 214.51 257.17 214.11 257.57 214.2C257.97 214.29 258.14 214.88 258 215.48Z" fill="#263238"/>
<path d="M257.52 214.46C257.52 214.46 257.52 214.59 257.44 214.6C257.408 214.601 257.377 214.595 257.348 214.583C257.319 214.571 257.292 214.553 257.27 214.53C256.97 214.291 256.733 213.982 256.58 213.63C256.884 213.878 257.221 214.083 257.58 214.24L257.52 214.46Z" fill="#263238"/>
<path d="M251.2 213.72C251.02 214.32 250.61 214.72 250.2 214.62C249.79 214.52 249.61 213.95 249.77 213.35C249.93 212.75 250.36 212.35 250.77 212.46C251.18 212.57 251.36 213.12 251.2 213.72Z" fill="#263238"/>
<path d="M250.63 212.72C250.68 212.77 250.63 212.86 250.56 212.86C250.527 212.862 250.494 212.856 250.463 212.844C250.432 212.832 250.403 212.814 250.38 212.79C250.08 212.551 249.843 212.242 249.69 211.89C249.998 212.135 250.333 212.344 250.69 212.51L250.63 212.72Z" fill="#263238"/>
<path d="M266.38 219.05C266.038 218.448 265.58 217.92 265.032 217.496C264.485 217.072 263.859 216.761 263.19 216.58L260.19 215.76C260.366 214.936 260.225 214.076 259.796 213.351C259.366 212.627 258.679 212.09 257.872 211.849C257.065 211.608 256.196 211.681 255.44 212.051C254.683 212.422 254.094 213.064 253.79 213.85C253.586 213.699 253.332 213.631 253.08 213.66C253.191 212.816 252.971 211.962 252.465 211.277C251.959 210.592 251.208 210.13 250.369 209.987C249.529 209.845 248.667 210.033 247.964 210.513C247.261 210.993 246.771 211.726 246.597 212.56C246.424 213.393 246.58 214.262 247.033 214.982C247.486 215.703 248.201 216.22 249.027 216.425C249.854 216.629 250.727 216.505 251.464 216.079C252.201 215.653 252.745 214.958 252.98 214.14C253.094 214.087 253.222 214.076 253.343 214.109C253.464 214.142 253.569 214.217 253.64 214.32C253.395 215.174 253.499 216.091 253.929 216.868C254.359 217.645 255.081 218.22 255.935 218.465C256.789 218.71 257.705 218.606 258.483 218.176C259.26 217.746 259.835 217.024 260.08 216.17L263.08 217C264.317 217.337 265.37 218.149 266.01 219.26L266.71 220.5L267.09 220.29L266.38 219.05ZM249 216C248.441 215.847 247.94 215.533 247.56 215.095C247.18 214.658 246.939 214.118 246.865 213.543C246.792 212.969 246.891 212.385 247.15 211.867C247.408 211.348 247.814 210.918 248.317 210.631C248.82 210.343 249.396 210.211 249.974 210.251C250.552 210.291 251.105 210.501 251.563 210.855C252.022 211.209 252.365 211.691 252.549 212.24C252.734 212.79 252.752 213.381 252.6 213.94C252.499 214.312 252.326 214.66 252.091 214.965C251.855 215.27 251.562 215.525 251.227 215.717C250.893 215.908 250.524 216.032 250.142 216.08C249.76 216.129 249.372 216.102 249 216ZM256.14 217.95C255.578 217.799 255.074 217.484 254.691 217.045C254.308 216.607 254.064 216.065 253.989 215.487C253.915 214.91 254.013 214.324 254.272 213.802C254.532 213.281 254.94 212.849 255.445 212.56C255.95 212.27 256.53 212.138 257.11 212.179C257.691 212.219 258.247 212.431 258.707 212.788C259.167 213.145 259.51 213.63 259.694 214.182C259.878 214.734 259.894 215.329 259.74 215.89C259.636 216.261 259.46 216.609 259.222 216.912C258.983 217.215 258.688 217.468 258.351 217.657C258.015 217.845 257.645 217.965 257.262 218.011C256.879 218.056 256.491 218.025 256.12 217.92L256.14 217.95Z" fill="#263238"/>
<path d="M271.91 231.2C271.91 234.09 271.7 237.1 270.18 239.54C267.89 243.17 263.18 244.54 258.91 244.43C259.57 244.359 260.195 244.1 260.711 243.684C261.227 243.267 261.612 242.71 261.82 242.08C260.644 242.502 259.377 242.602 258.15 242.37C258.591 242.234 258.994 241.998 259.329 241.68C259.664 241.363 259.921 240.973 260.08 240.54C260.389 239.671 260.564 238.761 260.6 237.84C261.39 228.52 262.24 218.99 263.03 209.67C264.087 210.556 265.061 211.537 265.94 212.6C267.812 214.723 269.536 216.971 271.1 219.33C271.12 219.43 271.92 227.45 271.91 231.2Z" fill="#263238"/>
<path d="M185.52 84.4502H166.15C160.058 84.4502 155.12 89.3885 155.12 95.4802V114.85C155.12 120.942 160.058 125.88 166.15 125.88H185.52C191.612 125.88 196.55 120.942 196.55 114.85V95.4802C196.55 89.3885 191.612 84.4502 185.52 84.4502Z" fill="#407BFF"/>
<path d="M177.93 114.57C177.95 114.871 177.909 115.173 177.808 115.457C177.707 115.741 177.548 116.001 177.342 116.221C177.137 116.441 176.888 116.617 176.611 116.737C176.335 116.857 176.037 116.919 175.735 116.919C175.434 116.919 175.136 116.857 174.859 116.737C174.583 116.617 174.334 116.441 174.128 116.221C173.922 116.001 173.764 115.741 173.663 115.457C173.562 115.173 173.52 114.871 173.54 114.57V114.36H177.92C177.928 114.43 177.932 114.5 177.93 114.57Z" fill="white"/>
<path d="M174.63 95.3402C174.586 95.1265 174.591 94.9058 174.643 94.694C174.695 94.4822 174.793 94.2846 174.931 94.1156C175.069 93.9466 175.243 93.8103 175.44 93.7168C175.637 93.6232 175.852 93.5747 176.07 93.5747C176.288 93.5747 176.504 93.6232 176.701 93.7168C176.898 93.8103 177.071 93.9466 177.209 94.1156C177.347 94.2846 177.446 94.4822 177.498 94.694C177.55 94.9058 177.554 95.1265 177.51 95.3402C177.515 95.3967 177.515 95.4536 177.51 95.5102H174.64L174.63 95.3402Z" fill="white"/>
<path d="M184.85 113.58H166.85L168.12 110.34H168.19V102.9C168.166 101.317 168.643 99.767 169.554 98.4719C170.465 97.1767 171.762 96.203 173.26 95.6902C175.017 95.2042 176.873 95.2042 178.63 95.6902C179.621 96.0882 180.525 96.6759 181.29 97.4202C182.727 98.8627 183.535 100.814 183.54 102.85V110.29H183.62L184.85 113.58Z" fill="white"/>
<path d="M120.29 129.11H100.92C94.8282 129.11 89.8899 134.048 89.8899 140.14V159.51C89.8899 165.602 94.8282 170.54 100.92 170.54H120.29C126.382 170.54 131.32 165.602 131.32 159.51V140.14C131.32 134.048 126.382 129.11 120.29 129.11Z" fill="#407BFF"/>
<path opacity="0.6" d="M120.29 129.11H100.92C94.8282 129.11 89.8899 134.048 89.8899 140.14V159.51C89.8899 165.602 94.8282 170.54 100.92 170.54H120.29C126.382 170.54 131.32 165.602 131.32 159.51V140.14C131.32 134.048 126.382 129.11 120.29 129.11Z" fill="white"/>
<path fill-rule="evenodd" clip-rule="evenodd" d="M107 155.39C105.979 155.362 104.99 155.023 104.168 154.417C103.346 153.811 102.729 152.967 102.4 152C103.1 152.131 103.82 152.108 104.51 151.93H104.57C103.446 151.712 102.432 151.11 101.702 150.227C100.972 149.344 100.572 148.235 100.57 147.09C101.227 147.451 101.96 147.654 102.71 147.68C101.693 146.963 100.98 145.894 100.71 144.68C100.412 143.482 100.583 142.215 101.19 141.14C102.44 142.645 103.988 143.876 105.736 144.756C107.485 145.635 109.396 146.144 111.35 146.25C111.34 146.067 111.31 145.886 111.26 145.71C111.104 144.596 111.345 143.464 111.94 142.51C112.294 141.928 112.773 141.433 113.342 141.059C113.911 140.686 114.556 140.443 115.23 140.35C115.999 140.213 116.789 140.265 117.533 140.502C118.277 140.739 118.952 141.154 119.5 141.71C119.529 141.749 119.57 141.778 119.617 141.792C119.664 141.807 119.714 141.806 119.76 141.79C120.756 141.582 121.712 141.214 122.59 140.7H122.66C122.315 141.742 121.633 142.64 120.72 143.25C121.656 143.143 122.57 142.893 123.43 142.51C123.25 142.76 123.07 143.01 122.88 143.25C122.373 143.887 121.785 144.455 121.13 144.94C121.101 144.952 121.077 144.974 121.061 145C121.045 145.027 121.037 145.059 121.04 145.09C121.063 145.815 121.027 146.541 120.93 147.26C120.765 148.761 120.36 150.227 119.73 151.6C119.088 153.024 118.209 154.33 117.13 155.46C115.325 157.356 112.99 158.663 110.43 159.21C109.531 159.399 108.618 159.509 107.7 159.54C104.933 159.622 102.203 158.888 99.85 157.43L99.72 157.36C101.384 157.547 103.069 157.313 104.62 156.68C105.471 156.367 106.273 155.933 107 155.39Z" fill="#407BFF"/>
<path d="M139.65 264.17H120.28C114.188 264.17 109.25 269.108 109.25 275.2V294.57C109.25 300.662 114.188 305.6 120.28 305.6H139.65C145.742 305.6 150.68 300.662 150.68 294.57V275.2C150.68 269.108 145.742 264.17 139.65 264.17Z" fill="#407BFF"/>
<path d="M138.69 278.27V296.66C138.691 296.716 138.682 296.772 138.661 296.824C138.641 296.876 138.61 296.923 138.571 296.964C138.532 297.004 138.485 297.035 138.433 297.057C138.382 297.079 138.326 297.09 138.27 297.09H121.27C121.156 297.09 121.047 297.045 120.966 296.964C120.885 296.883 120.84 296.774 120.84 296.66V272.74C120.84 272.626 120.885 272.517 120.966 272.436C121.047 272.355 121.156 272.31 121.27 272.31H132.72L138.69 278.27Z" fill="#407BFF"/>
<g opacity="0.7">
<path d="M138.69 278.27V296.66C138.691 296.716 138.682 296.772 138.661 296.824C138.641 296.876 138.61 296.923 138.571 296.964C138.532 297.004 138.485 297.035 138.433 297.057C138.382 297.079 138.326 297.09 138.27 297.09H121.27C121.156 297.09 121.047 297.045 120.966 296.964C120.885 296.883 120.84 296.774 120.84 296.66V272.74C120.84 272.626 120.885 272.517 120.966 272.436C121.047 272.355 121.156 272.31 121.27 272.31H132.72L138.69 278.27Z" fill="white"/>
</g>
<path d="M132.71 272.31V277.85C132.71 277.964 132.755 278.073 132.836 278.154C132.917 278.235 133.026 278.28 133.14 278.28H138.67L132.71 272.31Z" fill="#407BFF"/>
<path d="M132.71 272.31V277.85C132.71 277.964 132.755 278.073 132.836 278.154C132.917 278.235 133.026 278.28 133.14 278.28H138.67L132.71 272.31Z" fill="white"/>
<path d="M136.675 281.549L122.965 281.616C122.749 281.617 122.576 281.792 122.577 282.008L122.577 282.128C122.578 282.343 122.754 282.517 122.969 282.516L136.679 282.449C136.894 282.448 137.068 282.272 137.067 282.057L137.066 281.937C137.065 281.721 136.89 281.548 136.675 281.549Z" fill="#407BFF"/>
<path d="M136.693 285.239L122.983 285.306C122.767 285.307 122.594 285.482 122.595 285.698L122.595 285.818C122.596 286.033 122.772 286.207 122.987 286.206L136.697 286.139C136.912 286.138 137.086 285.962 137.085 285.747L137.085 285.627C137.083 285.411 136.908 285.238 136.693 285.239Z" fill="#407BFF"/>
<path d="M136.7 288.929L122.991 288.996C122.775 288.997 122.601 289.172 122.602 289.388L122.603 289.508C122.604 289.723 122.78 289.897 122.995 289.896L136.705 289.829C136.92 289.828 137.094 289.652 137.093 289.437L137.092 289.317C137.091 289.101 136.916 288.928 136.7 288.929Z" fill="#407BFF"/>
<path d="M129.61 292.63L122.97 292.7C122.919 292.7 122.869 292.71 122.822 292.73C122.775 292.749 122.733 292.778 122.698 292.815C122.662 292.851 122.634 292.894 122.616 292.941C122.597 292.989 122.589 293.039 122.59 293.09V293.21C122.59 293.313 122.631 293.413 122.704 293.486C122.777 293.559 122.877 293.6 122.98 293.6L129.61 293.53C129.713 293.53 129.813 293.489 129.886 293.416C129.959 293.343 130 293.243 130 293.14V293C129.993 292.901 129.948 292.808 129.876 292.74C129.804 292.671 129.709 292.632 129.61 292.63Z" fill="#407BFF"/>
<path d="M178.85 189.62H159.48C153.388 189.62 148.45 194.558 148.45 200.65V220.02C148.45 226.112 153.388 231.05 159.48 231.05H178.85C184.942 231.05 189.88 226.112 189.88 220.02V200.65C189.88 194.558 184.942 189.62 178.85 189.62Z" fill="#407BFF"/>
<path opacity="0.6" d="M178.85 189.62H159.48C153.388 189.62 148.45 194.558 148.45 200.65V220.02C148.45 226.112 153.388 231.05 159.48 231.05H178.85C184.942 231.05 189.88 226.112 189.88 220.02V200.65C189.88 194.558 184.942 189.62 178.85 189.62Z" fill="white"/>
<path d="M176.53 195.46H162.12C160.844 195.46 159.81 196.494 159.81 197.77V222.22C159.81 223.496 160.844 224.53 162.12 224.53H176.53C177.806 224.53 178.84 223.496 178.84 222.22V197.77C178.84 196.494 177.806 195.46 176.53 195.46Z" fill="white"/>
<path d="M175.74 219.28L173.91 219.61L174.36 217.81L183.78 209C183.876 208.91 183.989 208.839 184.113 208.793C184.237 208.746 184.368 208.724 184.5 208.729C184.632 208.734 184.762 208.765 184.882 208.82C185.002 208.875 185.11 208.953 185.2 209.05C185.294 209.143 185.368 209.254 185.419 209.376C185.47 209.497 185.496 209.628 185.496 209.76C185.496 209.892 185.47 210.023 185.419 210.145C185.368 210.267 185.294 210.377 185.2 210.47L175.74 219.28Z" fill="#407BFF"/>
<path d="M167.72 221.44C167.55 221.445 167.382 221.415 167.224 221.353C167.066 221.291 166.922 221.199 166.8 221.08C166.557 220.782 166.425 220.41 166.425 220.025C166.425 219.641 166.557 219.268 166.8 218.97C167.302 218.141 167.986 217.437 168.8 216.91C169.212 216.627 169.673 216.423 170.16 216.31C170.082 216.145 169.965 216.001 169.82 215.89C169.08 215.32 167.91 215.8 167.12 216.39C165.755 217.427 164.714 218.832 164.12 220.44C164.071 220.564 163.976 220.664 163.855 220.72C163.734 220.776 163.596 220.783 163.47 220.74C163.408 220.717 163.351 220.682 163.303 220.636C163.255 220.591 163.216 220.536 163.189 220.476C163.162 220.415 163.147 220.35 163.146 220.284C163.144 220.218 163.156 220.152 163.18 220.09C163.855 218.296 165.027 216.732 166.56 215.58C167.67 214.76 169.28 214.19 170.45 215.09C170.844 215.397 171.126 215.826 171.25 216.31C171.683 216.39 172.075 216.617 172.361 216.952C172.647 217.287 172.809 217.71 172.82 218.15C172.79 218.542 172.671 218.922 172.47 219.26C172.47 219.35 172.38 219.44 172.34 219.53C172.278 219.631 172.241 219.745 172.231 219.863C172.22 219.981 172.237 220.1 172.28 220.21C172.359 220.262 172.451 220.29 172.545 220.29C172.639 220.29 172.731 220.262 172.81 220.21C173.086 219.997 173.315 219.728 173.48 219.42C173.552 219.309 173.664 219.231 173.793 219.201C173.921 219.171 174.057 219.192 174.17 219.26C174.281 219.332 174.36 219.445 174.388 219.574C174.416 219.704 174.391 219.839 174.32 219.95C174.081 220.398 173.738 220.782 173.32 221.07C173.043 221.25 172.711 221.328 172.382 221.29C172.054 221.251 171.749 221.099 171.52 220.86C171.341 220.611 171.237 220.315 171.221 220.008C171.205 219.702 171.277 219.397 171.43 219.13C171.43 219.03 171.52 218.93 171.57 218.83C171.702 218.616 171.791 218.379 171.83 218.13C171.82 217.976 171.768 217.828 171.68 217.701C171.592 217.574 171.471 217.473 171.33 217.41C171.3 217.694 171.233 217.974 171.13 218.24C170.701 219.154 170.076 219.963 169.3 220.61C169.021 220.92 168.68 221.169 168.3 221.34C168.114 221.407 167.918 221.441 167.72 221.44ZM170.34 217.31C169.983 217.397 169.645 217.546 169.34 217.75C168.646 218.194 168.061 218.789 167.63 219.49C167.44 219.81 167.31 220.22 167.46 220.37C167.53 220.406 167.607 220.425 167.685 220.425C167.763 220.425 167.84 220.406 167.91 220.37C168.162 220.237 168.389 220.061 168.58 219.85C169.243 219.301 169.784 218.62 170.17 217.85C170.252 217.679 170.309 217.497 170.34 217.31Z" fill="#407BFF"/>
<path d="M176.171 199.117L162.461 199.184C162.246 199.185 162.072 199.36 162.073 199.576L162.074 199.696C162.075 199.911 162.25 200.085 162.466 200.084L176.176 200.017C176.391 200.016 176.565 199.84 176.564 199.625L176.563 199.505C176.562 199.289 176.387 199.116 176.171 199.117Z" fill="#407BFF"/>
<path d="M176.189 202.807L162.479 202.874C162.264 202.875 162.09 203.05 162.091 203.265L162.092 203.385C162.093 203.601 162.268 203.775 162.484 203.774L176.194 203.707C176.409 203.706 176.583 203.53 176.582 203.315L176.581 203.195C176.58 202.979 176.405 202.806 176.189 202.807Z" fill="#407BFF"/>
<path d="M176.207 206.497L162.497 206.564C162.282 206.565 162.108 206.74 162.109 206.955L162.11 207.075C162.111 207.291 162.286 207.465 162.502 207.464L176.212 207.397C176.427 207.395 176.601 207.22 176.6 207.005L176.599 206.885C176.598 206.669 176.423 206.495 176.207 206.497Z" fill="#407BFF"/>
<path d="M169.12 210.2L162.48 210.27C162.429 210.27 162.379 210.28 162.332 210.3C162.285 210.32 162.243 210.349 162.208 210.385C162.172 210.421 162.144 210.464 162.126 210.512C162.107 210.559 162.099 210.609 162.1 210.66V210.78C162.1 210.884 162.141 210.983 162.214 211.056C162.287 211.129 162.387 211.17 162.49 211.17L169.12 211.1C169.171 211.1 169.221 211.09 169.268 211.07C169.315 211.051 169.357 211.022 169.392 210.985C169.428 210.949 169.455 210.906 169.474 210.859C169.492 210.811 169.501 210.761 169.5 210.71V210.59C169.501 210.539 169.492 210.489 169.474 210.442C169.455 210.394 169.428 210.351 169.392 210.315C169.357 210.279 169.315 210.25 169.268 210.23C169.221 210.21 169.171 210.2 169.12 210.2Z" fill="#407BFF"/>
<path d="M326.87 65.0098H307.5C301.408 65.0098 296.47 69.9481 296.47 76.0398V95.4098C296.47 101.501 301.408 106.44 307.5 106.44H326.87C332.962 106.44 337.9 101.501 337.9 95.4098V76.0398C337.9 69.9481 332.962 65.0098 326.87 65.0098Z" fill="#407BFF"/>
<path opacity="0.6" d="M326.87 65.0098H307.5C301.408 65.0098 296.47 69.9481 296.47 76.0398V95.4098C296.47 101.501 301.408 106.44 307.5 106.44H326.87C332.962 106.44 337.9 101.501 337.9 95.4098V76.0398C337.9 69.9481 332.962 65.0098 326.87 65.0098Z" fill="white"/>
<path d="M317.34 71.2798C316.091 71.2798 314.855 71.5258 313.701 72.0037C312.547 72.4816 311.499 73.1821 310.616 74.0652C309.732 74.9483 309.032 75.9967 308.554 77.1505C308.076 78.3043 307.83 79.5409 307.83 80.7898C307.83 86.0498 317.34 99.4298 317.34 99.4298C317.34 99.4298 326.85 86.0498 326.85 80.7898C326.85 79.5409 326.604 78.3043 326.126 77.1505C325.648 75.9967 324.948 74.9483 324.065 74.0652C323.182 73.1821 322.133 72.4816 320.979 72.0037C319.826 71.5258 318.589 71.2798 317.34 71.2798ZM317.42 85.3598C316.531 85.3578 315.661 85.0922 314.923 84.5965C314.184 84.1009 313.609 83.3974 313.27 82.5749C312.931 81.7525 312.843 80.848 313.018 79.9758C313.193 79.1035 313.622 78.3026 314.252 77.6743C314.881 77.0459 315.683 76.6184 316.556 76.4455C317.428 76.2727 318.333 76.3624 319.154 76.7033C319.976 77.0442 320.678 77.621 321.172 78.3608C321.666 79.1006 321.93 79.9702 321.93 80.8598C321.93 81.4516 321.813 82.0376 321.587 82.5842C321.36 83.1308 321.027 83.6273 320.609 84.0453C320.19 84.4633 319.692 84.7946 319.145 85.0201C318.598 85.2457 318.012 85.3611 317.42 85.3598Z" fill="#407BFF"/>
<path d="M393.14 109.57H373.79C367.709 109.57 362.78 114.499 362.78 120.58V139.93C362.78 146.01 367.709 150.94 373.79 150.94H393.14C399.221 150.94 404.15 146.01 404.15 139.93V120.58C404.15 114.499 399.221 109.57 393.14 109.57Z" fill="#407BFF"/>
<path d="M393.14 109.57H373.79C367.709 109.57 362.78 114.499 362.78 120.58V139.93C362.78 146.01 367.709 150.94 373.79 150.94H393.14C399.221 150.94 404.15 146.01 404.15 139.93V120.58C404.15 114.499 399.221 109.57 393.14 109.57Z" fill="#407BFF"/>
<path d="M388.1 123.67V129.5C388.1 130.659 387.64 131.77 386.82 132.59C386 133.409 384.889 133.87 383.73 133.87H378.17L371.82 140.22V133.87C370.661 133.87 369.549 133.409 368.73 132.59C367.91 131.77 367.45 130.659 367.45 129.5V123.67C367.453 122.512 367.914 121.403 368.733 120.586C369.553 119.769 370.663 119.31 371.82 119.31H383.73C384.303 119.308 384.871 119.42 385.402 119.639C385.932 119.857 386.413 120.178 386.819 120.583C387.225 120.988 387.547 121.469 387.767 121.999C387.987 122.528 388.1 123.096 388.1 123.67Z" fill="white"/>
<path d="M371.32 141.43V134.34C370.132 134.203 369.036 133.634 368.239 132.742C367.443 131.85 367.002 130.696 367 129.5V123.67C367.003 122.38 367.517 121.144 368.43 120.233C369.343 119.322 370.58 118.81 371.87 118.81H383.78C385.07 118.81 386.307 119.322 387.22 120.233C388.133 121.144 388.647 122.38 388.65 123.67V129.5C388.647 130.791 388.133 132.028 387.221 132.941C386.308 133.853 385.071 134.367 383.78 134.37H378.43L371.32 141.43ZM371.82 119.81C370.795 119.81 369.813 120.216 369.087 120.94C368.362 121.664 367.953 122.645 367.95 123.67V129.5C367.953 130.526 368.361 131.508 369.086 132.234C369.812 132.959 370.794 133.367 371.82 133.37H372.32V139L377.97 133.36H383.73C384.756 133.36 385.741 132.952 386.466 132.227C387.192 131.501 387.6 130.516 387.6 129.49V123.66C387.6 123.152 387.5 122.65 387.305 122.181C387.111 121.712 386.825 121.286 386.466 120.927C386.106 120.569 385.68 120.284 385.21 120.091C384.741 119.898 384.238 119.799 383.73 119.8L371.82 119.81Z" fill="#407BFF"/>
<path d="M399.49 132.46V136.94C399.49 137.831 399.136 138.685 398.506 139.315C397.876 139.946 397.021 140.3 396.13 140.3V145.19L391.24 140.3H387C386.109 140.3 385.254 139.946 384.624 139.315C383.994 138.685 383.64 137.831 383.64 136.94V132.46C383.643 131.569 383.998 130.716 384.627 130.087C385.257 129.457 386.11 129.102 387 129.1H396.17C397.053 129.113 397.896 129.472 398.517 130.101C399.138 130.729 399.488 131.576 399.49 132.46Z" fill="white"/>
<path d="M396.63 146.4L391.03 140.8H387C385.976 140.8 384.995 140.393 384.271 139.669C383.547 138.945 383.14 137.963 383.14 136.94V132.46C383.14 131.436 383.547 130.454 384.271 129.73C384.995 129.006 385.976 128.6 387 128.6H396.17C397.194 128.6 398.176 129.006 398.9 129.73C399.623 130.454 400.03 131.436 400.03 132.46V136.94C400.029 137.877 399.687 138.781 399.069 139.486C398.451 140.19 397.599 140.646 396.67 140.77L396.63 146.4ZM387 129.6C386.242 129.6 385.514 129.901 384.978 130.437C384.441 130.974 384.14 131.701 384.14 132.46V136.94C384.14 137.315 384.214 137.687 384.358 138.034C384.502 138.381 384.712 138.696 384.978 138.962C385.243 139.228 385.559 139.438 385.906 139.582C386.253 139.726 386.625 139.8 387 139.8H391.49L395.67 143.98V139.8H396.17C396.928 139.797 397.654 139.495 398.19 138.959C398.725 138.423 399.027 137.697 399.03 136.94V132.46C399.027 131.702 398.725 130.976 398.19 130.44C397.654 129.904 396.928 129.602 396.17 129.6H387Z" fill="#407BFF"/>
<path d="M383.48 124H372.7C372.567 124 372.44 123.947 372.346 123.854C372.253 123.76 372.2 123.633 372.2 123.5C372.2 123.367 372.253 123.24 372.346 123.146C372.44 123.053 372.567 123 372.7 123H383.48C383.613 123 383.74 123.053 383.833 123.146C383.927 123.24 383.98 123.367 383.98 123.5C383.98 123.633 383.927 123.76 383.833 123.854C383.74 123.947 383.613 124 383.48 124Z" fill="#407BFF"/>
<path d="M383.48 126.56H372.7C372.567 126.56 372.44 126.507 372.346 126.414C372.253 126.32 372.2 126.193 372.2 126.06C372.2 125.927 372.253 125.8 372.346 125.707C372.44 125.613 372.567 125.56 372.7 125.56H383.48C383.613 125.56 383.74 125.613 383.833 125.707C383.927 125.8 383.98 125.927 383.98 126.06C383.98 126.193 383.927 126.32 383.833 126.414C383.74 126.507 383.613 126.56 383.48 126.56Z" fill="#407BFF"/>
<path d="M380.49 129.07H372.7C372.567 129.07 372.44 129.017 372.346 128.923C372.253 128.83 372.2 128.702 372.2 128.57C372.2 128.437 372.253 128.31 372.346 128.216C372.44 128.122 372.567 128.07 372.7 128.07H380.49C380.622 128.072 380.747 128.126 380.841 128.219C380.934 128.312 380.987 128.438 380.99 128.57C380.99 128.702 380.937 128.83 380.844 128.923C380.75 129.017 380.623 129.07 380.49 129.07Z" fill="#407BFF"/>
<path d="M370.96 180.3H351.59C345.498 180.3 340.56 185.238 340.56 191.33V210.7C340.56 216.792 345.498 221.73 351.59 221.73H370.96C377.052 221.73 381.99 216.792 381.99 210.7V191.33C381.99 185.238 377.052 180.3 370.96 180.3Z" fill="#407BFF"/>
<path d="M377 203.75C377 204.2 377 205.75 376.91 206.2H345.26C345.26 205.98 345.26 204.62 345.26 204.39C345.259 202.621 345.918 200.916 347.107 199.607C348.296 198.298 349.93 197.479 351.69 197.31V197C351.698 195.014 352.413 193.097 353.708 191.592C355.003 190.087 356.792 189.093 358.754 188.79C360.716 188.486 362.722 188.892 364.411 189.935C366.101 190.978 367.363 192.59 367.97 194.48C368.466 194.494 368.961 194.544 369.45 194.63C371.577 195.025 373.498 196.155 374.878 197.822C376.257 199.488 377.008 201.586 377 203.75Z" fill="white"/>
<path d="M388.64 256.47H369.29C363.209 256.47 358.28 261.4 358.28 267.48V286.83C358.28 292.911 363.209 297.84 369.29 297.84H388.64C394.721 297.84 399.65 292.911 399.65 286.83V267.48C399.65 261.4 394.721 256.47 388.64 256.47Z" fill="#407BFF"/>
<g opacity="0.6">
<path d="M388.64 256.47H369.29C363.209 256.47 358.28 261.4 358.28 267.48V286.83C358.28 292.911 363.209 297.84 369.29 297.84H388.64C394.721 297.84 399.65 292.911 399.65 286.83V267.48C399.65 261.4 394.721 256.47 388.64 256.47Z" fill="white"/>
</g>
<path fill-rule="evenodd" clip-rule="evenodd" d="M391.56 272.99V284.89H366.37V272.89L378.71 280.93L391.56 272.99Z" fill="white"/>
<path fill-rule="evenodd" clip-rule="evenodd" d="M391.56 270.57V270.74L378.71 278.67L366.37 270.63V270.57H391.56Z" fill="white"/>
</svg>
