<svg width="60" height="50" viewBox="0 0 60 50" fill="none" xmlns="http://www.w3.org/2000/svg">
<g clip-path="url(#clip0_60_166)">
<path fill-rule="evenodd" clip-rule="evenodd" d="M9.05065 40.4585V36.6541C9.05065 36.1542 9.36565 35.7526 9.88737 35.7526H10.0317C10.5532 35.7526 10.8668 36.1547 10.8668 36.6541V44.6635C10.8668 46.6167 9.89417 48.1708 8.19917 49.1608C7.42272 49.6172 6.53642 49.857 5.63393 49.8549H5.2737C3.30448 49.8549 1.74003 48.8893 0.740418 47.2089C0.279753 46.4387 0.0380641 45.5591 0.0410428 44.6635V44.3066C0.0410428 42.3528 1.01417 40.7996 2.70776 39.8077C3.48407 39.3504 4.37086 39.1105 5.2737 39.1136H5.63393C6.96659 39.1136 8.09721 39.6261 9.05065 40.4585ZM1.85698 44.4847C1.85698 45.8956 2.54628 46.9564 3.79245 47.633C4.29636 47.9064 4.84339 48.0534 5.41831 48.0534C6.81425 48.0534 7.84971 47.4 8.56386 46.2265C8.89596 45.6806 9.05065 45.0832 9.05065 44.4482C9.05065 43.2252 8.46706 42.2707 7.47354 41.5618C6.8712 41.1321 6.19315 40.9166 5.4537 40.9166C3.93214 40.9166 2.83714 41.6792 2.17995 43.0338C1.95823 43.4919 1.85698 43.9781 1.85698 44.4847ZM17.1673 39.1136H17.419C19.5232 39.1136 21.1235 40.1262 22.1377 41.9485C22.5432 42.6774 22.7602 43.4731 22.7602 44.3066V44.6635C22.7602 46.6167 21.7894 48.1729 20.0918 49.1611C19.306 49.6184 18.4378 49.8549 17.5271 49.8549H17.1673C15.1981 49.8549 13.6332 48.8893 12.634 47.2089C12.1731 46.4388 11.9312 45.5592 11.9339 44.6635V44.3066C11.9339 42.3526 12.911 40.8045 14.6004 39.8082C15.3858 39.3452 16.2546 39.1136 17.1673 39.1136ZM13.7501 44.4847C13.7501 45.8542 14.4274 46.8617 15.5935 47.5702C16.141 47.9027 16.744 48.0534 17.3836 48.0534C18.7477 48.0534 19.756 47.3672 20.4577 46.2251C20.7924 45.6806 20.9438 45.0823 20.9438 44.4482C20.9438 43.1747 20.3255 42.2019 19.2685 41.4969C18.6893 41.1102 18.0446 40.9166 17.3471 40.9166C15.8255 40.9166 14.7305 41.6792 14.0735 43.0338C13.8514 43.4919 13.7501 43.9781 13.7501 44.4847ZM30.3101 41.0605C30.0359 40.9331 29.5226 40.8907 29.2264 40.8796C27.709 40.8229 26.6112 41.6706 25.9671 42.9985C25.7447 43.4566 25.6432 43.9413 25.6432 44.4482C25.6432 45.9914 26.46 47.0719 27.8485 47.7306C28.3557 47.9711 29.0105 48.0166 29.5648 48.0166C30.0523 48.0166 30.7414 47.7204 31.174 47.5165L31.249 47.4811H31.5849L31.6219 47.4886C32.0349 47.5739 32.3466 47.8336 32.3466 48.2745V48.4528C32.3466 49.5498 30.3258 49.8009 29.5547 49.8544C26.8336 50.0411 24.7985 48.5586 24.0228 45.9838C23.888 45.5366 23.8273 45.0925 23.8273 44.6266V44.2701C23.8273 42.3163 24.8046 40.7687 26.4938 39.7733C27.2792 39.3106 28.1478 39.0781 29.0602 39.0781H29.4202C30.3882 39.0781 31.2797 39.3508 32.0789 39.8923L32.1446 39.9374L32.186 40.0053C32.2723 40.1472 32.3466 40.3113 32.3466 40.4801V40.6585C32.3466 41.1184 31.9997 41.3658 31.5811 41.4458L31.5464 41.4518H31.4391C31.1682 41.4518 30.552 41.1735 30.3101 41.0605ZM36.2009 42.2805C36.9064 41.5797 37.6142 40.8803 38.3302 40.1911C38.5296 39.9988 39.285 39.185 39.5824 39.185H39.9078L39.9448 39.1927C40.3592 39.278 40.6695 39.5382 40.6695 39.98V40.1581C40.6695 40.4594 40.3137 40.8096 40.1175 41.0158C39.7003 41.4546 39.2611 41.8789 38.8341 42.3086L36.6399 44.5184C37.5846 45.4578 38.5285 46.3979 39.4655 47.3444C39.7254 47.6057 39.9833 47.8689 40.2392 48.1341C40.3294 48.2282 40.4625 48.3454 40.5382 48.4758C40.6196 48.5982 40.6695 48.736 40.6695 48.8832V49.0692L40.6589 49.1122C40.557 49.5233 40.294 49.8549 39.8349 49.8549H39.6903C39.3898 49.8549 39.0504 49.5177 38.8446 49.325C38.4204 48.9283 38.011 48.5112 37.5952 48.1059L36.2009 46.748V48.9183C36.2009 49.4182 35.8854 49.82 35.3644 49.82H35.2214C34.6997 49.82 34.3847 49.4182 34.3847 48.9183V36.689C34.3847 36.1891 34.7 35.7891 35.2214 35.7891H35.3644C35.8854 35.7891 36.2009 36.1891 36.2009 36.689V42.2805ZM58.8361 39.185H59.0166C59.5613 39.185 59.9248 39.5491 59.9248 40.0865C59.9248 40.8324 59.206 41.0233 58.5842 41.0233C57.7685 41.0233 56.9897 41.5132 56.4274 42.0626C55.7264 42.7483 55.4196 43.6265 55.4196 44.5919V48.9537C55.4196 49.4536 55.1049 49.8549 54.5829 49.8549H54.4395C53.9175 49.8549 53.603 49.4538 53.603 48.9537V44.3415C53.603 42.5704 54.4721 41.1247 55.921 40.1107C56.786 39.505 57.777 39.185 58.8361 39.185ZM45.9282 47.829C46.5891 48.058 47.3426 48.0252 48.0207 47.908C48.3675 47.7618 49.2544 47.3779 49.5807 47.4342L49.6315 47.4428L49.6784 47.4656C49.8776 47.5614 50.0677 47.6969 50.1694 47.898C50.4071 48.3694 50.2929 48.8432 49.826 49.1108L49.6707 49.1999C47.948 50.1862 46.1157 50.0495 44.3984 49.1283C43.5774 48.6879 42.9492 48.0343 42.4859 47.2375L42.3776 47.0512C41.2716 45.1511 41.4209 43.1524 42.6682 41.3455C43.0988 40.721 43.6615 40.2385 44.3194 39.8612L44.5683 39.7186C46.1907 38.7895 47.9295 38.8532 49.5956 39.6687C50.4917 40.1072 51.2175 40.7608 51.7177 41.6204L51.8077 41.7752C52.171 42.3998 51.7003 42.9439 51.2145 43.3159C50.6506 43.7474 50.0813 44.2669 49.5408 44.7296C48.3357 45.7617 47.1324 46.7962 45.9282 47.829ZM44.3684 46.7422C45.716 45.5959 47.0642 44.4485 48.4083 43.2973C48.8677 42.9043 49.3714 42.4965 49.827 42.0833C49.4614 41.6262 48.8506 41.2967 48.3317 41.1002C47.284 40.7043 46.2511 40.8373 45.2904 41.3874C44.033 42.1077 43.4974 43.2547 43.5443 44.6821C43.5631 45.2444 43.7154 45.7861 44.0161 46.2644C44.1221 46.433 44.2404 46.5913 44.3684 46.7422ZM34.5673 10.638H39.9265V16.073H42.6361C43.8877 16.073 45.1746 15.8519 46.3596 15.4536C46.9421 15.2576 47.5955 14.9851 48.1699 14.6421C47.4134 13.6623 47.0271 12.4251 46.9137 11.2056C46.759 9.54658 47.0965 7.38745 48.2281 6.08909L48.7915 5.4427L49.4628 5.97818C51.1528 7.32514 52.5743 9.20758 52.8249 11.3535C54.8599 10.7596 57.2494 10.9001 59.0431 11.9271L59.779 12.3484L59.3918 13.0985C57.8747 16.0356 54.7029 16.9457 51.6021 16.7845C46.9622 28.2496 36.8604 33.6774 24.6122 33.6774C18.2841 33.6774 12.4786 31.3307 9.17253 25.761L9.11839 25.6703L8.63675 24.6979C7.51925 22.2463 7.148 19.5605 7.39971 16.8768L7.47542 16.073H12.0584V10.638H17.4174V5.32132H28.136V0.00463867H34.5673V10.638Z" fill="#364548"/>
<path fill-rule="evenodd" clip-rule="evenodd" d="M51.9304 12.6488C52.2896 9.8781 50.1997 7.702 48.9036 6.6687C47.41 8.38187 47.1779 12.8717 49.5212 14.7621C48.2134 15.9144 45.4578 16.9589 42.6362 16.9589H8.28973C8.01551 19.8809 8.53254 22.5718 9.71355 24.8748L10.1043 25.584C10.3516 26.0003 10.622 26.4027 10.914 26.7894C12.3261 26.8794 13.6281 26.9103 14.8192 26.8842H14.8196C17.1604 26.8331 19.0703 26.5587 20.5178 26.0611C20.6201 26.0296 20.7308 26.0387 20.8265 26.0866C20.9221 26.1346 20.9952 26.2176 21.0303 26.318C21.0654 26.4185 21.0598 26.5285 21.0145 26.6249C20.9693 26.7213 20.8881 26.7965 20.788 26.8345C20.5954 26.901 20.3947 26.9628 20.1875 27.0217H20.1868C19.0471 27.3446 17.8248 27.5618 16.2479 27.6583C16.3417 27.6599 16.1504 27.6722 16.15 27.6722C16.0963 27.6757 16.0288 27.6834 15.9749 27.6862C15.3543 27.7208 14.6844 27.728 13.9996 27.728C13.2505 27.728 12.5129 27.7141 11.6882 27.6722L11.6671 27.6862C14.5288 30.8772 19.0035 32.791 24.6125 32.791C36.4832 32.791 46.5519 27.5706 51.0107 15.8507C54.1738 16.1727 57.2139 15.3724 58.5967 12.6943C56.394 11.4334 53.5614 11.8354 51.9304 12.6488Z" fill="#22A0C8"/>
<path fill-rule="evenodd" clip-rule="evenodd" d="M51.9303 12.6488C52.2896 9.8781 50.1997 7.702 48.9036 6.6687C47.4099 8.38187 47.1779 12.8717 49.5212 14.7621C48.2134 15.9144 45.4578 16.9589 42.6362 16.9589H10.3236C10.1834 21.4339 11.8573 24.8307 14.8189 26.8842H14.8196C17.1603 26.8331 19.0702 26.5587 20.5177 26.0611C20.6201 26.0296 20.7308 26.0387 20.8264 26.0866C20.9221 26.1346 20.9952 26.2176 21.0303 26.318C21.0654 26.4185 21.0597 26.5285 21.0145 26.6249C20.9693 26.7213 20.888 26.7965 20.788 26.8345C20.5953 26.901 20.3947 26.9628 20.1875 27.0217H20.1868C19.047 27.3446 17.7198 27.5897 16.1429 27.6862C16.1424 27.6862 16.1047 27.6501 16.1042 27.6501C20.1441 29.706 26.0019 29.6986 32.7179 27.1393C40.2483 24.2691 47.2559 18.8013 52.1452 12.5474C52.0716 12.5804 51.9999 12.6141 51.9303 12.6488Z" fill="#37B1D9"/>
<path fill-rule="evenodd" clip-rule="evenodd" d="M8.35449 20.5093C8.56777 22.0746 9.02949 23.5401 9.71387 24.875L10.1046 25.5841C10.3519 26.0004 10.6222 26.4028 10.9143 26.7895C12.3267 26.8795 13.6286 26.9104 14.82 26.8844C17.1607 26.8332 19.0706 26.5589 20.5181 26.0613C20.6204 26.0297 20.7311 26.0388 20.8268 26.0868C20.9224 26.1347 20.9955 26.2177 21.0306 26.3181C21.0657 26.4186 21.0601 26.5286 21.0149 26.625C20.9696 26.7214 20.8884 26.7966 20.7883 26.8346C20.5957 26.9011 20.395 26.963 20.1879 27.0218H20.1871C19.0474 27.3448 17.7271 27.5759 16.1503 27.6726C16.0961 27.6759 16.0017 27.6765 15.9471 27.6796C15.3269 27.714 14.6639 27.7351 13.9788 27.7351C13.23 27.7351 12.464 27.721 11.6397 27.6793C14.5014 30.8704 19.0038 32.7912 24.6129 32.7912C34.7754 32.7912 43.6169 28.9644 48.7486 20.5093H8.35449Z" fill="#1B81A5"/>
<path fill-rule="evenodd" clip-rule="evenodd" d="M10.6328 20.5093C11.2403 23.2576 12.7002 25.4151 14.8197 26.8844C17.1604 26.8332 19.0703 26.5589 20.5178 26.0613C20.6201 26.0297 20.7308 26.0388 20.8265 26.0868C20.9222 26.1347 20.9953 26.2177 21.0304 26.3181C21.0655 26.4186 21.0598 26.5286 21.0146 26.625C20.9694 26.7214 20.8881 26.7966 20.788 26.8346C20.5954 26.9011 20.3948 26.963 20.1876 27.0218H20.1869C19.0471 27.3448 17.699 27.5759 16.1219 27.6726C20.1616 29.728 26.0024 29.6985 32.718 27.1394C36.7806 25.5909 40.6907 23.2857 44.1986 20.5093H10.6328Z" fill="#1D91B4"/>
<path fill-rule="evenodd" clip-rule="evenodd" d="M12.9517 11.5242H17.5965V16.1322H12.9517V11.5242ZM13.3386 11.9083H13.7052V15.7483H13.3386V11.9083ZM14.0277 11.9083H14.409V15.7483H14.0279L14.0277 11.9083ZM14.7313 11.9083H15.1126V15.7483H14.7313V11.9083ZM15.4353 11.9083H15.8164V15.7483H15.4353V11.9083ZM16.1392 11.9083H16.5203V15.7483H16.1392V11.9083ZM16.8428 11.9083H17.2096V15.7483H16.8428V11.9083ZM18.3109 6.20752H22.956V10.8153H18.3106L18.3109 6.20752ZM18.6981 6.59163H19.0644V10.4314H18.6981V6.59163ZM19.3871 6.59163H19.7682V10.4314H19.3874L19.3871 6.59163ZM20.0907 6.59163H20.4718V10.4314H20.0907V6.59163ZM20.7946 6.59163H21.1756V10.4314H20.7946V6.59163ZM21.4984 6.59163H21.8797V10.4314H21.4984V6.59163ZM22.202 6.59163H22.569V10.4314H22.202V6.59163Z" fill="#23A3C2"/>
<path fill-rule="evenodd" clip-rule="evenodd" d="M18.3108 11.5242H22.9559V16.1322H18.3105L18.3108 11.5242ZM18.698 11.9083H19.0643V15.7483H18.698V11.9083ZM19.387 11.9083H19.7681V15.7483H19.3873L19.387 11.9083ZM20.0906 11.9083H20.4717V15.7483H20.0906V11.9083ZM20.7945 11.9083H21.1755V15.7483H20.7945V11.9083ZM21.4983 11.9083H21.8796V15.7483H21.4983V11.9083ZM22.2019 11.9083H22.5689V15.7483H22.2019V11.9083Z" fill="#34BBDE"/>
<path fill-rule="evenodd" clip-rule="evenodd" d="M23.6704 11.5242H28.3153V16.1322H23.6704V11.5242ZM24.0574 11.9083H24.4237V15.7483H24.0574V11.9083ZM24.7464 11.9083H25.1275V15.7483H24.7464V11.9083ZM25.4503 11.9083H25.8313V15.7483H25.4503V11.9083ZM26.1541 11.9083H26.5352V15.7483H26.1541V11.9083ZM26.8577 11.9083H27.2392V15.7483H26.8577V11.9083ZM27.5615 11.9083H27.9281V15.7483H27.5615V11.9083Z" fill="#23A3C2"/>
<path fill-rule="evenodd" clip-rule="evenodd" d="M23.6704 6.20752H28.3153V10.8153H23.6704V6.20752ZM24.0574 6.59163H24.4237V10.4314H24.0574V6.59163ZM24.7464 6.59163H25.1275V10.4314H24.7464V6.59163ZM25.4503 6.59163H25.8313V10.4314H25.4503V6.59163ZM26.1541 6.59163H26.5352V10.4314H26.1541V6.59163ZM26.8577 6.59163H27.2392V10.4314H26.8577V6.59163ZM27.5615 6.59163H27.9281V10.4314H27.5615V6.59163ZM29.0296 11.5242H33.6745V16.1322H29.0296V11.5242ZM29.4168 11.9083H29.7831V15.7483H29.4168V11.9083ZM30.1059 11.9083H30.487V15.7483H30.1059V11.9083ZM30.8095 11.9083H31.1906V15.7483H30.8095V11.9083ZM31.5133 11.9083H31.8946V15.7483H31.5133V11.9083ZM32.2171 11.9083H32.5985V15.7483H32.2171V11.9083ZM32.921 11.9083H33.2875V15.7483H32.921V11.9083Z" fill="#34BBDE"/>
<path fill-rule="evenodd" clip-rule="evenodd" d="M29.0293 6.20752H33.6741V10.8153H29.0293V6.20752ZM29.4165 6.59163H29.7828V10.4314H29.4165V6.59163ZM30.1055 6.59163H30.4866V10.4314H30.1055V6.59163ZM30.8091 6.59163H31.1902V10.4314H30.8091V6.59163ZM31.513 6.59163H31.8943V10.4314H31.513V6.59163ZM32.2168 6.59163H32.5981V10.4314H32.2168V6.59163ZM32.9206 6.59163H33.2872V10.4314H32.9206V6.59163Z" fill="#23A3C2"/>
<path fill-rule="evenodd" clip-rule="evenodd" d="M29.0293 0.890625H33.6741V5.49907H29.0293V0.890625ZM29.4165 1.27451H29.7828V5.11472H29.4165V1.27451ZM30.1055 1.27451H30.4866V5.11472H30.1055V1.27451ZM30.8091 1.27451H31.1902V5.11472H30.8091V1.27451ZM31.513 1.27451H31.8943V5.11472H31.513V1.27451ZM32.2168 1.27451H32.5981V5.11472H32.2168V1.27451ZM32.9206 1.27451H33.2872V5.11472H32.9206V1.27451Z" fill="#34BBDE"/>
<path fill-rule="evenodd" clip-rule="evenodd" d="M34.3887 11.5242H39.0335V16.1322H34.3887V11.5242ZM34.7754 11.9083H35.1422V15.7483H34.7756V11.9083H34.7754ZM35.4645 11.9083H35.8458V15.7483H35.4647L35.4645 11.9083ZM36.1685 11.9083H36.5498V15.7483H36.1685V11.9083ZM36.8721 11.9083H37.2534V15.7483H36.8721V11.9083ZM37.5762 11.9083H37.9573V15.7483H37.5762V11.9083ZM38.2798 11.9083H38.6463V15.7483H38.2798V11.9083Z" fill="#23A3C2"/>
<path fill-rule="evenodd" clip-rule="evenodd" d="M22.6649 23.6031C22.8346 23.6009 23.0031 23.6321 23.1606 23.695C23.318 23.7579 23.4614 23.8512 23.5822 23.9695C23.703 24.0878 23.7989 24.2287 23.8644 24.3841C23.9299 24.5395 23.9635 24.7062 23.9635 24.8747C23.9635 25.0431 23.9297 25.2098 23.8642 25.3651C23.7987 25.5205 23.7027 25.6614 23.5818 25.7796C23.461 25.8979 23.3176 25.9912 23.1601 26.054C23.0026 26.1168 22.8341 26.148 22.6644 26.1457C22.3275 26.1411 22.006 26.0051 21.7695 25.7672C21.5329 25.5292 21.4003 25.2084 21.4004 24.8742C21.4005 24.54 21.5332 24.2192 21.7698 23.9813C22.0065 23.7435 22.328 23.6076 22.6649 23.6031Z" fill="#D3ECEC"/>
<path fill-rule="evenodd" clip-rule="evenodd" d="M22.665 23.9636C22.7822 23.9636 22.894 23.9854 22.9971 24.0252C22.9259 24.0662 22.8704 24.1293 22.839 24.2047C22.8076 24.2802 22.8021 24.3638 22.8234 24.4426C22.8446 24.5215 22.8915 24.5912 22.9567 24.641C23.0219 24.6908 23.1019 24.7179 23.1841 24.7181C23.3259 24.7181 23.449 24.6402 23.5127 24.5249C23.5882 24.7052 23.6032 24.9049 23.5555 25.0944C23.5078 25.2839 23.3999 25.4532 23.2478 25.5772C23.0957 25.7012 22.9075 25.7733 22.7108 25.783C22.5142 25.7927 22.3197 25.7394 22.1559 25.631C21.9922 25.5226 21.8679 25.3648 21.8015 25.1809C21.7351 24.9971 21.73 24.7969 21.7871 24.61C21.8442 24.4231 21.9603 24.2593 22.1184 24.1429C22.2765 24.0265 22.4681 23.9636 22.665 23.9636ZM0 20.9685H59.6079C58.3102 20.6421 55.5016 20.2008 55.9648 18.5132C53.6046 21.2224 47.9133 20.414 46.4768 19.0782C44.8774 21.3796 35.5657 20.5047 34.9162 18.7118C32.9109 21.0464 26.6974 21.0464 24.6921 18.7118C24.0422 20.5047 14.7307 21.3796 13.1311 19.078C11.6948 20.414 6.00375 21.2224 3.64359 18.5134C4.10672 20.2008 1.2982 20.6419 0 20.9685Z" fill="#364548"/>
<path fill-rule="evenodd" clip-rule="evenodd" d="M26.0711 32.7637C22.8976 31.2698 21.156 29.2388 20.1868 27.022C19.0079 27.3556 17.5911 27.5691 15.9446 27.6607C15.3245 27.6951 14.672 27.7128 13.9876 27.7128C13.1982 27.7128 12.3664 27.6895 11.4932 27.6437C14.4034 30.5292 17.9835 32.7507 24.6125 32.7911C25.1019 32.7911 25.5875 32.7818 26.0711 32.7637Z" fill="#BDD9D7"/>
<path fill-rule="evenodd" clip-rule="evenodd" d="M21.3657 29.0676C20.9267 28.4763 20.5008 27.7332 20.1877 27.0215C19.0088 27.3556 17.5915 27.5691 15.9448 27.6609C17.0759 28.2699 18.6931 28.8342 21.3657 29.0676Z" fill="#D3ECEC"/>
</g>
<defs>
<clipPath id="clip0_60_166">
<rect width="60" height="50" fill="white"/>
</clipPath>
</defs>
</svg>
