<svg width="71" height="77" viewBox="0 0 71 77" fill="none" xmlns="http://www.w3.org/2000/svg">
<path d="M0.5 10.353C0.5 4.83018 4.97715 0.353027 10.5 0.353027H60.5C66.0228 0.353027 70.5 4.83018 70.5 10.353V66.353C70.5 71.8759 66.0228 76.353 60.5 76.353H10.5C4.97715 76.353 0.5 71.8759 0.5 66.353V10.353Z" fill="#B9EAA8"/>
<path d="M36.6962 51.6436C35.9886 51.6456 35.3096 51.3642 34.8108 50.8622L24.3615 40.4155C23.8101 39.866 23.5275 39.1023 23.5882 38.3262L24.2548 29.5716C24.3501 28.2538 25.4007 27.2071 26.7188 27.1169L35.4735 26.4502C35.5428 26.4355 35.6108 26.4355 35.6802 26.4355C36.3864 26.4347 37.0637 26.716 37.5615 27.2169L48.0108 37.6622C48.5112 38.1623 48.7923 38.8408 48.7923 39.5482C48.7923 40.2556 48.5112 40.9341 48.0108 41.4342L38.5815 50.8622C38.0826 51.364 37.4037 51.6453 36.6962 51.6436ZM31.0388 31.2249C29.8319 31.2252 28.7757 32.0361 28.4636 33.202C28.1516 34.3678 28.6614 35.598 29.7067 36.2012C30.7521 36.8045 32.0722 36.6304 32.9255 35.7769L32.9348 35.7689L32.9442 35.7595L32.9335 35.7689C33.6914 35.0043 33.9152 33.859 33.5009 32.8653C33.0866 31.8716 32.1154 31.2246 31.0388 31.2249Z" fill="#40BB15"/>
</svg>
