<svg width="187" height="86" viewBox="0 0 187 86" fill="none" xmlns="http://www.w3.org/2000/svg">
<g clip-path="url(#clip0_129_84)">
<path d="M119.54 14.1045L123.142 0H17.3511L0 67.813H88.4536L83.5831 86H168.313L187 14.1045H119.54Z" fill="#02262B"/>
<path d="M36.055 59.1554C33.657 59.1554 31.3909 58.8344 29.26 58.1895C27.1292 57.5474 25.2689 56.598 23.6826 55.3442C22.0963 54.0904 20.8449 52.5488 19.9249 50.7165C19.0049 48.8842 18.5449 46.7807 18.5449 44.4032C18.5449 41.1539 19.0962 38.1924 20.2022 35.5215C21.3083 32.8506 22.8472 30.5616 24.8191 28.6519C26.7909 26.7449 29.1552 25.2669 31.9151 24.2207C34.6717 23.1745 37.6921 22.6514 40.9695 22.6514C43.1815 22.6514 45.2785 22.9669 47.2673 23.6007C49.2527 24.2345 50.9912 25.1534 52.4828 26.3657C53.9744 27.5752 55.1616 29.0643 56.041 30.8301C56.9204 32.5959 57.3601 34.6247 57.3601 36.9137C57.3601 37.2624 57.3465 37.672 57.3195 38.1398C57.2924 38.6103 57.2518 39.0891 57.1977 39.579C57.1436 40.0689 57.0895 40.5505 57.0388 41.0183C56.9846 41.486 56.9204 41.8846 56.8392 42.2112H25.7796C25.7526 42.5184 25.7323 42.8118 25.7188 43.0941C25.7052 43.3792 25.6985 43.6725 25.6985 43.977C25.6985 45.7871 26.0198 47.3288 26.659 48.6047C27.2983 49.8806 28.1303 50.9213 29.1585 51.7295C30.1834 52.5377 31.3367 53.1189 32.6152 53.4787C33.8937 53.8385 35.1858 54.0185 36.4913 54.0185C39.3426 54.0185 41.6358 53.6144 43.3675 52.8089C45.0993 52.0035 46.4184 50.913 47.3248 49.5374H54.6407C54.1875 50.8909 53.44 52.1557 52.4016 53.332C51.3633 54.5083 50.0509 55.5297 48.4646 56.3904C46.8784 57.2512 45.0384 57.9293 42.9481 58.4192C40.8579 58.9091 38.5579 59.1554 36.055 59.1554ZM50.0848 37.6637C50.1118 37.5558 50.1321 37.3537 50.1456 37.0576C50.1592 36.7642 50.1659 36.4736 50.1659 36.1913C50.1659 35.0343 49.9596 33.9383 49.547 32.9032C49.1343 31.868 48.5154 30.9574 47.6867 30.1714C46.8614 29.3853 45.8332 28.7654 44.6088 28.3059C43.3811 27.8492 41.9571 27.6195 40.3302 27.6195C38.6763 27.6195 37.1306 27.8603 35.6931 28.3391C34.2523 28.8179 32.9467 29.5016 31.7764 30.3845C30.6028 31.2674 29.5915 32.3247 28.7391 33.5564C27.8868 34.788 27.207 36.1581 26.6996 37.661H50.0848V37.6637Z" fill="white"/>
<path d="M76.9743 59.1555C74.8164 59.1555 72.7905 58.8234 70.8964 58.1563C69.0023 57.4921 67.345 56.5372 65.921 55.2945C64.4937 54.0517 63.3674 52.5461 62.5421 50.7802C61.7168 49.0144 61.3042 47.041 61.3042 44.86C61.3042 42.7454 61.5646 40.7222 62.0821 38.793C62.5996 36.8639 63.3403 35.0759 64.3009 33.4291C65.2615 31.7823 66.4115 30.2932 67.7576 28.9647C69.1038 27.6334 70.5954 26.5014 72.2358 25.5631C73.8762 24.6248 75.6451 23.9052 77.5527 23.4043C79.4569 22.9033 81.4491 22.6514 83.5292 22.6514C85.0749 22.6514 86.5462 22.8258 87.9465 23.1745C89.3468 23.5233 90.6117 24.0076 91.7448 24.6304C92.8779 25.2531 93.8486 26.0032 94.6637 26.8861C95.4755 27.769 96.0708 28.735 96.4428 29.7812H97.0821L102.399 9.26929H109.394L96.6018 58.5355H89.9657L91.2036 53.7279H90.5644C88.9916 55.4079 87.0197 56.7309 84.6488 57.7024C82.2778 58.6684 79.7174 59.1555 76.9743 59.1555ZM79.1728 54.0849C81.4119 54.0849 83.4819 53.6559 85.3895 52.7924C87.2937 51.9316 88.9544 50.7525 90.3648 49.2607C91.7786 47.7661 92.8846 46.0114 93.6829 43.9937C94.4811 41.976 94.8836 39.8005 94.8836 37.4673C94.8836 35.9616 94.6299 34.6109 94.1226 33.4097C93.6152 32.2113 92.8948 31.19 91.9646 30.3514C91.0311 29.5127 89.8981 28.8623 88.5655 28.4056C87.2328 27.9462 85.7277 27.7192 84.0467 27.7192C81.8347 27.7192 79.7816 28.1233 77.8909 28.9287C75.9969 29.7369 74.3598 30.8579 72.9731 32.2971C71.5864 33.7363 70.4939 35.4551 69.6957 37.4479C68.8974 39.4407 68.4949 41.63 68.4949 44.0075C68.4949 45.491 68.7554 46.8528 69.2763 48.0955C69.7971 49.3382 70.5209 50.401 71.4544 51.284C72.388 52.1669 73.5075 52.8533 74.8131 53.3459C76.1186 53.8386 77.573 54.0849 79.1728 54.0849Z" fill="white"/>
<path d="M172.138 23.3738H156.536L139.516 40.617H138.677L129.677 23.3738H113.895L127.424 48.4193L98.2183 76.7308H113.611L132.356 58.5438H133.621L143.747 76.7308H159.235L144.258 49.6731L172.138 23.3738Z" fill="white"/>
</g>
<defs>
<clipPath id="clip0_129_84">
<rect width="187" height="86" fill="white"/>
</clipPath>
</defs>
</svg>
