<svg width="700" height="700" viewBox="0 0 700 700" fill="none" xmlns="http://www.w3.org/2000/svg">
<path d="M350 598.584C499.915 598.584 621.446 591.489 621.446 582.736C621.446 573.984 499.915 566.888 350 566.888C200.084 566.888 78.5537 573.984 78.5537 582.736C78.5537 591.489 200.084 598.584 350 598.584Z" fill="#F5F5F5"/>
<path d="M94.8916 503.412H437.738L462.378 290.122H119.546L94.8916 503.412Z" fill="#407BFF"/>
<path opacity="0.4" d="M94.8916 503.412H437.738L462.378 290.122H119.546L94.8916 503.412Z" fill="white"/>
<path d="M505.078 511.406H162.232L119.546 290.122H462.378L505.078 511.406Z" fill="#407BFF"/>
<path opacity="0.6" d="M505.078 511.406H162.232L119.546 290.122H462.378L505.078 511.406Z" fill="white"/>
<path d="M491.946 499.534H170.772L136.29 320.74H457.464L491.946 499.534Z" fill="white"/>
<g opacity="0.5">
<path d="M195.776 364.098H162.19L155.708 330.498H189.294L195.776 364.098Z" fill="#407BFF"/>
<path d="M448.294 364.098H414.694L408.226 330.498H441.812L448.294 364.098Z" fill="#407BFF"/>
<path d="M406.196 364.098H372.61L366.128 330.498H399.728L406.196 364.098Z" fill="#407BFF"/>
<path d="M364.112 364.098H330.526L324.044 330.498H357.644L364.112 364.098Z" fill="#407BFF"/>
<path d="M322.028 364.098H288.442L281.96 330.498H315.546L322.028 364.098Z" fill="#407BFF"/>
<path d="M279.944 364.098H246.358L239.876 330.498H273.462L279.944 364.098Z" fill="#407BFF"/>
<path d="M237.86 364.098H204.274L197.792 330.498H231.378L237.86 364.098Z" fill="#407BFF"/>
<path opacity="0.5" d="M203.854 405.986H170.268L163.786 372.4H197.372L203.854 405.986Z" fill="#407BFF"/>
<path d="M456.372 405.986H422.786L416.304 372.4H449.89L456.372 405.986Z" fill="#407BFF"/>
<path opacity="0.5" d="M414.288 405.986H380.702L374.22 372.4H407.806L414.288 405.986Z" fill="#407BFF"/>
<path d="M372.204 405.986H338.604L332.136 372.4H365.722L372.204 405.986Z" fill="#407BFF"/>
<path d="M330.106 405.986H296.52L290.038 372.4H323.638L330.106 405.986Z" fill="#407BFF"/>
<path d="M288.022 405.986H254.436L247.954 372.4H281.54L288.022 405.986Z" fill="#407BFF"/>
<path d="M245.938 405.986H212.352L205.87 372.4H239.456L245.938 405.986Z" fill="#407BFF"/>
<path d="M211.932 447.874H178.346L171.864 414.288H205.45L211.932 447.874Z" fill="#407BFF"/>
<path d="M464.45 447.874H430.864L424.382 414.288H457.968L464.45 447.874Z" fill="#407BFF"/>
<path d="M422.366 447.874H388.78L382.298 414.288H415.884L422.366 447.874Z" fill="#407BFF"/>
<path d="M380.282 447.874H346.696L340.214 414.288H373.8L380.282 447.874Z" fill="#407BFF"/>
<path d="M338.198 447.874H304.598L298.13 414.288H331.716L338.198 447.874Z" fill="#407BFF"/>
<path d="M296.1 447.874H262.514L256.032 414.288H289.632L296.1 447.874Z" fill="#407BFF"/>
<path d="M254.016 447.874H220.43L213.948 414.288H247.534L254.016 447.874Z" fill="#407BFF"/>
<path d="M220.01 489.776H186.424L179.942 456.176H213.542L220.01 489.776Z" fill="#407BFF"/>
<path d="M472.528 489.776H438.942L432.46 456.176H466.046L472.528 489.776Z" fill="#407BFF"/>
<path d="M430.444 489.776H396.858L390.376 456.176H423.962L430.444 489.776Z" fill="#407BFF"/>
<path d="M388.36 489.776H354.774L348.292 456.176H381.878L388.36 489.776Z" fill="#407BFF"/>
<path d="M346.276 489.776H312.69L306.208 456.176H339.794L346.276 489.776Z" fill="#407BFF"/>
<path d="M304.192 489.776H270.592L264.124 456.176H297.71L304.192 489.776Z" fill="#407BFF"/>
<path opacity="0.5" d="M262.108 489.776H228.508L222.04 456.176H255.626L262.108 489.776Z" fill="#407BFF"/>
</g>
<path d="M161.825 305.312L161.391 303.086C165.353 303.086 167.565 297.15 166.207 290.122C164.849 283.094 160.355 277.144 156.407 277.144C152.459 277.144 150.233 283.094 151.577 290.122H149.365C147.713 281.596 150.625 274.932 155.973 274.932C161.321 274.932 166.809 281.596 168.447 290.122C170.085 298.648 167.173 305.312 161.825 305.312Z" fill="#263238"/>
<path d="M194.978 305.312L194.544 303.086C198.506 303.086 200.718 297.15 199.36 290.122C198.002 283.094 193.508 277.144 189.56 277.144C185.612 277.144 183.386 283.094 184.73 290.122H182.518C180.866 281.596 183.778 274.932 189.126 274.932C194.474 274.932 199.962 281.596 201.6 290.122C203.238 298.648 200.326 305.312 194.978 305.312Z" fill="#263238"/>
<path d="M228.2 305.312L227.766 303.086C231.728 303.086 233.94 297.15 232.582 290.122C231.224 283.094 226.73 277.144 222.782 277.144C218.834 277.144 216.594 283.094 217.952 290.122H215.6C213.948 281.596 216.86 274.932 222.208 274.932C227.556 274.932 233.044 281.596 234.682 290.122C236.32 298.648 233.478 305.312 228.2 305.312Z" fill="#263238"/>
<path d="M261.268 305.312L260.848 303.086C264.81 303.086 267.022 297.15 265.664 290.122C264.306 283.094 259.812 277.144 255.864 277.144C251.916 277.144 249.69 283.094 251.048 290.122H248.822C247.184 281.596 250.096 274.932 255.444 274.932C260.792 274.932 266.266 281.596 267.918 290.122C269.57 298.648 266.63 305.312 261.268 305.312Z" fill="#263238"/>
<path d="M294.42 305.312L294 303.086C297.962 303.086 300.174 297.15 298.816 290.122C297.458 283.094 292.964 277.144 289.016 277.144C285.068 277.144 282.842 283.094 284.2 290.122H281.974C280.336 281.596 283.248 274.932 288.596 274.932C293.944 274.932 299.418 281.596 301.07 290.122C302.722 298.648 299.782 305.312 294.42 305.312Z" fill="#263238"/>
<path d="M327.6 305.312L327.18 303.086C331.142 303.086 333.354 297.15 331.996 290.122C330.638 283.094 326.144 277.144 322.196 277.144C318.248 277.144 316.022 283.094 317.38 290.122H315.154C313.516 281.596 316.414 274.932 321.776 274.932C327.138 274.932 332.598 281.596 334.25 290.122C335.902 298.648 332.934 305.312 327.6 305.312Z" fill="#263238"/>
<path d="M360.724 305.312L360.304 303.086C364.266 303.086 366.478 297.15 365.12 290.122C363.762 283.094 359.268 277.144 355.32 277.144C351.372 277.144 349.146 283.094 350.504 290.122H348.278C346.64 281.596 349.538 274.932 354.9 274.932C360.262 274.932 365.722 281.596 367.374 290.122C369.026 298.648 366.086 305.312 360.724 305.312Z" fill="#263238"/>
<path d="M393.875 305.312L393.455 303.086C397.417 303.086 399.629 297.15 398.271 290.122C396.913 283.094 392.419 277.144 388.471 277.144C384.523 277.144 382.297 283.094 383.655 290.122H381.429C379.791 281.596 382.689 274.932 388.051 274.932C393.413 274.932 398.873 281.596 400.525 290.122C402.177 298.648 399.223 305.312 393.875 305.312Z" fill="#263238"/>
<path d="M426.999 305.312L426.579 303.086C430.541 303.086 432.753 297.15 431.395 290.122C430.037 283.094 425.543 277.144 421.595 277.144C417.647 277.144 415.421 283.094 416.779 290.122H414.553C412.915 281.596 415.813 274.932 421.175 274.932C426.537 274.932 431.997 281.596 433.635 290.122C435.273 298.648 432.375 305.312 426.999 305.312Z" fill="#263238"/>
<path d="M283.766 359.366H165.998L159.516 325.78H277.284L283.766 359.366Z" fill="#407BFF"/>
<path d="M333.956 401.268H300.356L293.888 367.668H327.474L333.956 401.268Z" fill="#407BFF"/>
<path d="M439.039 444.276L437.219 442.694C433.484 439.423 429.326 436.668 424.857 434.504L426.019 431.074C430.182 433.088 434.099 435.573 437.695 438.48C443.896 429.285 452.016 421.543 461.495 415.786L464.001 419.202C454.352 425.065 446.18 433.07 440.117 442.596L439.039 444.276Z" fill="#407BFF"/>
<path d="M321.635 373.226H318.597L313.515 382.424L304.905 373.226H301.867L312.395 384.468L306.193 395.696H309.245L314.313 386.512L322.923 395.696H325.975L315.433 384.468L321.635 373.226Z" fill="white"/>
<path d="M383.893 453.684L389.493 482.818H360.373L354.773 453.684H383.907M385.713 451.458H352.113L358.595 485.058H392.195L385.727 451.458H385.713Z" fill="#407BFF"/>
<path d="M299.922 443.156H224.252L217.77 409.57H293.44L299.922 443.156Z" fill="#263238"/>
<path d="M247.799 422.968C248.001 423.748 248.017 424.565 247.847 425.353C247.676 426.14 247.324 426.877 246.818 427.504C246.312 428.132 245.666 428.632 244.932 428.965C244.198 429.298 243.397 429.454 242.591 429.422C240.773 429.354 239.03 428.683 237.635 427.515C236.241 426.346 235.276 424.746 234.891 422.968C234.693 422.188 234.679 421.373 234.851 420.586C235.022 419.8 235.375 419.064 235.88 418.438C236.386 417.811 237.03 417.311 237.763 416.978C238.495 416.644 239.295 416.485 240.099 416.514C241.917 416.584 243.659 417.256 245.053 418.425C246.447 419.593 247.413 421.191 247.799 422.968Z" fill="white"/>
<path d="M249.354 429.072C248.641 430.062 247.697 430.862 246.603 431.401C245.51 431.941 244.3 432.203 243.082 432.166C240.303 432.099 237.648 431.002 235.634 429.086C234.387 429.76 233.385 430.811 232.772 432.088C232.158 433.365 231.964 434.804 232.217 436.198H255.513C255.092 434.622 254.319 433.162 253.252 431.928C252.185 430.694 250.852 429.717 249.354 429.072Z" fill="white"/>
<path d="M287.308 424.27H261.548L260.834 420.56H286.594L287.308 424.27Z" fill="white"/>
<path d="M280.209 432.152H263.073L262.359 428.442H279.495L280.209 432.152Z" fill="white"/>
<path d="M415.464 328.916C422.1 328.916 431.494 329.882 438.592 334.516C439.881 335.277 441.005 336.288 441.897 337.49C442.79 338.693 443.432 340.062 443.786 341.516C445.032 347.018 442.106 353.024 438.872 356.286C433.762 361.438 425.81 364.686 416.472 365.33C415.408 365.414 414.316 365.456 413.238 365.456C406.662 365.399 400.156 364.107 394.058 361.648C388.052 359.254 381.682 356.048 379.89 349.804C379.422 348.366 379.278 346.841 379.47 345.34C379.661 343.84 380.182 342.4 380.996 341.124C382.053 339.505 383.453 338.138 385.098 337.12C392.854 332.323 401.694 329.554 410.802 329.07C412.356 328.972 413.924 328.916 415.464 328.916ZM415.044 326.76C413.378 326.76 411.768 326.76 410.256 326.928C400.831 327.424 391.684 330.284 383.656 335.244C381.81 336.393 380.238 337.932 379.05 339.752C378.1 341.266 377.494 342.969 377.274 344.742C377.054 346.515 377.225 348.315 377.776 350.014C379.876 357.266 387.058 361.032 393.582 363.622C399.959 366.199 406.765 367.548 413.644 367.598C414.778 367.598 415.898 367.598 417.018 367.486C425.894 366.842 434.742 363.818 440.566 357.938C446.39 352.058 450.1 339.584 439.53 332.738C432.404 328.132 423.08 326.76 415.03 326.76H415.044Z" fill="#263238"/>
<path d="M541.828 572.824L551.852 570.164L546.966 546.588L536.942 549.262L541.828 572.824Z" fill="#B55B52"/>
<path d="M552.175 568.316L541.101 571.956C540.912 572.008 540.751 572.133 540.654 572.304C540.557 572.475 540.531 572.677 540.583 572.866L542.935 581.812C543.083 582.273 543.407 582.658 543.837 582.881C544.267 583.104 544.768 583.147 545.231 583.002C549.067 581.602 550.831 580.832 555.703 579.236C558.699 578.242 565.951 576.016 570.081 574.658C574.211 573.3 572.769 569.254 570.893 569.45C562.493 570.374 557.579 569.632 554.093 568.372C553.479 568.134 552.802 568.114 552.175 568.316Z" fill="#263238"/>
<path opacity="0.2" d="M536.942 549.262L546.966 546.588L549.486 558.74L539.448 561.414L536.942 549.262Z" fill="black"/>
<path d="M511.238 309.008C511.238 309.008 525.238 393.498 529.438 422.968C533.988 455.238 551.026 552.314 551.026 552.314L534.226 558.67C534.226 558.67 507.416 463.232 500.01 431.858C491.96 397.796 474.236 309.008 474.236 309.008H511.238Z" fill="#263238"/>
<path opacity="0.3" d="M488.74 343.658C495.908 361.564 496.72 392 493.808 404.474C489.412 383.992 484.372 359.492 480.494 340.438C481.88 335.552 484.4 332.766 488.74 343.658Z" fill="black"/>
<path d="M533.47 561.05L552.972 555.198L552.412 547.218L529.2 554.008L533.47 561.05Z" fill="#263238"/>
<path d="M556.235 568.89C555.322 569.157 554.383 569.326 553.435 569.394C553.389 569.397 553.343 569.389 553.301 569.369C553.259 569.35 553.223 569.32 553.197 569.282C553.173 569.241 553.161 569.196 553.161 569.149C553.161 569.102 553.173 569.056 553.197 569.016C553.435 568.694 555.605 565.866 556.963 565.936C557.116 565.947 557.265 565.997 557.394 566.08C557.524 566.163 557.631 566.277 557.705 566.412C557.856 566.609 557.948 566.846 557.97 567.094C557.993 567.341 557.944 567.59 557.831 567.812C557.443 568.349 556.878 568.731 556.235 568.89ZM554.009 568.89C555.899 568.652 557.173 568.176 557.481 567.574C557.542 567.431 557.566 567.275 557.549 567.12C557.531 566.965 557.474 566.818 557.383 566.692C557.347 566.625 557.295 566.567 557.232 566.526C557.168 566.484 557.095 566.459 557.019 566.454C556.291 566.384 554.919 567.756 554.009 568.862V568.89Z" fill="#407BFF"/>
<path d="M553.547 569.38C553.511 569.394 553.471 569.394 553.435 569.38C553.395 569.374 553.357 569.358 553.326 569.333C553.294 569.309 553.269 569.277 553.253 569.24C553.253 569.114 552.049 566.356 552.721 565.04C552.809 564.875 552.933 564.733 553.083 564.621C553.233 564.51 553.406 564.433 553.589 564.396C553.789 564.337 554.003 564.348 554.196 564.427C554.389 564.506 554.55 564.648 554.653 564.83C555.241 565.824 554.443 568.372 553.659 569.268C553.617 569.352 553.589 569.38 553.547 569.38ZM553.547 564.942C553.366 565.007 553.216 565.136 553.127 565.306C552.891 566.433 553.023 567.606 553.505 568.652C554.187 567.606 554.438 566.337 554.205 565.11C554.135 564.984 554.009 564.844 553.659 564.914L553.547 564.942Z" fill="#407BFF"/>
<path d="M509.111 222.026C509.517 222.684 510.077 223.608 510.595 224.406L512.191 226.926C513.297 228.592 514.389 230.258 515.551 231.896C517.833 235.158 520.241 238.322 522.733 241.332C525.164 244.275 527.792 247.049 530.601 249.634C533.139 252.006 535.96 254.056 539.001 255.738L536.789 255.108C538.957 255.553 541.178 255.681 543.383 255.486C544.587 255.374 545.819 255.22 547.079 254.996C548.339 254.772 549.613 254.464 550.901 254.114C553.552 253.392 556.156 252.508 558.699 251.468C560.001 250.936 561.303 250.39 562.605 249.802C563.907 249.214 565.237 248.556 566.371 248.024L566.749 247.842C567.835 247.322 569.083 247.254 570.219 247.653C571.356 248.052 572.288 248.885 572.811 249.97C573.203 250.806 573.334 251.741 573.186 252.652C573.039 253.564 572.62 254.41 571.985 255.08C570.711 256.396 569.591 257.446 568.331 258.552C567.071 259.658 565.811 260.638 564.481 261.618C561.773 263.595 558.907 265.347 555.913 266.854C552.752 268.442 549.422 269.668 545.987 270.508C544.142 270.932 542.271 271.236 540.387 271.418C538.407 271.586 536.416 271.586 534.437 271.418C533.874 271.363 533.322 271.226 532.799 271.012L532.239 270.774C527.612 268.771 523.29 266.127 519.401 262.92C515.713 259.945 512.28 256.667 509.139 253.12C506.07 249.723 503.2 246.151 500.543 242.424C499.227 240.557 497.957 238.691 496.735 236.824C496.133 235.858 495.531 234.906 494.943 233.912C494.355 232.918 493.823 231.994 493.179 230.79C491.987 228.694 491.676 226.21 492.316 223.885C492.955 221.561 494.492 219.585 496.588 218.393C498.684 217.201 501.167 216.891 503.492 217.53C505.817 218.169 507.793 219.706 508.985 221.802L509.111 222.026Z" fill="#263238"/>
<path opacity="0.3" d="M517.734 247.632C512.274 236.432 502.964 237.076 499.212 240.534L500.276 242.088C502.817 245.69 505.556 249.149 508.48 252.448C511.474 255.839 514.712 259.007 518.168 261.926C519.26 262.822 520.394 263.704 521.542 264.544C521.386 258.712 520.092 252.967 517.734 247.632Z" fill="black"/>
<path d="M569.478 246.4L576.478 240.562L580.678 249.62C580.678 249.62 570.248 257.082 567.854 254.45L567.574 251.076C567.495 250.201 567.627 249.32 567.958 248.507C568.289 247.693 568.81 246.971 569.478 246.4Z" fill="#B55B52"/>
<path d="M585.816 241.668L588.014 248.668L580.622 249.578L576.45 240.52L585.816 241.668Z" fill="#B55B52"/>
<path d="M454.133 572.488H464.507L465.851 548.45H455.477L454.133 572.488Z" fill="#B55B52"/>
<path d="M465.053 571.284H453.391C453.293 571.28 453.196 571.296 453.105 571.329C453.013 571.363 452.929 571.415 452.858 571.481C452.786 571.547 452.729 571.627 452.688 571.716C452.647 571.805 452.624 571.9 452.621 571.998L452.047 581.224C452.047 581.709 452.238 582.175 452.578 582.521C452.919 582.866 453.382 583.064 453.867 583.072C457.927 583.002 459.873 582.764 464.997 582.764C468.147 582.764 476.841 583.086 481.195 583.086C485.549 583.086 485.395 578.774 483.589 578.382C475.301 576.646 469.771 574.182 466.789 571.928C466.3 571.522 465.688 571.295 465.053 571.284Z" fill="#263238"/>
<path opacity="0.2" d="M455.476 548.464H465.85L465.15 560.854H454.776L455.476 548.464Z" fill="black"/>
<path d="M490.967 309.008C490.967 309.008 490.071 399.182 488.391 428.904C486.543 461.44 469.603 557.858 469.603 557.858H450.591C450.591 557.858 458.879 464.058 457.731 431.858C456.485 396.858 455.729 309.008 455.729 309.008H490.967Z" fill="#263238"/>
<path d="M449.064 557.858H472.248L473.382 550.648L448.084 551.768L449.064 557.858Z" fill="#263238"/>
<path d="M468.72 573.09C467.776 573.068 466.838 572.946 465.92 572.726C465.873 572.717 465.83 572.694 465.796 572.66C465.763 572.627 465.74 572.584 465.731 572.537C465.722 572.49 465.727 572.442 465.746 572.398C465.764 572.354 465.796 572.317 465.836 572.292C466.172 572.054 469.098 570.052 470.372 570.556C470.515 570.61 470.641 570.701 470.739 570.819C470.838 570.936 470.904 571.077 470.932 571.228C470.998 571.454 471.005 571.693 470.954 571.923C470.902 572.153 470.794 572.367 470.638 572.544C470.087 572.955 469.405 573.149 468.72 573.09ZM466.62 572.376C468.482 572.74 469.854 572.684 470.33 572.208C470.435 572.093 470.508 571.951 470.54 571.799C470.572 571.646 470.562 571.487 470.512 571.34C470.501 571.263 470.468 571.192 470.419 571.132C470.37 571.073 470.305 571.029 470.232 571.004C469.56 570.738 467.824 571.606 466.62 572.376Z" fill="#407BFF"/>
<path d="M466.018 572.726C465.982 572.74 465.942 572.74 465.906 572.726C465.869 572.708 465.838 572.68 465.816 572.645C465.794 572.611 465.781 572.571 465.78 572.53C465.78 572.404 465.528 569.422 466.578 568.414C466.713 568.285 466.874 568.188 467.051 568.13C467.228 568.072 467.416 568.054 467.6 568.078C467.807 568.085 468.006 568.16 468.165 568.292C468.325 568.423 468.436 568.604 468.482 568.806C468.72 569.94 467.166 572.11 466.144 572.726C466.103 572.739 466.059 572.739 466.018 572.726ZM467.418 568.526C467.225 568.526 467.039 568.601 466.9 568.736C466.324 569.73 466.084 570.884 466.214 572.026C467.124 571.27 468.146 569.618 467.992 568.876C467.992 568.736 467.88 568.568 467.53 568.526H467.418Z" fill="#407BFF"/>
<path d="M506.871 224.686C506.347 222.935 505.358 221.359 504.01 220.127C502.661 218.894 501.003 218.05 499.213 217.686C496.653 217.081 494.058 216.636 491.443 216.356C483.586 215.907 475.709 215.907 467.853 216.356C463.737 216.552 459.537 217.056 456.191 217.546H456.065C455.185 217.67 454.339 217.969 453.578 218.426C452.816 218.884 452.154 219.49 451.632 220.208C451.109 220.927 450.737 221.743 450.536 222.608C450.336 223.474 450.311 224.371 450.465 225.246C453.101 239.17 454.827 253.251 455.631 267.4C456.443 287.938 455.337 304.066 455.729 309.022H511.239C514.613 258.888 510.259 236.11 506.871 224.686Z" fill="#E6E6E6"/>
<path d="M469.421 215.432C473.789 233.156 477.821 278.068 477.751 313.18H454.287C453.867 307.944 455.043 290.948 454.189 269.29C453.348 254.4 451.547 239.581 448.799 224.924C448.639 224.005 448.665 223.064 448.874 222.155C449.083 221.247 449.471 220.389 450.016 219.633C450.562 218.876 451.252 218.236 452.048 217.75C452.844 217.265 453.729 216.943 454.651 216.804H454.777C458.305 216.286 462.729 215.754 467.069 215.544L469.421 215.432Z" fill="#263238"/>
<path d="M509.726 224.938C509.129 223.003 508.042 221.255 506.57 219.864C505.098 218.473 503.292 217.486 501.326 217C497.616 216.416 493.877 216.033 490.126 215.852C494.564 231.252 503.272 278.166 500.682 313.18H515.494C519.008 260.638 513.03 234.542 509.726 224.938Z" fill="#263238"/>
<path d="M596.246 273.476L485.8 320.74L472.528 289.884L582.988 242.62L596.246 273.476Z" fill="#407BFF"/>
<path d="M503.034 291.41C503.537 292.583 503.68 293.878 503.446 295.133C503.212 296.387 502.612 297.544 501.721 298.457C500.83 299.371 499.688 299.999 498.44 300.264C497.192 300.528 495.893 300.417 494.708 299.944C493.523 299.471 492.505 298.657 491.782 297.605C491.06 296.553 490.665 295.311 490.648 294.035C490.631 292.759 490.993 291.507 491.687 290.437C492.382 289.366 493.378 288.526 494.55 288.022C495.33 287.686 496.168 287.508 497.016 287.497C497.865 287.485 498.707 287.642 499.495 287.956C500.283 288.271 501.001 288.738 501.609 289.331C502.216 289.923 502.7 290.63 503.034 291.41Z" fill="white"/>
<path d="M505.82 296.87C505.409 298.097 504.744 299.224 503.867 300.176C502.99 301.129 501.921 301.885 500.731 302.395C499.541 302.905 498.257 303.158 496.963 303.137C495.668 303.116 494.393 302.822 493.22 302.274C492.227 303.403 491.554 304.778 491.274 306.255C490.993 307.733 491.114 309.259 491.624 310.674L513.044 301.518C512.37 300.164 511.343 299.018 510.071 298.2C508.8 297.382 507.331 296.923 505.82 296.87Z" fill="white"/>
<path d="M580.538 259.672L515.984 287.294L514.528 283.878L579.082 256.256L580.538 259.672Z" fill="white"/>
<path d="M575.737 270.298L519.107 294.532L517.637 291.116L574.267 266.882L575.737 270.298Z" fill="white"/>
<path opacity="0.3" d="M461.538 242.9C461.146 231.126 452.452 226.632 450.002 229.796C449.894 229.924 449.796 230.059 449.708 230.202C451.234 239.274 453.096 251.762 453.908 264.068C458.038 261.688 461.902 254.086 461.538 242.9Z" fill="black"/>
<path d="M490.322 216.328C483.462 214.704 482.258 210.462 482.72 205.8C482.829 204.632 483.011 203.472 483.266 202.328L474.67 195.188L468.356 189.952C470.106 197.554 472.08 211.4 466.956 216.468C466.956 216.468 471.156 223.468 482.958 222.852C492.8 222.306 490.322 216.328 490.322 216.328Z" fill="#B55B52"/>
<path d="M478.241 229.11C479.052 226.777 480.372 224.653 482.105 222.894C476.836 221.165 472.042 218.231 468.105 214.326L464.507 215.726C464.507 215.726 465.781 224.868 478.241 229.11Z" fill="white"/>
<path d="M487.845 227.542C486.286 225.599 484.329 224.014 482.104 222.894C485.562 221.914 486.907 214.9 486.907 214.9L490.281 215.6C490.281 215.6 496.511 224.742 487.845 227.542Z" fill="white"/>
<path opacity="0.2" d="M483.266 202.328C483.011 203.473 482.829 204.632 482.72 205.8C479.514 205.156 475.23 201.74 474.782 198.464C474.624 197.379 474.587 196.281 474.67 195.188L483.266 202.328Z" fill="black"/>
<path d="M487.27 164.99C491.596 164.206 496.636 168.742 494.27 177.954C491.904 187.166 480.662 166.18 487.27 164.99Z" fill="#263238"/>
<path d="M465.753 179.018C467.951 189.112 468.721 195.118 474.685 199.724C476.606 201.24 478.906 202.202 481.335 202.506C483.763 202.809 486.229 202.443 488.465 201.447C490.7 200.451 492.621 198.863 494.02 196.854C495.418 194.845 496.241 192.492 496.399 190.05C497.183 180.656 493.473 165.732 482.847 162.876C480.564 162.195 478.142 162.127 475.825 162.679C473.508 163.23 471.376 164.381 469.644 166.017C467.912 167.652 466.641 169.714 465.958 171.996C465.275 174.278 465.204 176.7 465.753 179.018Z" fill="#B55B52"/>
<path d="M469.812 189.952C471.296 186.452 472.612 176.708 471.408 172.662C476.238 172.508 486.388 171.612 490.616 166.908C497.112 159.684 488.544 151.144 477.764 157.948C470.764 162.33 455.658 161.462 458.164 166.348C450.8 174.454 459.074 183.61 469.812 189.952Z" fill="#263238"/>
<path d="M458.15 166.712C458.099 166.711 458.049 166.7 458.003 166.678C457.957 166.656 457.917 166.625 457.884 166.586C456.988 165.48 456.708 164.556 457.016 163.786C457.758 161.938 461.608 161.434 466.046 160.874C470.246 160.342 474.894 159.74 476.378 157.85C476.445 157.789 476.532 157.755 476.623 157.755C476.714 157.755 476.801 157.789 476.868 157.85C476.901 157.881 476.928 157.919 476.946 157.961C476.965 158.003 476.974 158.049 476.974 158.095C476.974 158.141 476.965 158.186 476.946 158.228C476.928 158.27 476.901 158.308 476.868 158.34C475.202 160.454 470.568 161.042 466.088 161.616C462.21 162.12 458.206 162.624 457.688 164.108C457.478 164.64 457.688 165.354 458.43 166.236C458.494 166.301 458.53 166.389 458.53 166.481C458.53 166.572 458.494 166.66 458.43 166.726C458.338 166.753 458.239 166.748 458.15 166.712Z" fill="#263238"/>
<path d="M464.199 187.166C465.404 189.051 467.224 190.461 469.351 191.156C472.053 191.968 472.977 189.476 471.885 186.844C470.891 184.464 468.287 181.174 465.753 181.524C463.219 181.874 462.673 184.8 464.199 187.166Z" fill="#B55B52"/>
<path d="M480.2 180.026C480.326 180.852 480.872 181.426 481.418 181.426C481.964 181.426 482.286 180.642 482.16 179.816C482.034 178.99 481.488 178.416 480.942 178.416C480.396 178.416 480.074 179.2 480.2 180.026Z" fill="#263238"/>
<path d="M489.594 178.906C489.72 179.732 490.266 180.306 490.812 180.306C491.358 180.306 491.694 179.508 491.554 178.682C491.414 177.856 490.882 177.282 490.35 177.282C489.818 177.282 489.468 178.08 489.594 178.906Z" fill="#263238"/>
<path d="M488.152 179.676C489.541 182.093 491.246 184.316 493.22 186.284C492.704 186.756 492.091 187.109 491.423 187.317C490.755 187.525 490.049 187.583 489.356 187.488L488.152 179.676Z" fill="#A02724"/>
<path d="M486.304 190.134C485.333 190.147 484.37 189.962 483.472 189.592C482.574 189.221 481.761 188.672 481.082 187.978C481.061 187.954 481.045 187.926 481.035 187.896C481.024 187.866 481.02 187.834 481.022 187.802C481.024 187.77 481.032 187.739 481.046 187.71C481.06 187.681 481.08 187.656 481.103 187.635C481.127 187.614 481.155 187.597 481.185 187.587C481.216 187.577 481.247 187.572 481.279 187.574C481.311 187.576 481.342 187.584 481.371 187.598C481.4 187.612 481.425 187.632 481.446 187.656C482.201 188.391 483.111 188.946 484.11 189.281C485.108 189.616 486.17 189.72 487.214 189.588C487.247 189.582 487.28 189.583 487.312 189.59C487.344 189.598 487.374 189.612 487.401 189.631C487.427 189.651 487.449 189.676 487.465 189.705C487.481 189.733 487.491 189.765 487.494 189.798C487.498 189.829 487.496 189.861 487.488 189.891C487.479 189.921 487.465 189.95 487.445 189.975C487.426 189.999 487.401 190.02 487.374 190.035C487.346 190.051 487.316 190.06 487.284 190.064C486.96 190.107 486.632 190.13 486.304 190.134Z" fill="#263238"/>
<path d="M477.135 177.352C477.051 177.346 476.97 177.322 476.897 177.282C476.84 177.25 476.791 177.207 476.751 177.156C476.712 177.105 476.682 177.046 476.665 176.984C476.649 176.921 476.644 176.856 476.653 176.792C476.661 176.728 476.682 176.666 476.715 176.61C477.076 175.927 477.599 175.344 478.239 174.912C478.879 174.48 479.615 174.212 480.383 174.132C480.447 174.128 480.511 174.137 480.572 174.158C480.633 174.179 480.689 174.212 480.738 174.255C480.786 174.298 480.825 174.35 480.853 174.408C480.881 174.466 480.897 174.529 480.901 174.594C480.904 174.658 480.895 174.723 480.874 174.783C480.853 174.844 480.82 174.9 480.777 174.949C480.734 174.997 480.682 175.036 480.624 175.064C480.566 175.092 480.503 175.108 480.439 175.112C479.834 175.183 479.257 175.402 478.756 175.749C478.256 176.095 477.848 176.559 477.569 177.1C477.526 177.177 477.463 177.241 477.386 177.285C477.31 177.33 477.223 177.353 477.135 177.352Z" fill="#263238"/>
<path d="M493.809 175.21C493.728 175.21 493.648 175.19 493.577 175.151C493.506 175.111 493.446 175.055 493.403 174.986C493.063 174.456 492.605 174.012 492.067 173.687C491.528 173.362 490.922 173.164 490.295 173.11C490.165 173.11 490.04 173.058 489.948 172.966C489.856 172.874 489.805 172.75 489.805 172.62C489.805 172.49 489.856 172.365 489.948 172.273C490.04 172.182 490.165 172.13 490.295 172.13C491.082 172.185 491.847 172.422 492.527 172.823C493.207 173.224 493.785 173.777 494.215 174.44C494.285 174.55 494.309 174.683 494.283 174.811C494.257 174.939 494.182 175.052 494.075 175.126C493.996 175.179 493.904 175.208 493.809 175.21Z" fill="#263238"/>
<path d="M462.812 232.05L462.714 232.204L462.476 232.596L461.972 233.478C461.622 234.108 461.286 234.752 460.95 235.424C460.306 236.824 459.676 238.224 459.116 239.624C457.998 242.556 457.109 245.57 456.456 248.64C455.156 254.978 454.774 261.471 455.322 267.918C455.398 269.274 455.581 270.622 455.868 271.95C456.188 273.291 456.633 274.599 457.198 275.856C458.497 278.727 460.087 281.458 461.944 284.004C466.033 289.533 470.606 294.686 475.608 299.404L475.804 299.6C476.583 300.356 477.065 301.367 477.161 302.449C477.258 303.53 476.964 304.611 476.332 305.494C475.7 306.377 474.772 307.003 473.717 307.26C472.662 307.517 471.55 307.387 470.582 306.894C467.071 305.099 463.709 303.025 460.53 300.692C457.297 298.356 454.25 295.772 451.416 292.964C448.411 289.975 445.778 286.632 443.576 283.01C442.368 281.039 441.36 278.952 440.566 276.78C439.793 274.583 439.226 272.319 438.872 270.018C438.147 265.965 437.772 261.857 437.752 257.74C437.688 253.571 438.002 249.406 438.69 245.294C439.383 241.12 440.476 237.023 441.952 233.058C442.705 231.037 443.57 229.06 444.542 227.136C445.046 226.156 445.564 225.19 446.152 224.224C446.446 223.734 446.754 223.244 447.076 222.74L447.594 221.984L448.294 221.018C449.776 219.174 451.918 217.979 454.266 217.688C456.614 217.396 458.983 218.03 460.871 219.456C462.759 220.882 464.018 222.986 464.38 225.324C464.743 227.662 464.18 230.05 462.812 231.98V232.05Z" fill="#263238"/>
<path d="M478.577 299.516L484.359 299.208L477.653 310.408C477.653 310.408 468.301 309.218 469.253 304.444L470.555 303.044C472.684 300.893 475.552 299.632 478.577 299.516Z" fill="#B55B52"/>
<path d="M490.35 303.226L485.31 315.126L477.652 310.45L484.358 299.208L490.35 303.226Z" fill="#B55B52"/>
</svg>
