<svg width="692" height="645" viewBox="0 0 692 645" fill="none" xmlns="http://www.w3.org/2000/svg">
<path d="M368.723 644.092C511.06 644.092 626.446 637.074 626.446 628.416C626.446 619.758 511.06 612.74 368.723 612.74C226.387 612.74 111 619.758 111 628.416C111 637.074 226.387 644.092 368.723 644.092Z" fill="#CED3E6"/>
<path d="M352.655 191.867L377.015 280.946C377.42 282.429 375.537 283.436 374.529 282.276V282.276C373.478 281.065 375.087 278.875 376.617 279.358C378.091 279.823 379.626 280.233 381.214 280.586C385.609 281.583 390.414 282.152 395.431 282.401C400.449 282.668 405.681 282.615 411.036 282.401C416.392 282.17 421.855 281.778 427.407 281.298H427.442C435.627 280.604 442.834 286.672 443.528 294.857C444.186 302.668 438.652 309.572 431.054 310.818C425.325 311.725 419.506 312.597 413.545 313.291C407.567 313.985 401.446 314.501 395.111 314.643C388.777 314.786 382.211 314.536 375.414 313.558C368.634 312.579 361.606 310.8 354.737 307.846C350.342 305.942 347.211 302.348 345.787 298.131L345.449 297.134L314.221 203.522C310.716 193.006 316.392 181.618 326.926 178.113C337.442 174.607 348.83 180.283 352.335 190.817C352.442 191.138 352.567 191.529 352.655 191.867Z" fill="#EA9B7A"/>
<path d="M362.673 536.957C362.282 536.957 361.89 536.886 361.499 536.744L225.128 487.58C223.349 486.939 222.424 484.964 223.064 483.185C223.705 481.405 225.68 480.462 227.459 481.121L363.83 530.284C365.609 530.925 366.552 532.9 365.894 534.679C365.414 536.085 364.079 536.957 362.673 536.957Z" fill="#C77E2E"/>
<path d="M220.627 536.957C219.221 536.957 217.904 536.085 217.388 534.679C216.748 532.9 217.673 530.925 219.452 530.266L357.442 480.284C359.221 479.644 361.196 480.569 361.855 482.348C362.495 484.128 361.57 486.103 359.791 486.761L221.801 536.743C221.41 536.886 221.018 536.957 220.627 536.957Z" fill="#C77E2E"/>
<path d="M374.809 624.822C371.908 624.822 369.381 622.669 368.972 619.715L348.991 470.474C346.331 450.612 329.384 435.782 309.344 435.782H276.339C256.269 435.782 239.306 450.655 236.682 470.553L217.015 619.715C216.587 622.936 213.634 625.213 210.413 624.786C207.192 624.359 204.915 621.406 205.342 618.185L230.271 429.163C230.662 426.227 233.153 424.038 236.107 424.038H349.506C352.46 424.038 354.951 426.227 355.342 429.145L380.663 618.167C381.09 621.388 378.83 624.359 375.609 624.786C375.325 624.804 375.075 624.822 374.809 624.822Z" fill="#FAAF3A"/>
<path d="M247.38 405.724C254.792 410.029 251.582 429.91 243.011 429.91V429.91C219.684 429.91 194.701 417.134 191.107 394.092C186.32 363.255 185.128 333.415 186.463 306.013C186.93 296.451 188.663 287.094 191.552 278.161C200.591 250.217 232.636 260.479 232.668 289.849C232.694 314.018 230.608 343.943 223.775 377.44C223.488 378.847 223.453 380.324 223.884 381.694C226.837 391.076 235.949 399.085 247.38 405.724Z" fill="#FAAF3A"/>
<path d="M301.526 59.512C301.62 55.7764 300.639 52.1044 298.497 49.0423C294.323 43.0746 285.217 34.07 269.363 36.7954C253.171 39.5712 246.267 59.7491 247.21 90.9236C248.019 117.346 243.151 137.651 238.946 150C236.568 156.984 240.479 165.251 247.674 166.886V166.886C251.372 167.727 254.885 166.333 256.918 163.131C267.62 146.271 300.714 91.6239 301.526 59.512Z" fill="#39393B"/>
<path d="M488.3 528.633C487.676 538.477 479.468 546.014 469.604 546.014V546.014C460.591 546.014 452.816 539.7 451.094 530.853C448.676 518.423 445.459 500.992 443.972 489.038C443.445 484.826 442.971 479.429 442.55 473.511C440.654 446.853 413.77 425.744 387.047 426.042C378.712 426.135 369.371 425.945 359.008 425.337C298.532 421.806 279.543 397.932 275.732 374.826C272.206 353.451 308.603 329.998 330.004 333.362V333.362C382.798 338.433 428.563 359.145 456.037 370.995C462.656 373.842 468.528 376.867 473.688 380.052C480.307 384.127 484.453 396.529 486.962 412.81C492.343 447.973 490.03 501.353 488.3 528.633Z" fill="#39393B"/>
<path d="M458.225 528.416C457.674 528.416 457.193 528.024 457.069 527.473C452.318 503.985 450.734 474.75 449.453 451.262C448.385 431.778 447.389 413.38 444.88 411.173C442.851 409.376 434.435 410.782 423.794 412.543C402.602 416.067 370.574 421.369 335.271 413.166C316.036 408.682 301.89 399.341 293.242 385.39C278.314 361.333 285.129 331.493 285.2 331.191C285.342 330.55 285.983 330.159 286.623 330.319C287.264 330.461 287.655 331.102 287.495 331.743C287.424 332.027 280.858 360.942 295.271 384.163C303.581 397.561 317.228 406.547 335.823 410.871C370.68 418.985 402.424 413.718 423.439 410.23C436.019 408.148 443.617 406.885 446.481 409.412C449.577 412.152 450.449 425.604 451.837 451.138C453.118 474.554 454.702 503.683 459.417 527.01C459.542 527.651 459.133 528.273 458.492 528.398C458.367 528.416 458.296 528.416 458.225 528.416Z" fill="#585859"/>
<path d="M487.656 529.038H487.638L451.054 528.255C450.396 528.238 449.88 527.704 449.898 527.045C449.916 526.387 450.449 525.871 451.108 525.889L487.691 526.672C488.35 526.69 488.866 527.223 488.848 527.882C488.83 528.522 488.296 529.038 487.656 529.038Z" fill="#585859"/>
<path d="M485.735 575.422C485.949 582.387 480.361 588.149 473.392 588.149V588.149C467.344 588.149 462.186 583.768 461.207 577.8L458.439 560.925V560.925C457.152 553.114 463.179 546.014 471.095 546.014H471.806C479.062 546.014 485.005 551.776 485.23 559.028L485.289 560.925L485.735 575.422Z" fill="#EA9B7A"/>
<path d="M485.741 575.424C485.952 582.389 480.363 588.149 473.394 588.149V588.149C467.345 588.149 462.186 583.768 461.205 577.798L459.577 567.882V567.882C458.981 564.236 461.794 560.925 465.489 560.925H478.079C482.098 560.925 485.392 564.114 485.521 568.131V568.131L485.741 575.424Z" fill="#FAAF3A"/>
<path d="M485.401 564.395C485.466 566.433 483.821 568.115 481.783 568.095L462.516 567.91C460.818 567.894 459.377 566.658 459.103 564.982V564.982C458.755 562.856 460.395 560.925 462.55 560.925H481.817C483.753 560.925 485.339 562.461 485.401 564.395V564.395Z" fill="#C77E2E"/>
<path d="M544.133 619.928C544.742 623.032 541.529 624.822 538.366 624.822H460.657C457.543 624.822 454.673 623.053 454.453 619.946V619.946C453.901 612.508 456.268 600.658 457.424 593.185C457.567 592.313 457.691 591.494 457.78 590.765C457.94 589.519 458.047 588.469 458.047 587.704V587.704C458.047 582.065 465.611 586.043 471.24 585.698C477.531 585.313 483.654 579.896 487.839 582.305C488.128 582.471 488.393 582.681 488.66 582.881C488.765 582.959 488.892 583.054 489.044 583.167C489.542 583.558 490.289 584.163 491.321 585.035C492.816 586.281 494.916 588.096 497.763 590.658C504.738 596.939 516.588 601.067 526.677 605.284C527.958 605.818 529.151 606.37 530.272 606.903C531.108 607.313 531.909 607.722 532.656 608.113C540.912 612.562 543.528 616.832 544.133 619.928V619.928Z" fill="#0875F7"/>
<path d="M530.973 607.27C531.793 607.666 531.871 608.767 531.132 609.299C528.558 611.157 524.62 613.54 521.339 613.54C521.161 613.54 520.983 613.54 520.805 613.523C517.958 613.291 507.496 608.149 498.973 603.469C494.097 600.782 489.631 598.149 486.428 596.031C481.179 592.562 480.254 591.245 480.058 590.32C479.331 587.021 484.473 584.687 488.437 583.38C488.817 583.254 489.091 583.22 489.403 583.47V583.47C490.165 584.079 490.038 585.411 489.113 585.721C485.955 586.778 483.446 588.078 482.668 589.088C482.368 589.479 482.539 589.993 482.887 590.343C484.451 591.914 489.789 595.667 500.538 601.565C510.022 606.761 519.008 610.942 521.001 611.12C523.504 611.318 527.089 609.23 529.669 607.38C530.044 607.111 530.558 607.069 530.973 607.27V607.27Z" fill="#084FC7"/>
<path d="M543.826 624.003C543.378 625.147 542.686 624.822 541.457 624.822H457.4C456.295 624.822 455.337 624.436 455.019 623.378V623.378C454.513 621.692 455.95 619.946 457.71 619.946H541.077C542.861 619.946 544.476 622.342 543.826 624.003V624.003Z" fill="#084FC7"/>
<path d="M464.846 624.432C464.668 624.68 464.381 624.822 464.076 624.822V624.822C463.245 624.822 462.781 623.826 463.257 623.144C465.299 620.219 466.925 616.157 466.659 610.765C466.25 602.437 461.454 596.728 457.86 593.575C457.581 593.329 457.45 592.921 457.508 592.553V592.553C457.635 591.745 458.575 591.392 459.194 591.926C463.084 595.283 468.284 601.457 468.741 610.658C469.066 616.644 467.188 621.167 464.846 624.432Z" fill="#084FC7"/>
<path d="M496.286 595.854C495.645 595.854 495.04 595.409 494.88 594.75C494.684 593.967 495.165 593.184 495.93 592.989L501.41 591.619C502.193 591.423 502.976 591.903 503.172 592.668C503.368 593.451 502.887 594.234 502.122 594.43L496.642 595.8C496.517 595.836 496.393 595.854 496.286 595.854Z" fill="white"/>
<path d="M490.841 591.299C490.2 591.299 489.595 590.854 489.435 590.195C489.239 589.412 489.72 588.63 490.485 588.434L495.966 587.064C496.748 586.868 497.531 587.348 497.727 588.114C497.923 588.896 497.442 589.679 496.677 589.857L491.551 591.139C491.315 591.198 491.084 591.299 490.841 591.299V591.299Z" fill="white"/>
<path d="M501.766 599.039C501.126 599.039 500.521 598.594 500.361 597.936C500.165 597.153 500.645 596.37 501.41 596.192L506.891 594.822C507.674 594.626 508.457 595.106 508.652 595.871C508.848 596.654 508.368 597.437 507.603 597.633L502.122 599.003C501.998 599.039 501.891 599.039 501.766 599.039Z" fill="white"/>
<path d="M507.247 602.117C506.588 602.117 506.001 601.672 505.841 601.014C505.645 600.231 506.126 599.448 506.891 599.252L512.371 597.882C513.154 597.686 513.937 598.167 514.133 598.932C514.329 599.715 513.848 600.498 513.083 600.676L507.958 601.957C507.722 602.016 507.49 602.117 507.247 602.117V602.117Z" fill="white"/>
<path d="M513.243 604.946C512.603 604.946 511.998 604.501 511.837 603.843C511.642 603.06 512.122 602.277 512.887 602.099L518.368 600.729C519.151 600.533 519.934 601.014 520.129 601.779C520.325 602.562 519.845 603.345 519.079 603.54L513.599 604.911C513.474 604.928 513.35 604.946 513.243 604.946Z" fill="white"/>
<path d="M519.72 607.366C519.079 607.366 518.474 606.921 518.314 606.263C518.119 605.48 518.599 604.697 519.364 604.501L524.845 603.131C525.627 602.935 526.41 603.416 526.606 604.181C526.802 604.964 526.321 605.747 525.556 605.925L520.431 607.206C520.194 607.265 519.963 607.366 519.72 607.366V607.366Z" fill="white"/>
<path d="M234.192 297.216C227.082 299.087 221.323 305.834 228.077 308.742V308.742C229.098 309.182 231.666 309.697 232.777 309.734L319.992 312.648C326.678 312.871 334.836 311.483 335.709 304.85C335.735 304.647 335.757 304.44 335.773 304.229C335.922 302.302 334.845 300.863 333.084 300.066C323.624 295.788 288.53 282.921 234.192 297.216Z" fill="#084FC7"/>
<path d="M330.222 308.295C331.024 323.613 323.121 338.645 308.37 342.852C285.441 349.39 263.378 347.986 247.561 345.165C234.123 342.769 227.642 328.635 230.217 315.23V315.23V315.23C232.512 303.206 242.306 293.713 254.539 293.269C276.043 292.488 303.971 292.107 321.568 294.306C326.484 294.921 329.91 299.191 330.004 304.145V304.145L330.222 308.295Z" fill="#EA9B7A"/>
<path d="M293.545 319.785C293.171 322.437 291.961 324.465 290.876 324.305C289.773 324.145 289.203 321.867 289.577 319.216C289.951 316.565 291.161 314.536 292.246 314.696C293.349 314.857 293.919 317.134 293.545 319.785Z" fill="#D96C63"/>
<path d="M329.893 299.229C329.943 301.878 327.734 304.005 325.087 303.882C305.251 302.958 273.111 303.156 243.877 310.91C237.783 312.526 231.911 305.598 232.71 299.344V299.344C233.213 295.405 236.224 294.054 240.191 293.861C263.504 292.727 305.718 291.355 326.398 295.01C328.437 295.37 329.854 297.158 329.893 299.229V299.229Z" fill="#D96C63"/>
<path d="M354.417 263.451C354.203 264.091 353.954 264.678 353.67 265.23C353.563 265.444 353.456 265.657 353.349 265.853C350.591 270.96 346.339 275.39 342.762 278.54C342.015 279.198 341.303 279.785 340.645 280.319C339.328 281.387 338.207 282.223 337.442 282.775C336.954 283.116 336.609 283.349 336.439 283.461C336.366 283.51 336.328 283.589 336.309 283.675V283.675C336.306 283.688 336.302 283.706 336.301 283.719C336.266 284.088 336.231 284.49 336.196 284.91C336.072 286.529 335.965 288.451 335.894 290.657C335.823 292.419 335.769 294.358 335.734 296.458V296.458C335.707 298.744 333.332 300.279 331.17 299.536C303.261 289.943 254.301 295.602 228.775 299.575C225.817 300.035 223.296 297.389 223.847 294.447V294.447C225.555 285.248 226.516 276.974 226.89 269.554C227.459 258.522 226.499 241.938 224.15 224.803C224.007 223.682 223.847 222.579 223.687 221.475C223.58 220.746 223.474 220.034 223.349 219.305C222.531 213.931 221.57 208.539 220.484 203.308C215.733 180.497 219.061 156.564 242.193 153.735C243.865 153.522 245.52 153.344 247.139 153.166C258.029 152.009 266.997 151.6 269.488 151.511V151.511C269.948 151.493 270.406 151.558 270.849 151.687L314.88 164.482L319.132 165.71C321.57 166.493 323.83 167.258 325.929 168.006C326.819 168.326 327.691 168.646 328.509 168.949C330.68 169.767 332.638 170.55 334.435 171.351C338.011 172.934 340.84 174.482 343.082 176.066C352.887 183.023 351.374 190.888 351.125 206.422C351.125 206.493 351.125 206.564 351.125 206.636C351.125 206.831 351.125 207.027 351.125 207.241C351.125 207.329 351.125 207.418 351.125 207.507C351.125 208.148 351.125 208.771 351.125 209.411C351.143 211.422 351.214 213.415 351.339 215.408C351.499 218.344 351.766 221.262 352.086 224.109C352.211 225.248 352.335 226.386 352.478 227.525C352.602 228.593 352.744 229.643 352.887 230.693C354.631 244.287 356.855 256.209 354.417 263.451Z" fill="#0875F7"/>
<path d="M350.512 206.714C350.832 206.599 351.107 206.9 351.107 207.24V207.24C351.107 207.329 351.107 207.418 351.107 207.507V207.507C351.107 208.692 350.498 209.793 349.494 210.423L341.712 215.301C341.428 215.479 341.107 215.532 340.787 215.479C340.431 215.426 340.111 215.212 339.897 214.892C339.506 214.269 339.702 213.468 340.307 213.077L350.271 206.831C350.347 206.782 350.428 206.744 350.512 206.714Z" fill="#084FC7"/>
<path d="M289.186 256.956C288.83 256.956 288.474 256.814 288.207 256.529C287.726 255.995 287.762 255.159 288.296 254.678L297.033 246.813C297.566 246.333 298.403 246.369 298.883 246.902C299.363 247.436 299.328 248.273 298.794 248.753L290.057 256.618C289.808 256.831 289.488 256.956 289.186 256.956Z" fill="#084FC7"/>
<path d="M352.76 230.016C352.817 230.439 352.662 230.863 352.345 231.149L346.873 236.084C346.623 236.315 346.303 236.422 346.001 236.422C345.645 236.422 345.289 236.28 345.022 235.995C344.542 235.461 344.577 234.625 345.111 234.144L350.589 229.212C351.367 228.511 352.62 228.978 352.76 230.016V230.016Z" fill="#084FC7"/>
<path d="M271.463 225.319C271.267 225.016 271.178 224.642 271.267 224.269C271.427 223.557 272.139 223.13 272.851 223.29L284.292 225.995C285.004 226.155 285.431 226.867 285.271 227.578C285.111 228.29 284.399 228.717 283.687 228.557L272.246 225.852C271.908 225.781 271.641 225.586 271.463 225.319Z" fill="#084FC7"/>
<path d="M230.627 247.775C230.271 247.775 229.915 247.632 229.648 247.348C229.168 246.814 229.203 245.977 229.737 245.497L238.474 237.632C239.007 237.152 239.844 237.187 240.324 237.721C240.805 238.255 240.769 239.091 240.235 239.572L231.499 247.437C231.249 247.668 230.947 247.775 230.627 247.775Z" fill="#084FC7"/>
<path d="M332.335 245.906C332.442 245.568 332.709 245.265 333.047 245.123C333.705 244.838 334.488 245.141 334.773 245.799L339.47 256.582C339.755 257.241 339.453 258.023 338.794 258.308C338.136 258.593 337.353 258.29 337.068 257.632L332.371 246.849C332.246 246.529 332.246 246.191 332.335 245.906Z" fill="#084FC7"/>
<path d="M352.574 262.871C353.587 263.189 354.157 264.287 353.67 265.23V265.23V265.23C353.488 265.594 353.07 265.765 352.681 265.642L346.961 263.842C346.641 263.735 346.392 263.522 346.232 263.255C346.054 262.952 345.983 262.561 346.107 262.205C346.321 261.511 347.068 261.137 347.744 261.351L352.574 262.871Z" fill="#084FC7"/>
<path d="M318.331 264.394C318.687 264.358 319.061 264.465 319.346 264.732C319.88 265.212 319.915 266.049 319.435 266.582L311.534 275.283C311.054 275.817 310.218 275.853 309.684 275.372C309.15 274.892 309.114 274.056 309.595 273.522L317.495 264.821C317.727 264.572 318.029 264.429 318.331 264.394Z" fill="#084FC7"/>
<path d="M313.687 244.322C313.331 244.269 313.011 244.055 312.798 243.735C312.406 243.13 312.602 242.312 313.207 241.92L323.171 235.675C323.776 235.283 324.595 235.479 324.986 236.084C325.378 236.689 325.182 237.507 324.577 237.899L314.613 244.144C314.328 244.322 313.99 244.376 313.687 244.322Z" fill="#084FC7"/>
<path d="M320.04 206.458C320.271 206.725 320.413 207.08 320.36 207.472C320.289 208.184 319.63 208.717 318.919 208.628L307.228 207.347C306.517 207.276 305.983 206.618 306.072 205.906C306.143 205.194 306.801 204.66 307.513 204.749L319.203 206.031C319.524 206.066 319.826 206.226 320.04 206.458Z" fill="#084FC7"/>
<path d="M303.047 181.102C303.136 180.746 303.367 180.443 303.705 180.265C304.346 179.927 305.146 180.159 305.484 180.799L311.054 191.155C311.392 191.796 311.161 192.596 310.52 192.934C309.88 193.273 309.079 193.041 308.741 192.401L303.171 182.045C302.993 181.742 302.958 181.404 303.047 181.102Z" fill="#084FC7"/>
<path d="M342.445 277.687C342.646 278.21 342.464 278.837 342.037 279.2V279.2C341.345 279.787 340.325 279.474 339.995 278.629L339.132 276.422C339.008 276.102 339.008 275.782 339.132 275.479C339.257 275.141 339.524 274.856 339.88 274.714C340.556 274.447 341.321 274.785 341.588 275.461L342.445 277.687Z" fill="#084FC7"/>
<path d="M235.306 258.629C235.128 258.308 235.093 257.935 235.235 257.561C235.484 256.885 236.232 256.529 236.908 256.778L247.975 260.764C248.652 261.013 249.007 261.76 248.758 262.436C248.509 263.113 247.762 263.469 247.086 263.219L236.018 259.234C235.698 259.145 235.449 258.913 235.306 258.629Z" fill="#084FC7"/>
<path d="M240.716 273.593C241.072 273.593 241.427 273.753 241.694 274.038C242.175 274.572 242.121 275.408 241.588 275.888L232.78 283.682C232.246 284.162 231.41 284.109 230.929 283.575C230.449 283.041 230.502 282.205 231.036 281.725L239.844 273.931C240.093 273.7 240.413 273.593 240.716 273.593Z" fill="#084FC7"/>
<path d="M256.677 285.96C256.89 286.244 257.015 286.618 256.943 286.992C256.819 287.703 256.143 288.184 255.431 288.059L243.847 286.084C243.136 285.96 242.655 285.283 242.78 284.572C242.904 283.86 243.58 283.379 244.292 283.504L255.876 285.479C256.196 285.532 256.481 285.71 256.677 285.96Z" fill="#084FC7"/>
<path d="M266.374 175.888C266.285 175.55 266.321 175.159 266.534 174.838C266.926 174.233 267.744 174.055 268.349 174.447L278.225 180.817C278.83 181.209 279.008 182.027 278.616 182.632C278.225 183.237 277.406 183.415 276.801 183.023L266.926 176.653C266.641 176.458 266.445 176.191 266.374 175.888Z" fill="#084FC7"/>
<path d="M333.776 183.397C334.097 183.219 334.47 183.183 334.844 183.308C335.52 183.557 335.876 184.304 335.645 184.981L331.712 196.066C331.463 196.742 330.716 197.098 330.04 196.867C329.364 196.618 329.008 195.87 329.239 195.194L333.171 184.109C333.278 183.806 333.509 183.557 333.776 183.397Z" fill="#084FC7"/>
<path d="M326.818 168.345C327.667 168.641 327.937 169.679 327.384 170.389L322.424 176.76C321.979 177.329 321.161 177.436 320.591 176.991C320.022 176.546 319.915 175.728 320.36 175.159L325.334 168.781C325.681 168.337 326.285 168.159 326.818 168.345V168.345Z" fill="#084FC7"/>
<path d="M269.114 276.493C269.239 276.867 269.559 277.134 269.915 277.205C270.093 277.241 270.289 277.241 270.467 277.169C270.662 277.098 289.684 270.942 309.684 279.234C319.289 283.22 327.892 284.869 334.983 284.917C335.673 284.922 336.241 284.387 336.303 283.7V283.7V283.7C336.303 283.61 336.366 283.528 336.441 283.478C336.451 283.471 336.462 283.464 336.473 283.456C336.756 283.268 336.609 282.826 336.27 282.833C329.264 282.976 320.489 281.384 310.502 277.258C289.737 268.646 270.591 274.874 269.79 275.141C269.239 275.337 268.936 275.942 269.114 276.493Z" fill="#084FC7"/>
<path d="M295.016 158.721C304.907 161.592 307.003 172.743 296.73 172.009V172.009C282.747 170.992 273.392 158.03 269.814 152.079C269.665 151.83 269.888 151.512 270.177 151.511V151.511C270.214 151.511 270.2 151.516 270.234 151.526L295.016 158.721Z" fill="#084FC7"/>
<path d="M299.524 190.034C299.951 190.123 300.378 190.177 300.805 190.212C304.791 190.532 308.029 189.376 310.413 186.778C317.353 179.198 314.506 161.902 314.381 161.173C314.275 160.586 313.723 160.194 313.154 160.301C312.566 160.408 312.175 160.959 312.282 161.529C312.317 161.707 315.075 178.522 308.848 185.337C306.908 187.454 304.328 188.362 301.001 188.095C287.015 186.974 271.339 151.44 271.178 151.084C270.947 150.55 270.306 150.301 269.773 150.532C269.239 150.764 268.99 151.404 269.221 151.938C269.826 153.415 284.702 187.027 299.524 190.034Z" fill="white"/>
<path d="M350.038 184.777C348.383 180.03 342.763 182.384 343.256 187.386C343.912 194.037 345.48 201.455 348.037 208.216C348.702 209.972 351.082 209.385 351.107 207.507V207.507C351.107 207.418 351.107 207.329 351.107 207.241C351.107 206.974 351.125 206.707 351.125 206.44C351.269 196.814 351.904 190.127 350.038 184.777Z" fill="#EA9B7A"/>
<path d="M260.858 194.109C256.153 212.277 239.956 227.144 227.42 225.626C225.36 225.376 224.003 223.547 223.705 221.493V221.493C223.598 220.764 223.491 220.052 223.367 219.322C222.548 213.949 221.587 208.557 220.502 203.326C215.751 180.514 219.096 156.582 242.21 153.753V153.753C245.448 153.339 248.824 153.727 251.519 155.568C260.588 161.765 265.987 174.336 260.858 194.109Z" fill="#EA9B7A"/>
<path d="M263.492 179.02L291.583 281.768C292.054 283.49 289.867 284.658 288.697 283.31V283.31C287.48 281.906 289.327 279.397 291.097 279.96C292.815 280.507 294.606 280.989 296.463 281.404C301.534 282.543 307.086 283.202 312.869 283.504C318.67 283.807 324.702 283.753 330.876 283.504C337.05 283.255 343.367 282.792 349.773 282.241H349.808C359.257 281.44 367.567 288.433 368.367 297.881C369.132 306.885 362.744 314.874 353.954 316.298C347.353 317.348 340.627 318.344 333.741 319.145C326.855 319.945 319.791 320.533 312.46 320.711C305.146 320.871 297.566 320.604 289.737 319.465C281.926 318.326 273.812 316.298 265.876 312.864C260.805 310.675 257.193 306.511 255.556 301.654L255.182 300.515L219.132 192.472C215.075 180.337 221.641 167.205 233.776 163.148C245.911 159.091 259.043 165.657 263.1 177.792C263.26 178.183 263.385 178.646 263.492 179.02Z" fill="#EA9B7A"/>
<path d="M276.943 285.372C276.641 285.372 276.338 285.212 276.178 284.928C275.929 284.501 276.089 283.967 276.516 283.718C276.801 283.558 283.367 279.856 290.235 279.323C290.734 279.287 291.161 279.643 291.196 280.141C291.232 280.639 290.876 281.066 290.378 281.102C284.866 281.527 279.355 284.233 277.823 285.039C277.541 285.188 277.262 285.372 276.943 285.372V285.372Z" fill="#D96C63"/>
<path d="M287.869 281.404C287.709 281.404 287.549 281.369 287.406 281.28C283.26 278.771 278.242 278.379 278.189 278.379C277.691 278.344 277.335 277.917 277.371 277.436C277.406 276.938 277.815 276.582 278.314 276.618C278.527 276.636 283.812 277.027 288.314 279.767C288.741 280.016 288.865 280.568 288.616 280.995C288.456 281.244 288.154 281.404 287.869 281.404Z" fill="#D96C63"/>
<path d="M314.648 223.504C327.94 226.191 333.759 212.454 333.812 212.312C334.043 211.76 333.776 211.137 333.225 210.924C332.673 210.693 332.05 210.959 331.837 211.511C331.623 212.027 326.606 223.753 315.075 221.422C302.958 218.967 280.36 195.141 280.146 194.892C279.737 194.465 279.061 194.447 278.634 194.856C278.207 195.265 278.189 195.942 278.598 196.369C279.524 197.347 301.89 220.906 314.648 223.504Z" fill="#084FC7"/>
<path d="M299.005 139.192C295.434 137.98 291.848 136.677 288.348 135.273C281.61 132.57 270.488 126.021 266.41 111.422C260.68 90.9235 265.093 80.2829 271.054 69.2153C275.538 60.8701 289.773 49.6067 309.719 53.6459C329.862 57.7206 344.933 68.0765 347.157 84.6424C351.077 113.951 328.939 149.352 299.005 139.192Z" fill="#39393B"/>
<path d="M267.406 114.749C267.015 114.749 266.641 114.553 266.445 114.18C266.054 113.504 257.086 97.3648 264.541 76.1192C269.203 62.8451 278.367 56.9198 285.253 54.2686C292.691 51.4038 298.936 51.6885 299.203 51.6885C299.808 51.7241 300.289 52.2401 300.253 52.8629C300.218 53.4678 299.719 53.9483 299.097 53.9127C299.043 53.9127 292.976 53.6636 285.965 56.3682C276.641 59.9803 270.146 66.8665 266.641 76.8487C259.541 97.0979 268.296 112.916 268.385 113.077C268.687 113.61 268.509 114.287 267.976 114.589C267.78 114.696 267.602 114.749 267.406 114.749Z" fill="#FAAF3A"/>
<path d="M334.202 121.43C334.797 117.357 337.097 112.123 341.059 113.239C342.26 113.576 343.329 114.601 343.901 116.867C344.789 120.385 344.035 125.229 342.102 128.841C338.785 135.038 333.186 128.385 334.202 121.43V121.43Z" fill="#D96C63"/>
<path d="M328.678 129.097C328.489 128.716 328.048 128.528 327.655 128.69C324.496 129.989 321.802 132.888 321.072 136.422C319.933 142.08 323.598 147.596 329.239 148.753C334.897 149.892 340.413 146.226 341.57 140.586C342.424 136.351 340.591 132.187 337.228 129.892C336.111 129.111 334.816 128.56 333.397 128.275C333.389 128.273 333.381 128.273 333.373 128.272V128.272C333.316 128.266 333.267 128.293 333.254 128.348C333.14 128.811 333.144 129.212 333.288 129.557C333.416 129.863 333.734 130.022 334.049 130.125C334.997 130.435 335.865 130.897 336.641 131.475C339.257 133.468 340.663 136.831 339.969 140.265C339.008 145.034 334.328 148.13 329.559 147.169C324.791 146.208 321.695 141.529 322.655 136.76C323.29 133.665 325.398 131.377 328.131 130.363C328.644 130.173 328.92 129.586 328.678 129.097V129.097Z" fill="#FAAF3A"/>
<path d="M300.712 142.009C307.681 145.275 313.091 152.517 311.878 160.117V160.117C311.435 162.899 310.146 165.567 307.578 166.725C302.812 168.876 293.423 170.332 279.919 159.787C275.915 156.66 276.379 150.38 278.456 145.744C279.864 142.601 280.73 139.083 281.095 135.76C281.38 133.165 284.208 131.591 286.143 133.344V133.344C286.73 133.878 287.495 134.287 288.225 134.803C291.642 137.118 296.008 139.804 300.712 142.009Z" fill="#EA9B7A"/>
<path d="M310.304 145.502C312.353 146.004 313.822 147.938 313.49 150.022V150.022C313.105 152.443 310.529 153.842 308.348 152.722C301.483 149.196 292.636 143.488 287.44 135.511C287.101 134.991 287.718 134.426 288.225 134.785V134.785C293.9 138.645 302.194 143.516 310.304 145.502Z" fill="#39393B"/>
<path d="M341.855 110.71C341.463 112.632 341.107 114.465 340.734 116.208C340.342 118.095 339.969 119.874 339.595 121.547C336.837 134.127 334.577 140.87 330.912 143.397C312.353 156.155 282.157 130.319 281.178 129.482V129.482C281.17 129.474 281.16 129.451 281.16 129.44C281.143 127.971 281.143 126.503 281.161 125.07C281.368 114.1 283.061 104.131 285.792 94.8672C286.422 92.7307 286.88 90.5436 287.487 88.4006C290.191 78.8552 298.163 71.5031 308.136 69.9983C319.63 68.2724 328.278 74.9272 333.687 77.8631C341.855 82.3115 345.058 94.6781 341.855 110.71Z" fill="#EA9B7A"/>
<path d="M287.17 81.2092C287.263 80.5497 287.569 79.965 287.909 79.3927C290.485 75.0682 303.305 56.0437 326.321 62.2402C352.228 69.2153 353.599 81.2438 354.061 87.2581C354.21 89.1882 352.881 89.4012 351.008 88.8003C346.165 87.2467 339.509 94.1184 335.538 90.9414V90.9414V90.9414C327.976 84.8727 316.872 83.2401 307.773 86.5924C303.311 88.2366 298.332 89.0155 293.438 87.6495C287.351 85.9622 286.944 82.7979 287.17 81.2092Z" fill="#39393B"/>
<path d="M319.239 135.212C315.876 135.212 313.563 132.881 313.456 132.757C313.1 132.383 313.1 131.796 313.474 131.44C313.848 131.084 314.417 131.084 314.773 131.458C314.897 131.582 317.566 134.233 321.09 133.024C321.57 132.863 322.104 133.113 322.264 133.593C322.424 134.073 322.175 134.607 321.695 134.767C320.84 135.088 320.022 135.212 319.239 135.212Z" fill="#D96C63"/>
<path d="M314.795 128.046C311.22 125.087 313.146 120.63 317.656 121.724V121.724C322.613 122.925 328.051 129.641 323.007 130.396C321.575 130.61 319.906 130.479 317.976 129.803C316.673 129.346 315.63 128.737 314.795 128.046Z" fill="white"/>
<path d="M335.432 94.3234C334.942 94.152 334.42 94.028 333.905 94.0964C332.983 94.219 331.612 94.7531 331.961 96.8846V96.8846C332.95 102.719 341.337 96.4737 335.777 94.4464C335.664 94.4051 335.549 94.3641 335.432 94.3234Z" fill="#39393B"/>
<path d="M319.718 91.1113C320.068 91.1365 320.425 91.201 320.738 91.3593C321.538 91.7647 322.927 92.8081 321.659 94.8025V94.8025C319.211 98.6527 314.542 90.8468 319.099 91.0734C319.302 91.0835 319.508 91.0961 319.718 91.1113Z" fill="#39393B"/>
<path d="M314.63 113.699C314.328 115.176 311.036 115.763 307.246 114.998C303.474 114.233 300.662 112.418 300.965 110.924C301.267 109.447 304.559 108.86 308.349 109.625C312.122 110.39 314.933 112.223 314.63 113.699Z" fill="#D96C63"/>
<path d="M351.499 114.678L342.68 113.169C341.988 113.051 341.31 113.53 341.161 114.216V114.216V114.216C341.134 114.325 341.201 114.448 341.312 114.467L351.25 116.155C351.659 116.226 352.05 115.942 352.122 115.532C352.193 115.141 351.926 114.749 351.499 114.678Z" fill="white"/>
<path d="M324.559 106.066C324.559 105.55 324.541 105.034 324.47 104.536C324.132 101.795 322.922 99.2687 321.072 97.3114C319.377 95.5286 317.175 94.2185 314.621 93.6419C314.58 93.6327 314.54 93.619 314.499 93.6107V93.6107C314.455 93.602 314.412 93.5879 314.369 93.5792C308.484 92.4056 302.7 95.4983 300.307 100.746C300.093 101.208 299.915 101.671 299.755 102.151C299.613 102.578 299.506 103.023 299.399 103.468C298.723 106.778 299.381 110.052 301.036 112.721C301.605 113.628 302.282 114.464 303.047 115.194C304.719 116.813 306.837 117.988 309.275 118.486C313.385 119.34 317.424 118.094 320.324 115.497C322.278 113.756 323.717 111.378 324.289 108.628C324.291 108.616 324.292 108.604 324.292 108.593V108.593C324.292 108.581 324.294 108.569 324.296 108.557C324.472 107.727 324.559 106.896 324.559 106.066ZM309.595 117.009C309.524 116.991 309.47 116.991 309.417 116.973C306.232 116.262 303.652 114.233 302.139 111.582C300.84 109.287 300.324 106.546 300.894 103.771C301.018 103.201 301.178 102.65 301.374 102.116V102.116C301.408 102.049 301.424 101.973 301.451 101.903C303.06 97.8507 306.892 95.1029 311.196 94.8559C312.157 94.8025 313.136 94.8559 314.132 95.0694C316.267 95.5143 318.118 96.5285 319.595 97.9342C322.3 100.514 323.652 104.393 322.851 108.308C321.57 114.358 315.645 118.272 309.595 117.009Z" fill="white"/>
<path d="M347.175 100.87C346.837 100.692 346.481 100.532 346.107 100.372C345.68 100.194 345.236 100.052 344.791 99.9094C344.47 99.8204 344.168 99.7315 343.83 99.6781C343.225 99.5535 342.638 99.4824 342.05 99.4468C341.339 99.3934 340.627 99.4112 339.933 99.5002C337.993 99.7137 336.161 100.354 334.542 101.368C332.762 102.472 331.25 104.02 330.218 105.888C329.933 106.368 329.702 106.867 329.488 107.365C329.47 107.401 329.47 107.418 329.453 107.454C329.186 108.13 328.972 108.842 328.812 109.571C327.798 114.482 329.773 119.322 333.492 122.205C334.702 123.148 336.09 123.877 337.62 124.322C337.851 124.393 338.082 124.465 338.332 124.5C338.456 124.536 338.563 124.554 338.687 124.589C339.915 124.838 341.143 124.909 342.335 124.803C342.531 124.785 342.727 124.767 342.905 124.749C343.421 124.678 343.937 124.589 344.453 124.447C345.396 124.198 346.321 123.842 347.175 123.397C350.431 121.689 352.922 118.593 353.723 114.714C354.88 109.02 352.05 103.433 347.175 100.87ZM352.228 114.393C352.175 114.643 352.122 114.874 352.05 115.105C351.962 115.443 351.855 115.764 351.73 116.102C350.841 118.468 349.203 120.39 347.139 121.653C346.392 122.116 345.574 122.49 344.72 122.774C344.186 122.952 343.652 123.077 343.082 123.166C342.922 123.201 342.762 123.219 342.602 123.237C341.428 123.379 340.2 123.344 338.972 123.095C338.865 123.077 338.741 123.041 338.634 123.023C338.563 123.006 338.492 122.988 338.438 122.97C336.641 122.507 335.04 121.618 333.741 120.425C333.545 120.248 333.367 120.07 333.189 119.892C330.716 117.329 329.506 113.61 330.271 109.856C330.449 109.02 330.716 108.201 331.054 107.454C332.175 104.998 334.132 103.094 336.499 101.973C337.958 101.28 339.577 100.906 341.25 100.906C341.517 100.906 341.784 100.924 342.068 100.941C342.549 100.977 343.029 101.048 343.51 101.137C343.865 101.208 344.204 101.297 344.542 101.404C345.004 101.546 345.449 101.724 345.894 101.92C346.232 102.08 346.57 102.258 346.908 102.436C350.947 104.803 353.225 109.554 352.228 114.393Z" fill="white"/>
<path d="M284.221 103.041C284.132 103.023 284.043 102.987 283.972 102.934C283.616 102.703 283.527 102.24 283.741 101.902C288.794 94.0017 300.947 101.101 301.054 101.173C301.41 101.386 301.534 101.849 301.321 102.205C301.107 102.56 300.645 102.685 300.289 102.471C300.182 102.4 289.275 96.048 285.004 102.721C284.844 102.97 284.524 103.094 284.221 103.041Z" fill="white"/>
<path d="M330.022 107.792C329.826 107.756 329.666 107.632 329.542 107.472C328.514 105.891 326.749 105.765 325.586 105.883C324.812 105.963 323.728 106.363 323.492 105.621V105.621C323.367 105.23 323.581 104.803 323.972 104.678C325.556 104.144 329.026 103.877 330.823 106.653C331.054 107.009 330.947 107.472 330.591 107.685C330.413 107.792 330.218 107.828 330.022 107.792Z" fill="white"/>
<g opacity="0.8">
<g opacity="0.8">
<g opacity="0.8">
<g opacity="0.8">
<g opacity="0.8">
<g opacity="0.8">
<g opacity="0.8">
<path opacity="0.8" d="M337.99 115.986C339.494 115.965 340.465 117.512 340.152 118.984V118.984C339.843 120.435 338.392 121.29 337.033 120.694C335.016 119.808 333.765 118.636 333.972 117.614C334.191 116.611 335.794 116.017 337.99 115.986Z" fill="#D96C63"/>
</g>
</g>
</g>
</g>
</g>
</g>
</g>
<path d="M317.282 106.244C316.872 108.29 315.609 109.749 314.47 109.518C313.331 109.287 312.744 107.454 313.154 105.408C313.563 103.361 314.826 101.902 315.965 102.133C317.104 102.365 317.691 104.198 317.282 106.244Z" fill="#39393B"/>
<path d="M337.46 110.336C337.05 112.383 335.787 113.842 334.648 113.61C333.509 113.379 332.922 111.546 333.332 109.5C333.741 107.454 335.004 105.995 336.143 106.226C337.282 106.457 337.869 108.29 337.46 110.336Z" fill="#39393B"/>
<path d="M327.033 115.817C328.011 116.012 328.705 115.977 328.759 115.977C328.99 115.959 329.221 115.852 329.381 115.674C329.542 115.496 329.595 115.247 329.577 115.016L328.278 105.496C328.207 105.034 327.78 104.696 327.317 104.767C326.855 104.838 326.517 105.265 326.588 105.728L327.253 110.61C327.499 112.415 325.854 113.938 324.453 112.774V112.774C324.097 112.471 323.545 112.525 323.243 112.881C322.94 113.237 322.993 113.788 323.349 114.091C324.613 115.123 325.983 115.603 327.033 115.817Z" fill="#39393B"/>
<path d="M282.864 124.949C284.484 124.739 285.94 126.715 284.636 127.698C283.566 128.506 282.394 129.171 281.201 129.464C281.198 129.464 281.19 129.459 281.188 129.457V129.457C281.183 129.451 281.178 129.434 281.178 129.426C281.154 128.417 281.155 127.409 281.163 126.411C281.17 125.686 281.814 125.065 282.535 124.988C282.639 124.977 282.749 124.964 282.864 124.949Z" fill="#39393B"/>
<path d="M287.339 114.035C288.18 109.877 287.921 105.262 284.821 102.368C282.364 100.074 278.903 98.6646 274.986 102.418C270.895 106.349 271.742 116.193 275.811 121.537C279.852 126.845 286.016 120.573 287.339 114.035V114.035Z" fill="#EA9B7A"/>
<path d="M274.354 119.168C274.165 118.787 273.724 118.599 273.331 118.761C270.172 120.06 267.478 122.959 266.748 126.493C265.609 132.151 269.274 137.667 274.915 138.824C280.573 139.963 286.089 136.297 287.246 130.657C288.1 126.422 286.267 122.258 282.904 119.963C281.787 119.182 280.492 118.631 279.073 118.346C279.065 118.344 279.057 118.344 279.049 118.343V118.343C278.992 118.337 278.943 118.364 278.93 118.419C278.819 118.875 278.829 119.271 278.965 119.611C279.092 119.927 279.416 120.094 279.738 120.2C280.681 120.511 281.544 120.971 282.317 121.546C284.933 123.539 286.339 126.902 285.645 130.337C284.684 135.105 280.004 138.201 275.235 137.24C270.467 136.28 267.371 131.6 268.331 126.831C268.95 123.736 271.07 121.448 273.807 120.434C274.32 120.244 274.596 119.658 274.354 119.168V119.168Z" fill="#FAAF3A"/>
<path d="M284.667 120.989C284.725 121.008 284.783 121.031 284.844 121.031V121.031C285.307 121.066 285.734 120.728 285.769 120.248C286.641 110.728 279.452 105.906 279.15 105.71C278.758 105.443 278.225 105.568 277.958 105.959C277.691 106.351 277.815 106.885 278.207 107.152C278.474 107.329 284.844 111.636 284.061 120.105C284.044 120.501 284.303 120.866 284.667 120.989Z" fill="#39393B"/>
<path d="M277.958 114.34C278.136 114.376 278.349 114.358 278.527 114.251C279.381 113.806 281.89 112.81 283.26 113.468C283.687 113.682 284.203 113.504 284.399 113.077C284.613 112.65 284.435 112.134 284.008 111.938C281.623 110.781 278.136 112.543 277.744 112.739C277.317 112.952 277.157 113.468 277.388 113.895C277.495 114.127 277.726 114.287 277.958 114.34Z" fill="#39393B"/>
<path d="M292.637 83.8875C294.771 85.2764 295.663 87.9513 294.804 90.3484C292.473 96.8529 288.179 109.152 287.869 112.329C287.348 117.617 281.087 102.141 285.206 86.4061C286.051 83.1754 289.838 82.0658 292.637 83.8875V83.8875Z" fill="#39393B"/>
<path d="M431.04 528.74C430.416 538.584 422.208 546.121 412.344 546.121V546.121C403.331 546.121 395.556 539.807 393.834 530.96C391.416 518.53 388.199 501.099 386.713 489.145C386.186 484.933 385.711 479.535 385.29 473.617C383.394 446.96 356.51 425.851 329.787 426.149C321.452 426.242 312.111 426.052 301.748 425.444C247.881 422.299 226.929 403.013 220.299 382.507C212.536 358.491 253.456 341.282 278.385 345.23V345.23C331.179 350.301 371.303 359.269 398.777 371.12C405.396 373.967 411.268 376.992 416.428 380.177C423.047 384.252 427.193 396.654 429.702 412.935C435.083 448.097 432.77 501.464 431.04 528.74Z" fill="#39393B"/>
<path d="M400.947 528.541C400.396 528.541 399.915 528.149 399.791 527.597C395.04 504.11 393.456 474.875 392.175 451.387C391.108 431.903 390.111 413.505 387.602 411.298C385.574 409.501 377.157 410.907 366.517 412.668C345.324 416.191 313.296 421.494 277.993 413.291C258.758 408.807 244.612 399.465 235.965 385.515C221.036 361.458 227.851 331.618 227.922 331.316C228.064 330.675 228.705 330.284 229.346 330.444C229.986 330.586 230.378 331.227 230.217 331.867C230.146 332.152 223.58 361.067 237.993 384.287C246.303 397.686 259.951 406.672 278.545 410.996C313.403 419.11 345.147 413.843 366.161 410.355C378.741 408.273 386.339 407.01 389.204 409.537C392.3 412.277 393.172 425.729 394.559 451.263C395.841 474.679 397.424 503.807 402.14 527.135C402.247 527.686 401.959 528.223 401.469 528.442C401.307 528.515 401.125 528.541 400.947 528.541V528.541Z" fill="#585859"/>
<path d="M430.396 529.145H430.378L393.794 528.362C393.136 528.344 392.62 527.811 392.638 527.152C392.656 526.494 393.189 525.978 393.848 525.996L430.431 526.779C431.09 526.796 431.606 527.33 431.588 527.989C431.552 528.647 431.036 529.145 430.396 529.145Z" fill="#585859"/>
<path d="M428.475 575.547C428.689 582.512 423.101 588.274 416.133 588.274V588.274C410.085 588.274 404.927 583.892 403.948 577.924L401.179 561.032V561.032C399.892 553.221 405.919 546.121 413.835 546.121H414.546C421.802 546.121 427.745 551.883 427.97 559.135L428.029 561.032L428.475 575.547Z" fill="#EA9B7A"/>
<path d="M428.47 575.544C428.686 582.51 423.099 588.274 416.13 588.274V588.274C410.083 588.274 404.926 583.894 403.948 577.926L402.318 567.989V567.989C401.721 564.343 404.534 561.031 408.229 561.031H420.82C424.836 561.031 428.124 564.224 428.243 568.238V568.238L428.47 575.544Z" fill="#FAAF3A"/>
<path d="M428.132 564.511C428.193 566.545 426.549 568.222 424.514 568.202L405.256 568.017C403.558 568.001 402.117 566.765 401.843 565.089V565.089C401.495 562.963 403.136 561.031 405.29 561.031H424.549C426.487 561.031 428.075 562.573 428.132 564.511V564.511Z" fill="#C77E2E"/>
<path d="M486.855 620.053C487.467 623.148 484.266 624.946 481.112 624.946H403.379C400.265 624.946 397.395 623.177 397.175 620.071V620.071C396.624 612.633 398.99 600.783 400.147 593.309C400.289 592.437 400.414 591.619 400.503 590.889C400.663 589.644 400.769 588.594 400.769 587.829V587.829C400.769 582.19 408.333 586.167 413.961 585.826C420.237 585.446 426.345 580.06 430.53 582.413C430.841 582.588 431.125 582.813 431.411 583.027C431.511 583.102 431.628 583.189 431.766 583.292C432.264 583.683 433.012 584.288 434.044 585.16C435.538 586.405 437.638 588.22 440.485 590.783C447.46 597.064 459.311 601.192 469.4 605.409C470.681 605.943 471.873 606.477 472.994 607.028C473.83 607.438 474.631 607.847 475.378 608.238C483.634 612.687 486.25 616.957 486.855 620.053V620.053Z" fill="#0875F7"/>
<path d="M473.709 607.38C474.536 607.78 474.6 608.887 473.854 609.424C471.28 611.282 467.342 613.665 464.061 613.665C463.884 613.665 463.706 613.665 463.528 613.647C460.681 613.416 450.218 608.274 441.695 603.594C436.819 600.907 432.353 598.274 429.15 596.156C423.901 592.687 422.976 591.37 422.78 590.445C422.053 587.146 427.195 584.812 431.159 583.505C431.539 583.379 431.813 583.345 432.125 583.594V583.594C432.887 584.204 432.76 585.536 431.835 585.846C428.678 586.902 426.169 588.201 425.391 589.202C425.091 589.588 425.26 590.099 425.604 590.445C427.163 592.014 432.501 595.768 443.261 601.672C452.745 606.868 461.731 611.05 463.723 611.227C466.224 611.425 469.805 609.34 472.384 607.492C472.764 607.22 473.289 607.176 473.709 607.38V607.38Z" fill="#084FC7"/>
<path d="M486.565 624.109C486.125 625.264 485.418 624.946 484.182 624.946H400.122C399.018 624.946 398.059 624.561 397.741 623.503V623.503C397.235 621.817 398.672 620.071 400.432 620.071H483.819C485.592 620.071 487.196 622.452 486.565 624.109V624.109Z" fill="#084FC7"/>
<path d="M407.585 624.555C407.408 624.803 407.12 624.946 406.815 624.946V624.946C405.984 624.946 405.521 623.952 405.996 623.27C408.039 620.345 409.665 616.282 409.399 610.889C408.99 602.562 404.194 596.853 400.6 593.699C400.321 593.454 400.19 593.045 400.248 592.678V592.678C400.375 591.87 401.315 591.517 401.934 592.051C405.824 595.408 411.024 601.582 411.481 610.783C411.789 616.767 409.911 621.29 407.585 624.555Z" fill="#084FC7"/>
<path d="M439.026 595.978C438.385 595.978 437.78 595.534 437.62 594.875C437.424 594.092 437.905 593.309 438.67 593.114L444.15 591.744C444.933 591.548 445.716 592.028 445.912 592.793C446.108 593.576 445.627 594.359 444.862 594.555L439.382 595.925C439.257 595.961 439.133 595.978 439.026 595.978Z" fill="white"/>
<path d="M433.563 591.405C432.905 591.405 432.318 590.96 432.157 590.302C431.962 589.519 432.442 588.736 433.207 588.541L438.688 587.17C439.471 586.975 440.254 587.455 440.449 588.22C440.645 589.003 440.165 589.786 439.399 589.982L433.919 591.352C433.794 591.388 433.688 591.405 433.563 591.405Z" fill="white"/>
<path d="M444.506 599.163C443.866 599.163 443.261 598.719 443.101 598.06C442.905 597.277 443.385 596.494 444.15 596.317L449.631 594.946C450.414 594.751 451.197 595.231 451.392 595.996C451.588 596.779 451.108 597.562 450.343 597.758L444.862 599.128C444.738 599.146 444.613 599.163 444.506 599.163Z" fill="white"/>
<path d="M449.987 602.224C449.346 602.224 448.741 601.779 448.581 601.121C448.385 600.338 448.866 599.555 449.631 599.377L455.111 598.007C455.894 597.811 456.677 598.292 456.873 599.057C457.069 599.84 456.588 600.623 455.823 600.818L450.343 602.188C450.218 602.206 450.111 602.224 449.987 602.224Z" fill="white"/>
<path d="M455.965 605.053C455.325 605.053 454.72 604.608 454.56 603.95C454.364 603.167 454.844 602.384 455.609 602.206L461.09 600.836C461.873 600.64 462.656 601.121 462.851 601.886C463.047 602.669 462.567 603.452 461.802 603.647L456.321 605.018C456.197 605.053 456.09 605.053 455.965 605.053Z" fill="white"/>
<path d="M462.46 607.473C461.802 607.473 461.214 607.028 461.054 606.37C460.859 605.587 461.339 604.804 462.104 604.608L467.585 603.238C468.368 603.042 469.15 603.523 469.346 604.288C469.542 605.071 469.061 605.854 468.296 606.049L462.816 607.42C462.691 607.455 462.567 607.473 462.46 607.473Z" fill="white"/>
<path d="M550.948 327.704V334.999C550.948 339.198 548.421 342.597 545.289 342.597H151.214C148.082 342.597 145.555 339.198 145.555 334.999V327.704C145.555 323.504 148.082 320.106 151.214 320.106H545.272C548.403 320.106 550.948 323.504 550.948 327.704Z" fill="#21B573"/>
<path d="M549.275 330.017H147.228C146.304 330.017 145.555 330.766 145.555 331.689C145.555 332.613 146.304 333.362 147.228 333.362H549.275C550.199 333.362 550.948 332.613 550.948 331.689C550.948 330.766 550.199 330.017 549.275 330.017Z" fill="#217C58"/>
<path d="M539.097 361.334H168.687C167.032 361.334 165.68 359.981 165.68 358.326V358.326C165.68 349.58 172.77 342.49 181.516 342.49H526.268C535.014 342.49 542.104 349.58 542.104 358.326V358.326C542.104 359.981 540.752 361.334 539.097 361.334Z" fill="#217C58"/>
<path d="M516.001 454.287H197.655C194.088 454.287 191.196 457.179 191.196 460.746C191.196 464.314 194.088 467.206 197.655 467.206H516.001C519.568 467.206 522.46 464.314 522.46 460.746C522.46 457.179 519.568 454.287 516.001 454.287Z" fill="#217C58"/>
<path d="M158.694 627.242C163.753 627.242 168.153 623.777 169.338 618.859L228.185 374.85C229.847 367.962 224.627 361.333 217.541 361.333V361.333C212.483 361.333 208.083 364.799 206.897 369.716L148.05 613.725C146.389 620.613 151.608 627.242 158.694 627.242V627.242Z" fill="#21B573"/>
<path d="M554.528 627.242C549.474 627.242 545.077 623.78 543.892 618.866L485.027 374.85C483.365 367.962 488.585 361.333 495.671 361.333V361.333C500.729 361.333 505.129 364.798 506.314 369.716L565.164 613.735C566.824 620.619 561.608 627.242 554.528 627.242V627.242Z" fill="#21B573"/>
<path d="M189.018 307.953L182.052 262.468C181.758 260.55 179.964 259.232 178.046 259.526C176.127 259.82 174.81 261.614 175.104 263.532L182.07 309.017C182.364 310.936 184.158 312.253 186.076 311.959C187.995 311.665 189.312 309.872 189.018 307.953Z" fill="#FAAF3A"/>
<path d="M179.602 256.041C180.505 257.408 179.688 259.251 178.069 259.5V259.5C176.447 259.749 175.114 258.233 175.569 256.656L176.124 254.732V254.732C176.432 253.649 177.868 253.421 178.491 254.358V254.358L179.602 256.041Z" fill="#EA9B7A"/>
<path d="M187.052 307.903L183.921 308.382C182.867 308.544 182.143 309.529 182.305 310.583C182.466 311.637 183.451 312.36 184.505 312.199L187.636 311.719C188.69 311.558 189.414 310.573 189.252 309.519C189.091 308.465 188.106 307.741 187.052 307.903Z" fill="#39393B"/>
<path d="M189.577 314.501L183.545 315.426C183.296 315.462 183.046 315.284 183.011 315.035V315.035C182.795 313.609 183.774 312.277 185.199 312.059L186.997 311.783C188.421 311.564 189.752 312.543 189.968 313.967V313.967C190.004 314.234 189.826 314.465 189.577 314.501Z" fill="#DF615C"/>
<path d="M177.83 253.362C178.139 253.828 177.863 254.457 177.31 254.545V254.545C176.757 254.632 176.3 254.116 176.452 253.577V253.577C176.631 252.947 177.467 252.816 177.83 253.362V253.362Z" fill="#39393B"/>
<path d="M187.204 305.079L182.982 305.726C182.229 305.841 181.713 306.545 181.828 307.298C181.943 308.051 182.647 308.568 183.4 308.452L187.621 307.806C188.374 307.69 188.891 306.987 188.775 306.234C188.66 305.481 187.956 304.964 187.204 305.079Z" fill="#C77E2E"/>
<path d="M176.712 262.347L182.655 301.173C182.708 301.476 182.975 301.671 183.26 301.618C183.545 301.565 183.758 301.298 183.705 301.013L177.762 262.187C177.708 261.903 177.441 261.689 177.157 261.742C176.872 261.778 176.659 262.063 176.712 262.347Z" fill="#C77E2E"/>
<path d="M179.434 261.938L185.377 300.764C185.431 301.048 185.698 301.262 185.982 301.209C186.285 301.155 186.481 300.888 186.427 300.604L180.484 261.778C180.431 261.493 180.164 261.28 179.879 261.333C179.594 261.369 179.381 261.636 179.434 261.938Z" fill="#C77E2E"/>
<path d="M194.279 308.735L194.128 262.72C194.122 260.78 192.543 259.211 190.602 259.218C188.661 259.224 187.093 260.803 187.1 262.743L187.251 308.758C187.257 310.699 188.836 312.267 190.777 312.261C192.718 312.254 194.286 310.676 194.279 308.735Z" fill="#21B573"/>
<path d="M192.633 256.027C193.325 257.516 192.24 259.22 190.598 259.225V259.225C188.957 259.229 187.864 257.531 188.547 256.039L189.381 254.216V254.216C189.849 253.19 191.307 253.176 191.783 254.198V254.198L192.633 256.027Z" fill="#EA9B7A"/>
<path d="M192.338 308.412L189.171 308.423C188.105 308.426 187.243 309.294 187.247 310.36C187.25 311.426 188.117 312.288 189.184 312.284L192.351 312.274C193.417 312.27 194.279 311.403 194.275 310.337C194.272 309.27 193.404 308.409 192.338 308.412Z" fill="#39393B"/>
<path d="M193.829 315.319L187.726 315.337C187.459 315.337 187.264 315.123 187.264 314.874V314.874C187.264 313.438 188.426 312.273 189.861 312.27L191.694 312.265C193.128 312.261 194.292 313.423 194.292 314.856V314.856C194.292 315.106 194.096 315.319 193.829 315.319Z" fill="#DF615C"/>
<path d="M191.278 253.113C191.514 253.621 191.146 254.203 190.586 254.207V254.207C190.024 254.211 189.648 253.63 189.881 253.119V253.119C190.153 252.521 191.001 252.518 191.278 253.113V253.113Z" fill="#39393B"/>
<path d="M192.874 305.635L188.603 305.649C187.842 305.651 187.226 306.271 187.229 307.032C187.231 307.794 187.851 308.409 188.612 308.407L192.883 308.393C193.644 308.39 194.26 307.771 194.257 307.009C194.255 306.248 193.635 305.632 192.874 305.635Z" fill="#217C58"/>
<path d="M188.829 261.849L188.954 301.12C188.954 301.422 189.203 301.654 189.488 301.654C189.79 301.654 190.022 301.405 190.022 301.12L189.897 261.849C189.897 261.547 189.648 261.315 189.363 261.315C189.078 261.298 188.829 261.547 188.829 261.849Z" fill="#217C58"/>
<path d="M191.587 261.831L191.712 301.102C191.712 301.404 191.961 301.636 192.246 301.636C192.548 301.636 192.78 301.387 192.78 301.102L192.655 261.831C192.655 261.529 192.406 261.297 192.121 261.297C191.836 261.297 191.587 261.529 191.587 261.831Z" fill="#217C58"/>
<path d="M198.807 262.423L192.338 307.982C192.065 309.903 193.401 311.682 195.323 311.955C197.245 312.228 199.024 310.891 199.296 308.97L205.766 263.411C206.039 261.489 204.702 259.71 202.781 259.437C200.859 259.165 199.08 260.501 198.807 262.423Z" fill="#0875F7"/>
<path d="M205.242 256.591C205.712 258.165 204.392 259.697 202.765 259.464V259.464C201.141 259.231 200.303 257.396 201.191 256.016L202.281 254.322V254.322C202.898 253.377 204.343 253.579 204.666 254.66V254.66L205.242 256.591Z" fill="#EA9B7A"/>
<path d="M197.45 308.403L194.314 307.958C193.259 307.808 192.281 308.542 192.131 309.598C191.982 310.653 192.716 311.631 193.771 311.781L196.907 312.226C197.963 312.376 198.94 311.642 199.09 310.586C199.24 309.53 198.506 308.553 197.45 308.403Z" fill="#39393B"/>
<path d="M197.904 315.444L191.872 314.59C191.623 314.554 191.445 314.323 191.481 314.056V314.056C191.687 312.63 193.009 311.641 194.435 311.845L196.231 312.103C197.656 312.307 198.644 313.628 198.438 315.052V315.052C198.385 315.301 198.153 315.479 197.904 315.444Z" fill="#DF615C"/>
<path d="M204.322 253.51C204.483 254.048 204.033 254.571 203.477 254.492V254.492C202.92 254.413 202.634 253.782 202.941 253.311V253.311C203.299 252.762 204.135 252.883 204.322 253.51V253.51Z" fill="#39393B"/>
<path d="M198.374 305.72L194.145 305.119C193.391 305.012 192.693 305.536 192.586 306.29C192.479 307.044 193.003 307.743 193.757 307.85L197.986 308.451C198.74 308.558 199.438 308.033 199.545 307.279C199.652 306.525 199.128 305.827 198.374 305.72Z" fill="#084FC7"/>
<path d="M200.644 261.796L195.128 300.675C195.093 300.978 195.288 301.244 195.591 301.28C195.893 301.316 196.16 301.12 196.196 300.817L201.712 261.938C201.748 261.636 201.552 261.369 201.249 261.333C200.965 261.298 200.698 261.511 200.644 261.796Z" fill="#084FC7"/>
<path d="M203.385 262.188L197.869 301.067C197.833 301.369 198.029 301.636 198.331 301.672C198.634 301.707 198.901 301.511 198.936 301.209L204.452 262.33C204.488 262.027 204.292 261.76 203.99 261.725C203.687 261.689 203.42 261.885 203.385 262.188Z" fill="#084FC7"/>
<path d="M205.673 280.194C207.195 280.194 208.369 281.533 208.171 283.041V283.041L207.833 285.621L207.335 289.536L206.997 292.098L206.498 296.048L206.16 298.575L205.644 302.561L205.324 305.052L204.808 309.073L204.488 311.529L203.972 315.586L203.651 318.006V318.006C203.499 319.206 202.478 320.106 201.268 320.106H177.85C176.64 320.106 175.619 319.206 175.466 318.006V318.006L175.146 315.586L174.63 311.529L174.31 309.073L173.794 305.052L173.473 302.561L172.957 298.575L172.637 296.048L172.121 292.098L171.801 289.536L171.285 285.621L170.947 283.041V283.041C170.758 281.53 171.937 280.194 173.46 280.194H205.673Z" fill="#DF615C"/>
<path d="M206.701 283.041C207.48 283.041 208.081 283.726 207.98 284.499V284.499C207.896 285.141 207.349 285.621 206.701 285.621H172.417C171.769 285.621 171.222 285.141 171.138 284.499V284.499C171.037 283.726 171.638 283.041 172.417 283.041H206.701Z" fill="#B11722"/>
<path d="M205.873 289.536C206.648 289.536 207.245 290.217 207.144 290.985V290.985C207.06 291.622 206.516 292.098 205.873 292.098H173.252C172.606 292.098 172.061 291.617 171.981 290.976V290.976C171.885 290.212 172.482 289.536 173.252 289.536H205.873Z" fill="#B11722"/>
<path d="M205.055 296.049C205.819 296.049 206.408 296.722 206.307 297.48V297.48C206.223 298.107 205.688 298.575 205.055 298.575H174.071C173.434 298.575 172.897 298.102 172.817 297.471V297.471C172.722 296.716 173.31 296.049 174.071 296.049H205.055Z" fill="#B11722"/>
<path d="M204.228 302.561C204.979 302.561 205.56 303.22 205.464 303.965V303.965C205.384 304.587 204.855 305.052 204.228 305.052H174.889C174.263 305.052 173.734 304.587 173.654 303.965V303.965C173.558 303.22 174.138 302.561 174.889 302.561H204.228Z" fill="#B11722"/>
<path d="M203.41 309.073C204.151 309.073 204.723 309.725 204.627 310.46V310.46C204.547 311.071 204.026 311.529 203.41 311.529H175.708C175.091 311.529 174.57 311.071 174.491 310.46V310.46C174.395 309.725 174.967 309.073 175.708 309.073H203.41Z" fill="#B11722"/>
<path d="M202.591 315.586C203.322 315.586 203.887 316.23 203.791 316.955V316.955C203.711 317.556 203.198 318.006 202.591 318.006H176.527C175.92 318.006 175.407 317.556 175.327 316.955V316.955C175.231 316.23 175.795 315.586 176.527 315.586H202.591Z" fill="#B11722"/>
<path d="M548.652 179.091L525.076 278.807L524.453 281.422L522.869 288.131C522.176 291.049 519.595 293.095 516.606 293.095H357.762C353.599 293.095 350.538 289.216 351.499 285.177L377.282 176.12C377.976 173.219 380.556 171.173 383.545 171.173H542.371C546.535 171.173 549.596 175.052 548.652 179.091Z" fill="#39393B"/>
<path d="M523.405 278.789C524.251 278.789 524.877 279.576 524.688 280.4V280.4C524.55 280.999 524.018 281.422 523.405 281.422H360.841C360.113 281.422 359.524 280.833 359.524 280.106V280.106C359.524 279.378 360.113 278.789 360.841 278.789H523.405Z" fill="#585859"/>
<path d="M421.766 195.835C420.449 202.899 413.652 208.629 406.588 208.629C399.524 208.629 394.862 202.899 396.179 195.835C397.495 188.771 404.293 183.041 411.357 183.041C418.439 183.041 423.083 188.771 421.766 195.835Z" fill="#FAAF3A"/>
<path d="M407.318 193.397C407.051 194.803 406.339 195.959 405.734 195.959C405.111 195.959 404.826 194.821 405.093 193.397C405.36 191.991 406.072 190.835 406.677 190.835C407.3 190.835 407.584 191.974 407.318 193.397Z" fill="#39393B"/>
<path d="M413.99 193.397C413.723 194.803 413.012 195.959 412.407 195.959C411.802 195.959 411.499 194.821 411.766 193.397C412.033 191.991 412.745 190.835 413.35 190.835C413.972 190.835 414.257 191.974 413.99 193.397Z" fill="#39393B"/>
<path d="M407.923 202.08C402.424 202.08 402.193 196.582 402.193 196.529C402.175 196.226 402.424 195.924 402.745 195.87C403.065 195.799 403.314 195.995 403.332 196.298C403.332 196.493 403.545 200.977 408.154 200.977C412.745 200.977 414.631 196.493 414.72 196.298C414.844 195.995 415.182 195.817 415.467 195.87V195.87C415.992 196.002 415.65 196.791 415.381 197.261C414.52 198.769 412.182 202.08 407.923 202.08Z" fill="#39393B"/>
<path d="M495.2 255.586V255.586C495.449 267.164 515.185 267.774 520.447 257.458C520.77 256.825 521.015 256.198 521.161 255.586V255.586C523.517 245.698 494.973 245.424 495.2 255.586V255.586Z" fill="#DF615C"/>
<path d="M471.464 236.387C470.698 243.255 464.524 248.806 457.674 248.806C450.823 248.806 445.859 243.237 446.624 236.387C447.389 229.518 453.563 223.967 460.414 223.967C467.282 223.967 472.229 229.536 471.464 236.387Z" fill="#585859"/>
<path d="M389.844 171.171C389.844 171.172 389.844 171.174 389.844 171.175L363.405 288.582C362.811 291.22 360.467 293.095 357.762 293.095V293.095C353.599 293.095 350.538 289.216 351.499 285.177L377.282 176.12C377.976 173.219 380.556 171.155 383.545 171.155H389.828C389.837 171.155 389.844 171.162 389.844 171.171V171.171Z" fill="#585859"/>
<path d="M442.408 293.095C438.609 293.095 435.356 295.82 434.69 299.561L432.658 310.982C431.803 315.786 435.497 320.195 440.376 320.195V320.195C444.176 320.195 447.429 317.47 448.095 313.729L450.127 302.308C450.982 297.504 447.288 293.095 442.408 293.095V293.095Z" fill="white"/>
<path d="M407.211 315.533L410.467 310.96C411.624 309.323 413.51 308.362 415.52 308.362H459.15C461.464 308.362 463.581 309.643 464.649 311.689L466.837 315.889C467.869 317.846 466.446 320.213 464.222 320.213H409.613C407.211 320.195 405.823 317.472 407.211 315.533Z" fill="white"/>
<path d="M318.492 312.543C317.395 316.367 320.266 320.177 324.244 320.177H442.224C445.272 320.177 447.952 318.159 448.795 315.23V315.23C449.684 312.116 447.353 309.02 444.115 309.02H323.171C321.001 309.02 319.097 310.462 318.492 312.543V312.543Z" fill="white"/>
<path d="M488.154 138.611L430.182 138.575C427.94 138.575 426.108 136.742 426.108 134.5L426.125 98.8773C426.125 96.6353 427.958 94.8026 430.2 94.8026L488.172 94.8382C490.414 94.8382 492.247 96.6709 492.247 98.9129L492.229 134.536C492.229 136.796 490.414 138.611 488.154 138.611Z" fill="#DF615C"/>
<path d="M477.576 132.63C481.053 132.344 483.765 135.585 482.872 138.956V138.956C481.677 143.472 475.519 144.085 473.457 139.894V139.894C471.885 136.697 474.026 132.921 477.576 132.63V132.63Z" fill="#DF615C"/>
<path d="M473.83 113.486C473.802 113.666 473.766 113.848 473.723 114.03C470.614 127.258 445.869 126.968 444.488 113.45V113.45V113.45C443.309 102.008 475.624 102.124 473.83 113.486V113.486Z" fill="white"/>
<path d="M589.679 524.42H465.052C462.686 524.42 460.764 522.498 460.764 520.132V518.156C460.764 515.79 462.686 513.868 465.052 513.868H589.679C592.045 513.868 593.967 515.79 593.967 518.156V520.132C593.967 522.498 592.045 524.42 589.679 524.42Z" fill="#39393B"/>
<path d="M466.618 396.982H588.38C590.408 396.982 592.045 398.619 592.045 400.647V415.612C592.045 417.64 590.408 419.277 588.38 419.277H466.618C464.59 419.277 462.952 417.64 462.952 415.612V400.647C462.952 398.619 464.59 396.982 466.618 396.982Z" fill="#585859"/>
<path d="M505.163 271.339C500.965 289.74 481.809 299.78 465.02 291.156C451.179 284.047 436.407 272.917 429.714 256.181C415.39 220.362 467.775 193.494 495.373 212.729C511.708 224.104 509.975 250.244 505.163 271.339Z" fill="#21B573"/>
<path d="M525.906 396.252C525.462 396.252 525.052 395.914 524.981 395.452C520.07 362.178 500.23 314.313 484.483 280.024C467.383 242.836 451.262 213.156 451.102 212.853C450.853 212.408 451.031 211.839 451.476 211.59C451.921 211.341 452.49 211.519 452.739 211.964C452.899 212.266 469.056 241.999 486.191 279.241C502.01 313.654 521.903 361.697 526.85 395.185C526.921 395.701 526.583 396.163 526.067 396.235C525.995 396.235 525.942 396.252 525.906 396.252Z" fill="#39393B"/>
<path d="M493.451 298.672C493.113 298.672 492.793 298.494 492.632 298.192C470.301 256.608 434.038 226.43 433.682 226.127C433.291 225.807 433.237 225.22 433.557 224.828C433.878 224.437 434.465 224.384 434.856 224.704C435.23 225.006 471.76 255.398 494.269 297.32C494.442 297.628 494.41 297.995 494.226 298.275C494.059 298.529 493.754 298.672 493.451 298.672V298.672Z" fill="#39393B"/>
<path d="M494.465 301.661C494.198 301.661 493.949 301.554 493.753 301.341C477.472 282.177 460.782 270.255 449.661 263.636C437.597 256.465 429.287 253.778 429.216 253.761C428.735 253.601 428.451 253.085 428.611 252.586C428.771 252.106 429.287 251.821 429.785 251.981C430.123 252.088 438.344 254.722 450.568 261.999C461.831 268.69 478.718 280.754 495.177 300.131C495.515 300.522 495.462 301.11 495.07 301.448C494.892 301.59 494.661 301.661 494.465 301.661Z" fill="#39393B"/>
<path d="M489.945 290.754C489.554 290.754 489.198 290.505 489.074 290.131C476.547 253.387 481.155 208.743 481.209 208.298C481.262 207.782 481.725 207.426 482.223 207.48C482.739 207.533 483.095 207.996 483.042 208.494C482.988 208.939 478.433 253.192 490.817 289.526C490.977 290.007 490.728 290.54 490.23 290.701C490.141 290.736 490.034 290.754 489.945 290.754Z" fill="#39393B"/>
<path d="M493.095 298.031C492.65 298.031 492.259 297.711 492.187 297.248C488.362 273.992 491.298 255.024 494.447 243.209C497.864 230.38 502.134 223.156 502.312 222.853C502.579 222.408 503.148 222.266 503.593 222.533C504.038 222.8 504.18 223.369 503.913 223.814C503.878 223.885 499.572 231.163 496.227 243.779C493.148 255.398 490.266 274.081 494.02 296.964C494.1 297.408 493.825 297.839 493.411 297.99C493.311 298.026 493.201 298.031 493.095 298.031V298.031Z" fill="#39393B"/>
<path d="M541.568 280.165C544.668 298.787 563.201 309.942 580.474 302.325C594.713 296.046 610.12 285.811 617.793 269.508C634.216 234.597 583.504 204.686 554.821 222.248C537.839 232.638 538.016 258.826 541.568 280.165Z" fill="#21B573"/>
<path d="M529.857 393.209C529.341 393.209 528.914 392.782 528.931 392.266C529.127 375.131 532.864 355.612 540.035 334.259C545.764 317.195 553.665 298.921 563.558 279.953C580.373 247.658 597.312 224.188 597.49 223.956C597.793 223.547 598.38 223.44 598.789 223.743C599.198 224.045 599.305 224.633 599.003 225.042C598.843 225.273 581.974 248.654 565.213 280.825C549.768 310.487 531.262 353.886 530.818 392.284C530.782 392.8 530.373 393.209 529.857 393.209Z" fill="#39393B"/>
<path d="M551.707 308.156C551.547 308.156 551.369 308.12 551.227 308.014C550.782 307.747 550.657 307.177 550.924 306.732C575.871 266.216 614.145 238.031 614.537 237.747C614.946 237.444 615.533 237.533 615.836 237.942C616.138 238.352 616.049 238.939 615.64 239.241C615.266 239.526 577.277 267.498 552.526 307.693C552.33 307.996 552.027 308.156 551.707 308.156Z" fill="#39393B"/>
<path d="M550.515 311.074C550.284 311.074 550.053 310.985 549.875 310.825C549.501 310.469 549.483 309.882 549.839 309.508C567.437 291.127 584.999 280.095 596.636 274.081C609.27 267.551 617.615 265.398 617.971 265.309C618.469 265.184 618.967 265.487 619.092 265.985C619.216 266.483 618.914 266.981 618.416 267.106C618.327 267.124 609.875 269.312 597.419 275.754C585.924 281.697 568.576 292.622 551.173 310.789C551.013 310.967 550.764 311.074 550.515 311.074Z" fill="#39393B"/>
<path d="M555.675 300.451C555.551 300.451 555.444 300.433 555.319 300.38C554.839 300.184 554.625 299.651 554.803 299.17C569.323 263.618 567.383 219.188 567.366 218.743C567.348 218.227 567.739 217.8 568.255 217.764C568.754 217.729 569.198 218.138 569.234 218.654C569.252 219.099 571.209 263.939 556.547 299.882C556.387 300.238 556.049 300.451 555.675 300.451Z" fill="#39393B"/>
<path d="M552.099 307.533C552.028 307.533 551.956 307.533 551.885 307.515C551.387 307.408 551.067 306.91 551.191 306.412C556.316 283.779 554.536 264.971 552.152 253.191C549.554 240.415 545.711 232.889 545.675 232.8C545.444 232.337 545.622 231.785 546.067 231.554C546.529 231.323 547.081 231.501 547.312 231.946C547.472 232.248 551.298 239.721 553.949 252.746C556.387 264.739 558.202 283.85 553.006 306.821C552.917 307.231 552.526 307.533 552.099 307.533Z" fill="#39393B"/>
<path d="M550.055 218.971C539.342 234.509 517.831 236.74 505.428 222.515C495.2 210.784 485.593 194.972 485.568 176.945C485.515 138.369 544.127 132.817 562.65 160.896C573.623 177.516 562.336 201.158 550.055 218.971Z" fill="#21B573"/>
<path d="M523.415 342.729C523.344 342.729 523.273 342.729 523.202 342.711C522.704 342.587 522.401 342.088 522.508 341.59C530.266 308.868 529.572 257.053 527.632 219.366C525.533 178.494 521.529 144.935 521.494 144.615C521.44 144.099 521.796 143.636 522.312 143.583C522.81 143.529 523.291 143.885 523.344 144.401C523.38 144.739 527.383 178.351 529.501 219.277C531.458 257.088 532.134 309.081 524.341 342.017C524.216 342.444 523.842 342.729 523.415 342.729Z" fill="#39393B"/>
<path d="M529.394 240.095C528.931 240.095 528.522 239.739 528.469 239.276C523.131 192.372 500.622 150.913 500.39 150.504C500.141 150.059 500.301 149.49 500.764 149.241C501.209 148.991 501.778 149.152 502.027 149.614C502.259 150.024 524.946 191.803 530.319 239.081C530.369 239.56 530.065 239.993 529.609 240.095C529.539 240.111 529.465 240.095 529.394 240.095V240.095Z" fill="#39393B"/>
<path d="M529.234 243.227C528.842 243.227 528.486 242.978 528.362 242.586C520.337 218.743 509.252 201.501 501.369 191.234C492.828 180.095 486.102 174.543 486.031 174.49C485.639 174.17 485.568 173.582 485.906 173.191C486.227 172.8 486.814 172.728 487.205 173.066C487.49 173.298 494.127 178.778 502.792 190.059C510.782 200.451 521.992 217.889 530.106 241.999C530.266 242.479 530.017 243.013 529.519 243.173C529.43 243.209 529.341 243.227 529.234 243.227Z" fill="#39393B"/>
<path d="M529.074 231.43C529.056 231.43 529.038 231.43 529.02 231.43C528.504 231.412 528.113 230.967 528.148 230.451C530.123 191.696 550.942 151.928 551.138 151.518C551.387 151.056 551.939 150.896 552.401 151.127C552.864 151.358 553.024 151.928 552.793 152.39C552.579 152.782 531.956 192.195 530.017 230.54C529.981 231.038 529.572 231.43 529.074 231.43Z" fill="#39393B"/>
<path d="M529.305 239.348C529.234 239.348 529.181 239.348 529.109 239.33C528.611 239.223 528.291 238.725 528.398 238.227C533.451 215.202 543.238 198.547 550.569 188.618C558.522 177.835 565.177 172.586 565.462 172.372C565.871 172.052 566.458 172.123 566.761 172.533C567.081 172.942 567.01 173.529 566.6 173.832C566.529 173.885 559.821 179.187 552.01 189.775C544.803 199.543 535.177 215.949 530.213 238.618C530.124 239.063 529.732 239.348 529.305 239.348Z" fill="#39393B"/>
<path d="M583.238 337.747L581.707 341.804L580.746 344.384L577.971 351.75L576.992 354.33L574.145 361.91L573.184 364.473L570.699 371.067C564.829 386.649 549.919 396.964 533.268 396.964H521.747C505.097 396.964 490.187 386.649 484.316 371.067L481.832 364.473L480.871 361.91L478.024 354.33L477.045 351.75L474.269 344.384L473.308 341.804L471.778 337.747C470.728 334.953 472.792 331.981 475.764 331.981H579.269C582.223 331.981 584.287 334.953 583.238 337.747Z" fill="#0875F7"/>
<path d="M579.85 341.804C580.75 341.804 581.373 342.701 581.059 343.544V343.544C580.871 344.049 580.389 344.384 579.85 344.384H475.16C474.624 344.384 474.144 344.052 473.954 343.551V343.551C473.633 342.707 474.257 341.804 475.16 341.804H579.85Z" fill="#084FC7"/>
<path d="M576.096 351.75C576.995 351.75 577.619 352.648 577.305 353.49V353.49C577.117 353.995 576.635 354.33 576.096 354.33H478.902C478.363 354.33 477.881 353.995 477.693 353.49V353.49C477.379 352.648 478.003 351.75 478.902 351.75H576.096Z" fill="#084FC7"/>
<path d="M572.279 361.911C573.173 361.911 573.792 362.804 573.478 363.642V363.642C573.291 364.142 572.813 364.473 572.279 364.473H482.719C482.185 364.473 481.707 364.142 481.52 363.642V363.642C481.206 362.804 481.825 361.911 482.719 361.911H572.279Z" fill="#084FC7"/>
<path d="M497.073 419.259C503.288 419.259 507.726 425.279 505.889 431.216V431.216L455.394 593.96C454.725 596.117 452.73 597.587 450.472 597.587V597.587C447.218 597.587 444.778 594.609 445.419 591.418L476.903 434.615L477.798 430.176C479.078 423.826 484.658 419.259 491.135 419.259H497.073Z" fill="#39393B"/>
<path d="M609.881 591.419C610.522 594.609 608.082 597.587 604.828 597.587V597.587C602.57 597.587 600.575 596.117 599.906 593.96L547.899 426.288V426.288C546.813 422.8 549.419 419.259 553.072 419.259H571.491C573.707 419.259 575.614 420.823 576.049 422.996V422.996L609.881 591.419Z" fill="#39393B"/>
<path d="M589.679 501.484H465.052C462.686 501.484 460.764 499.562 460.764 497.195V495.22C460.764 492.854 462.686 490.932 465.052 490.932H589.661C592.028 490.932 593.949 492.854 593.949 495.22V497.195C593.967 499.562 592.045 501.484 589.679 501.484Z" fill="#585859"/>
<path d="M432.703 101.495C459.354 101.495 480.959 80.1606 480.959 53.8435C480.959 27.5264 459.354 6.19214 432.703 6.19214C406.051 6.19214 384.446 27.5264 384.446 53.8435C384.446 80.1606 406.051 101.495 432.703 101.495Z" fill="#CED3E6"/>
<path d="M432.703 95.3027C459.354 95.3027 480.959 73.9685 480.959 47.6514C480.959 21.3342 459.354 0 432.703 0C406.051 0 384.446 21.3342 384.446 47.6514C384.446 73.9685 406.051 95.3027 432.703 95.3027Z" fill="#0875F7"/>
<path d="M432.703 86.3882C454.362 86.3882 471.92 69.0452 471.92 47.6514C471.92 26.2577 454.362 8.91467 432.703 8.91467C411.044 8.91467 393.485 26.2577 393.485 47.6514C393.485 69.0452 411.044 86.3882 432.703 86.3882Z" fill="white"/>
<path d="M471.92 47.6514V47.6514C471.92 47.9656 471.48 47.9788 471.43 47.6687C468.458 29.2033 452.212 15.0357 432.685 15.0357C413.157 15.0357 396.928 29.2036 393.942 47.6693C393.896 47.9508 393.45 47.9366 393.45 47.6514V47.6514C393.45 26.2813 411.048 8.91467 432.667 8.91467C454.322 8.91467 471.92 26.2813 471.92 47.6514Z" fill="#CED3E6"/>
<path d="M432.703 51.6727C432.4 51.6727 432.098 51.5304 431.92 51.2812L412.685 25.694C412.365 25.2669 412.454 24.662 412.881 24.3417C413.308 24.0214 413.93 24.1103 414.251 24.5374L419.047 30.9157C427.244 41.8163 441.845 45.6758 454.358 40.2492V40.2492C454.856 40.0357 455.425 40.2492 455.656 40.7474C455.87 41.2456 455.656 41.815 455.158 42.0285L433.112 51.5837C432.97 51.6549 432.827 51.6727 432.703 51.6727Z" fill="#39393B"/>
<path d="M590.687 496.688C590.687 499.361 588.516 501.532 585.844 501.532C583.171 501.532 581 499.361 581 496.688C581 494.015 583.171 491.845 585.844 491.845C588.516 491.845 590.687 494.01 590.687 496.688Z" stroke="#4D2C5E" stroke-opacity="0.1" stroke-width="2" stroke-miterlimit="10" stroke-linecap="round" stroke-linejoin="round"/>
<path d="M637.68 538.696C640.355 538.696 642.523 536.528 642.523 533.853C642.523 531.178 640.355 529.009 637.68 529.009C635.005 529.009 632.836 531.178 632.836 533.853C632.836 536.528 635.005 538.696 637.68 538.696Z" stroke="#4D2C5E" stroke-opacity="0.1" stroke-width="2" stroke-miterlimit="10" stroke-linecap="round" stroke-linejoin="round"/>
<path d="M619.444 523.895C625.15 523.895 629.774 519.27 629.774 513.565C629.774 507.86 625.15 503.235 619.444 503.235C613.739 503.235 609.114 507.86 609.114 513.565C609.114 519.27 613.739 523.895 619.444 523.895Z" stroke="#4D2C5E" stroke-opacity="0.1" stroke-width="2" stroke-miterlimit="10" stroke-linecap="round" stroke-linejoin="round"/>
<path d="M634.626 508.635C636.37 511.687 636.371 515.438 634.626 518.489V518.489C634.209 519.218 633.886 519.999 633.665 520.809V520.809C632.741 524.2 630.088 526.858 626.696 527.78V527.78C625.884 528.001 625.102 528.324 624.371 528.743V528.743C621.319 530.49 617.57 530.49 614.518 528.743V528.743C613.787 528.324 613.005 528.001 612.191 527.78V527.78C608.798 526.858 606.146 524.206 605.224 520.812V520.812C605.003 519.999 604.679 519.217 604.26 518.485V518.485C602.513 515.437 602.515 511.688 604.26 508.639V508.639C604.679 507.908 605.003 507.125 605.224 506.312V506.312C606.146 502.918 608.797 500.266 612.192 499.344V499.344C613.005 499.123 613.787 498.799 614.518 498.381V498.381C617.57 496.634 621.319 496.634 624.371 498.381V498.381C625.102 498.8 625.884 499.123 626.696 499.344V499.344C630.088 500.266 632.741 502.924 633.665 506.315V506.315C633.886 507.125 634.209 507.907 634.626 508.635V508.635Z" stroke="#4D2C5E" stroke-opacity="0.1" stroke-width="2" stroke-miterlimit="10" stroke-linecap="round" stroke-linejoin="round"/>
<path d="M632.836 533.853C632.836 531.18 635.007 529.009 637.68 529.009V529.009C639.812 529.009 642.533 529.1 643.587 527.246C645.884 523.207 647.198 518.539 647.198 513.559C647.198 498.228 634.77 485.8 619.439 485.8C604.107 485.8 591.68 498.228 591.68 513.559C591.68 528.891 604.107 541.318 619.439 541.318C623.548 541.318 627.444 540.424 630.95 538.822C632.651 538.045 632.836 535.723 632.836 533.853V533.853Z" stroke="#4D2C5E" stroke-opacity="0.1" stroke-width="2" stroke-miterlimit="10" stroke-linecap="round" stroke-linejoin="round"/>
<path d="M619.444 476C608.291 476 598.271 480.863 591.393 488.583C589.584 490.614 590.687 493.975 590.687 496.694V496.694C590.687 499.367 588.516 501.538 585.844 501.538V501.538C584.81 501.538 583.697 501.986 583.405 502.978C582.418 506.337 581.885 509.886 581.885 513.565C581.885 534.309 598.705 551.13 619.45 551.13C640.195 551.13 657.015 534.309 657.015 513.565C657.015 492.82 640.189 476 619.444 476Z" stroke="#4D2C5E" stroke-opacity="0.1" stroke-width="2" stroke-miterlimit="10" stroke-linecap="round" stroke-linejoin="round"/>
<path d="M190.841 80.2257L167.535 72.3102C165.072 71.4759 163.758 68.7996 164.592 66.3368C165.426 63.8741 168.103 62.5593 170.559 63.3936L193.865 71.3091C196.327 72.1433 197.642 74.8196 196.808 77.2757C195.974 79.7451 193.304 81.0666 190.841 80.2257Z" stroke="#4D2C5E" stroke-opacity="0.1" stroke-width="3" stroke-miterlimit="10"/>
<path d="M187.778 89.2491L164.472 81.3336C162.009 80.4993 160.694 77.823 161.528 75.3669C162.363 72.9042 165.039 71.5893 167.502 72.4236L190.808 80.3325C193.271 81.1667 194.585 83.843 193.751 86.3058C192.91 88.7685 190.24 90.0833 187.778 89.2491Z" stroke="#4D2C5E" stroke-opacity="0.1" stroke-width="3" stroke-miterlimit="10"/>
<path d="M167.061 39.0531C167.088 39.1331 167.108 39.2066 167.135 39.2867C167.444 40.2744 168.654 44.3952 169.316 50.0295C170.211 57.6534 174.656 64.8865 181.946 67.2917V67.2917C189.234 69.6965 197.11 66.5305 202.368 60.9402C206.254 56.8091 209.679 54.2202 210.516 53.6093C210.583 53.5626 210.65 53.5159 210.71 53.4692C211.391 52.9819 212.051 52.4613 212.692 51.9074C216.456 48.6571 219.42 44.379 221.088 39.32C226.007 24.4234 217.918 8.35885 203.021 3.44004C188.125 -1.47878 172.06 6.61024 167.141 21.5068C165.466 26.5725 165.299 31.7716 166.394 36.6237C166.581 37.438 166.801 38.2522 167.061 39.0531Z" stroke="#4D2C5E" stroke-opacity="0.1" stroke-width="3" stroke-miterlimit="10"/>
<path d="M175.972 85.3517C170.831 83.6068 165.762 87.9968 170.039 91.34C171.031 92.115 172.171 92.7355 173.435 93.1534C174.628 93.5468 175.841 93.7289 177.031 93.72C182.466 93.6796 181.119 87.0985 175.972 85.3517V85.3517Z" stroke="#4D2C5E" stroke-opacity="0.1" stroke-width="3" stroke-miterlimit="10"/>
<path d="M177.273 65.616L184.701 43.1043C185.435 40.8884 184.227 38.4991 182.011 37.765C179.795 37.0308 177.406 38.2388 176.672 40.4547C175.938 42.6705 177.146 45.0598 179.362 45.7939L188.278 48.7372" stroke="#4D2C5E" stroke-opacity="0.1" stroke-width="3" stroke-miterlimit="10"/>
<path d="M187.07 68.853L194.499 46.3413C195.233 44.1255 197.622 42.9241 199.838 43.6516C202.054 44.3857 203.255 46.7751 202.528 48.9909C201.793 51.2067 199.404 52.408 197.188 51.6805L188.272 48.7372" stroke="#4D2C5E" stroke-opacity="0.1" stroke-width="3" stroke-miterlimit="10"/>
<path d="M226.367 47.0753L233.896 49.5647" stroke="#4D2C5E" stroke-opacity="0.1" stroke-width="3" stroke-miterlimit="10" stroke-linecap="round"/>
<path d="M229.818 37.5914L237.66 36.4102" stroke="#4D2C5E" stroke-opacity="0.1" stroke-width="3" stroke-miterlimit="10" stroke-linecap="round"/>
<path d="M221.102 55.2111L226.694 60.8306" stroke="#4D2C5E" stroke-opacity="0.1" stroke-width="3" stroke-miterlimit="10" stroke-linecap="round"/>
<path d="M156.443 23.9963L148.914 21.5135" stroke="#4D2C5E" stroke-opacity="0.1" stroke-width="3" stroke-miterlimit="10" stroke-linecap="round"/>
<path d="M159.319 14.3188L153.726 8.69922" stroke="#4D2C5E" stroke-opacity="0.1" stroke-width="3" stroke-miterlimit="10" stroke-linecap="round"/>
<path d="M155.835 33.667L148 34.8483" stroke="#4D2C5E" stroke-opacity="0.1" stroke-width="3" stroke-miterlimit="10" stroke-linecap="round"/>
<path d="M77.9929 259.578L8.78841 238.906C3.75514 237.404 0.898255 232.107 2.40002 227.073L16.221 180.788C17.7227 175.755 23.02 172.898 28.0532 174.4L97.2578 195.073C102.291 196.575 105.148 201.872 103.646 206.905L89.8252 253.19C88.3176 258.217 83.0203 261.08 77.9929 259.578Z" stroke="#4D2C5E" stroke-opacity="0.1" stroke-width="4" stroke-miterlimit="10" stroke-linecap="round"/>
<path d="M4.03085 221.6L91.456 247.717" stroke="#4D2C5E" stroke-opacity="0.1" stroke-width="4" stroke-miterlimit="10" stroke-linecap="round"/>
<path d="M47.9575 242.244C47.5821 243.499 46.2563 244.215 45.0009 243.839C43.7455 243.464 43.0299 242.138 43.4053 240.883C43.7808 239.627 45.1065 238.911 46.3619 239.287C47.6173 239.662 48.333 240.988 47.9575 242.244Z" fill="#4D2C5E"/>
<path d="M48.7776 250.858L38.0188 247.645C35.5772 246.916 33.0067 248.304 32.2774 250.745C31.5481 253.187 32.9363 255.757 35.3779 256.487L46.1366 259.7C48.5782 260.43 51.1488 259.041 51.8781 256.6C52.6073 254.158 51.2192 251.588 48.7776 250.858Z" stroke="#4D2C5E" stroke-opacity="0.1" stroke-width="4" stroke-miterlimit="10" stroke-linecap="round"/>
<path d="M23.6887 253.501L57.5255 263.609" stroke="#4D2C5E" stroke-opacity="0.1" stroke-width="4" stroke-miterlimit="10" stroke-linecap="round"/>
<path d="M613.28 82.8351C634.974 82.8351 652.56 74.4991 652.56 64.216C652.56 53.9329 634.974 45.5968 613.28 45.5968C591.586 45.5968 574 53.9329 574 64.216C574 74.4991 591.586 82.8351 613.28 82.8351Z" stroke="#4D2C5E" stroke-opacity="0.1" stroke-width="3" stroke-miterlimit="10" stroke-linecap="round" stroke-linejoin="round"/>
<path d="M629.165 73.9215C640.446 55.3928 642.471 36.0376 633.688 30.6904C624.905 25.3432 608.64 36.0289 597.36 54.5575C586.079 73.0862 584.054 92.4413 592.837 97.7885C601.62 103.136 617.884 92.4501 629.165 73.9215Z" stroke="#4D2C5E" stroke-opacity="0.1" stroke-width="3" stroke-miterlimit="10" stroke-linecap="round" stroke-linejoin="round"/>
<path d="M633.68 97.78C642.463 92.4328 640.438 73.0776 629.157 54.549C617.877 36.0204 601.612 25.3347 592.829 30.6819C584.046 36.0291 586.071 55.3843 597.352 73.9129C608.633 92.4416 624.898 103.127 633.68 97.78Z" stroke="#4D2C5E" stroke-opacity="0.1" stroke-width="3" stroke-miterlimit="10" stroke-linecap="round" stroke-linejoin="round"/>
<path d="M613.28 69.1448C616.002 69.1448 618.209 66.9381 618.209 64.216C618.209 61.4939 616.002 59.2872 613.28 59.2872C610.558 59.2872 608.351 61.4939 608.351 64.216C608.351 66.9381 610.558 69.1448 613.28 69.1448Z" stroke="#4D2C5E" stroke-opacity="0.1" stroke-width="3" stroke-miterlimit="10" stroke-linecap="round" stroke-linejoin="round"/>
<path d="M90.8316 508.313C91.6372 511.809 89.457 515.296 85.9614 516.103L66.1775 520.67C62.6861 521.476 59.2025 519.299 58.3971 515.807V515.807C58.0621 514.342 58.9693 512.884 60.4347 512.542L87.5658 506.275C89.0313 505.94 90.4896 506.848 90.8316 508.313V508.313Z" stroke="#4D2C5E" stroke-opacity="0.1" stroke-width="3" stroke-miterlimit="10" stroke-linecap="round"/>
<path d="M81.6291 480.643C95.9255 469.116 98.1704 448.182 86.6434 433.886C75.1163 419.589 54.1822 417.344 39.8858 428.872C25.5894 440.399 23.3446 461.333 34.8716 475.629C46.3987 489.925 67.3327 492.17 81.6291 480.643Z" stroke="#4D2C5E" stroke-opacity="0.1" stroke-width="3" stroke-miterlimit="10"/>
<path d="M76.2333 484.175L45.2223 425.349V425.349C43.0759 421.393 38.0745 419.84 34.5755 422.671C19.53 434.846 14.676 456.334 24.0436 474.106C33.4106 491.877 53.8807 500.012 72.4275 494.481C76.7276 493.198 78.2422 488.194 76.1496 484.224V484.224" stroke="#4D2C5E" stroke-opacity="0.1" stroke-width="3" stroke-miterlimit="10" stroke-linecap="round" stroke-linejoin="round"/>
<path d="M52.057 438.239C62.2096 432.887 68.9143 425.654 67.0323 422.084C65.1504 418.515 55.3945 419.96 45.2419 425.313C35.0893 430.666 28.3846 437.899 30.2666 441.469C32.1486 445.038 41.9045 443.592 52.057 438.239Z" stroke="#4D2C5E" stroke-opacity="0.1" stroke-width="3" stroke-miterlimit="10"/>
<path d="M69.4226 471.252C59.2308 476.623 66.0437 489.551 76.2333 484.175V484.175V484.175C86.4228 478.8 79.6121 465.876 69.4226 471.252V471.252V471.252Z" stroke="#4D2C5E" stroke-opacity="0.1" stroke-width="3" stroke-miterlimit="10"/>
<path d="M76.2589 484.139C84.3796 479.858 84.0195 463.218 75.4545 446.973C66.8896 430.728 53.3631 421.03 45.2424 425.312C37.1217 429.593 37.4819 446.233 46.0469 462.478C54.6119 478.723 68.1382 488.421 76.2589 484.139Z" stroke="#4D2C5E" stroke-opacity="0.1" stroke-width="3" stroke-miterlimit="10"/>
<path d="M31.3148 470.268L90.1407 439.257" stroke="#4D2C5E" stroke-opacity="0.1" stroke-width="3" stroke-miterlimit="10"/>
<path d="M70.3856 495.033L73.8188 509.353" stroke="#4D2C5E" stroke-opacity="0.1" stroke-width="3" stroke-miterlimit="10"/>
<path d="M55.9617 523.462L97.3073 513.547" stroke="#4D2C5E" stroke-opacity="0.1" stroke-width="3" stroke-miterlimit="10" stroke-linecap="round"/>
<path d="M630.431 365.726L661.077 396.371C665.855 401.15 673.603 401.15 678.382 396.371C683.16 391.592 683.16 383.845 678.382 379.066L647.736 348.421C642.958 343.642 635.21 343.642 630.431 348.421C625.653 353.199 625.653 360.947 630.431 365.726Z" stroke="#4D2C5E" stroke-opacity="0.1" stroke-width="3" stroke-miterlimit="10" stroke-linecap="round" stroke-linejoin="round"/>
<path d="M681.691 407.57C686.4 408.573 690.581 404.393 689.578 399.683V399.683C688.479 394.527 682.103 392.64 678.376 396.368V396.368C674.648 400.096 676.535 406.472 681.691 407.57V407.57Z" stroke="#4D2C5E" stroke-opacity="0.1" stroke-width="3" stroke-miterlimit="10" stroke-linecap="round" stroke-linejoin="round"/>
<path d="M689.527 399.445L681.445 407.519" stroke="#4D2C5E" stroke-opacity="0.1" stroke-width="3" stroke-miterlimit="10" stroke-linecap="round" stroke-linejoin="round"/>
<path d="M616.68 343.881L625.881 334.68C628.12 332.44 631.746 332.44 633.985 334.68V334.68C636.795 337.49 636.795 342.046 633.985 344.856L626.856 351.985C624.046 354.795 619.49 354.795 616.68 351.985V351.985C614.44 349.746 614.44 346.112 616.68 343.881Z" stroke="#4D2C5E" stroke-opacity="0.1" stroke-width="3" stroke-miterlimit="10" stroke-linecap="round" stroke-linejoin="round"/>
<path d="M643.75 344.437L626.444 361.75" stroke="#4D2C5E" stroke-opacity="0.1" stroke-width="3" stroke-miterlimit="10" stroke-linecap="round" stroke-linejoin="round"/>
<path d="M678.376 396.368L635.097 353.097" stroke="#4D2C5E" stroke-opacity="0.1" stroke-width="3" stroke-miterlimit="10" stroke-linecap="round" stroke-linejoin="round"/>
</svg>
