<svg width="60" height="63" viewBox="0 0 60 63" fill="none" xmlns="http://www.w3.org/2000/svg">
<g filter="url(#filter0_d_60_130)">
<path d="M21.6668 55.0002C26.2668 55.0002 30.0002 51.2668 30.0002 46.6668V38.3335H21.6668C17.0668 38.3335 13.3335 42.0668 13.3335 46.6668C13.3335 51.2668 17.0668 55.0002 21.6668 55.0002Z" fill="#0ACF83"/>
<path d="M13.3335 29.9998C13.3335 25.3998 17.0668 21.6665 21.6668 21.6665H30.0002V38.3332H21.6668C17.0668 38.3332 13.3335 34.5998 13.3335 29.9998Z" fill="#A259FF"/>
<path d="M13.3335 13.3333C13.3335 8.73333 17.0668 5 21.6668 5H30.0002V21.6667H21.6668C17.0668 21.6667 13.3335 17.9333 13.3335 13.3333Z" fill="#F24E1E"/>
<path d="M30 5H38.3333C42.9333 5 46.6667 8.73333 46.6667 13.3333C46.6667 17.9333 42.9333 21.6667 38.3333 21.6667H30V5Z" fill="#FF7262"/>
<path d="M46.6667 29.9998C46.6667 34.5998 42.9333 38.3332 38.3333 38.3332C33.7333 38.3332 30 34.5998 30 29.9998C30 25.3998 33.7333 21.6665 38.3333 21.6665C42.9333 21.6665 46.6667 25.3998 46.6667 29.9998Z" fill="#1ABCFE"/>
</g>
<defs>
<filter id="filter0_d_60_130" x="-4" y="0" width="68" height="68" filterUnits="userSpaceOnUse" color-interpolation-filters="sRGB">
<feFlood flood-opacity="0" result="BackgroundImageFix"/>
<feColorMatrix in="SourceAlpha" type="matrix" values="0 0 0 0 0 0 0 0 0 0 0 0 0 0 0 0 0 0 127 0" result="hardAlpha"/>
<feOffset dy="4"/>
<feGaussianBlur stdDeviation="2"/>
<feComposite in2="hardAlpha" operator="out"/>
<feColorMatrix type="matrix" values="0 0 0 0 0 0 0 0 0 0 0 0 0 0 0 0 0 0 0.25 0"/>
<feBlend mode="normal" in2="BackgroundImageFix" result="effect1_dropShadow_60_130"/>
<feBlend mode="normal" in="SourceGraphic" in2="effect1_dropShadow_60_130" result="shape"/>
</filter>
</defs>
</svg>
