<svg width="218" height="74" viewBox="0 0 218 74" fill="none" xmlns="http://www.w3.org/2000/svg">
<g clip-path="url(#clip0_130_106)">
<path d="M97.6682 12.4511H110.122V17.3962H97.6682V30.5095H92.2655V0H111.037V4.94511H97.714V12.4511H97.6682ZM122.301 31.0394C121.293 31.0394 120.286 30.8628 119.325 30.5095C118.363 30.1563 117.539 29.6706 116.806 28.9642C116.074 28.3019 115.524 27.463 115.067 26.5358C114.609 25.5644 114.426 24.4606 114.426 23.2243V9.84606H119.828V21.8115C119.828 23.3568 120.194 24.4606 120.927 25.1671C121.66 25.8735 122.713 26.1826 124.086 26.1826C124.773 26.1826 125.368 26.0501 125.918 25.7852C126.467 25.5203 126.879 25.2112 127.245 24.9021C127.657 24.5489 128.024 24.1516 128.344 23.6217V9.84606H133.793V30.5095H128.711V27.5072C128.253 28.1694 127.749 28.7876 127.108 29.2733C126.604 29.7148 125.918 30.1122 125.139 30.4654C124.315 30.8628 123.399 31.0394 122.301 31.0394ZM137.364 9.84606H141.576V3.70883H147.025V9.84606H153.435V14.5704H146.979V22.9153C146.979 23.5776 147.07 24.0632 147.208 24.5048C147.345 24.9021 147.574 25.2554 147.849 25.5203C148.123 25.7852 148.398 25.9618 148.764 26.0501C149.085 26.1384 149.451 26.1826 149.818 26.1826C150.138 26.1826 150.413 26.1384 150.687 26.0943C150.962 26.006 151.191 25.9618 151.42 25.8294L152.107 25.432L154.076 29.7148C153.663 29.9797 153.206 30.2005 152.656 30.4212C152.198 30.5979 151.649 30.7303 151.054 30.8628C150.413 30.9952 149.726 31.0835 148.948 31.0835C147.895 31.0835 146.933 30.9069 146.017 30.5537C145.147 30.2005 144.369 29.7148 143.728 29.0525C143.087 28.4344 142.583 27.6396 142.171 26.7566C141.805 25.8735 141.622 24.858 141.622 23.7542V14.5704H137.41V9.84606H137.364ZM165.201 31.0394C164.194 31.0394 163.187 30.8628 162.225 30.5095C161.264 30.1563 160.44 29.6706 159.707 28.9642C158.975 28.3019 158.425 27.463 157.967 26.5358C157.509 25.5644 157.326 24.4606 157.326 23.2243V9.84606H162.775V21.8115C162.775 23.3568 163.141 24.4606 163.874 25.1671C164.606 25.8735 165.659 26.1826 167.033 26.1826C167.72 26.1826 168.315 26.0501 168.864 25.7852C169.414 25.5203 169.826 25.2112 170.192 24.9021C170.604 24.5489 170.97 24.1516 171.291 23.6217V9.84606H176.739V30.5095H171.657V27.5072C171.199 28.1694 170.696 28.7876 170.055 29.2733C169.551 29.7148 168.864 30.1122 168.086 30.4654C167.216 30.8628 166.3 31.0394 165.201 31.0394ZM192.581 9.31623C193.085 9.31623 193.542 9.36038 194 9.40453C194.458 9.49284 194.824 9.58115 195.191 9.6253C195.603 9.75776 195.969 9.84606 196.335 9.93437L194.412 14.6587C194.229 14.6146 194 14.5263 193.726 14.4379C193.497 14.3938 193.222 14.3055 192.901 14.2613C192.581 14.2172 192.215 14.173 191.848 14.173C191.024 14.173 190.292 14.3055 189.696 14.6146C189.101 14.9236 188.598 15.2327 188.231 15.5859C187.773 15.9833 187.407 16.469 187.041 16.9988V30.5095H181.638V9.84606H186.812V12.8484C187.224 12.2303 187.682 11.6122 188.231 11.0823C188.735 10.6408 189.33 10.2434 190.063 9.84606C190.749 9.53699 191.619 9.31623 192.581 9.31623ZM207.141 9.31623C208.606 9.31623 210.025 9.58115 211.307 10.111C212.635 10.6408 213.779 11.3914 214.741 12.3186C215.702 13.2458 216.481 14.3938 217.076 15.7184C217.625 17.043 217.946 18.5 217.946 20.0895V20.9284C217.946 21.2816 217.946 21.6348 217.9 22.0764H201.921C202.013 22.5621 202.196 23.0036 202.562 23.5334C202.883 24.0191 203.295 24.4606 203.844 24.9021C204.348 25.2995 204.943 25.6527 205.63 25.9177C206.316 26.1826 207.095 26.315 207.919 26.315C208.835 26.315 209.659 26.2267 210.391 26.006C211.124 25.7852 211.719 25.5644 212.223 25.2995C212.818 24.9905 213.322 24.6372 213.779 24.2399L216.481 28.1694C215.794 28.6993 215.016 29.2291 214.146 29.6706C213.413 30.068 212.497 30.3771 211.444 30.6862C210.391 30.9952 209.201 31.1277 207.919 31.1277C206.271 31.1277 204.76 30.8628 203.386 30.2888C201.967 29.7148 200.776 28.9642 199.723 27.9928C198.67 27.0215 197.892 25.8735 197.297 24.5489C196.702 23.2243 196.427 21.8115 196.427 20.3103C196.427 18.8091 196.702 17.3962 197.251 16.0716C197.8 14.747 198.533 13.599 199.494 12.6277C200.456 11.6563 201.601 10.8616 202.928 10.3317C204.21 9.6253 205.63 9.31623 207.141 9.31623ZM212.543 18.2792C212.497 17.8377 212.406 17.3962 212.177 16.8663C211.948 16.3807 211.628 15.895 211.17 15.4976C210.758 15.1002 210.162 14.747 209.521 14.4821C208.835 14.2172 208.056 14.0847 207.186 14.0847C206.316 14.0847 205.538 14.2172 204.943 14.4821C204.302 14.747 203.752 15.1002 203.34 15.4976C202.928 15.895 202.562 16.3807 202.333 16.8663C202.104 17.352 201.967 17.8377 201.967 18.3234H212.543V18.2792ZM92.2655 41.2387H97.6682V68.4368H111.129V73.3819H92.2197V41.2387H92.2655ZM123.537 52.1885C125.002 52.1885 126.421 52.4535 127.703 52.9833C129.031 53.5131 130.176 54.2196 131.137 55.1909C132.099 56.1181 132.877 57.2661 133.472 58.5907C134.022 59.9153 134.342 61.3723 134.342 62.9618V63.8007C134.342 64.1539 134.342 64.5072 134.296 64.9487H118.317C118.409 65.4344 118.638 65.8759 118.958 66.4057C119.279 66.8914 119.691 67.3329 120.24 67.7745C120.744 68.1718 121.339 68.5251 122.026 68.79C122.713 69.0549 123.491 69.1873 124.315 69.1873C125.231 69.1873 126.055 69.099 126.788 68.8783C127.52 68.6575 128.115 68.4367 128.619 68.1718C129.168 67.8628 129.718 67.5095 130.176 67.1122L132.877 71.0418C132.19 71.5716 131.412 72.1014 130.542 72.543C129.809 72.9403 128.894 73.2494 127.841 73.5585C126.788 73.8675 125.597 74 124.315 74C122.667 74 121.156 73.7351 119.782 73.1611C118.363 72.5871 117.173 71.8365 116.12 70.8652C115.067 69.8938 114.288 68.7458 113.693 67.4212C113.098 66.0967 112.823 64.6838 112.823 63.1826C112.823 61.6814 113.098 60.2685 113.647 58.9439C114.197 57.6193 114.929 56.4714 115.891 55.5C116.852 54.5286 117.997 53.7339 119.325 53.2041C120.561 52.4535 121.98 52.1885 123.537 52.1885ZM128.894 61.1074C128.848 60.6659 128.756 60.2243 128.527 59.6945C128.298 59.2088 127.978 58.7232 127.52 58.3258C127.062 57.8842 126.513 57.5752 125.872 57.3103C125.185 57.0453 124.407 56.9129 123.537 56.9129C122.667 56.9129 121.934 57.0453 121.293 57.3103C120.652 57.5752 120.103 57.8842 119.691 58.3258C119.279 58.7232 118.912 59.1647 118.684 59.6945C118.455 60.1802 118.317 60.6659 118.317 61.1516H128.894V61.1074ZM159.158 52.6742V73.3377H154.121V70.6444C153.709 71.2625 153.251 71.7924 152.61 72.278C152.107 72.6754 151.42 73.0728 150.596 73.3819C149.772 73.7351 148.764 73.8675 147.62 73.8675C146.246 73.8675 144.918 73.6026 143.637 73.0728C142.355 72.543 141.256 71.7924 140.294 70.821C139.333 69.8496 138.6 68.7017 138.005 67.4212C137.455 66.0967 137.135 64.6396 137.135 63.0501C137.135 61.4606 137.41 60.0036 138.005 58.679C138.554 57.3544 139.333 56.2064 140.294 55.2792C141.256 54.3079 142.355 53.5573 143.637 53.0274C144.918 52.4976 146.246 52.2327 147.62 52.2327C148.719 52.2327 149.726 52.4093 150.55 52.7184C151.374 53.0716 152.061 53.4248 152.565 53.8222C153.16 54.3079 153.663 54.8377 154.121 55.4558V52.7625H159.158V52.6742ZM153.709 59.9153C153.389 59.3854 152.977 58.8998 152.473 58.4582C152.061 58.105 151.512 57.7959 150.916 57.4869C150.275 57.1778 149.543 57.0453 148.673 57.0453C147.757 57.0453 146.933 57.222 146.2 57.4869C145.468 57.7959 144.827 58.1933 144.323 58.7673C143.82 59.2971 143.408 59.9153 143.133 60.6659C142.858 61.3723 142.721 62.1671 142.721 63.006C142.721 63.8449 142.858 64.6396 143.133 65.3461C143.408 66.0525 143.774 66.7148 144.323 67.2446C144.827 67.7745 145.468 68.216 146.2 68.5251C146.933 68.8341 147.757 68.9666 148.673 68.9666C149.543 68.9666 150.321 68.8341 150.916 68.5251C151.557 68.216 152.061 67.9069 152.473 67.5095C152.977 67.1122 153.343 66.6265 153.709 66.0525V59.9153ZM174.862 52.1885C175.32 52.1885 175.823 52.2327 176.281 52.2768C176.739 52.3652 177.105 52.4093 177.472 52.4976C177.884 52.6301 178.25 52.7184 178.616 52.8067L176.739 57.531C176.556 57.4869 176.327 57.3986 176.052 57.3103C175.823 57.2661 175.549 57.1778 175.228 57.1336C174.908 57.0895 174.542 57.0453 174.175 57.0453C173.351 57.0453 172.619 57.1778 172.023 57.4869C171.428 57.7959 170.924 58.105 170.558 58.4582C170.1 58.8556 169.734 59.3413 169.368 59.8711V73.3819H163.965V52.7184H169.093V55.7208C169.459 55.1026 169.963 54.4845 170.512 53.9988C170.97 53.5573 171.611 53.1599 172.344 52.7625C173.031 52.3652 173.855 52.1885 174.862 52.1885ZM192.81 52.1885C193.817 52.1885 194.824 52.3652 195.786 52.7184C196.747 53.0716 197.571 53.5573 198.304 54.2637C199.037 54.926 199.586 55.7649 200.044 56.6921C200.456 57.6635 200.685 58.7673 200.685 60.0036V73.3819H195.236V61.3282C195.236 59.827 194.824 58.7673 194 58.105C193.176 57.4427 192.169 57.0895 190.978 57.0895C190.292 57.0895 189.696 57.222 189.147 57.531C188.598 57.8401 188.186 58.1492 187.819 58.4582C187.407 58.8556 187.041 59.253 186.72 59.7828V73.426H181.364V52.7625H186.4V55.7649C186.812 55.1468 187.27 54.5286 187.911 54.043C188.414 53.6014 189.101 53.2041 189.88 52.8067C190.704 52.3652 191.665 52.1885 192.81 52.1885Z" fill="#1D1D1B"/>
<path d="M73.8142 0V24.3723H49.6854V45.8305H25.3276V67.2005H0.0541992V73.3819H31.6918V51.9678H56.0953V30.5095H80.2241V0H73.8142Z" fill="#DE00A5"/>
</g>
<defs>
<clipPath id="clip0_130_106">
<rect width="218" height="74" fill="white"/>
</clipPath>
</defs>
</svg>
