<svg width="60" height="60" viewBox="0 0 60 60" fill="none" xmlns="http://www.w3.org/2000/svg">
<g clip-path="url(#clip0_60_69)">
<path d="M58.8684 27.3267L32.6719 1.1315C31.1641 -0.377168 28.7173 -0.377168 27.2077 1.1315L21.7678 6.57135L28.6685 13.472C30.2721 12.9302 32.111 13.2937 33.3893 14.572C34.6737 15.8585 35.0346 17.7131 34.4796 19.3218L41.13 25.9724C42.739 25.4181 44.5955 25.7767 45.8805 27.0639C47.6766 28.8592 47.6766 31.769 45.8805 33.5655C44.0841 35.3622 41.1743 35.3622 39.3769 33.5655C38.0259 32.2131 37.6922 30.2292 38.3761 28.5649L32.1741 22.3628L32.1734 38.684C32.623 38.9063 33.0336 39.2 33.3893 39.5535C35.1853 41.3488 35.1853 44.2589 33.3893 46.0567C31.5928 47.8525 28.6816 47.8525 26.8877 46.0567C25.0917 44.2589 25.0917 41.3491 26.8877 39.5538C27.3181 39.1231 27.8296 38.7821 28.3927 38.5504V22.0771C27.8288 21.847 27.317 21.5057 26.8877 21.0738C25.527 19.7149 25.1998 17.7182 25.897 16.0474L19.0945 9.24416L1.13203 27.2055C-0.377344 28.7156 -0.377344 31.1627 1.13203 32.6716L27.3291 58.8672C28.8373 60.3761 31.2837 60.3761 32.7937 58.8672L58.8682 32.7932C60.3771 31.2838 60.3773 28.8353 58.8684 27.3267Z" fill="#DE4C36"/>
</g>
<defs>
<clipPath id="clip0_60_69">
<rect width="60" height="60" fill="white"/>
</clipPath>
</defs>
</svg>
