<svg width="60" height="60" viewBox="0 0 60 60" fill="none" xmlns="http://www.w3.org/2000/svg">
<g clip-path="url(#clip0_60_144)">
<path d="M28.232 22.2645V27.9477L15.0386 14.317L19.4203 9.78859L26.0762 16.6718C25.8976 17.1688 25.807 17.695 25.8089 18.2251C25.8064 19.0653 26.0322 19.8894 26.4605 20.6035C26.8889 21.3176 27.5027 21.8931 28.232 22.2645ZM32.2763 23.0841L34.327 25.2035L32.2763 27.3273V23.0841ZM44.8256 14.3623L36.899 22.5453L34.2306 19.7965C34.4738 19.1217 34.555 18.396 34.4672 17.6817C34.3335 16.633 33.8488 15.6658 33.0973 14.9479C32.3458 14.2299 31.3748 13.8064 30.3527 13.751C29.7725 13.7194 29.1923 13.8119 28.6482 14.0227L21.988 7.1168L27.6317 1.30226C27.9312 0.991999 28.2871 0.745843 28.6788 0.577891C29.0705 0.409938 29.4905 0.323486 29.9146 0.323486C30.3387 0.323486 30.7586 0.409938 31.1503 0.577891C31.5421 0.745843 31.8979 0.991999 32.1974 1.30226L44.8256 14.3623Z" fill="#FF8080"/>
<path d="M25.6116 33.1689L13.6232 45.5587L1.72675 33.3817C1.0538 32.6583 0.681215 31.6916 0.688584 30.6881C0.695952 29.6845 1.08269 28.7238 1.76619 28.011L14.035 15.3313L25.6116 27.3362C26.3587 28.1104 26.7782 29.1592 26.7782 30.2526C26.7782 31.3459 26.3587 32.3947 25.6116 33.1689Z" fill="#80B3FF"/>
<path d="M32.298 34.6453V39.8485C33.0281 40.2974 33.6071 40.9673 33.9567 41.7675C34.3062 42.5678 34.4094 43.4597 34.2522 44.3226C34.1082 45.1644 33.7202 45.9411 33.1397 46.55C32.5591 47.1589 31.8133 47.5713 31.001 47.7325C30.0155 47.9551 28.9852 47.799 28.103 47.2934C27.2208 46.7879 26.5469 45.9675 26.2076 44.9857C25.8682 44.0039 25.8865 42.928 26.259 41.9591C26.6316 40.9903 27.3329 40.1949 28.2317 39.7217V33.9705C28.2243 33.8887 28.1955 33.8105 28.1484 33.7443C28.1012 33.6781 28.0376 33.6264 27.9642 33.5947C27.8908 33.5631 27.8104 33.5527 27.7317 33.5646C27.653 33.5766 27.579 33.6104 27.5175 33.6626L14.9551 46.6411L27.8812 60.0001C28.4834 60.6217 29.2998 60.9709 30.1509 60.9709C31.0021 60.9709 31.8185 60.6217 32.4207 60.0001L44.615 47.42L32.298 34.6453Z" fill="#FFE680"/>
<path d="M57.9487 34.0385L46.3195 46.0615L33.7966 33.1192C33.0939 32.3923 32.6992 31.4069 32.6992 30.3795C32.6992 29.352 33.0939 28.3666 33.7966 27.6398L35.2381 26.1363L38.4324 29.4285C38.09 30.3894 38.0754 31.4423 38.3912 32.4129C38.707 33.3834 39.3341 34.2134 40.1687 34.7652C41.0033 35.317 41.9953 35.5576 42.9803 35.4472C43.9653 35.3367 44.8842 34.8817 45.5848 34.1576C46.2854 33.4336 46.7256 32.4839 46.8325 31.4659C46.9394 30.4479 46.7066 29.4227 46.1727 28.5602C45.6387 27.6977 44.8357 27.0495 43.8966 26.7232C42.9574 26.3968 41.9386 26.4119 41.0089 26.7658L37.8321 23.4872L45.9559 15.0959L57.9487 27.4949C58.3659 27.9237 58.6969 28.4335 58.9228 28.995C59.1487 29.5565 59.265 30.1586 59.265 30.7667C59.265 31.3748 59.1487 31.9769 58.9228 32.5384C58.6969 33.0999 58.3659 33.6097 57.9487 34.0385Z" fill="#8DD35F"/>
</g>
<defs>
<clipPath id="clip0_60_144">
<rect width="60" height="60" fill="white"/>
</clipPath>
</defs>
</svg>
