<svg width="67" height="92" viewBox="0 0 67 92" fill="none" xmlns="http://www.w3.org/2000/svg">
<g clip-path="url(#clip0_60_158)">
<path d="M64.1773 72.5457H63.708V72.3518H64.9719V72.5457H64.5053V73.513H64.1773V72.5457ZM66.6981 72.5962H66.6907L66.2253 73.5133H66.0125L65.5503 72.5962H65.5448V73.5133H65.2354V72.3521H65.6906L66.1191 73.1744L66.5462 72.3521H66.9998V73.5133H66.6978L66.6981 72.5962Z" fill="#E76F00"/>
<path d="M22.1516 48.8013C22.1516 48.8013 18.8854 50.2034 24.4761 50.6779C31.2492 51.2483 34.7108 51.1665 42.1748 50.1237C42.1748 50.1237 44.1371 51.032 46.8777 51.8187C30.1455 57.1124 9.00939 51.5121 22.1516 48.8013ZM20.1071 41.8933C20.1071 41.8933 16.4436 43.8951 22.0385 44.3223C29.2737 44.8733 34.9875 44.9184 44.8745 43.513C44.8745 43.513 46.2423 44.5364 48.3926 45.0961C28.1622 49.463 5.62931 45.4405 20.1071 41.8933Z" fill="#5382A1"/>
<path d="M37.3435 30.1753C41.4663 33.6792 36.2605 36.8325 36.2605 36.8325C36.2605 36.8325 46.7285 32.8432 41.9211 27.8476C37.4308 23.1887 33.9874 20.8742 52.6287 12.8933C52.6289 12.8931 23.368 18.2879 37.3435 30.1753Z" fill="#E76F00"/>
<path d="M59.4732 53.9107C59.4732 53.9107 61.8903 55.3811 56.8113 56.5183C47.1532 58.6781 16.6134 59.3303 8.1296 56.6045C5.07988 55.625 10.799 54.2658 12.598 53.9806C14.4742 53.6803 15.5463 53.7362 15.5463 53.7362C12.1547 51.9725 -6.37556 57.1992 6.13385 58.6963C40.2488 62.7803 68.3224 56.8572 59.4732 53.9107ZM23.7224 34.7358C23.7224 34.7358 8.18789 37.4595 18.2212 38.4486C22.4576 38.8673 30.9027 38.7726 38.7689 38.286C45.1978 37.8857 51.6534 37.0347 51.6534 37.0347C51.6534 37.0347 49.3865 37.7513 47.7464 38.5779C31.9714 41.6407 1.49708 40.2157 10.2703 37.083C17.6897 34.4355 23.7224 34.7358 23.7224 34.7358ZM51.5893 46.2344C67.6253 40.0831 60.2111 34.1715 55.0357 34.9681C53.7673 35.163 53.2017 35.3319 53.2017 35.3319C53.2017 35.3319 53.6728 34.7873 54.5718 34.5516C64.8099 31.8946 72.6837 42.3883 51.2668 46.5446C51.2668 46.5446 51.5154 46.381 51.5893 46.2344Z" fill="#5382A1"/>
<path d="M41.9211 0.00585938C41.9211 0.00585938 50.8021 6.56382 33.4979 16.6485C19.6216 24.7379 30.3337 29.3504 33.4921 34.6204C25.3926 29.2255 19.4484 24.4767 23.4362 20.0568C29.2891 13.5687 45.5044 10.4231 41.9211 0.00585938Z" fill="#E76F00"/>
<path d="M25.298 62.9032C40.6906 63.6306 64.3276 62.4997 64.8872 57.1233C64.8872 57.1233 63.8113 59.1613 52.1661 60.7801C39.0284 62.6051 22.8245 62.3922 13.2139 61.2225C13.2143 61.2221 15.1815 62.4243 25.298 62.9032Z" fill="#5382A1"/>
<path d="M22.7754 83.4474C21.3234 84.3771 19.7898 84.899 18.4135 84.899C16.4491 84.899 15.3877 84.0295 15.3877 82.6348C15.3877 81.1262 16.5251 80.0231 21.087 80.0231H22.7752L22.7754 83.4474ZM26.7821 86.7845V76.4545C26.7821 73.8155 24.7433 72.0744 19.8275 72.0744C16.9577 72.0744 14.4439 72.5975 12.4007 73.2647L12.9904 75.0932C14.5992 74.6573 16.6815 74.2515 18.7254 74.2515C21.5572 74.2515 22.7754 75.0932 22.7754 76.8333V78.139H21.3621C14.4819 78.139 11.3783 80.1105 11.3783 83.0696C11.3783 85.6236 13.4235 87.0753 17.2745 87.0753C19.7499 87.0753 21.5977 86.3207 23.3251 85.2167L23.6386 86.7848L26.7821 86.7845ZM40.1538 86.7845H35.1567L29.1426 72.336H33.5068L37.2384 81.2131L38.068 83.8829C39.9559 80.0228 41.2914 76.1066 41.9593 72.336H46.2044C45.0668 77.0936 43.0202 82.3159 40.1538 86.7845ZM59.3243 83.4474C57.8695 84.3771 56.3334 84.899 54.9569 84.899C52.9959 84.899 51.9318 84.0295 51.9318 82.6348C51.9318 81.1262 53.0715 80.0231 57.6331 80.0231H59.3243V83.4474ZM63.3306 86.7845V76.4545C63.3306 73.8155 61.2869 72.0744 56.3764 72.0744C53.5048 72.0744 50.99 72.5975 48.9477 73.2647L49.5368 75.0932C51.146 74.6573 53.2323 74.2515 55.2746 74.2515C58.1043 74.2515 59.3243 75.0932 59.3243 76.8333V78.139H57.9084C51.0264 78.139 47.924 80.1105 47.924 83.0696C47.924 85.6236 49.9676 87.0753 53.8179 87.0753C56.2949 87.0753 58.142 86.3207 59.8722 85.2167L60.1869 86.7848L63.3306 86.7845ZM6.985 89.238C5.84279 90.4691 3.99794 91.443 1.97824 91.994L0 90.2755C1.5373 89.6932 2.85574 88.7528 3.46831 87.877C3.99817 87.0979 4.21749 86.0939 4.21749 83.6928V67.1975H8.47438V83.4667C8.47415 86.6767 8.12651 87.9734 6.985 89.238Z" fill="#E76F00"/>
</g>
<defs>
<clipPath id="clip0_60_158">
<rect width="67" height="92" fill="white"/>
</clipPath>
</defs>
</svg>
