<svg width="60" height="60" viewBox="0 0 60 60" fill="none" xmlns="http://www.w3.org/2000/svg">
<g clip-path="url(#clip0_60_149)">
<path d="M0 0H60V60H0V0Z" fill="#FFE012"/>
<path d="M55.0894 45.69C54.6502 42.9524 52.8651 40.6539 47.578 38.5094C45.7415 37.6653 43.694 37.0608 43.0837 35.6691C42.867 34.8592 42.8385 34.403 42.9753 33.9125C43.3689 32.3212 45.2681 31.825 46.7738 32.2813C47.7434 32.6064 48.6617 33.3536 49.2149 34.5455C51.8042 32.8688 51.7985 32.8801 53.6065 31.7281C52.9449 30.7015 52.5913 30.228 52.1578 29.7889C50.6008 28.0494 48.4791 27.154 45.0856 27.2224C44.4982 27.2965 43.9051 27.3763 43.3175 27.4505C41.6237 27.8783 40.0096 28.768 39.0628 29.96C36.2225 33.1825 37.0324 38.8231 40.4887 41.1445C43.8936 43.6996 48.8955 44.2813 49.5343 46.6711C50.1559 49.5969 47.3841 50.5436 44.6293 50.2072C42.5989 49.7851 41.4697 48.7528 40.2491 46.8764C38.002 48.1768 38.002 48.1768 35.6921 49.5057C36.2397 50.7034 36.8156 51.2452 37.734 52.2832C42.08 56.692 52.9563 56.4753 54.907 49.8022C54.9867 49.5741 55.5115 48.0455 55.0894 45.69ZM32.6179 27.576H27.0058C27.0058 32.4239 26.983 37.2376 26.983 42.0855C26.983 45.171 27.1427 47.9999 26.6408 48.8668C25.8195 50.5721 23.6921 50.3611 22.7225 50.0303C21.7359 49.5455 21.234 48.8554 20.6522 47.8801C20.4925 47.6007 20.3727 47.3839 20.3328 47.3668C18.81 48.2965 17.2928 49.2318 15.77 50.1615C16.5286 51.7185 17.6464 53.0703 19.078 53.9485C21.2168 55.2318 24.0913 55.6253 27.0971 54.9352C29.0533 54.3649 30.7415 53.1843 31.6255 51.3877C32.9031 49.0322 32.6293 46.1805 32.6179 43.0265C32.6464 37.882 32.6179 32.7376 32.6179 27.576Z" fill="#323330"/>
</g>
<defs>
<clipPath id="clip0_60_149">
<rect width="60" height="60" fill="white"/>
</clipPath>
</defs>
</svg>
