<svg width="111" height="111" viewBox="0 0 111 111" fill="none" xmlns="http://www.w3.org/2000/svg">
<g clip-path="url(#clip0_130_123)">
<path d="M55.4999 0.00012207C24.8479 0.00012207 0 24.8481 0 55.5C0 86.1519 24.8479 111 55.4999 111C86.1518 111 111 86.1519 111 55.5C111 24.8481 86.1514 0.00012207 55.4999 0.00012207ZM40.6924 82.3317H28.5068V42.9636H40.6924V82.3317ZM34.5416 37.808C30.5619 37.808 27.3357 34.5555 27.3357 30.544C27.3357 26.532 30.5623 23.2796 34.5416 23.2796C38.5208 23.2796 41.747 26.532 41.747 30.544C41.7472 34.5557 38.521 37.808 34.5416 37.808ZM86.3578 82.3317H74.2313V61.6667C74.2313 55.9989 72.0784 52.8351 67.5967 52.8351C62.7192 52.8351 60.171 56.1302 60.171 61.6667V82.3317H48.4837V42.9636H60.171V48.2658C60.171 48.2658 63.6866 41.7627 72.0343 41.7627C80.3822 41.7627 86.358 46.8599 86.358 57.4044L86.3578 82.3317Z" fill="url(#paint0_linear_130_123)"/>
</g>
<defs>
<linearGradient id="paint0_linear_130_123" x1="16.2555" y1="16.2556" x2="94.7443" y2="94.7444" gradientUnits="userSpaceOnUse">
<stop stop-color="#2489BE"/>
<stop offset="1" stop-color="#0575B3"/>
</linearGradient>
<clipPath id="clip0_130_123">
<rect width="111" height="111" fill="white"/>
</clipPath>
</defs>
</svg>
