<svg width="60" height="60" viewBox="0 0 60 60" fill="none" xmlns="http://www.w3.org/2000/svg">
<path d="M27.6128 7.80054L28.9131 10.2428C29.2054 10.6935 29.5221 11.0924 29.8952 11.4639C30.9888 12.5439 32.0083 13.6966 32.9465 14.9141C35.1497 17.8071 36.6357 21.0198 37.697 24.4944C38.3334 26.6169 38.6791 28.7942 38.705 30.9959C38.8115 37.5781 36.555 43.23 32.0055 47.9272C31.2655 48.6721 30.466 49.3555 29.615 49.9706C29.1643 49.9706 28.9512 49.6249 28.7654 49.3067C28.4271 48.7166 28.202 48.0686 28.1016 47.3958C27.9417 46.5995 27.8366 45.8032 27.8884 44.981V44.6095C27.8518 44.5303 27.4544 7.98782 27.6128 7.80054Z" fill="#599636"/>
<path d="M27.6126 7.71986C27.5593 7.61328 27.506 7.69398 27.4527 7.74575C27.4786 8.27866 27.2928 8.75371 27.002 9.20745C26.6823 9.65814 26.259 10.0038 25.8342 10.3753C23.4741 12.4186 21.6166 14.8868 20.129 17.6472C18.1496 21.3624 17.1295 25.344 16.8402 29.5357C16.7077 31.0477 17.3183 36.3829 17.7948 37.9222C19.0951 42.0089 21.4308 45.4332 24.4562 48.4053C25.1993 49.121 25.9941 49.7848 26.8163 50.4228C27.0553 50.4228 27.0812 50.2096 27.136 50.0513C27.2408 49.7124 27.3207 49.3664 27.3751 49.0159L27.908 45.0358L27.6126 7.71986Z" fill="#6CAC48"/>
<path d="M28.913 51.5876C28.9663 50.9785 29.2587 50.473 29.5769 49.969C29.2571 49.8366 29.0196 49.5732 28.8339 49.2793C28.6737 49.0011 28.5411 48.7078 28.438 48.4038C28.0665 47.2893 27.9873 46.1199 27.8807 44.981V44.2913C27.7482 44.3978 27.7208 45.2992 27.7208 45.4332C27.6434 46.6369 27.4836 47.834 27.2427 49.0159C27.1636 49.494 27.1103 49.9706 26.8164 50.3954C26.8164 50.4487 26.8164 50.502 26.8423 50.5811C27.3204 51.988 27.4513 53.4208 27.532 54.881V55.4139C27.532 56.0503 27.5061 55.9163 28.0345 56.1295C28.2477 56.2087 28.4852 56.2361 28.6983 56.3944C28.8582 56.3944 28.8841 56.262 28.8841 56.1554L28.8049 55.2799V52.8376C28.779 52.4113 28.8582 51.988 28.9115 51.5891L28.913 51.5876Z" fill="#C2BFBF"/>
</svg>
