<svg width="68" height="33" viewBox="0 0 68 33" fill="none" xmlns="http://www.w3.org/2000/svg">
<path fill-rule="evenodd" clip-rule="evenodd" d="M0.000340916 32.8861C2.96393 33.1215 6.64139 32.9198 9.6839 32.9085C12.4506 32.8981 16.6636 33.2478 18.9459 32.1979C20.9522 31.275 22.9307 28.968 23.6684 26.5973C24.4372 24.1268 24.4437 19.5486 22.7514 18.0518C22.2202 18.3451 21.4109 19.243 20.6597 19.735C19.7905 20.3041 18.9229 20.4462 18.0982 20.9479C18.495 22.3202 19.2536 23.2704 18.304 25.0391C17.7288 26.1105 16.7231 26.91 15.2437 27.0131C13.2908 27.1492 7.27294 27.2465 5.50784 26.9624L5.4792 19.4738C8.88172 19.2054 14.8553 19.9806 17.7416 19.1968C19.4358 18.7366 20.6675 17.7077 21.6255 16.6629C24.4181 13.6174 24.2347 7.80846 30.8025 6.29203C35.98 5.09654 37.9845 8.11856 39.9022 9.64155C40.3469 9.35484 43.4145 5.73452 43.6623 5.12555C41.1794 3.23183 39.2691 0.679359 34.5075 0.145621C28.6683 -0.509012 23.3127 2.29049 20.3445 7.19201C19.5071 8.57501 18.7898 10.9489 17.9724 12.116C16.7911 13.8025 14.8575 13.5351 12.4605 13.5327C10.3833 13.5306 7.52197 13.6964 5.53869 13.4778L5.47068 6.13576C7.20901 5.83951 10.5624 6.08448 12.4605 6.07138C15.827 6.04817 16.1893 5.79272 18.1775 7.63685C18.8844 6.7393 19.289 5.62841 20.5721 4.02869C20.7584 3.79626 20.87 3.68884 21.049 3.47849L21.4885 2.83527C19.5406 -0.107773 14.6589 0.058973 11.9704 0.0585987C8.07341 0.0580373 3.86684 -0.0995388 0.00545466 0.104449L0 32.8863L0.000340916 32.8861Z" fill="#003290"/>
<path fill-rule="evenodd" clip-rule="evenodd" d="M38.2891 25.0594C40.2997 24.7437 42.3718 23.886 44.0143 23.1416C45.8522 22.3084 45.6102 21.8652 47.0154 18.3482C47.7547 16.4979 48.5134 14.703 49.2832 12.7691C49.7172 11.6786 51.1407 7.85201 51.6367 7.20262C52.1409 8.36292 54.3344 14.2862 54.7668 14.7769C55.384 14.359 57.9735 10.7909 58.2627 10.0523C58.5846 9.23089 58.1138 8.69697 57.8076 7.93024C57.4094 6.93313 55.0118 0.290601 54.4401 0.140137L48.5049 0.143505L38.2891 25.0594Z" fill="#118CFD"/>
<path fill-rule="evenodd" clip-rule="evenodd" d="M25.7526 23.8067C25.7087 24.9552 25.5128 26.0517 25.2068 27.0495C24.8835 28.1047 24.3499 28.8845 24.0777 29.7351C26.1844 31.8638 31.6723 33.0019 35.2552 32.6972C42.607 32.0721 49.4371 27.6031 53.5854 21.802C54.8834 19.9867 58.378 14.9508 59.0404 12.1006C58.5929 12.4743 57.0893 14.8806 55.3972 16.6173C52.1133 19.9882 50.4663 21.8724 45.2341 24.4654C31.6754 31.1851 26.7261 24.2004 25.7526 23.8067Z" fill="#003290"/>
<path fill-rule="evenodd" clip-rule="evenodd" d="M61.8241 32.8736L68 32.8639L64.1149 23.2431C63.4742 21.7406 60.6993 14.4995 60.1719 13.811C59.4277 15.3559 58.7377 16.7825 57.9009 18.2954C56.7733 20.3342 56.4119 19.5328 57.9391 23.0174L61.8243 32.8733L61.8241 32.8736Z" fill="#118CFD"/>
</svg>
