<svg width="60" height="65" viewBox="0 0 60 65" fill="none" xmlns="http://www.w3.org/2000/svg">
<path d="M27.2929 0.693458C28.9323 -0.229068 31.0677 -0.233235 32.7057 0.693458C40.9465 5.27113 49.1899 9.84164 57.4293 14.4221C58.979 15.2803 60.0156 16.9758 59.9998 18.7312V46.2723C60.0114 48.1004 58.8723 49.8365 57.2374 50.6752C49.0236 55.2276 40.8142 59.7856 32.6019 64.3381C30.9285 65.2786 28.7503 65.2062 27.1292 64.1885C24.6668 62.7852 22.2001 61.3888 19.7374 59.9868C19.2341 59.6919 18.6668 59.4571 18.3115 58.9775C18.6256 58.5612 19.1873 58.5094 19.6436 58.3276C20.6715 58.0063 21.6156 57.4905 22.5599 56.99C22.7987 56.8294 23.0902 56.891 23.3191 57.0347C25.4248 58.2216 27.5119 59.443 29.6247 60.6186C30.0754 60.8744 30.5317 60.5348 30.917 60.3236C38.9772 55.8453 47.0472 51.3838 55.106 46.9041C55.4046 46.7628 55.5697 46.4512 55.5454 46.1297C55.551 37.0445 55.5468 27.9577 55.5482 18.8724C55.5824 18.5076 55.3676 18.1722 55.032 18.0228C46.8468 13.4912 38.6659 8.95268 30.4821 4.41991C30.3403 4.32408 30.1723 4.27266 30.0002 4.27242C29.8282 4.27217 29.6601 4.3231 29.518 4.41852C21.3342 8.95268 13.1546 13.4954 4.97081 18.0268C4.63643 18.1763 4.41201 18.5062 4.45181 18.8724C4.45322 27.9577 4.45181 37.0445 4.45181 46.1311C4.43761 46.288 4.47267 46.4454 4.55224 46.5821C4.63182 46.7188 4.75209 46.8283 4.89687 46.8957C7.08076 48.1132 9.26747 49.3221 11.4528 50.5354C12.6839 51.1868 14.1955 51.5739 15.5518 51.0748C16.7488 50.6527 17.5878 49.4519 17.565 48.2025C17.5763 39.1703 17.5594 30.1368 17.5735 21.106C17.5436 20.705 17.9305 20.3737 18.327 20.4115C19.3764 20.4045 20.4271 20.3976 21.4764 20.4142C21.9144 20.4045 22.2158 20.8363 22.1617 21.2402C22.1574 30.3296 22.173 39.4192 22.1546 48.5086C22.1574 50.931 21.1451 53.5668 18.8658 54.7521C16.0579 56.1821 12.5873 55.8788 9.81332 54.5077C7.41185 53.3293 5.12011 51.9387 2.76126 50.6763C1.12205 49.8422 -0.0113361 48.0993 0.000202682 46.2725V18.7312C-0.0169877 16.9394 1.06083 15.2131 2.65883 14.3675C10.8711 9.81131 19.082 5.25169 27.2929 0.693458Z" fill="#8CC84B"/>
<path d="M34.4572 19.7714C38.0389 19.5448 41.8733 19.6371 45.0964 21.3718C47.5918 22.701 48.9753 25.4908 49.0194 28.2163C48.9497 28.5839 48.5587 28.7867 48.2018 28.7615C47.1626 28.7601 46.1231 28.7754 45.0839 28.7545C44.6431 28.7712 44.3869 28.3716 44.3316 27.9885C44.033 26.6845 43.3096 25.3929 42.061 24.7639C40.1444 23.8206 37.9221 23.868 35.8322 23.8877C34.3065 23.9673 32.6659 24.0972 31.3733 24.9792C30.381 25.6473 30.0796 26.9961 30.4337 28.0823C30.7676 28.8622 31.6834 29.1138 32.4328 29.3458C36.7492 30.4556 41.3232 30.3452 45.5573 31.8057C47.3102 32.4011 49.025 33.5586 49.625 35.3629C50.4099 37.7812 50.0659 40.6717 48.3157 42.613C46.8965 44.2106 44.8294 45.0801 42.7677 45.5524C40.025 46.1536 37.1787 46.1689 34.3934 45.902C31.7743 45.6084 29.0488 44.932 27.027 43.1777C25.298 41.7018 24.4536 39.4024 24.5374 37.183C24.5574 36.8082 24.937 36.5468 25.3023 36.5776C26.3488 36.5693 27.3953 36.5665 28.4418 36.579C28.8597 36.5496 29.1696 36.9047 29.1911 37.292C29.3842 38.5345 29.8591 39.8385 30.9612 40.5751C33.0881 41.9241 35.7569 41.8317 38.1922 41.8695C40.2099 41.7815 42.4748 41.7549 44.1213 40.4439C44.99 39.6961 45.2474 38.4451 45.0126 37.3689C44.7583 36.4602 43.7914 36.0368 42.961 35.7599C38.6999 34.4348 34.0748 34.9157 29.8549 33.4172C28.1418 32.822 26.4851 31.6967 25.8269 29.9664C24.9085 27.5176 25.3294 24.4887 27.2629 22.6128C29.1482 20.747 31.8697 20.0286 34.4572 19.7714Z" fill="#8CC84B"/>
</svg>
