<svg width="500" height="500" viewBox="0 0 500 500" fill="none" xmlns="http://www.w3.org/2000/svg">
<path d="M458.88 448.39C458.88 451.78 365.36 454.52 250 454.52C134.64 454.52 41.12 451.77 41.12 448.39C41.12 445.01 134.64 442.26 250 442.26C365.36 442.26 458.88 445.01 458.88 448.39Z" fill="#F5F5F5"/>
<path opacity="0.2" d="M373.89 396.23H336.85V394.52H373.85L373.89 396.23Z" fill="black"/>
<path d="M375.88 394.77H336.77V411.73H375.88V394.77Z" fill="#407BFF"/>
<path opacity="0.8" d="M375.88 394.77H336.77V411.73H375.88V394.77Z" fill="white"/>
<path opacity="0.2" d="M372.74 397.87L340.29 398.56L372.74 399.26V397.87Z" fill="black"/>
<path opacity="0.2" d="M372.74 404.14L338.38 404.72L372.74 405.22V404.14Z" fill="black"/>
<path opacity="0.2" d="M372.74 407.81L338.68 408.5L372.74 409.19V407.81Z" fill="black"/>
<path opacity="0.2" d="M336.78 400.29L369.72 401.29L336.78 401.97V400.29Z" fill="black"/>
<path d="M424.04 403.16C424.04 407.4 420.6 410.84 416.36 410.84H334.96C334.65 410.84 334.4 411.09 334.4 411.4V412.01C334.4 412.32 334.65 412.57 334.96 412.57H416.77C421.98 412.57 426.2 408.34 426.2 403.12V403.07C426.09 397.83 421.79 393.66 416.56 393.69H334.97C334.66 393.69 334.41 393.94 334.41 394.25V394.86C334.41 395.17 334.66 395.43 334.97 395.43H416.13C420.43 395.42 423.95 398.85 424.05 403.15L424.04 403.16Z" fill="#263238"/>
<path opacity="0.4" d="M424.04 403.16C424.04 407.4 420.6 410.84 416.36 410.84H334.96C334.65 410.84 334.4 411.09 334.4 411.4V412.01C334.4 412.32 334.65 412.57 334.96 412.57H416.77C421.98 412.57 426.2 408.34 426.2 403.12V403.07C426.09 397.83 421.79 393.66 416.56 393.69H334.97C334.66 393.69 334.41 393.94 334.41 394.25V394.86C334.41 395.17 334.66 395.43 334.97 395.43H416.13C420.43 395.42 423.95 398.85 424.05 403.15L424.04 403.16Z" fill="white"/>
<path d="M453.72 403.26C453.72 407.95 449.93 411.75 445.24 411.76H372.72V394.76H445.17C449.86 394.73 453.68 398.51 453.71 403.19C453.71 403.21 453.71 403.23 453.71 403.25L453.72 403.26Z" fill="#407BFF"/>
<path opacity="0.7" d="M372.73 394.77V411.77H445.23C449.92 411.77 453.73 407.97 453.73 403.27C453.73 398.57 449.93 394.77 445.23 394.77H372.73Z" fill="white"/>
<path opacity="0.2" d="M372.74 399.26V397.87L445 398.45L372.74 399.26Z" fill="black"/>
<path opacity="0.2" d="M372.74 405.22V404.14L405.18 405.31L372.74 405.22Z" fill="black"/>
<path opacity="0.2" d="M372.74 409.19V407.81L425.04 408.62L372.74 409.19Z" fill="black"/>
<path opacity="0.2" d="M445.35 396.42C446.74 396.42 448.09 396.94 449.12 397.88C448.67 398.76 448.31 399.68 448.06 400.64L375.61 401.2L447.93 401.38C447.82 401.97 447.76 402.57 447.76 403.17C447.76 403.87 447.84 404.58 448 405.26L399.18 406.33L448.46 406.89C448.88 408.07 449.43 409.2 450.1 410.26C453.96 407.59 454.92 402.29 452.25 398.44C450.67 396.15 448.06 394.79 445.28 394.78H372.74V396.43L445.36 396.41L445.35 396.42Z" fill="black"/>
<path d="M453.05 403.16C453.05 407.4 449.61 410.84 445.37 410.84H371.52C371.21 410.84 370.96 411.09 370.96 411.4V412.01C370.96 412.32 371.21 412.57 371.52 412.57H445.76C450.97 412.57 455.19 408.34 455.19 403.12V403.07C455.08 397.83 450.78 393.66 445.55 393.69H371.52C371.21 393.69 370.96 393.94 370.96 394.25V394.86C370.96 395.17 371.21 395.43 371.52 395.43H445.18C449.46 395.44 452.95 398.87 453.05 403.15V403.16Z" fill="#263238"/>
<path d="M445 401V407.81L442.53 405.35L440.14 407.74V401H445Z" fill="#407BFF"/>
<path d="M439.42 432.62H348.37V447.28H439.42V432.62Z" fill="#407BFF"/>
<path opacity="0.7" d="M439.42 432.62H348.37V447.28H439.42V432.62Z" fill="white"/>
<path opacity="0.2" d="M348.37 436.5V435.3L410.71 435.8L348.37 436.5Z" fill="black"/>
<path opacity="0.2" d="M348.37 441.63V440.71L376.36 441.71L348.37 441.63Z" fill="black"/>
<path opacity="0.2" d="M348.37 445.06V443.88L393.49 444.56L348.37 445.06Z" fill="black"/>
<path opacity="0.2" d="M419.07 432.59L420.36 443.54L418.82 441.85C418.3 443.85 417.32 445.7 415.96 447.25C414.98 445.97 414.2 444.55 413.64 443.04L371.12 442.55L413.24 441.62C413.11 441.03 413.04 440.42 413.03 439.81C413.03 439.29 413.08 438.78 413.18 438.27L350.79 438.12L413.3 437.63C413.52 436.81 413.83 436.01 414.22 435.26C413.33 434.45 412.16 434 410.96 434H348.38V432.58H419.08L419.07 432.59Z" fill="black"/>
<path d="M417.66 439.86C417.66 443.52 414.68 446.49 411.02 446.48H347.31C347.04 446.48 346.82 446.7 346.82 446.97V447.49C346.82 447.76 347.04 447.98 347.31 447.98H446.42C450.92 447.98 454.56 444.33 454.55 439.83V439.78C454.44 435.26 450.73 431.66 446.21 431.71H347.31C347.04 431.71 346.82 431.93 346.82 432.2V432.72C346.82 432.99 347.04 433.21 347.31 433.21H410.82C414.52 433.21 417.55 436.15 417.65 439.85L417.66 439.86Z" fill="#407BFF"/>
<path opacity="0.2" d="M417.66 439.86C417.66 443.52 414.68 446.49 411.02 446.48H347.31C347.04 446.48 346.82 446.7 346.82 446.97V447.49C346.82 447.76 347.04 447.98 347.31 447.98H446.42C450.92 447.98 454.56 444.33 454.55 439.83V439.78C454.44 435.26 450.73 431.66 446.21 431.71H347.31C347.04 431.71 346.82 431.93 346.82 432.2V432.72C346.82 432.99 347.04 433.21 347.31 433.21H410.82C414.52 433.21 417.55 436.15 417.65 439.85L417.66 439.86Z" fill="black"/>
<path d="M417.66 439.86C417.66 443.52 414.68 446.49 411.02 446.48H347.31C347.04 446.48 346.82 446.7 346.82 446.97V447.49C346.82 447.76 347.04 447.98 347.31 447.98H411.36C415.85 447.98 419.49 444.34 419.49 439.85V439.78C419.38 435.26 415.67 431.66 411.15 431.71H347.31C347.04 431.71 346.82 431.93 346.82 432.2V432.72C346.82 432.99 347.04 433.21 347.31 433.21H410.82C414.52 433.21 417.55 436.15 417.65 439.85L417.66 439.86Z" fill="#407BFF"/>
<path opacity="0.2" d="M417.66 439.86C417.66 443.52 414.68 446.49 411.02 446.48H347.31C347.04 446.48 346.82 446.7 346.82 446.97V447.49C346.82 447.76 347.04 447.98 347.31 447.98H411.36C415.85 447.98 419.49 444.34 419.49 439.85V439.78C419.38 435.26 415.67 431.66 411.15 431.71H347.31C347.04 431.71 346.82 431.93 346.82 432.2V432.72C346.82 432.99 347.04 433.21 347.31 433.21H410.82C414.52 433.21 417.55 436.15 417.65 439.85L417.66 439.86Z" fill="white"/>
<path d="M453.34 413.79H344.62V431.29H453.34V413.79Z" fill="#407BFF"/>
<path opacity="0.8" d="M453.34 413.79H344.62V431.29H453.34V413.79Z" fill="white"/>
<path opacity="0.2" d="M344.62 418.42V416.99L419.05 417.59L344.62 418.42Z" fill="black"/>
<path opacity="0.2" d="M344.62 424.55V423.45L378.04 424.65L344.62 424.55Z" fill="black"/>
<path opacity="0.2" d="M344.62 428.65V427.23L398.5 428.05L344.62 428.65Z" fill="black"/>
<path opacity="0.2" d="M429.03 413.79L430.61 426.83L428.77 424.85C428.14 427.24 426.97 429.44 425.35 431.3C424.18 429.78 423.25 428.08 422.59 426.28L371.82 425.7L422.12 424.6C421.97 423.89 421.89 423.16 421.88 422.43C421.88 421.81 421.94 421.19 422.06 420.59L347.56 420.41L422.2 419.83C422.46 418.85 422.83 417.89 423.3 416.99C422.23 416.03 420.85 415.49 419.41 415.5H344.64V413.79H429.06H429.03Z" fill="black"/>
<path d="M427.33 422.44C427.33 426.81 423.78 430.35 419.41 430.35H343.37C343.05 430.35 342.79 430.62 342.79 430.94V431.57C342.79 431.89 343.05 432.15 343.37 432.15H455.79C461.16 432.15 465.51 427.79 465.5 422.42V422.36C465.34 416.96 460.88 412.69 455.48 412.77H343.36C343.04 412.77 342.78 413.03 342.78 413.35V413.98C342.78 414.3 343.04 414.56 343.36 414.57H419.2C423.59 414.57 427.18 418.06 427.33 422.45V422.44Z" fill="#407BFF"/>
<path d="M427.33 422.44C427.33 426.81 423.78 430.35 419.41 430.35H343.37C343.05 430.35 342.79 430.62 342.79 430.94V431.57C342.79 431.89 343.05 432.15 343.37 432.15H419.85C425.22 432.15 429.57 427.79 429.56 422.42V422.36C429.4 417 424.99 412.74 419.63 412.77H343.37C343.05 412.77 342.79 413.03 342.79 413.35V413.98C342.79 414.3 343.05 414.56 343.37 414.57H419.21C423.6 414.57 427.19 418.06 427.34 422.45L427.33 422.44Z" fill="#407BFF"/>
<path opacity="0.6" d="M427.33 422.44C427.33 426.81 423.78 430.35 419.41 430.35H343.37C343.05 430.35 342.79 430.62 342.79 430.94V431.57C342.79 431.89 343.05 432.15 343.37 432.15H419.85C425.22 432.15 429.57 427.79 429.56 422.42V422.36C429.4 417 424.99 412.74 419.63 412.77H343.37C343.05 412.77 342.79 413.03 342.79 413.35V413.98C342.79 414.3 343.05 414.56 343.37 414.57H419.21C423.6 414.57 427.19 418.06 427.34 422.45L427.33 422.44Z" fill="white"/>
<path d="M427.97 381.32H352.58V393.46H427.97V381.32Z" fill="#407BFF"/>
<path opacity="0.7" d="M427.97 381.32H352.58V393.46H427.97V381.32Z" fill="white"/>
<path opacity="0.2" d="M352.58 384.53V383.54L404.2 383.95L352.58 384.53Z" fill="black"/>
<path opacity="0.2" d="M352.58 388.78V388.02L375.76 388.85L352.58 388.78Z" fill="black"/>
<path opacity="0.2" d="M352.58 391.62V390.64L389.94 391.21L352.58 391.62Z" fill="black"/>
<path opacity="0.2" d="M411.12 381.32L412.21 390.37L410.93 388.99C410.5 390.64 409.68 392.18 408.56 393.46C407.75 392.4 407.1 391.23 406.64 389.98L371.43 389.58L406.31 388.81C406.2 388.32 406.15 387.81 406.14 387.31C406.14 386.88 406.18 386.45 406.26 386.03L354.59 385.9L406.35 385.5C406.53 384.82 406.79 384.16 407.11 383.53C406.37 382.86 405.41 382.5 404.41 382.49H352.56V381.3L411.1 381.32H411.12Z" fill="black"/>
<path d="M409.96 387.31C409.96 390.34 407.5 392.8 404.46 392.8H351.71C351.49 392.8 351.31 392.98 351.31 393.2V393.63C351.31 393.85 351.49 394.03 351.71 394.03H433.78C437.5 394.03 440.51 391.02 440.52 387.31V387.25C440.43 383.51 437.35 380.53 433.61 380.57H351.71C351.49 380.57 351.31 380.76 351.31 380.98V381.41C351.31 381.63 351.49 381.81 351.71 381.81H404.3C407.36 381.81 409.87 384.24 409.96 387.31Z" fill="#263238"/>
<path opacity="0.2" d="M409.96 387.31C409.96 390.34 407.5 392.8 404.46 392.8H351.71C351.49 392.8 351.31 392.98 351.31 393.2V393.63C351.31 393.85 351.49 394.03 351.71 394.03H433.78C437.5 394.03 440.51 391.02 440.52 387.31V387.25C440.43 383.51 437.35 380.53 433.61 380.57H351.71C351.49 380.57 351.31 380.76 351.31 380.98V381.41C351.31 381.63 351.49 381.81 351.71 381.81H404.3C407.36 381.81 409.87 384.24 409.96 387.31Z" fill="white"/>
<path d="M409.96 387.31C409.96 390.34 407.5 392.8 404.46 392.8H351.71C351.49 392.8 351.31 392.98 351.31 393.2V393.63C351.31 393.85 351.49 394.03 351.71 394.03H404.75C408.47 394.03 411.48 391.02 411.49 387.31V387.25C411.4 383.51 408.32 380.54 404.58 380.57H351.71C351.49 380.57 351.31 380.76 351.31 380.98V381.41C351.31 381.63 351.49 381.81 351.71 381.81H404.3C407.36 381.81 409.87 384.24 409.96 387.31Z" fill="#263238"/>
<path opacity="0.4" d="M409.96 387.31C409.96 390.34 407.5 392.8 404.46 392.8H351.71C351.49 392.8 351.31 392.98 351.31 393.2V393.63C351.31 393.85 351.49 394.03 351.71 394.03H404.75C408.47 394.03 411.48 391.02 411.49 387.31V387.25C411.4 383.51 408.32 380.54 404.58 380.57H351.71C351.49 380.57 351.31 380.76 351.31 380.98V381.41C351.31 381.63 351.49 381.81 351.71 381.81H404.3C407.36 381.81 409.87 384.24 409.96 387.31Z" fill="white"/>
<path opacity="0.2" d="M117.32 430.51H80.28V428.79H117.29L117.32 430.51Z" fill="black"/>
<path opacity="0.2" d="M117.33 433.42V431.99L191.77 432.59L117.33 433.42Z" fill="black"/>
<path d="M114.41 429.21H76.09V445.83H114.41V429.21Z" fill="#407BFF"/>
<path opacity="0.8" d="M114.41 429.21H76.09V445.83H114.41V429.21Z" fill="white"/>
<path opacity="0.2" d="M111.34 432.25L79.54 432.93L111.34 433.61V432.25Z" fill="black"/>
<path opacity="0.2" d="M111.34 438.4L77.66 438.97L111.34 439.45V438.4Z" fill="black"/>
<path opacity="0.2" d="M111.34 441.99L77.96 442.67L111.34 443.34V441.99Z" fill="black"/>
<path opacity="0.2" d="M76.1 434.62L108.38 435.6L76.1 436.27V434.62Z" fill="black"/>
<path d="M161.61 437.43C161.61 441.59 158.24 444.95 154.08 444.96H74.32C74.02 444.96 73.77 445.21 73.77 445.51V446.11C73.77 446.42 74.02 446.66 74.32 446.66H154.49C159.6 446.66 163.73 442.51 163.73 437.4V437.35C163.62 432.22 159.41 428.13 154.28 428.16H74.32C74.02 428.16 73.77 428.41 73.77 428.71V429.31C73.77 429.62 74.02 429.87 74.32 429.87H153.85C158.06 429.86 161.51 433.22 161.61 437.43Z" fill="#263238"/>
<path opacity="0.4" d="M161.61 437.43C161.61 441.59 158.24 444.95 154.08 444.96H74.32C74.02 444.96 73.77 445.21 73.77 445.51V446.11C73.77 446.42 74.02 446.66 74.32 446.66H154.49C159.6 446.66 163.73 442.51 163.73 437.4V437.35C163.62 432.22 159.41 428.13 154.28 428.16H74.32C74.02 428.16 73.77 428.41 73.77 428.71V429.31C73.77 429.62 74.02 429.87 74.32 429.87H153.85C158.06 429.86 161.51 433.22 161.61 437.43Z" fill="white"/>
<path d="M190.69 437.53C190.69 442.12 186.97 445.85 182.38 445.86H111.32V429.21H182.32C186.91 429.18 190.66 432.88 190.69 437.48C190.69 437.5 190.69 437.52 190.69 437.54V437.53Z" fill="#407BFF"/>
<path opacity="0.7" d="M111.32 429.21V445.86H182.36C186.96 445.86 190.69 442.13 190.69 437.53C190.69 432.93 186.96 429.2 182.36 429.2H111.32V429.21Z" fill="white"/>
<path opacity="0.2" d="M111.34 439.45V438.4L143.12 439.54L111.34 439.45Z" fill="black"/>
<path opacity="0.2" d="M111.34 443.34V441.99L162.59 442.78L111.34 443.34Z" fill="black"/>
<path opacity="0.2" d="M182.49 430.83C183.86 430.83 185.17 431.34 186.19 432.26C185.75 433.12 185.4 434.03 185.15 434.96L114.15 435.51L185.02 435.69C184.91 436.27 184.85 436.85 184.85 437.44C184.85 438.13 184.93 438.82 185.09 439.49L137.25 440.54L185.54 441.09C185.95 442.25 186.49 443.35 187.14 444.39C190.92 441.77 191.86 436.58 189.24 432.8C187.69 430.56 185.14 429.22 182.41 429.21H111.32V430.83L182.49 430.81V430.83Z" fill="black"/>
<path d="M190.04 437.43C190.04 441.59 186.67 444.95 182.51 444.96H110.14C109.84 444.96 109.59 445.21 109.59 445.51V446.11C109.59 446.42 109.84 446.66 110.14 446.66H182.89C188 446.66 192.13 442.51 192.13 437.4V437.35C192.02 432.22 187.81 428.13 182.68 428.16H110.14C109.84 428.16 109.59 428.41 109.59 428.71V429.31C109.59 429.62 109.84 429.87 110.14 429.87H182.32C186.52 429.88 189.94 433.24 190.03 437.43H190.04Z" fill="#263238"/>
<path d="M182.15 435.32V441.99L179.73 439.58L177.39 441.92V435.32H182.15Z" fill="#407BFF"/>
<path d="M172.67 401.78H108.02V412.19H172.67V401.78Z" fill="#407BFF"/>
<path opacity="0.8" d="M172.67 401.78H108.02V412.19H172.67V401.78Z" fill="white"/>
<path opacity="0.2" d="M172.67 404.54V403.69L128.41 404.04L172.67 404.54Z" fill="black"/>
<path opacity="0.2" d="M172.67 408.18V407.53L152.8 408.24L172.67 408.18Z" fill="black"/>
<path opacity="0.2" d="M172.67 410.62V409.77L140.63 410.26L172.67 410.62Z" fill="black"/>
<path opacity="0.2" d="M122.47 401.78L121.53 409.53L122.63 408.35C123 409.77 123.7 411.08 124.66 412.19C125.36 411.28 125.91 410.28 126.3 409.2L156.49 408.85L126.58 408.2C126.67 407.78 126.72 407.35 126.72 406.91C126.72 406.54 126.68 406.18 126.62 405.81L170.92 405.7L126.54 405.35C126.39 404.77 126.17 404.2 125.89 403.66C126.52 403.09 127.35 402.77 128.2 402.77H172.66V401.75H122.46L122.47 401.78Z" fill="black"/>
<path d="M123.49 406.92C123.49 409.52 125.6 411.62 128.2 411.62H173.42C173.61 411.62 173.77 411.78 173.77 411.97V412.34C173.77 412.53 173.62 412.69 173.42 412.69H106.57C103.38 412.69 100.79 410.1 100.79 406.9V406.87C100.89 403.66 103.54 401.12 106.75 401.17H173.42C173.61 401.17 173.77 401.32 173.77 401.52V401.89C173.77 402.08 173.62 402.24 173.42 402.24H128.32C125.71 402.24 123.57 404.32 123.49 406.92Z" fill="#407BFF"/>
<path opacity="0.4" d="M123.49 406.92C123.49 409.52 125.6 411.62 128.2 411.62H173.42C173.61 411.62 173.77 411.78 173.77 411.97V412.34C173.77 412.53 173.62 412.69 173.42 412.69H106.57C103.38 412.69 100.79 410.1 100.79 406.9V406.87C100.89 403.66 103.54 401.12 106.75 401.17H173.42C173.61 401.17 173.77 401.32 173.77 401.52V401.89C173.77 402.08 173.62 402.24 173.42 402.24H128.32C125.71 402.24 123.57 404.32 123.49 406.92Z" fill="white"/>
<path d="M123.49 406.92C123.49 409.52 125.6 411.62 128.2 411.62H173.42C173.61 411.62 173.77 411.78 173.77 411.97V412.34C173.77 412.53 173.62 412.69 173.42 412.69H127.94C124.75 412.69 122.16 410.1 122.16 406.9V406.87C122.26 403.68 124.88 401.15 128.07 401.17H173.42C173.61 401.17 173.77 401.32 173.77 401.52V401.89C173.77 402.08 173.62 402.24 173.42 402.24H128.32C125.71 402.24 123.57 404.32 123.49 406.92Z" fill="#407BFF"/>
<path opacity="0.6" d="M123.49 406.92C123.49 409.52 125.6 411.62 128.2 411.62H173.42C173.61 411.62 173.77 411.78 173.77 411.97V412.34C173.77 412.53 173.62 412.69 173.42 412.69H127.94C124.75 412.69 122.16 410.1 122.16 406.9V406.87C122.26 403.68 124.88 401.15 128.07 401.17H173.42C173.61 401.17 173.77 401.32 173.77 401.52V401.89C173.77 402.08 173.62 402.24 173.42 402.24H128.32C125.71 402.24 123.57 404.32 123.49 406.92Z" fill="white"/>
<path d="M176.77 412.87H87.38V427.26H176.77V412.87Z" fill="#407BFF"/>
<path opacity="0.7" d="M176.77 412.87H87.38V427.26H176.77V412.87Z" fill="white"/>
<path opacity="0.2" d="M87.37 416.68V415.5L148.58 416L87.37 416.68Z" fill="black"/>
<path opacity="0.2" d="M87.37 421.72V420.82L114.85 421.8L87.37 421.72Z" fill="black"/>
<path opacity="0.2" d="M87.37 425.09V423.93L131.67 424.6L87.37 425.09Z" fill="black"/>
<path opacity="0.2" d="M156.78 412.87L158.08 423.6L156.56 421.96C156.04 423.92 155.08 425.74 153.75 427.26C152.79 426.01 152.02 424.61 151.48 423.13L109.73 422.65L151.08 421.74C150.95 421.15 150.89 420.56 150.88 419.96C150.88 419.45 150.93 418.94 151.02 418.44L89.76 418.28L151.13 417.8C151.35 416.99 151.65 416.21 152.03 415.47C151.15 414.68 150.01 414.24 148.83 414.24H87.35V412.83L156.76 412.85L156.78 412.87Z" fill="black"/>
<path d="M155.41 419.98C155.41 423.58 152.49 426.49 148.89 426.49H86.34C86.08 426.49 85.86 426.7 85.86 426.97V427.49C85.86 427.75 86.07 427.97 86.34 427.97H183.65C188.06 427.97 191.63 424.41 191.64 420V419.92C191.54 415.48 187.89 411.95 183.45 411.99H86.34C86.08 411.99 85.86 412.21 85.86 412.47V412.99C85.86 413.25 86.07 413.47 86.34 413.47H148.7C152.33 413.47 155.31 416.36 155.41 419.99V419.98Z" fill="#407BFF"/>
<path d="M155.41 419.98C155.41 423.58 152.49 426.49 148.89 426.49H86.34C86.08 426.49 85.86 426.7 85.86 426.97V427.49C85.86 427.75 86.07 427.97 86.34 427.97H149.23C153.64 427.97 157.21 424.41 157.22 420C157.22 419.97 157.22 419.95 157.22 419.92C157.11 415.49 153.46 411.96 149.03 411.99H86.35C86.09 411.99 85.87 412.21 85.87 412.47V412.99C85.87 413.25 86.08 413.47 86.35 413.47H148.71C152.34 413.47 155.32 416.36 155.42 419.99L155.41 419.98Z" fill="#407BFF"/>
<path d="M235.124 88.4166L57.7573 108.5L85.6057 354.448L262.972 334.365L235.124 88.4166Z" fill="#407BFF"/>
<path opacity="0.8" d="M235.124 88.4166L57.7573 108.5L85.6057 354.448L262.972 334.365L235.124 88.4166Z" fill="white"/>
<path d="M99.26 134.48L99.76 138.86L83.68 140.68L81.41 120.65L97.12 118.87L97.62 123.25L87.52 124.39L87.9 127.77L96.8 126.76L97.28 130.99L88.38 132L88.79 135.66L99.26 134.47V134.48Z" fill="#407BFF"/>
<path d="M115.37 137.09L110.52 131.35L107.13 138.02L100.66 138.75L106.81 127.8L98.7101 118.69L105.09 117.97L109.75 123.3L113.04 117.07L119.16 116.38L113.27 126.84L121.88 136.35L115.36 137.09H115.37Z" fill="#407BFF"/>
<path d="M135.7 130.85L127.23 131.81L126.1 135.88L120.32 136.53L126.89 115.5L132.47 114.87L143.61 133.89L137.72 134.56L135.71 130.85H135.7ZM133.57 126.86L130.27 120.74L128.42 127.44L133.57 126.86Z" fill="#407BFF"/>
<path d="M163.29 131.66L162.03 121.05L157.86 130.27L155.34 130.56L149.27 122.79L150.44 133.12L145.2 133.71L142.93 113.68L147.59 113.15L155.94 123.91L161.5 111.58L166.16 111.05L168.49 131.07L163.28 131.66H163.29Z" fill="#407BFF"/>
<path opacity="0.2" d="M215.261 108.403L176.877 112.75L177.265 116.178L215.65 111.831L215.261 108.403Z" fill="#407BFF"/>
<path opacity="0.2" d="M210.585 143.254L91.1385 156.778L91.6426 161.23L211.089 147.705L210.585 143.254Z" fill="#407BFF"/>
<path opacity="0.2" d="M209.027 116.171L178.194 119.662L178.582 123.09L209.415 119.599L209.027 116.171Z" fill="#407BFF"/>
<path opacity="0.2" d="M85.3766 156.692L80.1897 157.28L80.777 162.467L85.9639 161.879L85.3766 156.692Z" fill="#407BFF"/>
<path opacity="0.2" d="M218.564 213.728L99.1176 227.253L99.6216 231.704L219.068 218.18L218.564 213.728Z" fill="#407BFF"/>
<path opacity="0.2" d="M93.3656 227.167L88.1787 227.754L88.766 232.941L93.9529 232.354L93.3656 227.167Z" fill="#407BFF"/>
<path opacity="0.2" d="M225.419 274.154L105.972 287.679L106.476 292.13L225.923 278.606L225.419 274.154Z" fill="#407BFF"/>
<path opacity="0.2" d="M100.2 287.594L95.0131 288.181L95.6004 293.368L100.787 292.781L100.2 287.594Z" fill="#407BFF"/>
<path opacity="0.2" d="M213.163 157.235L107.737 169.172L108.241 173.624L213.667 161.687L213.163 157.235Z" fill="#407BFF"/>
<path opacity="0.2" d="M150.739 174.96L108.927 179.695L109.431 184.146L151.243 179.412L150.739 174.96Z" fill="#407BFF"/>
<path opacity="0.2" d="M94.02 177.56L93.13 169.71L100.98 168.82L101.87 176.67L94.02 177.56ZM93.96 170.37L94.68 176.73L101.04 176.01L100.32 169.65L93.96 170.37Z" fill="#407BFF"/>
<path opacity="0.2" d="M216.335 185.251L110.908 197.188L111.412 201.64L216.839 189.702L216.335 185.251Z" fill="#407BFF"/>
<path opacity="0.2" d="M153.911 202.966L112.098 207.701L112.602 212.152L154.415 207.418L153.911 202.966Z" fill="#407BFF"/>
<path opacity="0.2" d="M97.19 205.57L96.3 197.72L104.15 196.83L105.04 204.68L97.19 205.57ZM97.13 198.38L97.85 204.74L104.21 204.02L103.49 197.66L97.13 198.38Z" fill="#407BFF"/>
<path opacity="0.2" d="M221.479 230.722L116.052 242.66L116.557 247.111L221.983 235.174L221.479 230.722Z" fill="#407BFF"/>
<path opacity="0.2" d="M159.18 249.567L117.367 254.302L117.871 258.753L159.684 254.019L159.18 249.567Z" fill="#407BFF"/>
<path opacity="0.2" d="M102.34 251.05L101.45 243.2L109.3 242.31L110.19 250.16L102.34 251.05ZM102.28 243.86L103 250.22L109.36 249.5L108.64 243.14L102.28 243.86Z" fill="#407BFF"/>
<path opacity="0.2" d="M103.59 262.1L102.7 254.25L110.55 253.36L111.44 261.21L103.59 262.1ZM103.53 254.91L104.25 261.27L110.61 260.55L109.89 254.19L103.53 254.91Z" fill="#407BFF"/>
<path opacity="0.2" d="M184.603 258.375L118.684 265.839L119.188 270.29L185.107 262.827L184.603 258.375Z" fill="#407BFF"/>
<path opacity="0.2" d="M104.9 273.63L104.01 265.78L111.86 264.89L112.75 272.74L104.9 273.63ZM104.84 266.44L105.56 272.8L111.92 272.08L111.2 265.72L104.84 266.44Z" fill="#407BFF"/>
<path opacity="0.2" d="M228.121 289.333L122.694 301.271L123.198 305.722L228.625 293.785L228.121 289.333Z" fill="#407BFF"/>
<path opacity="0.2" d="M165.823 308.188L124.01 312.922L124.515 317.374L166.327 312.639L165.823 308.188Z" fill="#407BFF"/>
<path opacity="0.2" d="M108.98 309.66L108.09 301.81L115.94 300.92L116.83 308.77L108.98 309.66ZM108.92 302.47L109.64 308.83L116 308.11L115.28 301.75L108.92 302.47Z" fill="#407BFF"/>
<path opacity="0.2" d="M110.23 320.71L109.34 312.86L117.19 311.97L118.08 319.82L110.23 320.71ZM110.17 313.52L110.89 319.88L117.25 319.16L116.53 312.8L110.17 313.52Z" fill="#407BFF"/>
<path opacity="0.2" d="M191.235 316.986L125.316 324.45L125.82 328.901L191.739 321.437L191.235 316.986Z" fill="#407BFF"/>
<path opacity="0.2" d="M111.54 332.24L110.65 324.39L118.5 323.5L119.39 331.35L111.54 332.24ZM111.48 325.05L112.2 331.41L118.56 330.69L117.84 324.33L111.48 325.05Z" fill="#407BFF"/>
<path d="M310.86 198.46C321.304 198.46 329.77 189.994 329.77 179.55C329.77 169.106 321.304 160.64 310.86 160.64C300.416 160.64 291.95 169.106 291.95 179.55C291.95 189.994 300.416 198.46 310.86 198.46Z" fill="#407BFF"/>
<path d="M324.63 162.59C324.57 162.59 324.51 162.57 324.46 162.52C319.72 158.05 312.57 156.19 306.25 157.78C306.12 157.81 305.98 157.73 305.95 157.6C305.92 157.47 306 157.33 306.13 157.3C312.61 155.66 319.94 157.57 324.8 162.16C324.9 162.25 324.9 162.41 324.8 162.51C324.75 162.56 324.68 162.59 324.62 162.59H324.63Z" fill="#407BFF"/>
<path d="M300.47 159.75C300.39 159.75 300.31 159.71 300.26 159.64C300.18 159.52 300.22 159.37 300.33 159.29C301.2 158.72 302.2 158.32 303.22 158.14C303.36 158.11 303.49 158.21 303.51 158.34C303.53 158.48 303.44 158.61 303.31 158.63C302.35 158.8 301.42 159.17 300.61 159.71C300.57 159.74 300.52 159.75 300.47 159.75Z" fill="#407BFF"/>
<path d="M300.93 200.4C300.93 201.55 300 202.49 298.84 202.49C297.68 202.49 296.75 201.56 296.75 200.4C296.75 199.24 297.68 198.31 298.84 198.31C300 198.31 300.93 199.24 300.93 200.4Z" fill="#407BFF"/>
<path d="M310.89 177.01C312.23 177.01 313.31 178.1 313.31 179.43C313.31 180.76 312.22 181.85 310.89 181.85C309.56 181.85 308.47 180.76 308.47 179.43C308.47 178.1 309.56 177.01 310.89 177.01Z" fill="white"/>
<path d="M302.58 177.01C303.92 177.01 305 178.1 305 179.43C305 180.76 303.91 181.85 302.58 181.85C301.25 181.85 300.16 180.76 300.16 179.43C300.16 178.1 301.25 177.01 302.58 177.01Z" fill="white"/>
<path d="M318.89 177.01C320.23 177.01 321.31 178.1 321.31 179.43C321.31 180.76 320.22 181.85 318.89 181.85C317.56 181.85 316.47 180.76 316.47 179.43C316.47 178.1 317.56 177.01 318.89 177.01Z" fill="white"/>
<path d="M243.81 180.24C243.81 182.74 241.78 184.77 239.28 184.77C236.78 184.77 234.75 182.74 234.75 180.24C234.75 177.74 236.78 175.71 239.28 175.71C241.78 175.71 243.81 177.74 243.81 180.24Z" fill="#407BFF"/>
<path d="M231 186C231 187.78 229.56 189.23 227.77 189.23C225.98 189.23 224.54 187.79 224.54 186C224.54 184.21 225.98 182.77 227.77 182.77C229.56 182.77 231 184.21 231 186Z" fill="#407BFF"/>
<path d="M234.36 172.27C234.36 173.38 233.46 174.29 232.34 174.29C231.22 174.29 230.32 173.39 230.32 172.27C230.32 171.15 231.22 170.25 232.34 170.25C233.46 170.25 234.36 171.15 234.36 172.27Z" fill="#407BFF"/>
<path d="M249 185.63C250.116 185.63 251.02 184.725 251.02 183.61C251.02 182.494 250.116 181.59 249 181.59C247.884 181.59 246.98 182.494 246.98 183.61C246.98 184.725 247.884 185.63 249 185.63Z" fill="#407BFF"/>
<path d="M249.36 177.05C250.884 177.05 252.12 175.814 252.12 174.29C252.12 172.765 250.884 171.53 249.36 171.53C247.836 171.53 246.6 172.765 246.6 174.29C246.6 175.814 247.836 177.05 249.36 177.05Z" fill="#407BFF"/>
<path d="M245.22 194.51C245.22 196.29 243.78 197.74 241.99 197.74C240.2 197.74 238.76 196.3 238.76 194.51C238.76 192.72 240.2 191.28 241.99 191.28C243.78 191.28 245.22 192.72 245.22 194.51Z" fill="#407BFF"/>
<path d="M241.75 194.13L240.69 182.04L237.91 181.31L228.47 185.42L228.27 184.97L237.87 180.78L241.16 181.65L242.24 194.09L241.75 194.13Z" fill="#407BFF"/>
<path d="M247.96 183.7L242.83 182.49L236.37 177.99L232.14 172.43L232.54 172.12L236.74 177.65L243.08 182.06L248.08 183.22L247.96 183.7Z" fill="#407BFF"/>
<path d="M247.39 175.105L239.967 180.176L240.249 180.589L247.672 175.517L247.39 175.105Z" fill="#407BFF"/>
<path d="M184.11 238.32C184.63 236.73 185.34 235.21 186.23 233.8C186.63 233.15 187.06 232.53 187.54 231.93C188.76 230.36 190.19 228.96 191.8 227.79C192.12 227.56 192.41 227.35 192.74 227.14C193.41 226.69 194.12 226.28 194.85 225.93C195.31 225.69 195.78 225.47 196.26 225.28C196.95 224.99 197.66 224.73 198.38 224.52C199.34 224.24 200.31 224.02 201.3 223.88C202.52 223.71 203.76 223.63 205 223.66C208.66 223.73 212.24 224.74 215.38 226.61H215.41C216.32 227.14 217.19 227.74 218 228.41C218.38 228.72 218.75 229.04 219.11 229.37C219.47 229.7 219.84 230.07 220.19 230.45C220.43 230.7 220.67 230.97 220.9 231.26C221.2 231.61 221.49 231.98 221.76 232.36C222.36 233.15 222.9 233.99 223.38 234.85C223.51 235.09 223.64 235.34 223.75 235.58C224.15 236.37 224.49 237.19 224.78 238.03C224.9 238.37 225.01 238.71 225.11 239.05C225.57 240.63 225.84 242.26 225.92 243.9C225.95 244.48 225.97 245.05 225.95 245.63C225.95 245.93 225.95 246.22 225.91 246.5C225.88 246.96 225.84 247.42 225.78 247.87C225.66 248.79 225.48 249.71 225.24 250.61C225.09 251.2 224.91 251.77 224.7 252.34C224.47 253.02 224.2 253.69 223.89 254.34C223.33 255.52 222.66 256.64 221.89 257.69C221.45 258.32 220.96 258.92 220.44 259.49C219.84 260.15 219.21 260.78 218.53 261.36C217.82 261.97 217.08 262.53 216.31 263.04C215.33 263.69 214.3 264.25 213.23 264.73C212.43 265.09 211.6 265.4 210.75 265.66C210.09 265.86 209.41 266.03 208.73 266.17H208.71C204.42 267.03 199.96 266.55 195.95 264.8C195.38 264.56 194.83 264.28 194.29 263.99C193.91 263.78 193.53 263.56 193.17 263.34C192.71 263.06 192.28 262.76 191.86 262.45C191.64 262.28 191.42 262.12 191.21 261.95C190.44 261.34 189.71 260.68 189.03 259.97C186.73 257.57 185.02 254.66 184.03 251.48C183.54 249.92 183.23 248.31 183.12 246.67C183.08 245.99 183.06 245.3 183.08 244.6C183.09 243.95 183.14 243.3 183.23 242.65C183.38 241.18 183.68 239.73 184.15 238.33L184.11 238.32Z" fill="#407BFF"/>
<path opacity="0.2" d="M184.11 238.32C184.63 236.73 185.34 235.21 186.23 233.8C186.63 233.15 187.06 232.53 187.54 231.93C188.76 230.36 190.19 228.96 191.8 227.79C192.12 227.56 192.41 227.35 192.74 227.14C193.41 226.69 194.12 226.28 194.85 225.93C195.31 225.69 195.78 225.47 196.26 225.28C196.95 224.99 197.66 224.73 198.38 224.52C199.34 224.24 200.31 224.02 201.3 223.88C202.52 223.71 203.76 223.63 205 223.66C208.66 223.73 212.24 224.74 215.38 226.61H215.41C216.32 227.14 217.19 227.74 218 228.41C218.38 228.72 218.75 229.04 219.11 229.37C219.47 229.7 219.84 230.07 220.19 230.45C220.43 230.7 220.67 230.97 220.9 231.26C221.2 231.61 221.49 231.98 221.76 232.36C222.36 233.15 222.9 233.99 223.38 234.85C223.51 235.09 223.64 235.34 223.75 235.58C224.15 236.37 224.49 237.19 224.78 238.03C224.9 238.37 225.01 238.71 225.11 239.05C225.57 240.63 225.84 242.26 225.92 243.9C225.95 244.48 225.97 245.05 225.95 245.63C225.95 245.93 225.95 246.22 225.91 246.5C225.88 246.96 225.84 247.42 225.78 247.87C225.66 248.79 225.48 249.71 225.24 250.61C225.09 251.2 224.91 251.77 224.7 252.34C224.47 253.02 224.2 253.69 223.89 254.34C223.33 255.52 222.66 256.64 221.89 257.69C221.45 258.32 220.96 258.92 220.44 259.49C219.84 260.15 219.21 260.78 218.53 261.36C217.82 261.97 217.08 262.53 216.31 263.04C215.33 263.69 214.3 264.25 213.23 264.73C212.43 265.09 211.6 265.4 210.75 265.66C210.09 265.86 209.41 266.03 208.73 266.17H208.71C204.42 267.03 199.96 266.55 195.95 264.8C195.38 264.56 194.83 264.28 194.29 263.99C193.91 263.78 193.53 263.56 193.17 263.34C192.71 263.06 192.28 262.76 191.86 262.45C191.64 262.28 191.42 262.12 191.21 261.95C190.44 261.34 189.71 260.68 189.03 259.97C186.73 257.57 185.02 254.66 184.03 251.48C183.54 249.92 183.23 248.31 183.12 246.67C183.08 245.99 183.06 245.3 183.08 244.6C183.09 243.95 183.14 243.3 183.23 242.65C183.38 241.18 183.68 239.73 184.15 238.33L184.11 238.32Z" fill="white"/>
<path opacity="0.2" d="M184.11 238.32C184.79 238.32 185.47 238.39 186.13 238.53C187.08 238.73 188 239.09 188.96 239.27C190.17 239.49 191.43 239.42 192.65 239.56C193.87 239.7 195.16 240.09 195.98 241.02C192.98 241.17 190 241.51 187.05 242.03C185.76 242.26 184.47 242.5 183.18 242.62C183.33 241.15 183.64 239.71 184.11 238.32Z" fill="black"/>
<path opacity="0.2" d="M217.91 246.7C219.73 246.44 221.57 246.3 223.42 246.3C224.25 246.32 225.08 246.38 225.91 246.49C225.88 246.95 225.84 247.41 225.78 247.86H225.57C222.97 247.99 220.36 247.59 217.91 246.7Z" fill="black"/>
<path opacity="0.2" d="M207.71 239.91C208.05 239.82 208.4 239.8 208.74 239.86C210.13 239.96 211.52 239.94 212.9 239.79C214.11 239.69 215.3 239.56 216.49 239.43C217.42 239.36 218.34 239.2 219.24 238.95C219.73 238.77 220.23 238.62 220.74 238.51C221.38 238.45 222.02 238.49 222.64 238.63C223.45 238.77 224.26 238.89 225.07 239.03C225.53 240.61 225.8 242.24 225.88 243.88C225.33 243.87 224.78 243.8 224.24 243.68C223.32 243.47 222.43 243.07 221.48 242.97C220.64 242.88 219.79 243.02 218.94 242.97C218.05 242.88 217.16 242.71 216.3 242.47C213.27 241.78 210.09 241.78 207.18 240.72C207.12 240.35 207.35 239.99 207.71 239.9V239.91Z" fill="black"/>
<path opacity="0.2" d="M191.79 227.76C192.11 227.53 192.4 227.32 192.73 227.11C193.4 226.66 194.11 226.25 194.84 225.9C195.3 225.66 195.77 225.44 196.25 225.25C196.35 225.25 196.44 225.3 196.54 225.32C201.34 226.61 206.23 227.54 211.17 228.09C213.82 228.39 216.57 228.62 219.1 229.36C219.47 229.71 219.83 230.06 220.18 230.44C217.48 229.77 214.72 229.31 211.95 229.09C209.59 228.94 207.2 229.05 204.85 228.82C202.72 228.62 200.6 228.14 198.47 228.25C198 228.28 197.52 228.33 197.05 228.36C195.46 228.41 193.86 228.25 192.31 227.88C192.13 227.85 191.96 227.81 191.79 227.76Z" fill="black"/>
<path opacity="0.2" d="M204.86 231.1C206.96 230.67 209.15 230.87 211.29 231.07C213.75 231.35 216.22 231.46 218.69 231.37C219.43 231.33 220.15 231.26 220.89 231.24C221.19 231.59 221.48 231.96 221.75 232.34C222.35 233.13 222.89 233.97 223.37 234.83C223.5 235.07 223.63 235.31 223.74 235.56C223.52 235.53 223.3 235.51 223.11 235.49C221.85 235.39 220.59 235.3 219.34 235.11C218.39 234.97 217.44 234.77 216.51 234.52C215.76 234.33 215.03 234.08 214.32 233.77C213.72 233.51 213.16 233.2 212.56 232.96C211.86 232.68 211.14 232.44 210.41 232.23C208.6 231.68 206.75 231.14 204.86 231.09V231.1Z" fill="black"/>
<path opacity="0.2" d="M216.17 233.07C217.13 232.85 218.13 233.07 219.09 232.88C219.46 232.81 219.8 232.68 220.17 232.58C220.69 232.44 221.22 232.35 221.76 232.33C222.36 233.12 222.9 233.96 223.38 234.82C222.17 234.72 220.97 234.55 219.77 234.32C219.11 234.19 218.45 234.05 217.79 233.92C217.41 233.84 216.1 233.74 215.89 233.47C215.75 233.32 215.99 233.13 216.18 233.07H216.17Z" fill="black"/>
<path opacity="0.2" d="M187.53 231.91C188.18 231.07 188.88 230.29 189.65 229.56C190.71 229.66 191.77 229.86 192.79 230.15C193.62 230.39 194.46 230.56 195.32 230.65C196.44 230.71 197.55 230.48 198.67 230.46C199.79 230.44 201 230.64 201.78 231.45C200.33 231.54 198.88 231.64 197.43 231.72C194.91 231.87 192.39 231.97 189.87 231.95C189.09 231.95 188.31 231.94 187.53 231.91Z" fill="black"/>
<path opacity="0.2" d="M193.34 227.28C193.19 227.23 192.97 227.17 192.73 227.12C193.4 226.67 194.11 226.26 194.84 225.91C195.9 226.18 196.98 226.37 198.07 226.48C199.88 226.67 201.83 226.67 203.32 227.74L200.97 227.49C199.41 227.26 197.83 227.21 196.26 227.35C195.68 227.46 195.09 227.52 194.51 227.52C194.11 227.49 193.72 227.41 193.33 227.29L193.34 227.28Z" fill="black"/>
<path opacity="0.2" d="M198.38 224.49C199.34 224.21 200.31 223.99 201.3 223.85C202.52 223.68 203.76 223.6 205 223.63C208.66 223.71 212.24 224.73 215.38 226.6H215.41C216.32 227.13 217.19 227.73 218 228.4C216.57 228.4 214.66 227.84 214.04 227.74C212.42 227.46 210.78 227.18 209.15 226.88C205.54 226.2 201.93 225.39 198.37 224.49H198.38Z" fill="black"/>
<path opacity="0.2" d="M201.31 223.84C202.53 223.67 203.77 223.59 205.01 223.62C208.67 223.7 212.24 224.73 215.39 226.6C215.11 226.52 214.82 226.49 214.53 226.49C214.25 226.49 213.97 226.58 213.69 226.62C213.33 226.64 212.97 226.63 212.61 226.6C211.25 226.51 209.9 226.31 208.57 226C207.36 225.69 206.23 225.19 205.07 224.79C203.85 224.37 202.6 224.05 201.33 223.83L201.31 223.84Z" fill="black"/>
<path opacity="0.2" d="M191.16 249.98C191.31 249.73 191.65 249.66 191.94 249.58C193.13 249.28 194.12 248.49 195.23 247.99C197.01 247.18 199.03 247.11 200.98 247.06C202.07 247.01 203.16 247.02 204.25 247.1C205.2 247.21 206.15 247.39 207.08 247.62C209.1 248.09 211.08 248.66 213.06 249.24C216.7 250.3 220.34 251.43 224.07 252.14C224.28 252.19 224.49 252.24 224.7 252.31C224.47 252.99 224.2 253.66 223.89 254.31C222.68 254.35 221.36 254.11 220.25 254.08C216.94 253.98 213.67 254.82 210.49 255.78C209.58 256.1 208.63 256.32 207.66 256.41C206.35 256.48 205.07 256.11 203.82 255.75C202.36 255.31 200.91 254.88 199.47 254.43C198.71 254.21 197.96 253.93 197.24 253.58C196.63 253.25 196.07 252.85 195.48 252.49C194.53 251.92 193.49 251.51 192.41 251.26C192.06 251.21 191.73 251.09 191.44 250.9C191.13 250.71 191.01 250.32 191.15 249.98H191.16Z" fill="black"/>
<path opacity="0.2" d="M210.84 253.9C209.52 254.18 208.17 254.27 206.83 254.17C205.09 254.19 203.36 254.02 201.66 253.66C200.36 253.3 199.1 252.84 197.88 252.27C197.14 251.95 196.36 251.59 195.93 250.91C199.95 248.48 205.06 248.86 209.63 249.95C212.44 250.62 215.18 251.51 217.92 252.41C217.67 252.33 216.45 253 216.12 253.08C215.62 253.17 215.11 253.17 214.61 253.08C213.24 253 212.12 253.56 210.83 253.9H210.84Z" fill="black"/>
<path opacity="0.2" d="M183.97 251.44C184.46 251.47 184.95 251.53 185.43 251.63C186.27 251.8 187.27 252.32 187.2 253.17C189.22 253.14 191.41 253.15 193.08 254.29C192.3 254.48 191.51 254.67 190.73 254.87L210.87 258.06C211.46 258.19 212.06 258.23 212.66 258.19C213.93 258.07 215.02 257.29 216.25 256.98C217.77 256.62 220.12 256.94 221.88 257.66C221.44 258.29 220.95 258.89 220.43 259.46C219.83 260.12 219.2 260.75 218.52 261.33C217.81 261.94 217.07 262.5 216.3 263.01C211.97 262.64 207.73 261.46 203.54 260.28C205.1 260.14 206.65 260.01 208.21 259.88C209.07 259.8 209.99 259.71 210.64 259.14C208.11 258.69 205.57 258.34 203.01 258.11C201.56 257.98 200.1 257.88 198.65 257.79C196.15 257.64 193.65 257.48 191.16 257.31C190.93 257.27 190.69 257.3 190.48 257.39C190.26 257.5 190.17 257.76 190.28 257.98C190.38 258.09 190.53 258.16 190.68 258.17L193.01 258.7C193.73 258.86 194.63 259.33 194.41 260.02C193.08 260.02 191.75 259.98 190.41 259.95C189.94 259.95 189.46 259.95 188.98 259.91C186.68 257.51 184.97 254.61 183.98 251.44H183.97Z" fill="black"/>
<path opacity="0.2" d="M191.15 261.91C192.27 261.74 193.4 261.7 194.53 261.78C197.05 261.94 199.53 262.52 201.99 263.02C202.65 263.18 203.33 263.26 204.01 263.26C204.77 263.24 205.52 263.01 206.28 263.01C207.47 263.01 208.6 263.49 209.71 263.9C210.38 264.14 211.97 264.32 213.21 264.71C212.41 265.07 211.58 265.38 210.73 265.64C210.73 265.64 210.69 265.63 210.67 265.62C209.14 265.06 207.54 264.69 205.91 264.54C202.38 264.04 198.82 263.55 195.28 263.81C194.93 263.83 194.59 263.88 194.26 263.97C193.88 263.76 193.5 263.54 193.14 263.32C192.68 263.04 192.25 262.74 191.83 262.43C191.59 262.26 191.37 262.1 191.16 261.92L191.15 261.91Z" fill="black"/>
<path opacity="0.2" d="M214.14 260.18C216.03 259.2 218.27 259.23 220.43 259.46C219.83 260.12 219.2 260.75 218.52 261.33C217.02 261.12 215.55 260.74 214.14 260.18Z" fill="black"/>
<path opacity="0.2" d="M195.9 264.76C199.05 264.21 202.3 264.58 205.39 265.33C206.49 265.54 207.58 265.81 208.66 266.14C204.37 267 199.91 266.52 195.9 264.77V264.76Z" fill="black"/>
<path opacity="0.2" d="M191.8 262.41C192.01 262.37 192.23 262.35 192.44 262.33C193.92 262.2 195.46 262.08 196.89 262.46C195.87 262.21 194.46 262.78 193.11 263.29C192.66 263.01 192.23 262.71 191.8 262.4V262.41Z" fill="black"/>
<path opacity="0.2" d="M183.16 242.61C183.08 243.26 183.03 243.91 183.01 244.56C183.01 245.26 183.01 245.95 183.05 246.63C183.56 246.72 184.07 246.73 184.59 246.67C186.99 246.5 189.39 246.33 191.8 246.16C191.03 245.32 189.73 245.28 188.59 245.4C187.45 245.52 186.24 245.74 185.21 245.21C186.91 244.06 188.93 243.47 190.98 243.54C192.39 243.58 193.78 243.94 195.17 243.8C196.38 243.68 197.6 243.18 198.81 243.32C199.4 243.41 199.98 243.56 200.54 243.76C206.68 245.53 213.57 242.14 219.54 244.44C215.85 244.86 212.16 245.26 208.47 245.65C210.02 247.05 212.34 246.96 214.4 247.22C216.68 247.5 218.86 248.29 220.8 249.52C221.44 250.01 222.17 250.38 222.94 250.62C223.54 250.72 224.15 250.72 224.75 250.62C224.91 250.62 225.07 250.58 225.24 250.57C225.48 249.67 225.66 248.76 225.78 247.83C225.84 247.38 225.88 246.92 225.91 246.46C225.93 246.17 225.94 245.88 225.95 245.59C225.97 245.01 225.95 244.43 225.92 243.86C225.84 242.22 225.57 240.59 225.11 239.01C225.01 238.67 224.9 238.33 224.78 237.99C223.3 237.99 221.79 238.17 220.33 237.9C219.72 237.79 219.12 237.6 218.53 237.5C217.85 237.4 217.17 237.35 216.48 237.35L202.69 237.04C200.78 237 198.88 236.96 196.98 236.73C201.21 235.68 205.58 235.28 209.93 235.55C210.61 235.59 211.34 235.63 211.92 235.28C209.85 233.77 206.99 234.35 204.44 234.07C203.29 233.95 202.16 233.64 201.01 233.67C199.95 233.69 198.91 233.98 197.86 234.1C196.72 234.21 195.58 234.22 194.44 234.13C191.71 234.01 188.98 233.88 186.23 233.76C185.33 235.19 184.61 236.72 184.08 238.32C183.61 239.71 183.29 241.15 183.13 242.6L183.16 242.61ZM193.44 235.59C194.3 235.36 195.19 235.23 196.08 235.22L196.4 235.54C194.97 236.14 193.39 236.28 191.88 235.94C192.39 235.81 192.91 235.7 193.44 235.59Z" fill="black"/>
<path d="M281.474 95.2012C285.545 78.9812 275.696 62.5319 259.476 58.4607C243.256 54.3895 226.807 64.2381 222.736 80.4581C218.665 96.6782 228.513 113.127 244.733 117.199C260.953 121.27 277.403 111.421 281.474 95.2012Z" fill="#407BFF"/>
<path opacity="0.3" d="M281.474 95.2012C285.545 78.9812 275.696 62.5319 259.476 58.4607C243.256 54.3895 226.807 64.2381 222.736 80.4581C218.665 96.6782 228.513 113.127 244.733 117.199C260.953 121.27 277.403 111.421 281.474 95.2012Z" fill="black"/>
<path d="M256.973 114.585C273.48 111.909 284.692 96.3567 282.016 79.8491C279.339 63.3416 263.787 52.1293 247.28 54.8059C230.772 57.4825 219.56 73.0344 222.237 89.542C224.913 106.05 240.465 117.262 256.973 114.585Z" fill="#407BFF"/>
<path d="M275.51 94.0339C280.657 81.1268 274.366 66.4911 261.459 61.3443C248.552 56.1975 233.916 62.4885 228.769 75.3956C223.622 88.3028 229.913 102.938 242.821 108.085C255.728 113.232 270.363 106.941 275.51 94.0339Z" fill="white"/>
<path d="M255.4 106L254.48 100.1C254.6 100.08 254.71 100.06 254.83 100.04L255.89 105.92C255.73 105.95 255.56 105.98 255.4 106ZM245.6 105.24C245.44 105.19 245.28 105.14 245.12 105.08L247.07 99.4402C247.18 99.4802 247.29 99.5202 247.4 99.5502L245.59 105.24H245.6ZM264.92 102.04L261.36 97.2402L261.66 97.0202L265.3 101.75C265.17 101.85 265.04 101.95 264.91 102.04H264.92ZM236.8 99.8702C236.68 99.7502 236.57 99.6302 236.45 99.5102L240.79 95.4102L241.04 95.6702L236.79 99.8702H236.8ZM271.51 94.1102L266.13 91.5102L266.28 91.1802L271.75 93.5802L271.69 93.7202C271.65 93.8202 271.58 93.9602 271.51 94.1102ZM231.52 91.0202C231.47 90.8602 231.42 90.7002 231.38 90.5402L237.13 88.9102C237.16 89.0202 237.2 89.1402 237.23 89.2502L231.52 91.0102V91.0202ZM267.69 84.1502C267.69 84.0402 267.69 83.9302 267.67 83.8102L273.63 83.4602C273.64 83.6302 273.65 83.8002 273.65 83.9702L267.68 84.1502H267.69ZM236.81 81.8302L230.94 80.7102L231.03 80.2402L236.88 81.4602L236.81 81.8302ZM265.66 76.9902L265.48 76.6802L270.61 73.6202C270.69 73.7602 270.78 73.9002 270.86 74.0402L265.66 76.9902ZM239.9 75.0302L235.21 71.3302C235.31 71.2002 235.41 71.0802 235.51 70.9502L240.13 74.7302L239.9 75.0202V75.0302ZM260.53 71.5802C260.43 71.5202 260.33 71.4602 260.24 71.4002L263.34 66.2902C263.48 66.3802 263.63 66.4702 263.77 66.5602L260.54 71.5802H260.53ZM245.79 70.4602L243.36 65.0002C243.52 64.9302 243.67 64.8602 243.83 64.8002L246.1 70.3202C245.99 70.3602 245.89 70.4102 245.79 70.4502V70.4602ZM253.48 69.1702L253.12 69.1402L253.5 63.1802C253.67 63.1902 253.83 63.2002 254 63.2202L253.48 69.1702Z" fill="black"/>
<path d="M252.56 85.8802C252.56 85.8802 252.47 85.8802 252.42 85.8602L240.98 82.6302C240.71 82.5602 240.56 82.2802 240.63 82.0102C240.7 81.7402 240.98 81.5902 241.25 81.6602L252.09 84.7202L252.76 71.8102C252.77 71.5302 252.98 71.3202 253.28 71.3402C253.56 71.3502 253.77 71.5902 253.75 71.8702L253.05 85.4102C253.05 85.5602 252.97 85.7002 252.84 85.7902C252.75 85.8502 252.65 85.8802 252.55 85.8802H252.56Z" fill="black"/>
<path d="M254.15 84.7903C254.18 85.8303 253.36 86.6903 252.32 86.7203C251.28 86.7503 250.42 85.9303 250.39 84.8903C250.36 83.8503 251.18 82.9903 252.22 82.9603C253.26 82.9303 254.12 83.7503 254.15 84.7903Z" fill="black"/>
<path d="M265.31 323.93C265.31 323.93 258.73 280.41 257.31 269.82C255.89 259.23 257.31 253.82 261.31 250.35C265.31 246.88 283.94 242.27 296.41 241.84C306.16 241.5 311.22 243.41 319.52 265.33L305.74 271.32C305.74 271.32 316.76 307.46 315.43 321.49L265.31 323.93Z" fill="#407BFF"/>
<path opacity="0.3" d="M303.18 272.45L300.93 273.36L297.44 264.35L301.14 277.07L304.22 275.71L303.18 272.45Z" fill="black"/>
<path d="M261.3 250.32C261.3 250.32 253.48 253.72 250.45 261.41C248.96 265.19 245.93 271.97 242.97 278.62L266.04 282.06L261.3 250.33V250.32Z" fill="#407BFF"/>
<path d="M244.9 278.95C244.9 278.95 235.6 295.28 238.36 302.45H255.09L255.75 295.26L252.77 293.52L258.86 280.68L244.91 278.94L244.9 278.95Z" fill="#E4897B"/>
<path opacity="0.3" d="M252.77 293.53C252.77 293.53 247.9 292.3 244.33 293.93C244.33 293.93 247.3 289.75 253.29 292.44L252.77 293.53Z" fill="black"/>
<path opacity="0.3" d="M255.61 268.24C255.61 268.24 254.64 273.45 255.79 276.95C256.94 280.45 258.86 280.69 258.86 280.69L255.62 268.24H255.61Z" fill="black"/>
<path d="M305.43 213.24C304.21 212.7 302.86 212.49 301.66 211.92C299.08 210.68 297.57 207.96 296.5 205.31C295.43 202.65 294.57 199.81 292.66 197.68C290.85 195.66 288.15 194.46 285.43 194.47C282.71 194.48 280.03 195.7 278.23 197.74L284.3 219.61C285.74 222.1 288 224.12 290.64 225.26C291.75 225.74 293.01 226.07 294.15 225.69C295.3 225.31 296.19 224 295.74 222.88C296.69 224.36 298.82 224.93 300.38 224.13C301.94 223.32 302.71 221.25 302.06 219.62C303.32 219.59 304.62 219.56 305.77 219.04C306.92 218.53 307.9 217.41 307.85 216.15C307.79 214.82 306.64 213.77 305.42 213.23L305.43 213.24Z" fill="#263238"/>
<path d="M257.75 203.31C252.7 208.25 254.59 213.65 255.42 217.65C257.16 222.94 257.85 226.72 260.3 231.71L268.71 197.28C265.48 198.58 263.24 198.33 257.74 203.31H257.75Z" fill="#263238"/>
<path d="M265.02 198.99C270.16 195.31 276.26 197.36 279.89 198.91C283.98 201.24 286.87 205.2 287.85 209.81C288.66 214.13 289.65 219.37 287.45 222.11C286.23 223.69 284.4 224.68 282.41 224.85L257.33 209.15C258.99 205.17 261.64 201.67 265.02 199V198.99Z" fill="#263238"/>
<path d="M276.04 253.76C279.49 253.52 279.18 253.41 281.21 252.1C291.06 245.81 286.73 242.58 286.73 242.58C283.71 240.14 284.42 236.88 284.33 231.42C284.32 231.26 284.65 228.51 284.61 228.35C284.47 227.64 283.7 230.81 283.17 230.32C281.78 228.93 279.53 228.93 278.14 230.32L272.61 233.09C272.61 233.17 272.61 233.26 272.61 233.35C273.14 236.25 273.64 238.48 273.96 240.26C273.96 240.48 274.04 240.7 274.07 240.91C274.07 241.13 274.13 241.36 274.17 241.57C274.49 244.02 271.47 246.34 271.53 249.71C270.63 250.48 272.62 253.77 276.06 253.77L276.04 253.76Z" fill="#E4897B"/>
<path opacity="0.2" d="M272.61 233.06C272.62 233.15 272.62 233.24 272.61 233.33C273.14 236.23 273.64 238.46 273.96 240.24C274.01 240.45 274.05 240.67 274.07 240.89C274.1 241.12 274.11 241.35 274.11 241.58C277.04 240.16 279.57 238.38 281.61 236.05C283.15 234.3 284.06 232.08 284.28 229.75C284.14 229.05 283.63 230.84 283.13 230.33C281.75 228.93 279.5 228.9 278.09 230.27L272.61 233.07V233.06Z" fill="black"/>
<path d="M284.57 211.83C286.22 221.86 287.14 226.06 283.42 232.37C277.8 241.86 265.43 241.94 260.83 232.65C256.76 224.28 254.7 209.31 263.25 202.96C271.81 196.61 282.91 201.78 284.57 211.83Z" fill="#E4897B"/>
<path d="M290.92 219.4C290.31 221.75 288.77 223.54 287.16 224.46C284.73 225.84 282.22 222.01 282.38 219.15C282.53 216.57 284.67 214.3 287.35 214.11C289.99 213.92 291.61 216.72 290.92 219.4Z" fill="#E4897B"/>
<path opacity="0.2" d="M285.26 220.65C285.14 220.65 285.04 220.57 285.01 220.45C284.8 219.43 285.01 218.34 285.58 217.47C286.15 216.6 287.06 215.98 288.08 215.76C288.22 215.73 288.35 215.82 288.38 215.95C288.41 216.09 288.32 216.22 288.19 216.25C287.3 216.44 286.5 216.98 286 217.74C285.5 218.5 285.32 219.45 285.5 220.34C285.53 220.48 285.44 220.61 285.31 220.64C285.29 220.64 285.28 220.64 285.26 220.64V220.65Z" fill="black"/>
<path d="M272.68 218.42C272.92 219.48 272.59 220.49 271.95 220.68C271.3 220.87 270.59 220.17 270.35 219.12C270.11 218.06 270.44 217.05 271.08 216.86C271.73 216.67 272.44 217.37 272.68 218.42Z" fill="#263238"/>
<path d="M262.94 221.08C263.17 222.11 262.84 223.09 262.19 223.29C261.55 223.48 260.84 222.81 260.61 221.78C260.38 220.75 260.71 219.77 261.36 219.57C262 219.38 262.71 220.05 262.94 221.08Z" fill="#263238"/>
<path d="M273.73 214.21C273.61 214.26 273.47 214.26 273.35 214.19C271.44 213.2 269.87 214.17 269.85 214.19C269.62 214.33 269.32 214.26 269.19 214.02C269.06 213.78 269.15 213.46 269.38 213.31C269.46 213.26 271.44 212.04 273.81 213.27C274.05 213.39 274.14 213.7 274.01 213.96C273.95 214.08 273.85 214.17 273.73 214.22V214.21Z" fill="#263238"/>
<path d="M258.3 217.039C258.19 217.039 258.09 216.979 258.01 216.889C257.86 216.689 257.89 216.379 258.08 216.189C259.98 214.299 261.92 214.799 262.01 214.819C262.24 214.879 262.37 215.149 262.29 215.419C262.21 215.689 261.97 215.849 261.73 215.789C261.65 215.769 260.14 215.409 258.63 216.909C258.53 217.009 258.41 217.049 258.3 217.049V217.039Z" fill="#263238"/>
<path d="M265.46 219.87C265.46 219.87 264.94 223.99 263.84 226.78C263.65 227.27 264 227.8 264.52 227.85C265.86 227.96 267.18 227.16 267.18 227.16L265.47 219.88L265.46 219.87Z" fill="#A24E3F"/>
<path d="M271.46 216.79L269.05 216.88C269.05 216.88 270.76 218.23 271.46 216.79Z" fill="#263238"/>
<path d="M261.6 219.53L259.19 219.62C259.19 219.62 260.9 220.97 261.6 219.53Z" fill="#263238"/>
<path d="M281.89 214.76C281.89 214.76 274.96 209.31 273.73 203.77C273.73 203.77 252.02 205.01 257.21 222.28C257.21 222.28 250.37 205.93 266.59 200.31C282.81 194.69 290.34 215.83 284.21 224.84C284.17 224.77 286.19 218.18 281.89 214.76Z" fill="#263238"/>
<path d="M286.94 213.81C285.4 207.13 281.7 202.5 276.61 201.33C269.72 199.75 261.59 201.57 261.59 201.57C261.51 203.57 257.61 209.64 257.5 211.67C259.37 211.24 264.86 207.14 266.54 206.25L265.41 207.73C265.41 207.73 268.4 207.21 269.85 205.3C273.13 213.47 284.11 213.8 286.94 213.8V213.81Z" fill="#263238"/>
<path d="M274.98 197.38C274.98 197.38 279.86 197.79 282.59 201.01C282.59 200.98 279.96 196.6 274.98 197.38Z" fill="#407BFF"/>
<path d="M270.8 230C270.69 230 270.59 229.95 270.51 229.87C270.38 229.71 270.4 229.47 270.56 229.34L270.96 229.01C271.99 228.16 273.06 227.28 273.66 226.09C273.75 225.91 273.98 225.83 274.16 225.93C274.34 226.02 274.42 226.25 274.32 226.43C273.64 227.75 272.46 228.72 271.43 229.58L271.04 229.91C270.97 229.97 270.88 230 270.8 230Z" fill="#263238"/>
<path d="M271.58 246.04C271.58 246.04 265.86 255.35 276.18 255.04C286.5 254.73 289.59 244.91 290.05 242.19L286.83 241.08C286.83 241.08 284.97 249.08 277.99 250.67C271.01 252.26 272.65 245.1 272.65 245.1L271.58 246.04Z" fill="#263238"/>
<path d="M316.65 266.53C316.65 266.53 322.44 283.12 323.07 287.7C323.32 289.48 325.13 293.94 319.59 297.87C314.73 301.31 279.75 302.45 279.75 302.45L278.73 293.5L307.48 285.96L303.18 272.44L316.64 266.52L316.65 266.53Z" fill="#E4897B"/>
<path d="M280.59 293.149C280.59 293.149 275.31 288.999 275.09 288.929C274.87 288.859 268.45 288.549 267.55 289.309C266.65 290.069 266.04 293.529 266.04 293.529C266.04 293.529 263.63 294.429 263.17 295.639C262.71 296.849 263.62 297.899 263.62 297.899C263.62 297.899 263.09 299.179 263.92 300.239L264.75 301.299C264.75 301.299 263.92 302.279 264.67 303.029C265.42 303.779 282.34 302.459 282.34 302.459L280.57 293.149H280.59Z" fill="#E4897B"/>
<path opacity="0.3" d="M266.04 293.529L273.39 292.299C273.39 292.299 270.08 291.789 268.32 292.299C266.56 292.809 266.04 293.529 266.04 293.529Z" fill="black"/>
<path d="M274.65 282.709L270.79 292.799C270 292.639 269.07 293.179 268.57 293.109L272.83 281.949C273.04 281.439 273.63 281.199 274.14 281.409C274.65 281.619 274.89 282.209 274.68 282.719H274.65V282.709Z" fill="#263238"/>
<path opacity="0.3" d="M307.48 285.979C307.48 285.979 313.78 286.269 314.7 289.949C314.7 289.949 314.68 284.059 307.01 284.509L307.48 285.989V285.979Z" fill="black"/>
<path d="M255.75 295.27C255.75 295.27 267.61 294.41 270.4 296.69C273.19 298.97 275.76 302.85 275.76 302.85L254.5 302.46L255.75 295.27Z" fill="#E4897B"/>
<path opacity="0.3" d="M262.42 295.13C262.42 295.13 261.62 298.44 263.04 300.79C263.5 301.55 262.5 302.31 262.83 302.61L266.03 302.67L263.48 295.13H262.42Z" fill="black"/>
<path d="M212.43 436.57L213.77 428.71L229.71 429.86L225.35 441.27L215.89 441.59L212.43 436.57Z" fill="#E4897B"/>
<path d="M210.82 435.25H215.01C215.96 435.25 216.83 435.73 217.39 436.49C219.81 439.79 221.62 438.54 224.25 435.44C225.92 435.25 226.37 437.16 226.51 437.68L229.64 449.07C229.91 450.02 229.36 451.01 228.41 451.29C228.24 451.34 228.07 451.36 227.89 451.36H194.7C189.42 451.36 188.33 446.04 190.5 445.55C200.28 443.39 207.2 440.51 210.23 437.67C210.79 437.17 210.21 436.8 210.82 435.26V435.25Z" fill="#407BFF"/>
<path d="M211.65 441.52C211.57 441.52 211.49 441.48 211.44 441.4C210.7 440.23 209.44 439.41 208.06 439.22C207.92 439.2 207.83 439.07 207.85 438.94C207.87 438.8 207.99 438.72 208.13 438.73C209.65 438.94 211.05 439.84 211.87 441.14C211.94 441.26 211.91 441.41 211.79 441.48C211.75 441.51 211.7 441.52 211.66 441.52H211.65Z" fill="white"/>
<path d="M208.87 442.98C208.79 442.98 208.71 442.94 208.66 442.86C207.92 441.69 206.66 440.87 205.28 440.68C205.14 440.66 205.05 440.53 205.07 440.4C205.09 440.26 205.22 440.17 205.35 440.19C206.87 440.4 208.27 441.3 209.09 442.6C209.16 442.72 209.13 442.87 209.01 442.94C208.97 442.97 208.92 442.98 208.88 442.98H208.87Z" fill="white"/>
<path d="M205.63 444.63C205.55 444.63 205.47 444.59 205.42 444.51C204.68 443.34 203.42 442.52 202.04 442.33C201.9 442.31 201.81 442.18 201.83 442.05C201.85 441.91 201.98 441.82 202.11 441.84C203.63 442.05 205.03 442.95 205.85 444.25C205.92 444.37 205.89 444.52 205.77 444.59C205.73 444.62 205.68 444.63 205.64 444.63H205.63Z" fill="white"/>
<path d="M216.61 412.19L213.16 405L226.84 396.72L229.87 408.56L222.34 414.28L216.61 412.19Z" fill="#E4897B"/>
<path d="M214.54 412.04L217.96 409.62C218.73 409.07 219.73 408.96 220.63 409.26C224.51 410.56 225.27 408.49 225.62 404.44C226.87 403.32 228.35 404.62 228.75 404.96L237.89 412.45C238.66 413.07 238.79 414.2 238.17 414.97C238.06 415.11 237.93 415.23 237.79 415.33C233.64 418.27 231.67 419.66 226.51 423.32L210.71 434.51C206.4 437.56 202.43 433.85 203.92 432.19C210.65 424.77 214.64 418.42 215.46 414.36C215.63 413.63 214.94 413.66 214.55 412.05L214.54 412.04Z" fill="#407BFF"/>
<path d="M214.46 416.91C214.37 416.91 214.28 416.86 214.24 416.78C214.18 416.66 214.22 416.51 214.35 416.44C215.71 415.73 217.37 415.66 218.79 416.25C218.92 416.3 218.98 416.45 218.93 416.58C218.88 416.71 218.73 416.77 218.6 416.71C217.32 416.18 215.82 416.24 214.58 416.89C214.54 416.91 214.5 416.92 214.46 416.92V416.91Z" fill="white"/>
<path d="M213.04 419.71C212.95 419.71 212.86 419.66 212.82 419.58C212.76 419.46 212.8 419.31 212.93 419.24C214.29 418.53 215.95 418.46 217.37 419.04C217.5 419.09 217.56 419.24 217.51 419.37C217.46 419.5 217.31 419.56 217.18 419.51C215.9 418.98 214.39 419.04 213.16 419.69C213.12 419.71 213.08 419.72 213.04 419.72V419.71Z" fill="white"/>
<path d="M211.35 422.93C211.26 422.93 211.17 422.88 211.13 422.8C211.07 422.68 211.11 422.53 211.24 422.46C212.6 421.75 214.26 421.68 215.68 422.27C215.81 422.32 215.87 422.47 215.82 422.6C215.77 422.73 215.62 422.79 215.49 422.73C214.21 422.2 212.71 422.26 211.47 422.91C211.43 422.93 211.39 422.94 211.35 422.94V422.93Z" fill="white"/>
<path d="M265.67 320.62C265.67 320.62 215.12 313.72 199.85 328.08C199.85 328.08 188.02 335.58 192.57 360.85C195.55 376.45 204.38 396.57 213.85 409.32L227.12 398.04C227.12 398.04 219.77 366.9 219.31 350.95L237.67 349.86L264 331.86L266.76 324.4L265.67 320.62Z" fill="#263238"/>
<path opacity="0.3" d="M221.26 350.84C221.26 350.84 219.92 346.08 221.19 340.28C222.47 334.48 225.81 328.8 243.9 326.49C261.98 324.17 223.19 350.84 223.19 350.84H221.26Z" fill="black"/>
<path d="M315.36 320.07C315.36 320.07 316.76 334.47 312.19 345.01C307.62 355.55 291.47 359.41 280.58 358.71C269.69 358.01 255.64 357.11 249.67 358.79C249.67 358.79 241.94 402.62 228.59 434.58L212.43 433.18C212.43 433.18 221.21 371.32 222.62 356.95C224.03 342.58 223.32 340.44 232.1 333.42C240.88 326.4 285.85 316.91 315.36 320.07Z" fill="#263238"/>
<path opacity="0.3" d="M221.26 368.51L216.03 407.47C216.03 407.47 215.88 386.89 216.25 380.65C216.7 373.13 221.26 368.51 221.26 368.51Z" fill="black"/>
<path d="M237.03 449.37C236.93 449.37 236.82 449.36 236.72 449.34C235.91 449.17 235.39 448.37 235.56 447.56L253.26 363.83C253.41 363.14 254.02 362.64 254.73 362.64H314.75C315.49 362.64 316.12 363.18 316.23 363.9L329.52 447.63C329.65 448.45 329.09 449.22 328.27 449.35C327.44 449.48 326.68 448.92 326.55 448.1L313.47 365.64H255.95L238.5 448.18C238.35 448.89 237.73 449.37 237.03 449.37Z" fill="#263238"/>
<path opacity="0.5" d="M237.03 449.37C236.93 449.37 236.82 449.36 236.72 449.34C235.91 449.17 235.39 448.37 235.56 447.56L253.26 363.83C253.41 363.14 254.02 362.64 254.73 362.64H314.75C315.49 362.64 316.12 363.18 316.23 363.9L329.52 447.63C329.65 448.45 329.09 449.22 328.27 449.35C327.44 449.48 326.68 448.92 326.55 448.1L313.47 365.64H255.95L238.5 448.18C238.35 448.89 237.73 449.37 237.03 449.37Z" fill="white"/>
<path d="M316.25 364.14H253.31C251.57 364.14 250.16 362.73 250.16 360.99C250.16 359.25 251.57 357.84 253.31 357.84H316.25C317.99 357.84 319.4 359.25 319.4 360.99C319.4 362.73 317.99 364.14 316.25 364.14Z" fill="#407BFF"/>
<path d="M339.14 309.63H296.04V328.51H339.14V309.63Z" fill="#263238"/>
<path opacity="0.4" d="M339.14 309.63H296.04V328.51H339.14V309.63Z" fill="white"/>
<path d="M293.08 307.64H157.85V328.51H293.08V307.64Z" fill="#263238"/>
<path opacity="0.4" d="M293.08 307.64H157.85V328.51H293.08V307.64Z" fill="white"/>
<path d="M298.09 306.04H293.08V447.87H298.09V306.04Z" fill="#263238"/>
<path opacity="0.5" d="M298.09 306.04H293.08V447.87H298.09V306.04Z" fill="white"/>
<path d="M342.16 306.04H337.15V447.87H342.16V306.04Z" fill="#263238"/>
<path opacity="0.5" d="M342.16 306.04H337.15V447.87H342.16V306.04Z" fill="white"/>
<path d="M160.36 306.04H155.35V447.87H160.36V306.04Z" fill="#263238"/>
<path opacity="0.5" d="M160.36 306.04H155.35V447.87H160.36V306.04Z" fill="white"/>
<path d="M343.77 302.45H150.43V309.62H343.77V302.45Z" fill="#263238"/>
<path opacity="0.5" d="M343.77 302.45H150.43V309.62H343.77V302.45Z" fill="white"/>
<path d="M281.9 300.77H226.35V302.67H281.9V300.77Z" fill="#407BFF"/>
<path opacity="0.5" d="M281.9 300.77H226.35V302.67H281.9V300.77Z" fill="white"/>
</svg>
