<svg width="70" height="77" viewBox="0 0 70 77" fill="none" xmlns="http://www.w3.org/2000/svg">
<path d="M0 10.353C0 4.83018 4.47715 0.353027 10 0.353027H60C65.5228 0.353027 70 4.83018 70 10.353V66.353C70 71.8759 65.5228 76.353 60 76.353H10C4.47715 76.353 0 71.8759 0 66.353V10.353Z" fill="#FFDCD1"/>
<path d="M45.666 49.0199H24.3327C22.8599 49.0199 21.666 47.8259 21.666 46.3532V30.3532C21.666 28.8804 22.8599 27.6865 24.3327 27.6865H45.666C47.1388 27.6865 48.3327 28.8804 48.3327 30.3532V46.3532C48.3327 47.8259 47.1388 49.0199 45.666 49.0199ZM24.3327 38.3532V46.3532H45.666V38.3532H24.3327ZM24.3327 30.3532V33.0199H45.666V30.3532H24.3327ZM36.3327 43.6865H26.9993V41.0199H36.3327V43.6865Z" fill="#E74040"/>
</svg>
