<svg width="60" height="60" viewBox="0 0 60 60" fill="none" xmlns="http://www.w3.org/2000/svg">
<path d="M22.735 28.1544H35.046C38.4697 28.1544 41.2017 25.33 41.2017 21.8949V10.1486C41.2017 6.80586 38.389 4.30438 35.046 3.73953C30.9193 3.05938 26.4353 3.09395 22.735 3.7509C17.5246 4.67317 16.5794 6.59832 16.5794 10.1602V12.6743H28.9019V16.4195H11.957C8.3721 16.4195 5.2364 18.575 4.25671 22.6673C3.12702 27.3589 3.08097 30.2868 4.25671 35.186C5.13281 38.8288 7.21921 41.4337 10.8042 41.4337H15.0348V35.8086C15.0347 31.7395 18.5505 28.1544 22.735 28.1544Z" fill="#347AB4"/>
<path d="M55.6612 24.5354C54.7735 20.9735 53.0907 18.2876 49.5057 18.2876H44.8835V23.7516C44.8835 27.9937 41.2867 31.5669 37.1831 31.5669H24.8719C21.5058 31.5669 18.7163 34.449 18.7163 37.8264V49.5613C18.7163 52.904 21.6212 54.8636 24.8719 55.8206C28.7681 56.9617 32.5143 57.1694 37.1829 55.8206C40.284 54.9212 43.3387 53.1117 43.3387 49.5613V47.1007H31.0392V43.3019H49.5056C53.0907 43.3019 54.4162 40.8004 55.6611 37.0541C56.9522 33.1923 56.8947 29.4805 55.6612 24.5354Z" fill="#FFCA1D"/>
<path d="M21.9629 10.4993C20.7349 10.4993 19.7393 9.49252 19.7393 8.2535C19.7503 7.00334 20.7349 5.99658 21.9629 5.99658C23.1799 5.99658 24.1866 7.01436 24.1866 8.2535C24.1865 9.49252 23.1909 10.4993 21.9629 10.4993Z" fill="white"/>
<path d="M36.9034 53.9148C35.6754 53.9148 34.6797 52.908 34.6797 51.669C34.6908 50.4189 35.6753 49.4121 36.9034 49.4121C38.1204 49.4121 39.1272 50.4299 39.1272 51.669C39.1272 52.908 38.1316 53.9148 36.9034 53.9148Z" fill="white"/>
</svg>
