<svg width="60" height="60" viewBox="0 0 60 60" fill="none" xmlns="http://www.w3.org/2000/svg">
<path d="M29.9502 34.9799C32.7226 34.9799 34.9702 32.7324 34.9702 29.9599C34.9702 27.1875 32.7226 24.9399 29.9502 24.9399C27.1777 24.9399 24.9302 27.1875 24.9302 29.9599C24.9302 32.7324 27.1777 34.9799 29.9502 34.9799Z" fill="#00D8FF"/>
<path d="M29.9501 41.4601C22.9001 41.4601 16.7401 40.6301 12.1301 39.0501C9.1401 38.0301 6.6001 36.6701 4.7901 35.1201C2.8701 33.4801 1.8501 31.6901 1.8501 29.9601C1.8501 26.6401 5.4901 23.3901 11.6001 21.2701C16.6001 19.5301 23.1201 18.5601 29.9401 18.5601C36.6401 18.5601 43.0701 19.5001 48.0401 21.2201C50.9501 22.2201 53.4001 23.5201 55.1401 24.9601C57.0301 26.5401 58.0301 28.2701 58.0301 29.9601C58.0301 33.4101 53.9601 36.9001 47.4001 39.0701C42.7601 40.6101 36.5601 41.4601 29.9501 41.4601ZM29.9501 20.9601C23.4801 20.9601 17.0801 21.9001 12.4001 23.5301C6.7801 25.4901 4.2601 28.1701 4.2601 29.9601C4.2601 31.8201 6.9701 34.7501 12.9101 36.7801C17.2701 38.2701 23.1701 39.0601 29.9501 39.0601C36.3101 39.0601 42.2401 38.2601 46.6501 36.7901C52.8201 34.7401 55.6401 31.8101 55.6401 29.9601C55.6401 29.0101 54.9201 27.8901 53.6101 26.8001C52.1001 25.5401 49.9001 24.3901 47.2701 23.4801C42.5401 21.8601 36.3901 20.9601 29.9501 20.9601Z" fill="#00D8FF"/>
<path d="M18.5599 54.9802C17.5399 54.9802 16.6399 54.7602 15.8799 54.3202C13.0099 52.6602 12.0099 47.8802 13.2199 41.5302C14.2099 36.3202 16.6299 30.2002 20.0399 24.2902C23.3899 18.4902 27.4099 13.3902 31.3799 9.94024C33.6999 7.92024 36.0499 6.44024 38.1699 5.66024C40.4799 4.81024 42.4799 4.81024 43.9399 5.65024C46.9299 7.37024 47.9199 12.6502 46.5199 19.4102C45.5299 24.2102 43.1699 30.0002 39.8699 35.7302C36.3499 41.8302 32.5499 46.7502 28.8799 49.9602C26.4999 52.0402 24.0499 53.5602 21.8099 54.3502C20.6399 54.7702 19.5399 54.9802 18.5599 54.9802ZM21.0699 24.8902L22.1099 25.4902C18.8799 31.0902 16.4899 37.1002 15.5699 41.9802C14.4599 47.8302 15.5299 51.3502 17.0699 52.2402C17.4499 52.4602 17.9499 52.5802 18.5599 52.5802C20.5499 52.5802 23.6799 51.3202 27.2999 48.1602C30.7699 45.1302 34.3999 40.4102 37.7899 34.5402C40.9699 29.0302 43.2299 23.4902 44.1699 18.9402C45.4799 12.5702 44.3499 8.67024 42.7399 7.74024C41.9199 7.27024 40.5899 7.33024 38.9899 7.92024C37.1399 8.60024 35.0499 9.93024 32.9499 11.7602C29.1799 15.0402 25.3299 19.9202 22.1099 25.5002L21.0699 24.8902Z" fill="#00D8FF"/>
<path d="M41.3401 55.0102C38.6201 55.0102 35.1701 53.3702 31.5701 50.2702C27.5501 46.8102 23.4601 41.6602 20.0401 35.7502C16.6801 29.9502 14.2801 23.9202 13.2701 18.7502C12.6801 15.7302 12.5701 12.9602 12.9501 10.7302C13.3701 8.30022 14.3601 6.57022 15.8301 5.72022C18.8101 3.99022 23.8801 5.77022 29.0401 10.3602C32.7001 13.6102 36.5401 18.5502 39.8501 24.2702C43.3801 30.3702 45.7501 36.1202 46.6901 40.9002C47.3001 44.0002 47.4001 46.8802 46.9701 49.2202C46.5101 51.7102 45.4701 53.4802 43.9701 54.3502C43.2201 54.7902 42.3301 55.0102 41.3401 55.0102ZM22.1201 34.5502C25.3601 40.1502 29.3801 45.2202 33.1401 48.4502C37.6501 52.3302 41.2301 53.1702 42.7801 52.2702C44.3901 51.3402 45.5701 47.5302 44.3501 41.3702C43.4501 36.8502 41.1801 31.3502 37.7801 25.4802C34.5901 19.9702 30.9201 15.2402 27.4501 12.1602C22.5901 7.84022 18.6501 6.87022 17.0401 7.80022C16.2201 8.27022 15.6101 9.46022 15.3201 11.1402C14.9901 13.0802 15.0901 15.5602 15.6301 18.2902C16.5901 23.2002 18.8901 28.9702 22.1201 34.5502Z" fill="#00D8FF"/>
</svg>
