<svg width="700" height="700" viewBox="0 0 700 700" fill="none" xmlns="http://www.w3.org/2000/svg">
<path d="M350 598.584C499.916 598.584 621.446 591.489 621.446 582.736C621.446 573.984 499.916 566.888 350 566.888C200.085 566.888 78.5542 573.984 78.5542 582.736C78.5542 591.489 200.085 598.584 350 598.584Z" fill="#F5F5F5"/>
<path d="M511.21 226.8C513.17 233.366 523.278 245.658 524.076 254.604C524.874 263.55 507.64 277.858 507.64 277.858C507.64 277.858 494.76 234.794 502.824 229.768C510.888 224.742 511.21 226.8 511.21 226.8Z" fill="#263238"/>
<path d="M475.818 273.322C472.766 275.87 469.77 278.012 466.648 280.21C463.526 282.408 460.306 284.41 457.03 286.286C453.742 288.231 450.354 290.002 446.88 291.592C445.116 292.39 443.366 293.174 441.546 293.86C440.65 294.224 439.74 294.574 438.816 294.882L436.016 295.862C433.622 296.531 431.118 296.712 428.652 296.394C426.591 296.153 424.551 295.76 422.548 295.218C418.815 294.185 415.161 292.884 411.614 291.326C404.729 288.32 398.088 284.786 391.748 280.756L394.366 275.884C397.67 277.284 401.058 278.684 404.418 279.902C407.778 281.12 411.166 282.408 414.554 283.458C417.857 284.54 421.223 285.419 424.634 286.09C426.2 286.396 427.786 286.588 429.38 286.664C430.568 286.756 431.764 286.633 432.908 286.3C436.102 285.078 439.225 283.676 442.26 282.1C443.814 281.288 445.354 280.462 446.866 279.566C448.378 278.67 449.918 277.802 451.416 276.878C454.426 275.016 457.366 273.042 460.278 271.012C463.19 268.982 466.088 266.812 468.678 264.754L475.818 273.322Z" fill="#E58A7B"/>
<path d="M483.21 258.412C479.738 255.696 465.374 264.586 461.02 268.296L464.198 287.518C464.198 287.518 484.848 278.866 486.08 272.958C487.382 266.784 485.8 260.484 483.21 258.412Z" fill="#407BFF"/>
<path opacity="0.2" d="M483.21 258.412C479.738 255.696 465.374 264.586 461.02 268.296L464.198 287.518C464.198 287.518 484.848 278.866 486.08 272.958C487.382 266.784 485.8 260.484 483.21 258.412Z" fill="black"/>
<path d="M531.524 316.582L487.928 325.08C465.402 264.082 470.302 262.08 470.302 262.08C473.471 260.34 476.743 258.797 480.102 257.46L480.69 257.236C483.49 256.214 484.05 256.06 487.774 254.968C494.186 253.442 500.164 252.168 507.57 251.118L508.97 250.922C510.37 250.754 511.644 250.614 512.932 250.488C513.8 250.39 514.668 250.334 515.494 250.278L518.294 250.124C523.082 249.886 526.512 249.956 526.512 249.956C525.182 288.05 527.338 298.984 531.524 316.582Z" fill="#407BFF"/>
<path opacity="0.2" d="M531.524 316.582L487.928 325.08C465.402 264.082 470.302 262.08 470.302 262.08C473.471 260.34 476.743 258.797 480.102 257.46L480.69 257.236C483.49 256.214 484.05 256.06 487.774 254.968C494.186 253.442 500.164 252.168 507.57 251.118L508.97 250.922C510.37 250.754 511.644 250.614 512.932 250.488C513.8 250.39 514.668 250.334 515.494 250.278L518.294 250.124C523.082 249.886 526.512 249.956 526.512 249.956C525.182 288.05 527.338 298.984 531.524 316.582Z" fill="black"/>
<path d="M497.378 231.182C494.578 235.816 504.728 237.958 510.734 233.212C515.536 229.404 514.402 220.612 510.286 218.568C506.17 216.524 497.378 231.182 497.378 231.182Z" fill="#407BFF"/>
<path opacity="0.4" d="M497.378 231.182C494.578 235.816 504.728 237.958 510.734 233.212C515.536 229.404 514.402 220.612 510.286 218.568C506.17 216.524 497.378 231.182 497.378 231.182Z" fill="black"/>
<path d="M539.812 569.058L528.906 569.87L524.916 544.768L535.822 543.956L539.812 569.058Z" fill="#E58A7B"/>
<path d="M616.952 533.974L607.698 539.798L591.22 520.254L600.474 514.416L616.952 533.974Z" fill="#E58A7B"/>
<path d="M524.916 544.768L527.128 558.712L537.88 556.906L535.836 543.97L524.916 544.768Z" fill="#CF6F64"/>
<path d="M600.488 514.43L591.22 520.254L598.052 528.346L607.516 522.76L600.488 514.43Z" fill="#CF6F64"/>
<path d="M488.6 325.08C488.6 325.08 488.446 411.628 495.516 444.22C502.88 478.128 524.538 555.268 524.538 555.268L540.246 553.238C540.246 553.238 527.968 475.314 522.732 441.616C517.034 404.894 520.534 318.864 520.534 318.864L488.6 325.08Z" fill="#407BFF"/>
<path opacity="0.7" d="M488.6 325.08C488.6 325.08 488.446 411.628 495.516 444.22C502.88 478.128 524.538 555.268 524.538 555.268L540.246 553.238C540.246 553.238 527.968 475.314 522.732 441.616C517.034 404.894 520.534 318.864 520.534 318.864L488.6 325.08Z" fill="black"/>
<path opacity="0.5" d="M519.554 357.224L511.854 349.552C512.148 382.802 514.01 399.224 520.408 417.116C519.4 398.202 519.316 375.83 519.554 357.224Z" fill="black"/>
<path d="M499.436 322.84C499.436 322.84 522.914 394.366 534.562 435.568C546.854 479.038 593.978 527.114 593.978 527.114L607.502 519.302C607.502 519.302 575.302 473.662 563.458 433.104C539.378 350.77 549.276 333.326 531.51 316.582L499.436 322.84Z" fill="#407BFF"/>
<path opacity="0.7" d="M499.436 322.84C499.436 322.84 522.914 394.366 534.562 435.568C546.854 479.038 593.978 527.114 593.978 527.114L607.502 519.302C607.502 519.302 575.302 473.662 563.458 433.104C539.378 350.77 549.276 333.326 531.51 316.582L499.436 322.84Z" fill="black"/>
<path d="M480.984 205.926C487.228 208.012 492.898 223.51 493.136 229.614C493.374 235.718 475.048 244.132 475.048 244.132C475.048 244.132 466.97 224.532 469.224 211.932C470.204 206.458 480.984 205.926 480.984 205.926Z" fill="#263238"/>
<path d="M395.29 276.402L387.884 268.338L385.462 278.446C385.462 278.446 390.726 283.094 394.982 281.498L395.29 276.402Z" fill="#E58A7B"/>
<path d="M380.38 266.028L375.2 270.144L385.462 278.446L387.884 268.338L380.38 266.028Z" fill="#E58A7B"/>
<path d="M604.8 537.712L613.452 528.99C613.602 528.841 613.8 528.751 614.01 528.735C614.221 528.72 614.43 528.781 614.6 528.906L622.482 534.758C622.677 534.911 622.837 535.104 622.952 535.324C623.067 535.544 623.134 535.785 623.149 536.033C623.164 536.28 623.125 536.528 623.037 536.76C622.948 536.991 622.812 537.202 622.636 537.376C619.556 540.358 617.932 541.646 614.124 545.482C611.786 547.848 608.608 551.53 605.374 554.792C602.14 558.054 598.738 555.016 599.774 553.392C604.492 546.014 603.652 543.256 603.974 539.504C604.023 538.827 604.316 538.19 604.8 537.712Z" fill="#263238"/>
<path d="M528.178 568.302H540.47C540.687 568.302 540.896 568.377 541.062 568.516C541.229 568.654 541.341 568.846 541.38 569.058L543.312 578.774C543.356 579.013 543.346 579.259 543.283 579.494C543.221 579.728 543.107 579.946 542.951 580.132C542.794 580.318 542.599 580.467 542.378 580.569C542.158 580.67 541.917 580.722 541.674 580.72C537.376 580.65 535.304 580.398 529.9 580.398C526.582 580.398 519.722 580.734 515.13 580.734C510.538 580.734 510.048 576.198 511.938 575.792C520.338 573.944 523.628 571.41 526.386 568.974C526.886 568.547 527.521 568.309 528.178 568.302Z" fill="#263238"/>
<g style="mix-blend-mode:multiply" opacity="0.27">
<path d="M527.926 272.034L521.206 276.038L528.962 305.2C527.268 296.366 528.024 286.664 527.926 272.034Z" fill="#407BFF"/>
</g>
<path d="M489.734 226.506C494.508 230.496 501.438 236.306 509.6 229.516C516.6 223.664 521.5 208.306 508.942 207.746C502.376 207.452 489.734 226.506 489.734 226.506Z" fill="#263238"/>
<path d="M501.27 229.236C501.27 235.844 502.292 247.758 507.57 251.146C507.57 251.146 507.094 257.95 495.25 260.246C482.244 262.78 487.774 254.996 487.774 254.996C494.55 251.916 493.374 246.68 491.134 241.976L501.27 229.236Z" fill="#E58A7B"/>
<path d="M497.14 234.43L491.148 241.976C491.673 243.067 492.104 244.2 492.436 245.364C495.068 244.44 498.218 240.744 497.952 237.846C497.895 236.667 497.62 235.509 497.14 234.43Z" fill="#CF6F64"/>
<path d="M501.9 214.06C503.3 224.826 504.154 229.348 499.842 235.858C493.36 245.658 479.836 245.028 475.23 234.906C471.03 225.792 469.462 209.706 479.038 203.476C481.144 202.082 483.571 201.251 486.089 201.06C488.607 200.869 491.132 201.326 493.424 202.387C495.715 203.448 497.697 205.077 499.181 207.121C500.665 209.164 501.601 211.553 501.9 214.06Z" fill="#E58A7B"/>
<path d="M483.196 195.202C475.916 200.368 490.518 201.894 490.532 209.384C490.532 212.478 495.614 222.292 502.838 221.732L509.838 209.3C517.202 197.4 499.8 183.4 483.196 195.202Z" fill="#263238"/>
<path d="M483.196 195.202C470.386 194.53 464.8 204.722 466.27 213.878C475.206 211.65 484.45 210.917 493.626 211.708C511.182 213.5 483.196 195.202 483.196 195.202Z" fill="#263238"/>
<path d="M505.4 223.342C505.578 225.432 504.918 227.506 503.566 229.11C501.76 231.224 499.366 229.978 498.526 227.472C497.812 225.204 497.896 221.382 500.332 220.178C500.87 219.929 501.462 219.818 502.054 219.855C502.645 219.892 503.219 220.076 503.722 220.39C504.225 220.704 504.641 221.138 504.934 221.654C505.228 222.169 505.388 222.749 505.4 223.342Z" fill="#E58A7B"/>
<path d="M486.346 220.178C486.514 221.046 486.192 221.83 485.632 221.942C485.072 222.054 484.47 221.438 484.302 220.542C484.134 219.646 484.456 218.876 485.016 218.764C485.576 218.652 486.178 219.31 486.346 220.178Z" fill="#263238"/>
<path d="M476.56 222.082C476.728 222.95 476.406 223.748 475.846 223.86C475.286 223.972 474.684 223.356 474.516 222.46C474.348 221.564 474.67 220.794 475.23 220.696C475.79 220.598 476.392 221.2 476.56 222.082Z" fill="#263238"/>
<path d="M475.496 220.71L473.298 220.528C473.298 220.528 474.684 221.942 475.496 220.71Z" fill="#263238"/>
<path d="M479.444 223.076C479.051 225.197 478.373 227.255 477.428 229.194C477.93 229.428 478.477 229.549 479.031 229.549C479.585 229.549 480.132 229.428 480.634 229.194L479.444 223.076Z" fill="#DF5753"/>
<path d="M484.288 231.994C484.228 231.995 484.17 231.974 484.123 231.936C484.077 231.897 484.046 231.843 484.036 231.784C484.03 231.751 484.031 231.717 484.038 231.684C484.046 231.651 484.06 231.62 484.079 231.593C484.099 231.565 484.124 231.542 484.152 231.525C484.181 231.507 484.213 231.495 484.246 231.49C485.328 231.302 486.351 230.862 487.231 230.205C488.112 229.548 488.825 228.694 489.314 227.71C489.327 227.679 489.346 227.651 489.37 227.627C489.394 227.603 489.422 227.584 489.453 227.571C489.484 227.558 489.518 227.551 489.552 227.551C489.586 227.551 489.619 227.557 489.65 227.57C489.682 227.583 489.71 227.602 489.734 227.626C489.758 227.65 489.777 227.678 489.79 227.709C489.803 227.74 489.81 227.774 489.81 227.808C489.81 227.841 489.803 227.875 489.79 227.906C489.278 228.975 488.515 229.904 487.567 230.616C486.619 231.328 485.514 231.8 484.344 231.994H484.288Z" fill="#263238"/>
<path d="M488.6 216.454C488.472 216.456 488.348 216.411 488.25 216.328C487.779 215.881 487.209 215.551 486.586 215.366C485.963 215.181 485.305 215.146 484.666 215.264C484.525 215.3 484.376 215.277 484.251 215.203C484.126 215.128 484.037 215.006 484.001 214.865C483.966 214.724 483.988 214.575 484.063 214.45C484.138 214.325 484.259 214.236 484.4 214.2C485.208 214.041 486.041 214.077 486.832 214.303C487.623 214.529 488.349 214.94 488.95 215.502C489.046 215.599 489.1 215.73 489.1 215.866C489.1 216.003 489.046 216.133 488.95 216.23C488.911 216.29 488.86 216.341 488.799 216.38C488.739 216.419 488.671 216.444 488.6 216.454Z" fill="#263238"/>
<path d="M471.142 218.4C471.078 218.415 471.011 218.415 470.946 218.4C470.882 218.374 470.824 218.336 470.775 218.287C470.727 218.238 470.688 218.18 470.662 218.116C470.636 218.052 470.623 217.984 470.624 217.915C470.624 217.846 470.639 217.778 470.666 217.714C470.964 216.949 471.441 216.266 472.057 215.722C472.674 215.179 473.411 214.792 474.208 214.592C474.276 214.578 474.345 214.578 474.412 214.592C474.48 214.605 474.544 214.633 474.6 214.672C474.656 214.712 474.704 214.762 474.74 214.82C474.777 214.879 474.8 214.944 474.81 215.012C474.825 215.079 474.825 215.147 474.812 215.214C474.799 215.28 474.773 215.343 474.735 215.4C474.697 215.456 474.649 215.504 474.592 215.541C474.535 215.578 474.471 215.603 474.404 215.614C473.775 215.786 473.194 216.102 472.708 216.537C472.222 216.972 471.844 217.514 471.604 218.12C471.559 218.204 471.493 218.274 471.412 218.323C471.33 218.373 471.237 218.399 471.142 218.4Z" fill="#263238"/>
<path d="M601.552 542.794C601.312 542.788 601.077 542.724 600.868 542.606C600.658 542.489 600.48 542.323 600.348 542.122C600.249 542.004 600.182 541.861 600.155 541.709C600.128 541.556 600.142 541.4 600.194 541.254C600.684 539.938 604.548 539.098 604.982 539C605.033 538.991 605.085 538.997 605.132 539.017C605.179 539.037 605.22 539.07 605.248 539.112C605.278 539.153 605.294 539.202 605.294 539.252C605.294 539.302 605.278 539.351 605.248 539.392C604.492 540.638 603.008 542.724 601.622 542.794H601.552ZM604.478 539.644C602.952 540.036 600.936 540.736 600.684 541.436C600.66 541.5 600.654 541.571 600.669 541.638C600.684 541.705 600.719 541.766 600.768 541.814C600.855 541.959 600.978 542.077 601.126 542.159C601.274 542.24 601.44 542.28 601.608 542.276C602.35 542.234 603.4 541.268 604.478 539.644Z" fill="#407BFF"/>
<path d="M603.848 539.644C602.448 539.644 600.698 539.294 600.18 538.538C600.065 538.366 600.012 538.16 600.03 537.954C600.048 537.748 600.136 537.554 600.278 537.404C600.401 537.248 600.556 537.12 600.732 537.028C600.908 536.936 601.102 536.883 601.3 536.872H601.412C602.98 536.872 605.136 538.986 605.22 539.07C605.254 539.102 605.278 539.142 605.291 539.186C605.303 539.231 605.303 539.278 605.29 539.322C605.278 539.365 605.255 539.405 605.223 539.437C605.191 539.468 605.152 539.492 605.108 539.504C604.696 539.603 604.273 539.65 603.848 539.644ZM601.412 537.39H601.328C601.203 537.394 601.08 537.427 600.968 537.485C600.857 537.543 600.76 537.625 600.684 537.726C600.488 537.992 600.544 538.146 600.614 538.244C601.034 538.888 603.176 539.252 604.492 539.098C603.653 538.242 602.583 537.649 601.412 537.39Z" fill="#407BFF"/>
<path d="M524.16 570.22C523.218 570.304 522.276 570.067 521.486 569.548C521.299 569.403 521.152 569.212 521.059 568.994C520.966 568.776 520.93 568.538 520.954 568.302C520.953 568.162 520.989 568.023 521.058 567.901C521.126 567.778 521.226 567.675 521.346 567.602C522.634 566.846 527.142 569.086 527.646 569.338C527.693 569.363 527.732 569.402 527.757 569.45C527.782 569.497 527.792 569.551 527.786 569.604C527.779 569.657 527.757 569.706 527.722 569.746C527.687 569.786 527.641 569.815 527.59 569.828C526.461 570.065 525.313 570.196 524.16 570.22ZM522.088 567.952C521.923 567.942 521.759 567.976 521.612 568.05C521.565 568.075 521.526 568.114 521.501 568.162C521.476 568.209 521.466 568.263 521.472 568.316C521.458 568.474 521.483 568.633 521.544 568.779C521.605 568.926 521.7 569.055 521.822 569.156C522.522 569.758 524.328 569.856 526.708 569.464C525.263 568.707 523.702 568.195 522.088 567.952Z" fill="#407BFF"/>
<path d="M527.534 569.8H527.436C526.036 569.198 523.334 566.818 523.53 565.6C523.53 565.32 523.782 564.956 524.482 564.886H524.692C527.128 564.886 527.758 569.338 527.786 569.534C527.792 569.581 527.787 569.629 527.77 569.673C527.752 569.717 527.724 569.756 527.688 569.786C527.639 569.805 527.586 569.81 527.534 569.8ZM524.734 565.376H524.58C524.132 565.376 524.104 565.586 524.104 565.642C523.992 566.384 525.84 568.246 527.24 569.072C526.96 567.98 526.246 565.404 524.678 565.404L524.734 565.376Z" fill="#407BFF"/>
<path d="M485.282 218.806L483.084 218.61C483.084 218.61 484.47 220.038 485.282 218.806Z" fill="#263238"/>
<path d="M494.9 269.556C471.478 274.778 478.716 260.61 480.116 257.488L480.704 257.264C483.504 256.242 484.064 256.088 487.788 254.996C494.287 253.242 500.902 251.955 507.584 251.146L508.984 250.95C510.384 250.768 511.658 250.628 512.946 250.516C513.814 250.418 514.682 250.362 515.508 250.306L518.308 250.138C518.784 252.322 519.946 263.998 494.9 269.556Z" fill="#E58A7B"/>
<path d="M531.664 313.894L534.394 317.422C534.604 317.688 534.31 318.066 533.806 318.164L488.082 327.068C487.69 327.152 487.326 327.068 487.256 326.774L486.094 322.952C486.094 322.686 486.318 322.392 486.738 322.308L530.894 313.712C531.027 313.673 531.168 313.669 531.303 313.701C531.438 313.733 531.563 313.8 531.664 313.894Z" fill="#26395A"/>
<path d="M526.694 319.984L527.884 319.76C528.122 319.76 528.276 319.564 528.234 319.41L526.694 314.454C526.694 314.3 526.414 314.23 526.176 314.272L525 314.496C524.762 314.496 524.608 314.706 524.65 314.846L526.19 319.816C526.232 319.956 526.47 320.04 526.694 319.984Z" fill="#407BFF"/>
<path d="M499.912 336.504L490.798 333.116L492.198 341.782C492.198 341.782 498.806 344.162 502.18 341.11L499.912 336.504Z" fill="#E58A7B"/>
<path d="M482.118 335.412L479.948 341.096L492.198 341.782L490.798 333.116L482.118 335.412Z" fill="#E58A7B"/>
<path d="M491.484 326.844L492.674 326.62C492.898 326.62 493.066 326.424 493.01 326.27L491.47 321.314C491.47 321.16 491.204 321.09 490.966 321.132L489.776 321.356C489.538 321.356 489.384 321.566 489.44 321.706L490.98 326.676C491.022 326.816 491.246 326.9 491.484 326.844Z" fill="#407BFF"/>
<path d="M509.096 323.4L510.272 323.176C510.51 323.176 510.664 322.98 510.622 322.826L509.082 317.87C509.082 317.716 508.802 317.646 508.564 317.688L507.388 317.912C507.15 317.912 506.996 318.122 507.038 318.262L508.578 323.232C508.634 323.313 508.715 323.374 508.809 323.404C508.902 323.434 509.003 323.433 509.096 323.4Z" fill="#407BFF"/>
<path d="M504.112 245.588C505.106 245.21 506.352 248.71 506.044 249.158C505.33 250.18 492.254 253.75 491.666 251.748C491.63 250.663 491.796 249.58 492.156 248.556C492.534 247.884 495.432 249.116 504.112 245.588Z" fill="#407BFF"/>
<path d="M501.9 245.672C502.404 244.51 503.846 242.648 505.106 243.712C506.366 244.776 506.898 247.072 506.072 247.45C505.246 247.828 501.032 247.618 501.9 245.672Z" fill="#407BFF"/>
<path d="M504.574 246.274C505.442 245.35 507.374 244.076 508.256 245.504C509.138 246.932 508.816 249.27 507.92 249.34C507.024 249.41 503.104 247.8 504.574 246.274Z" fill="#407BFF"/>
<path d="M505.05 246.064C504.979 245.32 505.126 244.571 505.471 243.908C505.816 243.245 506.346 242.696 506.996 242.326C508.592 241.29 510.146 240.618 510.762 239.526C511.027 240.55 511.08 241.618 510.916 242.662C510.594 244.16 505.624 245.308 505.96 246.61L505.05 246.064Z" fill="#407BFF"/>
<path d="M504.84 245.994C504.376 245.407 504.093 244.698 504.023 243.952C503.954 243.207 504.101 242.458 504.448 241.794C505.204 240.058 506.156 238.658 506.1 237.426C506.878 238.142 507.502 239.009 507.934 239.974C508.466 241.374 504.924 245.056 505.918 245.98L504.84 245.994Z" fill="#407BFF"/>
<path d="M602.21 519.484C602.182 519.483 602.154 519.475 602.129 519.46C602.105 519.446 602.085 519.425 602.07 519.4C601.748 518.952 569.744 473.284 558.012 433.16C550.356 407.422 544.471 381.19 540.4 354.648C537.978 339.696 536.508 330.666 531.692 323.26C531.66 323.226 531.642 323.181 531.642 323.134C531.642 323.087 531.66 323.042 531.692 323.008C531.725 322.98 531.768 322.964 531.811 322.964C531.855 322.964 531.897 322.98 531.93 323.008C536.802 330.484 538.272 339.542 540.694 354.536C544.784 381.04 550.678 407.234 558.334 432.936C570.052 473.004 602.028 518.616 602.35 519.078C602.376 519.112 602.391 519.154 602.391 519.197C602.391 519.24 602.376 519.282 602.35 519.316C602.348 519.356 602.334 519.393 602.308 519.424C602.283 519.454 602.249 519.475 602.21 519.484Z" fill="#407BFF"/>
<path opacity="0.4" d="M602.21 519.484C602.182 519.483 602.154 519.475 602.129 519.46C602.105 519.446 602.085 519.425 602.07 519.4C601.748 518.952 569.744 473.284 558.012 433.16C550.356 407.422 544.471 381.19 540.4 354.648C537.978 339.696 536.508 330.666 531.692 323.26C531.66 323.226 531.642 323.181 531.642 323.134C531.642 323.087 531.66 323.042 531.692 323.008C531.725 322.98 531.768 322.964 531.811 322.964C531.855 322.964 531.897 322.98 531.93 323.008C536.802 330.484 538.272 339.542 540.694 354.536C544.784 381.04 550.678 407.234 558.334 432.936C570.052 473.004 602.028 518.616 602.35 519.078C602.376 519.112 602.391 519.154 602.391 519.197C602.391 519.24 602.376 519.282 602.35 519.316C602.348 519.356 602.334 519.393 602.308 519.424C602.283 519.454 602.249 519.475 602.21 519.484Z" fill="black"/>
<path d="M543.06 553.182L521.668 555.954L520.268 549.99L542.542 545.272L543.06 553.182Z" fill="#407BFF"/>
<path d="M608.636 518.826L592.858 527.94L587.538 523.39L604.8 511.714L608.636 518.826Z" fill="#407BFF"/>
<path d="M534.59 264.782C535.346 268.674 535.78 272.342 536.2 276.136C536.62 279.93 536.774 283.682 536.886 287.476C536.998 291.3 536.914 295.127 536.634 298.942C536.48 300.86 536.312 302.778 536.046 304.71C535.934 305.662 535.808 306.628 535.626 307.594L535.108 310.562C534.534 312.981 533.482 315.262 532.014 317.268C530.81 318.957 529.481 320.552 528.038 322.042C525.337 324.817 522.436 327.391 519.358 329.742C513.405 334.326 507.105 338.44 500.514 342.048L497.518 337.4C500.318 335.174 503.118 332.878 505.918 330.54C508.718 328.202 511.378 325.836 513.94 323.372C516.472 321.001 518.861 318.481 521.094 315.826C522.12 314.598 523.056 313.297 523.894 311.934C524.555 310.941 525.03 309.836 525.294 308.672C525.749 305.274 526.016 301.852 526.092 298.424C526.092 296.674 526.092 294.924 526.092 293.174C526.092 291.424 526.022 289.646 525.938 287.882C525.77 284.354 525.448 280.882 525.07 277.298C524.692 273.714 524.202 270.172 523.67 266.854L534.59 264.782Z" fill="#E58A7B"/>
<path d="M532.896 252.882C538.874 257.726 537.446 272.118 537.446 272.118L517.286 278.754C517.286 278.754 518.21 262.164 519.218 256.2C520.394 249.102 527.002 248.108 532.896 252.882Z" fill="#407BFF"/>
<path opacity="0.2" d="M532.896 252.882C538.874 257.726 537.446 272.118 537.446 272.118L517.286 278.754C517.286 278.754 518.21 262.164 519.218 256.2C520.394 249.102 527.002 248.108 532.896 252.882Z" fill="black"/>
<path d="M263.097 287.614C262.315 284.22 260.405 281.191 257.679 279.022C254.953 276.853 251.572 275.672 248.089 275.672H136.089C132.005 275.672 128.088 277.295 125.2 280.183C122.311 283.071 120.689 286.988 120.689 291.072V540.02C120.689 544.105 122.311 548.022 125.2 550.91C128.088 553.798 132.005 555.42 136.089 555.42H491.689C495.773 555.42 499.69 553.798 502.578 550.91C505.466 548.022 507.089 544.105 507.089 540.02V330.902C507.089 326.818 505.466 322.901 502.578 320.013C499.69 317.125 495.773 315.502 491.689 315.502H298.139C290.005 315.504 282.11 312.746 275.745 307.681C269.38 302.616 264.922 295.542 263.097 287.614Z" fill="#407BFF"/>
<path opacity="0.6" d="M263.097 287.614C262.315 284.22 260.405 281.191 257.679 279.022C254.953 276.853 251.572 275.672 248.089 275.672H136.089C132.005 275.672 128.088 277.295 125.2 280.183C122.311 283.071 120.689 286.988 120.689 291.072V540.02C120.689 544.105 122.311 548.022 125.2 550.91C128.088 553.798 132.005 555.42 136.089 555.42H491.689C495.773 555.42 499.69 553.798 502.578 550.91C505.466 548.022 507.089 544.105 507.089 540.02V330.902C507.089 326.818 505.466 322.901 502.578 320.013C499.69 317.125 495.773 315.502 491.689 315.502H298.139C290.005 315.504 282.11 312.746 275.745 307.681C269.38 302.616 264.922 295.542 263.097 287.614Z" fill="black"/>
<path opacity="0.22" d="M223.561 210.083L233.543 242.409C234.817 246.523 237.672 249.963 241.481 251.974C245.29 253.984 249.741 254.401 253.857 253.133L286.169 243.151L223.561 210.083Z" fill="#407BFF"/>
<path d="M223.561 210.083L108.061 245.769C106.022 246.395 104.127 247.417 102.483 248.777C100.84 250.136 99.4805 251.807 98.4831 253.692C97.4858 255.578 96.87 257.641 96.6709 259.765C96.4719 261.889 96.6935 264.031 97.3231 266.069L163.263 479.541C163.892 481.579 164.917 483.473 166.279 485.115C167.64 486.757 169.312 488.115 171.198 489.111C173.085 490.107 175.149 490.721 177.273 490.919C179.397 491.117 181.539 490.895 183.577 490.265L331.403 444.597C333.441 443.969 335.335 442.945 336.977 441.585C338.619 440.225 339.976 438.554 340.972 436.669C341.968 434.784 342.583 432.721 342.781 430.598C342.979 428.475 342.757 426.334 342.127 424.297L286.127 243.151L223.561 210.083Z" fill="#407BFF"/>
<path opacity="0.8" d="M223.561 210.083L108.061 245.769C106.022 246.395 104.127 247.417 102.483 248.777C100.84 250.136 99.4805 251.807 98.4831 253.692C97.4858 255.578 96.87 257.641 96.6709 259.765C96.4719 261.889 96.6935 264.031 97.3231 266.069L163.263 479.541C163.892 481.579 164.917 483.473 166.279 485.115C167.64 486.757 169.312 488.115 171.198 489.111C173.085 490.107 175.149 490.721 177.273 490.919C179.397 491.117 181.539 490.895 183.577 490.265L331.403 444.597C333.441 443.969 335.335 442.945 336.977 441.585C338.619 440.225 339.976 438.554 340.972 436.669C341.968 434.784 342.583 432.721 342.781 430.598C342.979 428.475 342.757 426.334 342.127 424.297L286.127 243.151L223.561 210.083Z" fill="white"/>
<g opacity="0.28">
<path d="M285.707 435.272L189.611 464.952C187.814 465.504 185.871 465.322 184.208 464.446C182.545 463.57 181.296 462.071 180.735 460.276C180.188 458.479 180.374 456.539 181.253 454.878C182.131 453.218 183.631 451.973 185.425 451.414L281.521 421.72C283.32 421.169 285.264 421.353 286.928 422.232C288.591 423.111 289.839 424.614 290.397 426.41C290.944 428.208 290.758 430.148 289.879 431.808C289.001 433.469 287.501 434.714 285.707 435.272Z" fill="#407BFF"/>
</g>
<g opacity="0.28">
<path d="M182.289 261.084L131.469 276.778C129.672 277.326 127.731 277.143 126.069 276.267C124.406 275.391 123.157 273.894 122.593 272.102C122.045 270.303 122.231 268.361 123.11 266.698C123.988 265.036 125.488 263.788 127.283 263.226L178.103 247.532C179.9 246.976 181.844 247.157 183.509 248.033C185.173 248.91 186.421 250.412 186.979 252.208C187.526 254.007 187.341 255.95 186.462 257.612C185.584 259.275 184.084 260.523 182.289 261.084Z" fill="#407BFF"/>
</g>
<g opacity="0.28">
<path d="M223.757 277.731L139.757 303.673C137.963 304.211 136.03 304.021 134.376 303.143C132.722 302.265 131.481 300.77 130.923 298.983C130.371 297.187 130.554 295.247 131.43 293.586C132.307 291.925 133.806 290.679 135.599 290.121L219.599 264.179C221.396 263.627 223.339 263.809 225.002 264.685C226.665 265.561 227.914 267.06 228.475 268.855C229.017 270.657 228.826 272.601 227.942 274.264C227.059 275.926 225.555 277.172 223.757 277.731Z" fill="#407BFF"/>
</g>
<g opacity="0.28">
<path d="M270.657 292.697L148.073 330.497C146.278 331.048 144.337 330.866 142.676 329.989C141.015 329.113 139.769 327.614 139.211 325.821C138.663 324.023 138.847 322.083 139.722 320.42C140.598 318.758 142.095 317.509 143.887 316.945L266.471 279.145C268.266 278.597 270.205 278.781 271.865 279.657C273.525 280.533 274.772 282.029 275.333 283.821C275.885 285.618 275.703 287.56 274.827 289.223C273.95 290.887 272.451 292.135 270.657 292.697Z" fill="#407BFF"/>
</g>
<g opacity="0.28">
<path d="M278.959 319.577L207.699 341.599C205.902 342.146 203.961 341.96 202.301 341.081C200.64 340.202 199.395 338.702 198.837 336.909C198.289 335.113 198.473 333.174 199.349 331.514C200.225 329.854 201.722 328.608 203.513 328.047L274.773 306.025C276.572 305.481 278.513 305.668 280.174 306.546C281.836 307.424 283.084 308.922 283.649 310.715C284.196 312.512 284.01 314.452 283.131 316.113C282.252 317.773 280.753 319.018 278.959 319.577Z" fill="#407BFF"/>
</g>
<g opacity="0.28">
<path d="M175.023 351.693L156.389 357.447C154.592 357.999 152.649 357.816 150.986 356.94C149.323 356.064 148.074 354.565 147.513 352.771C146.962 350.972 147.146 349.027 148.025 347.364C148.904 345.7 150.406 344.453 152.203 343.895L170.837 338.141C172.634 337.592 174.575 337.776 176.237 338.652C177.9 339.528 179.149 341.024 179.713 342.817C180.257 344.616 180.069 346.556 179.191 348.218C178.313 349.88 176.815 351.128 175.023 351.693Z" fill="#407BFF"/>
</g>
<g opacity="0.28">
<path d="M287.275 346.47L164.691 384.34C162.894 384.888 160.953 384.701 159.293 383.823C157.633 382.944 156.387 381.444 155.829 379.65C155.278 377.855 155.46 375.915 156.336 374.253C157.213 372.592 158.712 371.346 160.505 370.788L283.089 332.918C284.884 332.371 286.823 332.555 288.483 333.431C290.143 334.307 291.39 335.803 291.951 337.594C292.503 339.392 292.321 341.334 291.445 342.997C290.569 344.661 289.069 345.909 287.275 346.47Z" fill="#407BFF"/>
</g>
<g opacity="0.28">
<path d="M248.271 387.966L172.993 411.22C171.198 411.768 169.259 411.584 167.599 410.708C165.939 409.832 164.692 408.335 164.131 406.544C163.583 404.747 163.767 402.806 164.643 401.144C165.518 399.482 167.015 398.233 168.807 397.668L244.085 374.414C245.884 373.867 247.827 374.052 249.489 374.931C251.152 375.809 252.4 377.31 252.961 379.104C253.512 380.901 253.328 382.844 252.449 384.505C251.569 386.166 250.067 387.411 248.271 387.966Z" fill="#407BFF"/>
</g>
<g opacity="0.28">
<path d="M295.577 373.365L275.487 379.567C273.688 380.114 271.746 379.928 270.083 379.05C268.42 378.171 267.172 376.671 266.611 374.877C266.064 373.079 266.25 371.139 267.129 369.478C268.007 367.818 269.507 366.573 271.301 366.015L291.391 359.813C293.186 359.261 295.127 359.443 296.788 360.32C298.449 361.196 299.695 362.695 300.253 364.489C300.805 366.286 300.623 368.228 299.747 369.891C298.871 371.555 297.371 372.803 295.577 373.365Z" fill="#407BFF"/>
</g>
<g opacity="0.28">
<path d="M303.879 400.273L181.323 438.073C179.524 438.624 177.58 438.44 175.916 437.561C174.253 436.682 173.005 435.179 172.447 433.383C171.896 431.585 172.08 429.643 172.96 427.982C173.839 426.32 175.341 425.076 177.137 424.521L299.707 386.651C301.506 386.107 303.447 386.294 305.108 387.172C306.77 388.05 308.019 389.548 308.583 391.341C308.864 392.236 308.966 393.178 308.881 394.112C308.796 395.047 308.528 395.956 308.091 396.786C307.653 397.616 307.056 398.352 306.333 398.95C305.61 399.549 304.776 399.998 303.879 400.273Z" fill="#407BFF"/>
</g>
<path d="M306.511 129.806L343.163 211.482C344.115 213.614 344.183 216.036 343.354 218.219C342.525 220.402 340.866 222.167 338.739 223.13L183.255 292.92C181.124 293.876 178.7 293.946 176.516 293.117C174.333 292.288 172.567 290.626 171.607 288.496L134.941 206.82C133.981 204.687 133.908 202.26 134.738 200.073C135.568 197.886 137.232 196.118 139.365 195.158L294.849 125.368C296.985 124.417 299.41 124.35 301.596 125.182C303.781 126.013 305.548 127.676 306.511 129.806Z" fill="#407BFF"/>
<path opacity="0.3" d="M306.511 129.806L343.163 211.482C344.115 213.614 344.183 216.036 343.354 218.219C342.525 220.402 340.866 222.167 338.739 223.13L183.255 292.92C181.124 293.876 178.7 293.946 176.516 293.117C174.333 292.288 172.567 290.626 171.607 288.496L134.941 206.82C133.981 204.687 133.908 202.26 134.738 200.073C135.568 197.886 137.232 196.118 139.365 195.158L294.849 125.368C296.985 124.417 299.41 124.35 301.596 125.182C303.781 126.013 305.548 127.676 306.511 129.806Z" fill="black"/>
<path d="M282.007 125.771L277.038 128L277.611 129.277L282.58 127.048L282.007 125.771Z" fill="#407BFF"/>
<path d="M270.078 131.114L254.584 138.065L255.157 139.342L270.651 132.392L270.078 131.114Z" fill="#407BFF"/>
<path d="M134.803 215.052L133.526 215.625L137.769 225.077L139.047 224.503L134.803 215.052Z" fill="#407BFF"/>
<path opacity="0.6" d="M301.303 125.074L261.207 203.614C257.486 210.894 251.393 216.686 243.935 220.034C236.476 223.381 228.099 224.083 220.187 222.024L134.857 199.778C135.732 197.731 137.34 196.084 139.365 195.158L294.849 125.368C296.886 124.458 299.192 124.353 301.303 125.074Z" fill="#407BFF"/>
<path d="M356.421 225.594L235.769 233.042C233.638 233.169 231.552 233.715 229.632 234.648C227.711 235.582 225.994 236.885 224.578 238.483C223.162 240.082 222.075 241.943 221.379 243.962C220.683 245.981 220.392 248.117 220.523 250.248L234.285 473.24C234.414 475.373 234.962 477.46 235.898 479.38C236.834 481.301 238.14 483.018 239.741 484.433C241.342 485.848 243.206 486.933 245.228 487.626C247.249 488.319 249.387 488.607 251.519 488.472L405.939 478.938C408.068 478.81 410.151 478.263 412.068 477.328C413.986 476.393 415.7 475.089 417.112 473.491C418.524 471.892 419.608 470.031 420.299 468.013C420.991 465.995 421.278 463.861 421.143 461.732L409.523 272.494L356.421 225.594Z" fill="#407BFF"/>
<path opacity="0.8" d="M356.421 225.594L235.769 233.042C233.638 233.169 231.552 233.715 229.632 234.648C227.711 235.582 225.994 236.885 224.578 238.483C223.162 240.082 222.075 241.943 221.379 243.962C220.683 245.981 220.392 248.117 220.523 250.248L234.285 473.24C234.414 475.373 234.962 477.46 235.898 479.38C236.834 481.301 238.14 483.018 239.741 484.433C241.342 485.848 243.206 486.933 245.228 487.626C247.249 488.319 249.387 488.607 251.519 488.472L405.939 478.938C408.068 478.81 410.151 478.263 412.068 477.328C413.986 476.393 415.7 475.089 417.112 473.491C418.524 471.892 419.608 470.031 420.299 468.013C420.991 465.995 421.278 463.861 421.143 461.732L409.523 272.494L356.421 225.594Z" fill="white"/>
<g opacity="0.22">
<path d="M363.715 459.073L263.321 465.275C261.445 465.382 259.604 464.743 258.198 463.497C256.792 462.251 255.936 460.5 255.817 458.625C255.709 456.75 256.346 454.909 257.589 453.501C258.831 452.093 260.579 451.233 262.453 451.107L362.847 444.919C364.722 444.807 366.566 445.443 367.974 446.686C369.383 447.93 370.242 449.68 370.365 451.555C370.476 453.433 369.839 455.278 368.592 456.687C367.346 458.096 365.592 458.954 363.715 459.073Z" fill="#407BFF"/>
</g>
<g opacity="0.22">
<path d="M304.299 265.424L251.197 268.672C249.322 268.78 247.481 268.143 246.073 266.901C244.666 265.658 243.805 263.91 243.679 262.036C243.572 260.159 244.21 258.316 245.456 256.908C246.702 255.5 248.453 254.641 250.329 254.518L303.431 251.242C305.305 251.131 307.147 251.767 308.553 253.011C309.96 254.255 310.816 256.005 310.935 257.878C311.054 259.759 310.422 261.609 309.178 263.024C307.934 264.439 306.179 265.302 304.299 265.424Z" fill="#407BFF"/>
</g>
<g opacity="0.22">
<path d="M340.671 291.381L252.933 296.785C251.057 296.9 249.211 296.266 247.802 295.021C246.392 293.777 245.534 292.025 245.415 290.149C245.304 288.271 245.941 286.425 247.188 285.016C248.434 283.607 250.188 282.75 252.065 282.631L339.789 277.227C341.666 277.112 343.511 277.746 344.921 278.99C346.33 280.234 347.188 281.986 347.307 283.863C347.419 285.738 346.783 287.582 345.54 288.99C344.296 290.399 342.546 291.258 340.671 291.381Z" fill="#407BFF"/>
</g>
<g opacity="0.22">
<path d="M382.713 316.986L254.669 324.882C252.788 324.997 250.937 324.362 249.523 323.116C248.109 321.869 247.246 320.113 247.123 318.232C247.012 316.358 247.648 314.516 248.892 313.11C250.135 311.704 251.886 310.847 253.759 310.728L381.817 302.818C383.693 302.711 385.535 303.35 386.941 304.596C388.346 305.842 389.202 307.593 389.321 309.468C389.433 311.339 388.801 313.179 387.564 314.587C386.326 315.994 384.583 316.857 382.713 316.986Z" fill="#407BFF"/>
</g>
<g opacity="0.22">
<path d="M384.449 345.071L310.011 349.663C308.136 349.774 306.292 349.138 304.884 347.895C303.475 346.652 302.616 344.901 302.493 343.027C302.378 341.15 303.012 339.305 304.257 337.895C305.501 336.486 307.253 335.627 309.129 335.509L383.567 330.917C385.444 330.802 387.289 331.436 388.699 332.68C390.108 333.924 390.966 335.676 391.085 337.553C391.197 339.428 390.561 341.272 389.318 342.68C388.074 344.089 386.324 344.948 384.449 345.071Z" fill="#407BFF"/>
</g>
<g opacity="0.22">
<path d="M275.865 351.762L256.391 352.966C254.517 353.077 252.675 352.442 251.269 351.198C249.862 349.954 249.006 348.204 248.887 346.33C248.776 344.455 249.411 342.611 250.655 341.203C251.898 339.794 253.648 338.935 255.523 338.812L274.997 337.608C276.874 337.501 278.717 338.14 280.125 339.385C281.534 340.631 282.393 342.382 282.515 344.258C282.622 346.134 281.983 347.976 280.737 349.382C279.491 350.788 277.74 351.643 275.865 351.762Z" fill="#407BFF"/>
</g>
<g opacity="0.22">
<path d="M386.185 373.154L258.127 381.05C256.252 381.161 254.408 380.526 253 379.283C251.591 378.039 250.732 376.289 250.609 374.414C250.502 372.537 251.141 370.694 252.386 369.286C253.632 367.878 255.383 367.019 257.259 366.896L385.303 359C387.181 358.889 389.027 359.526 390.436 360.773C391.845 362.019 392.702 363.773 392.821 365.65C392.932 367.524 392.297 369.366 391.053 370.773C389.809 372.179 388.059 373.035 386.185 373.154Z" fill="#407BFF"/>
</g>
<g opacity="0.22">
<path d="M338.501 404.291L259.863 409.149C257.986 409.256 256.143 408.617 254.735 407.372C253.327 406.126 252.468 404.375 252.345 402.499C252.238 400.623 252.877 398.781 254.123 397.375C255.369 395.969 257.12 395.114 258.995 394.995L337.633 390.137C339.509 390.029 341.35 390.668 342.756 391.914C344.162 393.16 345.018 394.912 345.137 396.787C345.252 398.662 344.618 400.506 343.373 401.913C342.129 403.32 340.376 404.175 338.501 404.291Z" fill="#407BFF"/>
</g>
<g opacity="0.22">
<path d="M387.907 401.252L366.907 402.54C365.033 402.651 363.191 402.016 361.785 400.772C360.378 399.528 359.522 397.778 359.403 395.904C359.288 394.028 359.922 392.182 361.166 390.773C362.41 389.363 364.163 388.505 366.039 388.386L387.039 387.098C388.915 386.983 390.761 387.617 392.17 388.862C393.58 390.106 394.438 391.858 394.557 393.734C394.664 395.611 394.026 397.455 392.78 398.863C391.535 400.271 389.783 401.13 387.907 401.252Z" fill="#407BFF"/>
</g>
<g opacity="0.22">
<path d="M389.643 429.336L261.599 437.232C259.723 437.344 257.88 436.708 256.471 435.465C255.063 434.222 254.203 432.471 254.081 430.596C253.97 428.721 254.605 426.877 255.848 425.469C257.092 424.06 258.842 423.201 260.717 423.078L388.775 415.182C390.649 415.071 392.491 415.707 393.897 416.951C395.304 418.195 396.16 419.945 396.279 421.818C396.394 423.695 395.76 425.54 394.516 426.95C393.272 428.359 391.519 429.218 389.643 429.336Z" fill="#407BFF"/>
</g>
<path opacity="0.22" d="M356.421 225.594L358.507 259.362C358.637 261.491 359.185 263.574 360.121 265.491C361.056 267.408 362.36 269.122 363.957 270.535C365.555 271.949 367.416 273.033 369.433 273.727C371.45 274.421 373.584 274.711 375.713 274.58L409.523 272.494L356.421 225.594Z" fill="#407BFF"/>
<path opacity="0.5" d="M316.913 309.832C316.892 308.214 316.547 306.617 315.898 305.134C315.249 303.652 314.309 302.314 313.135 301.201C311.96 300.088 310.574 299.221 309.059 298.652C307.544 298.084 305.93 297.825 304.313 297.89H192.173C183.675 297.89 175.373 304.792 173.777 313.29L129.523 540.02C127.871 548.518 133.415 555.42 141.913 555.42H497.513C506.011 555.42 514.243 548.532 515.909 540.02L552.407 353.12C554.059 344.608 548.515 337.72 540.017 337.72H346.523C329.723 337.72 317.487 326.156 316.913 309.832Z" fill="#407BFF"/>
</svg>
