<svg width="60" height="60" viewBox="0 0 60 60" fill="none" xmlns="http://www.w3.org/2000/svg">
<g clip-path="url(#clip0_60_44)">
<path d="M0 30V0H60V60H0" fill="#007ACC"/>
<path d="M13.1548 30.105V32.55H20.9548V54.75H26.4898V32.55H34.2898V30.15C34.2898 28.8 34.2898 27.705 34.2298 27.675C34.2298 27.63 29.4748 27.615 23.6998 27.615L13.1998 27.66V30.12L13.1548 30.105ZM48.2098 27.6C49.7398 27.96 50.9098 28.65 51.9598 29.745C52.5148 30.345 53.3398 31.395 53.3998 31.665C53.3998 31.755 50.8048 33.51 49.2298 34.485C49.1698 34.53 48.9298 34.275 48.6898 33.885C47.9098 32.775 47.1148 32.295 45.8698 32.205C44.0698 32.085 42.8698 33.03 42.8698 34.605C42.8698 35.085 42.9598 35.355 43.1398 35.745C43.5448 36.57 44.2948 37.065 46.6198 38.085C50.9098 39.93 52.7698 41.145 53.8948 42.885C55.1698 44.835 55.4548 47.895 54.5998 50.19C53.6398 52.695 51.2998 54.39 47.9548 54.945C46.9048 55.125 44.5048 55.095 43.3798 54.9C40.9798 54.45 38.6848 53.25 37.2748 51.705C36.7198 51.105 35.6548 49.5 35.7148 49.395L36.2848 49.035L38.5348 47.73L40.2298 46.74L40.6198 47.265C41.1148 48.045 42.2248 49.095 42.8698 49.455C44.8198 50.46 47.4298 50.325 48.7198 49.155C49.2748 48.645 49.5148 48.105 49.5148 47.355C49.5148 46.665 49.4098 46.35 49.0648 45.825C48.5848 45.165 47.6248 44.625 44.9248 43.425C41.8198 42.105 40.4998 41.265 39.2698 39.975C38.5648 39.195 37.9198 37.98 37.6198 36.975C37.3948 36.105 37.3198 33.975 37.5298 33.12C38.1748 30.12 40.4398 28.02 43.6798 27.42C44.7298 27.21 47.2048 27.3 48.2398 27.57L48.2098 27.6Z" fill="white"/>
</g>
<defs>
<clipPath id="clip0_60_44">
<rect width="60" height="60" fill="white"/>
</clipPath>
</defs>
</svg>
