<svg width="169" height="68" viewBox="0 0 169 68" fill="none" xmlns="http://www.w3.org/2000/svg">
<g clip-path="url(#clip0_130_111)">
<path d="M26.2533 16.2342L13.1256 8.12575L0 16.2342V8.12575L13.1277 0.017334L26.2554 8.12575V16.2342H26.2533Z" fill="#A435F0"/>
<path d="M6.87753 23.042V40.9139C6.87753 45.5315 10.1008 47.7827 13.1277 47.7827C16.1799 47.7827 19.38 45.4728 19.38 40.8529V23.042H26.2554V41.3407C26.2554 45.5947 25.005 48.8756 22.5062 51.1268C20.0031 53.3757 16.8791 54.4708 13.0686 54.4708C9.26227 54.4708 6.13612 53.378 3.69435 51.1268C1.25046 48.8778 0 45.7189 0 41.5213V23.042H6.87753ZM85.7051 45.2538L90.8125 48.4082C87.6969 52.2061 83.5421 54.4099 78.3206 54.4099C73.8299 54.4099 70.1356 52.9512 67.3516 50.0949C64.5676 47.2363 63.1482 43.4045 63.1482 38.6017V38.3624C63.1482 33.4964 64.5676 29.6059 67.3516 26.6277C70.1947 23.6494 73.7771 22.1907 78.1516 22.1907C82.3022 22.1907 85.7093 23.6494 88.3222 26.6277C90.9942 29.6059 92.3017 33.2548 92.3017 37.6331C92.3017 39.0443 92.1517 40.5459 92.1517 40.5459H69.9349C70.3088 45.2018 73.6166 48.2094 78.5487 48.2094C81.2524 48.2094 83.6245 47.2363 85.7051 45.2538ZM72.6386 30.3375C71.1727 31.5568 70.3299 33.0561 70.1102 34.8354H85.3608C85.2974 33.1148 84.5644 31.6178 83.2084 30.3985C81.7847 29.0595 80.1371 28.3911 78.1495 28.3911C76.0478 28.3911 74.17 29.0595 72.6365 30.3353L72.6386 30.3375ZM154.926 58.5397C152.138 65.5869 149.219 67.9826 144.743 67.9826H141.64V61.4615H144.149C145.689 61.4615 147.119 60.8429 148.484 57.4762L149.848 54.105L138.083 23.042H145.074L153.428 45.4141L162.011 23.042H169L154.928 58.5397H154.926ZM53.0262 11.3118H59.8467V53.6805H53.0262V50.8603C51.4716 52.3935 48.5292 54.3489 43.8759 54.3489C39.8436 54.3489 36.4323 52.8293 33.6483 49.7878C30.9193 46.6876 29.5569 42.919 29.5569 38.3579C29.5569 33.799 30.9193 30.0304 33.6483 26.9889C36.4323 23.891 39.8415 22.3714 43.8759 22.3714C47.2661 22.3714 50.7725 23.6562 53.0262 25.817V11.3118ZM53.5395 38.3624C53.5395 35.6844 52.6841 33.4355 50.9795 31.6742C49.3319 29.9108 47.2302 28.9985 44.7842 28.9985C42.3403 28.9985 40.3527 29.9108 38.7051 31.6742C37.1146 33.4355 36.3182 35.6844 36.3182 38.3624C36.3182 41.0358 37.1167 43.2848 38.7051 45.0483C40.3527 46.8118 42.3403 47.724 44.7842 47.724C47.2302 47.724 49.3319 46.8118 50.9795 45.0483C52.6841 43.2848 53.5395 41.0358 53.5395 38.3624ZM127.481 22.4368C133.413 22.4368 137.428 26.7248 137.428 34.7135V53.6805H130.608V35.7454C130.608 31.5523 128.732 28.9376 125.492 28.9376C122.139 28.9376 119.812 31.8571 119.812 36.0502V53.6828H113.048V35.7499C113.048 31.5546 111.175 28.9398 107.932 28.9398C104.753 28.9398 102.364 31.9181 102.364 36.0525V53.6828H95.6031V23.0465H102.364V26.2325C103.571 24.6519 105.989 22.4346 110.093 22.4346C114.947 22.4346 117.026 25.4422 117.763 26.9483C119.609 24.7332 122.3 22.4346 127.481 22.4346V22.4368Z" fill="black"/>
</g>
<defs>
<clipPath id="clip0_130_111">
<rect width="169" height="68" fill="white"/>
</clipPath>
</defs>
</svg>
