<svg width="60" height="60" viewBox="0 0 60 60" fill="none" xmlns="http://www.w3.org/2000/svg">
<path d="M55 13.8875V46.1125C55 47.7 54.0125 49.1125 52.525 49.6375L41.5 54.8125L42.5 41.25V18.75L41.5 5.1875L52.525 10.3625C54.0125 10.8875 55 12.3 55 13.8875Z" fill="#CE93D8"/>
<path d="M5.52002 42.2688L9.46877 44.7063C10.385 45.2563 11.5488 45.1626 12.3663 44.4751L42.5 19.9226V6.69131C42.5 5.19381 40.6475 4.49381 39.6563 5.61631L11.25 37.3413L5.52002 42.2688Z" fill="#8E24AA"/>
<path d="M5.52002 17.7313L9.46877 15.2938C10.385 14.7438 11.5488 14.8376 12.3663 15.5251L42.5 40.0788V53.3101C42.5 54.8076 40.6475 55.5076 39.6563 54.3851L11.25 22.6588L5.52002 17.7313Z" fill="#AB47BC"/>
<path d="M11.25 22.6624V37.3374L7.25 42.0124C6.525 42.9624 5 42.4499 5 41.2499V18.7499C5 17.5499 6.525 17.0374 7.25 17.9874L11.25 22.6624Z" fill="#6A1B9A"/>
</svg>
