<svg width="60" height="60" viewBox="0 0 60 60" fill="none" xmlns="http://www.w3.org/2000/svg">
<path d="M1.71497 21.4484C1.71497 21.4484 0.294643 20.4058 1.99904 19.0137L5.97004 15.3978C5.97004 15.3978 7.10631 14.1804 8.30767 15.2411L44.9522 43.4934V57.041C44.9522 57.041 44.9344 59.1684 42.2535 58.9333L1.71497 21.4484Z" fill="#2489CA"/>
<path d="M11.1598 30.1809L1.71456 38.9254C1.71456 38.9254 0.744004 39.6606 1.71456 40.9744L6.09983 45.0363C6.09983 45.0363 7.1414 46.1753 8.68009 44.8796L18.6934 37.1476L11.1598 30.1809Z" fill="#1070B3"/>
<path d="M27.742 30.2531L45.0641 16.7838L44.9517 3.30851C44.9517 3.30851 44.2119 0.367568 41.7441 1.8983L18.6934 23.2623L27.742 30.2531Z" fill="#0877B9"/>
<path d="M42.2531 58.9514C43.2592 60 44.4783 59.6565 44.4783 59.6565L57.9773 52.8827C59.7054 51.6834 59.4628 50.1948 59.4628 50.1948V9.74486C59.4628 7.96704 57.6755 7.35234 57.6755 7.35234L45.9755 1.60907C43.4189 -1.3411e-05 41.7441 1.89834 41.7441 1.89834C41.7441 1.89834 43.8983 0.319392 44.9517 3.30854V56.7939C44.9517 57.1615 44.8748 57.5231 44.7209 57.8485C44.4132 58.4813 43.7444 59.0719 42.1406 58.8248L42.2531 58.9514Z" fill="#3C99D4"/>
</svg>
